<?xml version="1.0" encoding="utf-8"?>
<!-- Generator: Adobe Illustrator 22.1.0, SVG Export Plug-In . SVG Version: 6.00 Build 0)  -->
<svg version="1.1" id="Layer_1" xmlns="http://www.w3.org/2000/svg" xmlns:xlink="http://www.w3.org/1999/xlink" x="0px" y="0px"
	 viewBox="0 0 200 700" style="enable-background:new 0 0 200 700;" xml:space="preserve">
<style type="text/css">
	.st0{fill:#231F20;}
	.st1{fill:none;stroke:#231F20;stroke-width:0.25;stroke-miterlimit:10;}
	.st2{fill:#EB1D39;}
	.st3{fill:#FFFFFF;}
	.st4{fill:none;stroke:#231F20;stroke-width:0.8892;stroke-miterlimit:10;}
</style>
<g>
	<g>
		<path class="st0" d="M99.9,163.3L99.9,163.3c0-15,3.7-26.3,11.5-35.7c7-8.3,16.3-14,26.2-20c11.9-7.2,24.2-14.7,33.7-27.6
			c10.8-14.6,16-34.2,16-59.7l0-0.1l0.2,0l0,0.1c0,25.5-5.3,45.1-16.1,59.8c-9.5,12.9-21.8,20.4-33.7,27.7c-9.9,6-19.2,11.7-26.1,20
			c-7.8,9.3-11.4,20.6-11.5,35.5l0,0.1L99.9,163.3z"/>
	</g>
	<g>
		<path class="st0" d="M99.9,163.3L99.9,163.3c0-15,3.5-26.3,10.9-35.7c6.6-8.3,15.5-14,24.9-20c11.3-7.2,23-14.7,32-27.6
			C178,65.3,183,45.8,183,20.3l0-0.1l0.2,0l0,0.1c0,25.5-5,45.1-15.3,59.8c-9,12.9-20.8,20.4-32.1,27.7c-9.4,6-18.2,11.7-24.8,20
			c-7.4,9.3-10.9,20.6-10.9,35.5l0,0.1L99.9,163.3z"/>
	</g>
	<g>
		<path class="st0" d="M99.9,163.3L99.9,163.3c0-15,3.3-26.3,10.4-35.7c6.3-8.3,14.7-14,23.6-20c10.7-7.2,21.9-14.7,30.4-27.6
			c9.7-14.6,14.4-34.2,14.5-59.7l0-0.1l0.2,0l0,0.1c0,25.5-4.8,45.1-14.5,59.8c-8.6,12.9-19.7,20.4-30.5,27.7
			c-8.9,6-17.3,11.7-23.6,20c-7,9.3-10.3,20.6-10.3,35.5l0,0.1L99.9,163.3z"/>
	</g>
	<g>
		<path class="st0" d="M99.9,163.3L99.9,163.3c0-15,3.1-26.3,9.8-35.7c5.9-8.3,13.9-14,22.3-20c10.2-7.2,20.7-14.7,28.8-27.6
			c9.2-14.6,13.7-34.2,13.7-59.7l0-0.1l0.2,0l0,0.1c0,25.5-4.5,45.1-13.7,59.8c-8.1,12.9-18.6,20.4-28.8,27.7
			c-8.4,6-16.4,11.7-22.3,20c-6.7,9.3-9.8,20.6-9.8,35.5l0,0.1L99.9,163.3z"/>
	</g>
	<g>
		<path class="st0" d="M99.9,163.3L99.9,163.3c0-15,3-26.3,9.3-35.7c5.6-8.3,13.1-14,21.1-20c9.6-7.2,19.5-14.7,27.1-27.6
			c8.7-14.6,12.9-34.2,12.9-59.7l0-0.1l0.2,0l0,0.1c0,25.5-4.3,45.1-13,59.7c-7.6,12.9-17.6,20.4-27.2,27.7c-7.9,6-15.4,11.7-21,20
			c-6.3,9.3-9.2,20.6-9.2,35.5l0,0.1L99.9,163.3z"/>
	</g>
	<g>
		<path class="st0" d="M99.9,163.3L99.9,163.3c0-15,2.8-26.3,8.7-35.7c5.3-8.3,12.3-14,19.8-20c9-7.2,18.3-14.7,25.5-27.6
			C162,65.3,166,45.8,166,20.3l0-0.1l0.2,0l0,0.1c0,25.5-4,45.1-12.2,59.7c-7.2,12.9-16.5,20.4-25.5,27.7c-7.5,6-14.5,11.7-19.8,20
			c-5.9,9.3-8.7,20.6-8.7,35.5l0,0.1L99.9,163.3z"/>
	</g>
	<g>
		<path class="st0" d="M99.9,163.3L99.9,163.3c0-15,2.6-26.3,8.1-35.7c4.9-8.3,11.5-14,18.5-20c8.4-7.3,17.1-14.7,23.8-27.6
			c7.6-14.6,11.3-34.2,11.4-59.7l0-0.1l0.2,0l0,0.1c0,25.5-3.8,45.1-11.4,59.7c-6.7,12.9-15.4,20.4-23.9,27.7
			c-7,6-13.6,11.7-18.5,20c-5.5,9.3-8.1,20.6-8.1,35.5l0,0.1L99.9,163.3z"/>
	</g>
	<g>
		<path class="st0" d="M99.9,163.3L99.9,163.3c0-15,2.4-26.3,7.6-35.7c4.6-8.3,10.7-14,17.2-20c7.8-7.3,16-14.8,22.2-27.6
			c7.1-14.6,10.6-34.2,10.6-59.7l0-0.1l0.2,0l0,0.1c0,25.5-3.5,45.1-10.6,59.7c-6.3,12.9-14.4,20.4-22.2,27.7
			c-6.5,6-12.6,11.7-17.2,20c-5.1,9.3-7.5,20.6-7.6,35.5l0,0.1L99.9,163.3z"/>
	</g>
	<g>
		<path class="st0" d="M99.9,163.3L99.9,163.3c0-15,2.3-26.3,7-35.7c4.2-8.3,9.9-14,16-20c7.3-7.3,14.8-14.8,20.6-27.6
			c6.6-14.7,9.8-34.2,9.8-59.7l0-0.1l0.2,0l0,0.1c0,25.5-3.3,45.1-9.8,59.7c-5.8,12.9-13.3,20.4-20.6,27.7c-6,6-11.7,11.7-15.9,20
			c-4.8,9.3-7,20.6-7,35.5l0,0.1L99.9,163.3z"/>
	</g>
	<g>
		<path class="st0" d="M99.9,163.3L99.9,163.3c0-15,2.1-26.3,6.5-35.7c3.9-8.3,9.1-14,14.7-20c6.7-7.3,13.6-14.8,18.9-27.6
			c6-14.7,9-34.2,9-59.7l0-0.1l0.2,0l0,0.1c0,25.5-3,45.1-9.1,59.7c-5.3,12.9-12.3,20.4-18.9,27.7c-5.5,6-10.8,11.7-14.7,20
			c-4.4,9.3-6.4,20.6-6.5,35.5l0,0.1L99.9,163.3z"/>
	</g>
	<g>
		<path class="st0" d="M99.9,163.3L99.9,163.3c0.1-32.8,5-43.9,10.2-55.7c6.3-14.2,13.4-30.3,13.4-87.4l0-0.1l0.2,0l0,0.1
			c-0.1,57.1-7.2,73.2-13.5,87.4c-5.2,11.8-10.1,22.9-10.1,55.5l0,0.1L99.9,163.3z"/>
	</g>
	<g>
		<path class="st0" d="M99.9,163.3L99.9,163.3c0.1-32.8,4.1-43.9,8.3-55.7c5.1-14.2,10.9-30.3,11-87.4l0-0.1l0.2,0l0,0.1
			c-0.1,57.1-5.9,73.2-11,87.4c-4.3,11.8-8.3,22.9-8.3,55.5l0,0.1L99.9,163.3z"/>
	</g>
	<g>
		<path class="st0" d="M99.9,163.3L99.9,163.3c0.1-32.8,3.2-43.9,6.5-55.7c4-14.2,8.5-30.3,8.6-87.4l0-0.1l0.2,0l0,0.1
			c-0.1,57.1-4.6,73.2-8.6,87.4c-3.3,11.8-6.4,22.9-6.5,55.6l0,0.1L99.9,163.3z"/>
	</g>
	<g>
		<path class="st0" d="M99.9,163.3L99.9,163.3c0.1-32.8,2.3-43.9,4.7-55.7c2.9-14.2,6.1-30.3,6.2-87.4l0-0.1l0.2,0l0,0.1
			c-0.1,57.1-3.3,73.2-6.2,87.4c-2.4,11.8-4.6,22.9-4.7,55.6l0,0.1L99.9,163.3z"/>
	</g>
	<g>
		<path class="st0" d="M99.9,163.3L99.9,163.3c0.1-32.8,1.4-43.9,2.8-55.7c1.7-14.2,3.7-30.3,3.8-87.4l0-0.1l0.2,0l0,0.1
			c-0.1,57.1-2,73.2-3.8,87.4c-1.4,11.8-2.8,22.9-2.8,55.6l0,0.1L99.9,163.3z"/>
	</g>
	<g>
		<path class="st0" d="M99.9,163.3L99.9,163.3c0.1-32.8,0.5-43.9,1-55.7c0.6-14.2,1.3-30.3,1.3-87.4l0-0.1l0.2,0l0,0.1
			c-0.1,57.1-0.8,73.2-1.3,87.4c-0.5,11.8-1,22.9-1,55.6l0,0.1L99.9,163.3z"/>
	</g>
	<g>
		<path class="st0" d="M98,20.2L98,20.2l0.2-0.1l0,0.1c-0.1,57.1,0.5,73.2,1.1,87.4c0.5,11.8,0.9,22.9,0.8,55.6l0,0.1l-0.2,0l0-0.1
			c0.1-32.7-0.4-43.8-0.8-55.6C98.5,93.4,97.9,77.3,98,20.2z"/>
	</g>
	<g>
		<path class="st0" d="M93.7,20.1L93.7,20.1l0.2-0.1l0,0.1c-0.1,57.1,1.8,73.2,3.5,87.4c1.4,11.8,2.7,22.9,2.7,55.6l0,0.1l-0.2,0
			l0-0.1c0.1-32.7-1.3-43.8-2.7-55.6C95.5,93.4,93.6,77.3,93.7,20.1z"/>
	</g>
	<g>
		<path class="st0" d="M89.5,20.1L89.5,20.1l0.2-0.1l0,0.1c-0.1,57.1,3.1,73.2,5.9,87.4c2.3,11.8,4.5,22.9,4.5,55.6l0,0.1l-0.2,0
			l0-0.1c0.1-32.7-2.2-43.8-4.5-55.6C92.6,93.4,89.4,77.3,89.5,20.1z"/>
	</g>
	<g>
		<path class="st0" d="M85.2,20.1L85.2,20.1l0.2-0.1l0,0.1c-0.1,57.1,4.4,73.2,8.3,87.4c3.3,11.8,6.4,22.9,6.3,55.6l0,0.1l-0.2,0
			l0-0.1c0.1-32.7-3-43.8-6.3-55.6C89.6,93.4,85.1,77.3,85.2,20.1z"/>
	</g>
	<g>
		<path class="st0" d="M81,20.1L81,20.1l0.2-0.1l0,0.1c-0.1,57.1,5.7,73.2,10.8,87.4c4.2,11.8,8.2,22.9,8.2,55.6l0,0.1l-0.2,0l0-0.1
			c0.1-32.7-3.9-43.8-8.1-55.6C86.7,93.4,80.9,77.3,81,20.1z"/>
	</g>
	<g>
		<path class="st0" d="M55.5,20.1L55.5,20.1l0.2-0.1l0,0.1c0,25.5,2.6,45.1,8.1,59.7c4.8,12.9,11.1,20.4,17.2,27.7
			c9.9,11.8,19.2,23,19.1,55.7l0,0.1l-0.2,0l0-0.1c0-14.9-1.8-26.2-5.8-35.5c-3.5-8.3-8.3-14-13.3-20c-6.1-7.3-12.4-14.8-17.2-27.8
			C58.1,65.2,55.4,45.6,55.5,20.1z"/>
	</g>
	<g>
		<path class="st0" d="M51.2,20.1L51.2,20.1l0.2-0.1l0,0.1c0,25.5,2.9,45.1,8.9,59.7c5.3,12.9,12.2,20.4,18.8,27.7
			c5.5,6,10.7,11.7,14.6,20.1c4.4,9.4,6.4,20.7,6.4,35.6l0,0.1l-0.2,0l0-0.1c0-14.9-2-26.2-6.3-35.5c-3.9-8.3-9.1-14-14.6-20
			c-6.7-7.3-13.6-14.8-18.9-27.8C54.1,65.2,51.2,45.6,51.2,20.1z"/>
	</g>
	<g>
		<path class="st0" d="M47,20.1L47,20.1l0.2-0.1l0,0.1c0,25.5,3.1,45,9.6,59.7c5.7,12.9,13.2,20.4,20.5,27.7
			c6,6,11.7,11.7,15.9,20.1c4.7,9.4,6.9,20.7,6.9,35.6l0,0.1l-0.2,0l0-0.1c0-14.9-2.2-26.2-6.9-35.5c-4.2-8.3-9.9-14-15.9-20
			c-7.3-7.3-14.8-14.8-20.5-27.8C50.1,65.2,46.9,45.6,47,20.1z"/>
	</g>
	<g>
		<path class="st0" d="M42.7,20.1L42.7,20.1l0.2-0.1l0,0.1c0,25.5,3.4,45,10.4,59.7c6.2,12.9,14.3,20.4,22.1,27.7
			c6.5,6,12.6,11.7,17.2,20.1c5.1,9.4,7.5,20.7,7.5,35.6l0,0.1l-0.2,0l0-0.1c0-14.9-2.3-26.2-7.5-35.5c-4.5-8.3-10.7-14-17.1-20
			c-7.8-7.3-15.9-14.8-22.1-27.8C46.1,65.2,42.7,45.6,42.7,20.1z"/>
	</g>
	<g>
		<path class="st0" d="M38.5,20.1L38.5,20.1l0.2-0.1l0,0.1c0,25.5,3.6,45,11.2,59.7c6.7,12.9,15.3,20.4,23.7,27.7
			c7,6,13.6,11.7,18.5,20.1c5.5,9.4,8.1,20.7,8,35.6l0,0.1l-0.2,0l0-0.1c0-14.9-2.5-26.2-8-35.5c-4.9-8.3-11.5-14-18.4-20
			c-8.4-7.3-17.1-14.8-23.8-27.8C42.1,65.1,38.4,45.6,38.5,20.1z"/>
	</g>
	<g>
		<path class="st0" d="M34.2,20.1L34.2,20.1l0.2-0.1l0,0.1c0,25.5,3.9,45,12,59.7c7.1,12.9,16.4,20.4,25.4,27.7
			c7.5,6,14.5,11.7,19.7,20.1c5.9,9.4,8.6,20.7,8.6,35.6l0,0.1l-0.2,0l0-0.1c0-14.9-2.7-26.2-8.6-35.5c-5.2-8.3-12.2-14-19.7-20
			c-9-7.3-18.3-14.8-25.4-27.8C38.1,65.1,34.2,45.6,34.2,20.1z"/>
	</g>
	<g>
		<path class="st0" d="M30,20L30,20l0.2-0.1l0,0.1c0,25.5,4.1,45,12.7,59.7c7.6,12.9,17.5,20.4,27,27.7c7.9,6,15.4,11.7,21,20.1
			c6.3,9.4,9.2,20.7,9.1,35.6l0,0.1l-0.2,0l0-0.1c0-14.9-2.9-26.2-9.1-35.5c-5.6-8.3-13-14-21-20c-9.6-7.3-19.5-14.8-27.1-27.8
			C34.1,65.1,29.9,45.6,30,20z"/>
	</g>
	<g>
		<path class="st0" d="M25.7,20L25.7,20l0.2-0.1l0,0.1c0,25.5,4.4,45,13.5,59.7c8,12.9,18.5,20.4,28.7,27.7
			c8.4,6,16.4,11.7,22.3,20.1c6.6,9.4,9.7,20.7,9.7,35.6l0,0.1l-0.2,0l0-0.1c0-14.9-3.1-26.2-9.7-35.5c-5.9-8.3-13.8-14-22.2-20
			c-10.2-7.3-20.7-14.8-28.7-27.8C30.1,65.1,25.7,45.6,25.7,20z"/>
	</g>
	<g>
		<path class="st0" d="M21.5,20L21.5,20l0.2-0.1l0,0.1c0,25.5,4.6,45,14.3,59.7c8.5,12.9,19.6,20.4,30.3,27.7
			c8.9,6,17.3,11.7,23.6,20.1c7,9.4,10.3,20.7,10.3,35.6l0,0.1l-0.2,0l0-0.1c0-14.9-3.2-26.2-10.2-35.5c-6.2-8.3-14.6-14-23.5-20
			c-10.7-7.3-21.8-14.8-30.4-27.8C26.1,65.1,21.4,45.6,21.5,20z"/>
	</g>
	<g>
		<path class="st0" d="M17.2,20L17.2,20l0.2-0.1l0,0.1c0,25.5,4.9,45,15.1,59.7c9,12.9,20.7,20.4,32,27.7c9.4,6,18.2,11.8,24.8,20.1
			c7.4,9.4,10.8,20.7,10.8,35.6l0,0.1l-0.2,0l0-0.1c0-14.9-3.4-26.2-10.8-35.5c-6.6-8.3-15.4-14-24.8-20c-11.3-7.3-23-14.8-32-27.8
			C22.1,65.1,17.2,45.6,17.2,20z"/>
	</g>
	<g>
		<path class="st0" d="M13,20L13,20l0.2-0.1l0,0.1c0,25.5,5.1,45,15.9,59.7c9.4,12.9,21.7,20.4,33.6,27.7c9.9,6,19.2,11.8,26.1,20.1
			c7.8,9.4,11.4,20.7,11.4,35.6l0,0.1l-0.2,0l0-0.1c0-14.9-3.6-26.2-11.3-35.5c-6.9-8.3-16.2-14-26.1-20
			c-11.9-7.3-24.2-14.8-33.7-27.8C18.1,65.1,12.9,45.6,13,20z"/>
	</g>
</g>
<g>
	<path class="st0" d="M158.9,13.9l0-4.3l-2.1,3.5H156l-2.1-3.4v4.2l-1.5,0V6.8l1.4,0l2.7,4.4l2.6-4.4l1.4,0l0,7.1L158.9,13.9z"/>
	<path class="st0" d="M167.6,12.6v1.3l-5.5,0V6.8l5.4,0v1.3l-3.7,0v1.5l3.3,0V11l-3.3,0v1.6L167.6,12.6z"/>
	<path class="st0" d="M168.9,6.8l3.2,0c0.8,0,1.5,0.1,2.1,0.4c0.6,0.3,1.1,0.7,1.4,1.2c0.3,0.5,0.5,1.2,0.5,1.9s-0.2,1.3-0.5,1.9
		c-0.3,0.5-0.8,1-1.4,1.2c-0.6,0.3-1.3,0.4-2.1,0.4l-3.2,0V6.8z M172.1,12.6c0.7,0,1.3-0.2,1.7-0.6c0.4-0.4,0.6-0.9,0.6-1.6
		s-0.2-1.2-0.6-1.6c-0.4-0.4-1-0.6-1.7-0.6l-1.5,0v4.4L172.1,12.6z"/>
	<path class="st0" d="M177.3,6.8l1.6,0v7.1l-1.6,0V6.8z"/>
	<path class="st0" d="M185.4,12.4l-3.3,0l-0.6,1.5l-1.7,0l3.2-7.1l1.6,0l3.2,7.1l-1.7,0L185.4,12.4z M184.8,11.2l-1.1-2.7l-1.1,2.7
		L184.8,11.2z"/>
</g>
<g>
	<path class="st0" d="M88.6,7.4l3.2,0c0.8,0,1.5,0.1,2.1,0.4c0.6,0.3,1.1,0.7,1.4,1.2c0.3,0.5,0.5,1.2,0.5,1.9s-0.2,1.3-0.5,1.9
		s-0.8,1-1.4,1.2c-0.6,0.3-1.3,0.4-2.1,0.4l-3.2,0L88.6,7.4z M91.8,13.1c0.7,0,1.3-0.2,1.7-0.6c0.4-0.4,0.6-0.9,0.6-1.6
		c0-0.7-0.2-1.2-0.6-1.6c-0.4-0.4-1-0.6-1.7-0.6l-1.5,0v4.4L91.8,13.1z"/>
	<path class="st0" d="M101.6,13l-3.3,0l-0.6,1.5l-1.7,0l3.2-7.1l1.6,0l3.2,7.1l-1.7,0L101.6,13z M101.1,11.7L100,9l-1.1,2.7
		L101.1,11.7z"/>
	<path class="st0" d="M105.8,8.7l-2.3,0V7.4l6.2,0l0,1.3l-2.3,0l0,5.8h-1.6V8.7z"/>
	<path class="st0" d="M115,13l-3.3,0l-0.6,1.5l-1.7,0l3.2-7.1l1.6,0l3.2,7.1l-1.7,0L115,13z M114.5,11.7L113.3,9l-1.1,2.7
		L114.5,11.7z"/>
</g>
<g>
	<path class="st0" d="M12.2,13.6c-0.6-0.3-1-0.8-1.4-1.3c-0.3-0.6-0.5-1.2-0.5-1.9c0-0.7,0.2-1.3,0.5-1.9c0.3-0.6,0.8-1,1.4-1.3
		c0.6-0.3,1.2-0.5,2-0.5c0.6,0,1.2,0.1,1.7,0.3c0.5,0.2,0.9,0.5,1.3,0.9L16,9c-0.5-0.6-1.1-0.8-1.8-0.8c-0.4,0-0.8,0.1-1.2,0.3
		c-0.3,0.2-0.6,0.5-0.8,0.8C12,9.6,12,10,12,10.4c0,0.4,0.1,0.8,0.3,1.2c0.2,0.3,0.5,0.6,0.8,0.8c0.3,0.2,0.7,0.3,1.2,0.3
		c0.7,0,1.3-0.3,1.8-0.8l1.1,1c-0.3,0.4-0.8,0.7-1.3,0.9c-0.5,0.2-1.1,0.3-1.7,0.3C13.4,14.1,12.8,14,12.2,13.6z"/>
	<path class="st0" d="M19.5,13.6c-0.6-0.3-1.1-0.8-1.4-1.3c-0.3-0.6-0.5-1.2-0.5-1.9s0.2-1.3,0.5-1.9c0.3-0.6,0.8-1,1.4-1.3
		c0.6-0.3,1.3-0.5,2-0.5c0.7,0,1.4,0.2,2,0.5c0.6,0.3,1.1,0.8,1.4,1.3c0.3,0.6,0.5,1.2,0.5,1.9c0,0.7-0.2,1.3-0.5,1.9
		c-0.3,0.6-0.8,1-1.4,1.3c-0.6,0.3-1.3,0.5-2,0.5C20.7,14.1,20.1,14,19.5,13.6z M22.6,12.4c0.3-0.2,0.6-0.5,0.8-0.8
		c0.2-0.3,0.3-0.7,0.3-1.2c0-0.4-0.1-0.8-0.3-1.2c-0.2-0.3-0.5-0.6-0.8-0.8c-0.3-0.2-0.7-0.3-1.1-0.3c-0.4,0-0.8,0.1-1.1,0.3
		c-0.3,0.2-0.6,0.5-0.8,0.8c-0.2,0.3-0.3,0.7-0.3,1.2c0,0.4,0.1,0.8,0.3,1.2c0.2,0.3,0.5,0.6,0.8,0.8s0.7,0.3,1.1,0.3
		S22.3,12.6,22.6,12.4z"/>
	<path class="st0" d="M33.2,6.9l0,7.1l-1.4,0l-3.6-4.3l0,4.3h-1.6l0-7.1l1.4,0l3.5,4.3l0-4.3L33.2,6.9z"/>
	<path class="st0" d="M36.3,8.2l-2.3,0V6.9l6.2,0v1.3l-2.3,0l0,5.8l-1.6,0L36.3,8.2z"/>
	<path class="st0" d="M46.6,12.7l0,1.3l-5.5,0l0-7.1l5.4,0v1.3l-3.7,0v1.5l3.3,0V11l-3.3,0v1.6L46.6,12.7z"/>
	<path class="st0" d="M54.5,6.9l0,7.1l-1.4,0l-3.6-4.3l0,4.3L48,14V6.9l1.4,0l3.5,4.3V6.9L54.5,6.9z"/>
	<path class="st0" d="M57.7,8.2l-2.3,0V6.9l6.2,0l0,1.3l-2.3,0l0,5.8h-1.6L57.7,8.2z"/>
</g>
<g>
	<g>
		<path class="st1" d="M31.6,358.1"/>
		<path class="st1" d="M92.8,291.6L92.8,291.6l-0.3-0.1v0.1c0,11.9-3,20.9-9.5,28.4c-5.8,6.6-13.6,11.2-21.8,16"/>
		<path class="st1" d="M83.2,320"/>
		<path class="st1" d="M18.3,401.6c0.1,0,0.2,0,0.3,0c0.6-18.3,4.9-32.5,13.3-43.4c7.9-10.3,19.6-16.3,29.5-22.1"/>
		<path class="st1" d="M18.5,401.6c-0.1,0-0.3,293.5-0.3,295v0.1h0.3l0-0.1"/>
	</g>
	<g>
		<path class="st1" d="M74.3,336"/>
		<path class="st1" d="M47.9,401.6c0.1,0,0.2,0,0.3,0C49,359.4,63.3,347,74.6,336c9.7-9.4,18.8-18.3,18.8-44.4v-0.1h-0.3v0.1"/>
		<path class="st1" d="M48.1,401.2c0,1.4-0.2,293.9-0.2,295.3v0.1h0.3l0-0.1"/>
	</g>
	<g>
		<path class="st1" d="M77,401.7c0.2-42.3,9.1-54.7,11.9-65.7c2.4-9.4,4.6-18.3,4.6-44.4v-0.1h-1.1v0.1"/>
		<path class="st1" d="M75.9,401.7"/>
		<path class="st1" d="M75.9,696.5L75.9,696.5l1.1,0.1v-0.1c0-1.4,0-293.5,0-294.8"/>
	</g>
	<g>
		<path class="st1" d="M107.5,696.5c0-1.3,0-293.3,0-294.6c0,0-0.1,0-0.1,0c0,1.3,0,293.3,0,294.6v0.1L107.5,696.5L107.5,696.5z"/>
		<path class="st1" d="M100.1,336c-3.1-9.4-6-18.3-6-44.4v-0.1h-0.1v0.1c0,26.1,2.9,35,6,44.4c3.6,11,7.1,23.5,7.4,65.9
			c0,0,0.1,0,0.1,0C107.2,359.4,103.7,347,100.1,336z"/>
	</g>
	<g>
		<path class="st1" d="M137.2,696.5c0-1.2,0-293.1,0-294.3c-0.1,0-0.1,0-0.2,0c0,1.2,0,293.1,0,294.3v0.1L137.2,696.5L137.2,696.5z"
			/>
		<path class="st1" d="M129.2,358.1c-4.7-10.3-10-16.3-15.9-22.1c-4.9-4.8-9.5-9.3-13-16c-3.9-7.5-5.7-16.5-5.7-28.4v-0.1h-0.2v0.1
			c0,11.9,1.8,21,5.7,28.4c3.5,6.7,8.1,11.2,13,16c5.9,5.8,11.2,11.8,15.9,22.1c5,11,7.6,25.5,7.9,44.1c0.1,0,0.1,0,0.2,0
			C136.9,383.6,134.3,369.1,129.2,358.1z"/>
	</g>
	<g>
		<path class="st1" d="M166.9,696.5c0-1.1,0-292.8-0.1-293.9c-0.1,0-0.1,0-0.2,0c0,1,0.1,292.8,0.1,293.9v0.1L166.9,696.5
			L166.9,696.5z"/>
		<path class="st1" d="M153.6,358.1c-7.9-10.3-17.2-16.3-27.1-22.1c-8.2-4.8-15.9-9.3-21.7-16c-6.5-7.4-9.5-16.5-9.5-28.4v-0.1h-0.2
			v0.1c0,11.9,3,21,9.5,28.4c5.8,6.7,13.5,11.2,21.8,16c9.9,5.8,19.2,11.8,27.1,22.1c8.5,11.1,12.8,25.7,13.2,44.5
			c0.1,0,0.1,0,0.2,0C166.4,383.8,162,369.2,153.6,358.1z"/>
	</g>
</g>
<g>
	<path class="st0" d="M175.6,423c0.3-0.6,0.8-1.1,1.3-1.4c0.6-0.3,1.2-0.5,1.9-0.5c0.7,0,1.3,0.2,1.9,0.5c0.6,0.3,1,0.8,1.3,1.4
		c0.3,0.6,0.5,1.3,0.5,2c0,0.7-0.2,1.4-0.5,2c-0.3,0.6-0.8,1.1-1.3,1.4c-0.6,0.3-1.2,0.5-1.9,0.5c-0.7,0-1.3-0.2-1.9-0.5
		c-0.6-0.3-1-0.8-1.3-1.4c-0.3-0.6-0.5-1.3-0.5-2C175.1,424.3,175.2,423.6,175.6,423z M176.8,426.2c0.2,0.3,0.5,0.6,0.8,0.8
		s0.7,0.3,1.2,0.3s0.8-0.1,1.2-0.3c0.3-0.2,0.6-0.5,0.8-0.8c0.2-0.3,0.3-0.7,0.3-1.1c0-0.4-0.1-0.8-0.3-1.1
		c-0.2-0.3-0.5-0.6-0.8-0.8c-0.3-0.2-0.7-0.3-1.2-0.3s-0.8,0.1-1.2,0.3c-0.3,0.2-0.6,0.5-0.8,0.8c-0.2,0.3-0.3,0.7-0.3,1.1
		C176.5,425.5,176.6,425.8,176.8,426.2z"/>
	<path class="st0" d="M178.3,436.4c-0.3,0.2-0.7,0.3-1.1,0.3c-0.6,0-1.1-0.2-1.4-0.7c-0.3-0.5-0.5-1.2-0.5-2.1v-3.7h7.1v3.5
		c0,0.9-0.2,1.5-0.5,2c-0.3,0.5-0.8,0.7-1.4,0.7c-0.3,0-0.7-0.1-0.9-0.2c-0.3-0.2-0.5-0.4-0.6-0.7
		C178.8,435.8,178.6,436.1,178.3,436.4z M181.1,431.8h-1.7v1.6c0,0.4,0.1,0.7,0.2,0.9c0.1,0.2,0.4,0.3,0.6,0.3
		c0.3,0,0.5-0.1,0.6-0.3c0.1-0.2,0.2-0.5,0.2-0.9V431.8z M176.7,434.7c0.1,0.2,0.4,0.3,0.7,0.3c0.6,0,0.9-0.4,0.9-1.3v-1.9h-1.8v1.9
		C176.5,434.2,176.5,434.5,176.7,434.7z"/>
	<path class="st0" d="M175.4,437.9c0.2-0.4,0.4-0.7,0.8-1l1.1,0.9c-0.5,0.4-0.8,0.8-0.8,1.3c0,0.7,0.4,1,1.2,1h3.4v-2.5h1.3v4.1
		h-4.6c-0.9,0-1.5-0.2-2-0.7c-0.4-0.4-0.7-1.1-0.7-1.9C175.1,438.8,175.2,438.3,175.4,437.9z"/>
	<path class="st0" d="M176.5,449h-1.3v-5.5h7.1v5.4H181v-3.7h-1.5v3.3h-1.3v-3.3h-1.6V449z"/>
	<path class="st0" d="M175.6,451.7c0.3-0.6,0.8-1,1.3-1.4c0.6-0.3,1.2-0.5,1.9-0.5c0.7,0,1.3,0.2,1.9,0.5c0.6,0.3,1,0.8,1.3,1.4
		c0.3,0.6,0.5,1.2,0.5,2c0,0.6-0.1,1.2-0.3,1.7c-0.2,0.5-0.5,0.9-0.9,1.3l-1-1.1c0.6-0.5,0.8-1.1,0.8-1.8c0-0.4-0.1-0.8-0.3-1.2
		c-0.2-0.3-0.5-0.6-0.8-0.8c-0.3-0.2-0.7-0.3-1.2-0.3s-0.8,0.1-1.2,0.3c-0.3,0.2-0.6,0.5-0.8,0.8c-0.2,0.3-0.3,0.7-0.3,1.2
		c0,0.7,0.3,1.3,0.8,1.8l-1,1.1c-0.4-0.3-0.7-0.8-0.9-1.3s-0.3-1.1-0.3-1.7C175.1,452.9,175.2,452.3,175.6,451.7z"/>
	<path class="st0" d="M181,459.1v-2.3h1.3v6.2H181v-2.3h-5.8v-1.6H181z"/>
	<path class="st0" d="M182.3,463.9v1.6h-7.1v-1.6H182.3z"/>
	<path class="st0" d="M182.3,474.1l-7.1-3.1v-1.6l7.1-3.1v1.8l-5.1,2.2l5.1,2.2V474.1z"/>
	<path class="st0" d="M176.5,480.2h-1.3v-5.5h7.1v5.4H181v-3.7h-1.5v3.3h-1.3v-3.3h-1.6V480.2z"/>
</g>
<g>
	<path class="st0" d="M152.8,387.4v1.1H148v-1.1H152.8z"/>
	<path class="st0" d="M152.8,389.6v2.2c0,0.5-0.1,1-0.3,1.4c-0.2,0.4-0.5,0.7-0.8,0.9c-0.4,0.2-0.8,0.3-1.2,0.3
		c-0.5,0-0.9-0.1-1.2-0.3c-0.4-0.2-0.6-0.5-0.8-0.9c-0.2-0.4-0.3-0.9-0.3-1.4v-2.2H152.8z M148.9,391.7c0,0.5,0.1,0.9,0.4,1.1
		c0.3,0.3,0.6,0.4,1.1,0.4c0.5,0,0.8-0.1,1.1-0.4c0.3-0.3,0.4-0.7,0.4-1.1v-1h-2.9V391.7z"/>
	<path class="st0" d="M148.9,398.9H148v-3.7h4.7v3.6h-0.9v-2.5h-1v2.2H150v-2.2h-1.1V398.9z"/>
	<path class="st0" d="M152.8,404.1H148v-0.9l2.9-2.4H148v-1.1h4.7v0.9l-2.9,2.4h2.9V404.1z"/>
	<path class="st0" d="M151.9,406.2v-1.5h0.9v4.1h-0.9v-1.5H148v-1.1H151.9z"/>
	<path class="st0" d="M152.8,409.4v1.1H148v-1.1H152.8z"/>
	<path class="st0" d="M151.9,412.8h-1.3v2.2h-0.9v-2.2H148v-1.1h4.7v3.6h-0.9V412.8z"/>
	<path class="st0" d="M149.7,418.3H148v-1.1h1.7l3.1-1.8v1.2l-2.1,1.3l2.1,1.3v1.1L149.7,418.3z"/>
	<path class="st0" d="M150.5,425.7v1h-1.9c-0.2-0.3-0.3-0.6-0.4-0.9c-0.1-0.3-0.2-0.7-0.2-1c0-0.5,0.1-0.9,0.3-1.3
		c0.2-0.4,0.5-0.7,0.9-0.9c0.4-0.2,0.8-0.3,1.3-0.3c0.5,0,0.9,0.1,1.3,0.3c0.4,0.2,0.7,0.5,0.9,0.9c0.2,0.4,0.3,0.8,0.3,1.3
		c0,0.4-0.1,0.8-0.2,1.1c-0.1,0.3-0.3,0.6-0.6,0.9l-0.7-0.7c0.4-0.3,0.5-0.7,0.5-1.2c0-0.3-0.1-0.6-0.2-0.8s-0.3-0.4-0.5-0.5
		c-0.2-0.1-0.5-0.2-0.8-0.2c-0.3,0-0.6,0.1-0.8,0.2c-0.2,0.1-0.4,0.3-0.5,0.5c-0.1,0.2-0.2,0.5-0.2,0.8c0,0.3,0.1,0.6,0.2,0.9H150.5
		z"/>
	<path class="st0" d="M148,430.8l1.3-0.9v-0.1v-1H148v-1.1h4.7v2.1c0,0.4-0.1,0.8-0.2,1.1c-0.1,0.3-0.3,0.5-0.6,0.7
		c-0.3,0.2-0.6,0.3-0.9,0.3c-0.4,0-0.7-0.1-0.9-0.3c-0.3-0.2-0.5-0.4-0.6-0.7l-1.5,1.1V430.8z M151.7,430.5c0.1-0.2,0.2-0.4,0.2-0.8
		v-0.9h-1.7v0.9c0,0.3,0.1,0.6,0.2,0.8c0.1,0.2,0.3,0.3,0.6,0.3C151.3,430.7,151.5,430.7,151.7,430.5z"/>
	<path class="st0" d="M148.3,433.7c0.2-0.4,0.5-0.7,0.9-0.9c0.4-0.2,0.8-0.3,1.3-0.3c0.5,0,0.9,0.1,1.3,0.3c0.4,0.2,0.7,0.5,0.9,0.9
		c0.2,0.4,0.3,0.8,0.3,1.3c0,0.5-0.1,0.9-0.3,1.3c-0.2,0.4-0.5,0.7-0.9,0.9c-0.4,0.2-0.8,0.3-1.3,0.3c-0.5,0-0.9-0.1-1.3-0.3
		c-0.4-0.2-0.7-0.5-0.9-0.9c-0.2-0.4-0.3-0.8-0.3-1.3C148,434.5,148.1,434.1,148.3,433.7z M149.1,435.8c0.1,0.2,0.3,0.4,0.5,0.5
		c0.2,0.1,0.5,0.2,0.8,0.2c0.3,0,0.6-0.1,0.8-0.2c0.2-0.1,0.4-0.3,0.5-0.5c0.1-0.2,0.2-0.5,0.2-0.8s-0.1-0.5-0.2-0.8
		c-0.1-0.2-0.3-0.4-0.5-0.5c-0.2-0.1-0.5-0.2-0.8-0.2c-0.3,0-0.6,0.1-0.8,0.2c-0.2,0.1-0.4,0.3-0.5,0.5c-0.1,0.2-0.2,0.5-0.2,0.8
		S149,435.6,149.1,435.8z"/>
	<path class="st0" d="M152.8,445.5l-4.7-1.6v-1.2l3.2-1l-3.2-1.1v-1.2l4.7-1.6v1.1l-3.3,1.1l3.3,1.1v1l-3.4,1.1l3.4,1.1V445.5z"/>
	<path class="st0" d="M151.9,447.1v-1.5h0.9v4.1h-0.9v-1.5H148v-1.1H151.9z"/>
	<path class="st0" d="M152.8,454.6H148v-1.1h1.9v-2.2H148v-1.1h4.7v1.1h-1.9v2.2h1.9V454.6z"/>
	<path class="st0" d="M152.8,457.7v2.2c0,0.5-0.1,1-0.3,1.4c-0.2,0.4-0.5,0.7-0.8,0.9c-0.4,0.2-0.8,0.3-1.2,0.3
		c-0.5,0-0.9-0.1-1.2-0.3c-0.4-0.2-0.6-0.5-0.8-0.9c-0.2-0.4-0.3-0.9-0.3-1.4v-2.2H152.8z M148.9,459.8c0,0.5,0.1,0.9,0.4,1.1
		c0.3,0.3,0.6,0.4,1.1,0.4c0.5,0,0.8-0.1,1.1-0.4c0.3-0.3,0.4-0.7,0.4-1.1v-1h-2.9V459.8z"/>
	<path class="st0" d="M148,466.3l1.3-0.9v-0.1v-1H148v-1.1h4.7v2.1c0,0.4-0.1,0.8-0.2,1.1c-0.1,0.3-0.3,0.5-0.6,0.7
		c-0.3,0.2-0.6,0.3-0.9,0.3c-0.4,0-0.7-0.1-0.9-0.3c-0.3-0.2-0.5-0.4-0.6-0.7l-1.5,1.1V466.3z M151.7,466c0.1-0.2,0.2-0.4,0.2-0.8
		v-0.9h-1.7v0.9c0,0.3,0.1,0.6,0.2,0.8c0.1,0.2,0.3,0.3,0.6,0.3C151.3,466.3,151.5,466.2,151.7,466z"/>
	<path class="st0" d="M152.8,468.3v1.1H148v-1.1H152.8z"/>
	<path class="st0" d="M152.8,475L148,473v-1.1l4.7-2v1.2l-3.4,1.4l3.4,1.5V475z"/>
	<path class="st0" d="M148.9,479.1H148v-3.7h4.7v3.6h-0.9v-2.5h-1v2.2H150v-2.2h-1.1V479.1z"/>
	<path class="st0" d="M148,483l1.3-0.9V482v-1H148V480h4.7v2.1c0,0.4-0.1,0.8-0.2,1.1c-0.1,0.3-0.3,0.5-0.6,0.7
		c-0.3,0.2-0.6,0.3-0.9,0.3c-0.4,0-0.7-0.1-0.9-0.3c-0.3-0.2-0.5-0.4-0.6-0.7l-1.5,1.1V483z M151.7,482.7c0.1-0.2,0.2-0.4,0.2-0.8
		v-0.9h-1.7v0.9c0,0.3,0.1,0.6,0.2,0.8c0.1,0.2,0.3,0.3,0.6,0.3C151.3,483,151.5,482.9,151.7,482.7z"/>
	<path class="st0" d="M148.1,485.4c0.1-0.4,0.2-0.6,0.4-0.8l0.8,0.4c-0.1,0.2-0.3,0.4-0.4,0.7c-0.1,0.3-0.1,0.6-0.1,0.8
		c0,0.3,0,0.5,0.1,0.7c0.1,0.1,0.2,0.2,0.4,0.2c0.1,0,0.2,0,0.3-0.1c0.1-0.1,0.1-0.2,0.2-0.3c0-0.1,0.1-0.3,0.1-0.6
		c0.1-0.4,0.2-0.7,0.3-0.9c0.1-0.2,0.2-0.4,0.4-0.6c0.2-0.2,0.4-0.2,0.8-0.2c0.3,0,0.5,0.1,0.7,0.2c0.2,0.1,0.4,0.4,0.5,0.7
		c0.1,0.3,0.2,0.7,0.2,1.1c0,0.3,0,0.6-0.1,0.9c-0.1,0.3-0.2,0.5-0.3,0.8l-0.8-0.3c0.2-0.4,0.4-0.9,0.4-1.3c0-0.3-0.1-0.5-0.1-0.7
		s-0.2-0.2-0.4-0.2c-0.2,0-0.3,0.1-0.4,0.3c-0.1,0.2-0.2,0.4-0.2,0.8c-0.1,0.4-0.2,0.7-0.3,0.9c-0.1,0.2-0.2,0.4-0.4,0.6
		c-0.2,0.2-0.4,0.2-0.8,0.2c-0.3,0-0.5-0.1-0.7-0.2c-0.2-0.2-0.4-0.4-0.5-0.7c-0.1-0.3-0.2-0.7-0.2-1.1
		C148,486.1,148,485.8,148.1,485.4z"/>
</g>
<g>
	<path class="st0" d="M124,387.4v2.2c0,0.5-0.1,1-0.3,1.4c-0.2,0.4-0.5,0.7-0.8,0.9c-0.4,0.2-0.8,0.3-1.2,0.3s-0.9-0.1-1.2-0.3
		c-0.4-0.2-0.6-0.5-0.8-0.9c-0.2-0.4-0.3-0.9-0.3-1.4v-2.2H124z M120.1,389.5c0,0.5,0.1,0.9,0.4,1.1c0.3,0.3,0.6,0.4,1.1,0.4
		s0.8-0.1,1.1-0.4c0.3-0.3,0.4-0.7,0.4-1.1v-1h-2.9V389.5z"/>
	<path class="st0" d="M120.1,396.7h-0.9V393h4.7v3.6h-0.9v-2.5h-1v2.2h-0.9v-2.2h-1.1V396.7z"/>
	<path class="st0" d="M123.1,398.6h-1.3v2.2h-0.9v-2.2h-1.7v-1.1h4.7v3.6h-0.9V398.6z"/>
	<path class="st0" d="M124,401.9v1.1h-4.7v-1.1H124z"/>
	<path class="st0" d="M124,408.5h-4.7v-0.9l2.9-2.4h-2.9v-1.1h4.7v0.9l-2.9,2.4h2.9V408.5z"/>
	<path class="st0" d="M120.1,413.3h-0.9v-3.7h4.7v3.6h-0.9v-2.5h-1v2.2h-0.9v-2.2h-1.1V413.3z"/>
	<path class="st0" d="M119.5,417c0.2-0.4,0.5-0.7,0.9-0.9c0.4-0.2,0.8-0.3,1.3-0.3c0.5,0,0.9,0.1,1.3,0.3c0.4,0.2,0.7,0.5,0.9,0.9
		c0.2,0.4,0.3,0.8,0.3,1.3c0,0.5-0.1,0.9-0.3,1.3c-0.2,0.4-0.5,0.7-0.9,0.9c-0.4,0.2-0.8,0.3-1.3,0.3c-0.5,0-0.9-0.1-1.3-0.3
		c-0.4-0.2-0.7-0.5-0.9-0.9c-0.2-0.4-0.3-0.8-0.3-1.3C119.1,417.9,119.2,417.4,119.5,417z M120.3,419.1c0.1,0.2,0.3,0.4,0.5,0.5
		c0.2,0.1,0.5,0.2,0.8,0.2c0.3,0,0.6-0.1,0.8-0.2c0.2-0.1,0.4-0.3,0.5-0.5c0.1-0.2,0.2-0.5,0.2-0.8c0-0.3-0.1-0.5-0.2-0.8
		c-0.1-0.2-0.3-0.4-0.5-0.5c-0.2-0.1-0.5-0.2-0.8-0.2c-0.3,0-0.6,0.1-0.8,0.2c-0.2,0.1-0.4,0.3-0.5,0.5c-0.1,0.2-0.2,0.5-0.2,0.8
		C120.1,418.6,120.1,418.9,120.3,419.1z"/>
	<path class="st0" d="M123.8,424.9c-0.1,0.3-0.3,0.5-0.6,0.7c-0.3,0.2-0.6,0.3-0.9,0.3c-0.3,0-0.7-0.1-0.9-0.3
		c-0.3-0.2-0.5-0.4-0.6-0.7c-0.1-0.3-0.2-0.7-0.2-1.1v-1h-1.3v-1.1h4.7v2.1C124,424.3,123.9,424.6,123.8,424.9z M121.6,424.5
		c0.1,0.2,0.3,0.3,0.6,0.3c0.3,0,0.5-0.1,0.6-0.3c0.1-0.2,0.2-0.4,0.2-0.8v-0.9h-1.6v0.9C121.4,424.1,121.5,424.4,121.6,424.5z"/>
	<path class="st0" d="M123.8,429.8c-0.1,0.3-0.3,0.5-0.6,0.7c-0.3,0.2-0.6,0.3-0.9,0.3c-0.3,0-0.7-0.1-0.9-0.3
		c-0.3-0.2-0.5-0.4-0.6-0.7c-0.1-0.3-0.2-0.7-0.2-1.1v-1h-1.3v-1.1h4.7v2.1C124,429.2,123.9,429.5,123.8,429.8z M121.6,429.4
		c0.1,0.2,0.3,0.3,0.6,0.3c0.3,0,0.5-0.1,0.6-0.3c0.1-0.2,0.2-0.4,0.2-0.8v-0.9h-1.6v0.9C121.4,429,121.5,429.2,121.6,429.4z"/>
	<path class="st0" d="M119.5,432.6c0.2-0.4,0.5-0.7,0.9-0.9c0.4-0.2,0.8-0.3,1.3-0.3c0.5,0,0.9,0.1,1.3,0.3c0.4,0.2,0.7,0.5,0.9,0.9
		c0.2,0.4,0.3,0.8,0.3,1.3c0,0.5-0.1,0.9-0.3,1.3c-0.2,0.4-0.5,0.7-0.9,0.9c-0.4,0.2-0.8,0.3-1.3,0.3c-0.5,0-0.9-0.1-1.3-0.3
		c-0.4-0.2-0.7-0.5-0.9-0.9c-0.2-0.4-0.3-0.8-0.3-1.3C119.1,433.4,119.2,433,119.5,432.6z M120.3,434.7c0.1,0.2,0.3,0.4,0.5,0.5
		c0.2,0.1,0.5,0.2,0.8,0.2c0.3,0,0.6-0.1,0.8-0.2c0.2-0.1,0.4-0.3,0.5-0.5c0.1-0.2,0.2-0.5,0.2-0.8s-0.1-0.5-0.2-0.8
		c-0.1-0.2-0.3-0.4-0.5-0.5c-0.2-0.1-0.5-0.2-0.8-0.2c-0.3,0-0.6,0.1-0.8,0.2c-0.2,0.1-0.4,0.3-0.5,0.5c-0.1,0.2-0.2,0.5-0.2,0.8
		S120.1,434.5,120.3,434.7z"/>
	<path class="st0" d="M119.2,440.4l1.3-0.9v-0.1v-1h-1.3v-1.1h4.7v2.1c0,0.4-0.1,0.8-0.2,1.1c-0.1,0.3-0.3,0.5-0.6,0.7
		c-0.3,0.2-0.6,0.3-0.9,0.3s-0.7-0.1-0.9-0.3c-0.3-0.2-0.5-0.4-0.6-0.7l-1.5,1.1V440.4z M122.9,440.1c0.1-0.2,0.2-0.4,0.2-0.8v-0.9
		h-1.7v0.9c0,0.3,0.1,0.6,0.2,0.8c0.1,0.2,0.3,0.3,0.6,0.3C122.5,440.4,122.7,440.3,122.9,440.1z"/>
	<path class="st0" d="M123.1,443.3v-1.5h0.9v4.1h-0.9v-1.5h-3.9v-1.1H123.1z"/>
	<path class="st0" d="M119.7,446.9c0.4-0.4,0.9-0.6,1.6-0.6h2.7v1.1h-2.6c-0.9,0-1.3,0.4-1.3,1.1c0,0.3,0.1,0.6,0.3,0.8
		c0.2,0.2,0.5,0.3,1,0.3h2.6v1.1h-2.7c-0.7,0-1.2-0.2-1.6-0.6c-0.4-0.4-0.6-0.9-0.6-1.6C119.1,447.8,119.3,447.3,119.7,446.9z"/>
	<path class="st0" d="M124,456.1h-4.7v-0.9l2.9-2.4h-2.9v-1.1h4.7v0.9l-2.9,2.4h2.9V456.1z"/>
	<path class="st0" d="M124,457.2v1.1h-4.7v-1.1H124z"/>
	<path class="st0" d="M123.1,460.4v-1.5h0.9v4.1h-0.9v-1.5h-3.9v-1.1H123.1z"/>
	<path class="st0" d="M120.9,465.8h-1.7v-1.1h1.7l3.1-1.8v1.2l-2.1,1.3l2.1,1.3v1.1L120.9,465.8z"/>
</g>
<g>
	<path class="st0" d="M94.6,387.4v2.2c0,0.5-0.1,1-0.3,1.4c-0.2,0.4-0.5,0.7-0.8,0.9c-0.4,0.2-0.8,0.3-1.2,0.3s-0.9-0.1-1.2-0.3
		c-0.4-0.2-0.6-0.5-0.8-0.9c-0.2-0.4-0.3-0.9-0.3-1.4v-2.2H94.6z M90.7,389.5c0,0.5,0.1,0.9,0.4,1.1c0.3,0.3,0.6,0.4,1.1,0.4
		c0.5,0,0.8-0.1,1.1-0.4c0.3-0.3,0.4-0.7,0.4-1.1v-1h-2.9V389.5z"/>
	<path class="st0" d="M90.7,396.7h-0.9V393h4.7v3.6h-0.9v-2.5h-1v2.2h-0.9v-2.2h-1.1V396.7z"/>
	<path class="st0" d="M89.9,398c0.1-0.4,0.2-0.6,0.4-0.8l0.8,0.4c-0.1,0.2-0.3,0.4-0.4,0.7s-0.1,0.6-0.1,0.8c0,0.3,0,0.5,0.1,0.7
		c0.1,0.1,0.2,0.2,0.4,0.2c0.1,0,0.2,0,0.3-0.1c0.1-0.1,0.1-0.2,0.2-0.3c0-0.1,0.1-0.3,0.1-0.6c0.1-0.4,0.2-0.7,0.3-0.9
		c0.1-0.2,0.2-0.4,0.4-0.6c0.2-0.2,0.4-0.2,0.8-0.2c0.3,0,0.5,0.1,0.7,0.2c0.2,0.1,0.4,0.4,0.5,0.7c0.1,0.3,0.2,0.7,0.2,1.1
		c0,0.3,0,0.6-0.1,0.9c-0.1,0.3-0.2,0.5-0.3,0.8l-0.8-0.3c0.2-0.4,0.4-0.9,0.4-1.3c0-0.3,0-0.5-0.1-0.7c-0.1-0.1-0.2-0.2-0.4-0.2
		c-0.2,0-0.3,0.1-0.4,0.3c-0.1,0.2-0.2,0.4-0.2,0.8c-0.1,0.4-0.2,0.7-0.3,0.9c-0.1,0.2-0.2,0.4-0.4,0.6c-0.2,0.2-0.4,0.2-0.8,0.2
		c-0.3,0-0.5-0.1-0.7-0.2s-0.4-0.4-0.5-0.7c-0.1-0.3-0.2-0.7-0.2-1.1C89.7,398.7,89.8,398.4,89.9,398z"/>
	<path class="st0" d="M94.6,401.9v1.1h-4.7v-1.1H94.6z"/>
	<path class="st0" d="M92.3,407.3v1h-1.9c-0.2-0.3-0.3-0.6-0.4-0.9c-0.1-0.3-0.2-0.7-0.2-1c0-0.5,0.1-0.9,0.3-1.3
		c0.2-0.4,0.5-0.7,0.9-0.9c0.4-0.2,0.8-0.3,1.3-0.3c0.5,0,0.9,0.1,1.3,0.3c0.4,0.2,0.7,0.5,0.9,0.9c0.2,0.4,0.3,0.8,0.3,1.3
		c0,0.4-0.1,0.8-0.2,1.1c-0.1,0.3-0.3,0.6-0.6,0.9l-0.7-0.7c0.4-0.3,0.5-0.7,0.5-1.2c0-0.3-0.1-0.6-0.2-0.8
		c-0.1-0.2-0.3-0.4-0.5-0.5c-0.2-0.1-0.5-0.2-0.8-0.2c-0.3,0-0.6,0.1-0.8,0.2c-0.2,0.1-0.4,0.3-0.5,0.5c-0.1,0.2-0.2,0.5-0.2,0.8
		c0,0.3,0.1,0.6,0.2,0.9H92.3z"/>
	<path class="st0" d="M94.6,413.7h-4.7v-0.9l2.9-2.4h-2.9v-1.1h4.7v0.9l-2.9,2.4h2.9V413.7z"/>
	<path class="st0" d="M89.9,417.2c0.1-0.4,0.2-0.6,0.4-0.8l0.8,0.4c-0.1,0.2-0.3,0.4-0.4,0.7s-0.1,0.6-0.1,0.8c0,0.3,0,0.5,0.1,0.7
		c0.1,0.1,0.2,0.2,0.4,0.2c0.1,0,0.2,0,0.3-0.1c0.1-0.1,0.1-0.2,0.2-0.3c0-0.1,0.1-0.3,0.1-0.6c0.1-0.4,0.2-0.7,0.3-0.9
		c0.1-0.2,0.2-0.4,0.4-0.6c0.2-0.2,0.4-0.2,0.8-0.2c0.3,0,0.5,0.1,0.7,0.2c0.2,0.1,0.4,0.4,0.5,0.7c0.1,0.3,0.2,0.7,0.2,1.1
		c0,0.3,0,0.6-0.1,0.9c-0.1,0.3-0.2,0.5-0.3,0.8l-0.8-0.3c0.2-0.4,0.4-0.9,0.4-1.3c0-0.3,0-0.5-0.1-0.7c-0.1-0.1-0.2-0.2-0.4-0.2
		c-0.2,0-0.3,0.1-0.4,0.3c-0.1,0.2-0.2,0.4-0.2,0.8c-0.1,0.4-0.2,0.7-0.3,0.9c-0.1,0.2-0.2,0.4-0.4,0.6c-0.2,0.2-0.4,0.2-0.8,0.2
		c-0.3,0-0.5-0.1-0.7-0.2s-0.4-0.4-0.5-0.7c-0.1-0.3-0.2-0.7-0.2-1.1C89.7,417.9,89.8,417.5,89.9,417.2z"/>
	<path class="st0" d="M93.7,422v-1.5h0.9v4.1h-0.9v-1.5h-3.9V422H93.7z"/>
	<path class="st0" d="M89.8,428.2l1.3-0.9v-0.1v-1h-1.3v-1.1h4.7v2.1c0,0.4-0.1,0.8-0.2,1.1c-0.1,0.3-0.3,0.5-0.6,0.7
		c-0.3,0.2-0.6,0.3-0.9,0.3c-0.4,0-0.7-0.1-0.9-0.3c-0.3-0.2-0.5-0.4-0.6-0.7l-1.5,1.1V428.2z M93.5,427.9c0.1-0.2,0.2-0.4,0.2-0.8
		v-0.9H92v0.9c0,0.3,0.1,0.6,0.2,0.8c0.1,0.2,0.3,0.3,0.6,0.3C93.1,428.2,93.3,428.1,93.5,427.9z"/>
	<path class="st0" d="M90.8,433.3v-2.2l-1-0.4v-1.1l4.7,2.1v1.1l-4.7,2.1v-1.2L90.8,433.3z M91.7,432.9l1.8-0.8l-1.8-0.8V432.9z"/>
	<path class="st0" d="M93.7,436.1v-1.5h0.9v4.1h-0.9v-1.5h-3.9v-1.1H93.7z"/>
	<path class="st0" d="M90.7,443h-0.9v-3.7h4.7v3.6h-0.9v-2.5h-1v2.2h-0.9v-2.2h-1.1V443z"/>
	<path class="st0" d="M92.3,447.1v1h-1.9c-0.2-0.3-0.3-0.6-0.4-0.9c-0.1-0.3-0.2-0.7-0.2-1c0-0.5,0.1-0.9,0.3-1.3
		c0.2-0.4,0.5-0.7,0.9-0.9c0.4-0.2,0.8-0.3,1.3-0.3c0.5,0,0.9,0.1,1.3,0.3c0.4,0.2,0.7,0.5,0.9,0.9c0.2,0.4,0.3,0.8,0.3,1.3
		c0,0.4-0.1,0.8-0.2,1.1c-0.1,0.3-0.3,0.6-0.6,0.9l-0.7-0.7c0.4-0.3,0.5-0.7,0.5-1.2c0-0.3-0.1-0.6-0.2-0.8
		c-0.1-0.2-0.3-0.4-0.5-0.5c-0.2-0.1-0.5-0.2-0.8-0.2c-0.3,0-0.6,0.1-0.8,0.2c-0.2,0.1-0.4,0.3-0.5,0.5c-0.1,0.2-0.2,0.5-0.2,0.8
		c0,0.3,0.1,0.6,0.2,0.9H92.3z"/>
	<path class="st0" d="M91.5,451.4h-1.7v-1.1h1.7l3.1-1.8v1.2l-2.1,1.3l2.1,1.3v1.1L91.5,451.4z"/>
</g>
<g>
	<path class="st0" d="M60.1,388.3c0.2-0.4,0.5-0.7,0.9-0.9c0.4-0.2,0.8-0.3,1.3-0.3s0.9,0.1,1.3,0.3c0.4,0.2,0.7,0.5,0.9,0.9
		c0.2,0.4,0.3,0.8,0.3,1.3c0,0.4-0.1,0.8-0.2,1.1c-0.1,0.3-0.4,0.6-0.6,0.8l-0.7-0.7c0.4-0.3,0.6-0.7,0.6-1.2c0-0.3-0.1-0.6-0.2-0.8
		c-0.1-0.2-0.3-0.4-0.5-0.5c-0.2-0.1-0.5-0.2-0.8-0.2c-0.3,0-0.6,0.1-0.8,0.2c-0.2,0.1-0.4,0.3-0.5,0.5c-0.1,0.2-0.2,0.5-0.2,0.8
		c0,0.5,0.2,0.9,0.6,1.2l-0.7,0.7c-0.3-0.2-0.5-0.5-0.6-0.8c-0.1-0.3-0.2-0.7-0.2-1.1C59.8,389.2,59.9,388.7,60.1,388.3z"/>
	<path class="st0" d="M60.1,393.2c0.2-0.4,0.5-0.7,0.9-0.9c0.4-0.2,0.8-0.3,1.3-0.3c0.5,0,0.9,0.1,1.3,0.3c0.4,0.2,0.7,0.5,0.9,0.9
		c0.2,0.4,0.3,0.8,0.3,1.3c0,0.5-0.1,0.9-0.3,1.3c-0.2,0.4-0.5,0.7-0.9,0.9c-0.4,0.2-0.8,0.3-1.3,0.3c-0.5,0-0.9-0.1-1.3-0.3
		c-0.4-0.2-0.7-0.5-0.9-0.9c-0.2-0.4-0.3-0.8-0.3-1.3C59.8,394.1,59.9,393.6,60.1,393.2z M60.9,395.3c0.1,0.2,0.3,0.4,0.5,0.5
		s0.5,0.2,0.8,0.2c0.3,0,0.6-0.1,0.8-0.2c0.2-0.1,0.4-0.3,0.5-0.5c0.1-0.2,0.2-0.5,0.2-0.8c0-0.3-0.1-0.5-0.2-0.8
		c-0.1-0.2-0.3-0.4-0.5-0.5c-0.2-0.1-0.5-0.2-0.8-0.2c-0.3,0-0.6,0.1-0.8,0.2c-0.2,0.1-0.4,0.3-0.5,0.5c-0.1,0.2-0.2,0.5-0.2,0.8
		C60.7,394.8,60.8,395.1,60.9,395.3z"/>
	<path class="st0" d="M64.6,402.3h-4.7v-0.9l2.9-2.4h-2.9V398h4.7v0.9l-2.9,2.4h2.9V402.3z"/>
	<path class="st0" d="M64.6,407.8h-4.7v-0.9l2.9-2.4h-2.9v-1.1h4.7v0.9l-2.9,2.4h2.9V407.8z"/>
	<path class="st0" d="M60.8,412.6h-0.9v-3.7h4.7v3.6h-0.9V410h-1v2.2h-0.9V410h-1.1V412.6z"/>
	<path class="st0" d="M60.1,414.4c0.2-0.4,0.5-0.7,0.9-0.9c0.4-0.2,0.8-0.3,1.3-0.3s0.9,0.1,1.3,0.3c0.4,0.2,0.7,0.5,0.9,0.9
		c0.2,0.4,0.3,0.8,0.3,1.3c0,0.4-0.1,0.8-0.2,1.1c-0.1,0.3-0.4,0.6-0.6,0.8l-0.7-0.7c0.4-0.3,0.6-0.7,0.6-1.2c0-0.3-0.1-0.6-0.2-0.8
		c-0.1-0.2-0.3-0.4-0.5-0.5c-0.2-0.1-0.5-0.2-0.8-0.2c-0.3,0-0.6,0.1-0.8,0.2c-0.2,0.1-0.4,0.3-0.5,0.5c-0.1,0.2-0.2,0.5-0.2,0.8
		c0,0.5,0.2,0.9,0.6,1.2l-0.7,0.7c-0.3-0.2-0.5-0.5-0.6-0.8c-0.1-0.3-0.2-0.7-0.2-1.1C59.8,415.3,59.9,414.8,60.1,414.4z"/>
	<path class="st0" d="M63.7,419.4v-1.5h0.9v4.1h-0.9v-1.5h-3.9v-1.1H63.7z"/>
	<path class="st0" d="M64.6,422.6v1.1h-4.7v-1.1H64.6z"/>
	<path class="st0" d="M60.1,425.8c0.2-0.4,0.5-0.7,0.9-0.9c0.4-0.2,0.8-0.3,1.3-0.3c0.5,0,0.9,0.1,1.3,0.3c0.4,0.2,0.7,0.5,0.9,0.9
		c0.2,0.4,0.3,0.8,0.3,1.3c0,0.5-0.1,0.9-0.3,1.3c-0.2,0.4-0.5,0.7-0.9,0.9c-0.4,0.2-0.8,0.3-1.3,0.3c-0.5,0-0.9-0.1-1.3-0.3
		c-0.4-0.2-0.7-0.5-0.9-0.9c-0.2-0.4-0.3-0.8-0.3-1.3C59.8,426.6,59.9,426.2,60.1,425.8z M60.9,427.9c0.1,0.2,0.3,0.4,0.5,0.5
		s0.5,0.2,0.8,0.2c0.3,0,0.6-0.1,0.8-0.2c0.2-0.1,0.4-0.3,0.5-0.5c0.1-0.2,0.2-0.5,0.2-0.8c0-0.3-0.1-0.5-0.2-0.8
		c-0.1-0.2-0.3-0.4-0.5-0.5c-0.2-0.1-0.5-0.2-0.8-0.2c-0.3,0-0.6,0.1-0.8,0.2c-0.2,0.1-0.4,0.3-0.5,0.5c-0.1,0.2-0.2,0.5-0.2,0.8
		C60.7,427.4,60.8,427.7,60.9,427.9z"/>
	<path class="st0" d="M64.6,434.9h-4.7V434l2.9-2.4h-2.9v-1.1h4.7v0.9l-2.9,2.4h2.9V434.9z"/>
	<path class="st0" d="M64.4,441.1c-0.1,0.3-0.3,0.5-0.6,0.7c-0.3,0.2-0.6,0.3-0.9,0.3c-0.3,0-0.7-0.1-0.9-0.3
		c-0.3-0.2-0.5-0.4-0.6-0.7c-0.1-0.3-0.2-0.7-0.2-1.1v-1h-1.3v-1.1h4.7v2.1C64.6,440.4,64.5,440.8,64.4,441.1z M62.3,440.7
		c0.1,0.2,0.3,0.3,0.6,0.3c0.3,0,0.5-0.1,0.6-0.3c0.1-0.2,0.2-0.4,0.2-0.8V439h-1.6v0.9C62.1,440.3,62.1,440.5,62.3,440.7z"/>
	<path class="st0" d="M64.6,442.8v1.1h-3.9v2.4h-0.9v-3.5H64.6z"/>
	<path class="st0" d="M60.9,450.1v-2.2l-1-0.4v-1.1l4.7,2.1v1.1l-4.7,2.1v-1.2L60.9,450.1z M61.7,449.8l1.8-0.8l-1.8-0.8V449.8z"/>
	<path class="st0" d="M64.6,456.5h-4.7v-0.9l2.9-2.4h-2.9v-1.1h4.7v0.9l-2.9,2.4h2.9V456.5z"/>
	<path class="st0" d="M59.9,458.1c0.1-0.4,0.2-0.6,0.4-0.8l0.8,0.4c-0.1,0.2-0.3,0.4-0.4,0.7s-0.1,0.6-0.1,0.8c0,0.3,0,0.5,0.1,0.7
		c0.1,0.1,0.2,0.2,0.4,0.2c0.1,0,0.2,0,0.3-0.1c0.1-0.1,0.1-0.2,0.2-0.3c0-0.1,0.1-0.3,0.1-0.6c0.1-0.4,0.2-0.7,0.3-0.9
		c0.1-0.2,0.2-0.4,0.4-0.6c0.2-0.2,0.4-0.2,0.8-0.2c0.3,0,0.5,0.1,0.7,0.2c0.2,0.1,0.4,0.4,0.5,0.7c0.1,0.3,0.2,0.7,0.2,1.1
		c0,0.3,0,0.6-0.1,0.9c-0.1,0.3-0.2,0.5-0.3,0.8l-0.8-0.3c0.2-0.4,0.4-0.9,0.4-1.3c0-0.3,0-0.5-0.1-0.7c-0.1-0.1-0.2-0.2-0.4-0.2
		c-0.2,0-0.3,0.1-0.4,0.3c-0.1,0.2-0.2,0.4-0.2,0.8c-0.1,0.4-0.2,0.7-0.3,0.9c-0.1,0.2-0.2,0.4-0.4,0.6c-0.2,0.2-0.4,0.2-0.8,0.2
		c-0.3,0-0.5-0.1-0.7-0.2c-0.2-0.2-0.4-0.4-0.5-0.7c-0.1-0.3-0.2-0.7-0.2-1.1C59.8,458.8,59.8,458.5,59.9,458.1z"/>
</g>
<g>
	<path class="st0" d="M34.7,387.4v1.1h-4.7v-1.1H34.7z"/>
	<path class="st0" d="M29.9,393.9l2.8,0l-2.3-1.4V392l2.3-1.4h-2.8v-1h4.7v0.9l-3,1.8l3,1.7v0.9l-4.7,0V393.9z"/>
	<path class="st0" d="M34.5,399.2c-0.1,0.3-0.3,0.5-0.6,0.7c-0.3,0.2-0.6,0.3-0.9,0.3c-0.3,0-0.7-0.1-0.9-0.3
		c-0.3-0.2-0.5-0.4-0.6-0.7c-0.1-0.3-0.2-0.7-0.2-1.1v-1h-1.3v-1.1h4.7v2.1C34.7,398.6,34.6,398.9,34.5,399.2z M32.3,398.8
		c0.1,0.2,0.3,0.3,0.6,0.3c0.3,0,0.5-0.1,0.6-0.3c0.1-0.2,0.2-0.4,0.2-0.8v-0.9h-1.6v0.9C32.1,398.4,32.2,398.7,32.3,398.8z"/>
	<path class="st0" d="M29.9,404l1.3-0.9V403v-1h-1.3V401h4.7v2.1c0,0.4-0.1,0.8-0.2,1.1c-0.1,0.3-0.3,0.5-0.6,0.7
		c-0.3,0.2-0.6,0.3-0.9,0.3c-0.4,0-0.7-0.1-0.9-0.3c-0.3-0.2-0.5-0.4-0.6-0.7l-1.5,1.1V404z M33.6,403.7c0.1-0.2,0.2-0.4,0.2-0.8
		v-0.9h-1.7v0.9c0,0.3,0.1,0.6,0.2,0.8c0.1,0.2,0.3,0.3,0.6,0.3C33.2,404,33.4,403.9,33.6,403.7z"/>
	<path class="st0" d="M30.2,406.9c0.2-0.4,0.5-0.7,0.9-0.9c0.4-0.2,0.8-0.3,1.3-0.3c0.5,0,0.9,0.1,1.3,0.3c0.4,0.2,0.7,0.5,0.9,0.9
		c0.2,0.4,0.3,0.8,0.3,1.3c0,0.5-0.1,0.9-0.3,1.3c-0.2,0.4-0.5,0.7-0.9,0.9c-0.4,0.2-0.8,0.3-1.3,0.3c-0.5,0-0.9-0.1-1.3-0.3
		c-0.4-0.2-0.7-0.5-0.9-0.9c-0.2-0.4-0.3-0.8-0.3-1.3C29.8,407.8,29.9,407.3,30.2,406.9z M31,409c0.1,0.2,0.3,0.4,0.5,0.5
		c0.2,0.1,0.5,0.2,0.8,0.2c0.3,0,0.6-0.1,0.8-0.2c0.2-0.1,0.4-0.3,0.5-0.5c0.1-0.2,0.2-0.5,0.2-0.8s-0.1-0.5-0.2-0.8
		c-0.1-0.2-0.3-0.4-0.5-0.5c-0.2-0.1-0.5-0.2-0.8-0.2c-0.3,0-0.6,0.1-0.8,0.2c-0.2,0.1-0.4,0.3-0.5,0.5c-0.1,0.2-0.2,0.5-0.2,0.8
		S30.8,408.8,31,409z"/>
	<path class="st0" d="M34.7,416.1l-4.7-2.1V413l4.7-2v1.2l-3.4,1.4l3.4,1.5V416.1z"/>
	<path class="st0" d="M30.8,420.2h-0.9v-3.7h4.7v3.6h-0.9v-2.5h-1v2.2h-0.9v-2.2h-1.1V420.2z"/>
	<path class="st0" d="M29.9,426l1.3-0.9V425v-1h-1.3V423h4.7v2.1c0,0.4-0.1,0.8-0.2,1.1c-0.1,0.3-0.3,0.5-0.6,0.7
		c-0.3,0.2-0.6,0.3-0.9,0.3c-0.4,0-0.7-0.1-0.9-0.3c-0.3-0.2-0.5-0.4-0.6-0.7l-1.5,1.1V426z M33.6,425.7c0.1-0.2,0.2-0.4,0.2-0.8
		v-0.9h-1.7v0.9c0,0.3,0.1,0.6,0.2,0.8c0.1,0.2,0.3,0.3,0.6,0.3C33.2,426,33.4,425.9,33.6,425.7z"/>
	<path class="st0" d="M30.2,428.9c0.2-0.4,0.5-0.7,0.9-0.9c0.4-0.2,0.8-0.3,1.3-0.3c0.5,0,0.9,0.1,1.3,0.3c0.4,0.2,0.7,0.5,0.9,0.9
		c0.2,0.4,0.3,0.8,0.3,1.3c0,0.5-0.1,0.9-0.3,1.3c-0.2,0.4-0.5,0.7-0.9,0.9c-0.4,0.2-0.8,0.3-1.3,0.3c-0.5,0-0.9-0.1-1.3-0.3
		c-0.4-0.2-0.7-0.5-0.9-0.9c-0.2-0.4-0.3-0.8-0.3-1.3C29.8,429.8,29.9,429.3,30.2,428.9z M31,431c0.1,0.2,0.3,0.4,0.5,0.5
		c0.2,0.1,0.5,0.2,0.8,0.2c0.3,0,0.6-0.1,0.8-0.2c0.2-0.1,0.4-0.3,0.5-0.5c0.1-0.2,0.2-0.5,0.2-0.8s-0.1-0.5-0.2-0.8
		c-0.1-0.2-0.3-0.4-0.5-0.5c-0.2-0.1-0.5-0.2-0.8-0.2c-0.3,0-0.6,0.1-0.8,0.2c-0.2,0.1-0.4,0.3-0.5,0.5c-0.1,0.2-0.2,0.5-0.2,0.8
		S30.8,430.8,31,431z"/>
	<path class="st0" d="M34.7,433.7v1.1h-4.7v-1.1H34.7z"/>
</g>
<g>
	<path class="st0" d="M150.1,593.9c-0.2,0.2-0.4,0.2-0.7,0.2c-0.4,0-0.7-0.2-1-0.5c-0.2-0.3-0.3-0.8-0.3-1.4v-2.5h4.7v2.3
		c0,0.6-0.1,1-0.3,1.3c-0.2,0.3-0.5,0.5-0.9,0.5c-0.2,0-0.4-0.1-0.6-0.2c-0.2-0.1-0.3-0.3-0.4-0.5
		C150.4,593.5,150.3,593.7,150.1,593.9z M152,590.8h-1.1v1.1c0,0.3,0,0.5,0.1,0.6s0.2,0.2,0.4,0.2c0.2,0,0.3-0.1,0.4-0.2
		c0.1-0.1,0.1-0.3,0.1-0.6V590.8z M149,592.8c0.1,0.1,0.2,0.2,0.4,0.2c0.4,0,0.6-0.3,0.6-0.9v-1.3h-1.2v1.3
		C148.9,592.4,148.9,592.6,149,592.8z"/>
	<path class="st0" d="M148.5,595.5c0.4-0.4,0.9-0.6,1.6-0.6h2.7v1.1h-2.6c-0.9,0-1.3,0.4-1.3,1.1c0,0.3,0.1,0.6,0.3,0.8
		c0.2,0.2,0.5,0.3,1,0.3h2.6v1.1h-2.7c-0.7,0-1.2-0.2-1.6-0.6c-0.4-0.4-0.6-0.9-0.6-1.6C148,596.4,148.2,595.8,148.5,595.5z"/>
	<path class="st0" d="M148.1,600.7c0.1-0.4,0.2-0.6,0.4-0.8l0.8,0.4c-0.1,0.2-0.3,0.4-0.4,0.7c-0.1,0.3-0.1,0.6-0.1,0.8
		c0,0.3,0,0.5,0.1,0.7c0.1,0.1,0.2,0.2,0.4,0.2c0.1,0,0.2,0,0.3-0.1c0.1-0.1,0.1-0.2,0.2-0.3c0-0.1,0.1-0.3,0.1-0.6
		c0.1-0.4,0.2-0.7,0.3-0.9c0.1-0.2,0.2-0.4,0.4-0.6c0.2-0.2,0.4-0.2,0.8-0.2c0.3,0,0.5,0.1,0.7,0.2c0.2,0.1,0.4,0.4,0.5,0.7
		c0.1,0.3,0.2,0.7,0.2,1.1c0,0.3,0,0.6-0.1,0.9c-0.1,0.3-0.2,0.5-0.3,0.8l-0.8-0.3c0.2-0.4,0.4-0.9,0.4-1.3c0-0.3-0.1-0.5-0.1-0.7
		c-0.1-0.1-0.2-0.2-0.4-0.2c-0.2,0-0.3,0.1-0.4,0.3c-0.1,0.2-0.2,0.4-0.2,0.8c-0.1,0.4-0.2,0.7-0.3,0.9c-0.1,0.2-0.2,0.4-0.4,0.6
		c-0.2,0.2-0.4,0.2-0.8,0.2c-0.3,0-0.5-0.1-0.7-0.2c-0.2-0.2-0.4-0.4-0.5-0.7c-0.1-0.3-0.2-0.7-0.2-1.1
		C148,601.5,148,601.1,148.1,600.7z"/>
	<path class="st0" d="M152.8,604.6v1.1H148v-1.1H152.8z"/>
	<path class="st0" d="M152.8,611.2H148v-0.9l2.9-2.4H148v-1.1h4.7v0.9l-2.9,2.4h2.9V611.2z"/>
	<path class="st0" d="M148.9,616H148v-3.7h4.7v3.6h-0.9v-2.5h-1v2.2H150v-2.2h-1.1V616z"/>
	<path class="st0" d="M148.1,617.3c0.1-0.4,0.2-0.6,0.4-0.8l0.8,0.4c-0.1,0.2-0.3,0.4-0.4,0.7c-0.1,0.3-0.1,0.6-0.1,0.8
		c0,0.3,0,0.5,0.1,0.7c0.1,0.1,0.2,0.2,0.4,0.2c0.1,0,0.2,0,0.3-0.1c0.1-0.1,0.1-0.2,0.2-0.3c0-0.1,0.1-0.3,0.1-0.6
		c0.1-0.4,0.2-0.7,0.3-0.9c0.1-0.2,0.2-0.4,0.4-0.6c0.2-0.2,0.4-0.2,0.8-0.2c0.3,0,0.5,0.1,0.7,0.2c0.2,0.1,0.4,0.4,0.5,0.7
		c0.1,0.3,0.2,0.7,0.2,1.1c0,0.3,0,0.6-0.1,0.9c-0.1,0.3-0.2,0.5-0.3,0.8l-0.8-0.3c0.2-0.4,0.4-0.9,0.4-1.3c0-0.3-0.1-0.5-0.1-0.7
		c-0.1-0.1-0.2-0.2-0.4-0.2c-0.2,0-0.3,0.1-0.4,0.3c-0.1,0.2-0.2,0.4-0.2,0.8c-0.1,0.4-0.2,0.7-0.3,0.9c-0.1,0.2-0.2,0.4-0.4,0.6
		c-0.2,0.2-0.4,0.2-0.8,0.2c-0.3,0-0.5-0.1-0.7-0.2c-0.2-0.2-0.4-0.4-0.5-0.7c-0.1-0.3-0.2-0.7-0.2-1.1
		C148,618,148,617.7,148.1,617.3z"/>
	<path class="st0" d="M148.1,621.7c0.1-0.4,0.2-0.6,0.4-0.8l0.8,0.4c-0.1,0.2-0.3,0.4-0.4,0.7c-0.1,0.3-0.1,0.6-0.1,0.8
		c0,0.3,0,0.5,0.1,0.7c0.1,0.1,0.2,0.2,0.4,0.2c0.1,0,0.2,0,0.3-0.1c0.1-0.1,0.1-0.2,0.2-0.3c0-0.1,0.1-0.3,0.1-0.6
		c0.1-0.4,0.2-0.7,0.3-0.9c0.1-0.2,0.2-0.4,0.4-0.6c0.2-0.2,0.4-0.2,0.8-0.2c0.3,0,0.5,0.1,0.7,0.2c0.2,0.1,0.4,0.4,0.5,0.7
		c0.1,0.3,0.2,0.7,0.2,1.1c0,0.3,0,0.6-0.1,0.9c-0.1,0.3-0.2,0.5-0.3,0.8l-0.8-0.3c0.2-0.4,0.4-0.9,0.4-1.3c0-0.3-0.1-0.5-0.1-0.7
		c-0.1-0.1-0.2-0.2-0.4-0.2c-0.2,0-0.3,0.1-0.4,0.3c-0.1,0.2-0.2,0.4-0.2,0.8c-0.1,0.4-0.2,0.7-0.3,0.9c-0.1,0.2-0.2,0.4-0.4,0.6
		c-0.2,0.2-0.4,0.2-0.8,0.2c-0.3,0-0.5-0.1-0.7-0.2c-0.2-0.2-0.4-0.4-0.5-0.7c-0.1-0.3-0.2-0.7-0.2-1.1
		C148,622.4,148,622,148.1,621.7z"/>
	<path class="st0" d="M148.3,628.4c0.2-0.4,0.5-0.7,0.9-0.9c0.4-0.2,0.8-0.3,1.3-0.3c0.5,0,0.9,0.1,1.3,0.3c0.4,0.2,0.7,0.5,0.9,0.9
		c0.2,0.4,0.3,0.8,0.3,1.3c0,0.4-0.1,0.8-0.2,1.1c-0.1,0.3-0.4,0.6-0.6,0.8l-0.7-0.7c0.4-0.3,0.6-0.7,0.6-1.2c0-0.3-0.1-0.6-0.2-0.8
		c-0.1-0.2-0.3-0.4-0.5-0.5c-0.2-0.1-0.5-0.2-0.8-0.2c-0.3,0-0.6,0.1-0.8,0.2c-0.2,0.1-0.4,0.3-0.5,0.5c-0.1,0.2-0.2,0.5-0.2,0.8
		c0,0.5,0.2,0.9,0.6,1.2l-0.7,0.7c-0.3-0.2-0.5-0.5-0.6-0.8c-0.1-0.3-0.2-0.7-0.2-1.1C148,629.2,148.1,628.8,148.3,628.4z"/>
	<path class="st0" d="M148.3,633.3c0.2-0.4,0.5-0.7,0.9-0.9c0.4-0.2,0.8-0.3,1.3-0.3c0.5,0,0.9,0.1,1.3,0.3c0.4,0.2,0.7,0.5,0.9,0.9
		c0.2,0.4,0.3,0.8,0.3,1.3c0,0.5-0.1,0.9-0.3,1.3c-0.2,0.4-0.5,0.7-0.9,0.9c-0.4,0.2-0.8,0.3-1.3,0.3c-0.5,0-0.9-0.1-1.3-0.3
		c-0.4-0.2-0.7-0.5-0.9-0.9c-0.2-0.4-0.3-0.8-0.3-1.3C148,634.1,148.1,633.7,148.3,633.3z M149.1,635.4c0.1,0.2,0.3,0.4,0.5,0.5
		c0.2,0.1,0.5,0.2,0.8,0.2c0.3,0,0.6-0.1,0.8-0.2c0.2-0.1,0.4-0.3,0.5-0.5c0.1-0.2,0.2-0.5,0.2-0.8s-0.1-0.5-0.2-0.8
		c-0.1-0.2-0.3-0.4-0.5-0.5c-0.2-0.1-0.5-0.2-0.8-0.2c-0.3,0-0.6,0.1-0.8,0.2c-0.2,0.1-0.4,0.3-0.5,0.5c-0.1,0.2-0.2,0.5-0.2,0.8
		S149,635.1,149.1,635.4z"/>
	<path class="st0" d="M152.8,642.4H148v-0.9l2.9-2.4H148V638h4.7v0.9l-2.9,2.4h2.9V642.4z"/>
	<path class="st0" d="M151.9,644.5V643h0.9v4.1h-0.9v-1.5H148v-1.1H151.9z"/>
	<path class="st0" d="M148.9,651.4H148v-3.7h4.7v3.6h-0.9v-2.5h-1v2.2H150v-2.2h-1.1V651.4z"/>
	<path class="st0" d="M148,655.2l1.6-1.1l-1.6-1.1v-1.3l2.4,1.8l2.3-1.7v1.2l-1.5,1.1l1.5,1.1v1.2l-2.3-1.7l-2.5,1.8V655.2z"/>
	<path class="st0" d="M151.9,657.8v-1.5h0.9v4.1h-0.9v-1.5H148v-1.1H151.9z"/>
	<path class="st0" d="M149.1,666.1v-2.2l-1-0.4v-1.1l4.7,2.1v1.1l-4.7,2.1v-1.2L149.1,666.1z M149.9,665.7l1.8-0.8l-1.8-0.8V665.7z"
		/>
	<path class="st0" d="M152.8,672.5H148v-0.9l2.9-2.4H148v-1.1h4.7v0.9l-2.9,2.4h2.9V672.5z"/>
	<path class="st0" d="M152.8,673.6v2.2c0,0.5-0.1,1-0.3,1.4c-0.2,0.4-0.5,0.7-0.8,0.9c-0.4,0.2-0.8,0.3-1.2,0.3
		c-0.5,0-0.9-0.1-1.2-0.3c-0.4-0.2-0.6-0.5-0.8-0.9c-0.2-0.4-0.3-0.9-0.3-1.4v-2.2H152.8z M148.9,675.7c0,0.5,0.1,0.9,0.4,1.1
		s0.6,0.4,1.1,0.4c0.5,0,0.8-0.1,1.1-0.4c0.3-0.3,0.4-0.7,0.4-1.1v-1h-2.9V675.7z"/>
	<path class="st0" d="M149.9,682.9l-0.7-0.6H148v-1.1h4.7v1.1h-2.2l2.2,2.1v1.2l-2.1-2l-2.6,2.1v-1.3L149.9,682.9z"/>
	<path class="st0" d="M152.6,689.3c-0.1,0.3-0.3,0.5-0.6,0.7s-0.6,0.3-0.9,0.3c-0.3,0-0.7-0.1-0.9-0.3s-0.5-0.4-0.6-0.7
		c-0.1-0.3-0.2-0.7-0.2-1.1v-1H148v-1.1h4.7v2.1C152.8,688.6,152.7,689,152.6,689.3z M150.5,688.9c0.1,0.2,0.3,0.3,0.6,0.3
		c0.3,0,0.5-0.1,0.6-0.3c0.1-0.2,0.2-0.4,0.2-0.8v-0.9h-1.6v0.9C150.3,688.5,150.3,688.7,150.5,688.9z"/>
	<path class="st0" d="M152.8,691.1v1.1H148v-1.1H152.8z"/>
	<path class="st0" d="M148.1,693.8c0.1-0.4,0.2-0.6,0.4-0.8l0.8,0.4c-0.1,0.2-0.3,0.4-0.4,0.7c-0.1,0.3-0.1,0.6-0.1,0.8
		c0,0.3,0,0.5,0.1,0.7c0.1,0.1,0.2,0.2,0.4,0.2c0.1,0,0.2,0,0.3-0.1c0.1-0.1,0.1-0.2,0.2-0.3c0-0.1,0.1-0.3,0.1-0.6
		c0.1-0.4,0.2-0.7,0.3-0.9c0.1-0.2,0.2-0.4,0.4-0.6c0.2-0.2,0.4-0.2,0.8-0.2c0.3,0,0.5,0.1,0.7,0.2c0.2,0.1,0.4,0.4,0.5,0.7
		c0.1,0.3,0.2,0.7,0.2,1.1c0,0.3,0,0.6-0.1,0.9s-0.2,0.5-0.3,0.8l-0.8-0.3c0.2-0.4,0.4-0.9,0.4-1.3c0-0.3-0.1-0.5-0.1-0.7
		c-0.1-0.1-0.2-0.2-0.4-0.2c-0.2,0-0.3,0.1-0.4,0.3c-0.1,0.2-0.2,0.4-0.2,0.8c-0.1,0.4-0.2,0.7-0.3,0.9c-0.1,0.2-0.2,0.4-0.4,0.6
		c-0.2,0.2-0.4,0.2-0.8,0.2c-0.3,0-0.5-0.1-0.7-0.2c-0.2-0.2-0.4-0.4-0.5-0.7c-0.1-0.3-0.2-0.7-0.2-1.1
		C148,694.5,148,694.1,148.1,693.8z"/>
</g>
<g>
	<path class="st0" d="M122.8,590.7c0.2-0.4,0.5-0.7,0.9-0.9c0.4-0.2,0.8-0.3,1.3-0.3c0.5,0,0.9,0.1,1.3,0.3c0.4,0.2,0.7,0.5,0.9,0.9
		c0.2,0.4,0.3,0.8,0.3,1.3c0,0.5-0.1,0.9-0.3,1.3c-0.2,0.4-0.5,0.7-0.9,0.9c-0.4,0.2-0.8,0.3-1.3,0.3c-0.5,0-0.9-0.1-1.3-0.3
		c-0.4-0.2-0.7-0.5-0.9-0.9s-0.3-0.8-0.3-1.3C122.5,591.5,122.6,591.1,122.8,590.7z M123.7,592.8c0.1,0.2,0.3,0.4,0.5,0.5
		c0.2,0.1,0.5,0.2,0.8,0.2c0.3,0,0.6-0.1,0.8-0.2s0.4-0.3,0.5-0.5c0.1-0.2,0.2-0.5,0.2-0.8c0-0.3-0.1-0.5-0.2-0.8
		c-0.1-0.2-0.3-0.4-0.5-0.5c-0.2-0.1-0.5-0.2-0.8-0.2c-0.3,0-0.6,0.1-0.8,0.2c-0.2,0.1-0.4,0.3-0.5,0.5c-0.1,0.2-0.2,0.5-0.2,0.8
		C123.5,592.3,123.5,592.6,123.7,592.8z"/>
	<path class="st0" d="M122.7,595.9c0.1-0.4,0.2-0.6,0.4-0.8l0.8,0.4c-0.1,0.2-0.3,0.4-0.4,0.7c-0.1,0.3-0.1,0.6-0.1,0.8
		c0,0.3,0,0.5,0.1,0.7c0.1,0.1,0.2,0.2,0.4,0.2c0.1,0,0.2,0,0.3-0.1c0.1-0.1,0.1-0.2,0.2-0.3c0-0.1,0.1-0.3,0.1-0.6
		c0.1-0.4,0.2-0.7,0.3-0.9c0.1-0.2,0.2-0.4,0.4-0.6c0.2-0.2,0.4-0.2,0.8-0.2c0.3,0,0.5,0.1,0.7,0.2c0.2,0.1,0.4,0.4,0.5,0.7
		c0.1,0.3,0.2,0.7,0.2,1.1c0,0.3,0,0.6-0.1,0.9c-0.1,0.3-0.2,0.5-0.3,0.8l-0.8-0.3c0.2-0.4,0.4-0.9,0.4-1.3c0-0.3-0.1-0.5-0.1-0.7
		c-0.1-0.1-0.2-0.2-0.4-0.2c-0.2,0-0.3,0.1-0.4,0.3c-0.1,0.2-0.2,0.4-0.2,0.8c-0.1,0.4-0.2,0.7-0.3,0.9c-0.1,0.2-0.2,0.4-0.4,0.6
		c-0.2,0.2-0.4,0.2-0.8,0.2c-0.3,0-0.5-0.1-0.7-0.2c-0.2-0.2-0.4-0.4-0.5-0.7c-0.1-0.3-0.2-0.7-0.2-1.1
		C122.5,596.6,122.6,596.3,122.7,595.9z"/>
	<path class="st0" d="M123.5,603.5h-0.9v-3.7h4.7v3.6h-0.9v-2.5h-1v2.2h-0.9v-2.2h-1.1V603.5z"/>
	<path class="st0" d="M127.1,607.5c-0.1,0.3-0.3,0.5-0.6,0.7c-0.3,0.2-0.6,0.3-0.9,0.3c-0.3,0-0.7-0.1-0.9-0.3s-0.5-0.4-0.6-0.7
		c-0.1-0.3-0.2-0.7-0.2-1.1v-1h-1.3v-1.1h4.7v2.1C127.4,606.8,127.3,607.2,127.1,607.5z M125,607.1c0.1,0.2,0.3,0.3,0.6,0.3
		c0.3,0,0.5-0.1,0.6-0.3c0.1-0.2,0.2-0.4,0.2-0.8v-0.9h-1.6v0.9C124.8,606.7,124.9,606.9,125,607.1z"/>
	<path class="st0" d="M125.4,611.1v1.9h-0.8v-1.9H125.4z"/>
	<path class="st0" d="M126.5,616.9v-1.5h0.9v4.1h-0.9V618h-3.9v-1.1H126.5z"/>
	<path class="st0" d="M122.8,621c0.2-0.4,0.5-0.7,0.9-0.9c0.4-0.2,0.8-0.3,1.3-0.3c0.5,0,0.9,0.1,1.3,0.3c0.4,0.2,0.7,0.5,0.9,0.9
		c0.2,0.4,0.3,0.8,0.3,1.3c0,0.5-0.1,0.9-0.3,1.3c-0.2,0.4-0.5,0.7-0.9,0.9c-0.4,0.2-0.8,0.3-1.3,0.3c-0.5,0-0.9-0.1-1.3-0.3
		c-0.4-0.2-0.7-0.5-0.9-0.9s-0.3-0.8-0.3-1.3C122.5,621.8,122.6,621.4,122.8,621z M123.7,623.1c0.1,0.2,0.3,0.4,0.5,0.5
		c0.2,0.1,0.5,0.2,0.8,0.2c0.3,0,0.6-0.1,0.8-0.2c0.2-0.1,0.4-0.3,0.5-0.5c0.1-0.2,0.2-0.5,0.2-0.8s-0.1-0.5-0.2-0.8
		c-0.1-0.2-0.3-0.4-0.5-0.5c-0.2-0.1-0.5-0.2-0.8-0.2c-0.3,0-0.6,0.1-0.8,0.2c-0.2,0.1-0.4,0.3-0.5,0.5c-0.1,0.2-0.2,0.5-0.2,0.8
		S123.5,622.9,123.7,623.1z"/>
	<path class="st0" d="M126.5,626.7v-1.5h0.9v4.1h-0.9v-1.5h-3.9v-1.1H126.5z"/>
	<path class="st0" d="M123.6,632.8v-2.2l-1-0.4V629l4.7,2.1v1.1l-4.7,2.1v-1.2L123.6,632.8z M124.5,632.4l1.8-0.8l-1.8-0.8V632.4z"
		/>
	<path class="st0" d="M127.4,634.8v1.1h-3.9v2.4h-0.9v-3.5H127.4z"/>
	<path class="st0" d="M126.5,641.8v-1.5h0.9v4.1h-0.9v-1.5h-3.9v-1.1H126.5z"/>
	<path class="st0" d="M122.8,645.9c0.2-0.4,0.5-0.7,0.9-0.9c0.4-0.2,0.8-0.3,1.3-0.3c0.5,0,0.9,0.1,1.3,0.3c0.4,0.2,0.7,0.5,0.9,0.9
		c0.2,0.4,0.3,0.8,0.3,1.3c0,0.5-0.1,0.9-0.3,1.3c-0.2,0.4-0.5,0.7-0.9,0.9c-0.4,0.2-0.8,0.3-1.3,0.3c-0.5,0-0.9-0.1-1.3-0.3
		c-0.4-0.2-0.7-0.5-0.9-0.9s-0.3-0.8-0.3-1.3C122.5,646.8,122.6,646.3,122.8,645.9z M123.7,648c0.1,0.2,0.3,0.4,0.5,0.5
		c0.2,0.1,0.5,0.2,0.8,0.2c0.3,0,0.6-0.1,0.8-0.2s0.4-0.3,0.5-0.5c0.1-0.2,0.2-0.5,0.2-0.8s-0.1-0.5-0.2-0.8
		c-0.1-0.2-0.3-0.4-0.5-0.5c-0.2-0.1-0.5-0.2-0.8-0.2c-0.3,0-0.6,0.1-0.8,0.2c-0.2,0.1-0.4,0.3-0.5,0.5c-0.1,0.2-0.2,0.5-0.2,0.8
		S123.5,647.8,123.7,648z"/>
	<path class="st0" d="M123.1,651.2c0.4-0.4,0.9-0.6,1.6-0.6h2.7v1.1h-2.6c-0.9,0-1.3,0.4-1.3,1.1c0,0.3,0.1,0.6,0.3,0.8
		c0.2,0.2,0.5,0.3,1,0.3h2.6v1.1h-2.7c-0.7,0-1.2-0.2-1.6-0.6c-0.4-0.4-0.6-0.9-0.6-1.6C122.5,652.1,122.7,651.6,123.1,651.2z"/>
	<path class="st0" d="M122.8,657c0.2-0.4,0.5-0.7,0.9-0.9c0.4-0.2,0.8-0.3,1.3-0.3c0.5,0,0.9,0.1,1.3,0.3c0.4,0.2,0.7,0.5,0.9,0.9
		c0.2,0.4,0.3,0.8,0.3,1.3c0,0.4-0.1,0.8-0.2,1.1c-0.1,0.3-0.4,0.6-0.6,0.8l-0.7-0.7c0.4-0.3,0.6-0.7,0.6-1.2c0-0.3-0.1-0.6-0.2-0.8
		c-0.1-0.2-0.3-0.4-0.5-0.5c-0.2-0.1-0.5-0.2-0.8-0.2c-0.3,0-0.6,0.1-0.8,0.2c-0.2,0.1-0.4,0.3-0.5,0.5c-0.1,0.2-0.2,0.5-0.2,0.8
		c0,0.5,0.2,0.9,0.6,1.2l-0.7,0.7c-0.3-0.2-0.5-0.5-0.6-0.8s-0.2-0.7-0.2-1.1C122.5,657.8,122.6,657.4,122.8,657z"/>
	<path class="st0" d="M127.4,665.4h-4.7v-1.1h1.9v-2.2h-1.9V661h4.7v1.1h-1.9v2.2h1.9V665.4z"/>
	<path class="st0" d="M127.1,669.6c-0.1,0.3-0.3,0.5-0.6,0.7c-0.3,0.2-0.6,0.3-0.9,0.3c-0.3,0-0.7-0.1-0.9-0.3
		c-0.3-0.2-0.5-0.4-0.6-0.7c-0.1-0.3-0.2-0.7-0.2-1.1v-1h-1.3v-1.1h4.7v2.1C127.4,669,127.3,669.3,127.1,669.6z M125,669.2
		c0.1,0.2,0.3,0.3,0.6,0.3c0.3,0,0.5-0.1,0.6-0.3c0.1-0.2,0.2-0.4,0.2-0.8v-0.9h-1.6v0.9C124.8,668.8,124.9,669.1,125,669.2z"/>
	<path class="st0" d="M122.8,672.4c0.2-0.4,0.5-0.7,0.9-0.9c0.4-0.2,0.8-0.3,1.3-0.3c0.5,0,0.9,0.1,1.3,0.3c0.4,0.2,0.7,0.5,0.9,0.9
		c0.2,0.4,0.3,0.8,0.3,1.3c0,0.5-0.1,0.9-0.3,1.3c-0.2,0.4-0.5,0.7-0.9,0.9c-0.4,0.2-0.8,0.3-1.3,0.3c-0.5,0-0.9-0.1-1.3-0.3
		c-0.4-0.2-0.7-0.5-0.9-0.9s-0.3-0.8-0.3-1.3C122.5,673.3,122.6,672.8,122.8,672.4z M123.7,674.5c0.1,0.2,0.3,0.4,0.5,0.5
		c0.2,0.1,0.5,0.2,0.8,0.2c0.3,0,0.6-0.1,0.8-0.2s0.4-0.3,0.5-0.5c0.1-0.2,0.2-0.5,0.2-0.8s-0.1-0.5-0.2-0.8
		c-0.1-0.2-0.3-0.4-0.5-0.5c-0.2-0.1-0.5-0.2-0.8-0.2c-0.3,0-0.6,0.1-0.8,0.2c-0.2,0.1-0.4,0.3-0.5,0.5c-0.1,0.2-0.2,0.5-0.2,0.8
		S123.5,674.3,123.7,674.5z"/>
	<path class="st0" d="M127.4,677.2v1.1h-4.7v-1.1H127.4z"/>
	<path class="st0" d="M127.4,683.8h-4.7v-0.9l2.9-2.4h-2.9v-1.1h4.7v0.9l-2.9,2.4h2.9V683.8z"/>
	<path class="st0" d="M126.5,685.9v-1.5h0.9v4.1h-0.9V687h-3.9v-1.1H126.5z"/>
	<path class="st0" d="M115.5,592.9v-2.2l-1-0.4v-1.1l4.7,2.1v1.1l-4.7,2.1v-1.2L115.5,592.9z M116.3,592.5l1.8-0.8l-1.8-0.8V592.5z"
		/>
	<path class="st0" d="M119.2,599.3h-4.7v-0.9l2.9-2.4h-2.9v-1.1h4.7v0.9l-2.9,2.4h2.9V599.3z"/>
	<path class="st0" d="M115.5,603.5v-2.2l-1-0.4v-1.1l4.7,2.1v1.1l-4.7,2.1V604L115.5,603.5z M116.3,603.2l1.8-0.8l-1.8-0.8V603.2z"
		/>
	<path class="st0" d="M119.2,605.6v1.1h-3.9v2.4h-0.9v-3.5H119.2z"/>
	<path class="st0" d="M116.2,611.5h-1.7v-1.1h1.7l3.1-1.8v1.2l-2.1,1.3l2.1,1.3v1.1L116.2,611.5z"/>
	<path class="st0" d="M114.5,614.2c0.1-0.4,0.2-0.6,0.4-0.8l0.8,0.4c-0.1,0.2-0.3,0.4-0.4,0.7s-0.1,0.6-0.1,0.8c0,0.3,0,0.5,0.1,0.7
		c0.1,0.1,0.2,0.2,0.4,0.2c0.1,0,0.2,0,0.3-0.1c0.1-0.1,0.1-0.2,0.2-0.3c0-0.1,0.1-0.3,0.1-0.6c0.1-0.4,0.2-0.7,0.3-0.9
		c0.1-0.2,0.2-0.4,0.4-0.6c0.2-0.2,0.4-0.2,0.8-0.2c0.3,0,0.5,0.1,0.7,0.2c0.2,0.1,0.4,0.4,0.5,0.7c0.1,0.3,0.2,0.7,0.2,1.1
		c0,0.3,0,0.6-0.1,0.9s-0.2,0.5-0.3,0.8l-0.8-0.3c0.2-0.4,0.4-0.9,0.4-1.3c0-0.3-0.1-0.5-0.1-0.7c-0.1-0.1-0.2-0.2-0.4-0.2
		c-0.2,0-0.3,0.1-0.4,0.3c-0.1,0.2-0.2,0.4-0.2,0.8c-0.1,0.4-0.2,0.7-0.3,0.9c-0.1,0.2-0.2,0.4-0.4,0.6c-0.2,0.2-0.4,0.2-0.8,0.2
		c-0.3,0-0.5-0.1-0.7-0.2c-0.2-0.2-0.4-0.4-0.5-0.7c-0.1-0.3-0.2-0.7-0.2-1.1C114.4,614.9,114.4,614.5,114.5,614.2z"/>
	<path class="st0" d="M119.2,618v1.1h-4.7V618H119.2z"/>
	<path class="st0" d="M114.5,620.7c0.1-0.4,0.2-0.6,0.4-0.8l0.8,0.4c-0.1,0.2-0.3,0.4-0.4,0.7s-0.1,0.6-0.1,0.8c0,0.3,0,0.5,0.1,0.7
		c0.1,0.1,0.2,0.2,0.4,0.2c0.1,0,0.2,0,0.3-0.1c0.1-0.1,0.1-0.2,0.2-0.3c0-0.1,0.1-0.3,0.1-0.6c0.1-0.4,0.2-0.7,0.3-0.9
		c0.1-0.2,0.2-0.4,0.4-0.6c0.2-0.2,0.4-0.2,0.8-0.2c0.3,0,0.5,0.1,0.7,0.2c0.2,0.1,0.4,0.4,0.5,0.7c0.1,0.3,0.2,0.7,0.2,1.1
		c0,0.3,0,0.6-0.1,0.9s-0.2,0.5-0.3,0.8l-0.8-0.3c0.2-0.4,0.4-0.9,0.4-1.3c0-0.3-0.1-0.5-0.1-0.7c-0.1-0.1-0.2-0.2-0.4-0.2
		c-0.2,0-0.3,0.1-0.4,0.3c-0.1,0.2-0.2,0.4-0.2,0.8c-0.1,0.4-0.2,0.7-0.3,0.9c-0.1,0.2-0.2,0.4-0.4,0.6c-0.2,0.2-0.4,0.2-0.8,0.2
		c-0.3,0-0.5-0.1-0.7-0.2c-0.2-0.2-0.4-0.4-0.5-0.7c-0.1-0.3-0.2-0.7-0.2-1.1C114.4,621.4,114.4,621.1,114.5,620.7z"/>
	<path class="st0" d="M115.4,630.2h-0.9v-3.7h4.7v3.6h-0.9v-2.5h-1v2.2h-0.9v-2.2h-1.1V630.2z"/>
	<path class="st0" d="M118.3,632.1h-1.3v2.2h-0.9v-2.2h-1.7V631h4.7v3.6h-0.9V632.1z"/>
	<path class="st0" d="M118.3,636.5h-1.3v2.2h-0.9v-2.2h-1.7v-1.1h4.7v3.6h-0.9V636.5z"/>
	<path class="st0" d="M119.2,639.7v1.1h-4.7v-1.1H119.2z"/>
	<path class="st0" d="M114.7,642.9c0.2-0.4,0.5-0.7,0.9-0.9c0.4-0.2,0.8-0.3,1.3-0.3c0.5,0,0.9,0.1,1.3,0.3c0.4,0.2,0.7,0.5,0.9,0.9
		c0.2,0.4,0.3,0.8,0.3,1.3c0,0.4-0.1,0.8-0.2,1.1s-0.4,0.6-0.6,0.8l-0.7-0.7c0.4-0.3,0.6-0.7,0.6-1.2c0-0.3-0.1-0.6-0.2-0.8
		c-0.1-0.2-0.3-0.4-0.5-0.5c-0.2-0.1-0.5-0.2-0.8-0.2c-0.3,0-0.6,0.1-0.8,0.2c-0.2,0.1-0.4,0.3-0.5,0.5c-0.1,0.2-0.2,0.5-0.2,0.8
		c0,0.5,0.2,0.9,0.6,1.2l-0.7,0.7c-0.3-0.2-0.5-0.5-0.6-0.8c-0.1-0.3-0.2-0.7-0.2-1.1C114.4,643.7,114.5,643.3,114.7,642.9z"/>
	<path class="st0" d="M119.2,646.9v1.1h-4.7v-1.1H119.2z"/>
	<path class="st0" d="M115.4,652.8h-0.9v-3.7h4.7v3.6h-0.9v-2.5h-1v2.2h-0.9v-2.2h-1.1V652.8z"/>
	<path class="st0" d="M119.2,658h-4.7v-0.9l2.9-2.4h-2.9v-1.1h4.7v0.9l-2.9,2.4h2.9V658z"/>
	<path class="st0" d="M114.7,660.1c0.2-0.4,0.5-0.7,0.9-0.9c0.4-0.2,0.8-0.3,1.3-0.3c0.5,0,0.9,0.1,1.3,0.3c0.4,0.2,0.7,0.5,0.9,0.9
		c0.2,0.4,0.3,0.8,0.3,1.3c0,0.4-0.1,0.8-0.2,1.1s-0.4,0.6-0.6,0.8l-0.7-0.7c0.4-0.3,0.6-0.7,0.6-1.2c0-0.3-0.1-0.6-0.2-0.8
		c-0.1-0.2-0.3-0.4-0.5-0.5c-0.2-0.1-0.5-0.2-0.8-0.2c-0.3,0-0.6,0.1-0.8,0.2c-0.2,0.1-0.4,0.3-0.5,0.5c-0.1,0.2-0.2,0.5-0.2,0.8
		c0,0.5,0.2,0.9,0.6,1.2l-0.7,0.7c-0.3-0.2-0.5-0.5-0.6-0.8c-0.1-0.3-0.2-0.7-0.2-1.1C114.4,661,114.5,660.5,114.7,660.1z"/>
	<path class="st0" d="M119.2,664.1v1.1h-4.7v-1.1H119.2z"/>
	<path class="st0" d="M115.4,670h-0.9v-3.7h4.7v3.6h-0.9v-2.5h-1v2.2h-0.9v-2.2h-1.1V670z"/>
	<path class="st0" d="M114.5,671.4c0.1-0.4,0.2-0.6,0.4-0.8l0.8,0.4c-0.1,0.2-0.3,0.4-0.4,0.7s-0.1,0.6-0.1,0.8c0,0.3,0,0.5,0.1,0.7
		c0.1,0.1,0.2,0.2,0.4,0.2c0.1,0,0.2,0,0.3-0.1c0.1-0.1,0.1-0.2,0.2-0.3c0-0.1,0.1-0.3,0.1-0.6c0.1-0.4,0.2-0.7,0.3-0.9
		c0.1-0.2,0.2-0.4,0.4-0.6c0.2-0.2,0.4-0.2,0.8-0.2c0.3,0,0.5,0.1,0.7,0.2c0.2,0.1,0.4,0.4,0.5,0.7c0.1,0.3,0.2,0.7,0.2,1.1
		c0,0.3,0,0.6-0.1,0.9c-0.1,0.3-0.2,0.5-0.3,0.8l-0.8-0.3c0.2-0.4,0.4-0.9,0.4-1.3c0-0.3-0.1-0.5-0.1-0.7c-0.1-0.1-0.2-0.2-0.4-0.2
		c-0.2,0-0.3,0.1-0.4,0.3c-0.1,0.2-0.2,0.4-0.2,0.8c-0.1,0.4-0.2,0.7-0.3,0.9c-0.1,0.2-0.2,0.4-0.4,0.6c-0.2,0.2-0.4,0.2-0.8,0.2
		c-0.3,0-0.5-0.1-0.7-0.2c-0.2-0.2-0.4-0.4-0.5-0.7c-0.1-0.3-0.2-0.7-0.2-1.1C114.4,672.1,114.4,671.7,114.5,671.4z"/>
</g>
<g>
	<path class="st0" d="M93.5,590.7c0.2-0.4,0.5-0.7,0.9-0.9c0.4-0.2,0.8-0.3,1.3-0.3c0.5,0,0.9,0.1,1.3,0.3c0.4,0.2,0.7,0.5,0.9,0.9
		c0.2,0.4,0.3,0.8,0.3,1.3c0,0.4-0.1,0.8-0.2,1.1s-0.4,0.6-0.6,0.8l-0.7-0.7c0.4-0.3,0.6-0.7,0.6-1.2c0-0.3-0.1-0.6-0.2-0.8
		c-0.1-0.2-0.3-0.4-0.5-0.5c-0.2-0.1-0.5-0.2-0.8-0.2c-0.3,0-0.6,0.1-0.8,0.2c-0.2,0.1-0.4,0.3-0.5,0.5c-0.1,0.2-0.2,0.5-0.2,0.8
		c0,0.5,0.2,0.9,0.6,1.2L94,594c-0.3-0.2-0.5-0.5-0.6-0.8c-0.1-0.3-0.2-0.7-0.2-1.1C93.1,591.5,93.2,591.1,93.5,590.7z"/>
	<path class="st0" d="M93.5,595.6c0.2-0.4,0.5-0.7,0.9-0.9c0.4-0.2,0.8-0.3,1.3-0.3c0.5,0,0.9,0.1,1.3,0.3c0.4,0.2,0.7,0.5,0.9,0.9
		c0.2,0.4,0.3,0.8,0.3,1.3c0,0.5-0.1,0.9-0.3,1.3c-0.2,0.4-0.5,0.7-0.9,0.9c-0.4,0.2-0.8,0.3-1.3,0.3c-0.5,0-0.9-0.1-1.3-0.3
		c-0.4-0.2-0.7-0.5-0.9-0.9c-0.2-0.4-0.3-0.8-0.3-1.3C93.1,596.4,93.2,596,93.5,595.6z M94.3,597.7c0.1,0.2,0.3,0.4,0.5,0.5
		c0.2,0.1,0.5,0.2,0.8,0.2c0.3,0,0.6-0.1,0.8-0.2c0.2-0.1,0.4-0.3,0.5-0.5c0.1-0.2,0.2-0.5,0.2-0.8s-0.1-0.5-0.2-0.8
		c-0.1-0.2-0.3-0.4-0.5-0.5c-0.2-0.1-0.5-0.2-0.8-0.2c-0.3,0-0.6,0.1-0.8,0.2c-0.2,0.1-0.4,0.3-0.5,0.5c-0.1,0.2-0.2,0.5-0.2,0.8
		S94.1,597.4,94.3,597.7z"/>
	<path class="st0" d="M98,604.7h-4.7v-0.9l2.9-2.4h-2.9v-1.1H98v0.9l-2.9,2.4H98V604.7z"/>
	<path class="st0" d="M93.3,606.3c0.1-0.4,0.2-0.6,0.4-0.8l0.8,0.4c-0.1,0.2-0.3,0.4-0.4,0.7c-0.1,0.3-0.1,0.6-0.1,0.8
		c0,0.3,0,0.5,0.1,0.7s0.2,0.2,0.4,0.2c0.1,0,0.2,0,0.3-0.1c0.1-0.1,0.1-0.2,0.2-0.3c0-0.1,0.1-0.3,0.1-0.6c0.1-0.4,0.2-0.7,0.3-0.9
		c0.1-0.2,0.2-0.4,0.4-0.6c0.2-0.2,0.4-0.2,0.8-0.2c0.3,0,0.5,0.1,0.7,0.2c0.2,0.1,0.4,0.4,0.5,0.7c0.1,0.3,0.2,0.7,0.2,1.1
		c0,0.3,0,0.6-0.1,0.9c-0.1,0.3-0.2,0.5-0.3,0.8l-0.8-0.3c0.2-0.4,0.4-0.9,0.4-1.3c0-0.3,0-0.5-0.1-0.7c-0.1-0.1-0.2-0.2-0.4-0.2
		c-0.2,0-0.3,0.1-0.4,0.3c-0.1,0.2-0.2,0.4-0.2,0.8c-0.1,0.4-0.2,0.7-0.3,0.9c-0.1,0.2-0.2,0.4-0.4,0.6c-0.2,0.2-0.4,0.2-0.8,0.2
		c-0.3,0-0.5-0.1-0.7-0.2c-0.2-0.2-0.4-0.4-0.5-0.7c-0.1-0.3-0.2-0.7-0.2-1.1C93.1,607,93.2,606.6,93.3,606.3z"/>
	<path class="st0" d="M93.7,610.7c0.4-0.4,0.9-0.6,1.6-0.6H98v1.1h-2.6c-0.9,0-1.3,0.4-1.3,1.1c0,0.3,0.1,0.6,0.3,0.8
		c0.2,0.2,0.5,0.3,1,0.3H98v1.1h-2.7c-0.7,0-1.2-0.2-1.6-0.6c-0.4-0.4-0.6-0.9-0.6-1.6C93.1,611.6,93.3,611,93.7,610.7z"/>
	<path class="st0" d="M93.2,619.8l2.8,0l-2.3-1.4v-0.5l2.3-1.4h-2.8v-1H98v0.9l-3,1.8l3,1.7v0.9l-4.7,0V619.8z"/>
	<path class="st0" d="M94.1,625.6h-0.9V622H98v3.6h-0.9v-2.5h-1v2.2h-0.9v-2.2h-1.1V625.6z"/>
	<path class="st0" d="M93.2,629.5l1.3-0.9v-0.1v-1h-1.3v-1.1H98v2.1c0,0.4-0.1,0.8-0.2,1.1c-0.1,0.3-0.3,0.5-0.6,0.7
		c-0.3,0.2-0.6,0.3-0.9,0.3c-0.4,0-0.7-0.1-0.9-0.3c-0.3-0.2-0.5-0.4-0.6-0.7l-1.5,1.1V629.5z M96.9,629.3c0.1-0.2,0.2-0.4,0.2-0.8
		v-0.9h-1.7v0.9c0,0.3,0.1,0.6,0.2,0.8c0.1,0.2,0.3,0.3,0.6,0.3C96.5,629.5,96.7,629.4,96.9,629.3z"/>
	<path class="st0" d="M93.1,637.1l0.5-0.6c-0.4-0.5-0.5-1-0.5-1.6c0-0.3,0.1-0.7,0.2-0.9c0.1-0.3,0.3-0.5,0.5-0.6
		c0.2-0.2,0.4-0.2,0.7-0.2c0.3,0,0.6,0.1,0.8,0.2c0.2,0.2,0.4,0.4,0.6,0.8c0.2-0.2,0.3-0.3,0.5-0.4c0.2-0.1,0.3-0.1,0.5-0.1
		c0.2,0,0.4,0.1,0.6,0.2c0.2,0.1,0.3,0.3,0.4,0.5c0.1,0.2,0.1,0.5,0.1,0.8c0,0.4-0.1,0.7-0.3,1c-0.2,0.2-0.5,0.4-0.8,0.4
		c-0.2,0-0.5-0.1-0.7-0.2c-0.2-0.1-0.4-0.4-0.5-0.7l-0.8,0.9c0.2,0.1,0.5,0.2,0.7,0.2l-0.3,0.8c-0.4-0.1-0.8-0.2-1.1-0.4l-0.5,0.6
		L93.1,637.1z M94.2,635.9l1.1-1.1c-0.1-0.2-0.2-0.4-0.4-0.5c-0.1-0.1-0.3-0.1-0.4-0.1c-0.2,0-0.3,0.1-0.4,0.2
		c-0.1,0.2-0.2,0.4-0.2,0.6C94,635.3,94.1,635.6,94.2,635.9z M97.2,634.8c-0.1-0.1-0.2-0.1-0.3-0.1c-0.1,0-0.2,0-0.3,0.1
		s-0.2,0.1-0.3,0.3c0.1,0.2,0.2,0.4,0.3,0.5c0.1,0.1,0.2,0.1,0.3,0.1c0.1,0,0.2,0,0.3-0.1c0.1-0.1,0.1-0.2,0.1-0.3
		C97.3,635,97.3,634.8,97.2,634.8z"/>
	<path class="st0" d="M93.5,641.2c0.2-0.4,0.5-0.7,0.9-0.9c0.4-0.2,0.8-0.3,1.3-0.3c0.5,0,0.9,0.1,1.3,0.3c0.4,0.2,0.7,0.5,0.9,0.9
		c0.2,0.4,0.3,0.8,0.3,1.3c0,0.4-0.1,0.8-0.2,1.1s-0.4,0.6-0.6,0.8l-0.7-0.7c0.4-0.3,0.6-0.7,0.6-1.2c0-0.3-0.1-0.6-0.2-0.8
		c-0.1-0.2-0.3-0.4-0.5-0.5c-0.2-0.1-0.5-0.2-0.8-0.2c-0.3,0-0.6,0.1-0.8,0.2c-0.2,0.1-0.4,0.3-0.5,0.5c-0.1,0.2-0.2,0.5-0.2,0.8
		c0,0.5,0.2,0.9,0.6,1.2l-0.7,0.7c-0.3-0.2-0.5-0.5-0.6-0.8c-0.1-0.3-0.2-0.7-0.2-1.1C93.1,642.1,93.2,641.6,93.5,641.2z"/>
	<path class="st0" d="M93.5,646.1c0.2-0.4,0.5-0.7,0.9-0.9c0.4-0.2,0.8-0.3,1.3-0.3c0.5,0,0.9,0.1,1.3,0.3c0.4,0.2,0.7,0.5,0.9,0.9
		c0.2,0.4,0.3,0.8,0.3,1.3c0,0.5-0.1,0.9-0.3,1.3c-0.2,0.4-0.5,0.7-0.9,0.9c-0.4,0.2-0.8,0.3-1.3,0.3c-0.5,0-0.9-0.1-1.3-0.3
		c-0.4-0.2-0.7-0.5-0.9-0.9c-0.2-0.4-0.3-0.8-0.3-1.3C93.1,646.9,93.2,646.5,93.5,646.1z M94.3,648.2c0.1,0.2,0.3,0.4,0.5,0.5
		c0.2,0.1,0.5,0.2,0.8,0.2c0.3,0,0.6-0.1,0.8-0.2c0.2-0.1,0.4-0.3,0.5-0.5c0.1-0.2,0.2-0.5,0.2-0.8s-0.1-0.5-0.2-0.8
		c-0.1-0.2-0.3-0.4-0.5-0.5c-0.2-0.1-0.5-0.2-0.8-0.2c-0.3,0-0.6,0.1-0.8,0.2c-0.2,0.1-0.4,0.3-0.5,0.5c-0.1,0.2-0.2,0.5-0.2,0.8
		S94.1,648,94.3,648.2z"/>
	<path class="st0" d="M98,655.2h-4.7v-0.9l2.9-2.4h-2.9v-1.1H98v0.9l-2.9,2.4H98V655.2z"/>
	<path class="st0" d="M98,660.7h-4.7v-0.9l2.9-2.4h-2.9v-1.1H98v0.9l-2.9,2.4H98V660.7z"/>
	<path class="st0" d="M94.1,665.5h-0.9v-3.7H98v3.6h-0.9v-2.5h-1v2.2h-0.9v-2.2h-1.1V665.5z"/>
	<path class="st0" d="M93.5,667.3c0.2-0.4,0.5-0.7,0.9-0.9c0.4-0.2,0.8-0.3,1.3-0.3c0.5,0,0.9,0.1,1.3,0.3c0.4,0.2,0.7,0.5,0.9,0.9
		c0.2,0.4,0.3,0.8,0.3,1.3c0,0.4-0.1,0.8-0.2,1.1c-0.1,0.3-0.4,0.6-0.6,0.8l-0.7-0.7c0.4-0.3,0.6-0.7,0.6-1.2c0-0.3-0.1-0.6-0.2-0.8
		c-0.1-0.2-0.3-0.4-0.5-0.5c-0.2-0.1-0.5-0.2-0.8-0.2c-0.3,0-0.6,0.1-0.8,0.2c-0.2,0.1-0.4,0.3-0.5,0.5c-0.1,0.2-0.2,0.5-0.2,0.8
		c0,0.5,0.2,0.9,0.6,1.2l-0.7,0.7c-0.3-0.2-0.5-0.5-0.6-0.8c-0.1-0.3-0.2-0.7-0.2-1.1C93.1,668.2,93.2,667.7,93.5,667.3z"/>
	<path class="st0" d="M97.1,672.3v-1.5H98v4.1h-0.9v-1.5h-3.9v-1.1H97.1z"/>
	<path class="st0" d="M98,675.5v1.1h-4.7v-1.1H98z"/>
	<path class="st0" d="M93.5,678.7c0.2-0.4,0.5-0.7,0.9-0.9c0.4-0.2,0.8-0.3,1.3-0.3c0.5,0,0.9,0.1,1.3,0.3c0.4,0.2,0.7,0.5,0.9,0.9
		c0.2,0.4,0.3,0.8,0.3,1.3c0,0.5-0.1,0.9-0.3,1.3c-0.2,0.4-0.5,0.7-0.9,0.9c-0.4,0.2-0.8,0.3-1.3,0.3c-0.5,0-0.9-0.1-1.3-0.3
		c-0.4-0.2-0.7-0.5-0.9-0.9c-0.2-0.4-0.3-0.8-0.3-1.3C93.1,679.5,93.2,679.1,93.5,678.7z M94.3,680.8c0.1,0.2,0.3,0.4,0.5,0.5
		c0.2,0.1,0.5,0.2,0.8,0.2c0.3,0,0.6-0.1,0.8-0.2c0.2-0.1,0.4-0.3,0.5-0.5c0.1-0.2,0.2-0.5,0.2-0.8s-0.1-0.5-0.2-0.8
		c-0.1-0.2-0.3-0.4-0.5-0.5c-0.2-0.1-0.5-0.2-0.8-0.2c-0.3,0-0.6,0.1-0.8,0.2c-0.2,0.1-0.4,0.3-0.5,0.5c-0.1,0.2-0.2,0.5-0.2,0.8
		S94.1,680.5,94.3,680.8z"/>
	<path class="st0" d="M98,687.8h-4.7v-0.9l2.9-2.4h-2.9v-1.1H98v0.9l-2.9,2.4H98V687.8z"/>
	<path class="st0" d="M85.2,590.2c0.1-0.4,0.2-0.6,0.4-0.8l0.8,0.4c-0.1,0.2-0.3,0.4-0.4,0.7s-0.1,0.6-0.1,0.8c0,0.3,0,0.5,0.1,0.7
		c0.1,0.1,0.2,0.2,0.4,0.2c0.1,0,0.2,0,0.3-0.1c0.1-0.1,0.1-0.2,0.2-0.3c0-0.1,0.1-0.3,0.2-0.6c0.1-0.4,0.2-0.7,0.3-0.9
		c0.1-0.2,0.2-0.4,0.4-0.6c0.2-0.2,0.4-0.2,0.8-0.2c0.3,0,0.5,0.1,0.7,0.2s0.4,0.4,0.5,0.7c0.1,0.3,0.2,0.7,0.2,1.1
		c0,0.3,0,0.6-0.1,0.9c-0.1,0.3-0.2,0.5-0.3,0.8l-0.8-0.3c0.2-0.4,0.4-0.9,0.4-1.3c0-0.3-0.1-0.5-0.2-0.7c-0.1-0.1-0.2-0.2-0.4-0.2
		s-0.3,0.1-0.4,0.3c-0.1,0.2-0.2,0.4-0.2,0.8c-0.1,0.4-0.2,0.7-0.3,0.9c-0.1,0.2-0.2,0.4-0.4,0.6c-0.2,0.2-0.4,0.2-0.8,0.2
		c-0.3,0-0.5-0.1-0.7-0.2c-0.2-0.2-0.4-0.4-0.5-0.7c-0.1-0.3-0.2-0.7-0.2-1.1C85,590.9,85.1,590.6,85.2,590.2z"/>
	<path class="st0" d="M88.9,595v-1.5h0.9v4.1h-0.9v-1.5h-3.9V595H88.9z"/>
	<path class="st0" d="M85.1,601.2l1.3-0.9v-0.1v-1h-1.3v-1.1h4.7v2.1c0,0.4-0.1,0.8-0.2,1.1c-0.1,0.3-0.3,0.5-0.6,0.7
		c-0.3,0.2-0.6,0.3-0.9,0.3c-0.4,0-0.7-0.1-0.9-0.3c-0.3-0.2-0.5-0.4-0.6-0.7l-1.5,1.1V601.2z M88.7,600.9c0.1-0.2,0.2-0.4,0.2-0.8
		v-0.9h-1.7v0.9c0,0.3,0.1,0.6,0.2,0.8c0.1,0.2,0.3,0.3,0.6,0.3C88.4,601.2,88.6,601.1,88.7,600.9z"/>
	<path class="st0" d="M86.1,606.3v-2.2l-1-0.4v-1.1l4.7,2.1v1.1l-4.7,2.1v-1.2L86.1,606.3z M86.9,606l1.8-0.8l-1.8-0.8V606z"/>
	<path class="st0" d="M88.9,609.1v-1.5h0.9v4.1h-0.9v-1.5h-3.9v-1.1H88.9z"/>
	<path class="st0" d="M86,616h-0.9v-3.7h4.7v3.6h-0.9v-2.5h-1v2.2h-0.9v-2.2H86V616z"/>
	<path class="st0" d="M87.5,620.1v1h-1.9c-0.2-0.3-0.3-0.6-0.4-0.9c-0.1-0.3-0.2-0.7-0.2-1c0-0.5,0.1-0.9,0.3-1.3
		c0.2-0.4,0.5-0.7,0.9-0.9c0.4-0.2,0.8-0.3,1.3-0.3s0.9,0.1,1.3,0.3c0.4,0.2,0.7,0.5,0.9,0.9c0.2,0.4,0.3,0.8,0.3,1.3
		c0,0.4-0.1,0.8-0.2,1.1s-0.3,0.6-0.6,0.9l-0.7-0.7c0.4-0.3,0.5-0.7,0.5-1.2c0-0.3-0.1-0.6-0.2-0.8c-0.1-0.2-0.3-0.4-0.5-0.5
		c-0.2-0.1-0.5-0.2-0.8-0.2c-0.3,0-0.6,0.1-0.8,0.2c-0.2,0.1-0.4,0.3-0.5,0.5c-0.1,0.2-0.2,0.5-0.2,0.8c0,0.3,0.1,0.6,0.2,0.9H87.5z
		"/>
	<path class="st0" d="M86.8,624.4h-1.7v-1.1h1.7l3.1-1.8v1.2l-2.1,1.3l2.1,1.3v1.1L86.8,624.4z"/>
</g>
<g>
	<path class="st0" d="M65,594.1l2.8,0l-2.3-1.4v-0.5l2.3-1.4H65v-1h4.7v0.9l-3,1.8l3,1.7v0.9l-4.7,0V594.1z"/>
	<path class="st0" d="M65.8,599.9H65v-3.7h4.7v3.6h-0.9v-2.5h-1v2.2h-0.9v-2.2h-1.1V599.9z"/>
	<path class="st0" d="M66,603.9v-2.2l-1-0.4v-1.1l4.7,2.1v1.1l-4.7,2.1v-1.2L66,603.9z M66.8,603.5l1.8-0.8l-1.8-0.8V603.5z"/>
	<path class="st0" d="M69.7,610.3H65v-0.9l2.9-2.4H65V606h4.7v0.9l-2.9,2.4h2.9V610.3z"/>
	<path class="st0" d="M69.7,611.4v1.1H65v-1.1H69.7z"/>
	<path class="st0" d="M69.7,618H65v-0.9l2.9-2.4H65v-1.1h4.7v0.9l-2.9,2.4h2.9V618z"/>
	<path class="st0" d="M67.4,622.4v1h-1.9c-0.2-0.3-0.3-0.6-0.4-0.9c-0.1-0.3-0.2-0.7-0.2-1c0-0.5,0.1-0.9,0.3-1.3
		c0.2-0.4,0.5-0.7,0.9-0.9c0.4-0.2,0.8-0.3,1.3-0.3s0.9,0.1,1.3,0.3c0.4,0.2,0.7,0.5,0.9,0.9c0.2,0.4,0.3,0.8,0.3,1.3
		c0,0.4-0.1,0.8-0.2,1.1c-0.1,0.3-0.3,0.6-0.6,0.9l-0.7-0.7c0.4-0.3,0.5-0.7,0.5-1.2c0-0.3-0.1-0.6-0.2-0.8
		c-0.1-0.2-0.3-0.4-0.5-0.5c-0.2-0.1-0.5-0.2-0.8-0.2c-0.3,0-0.6,0.1-0.8,0.2c-0.2,0.1-0.4,0.3-0.5,0.5c-0.1,0.2-0.2,0.5-0.2,0.8
		c0,0.3,0.1,0.6,0.2,0.9H67.4z"/>
	<path class="st0" d="M68.8,625.5h-1.3v2.2h-0.9v-2.2H65v-1.1h4.7v3.6h-0.9V625.5z"/>
	<path class="st0" d="M65.4,629.2c0.4-0.4,0.9-0.6,1.6-0.6h2.7v1.1h-2.6c-0.9,0-1.3,0.4-1.3,1.1c0,0.3,0.1,0.6,0.3,0.8
		c0.2,0.2,0.5,0.3,1,0.3h2.6v1.1H67c-0.7,0-1.2-0.2-1.6-0.6c-0.4-0.4-0.6-0.9-0.6-1.6C64.9,630.1,65.1,629.6,65.4,629.2z"/>
	<path class="st0" d="M69.7,634.1v1.1h-3.9v2.4H65v-3.5H69.7z"/>
	<path class="st0" d="M65.2,641c0.2-0.4,0.5-0.7,0.9-0.9c0.4-0.2,0.8-0.3,1.3-0.3s0.9,0.1,1.3,0.3c0.4,0.2,0.7,0.5,0.9,0.9
		c0.2,0.4,0.3,0.8,0.3,1.3c0,0.4-0.1,0.8-0.2,1.1c-0.1,0.3-0.4,0.6-0.6,0.8l-0.7-0.7c0.4-0.3,0.6-0.7,0.6-1.2c0-0.3-0.1-0.6-0.2-0.8
		c-0.1-0.2-0.3-0.4-0.5-0.5c-0.2-0.1-0.5-0.2-0.8-0.2c-0.3,0-0.6,0.1-0.8,0.2c-0.2,0.1-0.4,0.3-0.5,0.5c-0.1,0.2-0.2,0.5-0.2,0.8
		c0,0.5,0.2,0.9,0.6,1.2l-0.7,0.7c-0.3-0.2-0.5-0.5-0.6-0.8c-0.1-0.3-0.2-0.7-0.2-1.1C64.9,641.9,65,641.4,65.2,641z"/>
	<path class="st0" d="M65.2,645.9c0.2-0.4,0.5-0.7,0.9-0.9c0.4-0.2,0.8-0.3,1.3-0.3c0.5,0,0.9,0.1,1.3,0.3c0.4,0.2,0.7,0.5,0.9,0.9
		c0.2,0.4,0.3,0.8,0.3,1.3c0,0.5-0.1,0.9-0.3,1.3c-0.2,0.4-0.5,0.7-0.9,0.9c-0.4,0.2-0.8,0.3-1.3,0.3c-0.5,0-0.9-0.1-1.3-0.3
		c-0.4-0.2-0.7-0.5-0.9-0.9c-0.2-0.4-0.3-0.8-0.3-1.3C64.9,646.7,65,646.3,65.2,645.9z M66,648c0.1,0.2,0.3,0.4,0.5,0.5
		c0.2,0.1,0.5,0.2,0.8,0.2c0.3,0,0.6-0.1,0.8-0.2c0.2-0.1,0.4-0.3,0.5-0.5c0.1-0.2,0.2-0.5,0.2-0.8s-0.1-0.5-0.2-0.8
		c-0.1-0.2-0.3-0.4-0.5-0.5c-0.2-0.1-0.5-0.2-0.8-0.2c-0.3,0-0.6,0.1-0.8,0.2c-0.2,0.1-0.4,0.3-0.5,0.5c-0.1,0.2-0.2,0.5-0.2,0.8
		S65.9,647.8,66,648z"/>
	<path class="st0" d="M69.7,655H65v-0.9l2.9-2.4H65v-1.1h4.7v0.9l-2.9,2.4h2.9V655z"/>
	<path class="st0" d="M69.7,660.5H65v-0.9l2.9-2.4H65v-1.1h4.7v0.9l-2.9,2.4h2.9V660.5z"/>
	<path class="st0" d="M65.8,665.3H65v-3.7h4.7v3.6h-0.9v-2.5h-1v2.2h-0.9v-2.2h-1.1V665.3z"/>
	<path class="st0" d="M65.2,667.1c0.2-0.4,0.5-0.7,0.9-0.9c0.4-0.2,0.8-0.3,1.3-0.3s0.9,0.1,1.3,0.3c0.4,0.2,0.7,0.5,0.9,0.9
		c0.2,0.4,0.3,0.8,0.3,1.3c0,0.4-0.1,0.8-0.2,1.1c-0.1,0.3-0.4,0.6-0.6,0.8l-0.7-0.7c0.4-0.3,0.6-0.7,0.6-1.2c0-0.3-0.1-0.6-0.2-0.8
		c-0.1-0.2-0.3-0.4-0.5-0.5c-0.2-0.1-0.5-0.2-0.8-0.2c-0.3,0-0.6,0.1-0.8,0.2c-0.2,0.1-0.4,0.3-0.5,0.5c-0.1,0.2-0.2,0.5-0.2,0.8
		c0,0.5,0.2,0.9,0.6,1.2l-0.7,0.7c-0.3-0.2-0.5-0.5-0.6-0.8c-0.1-0.3-0.2-0.7-0.2-1.1C64.9,668,65,667.5,65.2,667.1z"/>
	<path class="st0" d="M68.8,672.1v-1.5h0.9v4.1h-0.9v-1.5H65v-1.1H68.8z"/>
	<path class="st0" d="M69.7,675.3v1.1H65v-1.1H69.7z"/>
	<path class="st0" d="M65.2,678.5c0.2-0.4,0.5-0.7,0.9-0.9c0.4-0.2,0.8-0.3,1.3-0.3c0.5,0,0.9,0.1,1.3,0.3c0.4,0.2,0.7,0.5,0.9,0.9
		c0.2,0.4,0.3,0.8,0.3,1.3c0,0.5-0.1,0.9-0.3,1.3c-0.2,0.4-0.5,0.7-0.9,0.9c-0.4,0.2-0.8,0.3-1.3,0.3c-0.5,0-0.9-0.1-1.3-0.3
		c-0.4-0.2-0.7-0.5-0.9-0.9c-0.2-0.4-0.3-0.8-0.3-1.3C64.9,679.3,65,678.9,65.2,678.5z M66,680.6c0.1,0.2,0.3,0.4,0.5,0.5
		s0.5,0.2,0.8,0.2c0.3,0,0.6-0.1,0.8-0.2s0.4-0.3,0.5-0.5c0.1-0.2,0.2-0.5,0.2-0.8s-0.1-0.5-0.2-0.8c-0.1-0.2-0.3-0.4-0.5-0.5
		c-0.2-0.1-0.5-0.2-0.8-0.2c-0.3,0-0.6,0.1-0.8,0.2c-0.2,0.1-0.4,0.3-0.5,0.5c-0.1,0.2-0.2,0.5-0.2,0.8S65.9,680.3,66,680.6z"/>
	<path class="st0" d="M69.7,687.6H65v-0.9l2.9-2.4H65v-1.1h4.7v0.9l-2.9,2.4h2.9V687.6z"/>
	<path class="st0" d="M65,689.2c0.1-0.4,0.2-0.6,0.4-0.8l0.8,0.4c-0.1,0.2-0.3,0.4-0.4,0.7s-0.1,0.6-0.1,0.8c0,0.3,0,0.5,0.1,0.7
		c0.1,0.1,0.2,0.2,0.4,0.2c0.1,0,0.2,0,0.3-0.1s0.1-0.2,0.2-0.3c0-0.1,0.1-0.3,0.1-0.6c0.1-0.4,0.2-0.7,0.3-0.9
		c0.1-0.2,0.2-0.4,0.4-0.6c0.2-0.2,0.4-0.2,0.8-0.2c0.3,0,0.5,0.1,0.7,0.2c0.2,0.1,0.4,0.4,0.5,0.7c0.1,0.3,0.2,0.7,0.2,1.1
		c0,0.3,0,0.6-0.1,0.9c-0.1,0.3-0.2,0.5-0.3,0.8l-0.8-0.3c0.2-0.4,0.4-0.9,0.4-1.3c0-0.3,0-0.5-0.1-0.7c-0.1-0.1-0.2-0.2-0.4-0.2
		c-0.2,0-0.3,0.1-0.4,0.3c-0.1,0.2-0.2,0.4-0.2,0.8c-0.1,0.4-0.2,0.7-0.3,0.9c-0.1,0.2-0.2,0.4-0.4,0.6c-0.2,0.2-0.4,0.2-0.8,0.2
		c-0.3,0-0.5-0.1-0.7-0.2s-0.4-0.4-0.5-0.7c-0.1-0.3-0.2-0.7-0.2-1.1C64.9,689.9,64.9,689.5,65,689.2z"/>
	<path class="st0" d="M61.4,592.9c-0.1,0.3-0.3,0.5-0.6,0.7c-0.3,0.2-0.6,0.3-0.9,0.3c-0.3,0-0.7-0.1-0.9-0.3
		c-0.3-0.2-0.5-0.4-0.6-0.7c-0.1-0.3-0.2-0.7-0.2-1.1v-1h-1.3v-1.1h4.7v2.1C61.6,592.2,61.5,592.6,61.4,592.9z M59.2,592.5
		c0.1,0.2,0.3,0.3,0.6,0.3c0.3,0,0.5-0.1,0.6-0.3c0.1-0.2,0.2-0.4,0.2-0.8v-0.9H59v0.9C59,592.1,59.1,592.3,59.2,592.5z"/>
	<path class="st0" d="M61.6,594.6v1.1h-3.9v2.4h-0.9v-3.5H61.6z"/>
	<path class="st0" d="M57.8,601.9v-2.2l-1-0.4v-1.1l4.7,2.1v1.1l-4.7,2.1v-1.2L57.8,601.9z M58.7,601.6l1.8-0.8l-1.8-0.8V601.6z"/>
	<path class="st0" d="M61.6,608.3h-4.7v-0.9l2.9-2.4h-2.9V604h4.7v0.9l-2.9,2.4h2.9V608.3z"/>
</g>
<g>
	<path class="st0" d="M40.3,589.7v2.2c0,0.5-0.1,1-0.3,1.4c-0.2,0.4-0.5,0.7-0.8,0.9c-0.4,0.2-0.8,0.3-1.2,0.3s-0.9-0.1-1.2-0.3
		c-0.4-0.2-0.6-0.5-0.8-0.9c-0.2-0.4-0.3-0.9-0.3-1.4v-2.2H40.3z M36.5,591.8c0,0.5,0.1,0.9,0.4,1.1c0.3,0.3,0.6,0.4,1.1,0.4
		c0.5,0,0.8-0.1,1.1-0.4c0.3-0.3,0.4-0.7,0.4-1.1v-1h-2.9V591.8z"/>
	<path class="st0" d="M35.6,598.4l1.3-0.9v-0.1v-1h-1.3v-1.1h4.7v2.1c0,0.4-0.1,0.8-0.2,1.1c-0.1,0.3-0.3,0.5-0.6,0.7
		c-0.3,0.2-0.6,0.3-0.9,0.3c-0.4,0-0.7-0.1-0.9-0.3s-0.5-0.4-0.6-0.7l-1.5,1.1V598.4z M39.2,598.1c0.1-0.2,0.2-0.4,0.2-0.8v-0.9
		h-1.7v0.9c0,0.3,0.1,0.6,0.2,0.8c0.1,0.2,0.3,0.3,0.6,0.3C38.9,598.3,39.1,598.3,39.2,598.1z"/>
	<path class="st0" d="M40.3,600.3v1.1h-4.7v-1.1H40.3z"/>
	<path class="st0" d="M40.3,607.1l-4.7-2.1v-1.1l4.7-2v1.2l-3.4,1.4l3.4,1.5V607.1z"/>
	<path class="st0" d="M40.3,607.5v1.1h-4.7v-1.1H40.3z"/>
	<path class="st0" d="M40.3,614.1h-4.7v-0.9l2.9-2.4h-2.9v-1.1h4.7v0.9l-2.9,2.4h2.9V614.1z"/>
	<path class="st0" d="M38,618.4v1h-1.9c-0.2-0.3-0.3-0.6-0.4-0.9c-0.1-0.3-0.2-0.7-0.2-1c0-0.5,0.1-0.9,0.3-1.3
		c0.2-0.4,0.5-0.7,0.9-0.9c0.4-0.2,0.8-0.3,1.3-0.3c0.5,0,0.9,0.1,1.3,0.3c0.4,0.2,0.7,0.5,0.9,0.9c0.2,0.4,0.3,0.8,0.3,1.3
		c0,0.4-0.1,0.8-0.2,1.1c-0.1,0.3-0.3,0.6-0.6,0.9l-0.7-0.7c0.4-0.3,0.5-0.7,0.5-1.2c0-0.3-0.1-0.6-0.2-0.8
		c-0.1-0.2-0.3-0.4-0.5-0.5c-0.2-0.1-0.5-0.2-0.8-0.2c-0.3,0-0.6,0.1-0.8,0.2c-0.2,0.1-0.4,0.3-0.5,0.5c-0.1,0.2-0.2,0.5-0.2,0.8
		c0,0.3,0.1,0.6,0.2,0.9H38z"/>
	<path class="st0" d="M35.6,626.7l2.8,0l-2.3-1.4v-0.5l2.3-1.4h-2.8v-1h4.7v0.9l-3,1.8l3,1.7v0.9l-4.7,0V626.7z"/>
	<path class="st0" d="M36.4,632.5h-0.9v-3.7h4.7v3.6h-0.9v-2.5h-1v2.2h-0.9v-2.2h-1.1V632.5z"/>
	<path class="st0" d="M36.6,636.5v-2.2l-1-0.4v-1.1l4.7,2.1v1.1l-4.7,2.1v-1.2L36.6,636.5z M37.4,636.1l1.8-0.8l-1.8-0.8V636.1z"/>
	<path class="st0" d="M40.3,642.9h-4.7V642l2.9-2.4h-2.9v-1.1h4.7v0.9l-2.9,2.4h2.9V642.9z"/>
	<path class="st0" d="M40.3,644v1.1h-4.7V644H40.3z"/>
	<path class="st0" d="M40.3,650.6h-4.7v-0.9l2.9-2.4h-2.9v-1.1h4.7v0.9l-2.9,2.4h2.9V650.6z"/>
	<path class="st0" d="M38,654.9v1h-1.9c-0.2-0.3-0.3-0.6-0.4-0.9c-0.1-0.3-0.2-0.7-0.2-1c0-0.5,0.1-0.9,0.3-1.3
		c0.2-0.4,0.5-0.7,0.9-0.9c0.4-0.2,0.8-0.3,1.3-0.3c0.5,0,0.9,0.1,1.3,0.3c0.4,0.2,0.7,0.5,0.9,0.9c0.2,0.4,0.3,0.8,0.3,1.3
		c0,0.4-0.1,0.8-0.2,1.1c-0.1,0.3-0.3,0.6-0.6,0.9l-0.7-0.7c0.4-0.3,0.5-0.7,0.5-1.2c0-0.3-0.1-0.6-0.2-0.8
		c-0.1-0.2-0.3-0.4-0.5-0.5c-0.2-0.1-0.5-0.2-0.8-0.2c-0.3,0-0.6,0.1-0.8,0.2c-0.2,0.1-0.4,0.3-0.5,0.5c-0.1,0.2-0.2,0.5-0.2,0.8
		c0,0.3,0.1,0.6,0.2,0.9H38z"/>
	<path class="st0" d="M39.4,658.1h-1.3v2.2h-0.9v-2.2h-1.7V657h4.7v3.6h-0.9V658.1z"/>
	<path class="st0" d="M36,661.8c0.4-0.4,0.9-0.6,1.6-0.6h2.7v1.1h-2.6c-0.9,0-1.3,0.4-1.3,1.1c0,0.3,0.1,0.6,0.3,0.8
		c0.2,0.2,0.5,0.3,1,0.3h2.6v1.1h-2.7c-0.7,0-1.2-0.2-1.6-0.6c-0.4-0.4-0.6-0.9-0.6-1.6C35.5,662.7,35.7,662.2,36,661.8z"/>
	<path class="st0" d="M40.3,666.6v1.1h-3.9v2.4h-0.9v-3.5H40.3z"/>
	<path class="st0" d="M29.5,593.9c-0.2,0.2-0.4,0.2-0.7,0.2c-0.4,0-0.7-0.2-1-0.5c-0.2-0.3-0.3-0.8-0.3-1.4v-2.5h4.7v2.3
		c0,0.6-0.1,1-0.3,1.3c-0.2,0.3-0.5,0.5-0.9,0.5c-0.2,0-0.4-0.1-0.6-0.2c-0.2-0.1-0.3-0.3-0.4-0.5C29.8,593.5,29.7,593.7,29.5,593.9
		z M31.3,590.8h-1.1v1.1c0,0.3,0,0.5,0.1,0.6s0.2,0.2,0.4,0.2s0.3-0.1,0.4-0.2c0.1-0.1,0.1-0.3,0.1-0.6V590.8z M28.4,592.8
		c0.1,0.1,0.2,0.2,0.4,0.2c0.4,0,0.6-0.3,0.6-0.9v-1.3h-1.2v1.3C28.3,592.4,28.3,592.6,28.4,592.8z"/>
	<path class="st0" d="M27.9,595.5c0.4-0.4,0.9-0.6,1.6-0.6h2.7v1.1h-2.6c-0.9,0-1.3,0.4-1.3,1.1c0,0.3,0.1,0.6,0.3,0.8
		c0.2,0.2,0.5,0.3,1,0.3h2.6v1.1h-2.7c-0.7,0-1.2-0.2-1.6-0.6s-0.6-0.9-0.6-1.6C27.3,596.4,27.5,595.8,27.9,595.5z"/>
	<path class="st0" d="M27.5,600.7c0.1-0.4,0.2-0.6,0.4-0.8l0.8,0.4c-0.1,0.2-0.3,0.4-0.4,0.7s-0.1,0.6-0.1,0.8c0,0.3,0,0.5,0.1,0.7
		c0.1,0.1,0.2,0.2,0.4,0.2c0.1,0,0.2,0,0.3-0.1c0.1-0.1,0.1-0.2,0.2-0.3c0-0.1,0.1-0.3,0.2-0.6c0.1-0.4,0.2-0.7,0.3-0.9
		s0.2-0.4,0.4-0.6c0.2-0.2,0.4-0.2,0.8-0.2c0.3,0,0.5,0.1,0.7,0.2c0.2,0.1,0.4,0.4,0.5,0.7c0.1,0.3,0.2,0.7,0.2,1.1
		c0,0.3,0,0.6-0.1,0.9c-0.1,0.3-0.2,0.5-0.3,0.8l-0.8-0.3c0.2-0.4,0.4-0.9,0.4-1.3c0-0.3-0.1-0.5-0.2-0.7c-0.1-0.1-0.2-0.2-0.4-0.2
		s-0.3,0.1-0.4,0.3c-0.1,0.2-0.2,0.4-0.2,0.8c-0.1,0.4-0.2,0.7-0.3,0.9s-0.2,0.4-0.4,0.6c-0.2,0.2-0.4,0.2-0.8,0.2
		c-0.3,0-0.5-0.1-0.7-0.2c-0.2-0.2-0.4-0.4-0.5-0.7c-0.1-0.3-0.2-0.7-0.2-1.1C27.3,601.5,27.4,601.1,27.5,600.7z"/>
	<path class="st0" d="M32.2,604.6v1.1h-4.7v-1.1H32.2z"/>
	<path class="st0" d="M32.2,611.2h-4.7v-0.9l2.9-2.4h-2.9v-1.1h4.7v0.9l-2.9,2.4h2.9V611.2z"/>
	<path class="st0" d="M28.3,616h-0.9v-3.7h4.7v3.6h-0.9v-2.5h-1v2.2h-0.9v-2.2h-1.1V616z"/>
	<path class="st0" d="M27.5,617.3c0.1-0.4,0.2-0.6,0.4-0.8l0.8,0.4c-0.1,0.2-0.3,0.4-0.4,0.7s-0.1,0.6-0.1,0.8c0,0.3,0,0.5,0.1,0.7
		c0.1,0.1,0.2,0.2,0.4,0.2c0.1,0,0.2,0,0.3-0.1c0.1-0.1,0.1-0.2,0.2-0.3c0-0.1,0.1-0.3,0.2-0.6c0.1-0.4,0.2-0.7,0.3-0.9
		s0.2-0.4,0.4-0.6c0.2-0.2,0.4-0.2,0.8-0.2c0.3,0,0.5,0.1,0.7,0.2c0.2,0.1,0.4,0.4,0.5,0.7c0.1,0.3,0.2,0.7,0.2,1.1
		c0,0.3,0,0.6-0.1,0.9c-0.1,0.3-0.2,0.5-0.3,0.8l-0.8-0.3c0.2-0.4,0.4-0.9,0.4-1.3c0-0.3-0.1-0.5-0.2-0.7c-0.1-0.1-0.2-0.2-0.4-0.2
		s-0.3,0.1-0.4,0.3c-0.1,0.2-0.2,0.4-0.2,0.8c-0.1,0.4-0.2,0.7-0.3,0.9s-0.2,0.4-0.4,0.6c-0.2,0.2-0.4,0.2-0.8,0.2
		c-0.3,0-0.5-0.1-0.7-0.2c-0.2-0.2-0.4-0.4-0.5-0.7c-0.1-0.3-0.2-0.7-0.2-1.1C27.3,618,27.4,617.7,27.5,617.3z"/>
	<path class="st0" d="M27.5,621.7c0.1-0.4,0.2-0.6,0.4-0.8l0.8,0.4c-0.1,0.2-0.3,0.4-0.4,0.7s-0.1,0.6-0.1,0.8c0,0.3,0,0.5,0.1,0.7
		c0.1,0.1,0.2,0.2,0.4,0.2c0.1,0,0.2,0,0.3-0.1c0.1-0.1,0.1-0.2,0.2-0.3s0.1-0.3,0.2-0.6c0.1-0.4,0.2-0.7,0.3-0.9s0.2-0.4,0.4-0.6
		c0.2-0.2,0.4-0.2,0.8-0.2c0.3,0,0.5,0.1,0.7,0.2c0.2,0.1,0.4,0.4,0.5,0.7c0.1,0.3,0.2,0.7,0.2,1.1c0,0.3,0,0.6-0.1,0.9
		c-0.1,0.3-0.2,0.5-0.3,0.8l-0.8-0.3c0.2-0.4,0.4-0.9,0.4-1.3c0-0.3-0.1-0.5-0.2-0.7c-0.1-0.1-0.2-0.2-0.4-0.2s-0.3,0.1-0.4,0.3
		c-0.1,0.2-0.2,0.4-0.2,0.8c-0.1,0.4-0.2,0.7-0.3,0.9s-0.2,0.4-0.4,0.6c-0.2,0.2-0.4,0.2-0.8,0.2c-0.3,0-0.5-0.1-0.7-0.2
		c-0.2-0.2-0.4-0.4-0.5-0.7c-0.1-0.3-0.2-0.7-0.2-1.1C27.3,622.4,27.4,622,27.5,621.7z"/>
	<path class="st0" d="M29.9,630.6v1H28c-0.2-0.3-0.3-0.6-0.4-0.9c-0.1-0.3-0.2-0.7-0.2-1c0-0.5,0.1-0.9,0.3-1.3
		c0.2-0.4,0.5-0.7,0.9-0.9c0.4-0.2,0.8-0.3,1.3-0.3c0.5,0,0.9,0.1,1.3,0.3c0.4,0.2,0.7,0.5,0.9,0.9c0.2,0.4,0.3,0.8,0.3,1.3
		c0,0.4-0.1,0.8-0.2,1.1c-0.1,0.3-0.3,0.6-0.6,0.9l-0.7-0.7c0.4-0.3,0.5-0.7,0.5-1.2c0-0.3-0.1-0.6-0.2-0.8
		c-0.1-0.2-0.3-0.4-0.5-0.5c-0.2-0.1-0.5-0.2-0.8-0.2c-0.3,0-0.6,0.1-0.8,0.2c-0.2,0.1-0.4,0.3-0.5,0.5c-0.1,0.2-0.2,0.5-0.2,0.8
		c0,0.3,0.1,0.6,0.2,0.9H29.9z"/>
	<path class="st0" d="M27.4,635.7l1.3-0.9v-0.1v-1h-1.3v-1.1h4.7v2.1c0,0.4-0.1,0.8-0.2,1.1c-0.1,0.3-0.3,0.5-0.6,0.7
		c-0.3,0.2-0.6,0.3-0.9,0.3c-0.4,0-0.7-0.1-0.9-0.3c-0.3-0.2-0.5-0.4-0.6-0.7l-1.5,1.1V635.7z M31.1,635.4c0.1-0.2,0.2-0.4,0.2-0.8
		v-0.9h-1.7v0.9c0,0.3,0.1,0.6,0.2,0.8c0.1,0.2,0.3,0.3,0.6,0.3C30.7,635.7,30.9,635.6,31.1,635.4z"/>
	<path class="st0" d="M27.7,638.6c0.2-0.4,0.5-0.7,0.9-0.9c0.4-0.2,0.8-0.3,1.3-0.3s0.9,0.1,1.3,0.3c0.4,0.2,0.7,0.5,0.9,0.9
		c0.2,0.4,0.3,0.8,0.3,1.3c0,0.5-0.1,0.9-0.3,1.3c-0.2,0.4-0.5,0.7-0.9,0.9c-0.4,0.2-0.8,0.3-1.3,0.3s-0.9-0.1-1.3-0.3
		c-0.4-0.2-0.7-0.5-0.9-0.9c-0.2-0.4-0.3-0.8-0.3-1.3C27.3,639.4,27.5,639,27.7,638.6z M28.5,640.7c0.1,0.2,0.3,0.4,0.5,0.5
		c0.2,0.1,0.5,0.2,0.8,0.2s0.6-0.1,0.8-0.2c0.2-0.1,0.4-0.3,0.5-0.5c0.1-0.2,0.2-0.5,0.2-0.8s-0.1-0.5-0.2-0.8
		c-0.1-0.2-0.3-0.4-0.5-0.5c-0.2-0.1-0.5-0.2-0.8-0.2s-0.6,0.1-0.8,0.2c-0.2,0.1-0.4,0.3-0.5,0.5c-0.1,0.2-0.2,0.5-0.2,0.8
		S28.3,640.5,28.5,640.7z"/>
	<path class="st0" d="M32.2,650.4l-4.7-1.6v-1.2l3.2-1l-3.2-1.1v-1.2l4.7-1.6v1.1l-3.3,1.1l3.3,1.1v1l-3.4,1.1l3.4,1.1V650.4z"/>
	<path class="st0" d="M31.3,652v-1.5h0.9v4.1h-0.9v-1.5h-3.9V652H31.3z"/>
	<path class="st0" d="M32.2,659.6h-4.7v-1.1h1.9v-2.2h-1.9v-1.1h4.7v1.1h-1.9v2.2h1.9V659.6z"/>
</g>
<g>
	<path class="st0" d="M175.6,616.9c0.3-0.6,0.8-1.1,1.3-1.4c0.6-0.3,1.2-0.5,1.9-0.5c0.7,0,1.3,0.2,1.9,0.5c0.6,0.3,1,0.8,1.3,1.4
		c0.3,0.6,0.5,1.3,0.5,2c0,0.7-0.2,1.4-0.5,2c-0.3,0.6-0.8,1.1-1.3,1.4c-0.6,0.3-1.2,0.5-1.9,0.5c-0.7,0-1.3-0.2-1.9-0.5
		s-1-0.8-1.3-1.4c-0.3-0.6-0.5-1.3-0.5-2C175.1,618.2,175.2,617.5,175.6,616.9z M176.8,620c0.2,0.3,0.5,0.6,0.8,0.8s0.7,0.3,1.2,0.3
		s0.8-0.1,1.2-0.3c0.3-0.2,0.6-0.5,0.8-0.8c0.2-0.3,0.3-0.7,0.3-1.1s-0.1-0.8-0.3-1.1c-0.2-0.3-0.5-0.6-0.8-0.8
		c-0.3-0.2-0.7-0.3-1.2-0.3s-0.8,0.1-1.2,0.3c-0.3,0.2-0.6,0.5-0.8,0.8c-0.2,0.3-0.3,0.7-0.3,1.1S176.6,619.7,176.8,620z"/>
	<path class="st0" d="M175.9,624.8c0.6-0.6,1.4-0.8,2.4-0.8h4v1.6h-3.9c-1.3,0-1.9,0.5-1.9,1.6c0,0.5,0.2,0.9,0.5,1.2
		c0.3,0.3,0.8,0.4,1.5,0.4h3.9v1.6h-4c-1,0-1.8-0.3-2.4-0.9c-0.6-0.6-0.8-1.4-0.8-2.4C175.1,626.2,175.4,625.4,175.9,624.8z"/>
	<path class="st0" d="M181,633.4v-2.3h1.3v6.2H181v-2.3h-5.8v-1.6H181z"/>
	<path class="st0" d="M182,642.9c-0.2,0.5-0.5,0.8-0.9,1.1c-0.4,0.3-0.8,0.4-1.4,0.4c-0.5,0-1-0.1-1.4-0.4c-0.4-0.3-0.7-0.6-0.9-1.1
		c-0.2-0.5-0.3-1-0.3-1.6v-1.4h-2v-1.6h7.1v3.1C182.3,641.9,182.2,642.5,182,642.9z M178.8,642.3c0.2,0.3,0.5,0.4,0.9,0.4
		c0.4,0,0.7-0.1,0.9-0.4c0.2-0.3,0.3-0.6,0.3-1.1v-1.3h-2.5v1.3C178.5,641.7,178.6,642.1,178.8,642.3z"/>
	<path class="st0" d="M175.9,646.3c0.6-0.6,1.4-0.8,2.4-0.8h4v1.6h-3.9c-1.3,0-1.9,0.5-1.9,1.6c0,0.5,0.2,0.9,0.5,1.2
		c0.3,0.3,0.8,0.4,1.5,0.4h3.9v1.6h-4c-1,0-1.8-0.3-2.4-0.9c-0.6-0.6-0.8-1.4-0.8-2.4C175.1,647.7,175.4,646.9,175.9,646.3z"/>
	<path class="st0" d="M181,654.9v-2.3h1.3v6.2H181v-2.3h-5.8v-1.6H181z"/>
</g>
<rect x="54.5" y="461.1" transform="matrix(-1.836970e-16 1 -1 -1.836970e-16 628.4353 442.7515)" class="st2" width="76.6" height="149"/>
<g>
	<path class="st3" d="M155.1,519.3v1.5h-6.3v-1.5H155.1z"/>
	<path class="st3" d="M152,526.6v1.3h-2.6c-0.3-0.3-0.5-0.7-0.6-1.2c-0.1-0.5-0.2-0.9-0.2-1.4c0-0.7,0.1-1.2,0.4-1.8
		c0.3-0.5,0.7-0.9,1.2-1.2c0.5-0.3,1.1-0.4,1.7-0.4c0.6,0,1.2,0.2,1.7,0.4c0.5,0.3,0.9,0.7,1.2,1.2c0.3,0.5,0.4,1.1,0.4,1.8
		c0,0.6-0.1,1.1-0.3,1.5c-0.2,0.5-0.5,0.8-0.8,1.1l-0.9-0.9c0.5-0.5,0.7-1,0.7-1.6c0-0.4-0.1-0.8-0.3-1.1c-0.2-0.3-0.4-0.6-0.7-0.7
		c-0.3-0.2-0.7-0.3-1.1-0.3c-0.4,0-0.7,0.1-1,0.3c-0.3,0.2-0.5,0.4-0.7,0.7c-0.2,0.3-0.3,0.7-0.3,1.1c0,0.4,0.1,0.8,0.3,1.1H152z"/>
	<path class="st3" d="M155.1,535.1h-6.3v-1.2l3.8-3.2h-3.8v-1.4h6.3v1.2l-3.8,3.1h3.8V535.1z"/>
	<path class="st3" d="M155.1,536.6v1.5h-6.3v-1.5H155.1z"/>
	<path class="st3" d="M153.9,540.8v-2h1.2v5.5h-1.2v-2h-5.1v-1.5H153.9z"/>
	<path class="st3" d="M149.9,550h-1.2v-4.9h6.3v4.8h-1.2v-3.3h-1.4v2.9h-1.1v-2.9h-1.5V550z"/>
</g>
<g>
	<path class="st3" d="M120.6,520.1h-1.2v-4.9h6.3v4.8h-1.2v-3.3h-1.4v2.9H122v-2.9h-1.5V520.1z"/>
	<path class="st3" d="M119.4,525.1l2.2-1.5l-2.2-1.5v-1.7l3.2,2.3l3.1-2.2v1.7l-2.1,1.5l2.1,1.4v1.6l-3.1-2.2l-3.3,2.4V525.1z"/>
	<path class="st3" d="M125.4,531.6c-0.2,0.4-0.5,0.7-0.8,1c-0.3,0.2-0.8,0.3-1.2,0.3c-0.5,0-0.9-0.1-1.2-0.3c-0.3-0.2-0.6-0.5-0.8-1
		c-0.2-0.4-0.3-0.9-0.3-1.5v-1.3h-1.7v-1.5h6.3v2.7C125.7,530.7,125.6,531.2,125.4,531.6z M122.6,531.1c0.2,0.2,0.5,0.3,0.8,0.3
		c0.4,0,0.6-0.1,0.8-0.3c0.2-0.2,0.3-0.6,0.3-1v-1.2h-2.2v1.2C122.3,530.5,122.4,530.8,122.6,531.1z"/>
	<path class="st3" d="M125.7,533.9v1.5h-5.1v3.2h-1.2v-4.6H125.7z"/>
	<path class="st3" d="M119.7,540.6c0.3-0.5,0.7-0.9,1.2-1.2c0.5-0.3,1.1-0.4,1.7-0.4c0.6,0,1.2,0.2,1.7,0.4c0.5,0.3,0.9,0.7,1.2,1.2
		c0.3,0.5,0.4,1.1,0.4,1.8c0,0.7-0.1,1.2-0.4,1.8c-0.3,0.5-0.7,0.9-1.2,1.2c-0.5,0.3-1.1,0.5-1.7,0.5c-0.6,0-1.2-0.2-1.7-0.5
		c-0.5-0.3-0.9-0.7-1.2-1.2c-0.3-0.5-0.4-1.1-0.4-1.8C119.3,541.7,119.4,541.1,119.7,540.6z M120.8,543.4c0.2,0.3,0.4,0.5,0.7,0.7
		c0.3,0.2,0.7,0.3,1,0.3s0.7-0.1,1-0.3c0.3-0.2,0.5-0.4,0.7-0.7c0.2-0.3,0.3-0.6,0.3-1c0-0.4-0.1-0.7-0.3-1
		c-0.2-0.3-0.4-0.5-0.7-0.7c-0.3-0.2-0.7-0.3-1-0.3s-0.7,0.1-1,0.3c-0.3,0.2-0.5,0.4-0.7,0.7c-0.2,0.3-0.3,0.6-0.3,1
		C120.5,542.7,120.6,543.1,120.8,543.4z"/>
	<path class="st3" d="M119.4,551l1.8-1.2v-0.1v-1.3h-1.8v-1.5h6.3v2.7c0,0.6-0.1,1-0.3,1.5c-0.2,0.4-0.5,0.7-0.8,1
		c-0.3,0.2-0.8,0.3-1.2,0.3c-0.5,0-0.9-0.1-1.2-0.3c-0.3-0.2-0.6-0.5-0.8-1l-2,1.4V551z M124.2,550.6c0.2-0.2,0.3-0.6,0.3-1v-1.2
		h-2.2v1.2c0,0.4,0.1,0.8,0.3,1c0.2,0.2,0.5,0.3,0.8,0.3C123.8,550.9,124,550.8,124.2,550.6z"/>
	<path class="st3" d="M120.6,558.5h-1.2v-4.9h6.3v4.8h-1.2V555h-1.4v2.9H122V555h-1.5V558.5z"/>
</g>
<g>
	<path class="st3" d="M95.8,519.1v2.9c0,0.7-0.1,1.3-0.4,1.8c-0.3,0.5-0.6,0.9-1.1,1.2c-0.5,0.3-1,0.4-1.7,0.4s-1.2-0.1-1.7-0.4
		c-0.5-0.3-0.8-0.7-1.1-1.2c-0.3-0.5-0.4-1.1-0.4-1.8v-2.9H95.8z M90.6,521.9c0,0.6,0.2,1.1,0.5,1.5c0.4,0.4,0.8,0.6,1.4,0.6
		s1.1-0.2,1.4-0.6c0.4-0.4,0.5-0.9,0.5-1.5v-1.3h-3.9V521.9z"/>
	<path class="st3" d="M90.6,531.5h-1.2v-4.9h6.3v4.8h-1.2V528h-1.4v2.9h-1.1V528h-1.5V531.5z"/>
	<path class="st3" d="M89.5,533.3c0.1-0.5,0.3-0.8,0.5-1.1l1.1,0.5c-0.2,0.3-0.4,0.6-0.5,1c-0.1,0.4-0.2,0.7-0.2,1.1
		c0,0.4,0.1,0.7,0.2,0.9c0.1,0.2,0.3,0.3,0.5,0.3c0.2,0,0.3-0.1,0.4-0.2c0.1-0.1,0.2-0.3,0.2-0.5c0.1-0.2,0.1-0.4,0.2-0.7
		c0.1-0.5,0.2-0.9,0.3-1.2c0.1-0.3,0.3-0.6,0.6-0.8c0.3-0.2,0.6-0.3,1-0.3c0.4,0,0.7,0.1,1,0.3c0.3,0.2,0.5,0.5,0.7,0.9
		c0.2,0.4,0.3,0.9,0.3,1.5c0,0.4,0,0.8-0.1,1.2c-0.1,0.4-0.2,0.7-0.4,1l-1.1-0.5c0.3-0.6,0.5-1.2,0.5-1.8c0-0.4-0.1-0.7-0.2-0.9
		c-0.1-0.2-0.3-0.3-0.5-0.3c-0.2,0-0.4,0.1-0.5,0.3c-0.1,0.2-0.2,0.6-0.3,1c-0.1,0.5-0.2,0.9-0.3,1.2c-0.1,0.3-0.3,0.6-0.5,0.8
		c-0.2,0.2-0.6,0.3-1,0.3c-0.4,0-0.7-0.1-1-0.3s-0.5-0.5-0.7-0.9s-0.3-0.9-0.3-1.5C89.3,534.2,89.4,533.8,89.5,533.3z"/>
	<path class="st3" d="M95.8,538.4v1.5h-6.3v-1.5H95.8z"/>
	<path class="st3" d="M92.7,545.7v1.3h-2.6c-0.3-0.3-0.5-0.7-0.6-1.2c-0.1-0.5-0.2-0.9-0.2-1.4c0-0.7,0.1-1.2,0.4-1.8
		c0.3-0.5,0.7-0.9,1.2-1.2c0.5-0.3,1.1-0.4,1.7-0.4s1.2,0.2,1.7,0.4c0.5,0.3,0.9,0.7,1.2,1.2c0.3,0.5,0.4,1.1,0.4,1.8
		c0,0.6-0.1,1.1-0.3,1.5c-0.2,0.5-0.5,0.8-0.8,1.1l-0.9-0.9c0.5-0.5,0.7-1,0.7-1.6c0-0.4-0.1-0.8-0.3-1.1c-0.2-0.3-0.4-0.6-0.7-0.7
		c-0.3-0.2-0.7-0.3-1.1-0.3c-0.4,0-0.7,0.1-1,0.3c-0.3,0.2-0.5,0.4-0.7,0.7c-0.2,0.3-0.3,0.7-0.3,1.1c0,0.4,0.1,0.8,0.3,1.1H92.7z"
		/>
	<path class="st3" d="M95.8,554.2h-6.3V553l3.8-3.2h-3.8v-1.4h6.3v1.2l-3.8,3.1h3.8V554.2z"/>
</g>
<g>
	<path class="st3" d="M60.3,518.3v-2.9l-1.4-0.6v-1.5l6.3,2.8v1.4l-6.3,2.8v-1.5L60.3,518.3z M61.4,517.8l2.4-1l-2.4-1V517.8z"/>
	<path class="st3" d="M59.2,522.2c0.3-0.5,0.7-0.9,1.2-1.2c0.5-0.3,1.1-0.4,1.7-0.4c0.6,0,1.2,0.2,1.7,0.4c0.5,0.3,0.9,0.7,1.2,1.2
		c0.3,0.5,0.4,1.1,0.4,1.8c0,0.5-0.1,1-0.3,1.5c-0.2,0.4-0.5,0.8-0.8,1.1l-0.9-0.9c0.5-0.4,0.7-1,0.7-1.6c0-0.4-0.1-0.7-0.3-1
		c-0.2-0.3-0.4-0.5-0.7-0.7c-0.3-0.2-0.7-0.3-1-0.3c-0.4,0-0.7,0.1-1,0.3c-0.3,0.2-0.5,0.4-0.7,0.7c-0.2,0.3-0.3,0.7-0.3,1
		c0,0.6,0.3,1.2,0.8,1.6l-0.9,0.9c-0.4-0.3-0.6-0.7-0.8-1.1c-0.2-0.4-0.3-0.9-0.3-1.5C58.8,523.3,58.9,522.7,59.2,522.2z"/>
	<path class="st3" d="M64,528.8v-2h1.2v5.5H64v-2h-5.1v-1.5H64z"/>
	<path class="st3" d="M65.2,533.1v1.5h-6.3v-1.5H65.2z"/>
	<path class="st3" d="M65.2,542.1l-6.3-2.7v-1.4l6.3-2.7v1.6l-4.5,1.9l4.5,2V542.1z"/>
	<path class="st3" d="M60.3,546.6v-2.9l-1.4-0.6v-1.5l6.3,2.8v1.4l-6.3,2.8v-1.5L60.3,546.6z M61.4,546.1l2.4-1l-2.4-1V546.1z"/>
	<path class="st3" d="M64,550.4v-2h1.2v5.5H64v-2h-5.1v-1.5H64z"/>
	<path class="st3" d="M60.1,559.5h-1.2v-4.9h6.3v4.8h-1.2v-3.3h-1.4v2.9h-1.1v-2.9h-1.5V559.5z"/>
</g>
<g>
	<path class="st3" d="M30.9,510.3v-2.9l-1.4-0.6v-1.5l6.3,2.8v1.4l-6.3,2.8v-1.5L30.9,510.3z M32,509.9l2.4-1l-2.4-1V509.9z"/>
	<path class="st3" d="M29.8,514.3c0.3-0.5,0.7-0.9,1.2-1.2c0.5-0.3,1.1-0.4,1.7-0.4c0.6,0,1.2,0.2,1.7,0.4c0.5,0.3,0.9,0.7,1.2,1.2
		c0.3,0.5,0.4,1.1,0.4,1.8c0,0.5-0.1,1-0.3,1.5c-0.2,0.4-0.5,0.8-0.8,1.1l-0.9-0.9c0.5-0.4,0.7-1,0.7-1.6c0-0.4-0.1-0.7-0.3-1
		c-0.2-0.3-0.4-0.5-0.7-0.7c-0.3-0.2-0.7-0.3-1-0.3c-0.4,0-0.7,0.1-1,0.3c-0.3,0.2-0.5,0.4-0.7,0.7c-0.2,0.3-0.3,0.7-0.3,1
		c0,0.6,0.3,1.2,0.8,1.6l-0.9,0.9c-0.4-0.3-0.6-0.7-0.8-1.1c-0.2-0.4-0.3-0.9-0.3-1.5C29.4,515.4,29.5,514.8,29.8,514.3z"/>
	<path class="st3" d="M29.8,520.8c0.3-0.5,0.7-0.9,1.2-1.2c0.5-0.3,1.1-0.4,1.7-0.4c0.6,0,1.2,0.2,1.7,0.4c0.5,0.3,0.9,0.7,1.2,1.2
		c0.3,0.5,0.4,1.1,0.4,1.8c0,0.5-0.1,1-0.3,1.5c-0.2,0.4-0.5,0.8-0.8,1.1l-0.9-0.9c0.5-0.4,0.7-1,0.7-1.6c0-0.4-0.1-0.7-0.3-1
		c-0.2-0.3-0.4-0.5-0.7-0.7c-0.3-0.2-0.7-0.3-1-0.3c-0.4,0-0.7,0.1-1,0.3c-0.3,0.2-0.5,0.4-0.7,0.7c-0.2,0.3-0.3,0.7-0.3,1
		c0,0.6,0.3,1.2,0.8,1.6l-0.9,0.9c-0.4-0.3-0.6-0.7-0.8-1.1c-0.2-0.4-0.3-0.9-0.3-1.5C29.4,521.9,29.5,521.3,29.8,520.8z"/>
	<path class="st3" d="M30.7,531h-1.2v-4.9h6.3v4.8h-1.2v-3.3h-1.4v2.9h-1.1v-2.9h-1.5V531z"/>
	<path class="st3" d="M35.8,532.2v1.5h-5.1v3.2h-1.2v-4.6H35.8z"/>
	<path class="st3" d="M30.7,542.6h-1.2v-4.9h6.3v4.8h-1.2v-3.3h-1.4v2.9h-1.1v-2.9h-1.5V542.6z"/>
	<path class="st3" d="M29.5,547.8l1.8-1.2v-0.1v-1.3h-1.8v-1.5h6.3v2.7c0,0.6-0.1,1-0.3,1.5c-0.2,0.4-0.5,0.7-0.8,1
		c-0.3,0.2-0.8,0.3-1.2,0.3s-0.9-0.1-1.2-0.3c-0.3-0.2-0.6-0.5-0.8-1l-2,1.4V547.8z M34.4,547.4c0.2-0.2,0.3-0.6,0.3-1v-1.2h-2.2
		v1.2c0,0.4,0.1,0.8,0.3,1c0.2,0.2,0.5,0.3,0.8,0.3C33.9,547.7,34.2,547.6,34.4,547.4z"/>
	<path class="st3" d="M30.9,554.5v-2.9l-1.4-0.6v-1.5l6.3,2.8v1.4l-6.3,2.8v-1.5L30.9,554.5z M32,554.1l2.4-1l-2.4-1V554.1z"/>
	<path class="st3" d="M34.6,558.3v-2h1.2v5.5h-1.2v-2h-5.1v-1.5H34.6z"/>
	<path class="st3" d="M30.7,567.5h-1.2v-4.9h6.3v4.8h-1.2V564h-1.4v2.9h-1.1V564h-1.5V567.5z"/>
</g>
<rect x="9.2" y="166.3" class="st2" width="183.1" height="131.6"/>
<g>
	<path class="st3" d="M59.6,219.5l0-6.2l-3,5.1h-1.1l-3-5v6h-2.2v-10.3h2l3.8,6.4l3.8-6.4h2l0,10.3H59.6z"/>
	<path class="st3" d="M72.2,217.6v1.9h-8v-10.3H72v1.9h-5.4v2.2h4.8v1.9h-4.8v2.4H72.2z"/>
	<path class="st3" d="M80.9,217.3h-4.8l-0.9,2.2h-2.4l4.6-10.3h2.4l4.6,10.3h-2.5L80.9,217.3z M80.1,215.5l-1.6-3.9l-1.6,3.9H80.1z"
		/>
	<path class="st3" d="M94.8,209.2v10.3h-2l-5.1-6.2v6.2h-2.4v-10.3h2l5.1,6.2v-6.2H94.8z"/>
	<path class="st3" d="M97.3,209.2h2.4v10.3h-2.4V209.2z"/>
	<path class="st3" d="M111.5,209.2v10.3h-2l-5.1-6.2v6.2h-2.4v-10.3h2l5.1,6.2v-6.2H111.5z"/>
	<path class="st3" d="M120.9,214.2h2.2v4.2c-0.6,0.4-1.2,0.7-1.9,1c-0.7,0.2-1.5,0.3-2.2,0.3c-1.1,0-2-0.2-2.9-0.7
		c-0.9-0.5-1.5-1.1-2-1.9s-0.7-1.7-0.7-2.7s0.2-1.9,0.7-2.7c0.5-0.8,1.2-1.4,2-1.9c0.9-0.5,1.8-0.7,2.9-0.7c0.9,0,1.7,0.2,2.5,0.5
		c0.7,0.3,1.4,0.7,1.9,1.3l-1.5,1.4c-0.7-0.8-1.6-1.2-2.7-1.2c-0.7,0-1.2,0.1-1.7,0.4c-0.5,0.3-0.9,0.7-1.2,1.2
		c-0.3,0.5-0.4,1.1-0.4,1.7c0,0.6,0.1,1.2,0.4,1.7c0.3,0.5,0.7,0.9,1.2,1.2c0.5,0.3,1.1,0.4,1.7,0.4c0.7,0,1.3-0.1,1.9-0.4V214.2z"
		/>
	<path class="st3" d="M127.7,211.1v2.7h4.8v1.9h-4.8v3.7h-2.4v-10.3h7.8v1.9H127.7z"/>
	<path class="st3" d="M135.8,218.5c-0.8-0.8-1.2-2-1.2-3.5v-5.8h2.4v5.7c0,1.8,0.8,2.8,2.3,2.8c0.7,0,1.3-0.2,1.7-0.7
		c0.4-0.4,0.6-1.1,0.6-2.1v-5.7h2.4v5.8c0,1.5-0.4,2.7-1.2,3.5c-0.8,0.8-2,1.2-3.4,1.2S136.6,219.3,135.8,218.5z"/>
	<path class="st3" d="M146.2,209.2h2.4v8.3h5.2v1.9h-7.5V209.2z"/>
	<path class="st3" d="M52.1,234.9h-4.8l-0.9,2.2H44l4.6-10.3h2.4l4.6,10.3H53L52.1,234.9z M51.3,233.1l-1.6-3.9l-1.6,3.9H51.3z"/>
	<path class="st3" d="M58.5,236.6c-0.8-0.5-1.5-1.1-2-1.9c-0.5-0.8-0.7-1.7-0.7-2.7s0.2-1.9,0.7-2.7c0.5-0.8,1.2-1.4,2-1.9
		c0.8-0.5,1.8-0.7,2.9-0.7c0.9,0,1.7,0.2,2.4,0.5c0.7,0.3,1.3,0.8,1.8,1.4l-1.5,1.4c-0.7-0.8-1.6-1.2-2.6-1.2
		c-0.6,0-1.2,0.1-1.7,0.4s-0.9,0.7-1.2,1.2c-0.3,0.5-0.4,1.1-0.4,1.7c0,0.6,0.1,1.2,0.4,1.7c0.3,0.5,0.7,0.9,1.2,1.2
		s1.1,0.4,1.7,0.4c1,0,1.9-0.4,2.6-1.2l1.5,1.4c-0.5,0.6-1.1,1.1-1.8,1.4c-0.7,0.3-1.5,0.5-2.4,0.5
		C60.3,237.3,59.4,237.1,58.5,236.6z"/>
	<path class="st3" d="M69.1,236.6c-0.8-0.5-1.5-1.1-2-1.9c-0.5-0.8-0.7-1.7-0.7-2.7s0.2-1.9,0.7-2.7c0.5-0.8,1.2-1.4,2-1.9
		c0.8-0.5,1.8-0.7,2.9-0.7c0.9,0,1.7,0.2,2.4,0.5c0.7,0.3,1.3,0.8,1.8,1.4l-1.5,1.4c-0.7-0.8-1.6-1.2-2.6-1.2
		c-0.6,0-1.2,0.1-1.7,0.4s-0.9,0.7-1.2,1.2c-0.3,0.5-0.4,1.1-0.4,1.7c0,0.6,0.1,1.2,0.4,1.7c0.3,0.5,0.7,0.9,1.2,1.2
		s1.1,0.4,1.7,0.4c1,0,1.9-0.4,2.6-1.2l1.5,1.4c-0.5,0.6-1.1,1.1-1.8,1.4c-0.7,0.3-1.5,0.5-2.4,0.5
		C70.9,237.3,69.9,237.1,69.1,236.6z"/>
	<path class="st3" d="M85.7,235.2v1.9h-8v-10.3h7.8v1.9h-5.4v2.2h4.8v1.9h-4.8v2.4H85.7z"/>
	<path class="st3" d="M87.6,226.9H90v8.3h5.2v1.9h-7.5V226.9z"/>
	<path class="st3" d="M104.5,235.2v1.9h-8v-10.3h7.8v1.9h-5.4v2.2h4.8v1.9h-4.8v2.4H104.5z"/>
	<path class="st3" d="M112.9,237.2l-2-2.9h-0.1h-2.1v2.9h-2.4v-10.3h4.5c0.9,0,1.7,0.2,2.4,0.5c0.7,0.3,1.2,0.7,1.6,1.3
		c0.4,0.6,0.5,1.2,0.5,2c0,0.8-0.2,1.4-0.6,2c-0.4,0.6-0.9,1-1.6,1.3l2.3,3.3H112.9z M112.3,229.3c-0.4-0.3-0.9-0.5-1.6-0.5h-1.9
		v3.6h1.9c0.7,0,1.3-0.2,1.6-0.5c0.4-0.3,0.6-0.8,0.6-1.3C112.9,230,112.7,229.6,112.3,229.3z"/>
	<path class="st3" d="M123.9,234.9h-4.8l-0.9,2.2h-2.4l4.6-10.3h2.4l4.6,10.3h-2.5L123.9,234.9z M123.2,233.1l-1.6-3.9l-1.6,3.9
		H123.2z"/>
	<path class="st3" d="M130,228.8h-3.3v-1.9h9v1.9h-3.3v8.3H130V228.8z"/>
	<path class="st3" d="M138.9,236.6c-0.9-0.5-1.5-1.1-2-1.9c-0.5-0.8-0.7-1.7-0.7-2.7s0.2-1.9,0.7-2.7c0.5-0.8,1.2-1.4,2-1.9
		c0.9-0.5,1.8-0.7,2.9-0.7c1.1,0,2,0.2,2.9,0.7c0.9,0.5,1.5,1.1,2,1.9c0.5,0.8,0.7,1.7,0.7,2.7s-0.2,1.9-0.7,2.7
		c-0.5,0.8-1.2,1.4-2,1.9c-0.9,0.5-1.8,0.7-2.9,0.7C140.7,237.3,139.8,237.1,138.9,236.6z M143.5,234.9c0.5-0.3,0.9-0.7,1.2-1.2
		c0.3-0.5,0.4-1.1,0.4-1.7c0-0.6-0.1-1.2-0.4-1.7c-0.3-0.5-0.7-0.9-1.2-1.2c-0.5-0.3-1-0.4-1.6-0.4c-0.6,0-1.2,0.1-1.6,0.4
		c-0.5,0.3-0.9,0.7-1.2,1.2c-0.3,0.5-0.4,1.1-0.4,1.7c0,0.6,0.1,1.2,0.4,1.7c0.3,0.5,0.7,0.9,1.2,1.2c0.5,0.3,1,0.4,1.6,0.4
		C142.4,235.3,143,235.2,143.5,234.9z"/>
	<path class="st3" d="M155.8,237.2l-2-2.9h-0.1h-2.1v2.9h-2.4v-10.3h4.5c0.9,0,1.7,0.2,2.4,0.5c0.7,0.3,1.2,0.7,1.6,1.3
		c0.4,0.6,0.5,1.2,0.5,2c0,0.8-0.2,1.4-0.6,2c-0.4,0.6-0.9,1-1.6,1.3l2.3,3.3H155.8z M155.2,229.3c-0.4-0.3-0.9-0.5-1.6-0.5h-1.9
		v3.6h1.9c0.7,0,1.3-0.2,1.6-0.5c0.4-0.3,0.6-0.8,0.6-1.3C155.7,230,155.6,229.6,155.2,229.3z"/>
	<path class="st3" d="M66.5,245c0.7,0.3,1.2,0.7,1.6,1.3c0.4,0.6,0.5,1.2,0.5,2c0,0.8-0.2,1.4-0.5,2c-0.4,0.6-0.9,1-1.6,1.3
		c-0.7,0.3-1.5,0.4-2.4,0.4h-2.1v2.8h-2.4v-10.3h4.5C65.1,244.5,65.9,244.7,66.5,245z M65.7,249.5c0.4-0.3,0.6-0.7,0.6-1.3
		c0-0.6-0.2-1-0.6-1.3c-0.4-0.3-0.9-0.5-1.6-0.5h-1.9v3.6H64C64.7,250,65.3,249.9,65.7,249.5z"/>
	<path class="st3" d="M70.3,244.5h2.4v8.3h5.2v1.9h-7.5V244.5z"/>
	<path class="st3" d="M86.1,252.6h-4.8l-0.9,2.2h-2.4l4.6-10.3h2.4l4.6,10.3H87L86.1,252.6z M85.3,250.8l-1.6-3.9l-1.6,3.9H85.3z"/>
	<path class="st3" d="M92.2,246.4h-3.3v-1.9h9v1.9h-3.3v8.3h-2.4V246.4z"/>
	<path class="st3" d="M101.5,246.4v2.7h4.8v1.9h-4.8v3.7h-2.4v-10.3h7.8v1.9H101.5z"/>
	<path class="st3" d="M110.5,254.3c-0.9-0.5-1.5-1.1-2-1.9c-0.5-0.8-0.7-1.7-0.7-2.7s0.2-1.9,0.7-2.7c0.5-0.8,1.2-1.4,2-1.9
		c0.9-0.5,1.8-0.7,2.9-0.7c1.1,0,2,0.2,2.9,0.7c0.9,0.5,1.5,1.1,2,1.9c0.5,0.8,0.7,1.7,0.7,2.7s-0.2,1.9-0.7,2.7
		c-0.5,0.8-1.2,1.4-2,1.9s-1.8,0.7-2.9,0.7C112.3,255,111.3,254.7,110.5,254.3z M115,252.5c0.5-0.3,0.9-0.7,1.2-1.2
		c0.3-0.5,0.4-1.1,0.4-1.7c0-0.6-0.1-1.2-0.4-1.7c-0.3-0.5-0.7-0.9-1.2-1.2c-0.5-0.3-1-0.4-1.6-0.4c-0.6,0-1.2,0.1-1.6,0.4
		c-0.5,0.3-0.9,0.7-1.2,1.2c-0.3,0.5-0.4,1.1-0.4,1.7c0,0.6,0.1,1.2,0.4,1.7c0.3,0.5,0.7,0.9,1.2,1.2c0.5,0.3,1,0.4,1.6,0.4
		C114,252.9,114.5,252.8,115,252.5z"/>
	<path class="st3" d="M127.4,254.8l-2-2.9h-0.1h-2.1v2.9h-2.4v-10.3h4.5c0.9,0,1.7,0.2,2.4,0.5c0.7,0.3,1.2,0.7,1.6,1.3
		c0.4,0.6,0.5,1.2,0.5,2c0,0.8-0.2,1.4-0.6,2c-0.4,0.6-0.9,1-1.6,1.3l2.3,3.3H127.4z M126.8,246.9c-0.4-0.3-0.9-0.5-1.6-0.5h-1.9
		v3.6h1.9c0.7,0,1.3-0.2,1.6-0.5c0.4-0.3,0.6-0.8,0.6-1.3C127.3,247.7,127.1,247.2,126.8,246.9z"/>
	<path class="st3" d="M141,254.8l0-6.2l-3,5.1h-1.1l-3-5v6h-2.2v-10.3h2l3.8,6.4l3.8-6.4h2l0,10.3H141z"/>
</g>
<g>
	<g>
		<polyline class="st4" points="45.5,275 27.6,275 27.6,189.8 71.3,189.8 		"/>
		<g>
			<polygon class="st0" points="68.4,193.5 67.8,192.8 71,189.8 67.8,186.9 68.4,186.2 72.3,189.8 			"/>
		</g>
	</g>
</g>
<g>
	<g>
		<polyline class="st4" points="172.4,254.7 172.4,275 53,275 		"/>
		<g>
			<polygon class="st0" points="56,271.4 56.6,272 53.3,275 56.6,278 56,278.6 52,275 			"/>
		</g>
	</g>
</g>
<g>
	<g>
		<polyline class="st4" points="77.1,189.8 172.4,189.8 172.4,246.9 		"/>
		<g>
			<polygon class="st0" points="168.8,244 169.4,243.4 172.4,246.6 175.4,243.4 176,244 172.4,247.9 			"/>
		</g>
	</g>
</g>
</svg>
