<?xml version="1.0" encoding="utf-8"?>
<!-- Generator: Adobe Illustrator 22.1.0, SVG Export Plug-In . SVG Version: 6.00 Build 0)  -->
<svg version="1.1" id="Layer_1" xmlns="http://www.w3.org/2000/svg" xmlns:xlink="http://www.w3.org/1999/xlink" x="0px" y="0px"
	 viewBox="0 0 265.8 504" style="enable-background:new 0 0 265.8 504;" xml:space="preserve">
<style type="text/css">
	.st0{fill:none;stroke:#231F20;stroke-width:0.2817;stroke-miterlimit:10;}
	.st1{fill:#FFFFFF;}
	.st2{fill:#231F20;}
	.st3{fill:#EB1D39;}
	.st4{fill:none;stroke:#231F20;stroke-width:0.7431;stroke-miterlimit:10;}
</style>
<g>
	<g>
		<path class="st0" d="M57.1,190.8"/>
		<path class="st0" d="M136.2,132L136.2,132l-0.3-0.1v0.1c0,10.5-3.9,18.5-12.3,25.1c-7.5,5.9-17.6,9.9-28.2,14.1"/>
		<path class="st0" d="M123.8,157.1"/>
		<path class="st0" d="M39.9,229.2c0.1,0,0.2,0,0.3,0c0.7-16.2,6.4-28.8,17.2-38.4c10.2-9.1,25.3-14.4,38.1-19.6"/>
		<path class="st0" d="M40.3,229.2c-0.1,0-0.4,259.7-0.4,260.9v0.1h0.3l0-0.1"/>
	</g>
	<g>
		<path class="st0" d="M115.5,171.2"/>
		<path class="st0" d="M85.9,229.3c0.1,0,0.2,0,0.3,0c0.9-37.3,16.9-48.3,29.6-58c10.9-8.3,21.1-16.2,21.1-39.3v-0.1h-0.3v0.1"/>
		<path class="st0" d="M86.1,228.9c0,1.2-0.2,260-0.2,261.3v0.1h0.3l0-0.1"/>
	</g>
	<g>
		<path class="st0" d="M135.3,229.4c0-37.4,1-48.4,1.3-58.1c0.3-8.3,0.5-16.2,0.5-39.3v-0.1H137v0.1"/>
		<path class="st0" d="M135.2,229.4"/>
		<path class="st0" d="M135.2,490.2L135.2,490.2l0.1,0.1v-0.1c0-1.2,0-259.6,0-260.8"/>
	</g>
	<g>
		<path class="st0" d="M187.1,229.8c-0.1,0-0.1,0-0.2,0c0,1.1,0,259.3,0,260.4v0.1h0.2l0-0.1"/>
		<path class="st0" d="M159.9,171.2c-5.6-4.3-10.9-8.3-14.8-14.1c-4.4-6.6-6.5-14.6-6.5-25.1v-0.1h-0.2v0.1
			c0,10.5,2.1,18.5,6.5,25.1c3.9,5.9,9.3,9.9,14.9,14.2c6.8,5.1,12.8,10.4,18.2,19.6c5.7,9.7,8.7,22.5,9,39c0.1,0,0.1,0,0.2,0"/>
	</g>
	<g>
		<path class="st0" d="M231.8,230.2c-0.1,0-0.2,0-0.3,0c0,0.9,0.1,259,0.1,260v0.1h0.3l0-0.1"/>
		<path class="st0" d="M214.4,190.8"/>
		<path class="st0" d="M231.5,230.2c0.1,0,0.2,0,0.2,0c-0.6-16.7-6.2-29.6-17.1-39.4c-10.2-9.1-22.2-14.5-35-19.6
			c-10.6-4.3-20.6-8.3-28-14.1c-8.4-6.6-12.3-14.6-12.3-25.1v-0.1h-0.2v0.1c0,10.5,3.9,18.5,12.3,25.2c7.5,5.9,23.6,3.7,28.1,14.2"
			/>
	</g>
</g>
<rect x="104" y="190.6" class="st1" width="60.2" height="17.2"/>
<rect x="104" y="341.9" class="st1" width="60.2" height="17.2"/>
<g>
	<path class="st2" d="M107.4,199.7c0-1.9,1.5-3.3,3.4-3.3c2,0,3.4,1.4,3.4,3.3c0,1.9-1.5,3.3-3.4,3.3
		C108.9,202.9,107.4,201.5,107.4,199.7z M112.8,199.7c0-1.2-0.8-2-2-2c-1.1,0-2,0.8-2,2s0.8,2,2,2
		C112,201.7,112.8,200.9,112.8,199.7z"/>
	<path class="st2" d="M121.2,201.1c0,1.1-0.9,1.7-2.5,1.7h-3.3v-6.3h3.1c1.6,0,2.4,0.7,2.4,1.6c0,0.6-0.3,1.1-0.8,1.4
		C120.7,199.8,121.2,200.3,121.2,201.1z M119.7,200.9c0-0.5-0.4-0.8-1.2-0.8h-1.7v1.6h1.7C119.3,201.7,119.7,201.5,119.7,200.9z
		 M116.9,197.6v1.5h1.5c0.7,0,1.1-0.3,1.1-0.7c0-0.5-0.4-0.7-1.1-0.7H116.9z"/>
	<path class="st2" d="M121.4,202l0.8-1c0.3,0.5,0.7,0.7,1.2,0.7c0.6,0,0.9-0.4,0.9-1v-3h-2.2v-1.2h3.7v4.1c0,1.6-0.8,2.3-2.3,2.3
		C122.6,202.9,121.9,202.6,121.4,202z"/>
	<path class="st2" d="M132.1,201.6v1.2h-4.9v-6.3h4.8v1.2h-3.3v1.4h2.9v1.1h-2.9v1.5H132.1z"/>
	<path class="st2" d="M132.8,199.7c0-1.9,1.5-3.3,3.4-3.3c1.1,0,2,0.4,2.6,1.1l-0.9,0.9c-0.4-0.5-1-0.7-1.6-0.7c-1.2,0-2,0.8-2,2
		c0,1.2,0.8,2,2,2c0.6,0,1.2-0.3,1.6-0.7l0.9,0.9c-0.6,0.7-1.5,1.1-2.6,1.1C134.3,202.9,132.8,201.6,132.8,199.7z"/>
	<path class="st2" d="M141,197.7h-2v-1.2h5.5v1.2h-2v5.1H141V197.7z"/>
	<path class="st2" d="M145.3,196.5h1.5v6.3h-1.5V196.5z"/>
	<path class="st2" d="M154.3,196.5l-2.7,6.3h-1.4l-2.7-6.3h1.6l1.9,4.5l1.9-4.5H154.3z"/>
	<path class="st2" d="M159.7,201.6v1.2h-4.9v-6.3h4.8v1.2h-3.3v1.4h2.9v1.1h-2.9v1.5H159.7z"/>
</g>
<g>
	<path class="st2" d="M112.8,351c0-1.9,1.5-3.3,3.4-3.3c2,0,3.4,1.4,3.4,3.3c0,1.9-1.5,3.3-3.4,3.3
		C114.2,354.3,112.8,352.9,112.8,351z M118.2,351c0-1.2-0.8-2-2-2c-1.1,0-2,0.8-2,2s0.8,2,2,2C117.3,353,118.2,352.2,118.2,351z"/>
	<path class="st2" d="M120.7,351.4v-3.5h1.5v3.5c0,1.2,0.5,1.7,1.4,1.7c0.9,0,1.4-0.5,1.4-1.7v-3.5h1.4v3.5c0,1.9-1.1,2.9-2.9,2.9
		C121.8,354.3,120.7,353.2,120.7,351.4z"/>
	<path class="st2" d="M129,349h-2v-1.2h5.5v1.2h-2v5.1H129V349z"/>
	<path class="st2" d="M138.8,350.1c0,1.4-1.1,2.3-2.7,2.3h-1.3v1.7h-1.5v-6.3h2.7C137.7,347.8,138.8,348.7,138.8,350.1z
		 M137.3,350.1c0-0.7-0.5-1.1-1.3-1.1h-1.2v2.2h1.2C136.8,351.2,137.3,350.8,137.3,350.1z"/>
	<path class="st2" d="M139.7,351.4v-3.5h1.5v3.5c0,1.2,0.5,1.7,1.4,1.7c0.9,0,1.4-0.5,1.4-1.7v-3.5h1.4v3.5c0,1.9-1.1,2.9-2.9,2.9
		C140.8,354.3,139.7,353.2,139.7,351.4z"/>
	<path class="st2" d="M148.1,349h-2v-1.2h5.5v1.2h-2v5.1h-1.5V349z"/>
</g>
<rect x="98" y="166.4" transform="matrix(-1.836970e-16 1 -1 -1.836970e-16 423.6565 161.3534)" class="st3" width="66.3" height="252.2"/>
<g>
	<g>
		<path class="st2" d="M133.7,86.9L133.7,86.9c0-7.4,3.2-12.9,10.1-17.5c6.1-4.1,14.4-6.9,23.1-9.8c10.5-3.6,21.4-7.2,29.8-13.6
			c9.5-7.2,14.1-16.8,14.1-29.3v0h0.2v0c0,12.5-4.6,22.1-14.1,29.3c-8.4,6.3-19.3,10-29.8,13.6c-8.7,3-17,5.7-23.1,9.8
			c-6.9,4.6-10.1,10.1-10.1,17.4v0H133.7z"/>
	</g>
	<g>
		<path class="st2" d="M133.7,86.9L133.7,86.9c0-7.4,3.1-12.9,9.6-17.5c5.8-4.1,13.7-6.9,22-9.8c10-3.6,20.4-7.2,28.3-13.6
			c9-7.2,13.4-16.8,13.4-29.3v0h0.2v0c0,12.5-4.4,22.1-13.4,29.3c-8,6.3-18.3,10-28.4,13.6c-8.3,3-16.1,5.7-21.9,9.8
			c-6.5,4.6-9.6,10.1-9.6,17.4v0H133.7z"/>
	</g>
	<g>
		<path class="st2" d="M133.7,86.9L133.7,86.9c0-7.4,2.9-12.9,9.1-17.5c5.5-4.1,13-6.9,20.9-9.8c9.5-3.6,19.3-7.2,26.9-13.6
			c8.6-7.2,12.7-16.8,12.7-29.3v0h0.2v0c0,12.5-4.2,22.1-12.8,29.3c-7.6,6.3-17.4,10-26.9,13.6c-7.9,2.9-15.3,5.7-20.8,9.8
			c-6.2,4.6-9.1,10.1-9.1,17.4v0H133.7z"/>
	</g>
	<g>
		<path class="st2" d="M133.7,86.9L133.7,86.9c0-7.4,2.7-12.9,8.6-17.5c5.2-4.1,12.3-6.9,19.7-9.8c9-3.6,18.3-7.2,25.4-13.6
			c8.1-7.2,12-16.8,12-29.3v0h0.2v0c0,12.5-3.9,22.1-12.1,29.3c-7.1,6.3-16.5,10-25.4,13.6c-7.4,2.9-14.5,5.7-19.7,9.8
			c-5.9,4.6-8.6,10.1-8.6,17.4v0H133.7z"/>
	</g>
	<g>
		<path class="st2" d="M133.7,86.9L133.7,86.9c0-7.4,2.6-12.9,8.1-17.5c4.9-4.1,11.6-6.9,18.6-9.8c8.5-3.6,17.2-7.2,24-13.6
			c7.6-7.2,11.4-16.8,11.4-29.3v0h0.2v0c0,12.5-3.7,22.1-11.4,29.3c-6.7,6.3-15.5,10-24,13.6c-7,2.9-13.6,5.7-18.6,9.8
			c-5.5,4.6-8.1,10.1-8.1,17.4v0H133.7z"/>
	</g>
	<g>
		<path class="st2" d="M133.7,86.9L133.7,86.9c0-7.4,2.4-12.9,7.6-17.5c4.6-4.1,10.9-6.9,17.5-9.8c8-3.6,16.2-7.2,22.5-13.6
			c7.2-7.2,10.7-16.8,10.7-29.3v0h0.2v0c0,12.5-3.5,22.1-10.7,29.3c-6.3,6.3-14.6,10-22.5,13.6c-6.6,2.9-12.8,5.7-17.4,9.8
			c-5.2,4.6-7.6,10.1-7.6,17.4v0H133.7z"/>
	</g>
	<g>
		<path class="st2" d="M133.7,86.9L133.7,86.9c0-7.4,2.3-12.9,7.2-17.5c4.3-4.1,10.2-6.9,16.4-9.8c7.4-3.6,15.1-7.2,21-13.6
			c6.7-7.2,10-16.8,10-29.3v0h0.2v0c0,12.5-3.3,22.1-10,29.3c-5.9,6.3-13.6,10-21.1,13.6c-6.2,2.9-12,5.7-16.3,9.8
			c-4.9,4.6-7.1,10.1-7.1,17.4v0H133.7z"/>
	</g>
	<g>
		<path class="st2" d="M133.7,86.9L133.7,86.9c0-7.4,2.1-12.9,6.7-17.5c4-4.1,9.5-6.9,15.2-9.8c6.9-3.6,14.1-7.2,19.6-13.6
			c6.3-7.2,9.3-16.8,9.3-29.3v0h0.2v0c0,12.5-3,22.1-9.3,29.3c-5.5,6.3-12.7,10-19.6,13.6c-5.7,2.9-11.2,5.7-15.2,9.8
			c-4.5,4.6-6.6,10.1-6.6,17.4v0H133.7z"/>
	</g>
	<g>
		<path class="st2" d="M133.7,86.9L133.7,86.9c0-7.4,2-12.9,6.2-17.5c3.7-4.1,8.8-6.9,14.1-9.8c6.4-3.6,13-7.2,18.1-13.6
			c5.8-7.2,8.6-16.8,8.6-29.3v0h0.2v0c0,12.5-2.8,22.1-8.6,29.3c-5.1,6.3-11.8,10-18.2,13.6c-5.3,2.9-10.3,5.7-14.1,9.8
			c-4.2,4.6-6.1,10.1-6.1,17.4v0H133.7z"/>
	</g>
	<g>
		<path class="st2" d="M133.7,86.9L133.7,86.9c0-7.4,1.8-12.9,5.7-17.5c3.4-4.1,8.1-6.9,13-9.8c5.9-3.6,12-7.2,16.7-13.6
			c5.3-7.2,7.9-16.8,7.9-29.3v0h0.2v0c0,12.5-2.6,22.1-7.9,29.3c-4.7,6.3-10.8,10-16.7,13.6c-4.9,2.9-9.5,5.7-12.9,9.8
			c-3.9,4.6-5.7,10.1-5.7,17.4v0H133.7z"/>
	</g>
	<g>
		<path class="st2" d="M133.7,86.9L133.7,86.9c0-16.1,4.3-21.5,8.9-27.3c5.5-7,11.8-14.9,11.8-42.8v0h0.2v0c0,28-6.3,35.9-11.8,42.9
			c-4.6,5.8-8.9,11.2-8.9,27.2v0H133.7z"/>
	</g>
	<g>
		<path class="st2" d="M133.7,86.9L133.7,86.9c0-16.1,3.5-21.5,7.3-27.3c4.5-7,9.6-14.9,9.6-42.8v0h0.2v0c0,28-5.1,35.9-9.6,42.9
			c-3.7,5.8-7.3,11.2-7.3,27.2v0H133.7z"/>
	</g>
	<g>
		<path class="st2" d="M133.7,86.9L133.7,86.9c0-16.1,2.8-21.5,5.7-27.3c3.5-7,7.5-14.9,7.5-42.8v0h0.2v0c0,28-4,35.9-7.5,42.9
			c-2.9,5.8-5.7,11.2-5.7,27.2v0H133.7z"/>
	</g>
	<g>
		<path class="st2" d="M133.7,86.9L133.7,86.9c0-16.1,2-21.5,4-27.3c2.5-7,5.4-14.9,5.4-42.9v0h0.2v0c0,28-2.8,35.9-5.4,42.9
			c-2.1,5.8-4,11.2-4,27.2v0H133.7z"/>
	</g>
	<g>
		<path class="st2" d="M133.7,86.9L133.7,86.9c0-16.1,1.2-21.5,2.4-27.3c1.5-7,3.2-14.9,3.2-42.9v0h0.2v0c0,28-1.7,35.9-3.2,42.9
			c-1.2,5.8-2.4,11.2-2.4,27.2v0H133.7z"/>
	</g>
	<g>
		<path class="st2" d="M133.7,86.9L133.7,86.9c0-16.1,0.4-21.5,0.8-27.3c0.5-7,1.1-14.9,1.1-42.9v0h0.2v0c0,28-0.6,35.9-1.1,42.9
			c-0.4,5.8-0.8,11.2-0.8,27.2v0H133.7z"/>
	</g>
	<g>
		<path class="st2" d="M131.8,16.7L131.8,16.7l0.2,0v0c0,28,0.6,35.9,1.1,42.9c0.4,5.8,0.8,11.2,0.8,27.2v0h-0.2v0
			c0-16-0.4-21.5-0.8-27.2C132.4,52.6,131.8,44.7,131.8,16.7z"/>
	</g>
	<g>
		<path class="st2" d="M128.1,16.7L128.1,16.7l0.2,0v0c0,28,1.7,35.9,3.2,42.9c1.2,5.8,2.4,11.2,2.4,27.2v0h-0.2v0
			c0-16-1.2-21.5-2.4-27.2C129.8,52.6,128.1,44.7,128.1,16.7z"/>
	</g>
	<g>
		<path class="st2" d="M124.3,16.7L124.3,16.7l0.2,0v0c0,28,2.8,35.9,5.4,42.9c2.1,5.8,4,11.2,4,27.2v0h-0.2v0c0-16-2-21.5-4-27.2
			C127.2,52.6,124.3,44.7,124.3,16.7z"/>
	</g>
	<g>
		<path class="st2" d="M120.6,16.7L120.6,16.7l0.2,0v0c0,28,4,35.9,7.5,42.8c2.9,5.8,5.7,11.2,5.7,27.3v0h-0.2v0
			c0-16-2.8-21.5-5.7-27.2C124.5,52.6,120.6,44.7,120.6,16.7z"/>
	</g>
	<g>
		<path class="st2" d="M116.8,16.7L116.8,16.7l0.2,0v0c0,28,5.1,35.9,9.6,42.8c3.7,5.8,7.3,11.2,7.3,27.3v0h-0.2v0
			c0-16-3.5-21.5-7.3-27.2C121.9,52.6,116.8,44.7,116.8,16.7z"/>
	</g>
	<g>
		<path class="st2" d="M94.2,16.7L94.2,16.7l0.2,0v0c0,12.5,2.4,22.1,7.2,29.3c4.3,6.3,9.9,10,15.2,13.6c8.8,5.8,17,11.2,17,27.3v0
			h-0.2v0c0-7.3-1.6-12.8-5.2-17.4c-3.1-4.1-7.4-6.9-11.8-9.8c-5.4-3.6-11-7.3-15.3-13.6C96.6,38.8,94.2,29.2,94.2,16.7z"/>
	</g>
	<g>
		<path class="st2" d="M90.5,16.7L90.5,16.7l0.2,0v0c0,12.5,2.6,22.1,7.9,29.3c4.7,6.3,10.8,10,16.7,13.6c4.9,3,9.5,5.7,13,9.8
			c3.9,4.6,5.7,10.1,5.7,17.4v0h-0.2v0c0-7.3-1.8-12.8-5.7-17.4c-3.4-4.1-8.1-6.9-12.9-9.8c-5.9-3.6-12-7.3-16.7-13.6
			C93.1,38.8,90.5,29.2,90.5,16.7z"/>
	</g>
	<g>
		<path class="st2" d="M86.7,16.7L86.7,16.7l0.2,0v0c0,12.5,2.8,22.1,8.6,29.3c5.1,6.3,11.7,10,18.1,13.6c5.3,3,10.4,5.7,14.1,9.8
			c4.2,4.6,6.2,10.1,6.2,17.4v0h-0.2v0c0-7.3-2-12.8-6.1-17.4c-3.7-4.1-8.8-6.9-14.1-9.8c-6.4-3.6-13.1-7.3-18.2-13.6
			C89.5,38.8,86.7,29.2,86.7,16.7z"/>
	</g>
	<g>
		<path class="st2" d="M82.9,16.7L82.9,16.7l0.2,0v0c0,12.5,3,22.1,9.3,29.3c5.5,6.3,12.7,10,19.6,13.6c5.7,3,11.2,5.7,15.2,9.8
			c4.5,4.6,6.7,10.1,6.7,17.4v0h-0.2v0c0-7.3-2.1-12.8-6.6-17.4c-4-4.1-9.5-6.9-15.2-9.8C104.9,56,97.8,52.3,92.3,46
			C86,38.8,82.9,29.2,82.9,16.7z"/>
	</g>
	<g>
		<path class="st2" d="M79.2,16.7L79.2,16.7l0.2,0v0c0,12.5,3.3,22.1,10,29.3c5.9,6.3,13.6,10,21,13.6c6.2,3,12,5.7,16.4,9.8
			c4.9,4.6,7.2,10.1,7.2,17.4v0h-0.2v0c0-7.3-2.3-12.8-7.1-17.4c-4.3-4.1-10.2-6.9-16.3-9.8C102.8,56,95.1,52.3,89.2,46
			C82.5,38.8,79.2,29.2,79.2,16.7z"/>
	</g>
	<g>
		<path class="st2" d="M75.4,16.7L75.4,16.7l0.2,0v0c0,12.5,3.5,22.1,10.7,29.3c6.3,6.3,14.5,10,22.5,13.6c6.6,3,12.8,5.7,17.5,9.8
			c5.2,4.6,7.6,10.1,7.6,17.4v0h-0.2v0c0-7.3-2.4-12.8-7.6-17.4c-4.6-4.1-10.9-6.9-17.4-9.8c-8-3.6-16.2-7.3-22.5-13.6
			C78.9,38.8,75.4,29.2,75.4,16.7z"/>
	</g>
	<g>
		<path class="st2" d="M71.7,16.7L71.7,16.7l0.2,0v0c0,12.5,3.7,22.1,11.4,29.3c6.7,6.3,15.5,10,24,13.6c7,3,13.7,5.7,18.6,9.8
			c5.6,4.6,8.1,10.1,8.1,17.4v0h-0.2v0c0-7.3-2.6-12.8-8.1-17.4c-4.9-4.1-11.6-6.9-18.6-9.8C98.5,56,89.8,52.3,83,46
			C75.4,38.8,71.7,29.2,71.7,16.7z"/>
	</g>
	<g>
		<path class="st2" d="M67.9,16.7L67.9,16.7l0.2,0v0c0,12.5,3.9,22.1,12,29.3c7.1,6.3,16.4,10,25.4,13.6c7.5,3,14.5,5.7,19.7,9.8
			c5.9,4.6,8.6,10.1,8.6,17.4v0h-0.2v0c0-7.3-2.7-12.8-8.6-17.4c-5.2-4.1-12.3-6.9-19.7-9.8C96.4,56,87.1,52.3,80,46
			C71.8,38.8,67.9,29.2,67.9,16.7z"/>
	</g>
	<g>
		<path class="st2" d="M64.1,16.7L64.1,16.7l0.2,0v0c0,12.5,4.2,22.1,12.7,29.3c7.5,6.3,17.4,10,26.9,13.6c7.9,3,15.3,5.7,20.9,9.8
			c6.2,4.6,9.1,10.1,9.1,17.4v0h-0.2v0c0-7.3-2.9-12.8-9.1-17.4c-5.5-4.1-13-6.9-20.8-9.8C94.3,56,84.5,52.3,76.9,46
			C68.3,38.8,64.1,29.2,64.1,16.7z"/>
	</g>
	<g>
		<path class="st2" d="M60.4,16.7L60.4,16.7l0.2,0v0C60.6,29.2,65,38.8,74,46c7.9,6.3,18.3,10,28.3,13.6c8.3,3,16.1,5.7,22,9.8
			c6.6,4.6,9.6,10.1,9.6,17.4v0h-0.2v0c0-7.3-3-12.8-9.6-17.4c-5.8-4.1-13.7-6.9-21.9-9.8C92.2,56,81.8,52.3,73.8,46
			C64.8,38.8,60.4,29.2,60.4,16.7z"/>
	</g>
	<g>
		<path class="st2" d="M56.6,16.7L56.6,16.7l0.2,0v0c0,12.5,4.6,22.1,14.1,29.3c8.4,6.3,19.2,10,29.8,13.6c8.7,3,17,5.7,23.1,9.8
			c6.9,4.6,10.1,10.1,10.1,17.4v0h-0.2v0c0-7.3-3.2-12.8-10.1-17.4c-6.1-4.1-14.4-6.9-23.1-9.8C90,56,79.1,52.3,70.8,46
			C61.2,38.8,56.6,29.2,56.6,16.7z"/>
	</g>
</g>
<g>
	<path class="st2" d="M185.2,11.3l0-3.8l-1.9,3.1h-0.7l-1.8-3v3.7h-1.4V5h1.2l2.4,3.9l2.3-3.9h1.2l0,6.3H185.2z"/>
	<path class="st2" d="M192.9,10.1v1.2h-4.9V5h4.8v1.2h-3.3v1.4h2.9v1.1h-2.9v1.5H192.9z"/>
	<path class="st2" d="M194.1,5h2.9c2.1,0,3.5,1.2,3.5,3.2c0,1.9-1.4,3.2-3.5,3.2h-2.9V5z M196.9,10.1c1.3,0,2.1-0.7,2.1-2
		c0-1.2-0.8-2-2.1-2h-1.3v3.9H196.9z"/>
	<path class="st2" d="M201.5,5h1.5v6.3h-1.5V5z"/>
	<path class="st2" d="M208.6,10h-2.9l-0.6,1.4h-1.5l2.8-6.3h1.4l2.8,6.3h-1.5L208.6,10z M208.2,8.8l-1-2.4l-1,2.4H208.2z"/>
</g>
<g>
	<path class="st2" d="M122.3,5h2.9c2.1,0,3.5,1.2,3.5,3.2c0,1.9-1.4,3.2-3.5,3.2h-2.9V5z M125.1,10.1c1.3,0,2.1-0.7,2.1-2
		c0-1.2-0.8-2-2.1-2h-1.3v3.9H125.1z"/>
	<path class="st2" d="M133.8,10h-2.9l-0.6,1.4h-1.5l2.8-6.3h1.4l2.8,6.3h-1.5L133.8,10z M133.3,8.8l-1-2.4l-1,2.4H133.3z"/>
	<path class="st2" d="M137.5,6.2h-2V5h5.5v1.2h-2v5.1h-1.5V6.2z"/>
	<path class="st2" d="M145.6,10h-2.9l-0.6,1.4h-1.5l2.8-6.3h1.4l2.8,6.3h-1.5L145.6,10z M145.2,8.8l-1-2.4l-1,2.4H145.2z"/>
</g>
<g>
	<path class="st2" d="M55.7,8.3c0-1.9,1.5-3.3,3.4-3.3c1.1,0,2,0.4,2.6,1.1L60.8,7c-0.4-0.5-1-0.7-1.6-0.7c-1.2,0-2,0.8-2,2
		c0,1.2,0.8,2,2,2c0.6,0,1.2-0.3,1.6-0.7l0.9,0.9c-0.6,0.7-1.5,1.1-2.6,1.1C57.2,11.5,55.7,10.2,55.7,8.3z"/>
	<path class="st2" d="M62.2,8.3c0-1.9,1.5-3.3,3.4-3.3c2,0,3.4,1.4,3.4,3.3c0,1.9-1.5,3.3-3.4,3.3C63.6,11.5,62.2,10.1,62.2,8.3z
		 M67.6,8.3c0-1.2-0.8-2-2-2c-1.1,0-2,0.8-2,2s0.8,2,2,2C66.8,10.3,67.6,9.5,67.6,8.3z"/>
	<path class="st2" d="M76,5.1v6.3h-1.2l-3.1-3.8v3.8h-1.4V5.1h1.2l3.1,3.8V5.1H76z"/>
	<path class="st2" d="M78.8,6.3h-2V5.1h5.5v1.2h-2v5.1h-1.5V6.3z"/>
	<path class="st2" d="M87.9,10.2v1.2H83V5.1h4.8v1.2h-3.3v1.4h2.9v1.1h-2.9v1.5H87.9z"/>
	<path class="st2" d="M94.8,5.1v6.3h-1.2l-3.1-3.8v3.8H89V5.1h1.2l3.1,3.8V5.1H94.8z"/>
	<path class="st2" d="M97.6,6.3h-2V5.1h5.5v1.2h-2v5.1h-1.5V6.3z"/>
</g>
<rect x="5.1" y="80.2" class="st3" width="252.5" height="88.9"/>
<g>
	<path class="st1" d="M57.3,123.3l0-4.6l-2.2,3.8h-0.8l-2.2-3.7v4.5h-1.7v-7.6h1.5l2.8,4.7l2.8-4.7h1.4l0,7.6H57.3z"/>
	<path class="st1" d="M66.6,121.8v1.4h-5.9v-7.6h5.7v1.4h-4v1.7H66v1.4h-3.5v1.8H66.6z"/>
	<path class="st1" d="M73,121.6h-3.5l-0.7,1.6H67l3.4-7.6h1.7l3.4,7.6h-1.8L73,121.6z M72.5,120.3l-1.2-2.9l-1.2,2.9H72.5z"/>
	<path class="st1" d="M83.3,115.7v7.6h-1.4l-3.8-4.6v4.6h-1.7v-7.6h1.5l3.8,4.6v-4.6H83.3z"/>
	<path class="st1" d="M85.1,115.7h1.8v7.6h-1.8V115.7z"/>
	<path class="st1" d="M95.7,115.7v7.6h-1.4l-3.8-4.6v4.6h-1.7v-7.6h1.5l3.8,4.6v-4.6H95.7z"/>
	<path class="st1" d="M102.6,119.3h1.6v3.1c-0.4,0.3-0.9,0.6-1.4,0.7c-0.5,0.2-1.1,0.2-1.6,0.2c-0.8,0-1.5-0.2-2.1-0.5
		s-1.1-0.8-1.5-1.4c-0.4-0.6-0.5-1.3-0.5-2c0-0.8,0.2-1.4,0.5-2c0.4-0.6,0.9-1.1,1.5-1.4c0.6-0.3,1.4-0.5,2.2-0.5
		c0.7,0,1.3,0.1,1.8,0.3s1,0.6,1.4,1l-1.1,1c-0.5-0.6-1.2-0.9-2-0.9c-0.5,0-0.9,0.1-1.3,0.3c-0.4,0.2-0.7,0.5-0.9,0.9
		c-0.2,0.4-0.3,0.8-0.3,1.3c0,0.5,0.1,0.9,0.3,1.3s0.5,0.7,0.9,0.9c0.4,0.2,0.8,0.3,1.3,0.3c0.5,0,1-0.1,1.4-0.3V119.3z"/>
	<path class="st1" d="M107.6,117.1v2h3.5v1.4h-3.5v2.8h-1.8v-7.6h5.7v1.4H107.6z"/>
	<path class="st1" d="M113.6,122.5c-0.6-0.6-0.9-1.5-0.9-2.6v-4.3h1.8v4.2c0,1.4,0.6,2,1.7,2c0.6,0,1-0.2,1.3-0.5
		c0.3-0.3,0.4-0.8,0.4-1.5v-4.2h1.7v4.3c0,1.1-0.3,2-0.9,2.6c-0.6,0.6-1.5,0.9-2.5,0.9C115.1,123.4,114.2,123.1,113.6,122.5z"/>
	<path class="st1" d="M121.4,115.7h1.8v6.2h3.8v1.4h-5.6V115.7z"/>
	<path class="st1" d="M136,121.6h-3.5l-0.7,1.6H130l3.4-7.6h1.7l3.4,7.6h-1.8L136,121.6z M135.5,120.3l-1.2-2.9l-1.2,2.9H135.5z"/>
	<path class="st1" d="M140.7,122.9c-0.6-0.3-1.1-0.8-1.5-1.4c-0.4-0.6-0.5-1.3-0.5-2c0-0.8,0.2-1.4,0.5-2c0.4-0.6,0.9-1.1,1.5-1.4
		c0.6-0.3,1.3-0.5,2.1-0.5c0.7,0,1.3,0.1,1.8,0.3c0.5,0.2,1,0.6,1.3,1l-1.1,1c-0.5-0.6-1.2-0.9-1.9-0.9c-0.5,0-0.9,0.1-1.3,0.3
		c-0.4,0.2-0.7,0.5-0.9,0.9c-0.2,0.4-0.3,0.8-0.3,1.3s0.1,0.9,0.3,1.3c0.2,0.4,0.5,0.7,0.9,0.9c0.4,0.2,0.8,0.3,1.3,0.3
		c0.8,0,1.4-0.3,1.9-0.9l1.1,1c-0.4,0.4-0.8,0.8-1.3,1c-0.5,0.2-1.1,0.3-1.8,0.3C142.1,123.4,141.4,123.2,140.7,122.9z"/>
	<path class="st1" d="M148.5,122.9c-0.6-0.3-1.1-0.8-1.5-1.4c-0.4-0.6-0.5-1.3-0.5-2c0-0.8,0.2-1.4,0.5-2c0.4-0.6,0.9-1.1,1.5-1.4
		c0.6-0.3,1.3-0.5,2.1-0.5c0.7,0,1.3,0.1,1.8,0.3c0.5,0.2,1,0.6,1.3,1l-1.1,1c-0.5-0.6-1.2-0.9-1.9-0.9c-0.5,0-0.9,0.1-1.3,0.3
		c-0.4,0.2-0.7,0.5-0.9,0.9c-0.2,0.4-0.3,0.8-0.3,1.3s0.1,0.9,0.3,1.3c0.2,0.4,0.5,0.7,0.9,0.9c0.4,0.2,0.8,0.3,1.3,0.3
		c0.8,0,1.4-0.3,1.9-0.9l1.1,1c-0.4,0.4-0.8,0.8-1.3,1c-0.5,0.2-1.1,0.3-1.8,0.3C149.9,123.4,149.2,123.2,148.5,122.9z"/>
	<path class="st1" d="M160.9,121.8v1.4H155v-7.6h5.7v1.4h-4v1.7h3.5v1.4h-3.5v1.8H160.9z"/>
	<path class="st1" d="M162.3,115.7h1.8v6.2h3.8v1.4h-5.6V115.7z"/>
	<path class="st1" d="M174.7,121.8v1.4h-5.9v-7.6h5.7v1.4h-4v1.7h3.5v1.4h-3.5v1.8H174.7z"/>
	<path class="st1" d="M181,123.3l-1.5-2.1h-0.1h-1.5v2.1h-1.8v-7.6h3.3c0.7,0,1.3,0.1,1.8,0.3c0.5,0.2,0.9,0.5,1.1,1
		c0.3,0.4,0.4,0.9,0.4,1.5c0,0.6-0.1,1.1-0.4,1.5s-0.7,0.7-1.2,0.9l1.7,2.4H181z M180.5,117.4c-0.3-0.2-0.7-0.3-1.2-0.3h-1.4v2.7
		h1.4c0.5,0,0.9-0.1,1.2-0.3c0.3-0.2,0.4-0.6,0.4-1C180.9,118,180.8,117.7,180.5,117.4z"/>
	<path class="st1" d="M189.1,121.6h-3.5l-0.7,1.6h-1.8l3.4-7.6h1.7l3.4,7.6h-1.8L189.1,121.6z M188.6,120.3l-1.2-2.9l-1.2,2.9H188.6
		z"/>
	<path class="st1" d="M193.6,117.1h-2.4v-1.4h6.6v1.4h-2.4v6.2h-1.8V117.1z"/>
	<path class="st1" d="M200.2,122.9c-0.6-0.3-1.1-0.8-1.5-1.4c-0.4-0.6-0.5-1.3-0.5-2s0.2-1.4,0.5-2c0.4-0.6,0.9-1.1,1.5-1.4
		s1.3-0.5,2.1-0.5c0.8,0,1.5,0.2,2.1,0.5s1.1,0.8,1.5,1.4c0.4,0.6,0.5,1.3,0.5,2s-0.2,1.4-0.5,2s-0.9,1.1-1.5,1.4
		c-0.6,0.3-1.3,0.5-2.1,0.5C201.5,123.4,200.8,123.2,200.2,122.9z M203.5,121.6c0.4-0.2,0.6-0.5,0.9-0.9s0.3-0.8,0.3-1.3
		s-0.1-0.9-0.3-1.3s-0.5-0.7-0.9-0.9c-0.4-0.2-0.8-0.3-1.2-0.3s-0.9,0.1-1.2,0.3c-0.4,0.2-0.6,0.5-0.9,0.9c-0.2,0.4-0.3,0.8-0.3,1.3
		s0.1,0.9,0.3,1.3c0.2,0.4,0.5,0.7,0.9,0.9c0.4,0.2,0.8,0.3,1.2,0.3S203.2,121.8,203.5,121.6z"/>
	<path class="st1" d="M212.7,123.3l-1.5-2.1h-0.1h-1.5v2.1h-1.8v-7.6h3.3c0.7,0,1.3,0.1,1.8,0.3c0.5,0.2,0.9,0.5,1.1,1
		c0.3,0.4,0.4,0.9,0.4,1.5c0,0.6-0.1,1.1-0.4,1.5s-0.7,0.7-1.2,0.9l1.7,2.4H212.7z M212.2,117.4c-0.3-0.2-0.7-0.3-1.2-0.3h-1.4v2.7
		h1.4c0.5,0,0.9-0.1,1.2-0.3c0.3-0.2,0.4-0.6,0.4-1C212.6,118,212.5,117.7,212.2,117.4z"/>
	<path class="st1" d="M106.4,129c0.5,0.2,0.9,0.5,1.1,1c0.3,0.4,0.4,0.9,0.4,1.5c0,0.6-0.1,1-0.4,1.5c-0.3,0.4-0.7,0.7-1.1,1
		c-0.5,0.2-1.1,0.3-1.8,0.3h-1.5v2.1h-1.8v-7.6h3.3C105.3,128.7,105.9,128.8,106.4,129z M105.7,132.4c0.3-0.2,0.4-0.6,0.4-1
		c0-0.4-0.1-0.8-0.4-1c-0.3-0.2-0.7-0.3-1.2-0.3h-1.4v2.6h1.4C105,132.8,105.5,132.6,105.7,132.4z"/>
	<path class="st1" d="M109.2,128.7h1.8v6.2h3.8v1.4h-5.6V128.7z"/>
	<path class="st1" d="M120.8,134.7h-3.5l-0.7,1.6h-1.8l3.4-7.6h1.7l3.4,7.6h-1.8L120.8,134.7z M120.3,133.3l-1.2-2.9l-1.2,2.9H120.3
		z"/>
	<path class="st1" d="M125.3,130.1h-2.4v-1.4h6.6v1.4h-2.4v6.2h-1.8V130.1z"/>
	<path class="st1" d="M132.2,130.1v2h3.5v1.4h-3.5v2.8h-1.8v-7.6h5.7v1.4H132.2z"/>
	<path class="st1" d="M138.9,135.9c-0.6-0.3-1.1-0.8-1.5-1.4c-0.4-0.6-0.5-1.3-0.5-2s0.2-1.4,0.5-2c0.4-0.6,0.9-1.1,1.5-1.4
		s1.3-0.5,2.1-0.5c0.8,0,1.5,0.2,2.1,0.5s1.1,0.8,1.5,1.4c0.4,0.6,0.5,1.3,0.5,2s-0.2,1.4-0.5,2s-0.9,1.1-1.5,1.4
		c-0.6,0.3-1.3,0.5-2.1,0.5C140.2,136.4,139.5,136.3,138.9,135.9z M142.2,134.6c0.4-0.2,0.6-0.5,0.9-0.9s0.3-0.8,0.3-1.3
		s-0.1-0.9-0.3-1.3s-0.5-0.7-0.9-0.9c-0.4-0.2-0.8-0.3-1.2-0.3s-0.9,0.1-1.2,0.3c-0.4,0.2-0.6,0.5-0.9,0.9c-0.2,0.4-0.3,0.8-0.3,1.3
		s0.1,0.9,0.3,1.3c0.2,0.4,0.5,0.7,0.9,0.9c0.4,0.2,0.8,0.3,1.2,0.3S141.9,134.8,142.2,134.6z"/>
	<path class="st1" d="M151.3,136.3l-1.5-2.1h-0.1h-1.5v2.1h-1.8v-7.6h3.3c0.7,0,1.3,0.1,1.8,0.3c0.5,0.2,0.9,0.5,1.1,1
		c0.3,0.4,0.4,0.9,0.4,1.5c0,0.6-0.1,1.1-0.4,1.5s-0.7,0.7-1.2,0.9l1.7,2.4H151.3z M150.9,130.5c-0.3-0.2-0.7-0.3-1.2-0.3h-1.4v2.7
		h1.4c0.5,0,0.9-0.1,1.2-0.3c0.3-0.2,0.4-0.6,0.4-1C151.3,131,151.2,130.7,150.9,130.5z"/>
	<path class="st1" d="M161.4,136.3l0-4.6l-2.2,3.8h-0.8l-2.2-3.7v4.5h-1.7v-7.6h1.5l2.8,4.7l2.8-4.7h1.4l0,7.6H161.4z"/>
</g>
<g>
	<g>
		<polyline class="st4" points="93.4,156.9 19.8,156.9 19.8,94 112.4,94 		"/>
		<g>
			<polygon class="st2" points="109.9,97 109.4,96.5 112.1,94 109.4,91.5 109.9,91 113.2,94 			"/>
		</g>
	</g>
</g>
<g>
	<g>
		<polyline class="st4" points="243.2,141.9 243.2,156.9 99,156.9 		"/>
		<g>
			<polygon class="st2" points="101.5,153.9 102,154.5 99.3,156.9 102,159.4 101.5,160 98.2,156.9 			"/>
		</g>
	</g>
</g>
<g>
	<g>
		<polyline class="st4" points="116.7,94 243.2,94 243.2,136.1 		"/>
		<g>
			<polygon class="st2" points="240.1,133.6 240.7,133.1 243.2,135.8 245.7,133.1 246.2,133.6 243.2,136.9 			"/>
		</g>
	</g>
</g>
<rect x="11.2" y="224.5" class="st1" width="248.7" height="23.3"/>
<g>
	<path class="st2" d="M23.6,231.5h1v4.2h-1V231.5z"/>
	<path class="st2" d="M25.6,231.5h1.9c0.5,0,0.9,0.1,1.2,0.3c0.3,0.2,0.6,0.4,0.8,0.7c0.2,0.3,0.3,0.7,0.3,1.1s-0.1,0.8-0.3,1.1
		c-0.2,0.3-0.5,0.6-0.8,0.7c-0.4,0.2-0.8,0.3-1.2,0.3h-1.9V231.5z M27.5,234.9c0.4,0,0.8-0.1,1-0.4s0.4-0.6,0.4-1s-0.1-0.7-0.4-1
		c-0.2-0.2-0.6-0.4-1-0.4h-0.9v2.6H27.5z"/>
	<path class="st2" d="M33.8,234.9v0.8h-3.3v-4.2h3.2v0.8h-2.2v0.9h2v0.8h-2v1H33.8z"/>
	<path class="st2" d="M38.4,231.5v4.2h-0.8l-2.1-2.5v2.5h-1v-4.2h0.8l2.1,2.6v-2.6H38.4z"/>
	<path class="st2" d="M40.3,232.3H39v-0.8h3.7v0.8h-1.3v3.4h-1V232.3z"/>
	<path class="st2" d="M43.1,231.5h1v4.2h-1V231.5z"/>
	<path class="st2" d="M46.1,232.2v1.1H48v0.8h-1.9v1.5h-1v-4.2h3.2v0.8H46.1z"/>
	<path class="st2" d="M51,234.2v1.5h-1v-1.5l-1.6-2.7h1l1.1,1.9l1.1-1.9h1L51,234.2z"/>
	<path class="st2" d="M26.4,240.7h0.9v1.7c-0.2,0.2-0.5,0.3-0.8,0.4c-0.3,0.1-0.6,0.1-0.9,0.1c-0.4,0-0.8-0.1-1.2-0.3
		c-0.3-0.2-0.6-0.4-0.8-0.8c-0.2-0.3-0.3-0.7-0.3-1.1s0.1-0.8,0.3-1.1c0.2-0.3,0.5-0.6,0.8-0.8c0.4-0.2,0.7-0.3,1.2-0.3
		c0.4,0,0.7,0.1,1,0.2s0.6,0.3,0.8,0.5l-0.6,0.6c-0.3-0.3-0.7-0.5-1.1-0.5c-0.3,0-0.5,0.1-0.7,0.2s-0.4,0.3-0.5,0.5
		c-0.1,0.2-0.2,0.4-0.2,0.7c0,0.3,0.1,0.5,0.2,0.7c0.1,0.2,0.3,0.4,0.5,0.5c0.2,0.1,0.4,0.2,0.7,0.2c0.3,0,0.5-0.1,0.8-0.2V240.7z"
		/>
	<path class="st2" d="M30.9,242.9l-0.8-1.2h0h-0.8v1.2h-1v-4.2h1.8c0.4,0,0.7,0.1,1,0.2c0.3,0.1,0.5,0.3,0.6,0.5s0.2,0.5,0.2,0.8
		s-0.1,0.6-0.2,0.8c-0.2,0.2-0.4,0.4-0.6,0.5l0.9,1.4H30.9z M30.7,239.6c-0.2-0.1-0.4-0.2-0.7-0.2h-0.8v1.5H30
		c0.3,0,0.5-0.1,0.7-0.2c0.2-0.1,0.2-0.3,0.2-0.5C30.9,240,30.8,239.8,30.7,239.6z"/>
	<path class="st2" d="M33.5,242.7c-0.3-0.2-0.6-0.4-0.8-0.8c-0.2-0.3-0.3-0.7-0.3-1.1c0-0.4,0.1-0.8,0.3-1.1
		c0.2-0.3,0.5-0.6,0.8-0.8c0.4-0.2,0.7-0.3,1.2-0.3c0.4,0,0.8,0.1,1.2,0.3c0.3,0.2,0.6,0.4,0.8,0.8c0.2,0.3,0.3,0.7,0.3,1.1
		c0,0.4-0.1,0.8-0.3,1.1c-0.2,0.3-0.5,0.6-0.8,0.8s-0.7,0.3-1.2,0.3C34.2,242.9,33.9,242.8,33.5,242.7z M35.4,241.9
		c0.2-0.1,0.4-0.3,0.5-0.5c0.1-0.2,0.2-0.4,0.2-0.7c0-0.3-0.1-0.5-0.2-0.7s-0.3-0.4-0.5-0.5c-0.2-0.1-0.4-0.2-0.7-0.2
		s-0.5,0.1-0.7,0.2c-0.2,0.1-0.4,0.3-0.5,0.5c-0.1,0.2-0.2,0.4-0.2,0.7c0,0.3,0.1,0.5,0.2,0.7c0.1,0.2,0.3,0.4,0.5,0.5
		c0.2,0.1,0.4,0.2,0.7,0.2S35.2,242,35.4,241.9z"/>
	<path class="st2" d="M43.9,238.7l-1.4,4.2h-1l-0.9-2.8l-1,2.8h-1l-1.4-4.2h1l0.9,3l1-3h0.9l1,3l1-3H43.9z"/>
	<path class="st2" d="M45.3,239.5H44v-0.8h3.7v0.8h-1.3v3.4h-1V239.5z"/>
	<path class="st2" d="M52,238.7v4.2h-1v-1.7h-1.9v1.7h-1v-4.2h1v1.7h1.9v-1.7H52z"/>
</g>
<g>
	<path class="st2" d="M78.5,231.5h1.9c0.5,0,0.9,0.1,1.2,0.3c0.3,0.2,0.6,0.4,0.8,0.7c0.2,0.3,0.3,0.7,0.3,1.1s-0.1,0.8-0.3,1.1
		c-0.2,0.3-0.5,0.6-0.8,0.7c-0.4,0.2-0.8,0.3-1.2,0.3h-1.9V231.5z M80.4,234.9c0.4,0,0.8-0.1,1-0.4s0.4-0.6,0.4-1s-0.1-0.7-0.4-1
		c-0.2-0.2-0.6-0.4-1-0.4h-0.9v2.6H80.4z"/>
	<path class="st2" d="M86.7,234.9v0.8h-3.3v-4.2h3.2v0.8h-2.2v0.9h2v0.8h-2v1H86.7z"/>
	<path class="st2" d="M88.4,232.2v1.1h1.9v0.8h-1.9v1.5h-1v-4.2h3.2v0.8H88.4z"/>
	<path class="st2" d="M91.3,231.5h1v4.2h-1V231.5z"/>
	<path class="st2" d="M97.1,231.5v4.2h-0.8l-2.1-2.5v2.5h-1v-4.2h0.8l2.1,2.6v-2.6H97.1z"/>
	<path class="st2" d="M101.4,234.9v0.8h-3.3v-4.2h3.2v0.8h-2.2v0.9h2v0.8h-2v1H101.4z"/>
	<path class="st2" d="M68.1,242.7c-0.3-0.2-0.6-0.4-0.8-0.8c-0.2-0.3-0.3-0.7-0.3-1.1c0-0.4,0.1-0.8,0.3-1.1
		c0.2-0.3,0.5-0.6,0.8-0.8c0.4-0.2,0.7-0.3,1.2-0.3c0.4,0,0.8,0.1,1.2,0.3c0.3,0.2,0.6,0.4,0.8,0.8c0.2,0.3,0.3,0.7,0.3,1.1
		c0,0.4-0.1,0.8-0.3,1.1c-0.2,0.3-0.5,0.6-0.8,0.8s-0.7,0.3-1.2,0.3C68.9,242.9,68.5,242.8,68.1,242.7z M70,241.9
		c0.2-0.1,0.4-0.3,0.5-0.5c0.1-0.2,0.2-0.4,0.2-0.7c0-0.3-0.1-0.5-0.2-0.7s-0.3-0.4-0.5-0.5c-0.2-0.1-0.4-0.2-0.7-0.2
		s-0.5,0.1-0.7,0.2c-0.2,0.1-0.4,0.3-0.5,0.5c-0.1,0.2-0.2,0.4-0.2,0.7c0,0.3,0.1,0.5,0.2,0.7c0.1,0.2,0.3,0.4,0.5,0.5
		c0.2,0.1,0.4,0.2,0.7,0.2S69.8,242.1,70,241.9z"/>
	<path class="st2" d="M75.1,238.8c0.3,0.1,0.5,0.3,0.6,0.5s0.2,0.5,0.2,0.8c0,0.3-0.1,0.6-0.2,0.8s-0.4,0.4-0.6,0.5
		c-0.3,0.1-0.6,0.2-1,0.2h-0.8v1.2h-1v-4.2h1.8C74.5,238.7,74.9,238.7,75.1,238.8z M74.8,240.7c0.2-0.1,0.2-0.3,0.2-0.5
		c0-0.2-0.1-0.4-0.2-0.5c-0.2-0.1-0.4-0.2-0.7-0.2h-0.8v1.5h0.8C74.4,240.9,74.6,240.9,74.8,240.7z"/>
	<path class="st2" d="M79.5,238.8c0.3,0.1,0.5,0.3,0.6,0.5s0.2,0.5,0.2,0.8c0,0.3-0.1,0.6-0.2,0.8s-0.4,0.4-0.6,0.5
		c-0.3,0.1-0.6,0.2-1,0.2h-0.8v1.2h-1v-4.2h1.8C78.9,238.7,79.2,238.7,79.5,238.8z M79.1,240.7c0.2-0.1,0.2-0.3,0.2-0.5
		c0-0.2-0.1-0.4-0.2-0.5c-0.2-0.1-0.4-0.2-0.7-0.2h-0.8v1.5h0.8C78.7,240.9,79,240.9,79.1,240.7z"/>
	<path class="st2" d="M81.9,242.7c-0.3-0.2-0.6-0.4-0.8-0.8c-0.2-0.3-0.3-0.7-0.3-1.1c0-0.4,0.1-0.8,0.3-1.1
		c0.2-0.3,0.5-0.6,0.8-0.8c0.4-0.2,0.7-0.3,1.2-0.3c0.4,0,0.8,0.1,1.2,0.3c0.3,0.2,0.6,0.4,0.8,0.8c0.2,0.3,0.3,0.7,0.3,1.1
		c0,0.4-0.1,0.8-0.3,1.1c-0.2,0.3-0.5,0.6-0.8,0.8s-0.7,0.3-1.2,0.3C82.7,242.9,82.3,242.8,81.9,242.7z M83.8,241.9
		c0.2-0.1,0.4-0.3,0.5-0.5c0.1-0.2,0.2-0.4,0.2-0.7c0-0.3-0.1-0.5-0.2-0.7s-0.3-0.4-0.5-0.5c-0.2-0.1-0.4-0.2-0.7-0.2
		s-0.5,0.1-0.7,0.2c-0.2,0.1-0.4,0.3-0.5,0.5c-0.1,0.2-0.2,0.4-0.2,0.7c0,0.3,0.1,0.5,0.2,0.7c0.1,0.2,0.3,0.4,0.5,0.5
		c0.2,0.1,0.4,0.2,0.7,0.2S83.6,242.1,83.8,241.9z"/>
	<path class="st2" d="M88.8,242.9l-0.8-1.2h0h-0.8v1.2h-1v-4.2H88c0.4,0,0.7,0.1,1,0.2c0.3,0.1,0.5,0.3,0.6,0.5s0.2,0.5,0.2,0.8
		s-0.1,0.6-0.2,0.8c-0.2,0.2-0.4,0.4-0.6,0.5l0.9,1.4H88.8z M88.6,239.6c-0.2-0.1-0.4-0.2-0.7-0.2h-0.8v1.5h0.8
		c0.3,0,0.5-0.1,0.7-0.2c0.2-0.1,0.2-0.3,0.2-0.5C88.8,240,88.7,239.8,88.6,239.6z"/>
	<path class="st2" d="M91.4,239.5H90v-0.8h3.7v0.8h-1.3v3.4h-1V239.5z"/>
	<path class="st2" d="M94.6,242.4c-0.3-0.3-0.5-0.8-0.5-1.4v-2.4h1v2.3c0,0.8,0.3,1.1,0.9,1.1c0.3,0,0.5-0.1,0.7-0.3
		c0.2-0.2,0.2-0.5,0.2-0.9v-2.3h1v2.4c0,0.6-0.2,1.1-0.5,1.4s-0.8,0.5-1.4,0.5C95.4,242.9,94.9,242.8,94.6,242.4z"/>
	<path class="st2" d="M102.7,238.7v4.2h-0.8l-2.1-2.5v2.5h-1v-4.2h0.8l2.1,2.6v-2.6H102.7z"/>
	<path class="st2" d="M103.7,238.7h1v4.2h-1V238.7z"/>
	<path class="st2" d="M106.5,239.5h-1.3v-0.8h3.7v0.8h-1.3v3.4h-1V239.5z"/>
	<path class="st2" d="M111.3,241.4v1.5h-1v-1.5l-1.6-2.7h1l1.1,1.9l1.1-1.9h1L111.3,241.4z"/>
</g>
<g>
	<path class="st2" d="M126.9,231.5h1.9c0.5,0,0.9,0.1,1.2,0.3s0.6,0.4,0.8,0.7s0.3,0.7,0.3,1.1s-0.1,0.8-0.3,1.1s-0.5,0.6-0.8,0.7
		c-0.3,0.2-0.8,0.3-1.2,0.3h-1.9V231.5z M128.7,234.9c0.4,0,0.8-0.1,1-0.4s0.4-0.6,0.4-1s-0.1-0.7-0.4-1c-0.2-0.2-0.6-0.4-1-0.4
		h-0.9v2.6H128.7z"/>
	<path class="st2" d="M135.1,234.9v0.8h-3.3v-4.2h3.2v0.8h-2.2v0.9h2v0.8h-2v1H135.1z"/>
	<path class="st2" d="M136.3,235.6c-0.3-0.1-0.6-0.2-0.7-0.4l0.3-0.7c0.2,0.1,0.4,0.2,0.6,0.3s0.5,0.1,0.7,0.1c0.3,0,0.5,0,0.6-0.1
		c0.1-0.1,0.2-0.2,0.2-0.3c0-0.1,0-0.2-0.1-0.2c-0.1-0.1-0.2-0.1-0.3-0.2c-0.1,0-0.3-0.1-0.5-0.1c-0.3-0.1-0.6-0.2-0.8-0.2
		c-0.2-0.1-0.4-0.2-0.5-0.4c-0.1-0.2-0.2-0.4-0.2-0.7c0-0.2,0.1-0.5,0.2-0.7c0.1-0.2,0.3-0.4,0.6-0.5c0.3-0.1,0.6-0.2,1-0.2
		c0.3,0,0.5,0,0.8,0.1s0.5,0.2,0.7,0.3l-0.3,0.7c-0.4-0.2-0.8-0.3-1.2-0.3c-0.3,0-0.5,0-0.6,0.1c-0.1,0.1-0.2,0.2-0.2,0.3
		c0,0.1,0.1,0.3,0.2,0.3s0.4,0.1,0.7,0.2c0.3,0.1,0.6,0.2,0.8,0.2c0.2,0.1,0.4,0.2,0.5,0.4s0.2,0.4,0.2,0.7c0,0.2-0.1,0.5-0.2,0.7
		c-0.1,0.2-0.3,0.4-0.6,0.5c-0.3,0.1-0.6,0.2-1,0.2C136.9,235.7,136.6,235.7,136.3,235.6z"/>
	<path class="st2" d="M139.7,231.5h1v4.2h-1V231.5z"/>
	<path class="st2" d="M144.5,233.5h0.9v1.7c-0.2,0.2-0.5,0.3-0.8,0.4c-0.3,0.1-0.6,0.1-0.9,0.1c-0.4,0-0.8-0.1-1.2-0.3
		s-0.6-0.4-0.8-0.8c-0.2-0.3-0.3-0.7-0.3-1.1s0.1-0.8,0.3-1.1c0.2-0.3,0.5-0.6,0.8-0.8s0.7-0.3,1.2-0.3c0.4,0,0.7,0.1,1,0.2
		c0.3,0.1,0.6,0.3,0.8,0.5l-0.6,0.6c-0.3-0.3-0.7-0.5-1.1-0.5c-0.3,0-0.5,0.1-0.7,0.2c-0.2,0.1-0.4,0.3-0.5,0.5
		c-0.1,0.2-0.2,0.4-0.2,0.7c0,0.3,0.1,0.5,0.2,0.7c0.1,0.2,0.3,0.4,0.5,0.5c0.2,0.1,0.4,0.2,0.7,0.2c0.3,0,0.5-0.1,0.8-0.2V233.5z"
		/>
	<path class="st2" d="M150.1,231.5v4.2h-0.8l-2.1-2.5v2.5h-1v-4.2h0.8l2.1,2.6v-2.6H150.1z"/>
	<path class="st2" d="M123.1,242.8c-0.3-0.1-0.6-0.2-0.7-0.4l0.3-0.7c0.2,0.1,0.4,0.2,0.6,0.3s0.5,0.1,0.7,0.1c0.3,0,0.5,0,0.6-0.1
		c0.1-0.1,0.2-0.2,0.2-0.3c0-0.1,0-0.2-0.1-0.2c-0.1-0.1-0.2-0.1-0.3-0.2c-0.1,0-0.3-0.1-0.5-0.1c-0.3-0.1-0.6-0.2-0.8-0.2
		c-0.2-0.1-0.4-0.2-0.5-0.4s-0.2-0.4-0.2-0.7c0-0.2,0.1-0.5,0.2-0.7c0.1-0.2,0.3-0.4,0.6-0.5c0.3-0.1,0.6-0.2,1-0.2
		c0.3,0,0.5,0,0.8,0.1s0.5,0.2,0.7,0.3l-0.3,0.7c-0.4-0.2-0.8-0.3-1.2-0.3c-0.3,0-0.5,0-0.6,0.1c-0.1,0.1-0.2,0.2-0.2,0.3
		c0,0.1,0.1,0.3,0.2,0.3c0.1,0.1,0.4,0.1,0.7,0.2c0.3,0.1,0.6,0.2,0.8,0.2c0.2,0.1,0.4,0.2,0.5,0.4c0.1,0.2,0.2,0.4,0.2,0.7
		c0,0.2-0.1,0.5-0.2,0.7c-0.1,0.2-0.3,0.4-0.6,0.5c-0.3,0.1-0.6,0.2-1,0.2C123.7,242.9,123.4,242.9,123.1,242.8z"/>
	<path class="st2" d="M127.3,239.5h-1.3v-0.8h3.7v0.8h-1.3v3.4h-1V239.5z"/>
	<path class="st2" d="M132.8,242.9l-0.8-1.2h0h-0.8v1.2h-1v-4.2h1.8c0.4,0,0.7,0.1,1,0.2c0.3,0.1,0.5,0.3,0.6,0.5s0.2,0.5,0.2,0.8
		s-0.1,0.6-0.2,0.8c-0.2,0.2-0.4,0.4-0.6,0.5l0.9,1.4H132.8z M132.6,239.6c-0.2-0.1-0.4-0.2-0.7-0.2h-0.8v1.5h0.8
		c0.3,0,0.5-0.1,0.7-0.2c0.2-0.1,0.2-0.3,0.2-0.5C132.8,240,132.7,239.8,132.6,239.6z"/>
	<path class="st2" d="M137.3,242h-1.9l-0.4,0.9h-1l1.9-4.2h1l1.9,4.2h-1L137.3,242z M137,241.2l-0.7-1.6l-0.7,1.6H137z"/>
	<path class="st2" d="M139.8,239.5h-1.3v-0.8h3.7v0.8h-1.3v3.4h-1V239.5z"/>
	<path class="st2" d="M145.9,242.1v0.8h-3.3v-4.2h3.2v0.8h-2.2v0.9h2v0.8h-2v1H145.9z"/>
	<path class="st2" d="M149.5,240.7h0.9v1.7c-0.2,0.2-0.5,0.3-0.8,0.4c-0.3,0.1-0.6,0.1-0.9,0.1c-0.4,0-0.8-0.1-1.2-0.3
		s-0.6-0.4-0.8-0.8c-0.2-0.3-0.3-0.7-0.3-1.1s0.1-0.8,0.3-1.1c0.2-0.3,0.5-0.6,0.8-0.8s0.7-0.3,1.2-0.3c0.4,0,0.7,0.1,1,0.2
		c0.3,0.1,0.6,0.3,0.8,0.5l-0.6,0.6c-0.3-0.3-0.7-0.5-1.1-0.5c-0.3,0-0.5,0.1-0.7,0.2c-0.2,0.1-0.4,0.3-0.5,0.5
		c-0.1,0.2-0.2,0.4-0.2,0.7c0,0.3,0.1,0.5,0.2,0.7c0.1,0.2,0.3,0.4,0.5,0.5c0.2,0.1,0.4,0.2,0.7,0.2c0.3,0,0.5-0.1,0.8-0.2V240.7z"
		/>
	<path class="st2" d="M153.3,241.4v1.5h-1v-1.5l-1.6-2.7h1l1.1,1.9l1.1-1.9h1L153.3,241.4z"/>
</g>
<g>
	<path class="st2" d="M171,235.5c-0.3-0.2-0.6-0.4-0.8-0.8c-0.2-0.3-0.3-0.7-0.3-1.1s0.1-0.8,0.3-1.1c0.2-0.3,0.5-0.6,0.8-0.8
		c0.3-0.2,0.7-0.3,1.2-0.3c0.4,0,0.7,0.1,1,0.2s0.5,0.3,0.7,0.6l-0.6,0.6c-0.3-0.3-0.6-0.5-1.1-0.5c-0.3,0-0.5,0.1-0.7,0.2
		c-0.2,0.1-0.4,0.3-0.5,0.5c-0.1,0.2-0.2,0.4-0.2,0.7c0,0.3,0.1,0.5,0.2,0.7c0.1,0.2,0.3,0.4,0.5,0.5c0.2,0.1,0.4,0.2,0.7,0.2
		c0.4,0,0.8-0.2,1.1-0.5l0.6,0.6c-0.2,0.2-0.4,0.4-0.7,0.6s-0.6,0.2-1,0.2C171.7,235.7,171.3,235.6,171,235.5z"/>
	<path class="st2" d="M175.3,235.5c-0.3-0.2-0.6-0.4-0.8-0.8c-0.2-0.3-0.3-0.7-0.3-1.1c0-0.4,0.1-0.8,0.3-1.1
		c0.2-0.3,0.5-0.6,0.8-0.8c0.4-0.2,0.7-0.3,1.2-0.3c0.4,0,0.8,0.1,1.2,0.3c0.3,0.2,0.6,0.4,0.8,0.8c0.2,0.3,0.3,0.7,0.3,1.1
		c0,0.4-0.1,0.8-0.3,1.1c-0.2,0.3-0.5,0.6-0.8,0.8s-0.7,0.3-1.2,0.3C176,235.7,175.7,235.6,175.3,235.5z M177.2,234.7
		c0.2-0.1,0.4-0.3,0.5-0.5c0.1-0.2,0.2-0.4,0.2-0.7c0-0.3-0.1-0.5-0.2-0.7s-0.3-0.4-0.5-0.5c-0.2-0.1-0.4-0.2-0.7-0.2
		s-0.5,0.1-0.7,0.2c-0.2,0.1-0.4,0.3-0.5,0.5c-0.1,0.2-0.2,0.4-0.2,0.7c0,0.3,0.1,0.5,0.2,0.7c0.1,0.2,0.3,0.4,0.5,0.5
		c0.2,0.1,0.4,0.2,0.7,0.2S177,234.9,177.2,234.7z"/>
	<path class="st2" d="M183.4,231.5v4.2h-0.8l-2.1-2.5v2.5h-1v-4.2h0.8l2.1,2.6v-2.6H183.4z"/>
	<path class="st2" d="M188.2,231.5v4.2h-0.8l-2.1-2.5v2.5h-1v-4.2h0.8l2.1,2.6v-2.6H188.2z"/>
	<path class="st2" d="M192.5,234.9v0.8h-3.3v-4.2h3.2v0.8h-2.2v0.9h2v0.8h-2v1H192.5z"/>
	<path class="st2" d="M194.1,235.5c-0.3-0.2-0.6-0.4-0.8-0.8c-0.2-0.3-0.3-0.7-0.3-1.1s0.1-0.8,0.3-1.1c0.2-0.3,0.5-0.6,0.8-0.8
		c0.3-0.2,0.7-0.3,1.2-0.3c0.4,0,0.7,0.1,1,0.2s0.5,0.3,0.7,0.6l-0.6,0.6c-0.3-0.3-0.6-0.5-1.1-0.5c-0.3,0-0.5,0.1-0.7,0.2
		c-0.2,0.1-0.4,0.3-0.5,0.5c-0.1,0.2-0.2,0.4-0.2,0.7c0,0.3,0.1,0.5,0.2,0.7c0.1,0.2,0.3,0.4,0.5,0.5c0.2,0.1,0.4,0.2,0.7,0.2
		c0.4,0,0.8-0.2,1.1-0.5l0.6,0.6c-0.2,0.2-0.4,0.4-0.7,0.6s-0.6,0.2-1,0.2C194.8,235.7,194.4,235.6,194.1,235.5z"/>
	<path class="st2" d="M198.4,232.3h-1.3v-0.8h3.7v0.8h-1.3v3.4h-1V232.3z"/>
	<path class="st2" d="M201.3,231.5h1v4.2h-1V231.5z"/>
	<path class="st2" d="M204.1,235.5c-0.3-0.2-0.6-0.4-0.8-0.8c-0.2-0.3-0.3-0.7-0.3-1.1c0-0.4,0.1-0.8,0.3-1.1
		c0.2-0.3,0.5-0.6,0.8-0.8c0.4-0.2,0.7-0.3,1.2-0.3c0.4,0,0.8,0.1,1.2,0.3c0.3,0.2,0.6,0.4,0.8,0.8c0.2,0.3,0.3,0.7,0.3,1.1
		c0,0.4-0.1,0.8-0.3,1.1c-0.2,0.3-0.5,0.6-0.8,0.8s-0.7,0.3-1.2,0.3C204.8,235.7,204.5,235.6,204.1,235.5z M206,234.7
		c0.2-0.1,0.4-0.3,0.5-0.5c0.1-0.2,0.2-0.4,0.2-0.7c0-0.3-0.1-0.5-0.2-0.7s-0.3-0.4-0.5-0.5c-0.2-0.1-0.4-0.2-0.7-0.2
		s-0.5,0.1-0.7,0.2c-0.2,0.1-0.4,0.3-0.5,0.5c-0.1,0.2-0.2,0.4-0.2,0.7c0,0.3,0.1,0.5,0.2,0.7c0.1,0.2,0.3,0.4,0.5,0.5
		c0.2,0.1,0.4,0.2,0.7,0.2S205.8,234.9,206,234.7z"/>
	<path class="st2" d="M212.2,231.5v4.2h-0.8l-2.1-2.5v2.5h-1v-4.2h0.8l2.1,2.6v-2.6H212.2z"/>
	<path class="st2" d="M183.8,238.8c0.3,0.1,0.5,0.3,0.6,0.5s0.2,0.5,0.2,0.8c0,0.3-0.1,0.6-0.2,0.8s-0.4,0.4-0.6,0.5
		c-0.3,0.1-0.6,0.2-1,0.2H182v1.2h-1v-4.2h1.8C183.2,238.7,183.5,238.7,183.8,238.8z M183.5,240.7c0.2-0.1,0.2-0.3,0.2-0.5
		c0-0.2-0.1-0.4-0.2-0.5c-0.2-0.1-0.4-0.2-0.7-0.2H182v1.5h0.8C183.1,240.9,183.3,240.8,183.5,240.7z"/>
	<path class="st2" d="M185.4,238.7h1v3.4h2.1v0.8h-3.1V238.7z"/>
	<path class="st2" d="M191.8,242h-1.9l-0.4,0.9h-1l1.9-4.2h1l1.9,4.2h-1L191.8,242z M191.5,241.2l-0.7-1.6l-0.7,1.6H191.5z"/>
	<path class="st2" d="M197.5,238.7v4.2h-0.8l-2.1-2.5v2.5h-1v-4.2h0.8l2.1,2.6v-2.6H197.5z"/>
	<path class="st2" d="M198.9,242.8c-0.3-0.1-0.6-0.2-0.7-0.4l0.3-0.7c0.2,0.1,0.4,0.2,0.6,0.3s0.5,0.1,0.7,0.1c0.3,0,0.5,0,0.6-0.1
		s0.2-0.2,0.2-0.3c0-0.1,0-0.2-0.1-0.2c-0.1-0.1-0.2-0.1-0.3-0.2s-0.3-0.1-0.5-0.1c-0.3-0.1-0.6-0.2-0.8-0.2
		c-0.2-0.1-0.4-0.2-0.5-0.4c-0.1-0.2-0.2-0.4-0.2-0.7c0-0.2,0.1-0.5,0.2-0.7c0.1-0.2,0.3-0.4,0.6-0.5c0.3-0.1,0.6-0.2,1-0.2
		c0.3,0,0.5,0,0.8,0.1s0.5,0.2,0.7,0.3l-0.3,0.7c-0.4-0.2-0.8-0.3-1.2-0.3c-0.3,0-0.5,0-0.6,0.1s-0.2,0.2-0.2,0.3
		c0,0.1,0.1,0.3,0.2,0.3c0.1,0.1,0.4,0.1,0.7,0.2c0.3,0.1,0.6,0.2,0.8,0.2c0.2,0.1,0.4,0.2,0.5,0.4c0.1,0.2,0.2,0.4,0.2,0.7
		c0,0.2-0.1,0.5-0.2,0.7c-0.1,0.2-0.3,0.4-0.6,0.5c-0.3,0.1-0.6,0.2-1,0.2C199.5,242.9,199.2,242.9,198.9,242.8z"/>
</g>
<g>
	<path class="st2" d="M219.1,231.5h1v4.2h-1V231.5z"/>
	<path class="st2" d="M224.9,235.7l0-2.5l-1.2,2.1h-0.4l-1.2-2v2.5h-0.9v-4.2h0.8l1.6,2.6l1.5-2.6h0.8l0,4.2H224.9z"/>
	<path class="st2" d="M229.6,231.6c0.3,0.1,0.5,0.3,0.6,0.5s0.2,0.5,0.2,0.8c0,0.3-0.1,0.6-0.2,0.8s-0.4,0.4-0.6,0.5
		c-0.3,0.1-0.6,0.2-1,0.2h-0.8v1.2h-1v-4.2h1.8C229,231.5,229.3,231.5,229.6,231.6z M229.2,233.5c0.2-0.1,0.2-0.3,0.2-0.5
		c0-0.2-0.1-0.4-0.2-0.5c-0.2-0.1-0.4-0.2-0.7-0.2h-0.8v1.5h0.8C228.9,233.7,229.1,233.7,229.2,233.5z"/>
	<path class="st2" d="M233.8,235.7l-0.8-1.2h0h-0.8v1.2h-1v-4.2h1.8c0.4,0,0.7,0.1,1,0.2c0.3,0.1,0.5,0.3,0.6,0.5s0.2,0.5,0.2,0.8
		s-0.1,0.6-0.2,0.8c-0.2,0.2-0.4,0.4-0.6,0.5l0.9,1.4H233.8z M233.6,232.4c-0.2-0.1-0.4-0.2-0.7-0.2h-0.8v1.5h0.8
		c0.3,0,0.5-0.1,0.7-0.2c0.2-0.1,0.2-0.3,0.2-0.5C233.8,232.8,233.7,232.6,233.6,232.4z"/>
	<path class="st2" d="M236.4,235.5c-0.3-0.2-0.6-0.4-0.8-0.8c-0.2-0.3-0.3-0.7-0.3-1.1c0-0.4,0.1-0.8,0.3-1.1
		c0.2-0.3,0.5-0.6,0.8-0.8c0.4-0.2,0.7-0.3,1.2-0.3c0.4,0,0.8,0.1,1.2,0.3c0.3,0.2,0.6,0.4,0.8,0.8c0.2,0.3,0.3,0.7,0.3,1.1
		c0,0.4-0.1,0.8-0.3,1.1c-0.2,0.3-0.5,0.6-0.8,0.8s-0.7,0.3-1.2,0.3C237.1,235.7,236.7,235.6,236.4,235.5z M238.2,234.7
		c0.2-0.1,0.4-0.3,0.5-0.5c0.1-0.2,0.2-0.4,0.2-0.7c0-0.3-0.1-0.5-0.2-0.7s-0.3-0.4-0.5-0.5c-0.2-0.1-0.4-0.2-0.7-0.2
		s-0.5,0.1-0.7,0.2c-0.2,0.1-0.4,0.3-0.5,0.5c-0.1,0.2-0.2,0.4-0.2,0.7c0,0.3,0.1,0.5,0.2,0.7c0.1,0.2,0.3,0.4,0.5,0.5
		c0.2,0.1,0.4,0.2,0.7,0.2S238,234.9,238.2,234.7z"/>
	<path class="st2" d="M244.5,231.5l-1.8,4.2h-1l-1.8-4.2h1l1.3,3l1.3-3H244.5z"/>
	<path class="st2" d="M248.1,234.9v0.8h-3.3v-4.2h3.2v0.8h-2.2v0.9h2v0.8h-2v1H248.1z"/>
	<path class="st2" d="M230.9,242.9l-0.8-1.2h0h-0.8v1.2h-1v-4.2h1.8c0.4,0,0.7,0.1,1,0.2c0.3,0.1,0.5,0.3,0.6,0.5s0.2,0.5,0.2,0.8
		s-0.1,0.6-0.2,0.8c-0.2,0.2-0.4,0.4-0.6,0.5l0.9,1.4H230.9z M230.7,239.6c-0.2-0.1-0.4-0.2-0.7-0.2h-0.8v1.5h0.8
		c0.3,0,0.5-0.1,0.7-0.2c0.2-0.1,0.2-0.3,0.2-0.5C230.9,240,230.8,239.8,230.7,239.6z"/>
	<path class="st2" d="M233.5,242.7c-0.3-0.2-0.6-0.4-0.8-0.8c-0.2-0.3-0.3-0.7-0.3-1.1c0-0.4,0.1-0.8,0.3-1.1
		c0.2-0.3,0.5-0.6,0.8-0.8c0.4-0.2,0.7-0.3,1.2-0.3c0.4,0,0.8,0.1,1.2,0.3c0.3,0.2,0.6,0.4,0.8,0.8c0.2,0.3,0.3,0.7,0.3,1.1
		c0,0.4-0.1,0.8-0.3,1.1c-0.2,0.3-0.5,0.6-0.8,0.8s-0.7,0.3-1.2,0.3C234.3,242.9,233.9,242.8,233.5,242.7z M235.4,241.9
		c0.2-0.1,0.4-0.3,0.5-0.5c0.1-0.2,0.2-0.4,0.2-0.7c0-0.3-0.1-0.5-0.2-0.7s-0.3-0.4-0.5-0.5c-0.2-0.1-0.4-0.2-0.7-0.2
		s-0.5,0.1-0.7,0.2c-0.2,0.1-0.4,0.3-0.5,0.5c-0.1,0.2-0.2,0.4-0.2,0.7c0,0.3,0.1,0.5,0.2,0.7c0.1,0.2,0.3,0.4,0.5,0.5
		c0.2,0.1,0.4,0.2,0.7,0.2S235.2,242.1,235.4,241.9z"/>
	<path class="st2" d="M237.7,238.7h1v4.2h-1V238.7z"/>
</g>
<g>
	<path class="st1" d="M219.3,312.8h1.3v5.6h-1.3V312.8z"/>
	<path class="st1" d="M225.7,315.5h1.2v2.3c-0.6,0.5-1.5,0.7-2.3,0.7c-1.8,0-3.1-1.2-3.1-2.9c0-1.7,1.3-2.9,3.1-2.9
		c1,0,1.8,0.3,2.3,1l-0.8,0.8c-0.4-0.4-0.9-0.6-1.4-0.6c-1.1,0-1.8,0.7-1.8,1.8c0,1,0.7,1.8,1.8,1.8c0.4,0,0.7-0.1,1-0.2V315.5z"/>
	<path class="st1" d="M233.2,312.8v5.6h-1.1l-2.8-3.4v3.4h-1.3v-5.6h1.1l2.8,3.4v-3.4H233.2z"/>
	<path class="st1" d="M234.5,312.8h1.3v5.6h-1.3V312.8z"/>
	<path class="st1" d="M238.3,313.8h-1.8v-1.1h4.9v1.1h-1.8v4.5h-1.3V313.8z"/>
	<path class="st1" d="M246.4,317.3v1h-4.3v-5.6h4.2v1h-2.9v1.2h2.6v1h-2.6v1.3H246.4z"/>
</g>
<g>
	<path class="st1" d="M171.6,305.4v1h-4.3v-5.6h4.2v1h-2.9v1.2h2.6v1h-2.6v1.3H171.6z"/>
	<path class="st1" d="M176.1,306.4l-1.3-1.9l-1.3,1.9H172l2.1-2.8l-2-2.8h1.5l1.3,1.8l1.3-1.8h1.4l-2,2.7l2.1,2.9H176.1z"/>
	<path class="st1" d="M183,302.9c0,1.2-0.9,2-2.4,2h-1.1v1.5h-1.3v-5.6h2.4C182.1,300.9,183,301.6,183,302.9z M181.7,302.9
		c0-0.6-0.4-1-1.2-1h-1.1v1.9h1.1C181.3,303.8,181.7,303.5,181.7,302.9z"/>
	<path class="st1" d="M183.9,300.9h1.3v4.5h2.8v1.1h-4.1V300.9z"/>
	<path class="st1" d="M188.3,303.6c0-1.7,1.3-2.9,3.1-2.9c1.8,0,3.1,1.2,3.1,2.9c0,1.7-1.3,2.9-3.1,2.9
		C189.6,306.5,188.3,305.3,188.3,303.6z M193.1,303.6c0-1.1-0.8-1.8-1.8-1.8c-1,0-1.8,0.7-1.8,1.8c0,1.1,0.8,1.8,1.8,1.8
		C192.4,305.4,193.1,304.7,193.1,303.6z"/>
	<path class="st1" d="M199,306.4l-1.1-1.6h-0.1h-1.1v1.6h-1.3v-5.6h2.4c1.5,0,2.4,0.8,2.4,2c0,0.8-0.4,1.5-1.2,1.8l1.3,1.8H199z
		 M197.8,301.9h-1.1v2h1.1c0.8,0,1.2-0.4,1.2-1C199,302.3,198.6,301.9,197.8,301.9z"/>
	<path class="st1" d="M205.6,305.4v1h-4.3v-5.6h4.2v1h-2.9v1.2h2.6v1h-2.6v1.3H205.6z"/>
</g>
<g>
	<path class="st1" d="M118,293.1h2.5c1.8,0,3.1,1.1,3.1,2.8s-1.3,2.8-3.1,2.8H118V293.1z M120.5,297.6c1.1,0,1.8-0.7,1.8-1.7
		c0-1.1-0.7-1.7-1.8-1.7h-1.2v3.5H120.5z"/>
	<path class="st1" d="M129,297.6v1h-4.3v-5.6h4.2v1h-2.9v1.2h2.6v1h-2.6v1.3H129z"/>
	<path class="st1" d="M129.5,298.1l0.4-1c0.5,0.3,1.2,0.6,1.8,0.6c0.8,0,1.1-0.3,1.1-0.6c0-1-3.3-0.3-3.3-2.4c0-1,0.8-1.7,2.4-1.7
		c0.7,0,1.4,0.2,1.9,0.5l-0.4,1c-0.5-0.3-1.1-0.4-1.6-0.4c-0.8,0-1.1,0.3-1.1,0.6c0,1,3.3,0.3,3.3,2.4c0,0.9-0.8,1.7-2.4,1.7
		C130.9,298.7,130,298.5,129.5,298.1z"/>
	<path class="st1" d="M135.1,293.1h1.3v5.6h-1.3V293.1z"/>
	<path class="st1" d="M141.5,295.8h1.2v2.3c-0.6,0.5-1.5,0.7-2.3,0.7c-1.8,0-3.1-1.2-3.1-2.9c0-1.7,1.3-2.9,3.1-2.9
		c1,0,1.8,0.3,2.3,1l-0.8,0.8c-0.4-0.4-0.9-0.6-1.4-0.6c-1.1,0-1.8,0.7-1.8,1.8c0,1,0.7,1.8,1.8,1.8c0.4,0,0.7-0.1,1-0.2V295.8z"/>
	<path class="st1" d="M149,293.1v5.6H148l-2.8-3.4v3.4h-1.3v-5.6h1.1l2.8,3.4v-3.4H149z"/>
</g>
<g>
	<path class="st1" d="M68.6,286.7H66l-0.5,1.2h-1.3l2.5-5.6h1.3l2.5,5.6h-1.4L68.6,286.7z M68.2,285.7l-0.9-2.1l-0.9,2.1H68.2z"/>
	<path class="st1" d="M70.6,285.1c0-1.7,1.3-2.9,3-2.9c1,0,1.8,0.4,2.3,1l-0.8,0.8c-0.4-0.4-0.8-0.7-1.4-0.7c-1,0-1.8,0.7-1.8,1.8
		c0,1.1,0.7,1.8,1.8,1.8c0.6,0,1-0.2,1.4-0.7l0.8,0.8c-0.5,0.6-1.3,1-2.3,1C71.9,287.9,70.6,286.7,70.6,285.1z"/>
	<path class="st1" d="M77.9,283.3h-1.8v-1.1H81v1.1h-1.8v4.5h-1.3V283.3z"/>
	<path class="st1" d="M81.7,282.3H83v5.6h-1.3V282.3z"/>
	<path class="st1" d="M89.7,282.3l-2.4,5.6H86l-2.4-5.6H85l1.7,4l1.7-4H89.7z"/>
	<path class="st1" d="M93.6,286.7H91l-0.5,1.2h-1.3l2.5-5.6H93l2.5,5.6h-1.4L93.6,286.7z M93.2,285.7l-0.9-2.1l-0.9,2.1H93.2z"/>
	<path class="st1" d="M97,283.3h-1.8v-1.1h4.9v1.1h-1.8v4.5H97V283.3z"/>
	<path class="st1" d="M105.1,286.8v1h-4.3v-5.6h4.2v1H102v1.2h2.6v1H102v1.3H105.1z"/>
</g>
<g>
	<path class="st1" d="M16.4,275.4h-2.6l-0.5,1.2H12l2.5-5.6h1.3l2.5,5.6h-1.4L16.4,275.4z M16,274.4l-0.9-2.1l-0.9,2.1H16z"/>
	<path class="st1" d="M18.4,273.8c0-1.7,1.3-2.9,3-2.9c1,0,1.8,0.4,2.3,1l-0.8,0.8c-0.4-0.4-0.8-0.7-1.4-0.7c-1,0-1.8,0.7-1.8,1.8
		c0,1.1,0.7,1.8,1.8,1.8c0.6,0,1-0.2,1.4-0.7l0.8,0.8c-0.5,0.6-1.3,1-2.3,1C19.7,276.7,18.4,275.5,18.4,273.8z"/>
	<path class="st1" d="M24.1,273.8c0-1.7,1.3-2.9,3-2.9c1,0,1.8,0.4,2.3,1l-0.8,0.8c-0.4-0.4-0.8-0.7-1.4-0.7c-1,0-1.8,0.7-1.8,1.8
		c0,1.1,0.7,1.8,1.8,1.8c0.6,0,1-0.2,1.4-0.7l0.8,0.8c-0.5,0.6-1.3,1-2.3,1C25.4,276.7,24.1,275.5,24.1,273.8z"/>
	<path class="st1" d="M34.7,275.5v1h-4.3V271h4.2v1h-2.9v1.2h2.6v1h-2.6v1.3H34.7z"/>
	<path class="st1" d="M35.7,271H37v4.5h2.8v1.1h-4.1V271z"/>
	<path class="st1" d="M44.9,275.5v1h-4.3V271h4.2v1h-2.9v1.2h2.6v1h-2.6v1.3H44.9z"/>
	<path class="st1" d="M49.5,276.6l-1.1-1.6h-0.1h-1.1v1.6h-1.3V271h2.4c1.5,0,2.4,0.8,2.4,2c0,0.8-0.4,1.5-1.2,1.8l1.3,1.8H49.5z
		 M48.3,272h-1.1v2h1.1c0.8,0,1.2-0.4,1.2-1C49.5,272.4,49.1,272,48.3,272z"/>
	<path class="st1" d="M55.5,275.4h-2.6l-0.5,1.2h-1.3l2.5-5.6h1.3l2.5,5.6H56L55.5,275.4z M55.1,274.4l-0.9-2.1l-0.9,2.1H55.1z"/>
	<path class="st1" d="M58.8,272H57V271h4.9v1.1h-1.8v4.5h-1.3V272z"/>
	<path class="st1" d="M66.9,275.5v1h-4.3V271h4.2v1h-2.9v1.2h2.6v1h-2.6v1.3H66.9z"/>
</g>
<g>
	<path class="st2" d="M27.6,361.7c0.1,0.2,0.2,0.4,0.2,0.7c0,0.4-0.1,0.7-0.4,0.8c-0.3,0.2-0.7,0.3-1.3,0.3H24v-4.2H26
		c0.5,0,0.9,0.1,1.2,0.3c0.3,0.2,0.4,0.5,0.4,0.8c0,0.2,0,0.4-0.1,0.5c-0.1,0.2-0.2,0.3-0.4,0.4C27.3,361.4,27.5,361.5,27.6,361.7z
		 M24.9,360.1v1h1c0.2,0,0.4,0,0.5-0.1s0.2-0.2,0.2-0.4s-0.1-0.3-0.2-0.4c-0.1-0.1-0.3-0.1-0.5-0.1H24.9z M26.6,362.7
		c0.1-0.1,0.2-0.2,0.2-0.4c0-0.3-0.3-0.5-0.8-0.5h-1.1v1h1.1C26.3,362.8,26.5,362.7,26.6,362.7z"/>
	<path class="st2" d="M29,363.1c-0.3-0.3-0.5-0.8-0.5-1.4v-2.4h1v2.3c0,0.8,0.3,1.1,0.9,1.1c0.3,0,0.5-0.1,0.7-0.3
		c0.2-0.2,0.2-0.5,0.2-0.9v-2.3h1v2.4c0,0.6-0.2,1.1-0.5,1.4s-0.8,0.5-1.4,0.5C29.8,363.6,29.4,363.4,29,363.1z"/>
	<path class="st2" d="M33.7,363.5c-0.3-0.1-0.6-0.2-0.7-0.4l0.3-0.7c0.2,0.1,0.4,0.2,0.6,0.3s0.5,0.1,0.7,0.1c0.3,0,0.5,0,0.6-0.1
		s0.2-0.2,0.2-0.3c0-0.1,0-0.2-0.1-0.2s-0.2-0.1-0.3-0.2s-0.3-0.1-0.5-0.1c-0.3-0.1-0.6-0.2-0.8-0.2c-0.2-0.1-0.4-0.2-0.5-0.4
		c-0.1-0.2-0.2-0.4-0.2-0.7c0-0.2,0.1-0.5,0.2-0.7c0.1-0.2,0.3-0.4,0.6-0.5c0.3-0.1,0.6-0.2,1-0.2c0.3,0,0.5,0,0.8,0.1
		c0.3,0.1,0.5,0.2,0.7,0.3l-0.3,0.7c-0.4-0.2-0.8-0.3-1.2-0.3c-0.3,0-0.5,0-0.6,0.1s-0.2,0.2-0.2,0.3c0,0.1,0.1,0.3,0.2,0.3
		c0.1,0.1,0.4,0.1,0.7,0.2c0.3,0.1,0.6,0.2,0.8,0.2c0.2,0.1,0.4,0.2,0.5,0.4c0.1,0.2,0.2,0.4,0.2,0.7c0,0.2-0.1,0.5-0.2,0.7
		s-0.3,0.4-0.6,0.5c-0.3,0.1-0.6,0.2-1,0.2C34.3,363.6,34,363.5,33.7,363.5z"/>
	<path class="st2" d="M37.1,359.3h1v4.2h-1V359.3z"/>
	<path class="st2" d="M42.9,359.3v4.2h-0.8L40,361v2.5h-1v-4.2h0.8l2.1,2.5v-2.5H42.9z"/>
	<path class="st2" d="M47.2,362.7v0.8h-3.3v-4.2h3.2v0.8h-2.2v0.9h2v0.8h-2v1H47.2z"/>
	<path class="st2" d="M48.4,363.5c-0.3-0.1-0.6-0.2-0.7-0.4l0.3-0.7c0.2,0.1,0.4,0.2,0.6,0.3s0.5,0.1,0.7,0.1c0.3,0,0.5,0,0.6-0.1
		s0.2-0.2,0.2-0.3c0-0.1,0-0.2-0.1-0.2s-0.2-0.1-0.3-0.2s-0.3-0.1-0.5-0.1c-0.3-0.1-0.6-0.2-0.8-0.2c-0.2-0.1-0.4-0.2-0.5-0.4
		c-0.1-0.2-0.2-0.4-0.2-0.7c0-0.2,0.1-0.5,0.2-0.7c0.1-0.2,0.3-0.4,0.6-0.5c0.3-0.1,0.6-0.2,1-0.2c0.3,0,0.5,0,0.8,0.1
		c0.3,0.1,0.5,0.2,0.7,0.3l-0.3,0.7c-0.4-0.2-0.8-0.3-1.2-0.3c-0.3,0-0.5,0-0.6,0.1s-0.2,0.2-0.2,0.3c0,0.1,0.1,0.3,0.2,0.3
		c0.1,0.1,0.4,0.1,0.7,0.2c0.3,0.1,0.6,0.2,0.8,0.2c0.2,0.1,0.4,0.2,0.5,0.4c0.1,0.2,0.2,0.4,0.2,0.7c0,0.2-0.1,0.5-0.2,0.7
		s-0.3,0.4-0.6,0.5c-0.3,0.1-0.6,0.2-1,0.2C49,363.6,48.7,363.5,48.4,363.5z"/>
	<path class="st2" d="M52.2,363.5c-0.3-0.1-0.6-0.2-0.7-0.4l0.3-0.7c0.2,0.1,0.4,0.2,0.6,0.3s0.5,0.1,0.7,0.1c0.3,0,0.5,0,0.6-0.1
		s0.2-0.2,0.2-0.3c0-0.1,0-0.2-0.1-0.2s-0.2-0.1-0.3-0.2s-0.3-0.1-0.5-0.1c-0.3-0.1-0.6-0.2-0.8-0.2c-0.2-0.1-0.4-0.2-0.5-0.4
		c-0.1-0.2-0.2-0.4-0.2-0.7c0-0.2,0.1-0.5,0.2-0.7c0.1-0.2,0.3-0.4,0.6-0.5c0.3-0.1,0.6-0.2,1-0.2c0.3,0,0.5,0,0.8,0.1
		c0.3,0.1,0.5,0.2,0.7,0.3l-0.3,0.7c-0.4-0.2-0.8-0.3-1.2-0.3c-0.3,0-0.5,0-0.6,0.1s-0.2,0.2-0.2,0.3c0,0.1,0.1,0.3,0.2,0.3
		c0.1,0.1,0.4,0.1,0.7,0.2c0.3,0.1,0.6,0.2,0.8,0.2c0.2,0.1,0.4,0.2,0.5,0.4c0.1,0.2,0.2,0.4,0.2,0.7c0,0.2-0.1,0.5-0.2,0.7
		s-0.3,0.4-0.6,0.5c-0.3,0.1-0.6,0.2-1,0.2C52.8,363.6,52.5,363.5,52.2,363.5z"/>
	<path class="st2" d="M24.8,370.5c-0.3-0.2-0.6-0.4-0.8-0.8c-0.2-0.3-0.3-0.7-0.3-1.1s0.1-0.8,0.3-1.1c0.2-0.3,0.5-0.6,0.8-0.8
		c0.3-0.2,0.7-0.3,1.2-0.3c0.4,0,0.7,0.1,1,0.2s0.5,0.3,0.7,0.6l-0.6,0.6c-0.3-0.3-0.6-0.5-1.1-0.5c-0.3,0-0.5,0.1-0.7,0.2
		c-0.2,0.1-0.4,0.3-0.5,0.5c-0.1,0.2-0.2,0.4-0.2,0.7s0.1,0.5,0.2,0.7c0.1,0.2,0.3,0.4,0.5,0.5s0.4,0.2,0.7,0.2
		c0.4,0,0.8-0.2,1.1-0.5l0.6,0.6c-0.2,0.2-0.4,0.4-0.7,0.6s-0.6,0.2-1,0.2C25.6,370.8,25.2,370.7,24.8,370.5z"/>
	<path class="st2" d="M29.1,370.5c-0.3-0.2-0.6-0.4-0.8-0.8c-0.2-0.3-0.3-0.7-0.3-1.1s0.1-0.8,0.3-1.1c0.2-0.3,0.5-0.6,0.8-0.8
		c0.4-0.2,0.7-0.3,1.2-0.3c0.4,0,0.8,0.1,1.2,0.3c0.3,0.2,0.6,0.4,0.8,0.8c0.2,0.3,0.3,0.7,0.3,1.1s-0.1,0.8-0.3,1.1
		c-0.2,0.3-0.5,0.6-0.8,0.8c-0.3,0.2-0.7,0.3-1.2,0.3C29.9,370.8,29.5,370.7,29.1,370.5z M31,369.8c0.2-0.1,0.4-0.3,0.5-0.5
		c0.1-0.2,0.2-0.4,0.2-0.7s-0.1-0.5-0.2-0.7s-0.3-0.4-0.5-0.5c-0.2-0.1-0.4-0.2-0.7-0.2s-0.5,0.1-0.7,0.2c-0.2,0.1-0.4,0.3-0.5,0.5
		c-0.1,0.2-0.2,0.4-0.2,0.7s0.1,0.5,0.2,0.7c0.1,0.2,0.3,0.4,0.5,0.5c0.2,0.1,0.4,0.2,0.7,0.2S30.8,369.9,31,369.8z"/>
	<path class="st2" d="M37.2,366.5v4.2h-0.8l-2.1-2.5v2.5h-1v-4.2h0.8l2.1,2.6v-2.6H37.2z"/>
	<path class="st2" d="M39.1,367.3h-1.3v-0.8h3.7v0.8H40v3.4h-1V367.3z"/>
	<path class="st2" d="M45.1,369.9v0.8h-3.3v-4.2h3.2v0.8h-2.2v0.9h2v0.8h-2v1H45.1z"/>
	<path class="st2" d="M48.5,370.7l-1-1.5l-1,1.5h-1.1l1.6-2.1l-1.5-2.1h1.1l1,1.4l0.9-1.4h1l-1.5,2l1.6,2.2H48.5z"/>
	<path class="st2" d="M50.9,367.3h-1.3v-0.8h3.7v0.8h-1.3v3.4h-1V367.3z"/>
	<path class="st2" d="M26.7,377h-1.9l-0.4,0.9h-1l1.9-4.2h1l1.9,4.2h-1L26.7,377z M26.4,376.3l-0.7-1.6l-0.7,1.6H26.4z"/>
	<path class="st2" d="M32.4,373.7v4.2h-0.8l-2.1-2.5v2.5h-1v-4.2h0.8l2.1,2.6v-2.6H32.4z"/>
	<path class="st2" d="M33.4,373.7h1.9c0.5,0,0.9,0.1,1.2,0.3c0.3,0.2,0.6,0.4,0.8,0.7c0.2,0.3,0.3,0.7,0.3,1.1s-0.1,0.8-0.3,1.1
		c-0.2,0.3-0.5,0.6-0.8,0.7c-0.4,0.2-0.8,0.3-1.2,0.3h-1.9V373.7z M35.3,377.1c0.4,0,0.8-0.1,1-0.4c0.2-0.2,0.4-0.6,0.4-1
		c0-0.4-0.1-0.7-0.4-1s-0.6-0.4-1-0.4h-0.9v2.6H35.3z"/>
	<path class="st2" d="M41.6,376.3l-0.6,0.6v1.1h-1v-4.2h1v2l1.9-2H44l-1.7,1.9l1.8,2.3h-1.1L41.6,376.3z"/>
	<path class="st2" d="M47.3,373.9c0.3,0.1,0.5,0.3,0.6,0.5c0.1,0.2,0.2,0.5,0.2,0.8c0,0.3-0.1,0.6-0.2,0.8c-0.1,0.2-0.4,0.4-0.6,0.5
		c-0.3,0.1-0.6,0.2-1,0.2h-0.8v1.2h-1v-4.2h1.8C46.7,373.7,47,373.8,47.3,373.9z M46.9,375.8c0.2-0.1,0.2-0.3,0.2-0.5
		c0-0.2-0.1-0.4-0.2-0.5c-0.2-0.1-0.4-0.2-0.7-0.2h-0.8v1.5h0.8C46.6,376,46.8,375.9,46.9,375.8z"/>
	<path class="st2" d="M48.8,373.7h1v4.2h-1V373.7z"/>
	<path class="st2" d="M51.2,377.9c-0.3-0.1-0.6-0.2-0.7-0.4l0.3-0.7c0.2,0.1,0.4,0.2,0.6,0.3s0.5,0.1,0.7,0.1c0.3,0,0.5,0,0.6-0.1
		s0.2-0.2,0.2-0.3c0-0.1,0-0.2-0.1-0.2c-0.1-0.1-0.2-0.1-0.3-0.2s-0.3-0.1-0.5-0.1c-0.3-0.1-0.6-0.2-0.8-0.2s-0.4-0.2-0.5-0.4
		c-0.1-0.2-0.2-0.4-0.2-0.7c0-0.2,0.1-0.5,0.2-0.7s0.3-0.4,0.6-0.5s0.6-0.2,1-0.2c0.3,0,0.5,0,0.8,0.1c0.3,0.1,0.5,0.2,0.7,0.3
		l-0.3,0.7c-0.4-0.2-0.8-0.3-1.2-0.3c-0.3,0-0.5,0-0.6,0.1s-0.2,0.2-0.2,0.3s0.1,0.3,0.2,0.3c0.1,0.1,0.4,0.1,0.7,0.2
		c0.3,0.1,0.6,0.2,0.8,0.2s0.4,0.2,0.5,0.4c0.1,0.2,0.2,0.4,0.2,0.7c0,0.2-0.1,0.5-0.2,0.7c-0.1,0.2-0.3,0.4-0.6,0.5
		c-0.3,0.1-0.6,0.2-1,0.2C51.9,378,51.5,377.9,51.2,377.9z"/>
</g>
<g>
	<path class="st2" d="M66.5,382.8c-0.3-0.2-0.6-0.4-0.8-0.8c-0.2-0.3-0.3-0.7-0.3-1.1s0.1-0.8,0.3-1.1c0.2-0.3,0.5-0.6,0.8-0.8
		c0.4-0.2,0.7-0.3,1.2-0.3c0.4,0,0.8,0.1,1.2,0.3c0.3,0.2,0.6,0.4,0.8,0.8c0.2,0.3,0.3,0.7,0.3,1.1s-0.1,0.8-0.3,1.1
		c-0.2,0.3-0.5,0.6-0.8,0.8s-0.7,0.3-1.2,0.3C67.2,383.1,66.8,383,66.5,382.8z M68.3,382.1c0.2-0.1,0.4-0.3,0.5-0.5
		c0.1-0.2,0.2-0.4,0.2-0.7s-0.1-0.5-0.2-0.7s-0.3-0.4-0.5-0.5c-0.2-0.1-0.4-0.2-0.7-0.2s-0.5,0.1-0.7,0.2c-0.2,0.1-0.4,0.3-0.5,0.5
		c-0.1,0.2-0.2,0.4-0.2,0.7s0.1,0.5,0.2,0.7c0.1,0.2,0.3,0.4,0.5,0.5c0.2,0.1,0.4,0.2,0.7,0.2S68.1,382.2,68.3,382.1z"/>
	<path class="st2" d="M71.1,382.9c-0.3-0.1-0.6-0.2-0.7-0.4l0.3-0.7c0.2,0.1,0.4,0.2,0.6,0.3s0.5,0.1,0.7,0.1c0.3,0,0.5,0,0.6-0.1
		s0.2-0.2,0.2-0.3c0-0.1,0-0.2-0.1-0.2c-0.1-0.1-0.2-0.1-0.3-0.2c-0.1,0-0.3-0.1-0.5-0.1c-0.3-0.1-0.6-0.2-0.8-0.2s-0.4-0.2-0.5-0.4
		c-0.1-0.2-0.2-0.4-0.2-0.7c0-0.2,0.1-0.5,0.2-0.7c0.1-0.2,0.3-0.4,0.6-0.5c0.3-0.1,0.6-0.2,1-0.2c0.3,0,0.5,0,0.8,0.1
		s0.5,0.2,0.7,0.3l-0.3,0.7c-0.4-0.2-0.8-0.3-1.2-0.3c-0.3,0-0.5,0-0.6,0.1s-0.2,0.2-0.2,0.3c0,0.1,0.1,0.3,0.2,0.3
		c0.1,0.1,0.4,0.1,0.7,0.2c0.3,0.1,0.6,0.2,0.8,0.2s0.4,0.2,0.5,0.4c0.1,0.2,0.2,0.4,0.2,0.7c0,0.2-0.1,0.5-0.2,0.7
		s-0.3,0.4-0.6,0.5c-0.3,0.1-0.6,0.2-1,0.2C71.7,383.1,71.4,383,71.1,382.9z"/>
	<path class="st2" d="M77.8,382.2v0.8h-3.3v-4.2h3.2v0.8h-2.2v0.9h2v0.8h-2v1H77.8z"/>
	<path class="st2" d="M81.3,379c0.3,0.1,0.5,0.3,0.6,0.5c0.1,0.2,0.2,0.5,0.2,0.8c0,0.3-0.1,0.6-0.2,0.8s-0.4,0.4-0.6,0.5
		c-0.3,0.1-0.6,0.2-1,0.2h-0.8v1.2h-1v-4.2h1.8C80.7,378.8,81.1,378.9,81.3,379z M81,380.9c0.2-0.1,0.2-0.3,0.2-0.5
		c0-0.2-0.1-0.4-0.2-0.5c-0.2-0.1-0.4-0.2-0.7-0.2h-0.8v1.5h0.8C80.6,381,80.8,381,81,380.9z"/>
	<path class="st2" d="M84.5,380.5h1.7v0.8h-1.7V380.5z"/>
	<path class="st2" d="M89.6,379.6h-1.3v-0.8H92v0.8h-1.3v3.4h-1V379.6z"/>
	<path class="st2" d="M93.3,382.8c-0.3-0.2-0.6-0.4-0.8-0.8c-0.2-0.3-0.3-0.7-0.3-1.1s0.1-0.8,0.3-1.1c0.2-0.3,0.5-0.6,0.8-0.8
		c0.4-0.2,0.7-0.3,1.2-0.3c0.4,0,0.8,0.1,1.2,0.3c0.3,0.2,0.6,0.4,0.8,0.8c0.2,0.3,0.3,0.7,0.3,1.1s-0.1,0.8-0.3,1.1
		c-0.2,0.3-0.5,0.6-0.8,0.8s-0.7,0.3-1.2,0.3C94,383.1,93.6,383,93.3,382.8z M95.1,382.1c0.2-0.1,0.4-0.3,0.5-0.5
		c0.1-0.2,0.2-0.4,0.2-0.7s-0.1-0.5-0.2-0.7s-0.3-0.4-0.5-0.5c-0.2-0.1-0.4-0.2-0.7-0.2s-0.5,0.1-0.7,0.2c-0.2,0.1-0.4,0.3-0.5,0.5
		c-0.1,0.2-0.2,0.4-0.2,0.7s0.1,0.5,0.2,0.7c0.1,0.2,0.3,0.4,0.5,0.5c0.2,0.1,0.4,0.2,0.7,0.2S94.9,382.2,95.1,382.1z"/>
	<path class="st2" d="M98.3,379.6H97v-0.8h3.7v0.8h-1.3v3.4h-1V379.6z"/>
	<path class="st2" d="M103.7,382.1h-1.9l-0.4,0.9h-1l1.9-4.2h1l1.9,4.2h-1L103.7,382.1z M103.4,381.4l-0.7-1.6l-0.7,1.6H103.4z"/>
	<path class="st2" d="M105.5,378.8h1v3.4h2.1v0.8h-3.1V378.8z"/>
	<path class="st2" d="M66.5,386.8h-1.3V386h3.7v0.8h-1.3v3.4h-1V386.8z"/>
	<path class="st2" d="M70.1,390c-0.3-0.2-0.6-0.4-0.8-0.8c-0.2-0.3-0.3-0.7-0.3-1.1s0.1-0.8,0.3-1.1c0.2-0.3,0.5-0.6,0.8-0.8
		c0.4-0.2,0.7-0.3,1.2-0.3c0.4,0,0.8,0.1,1.2,0.3c0.3,0.2,0.6,0.4,0.8,0.8c0.2,0.3,0.3,0.7,0.3,1.1s-0.1,0.8-0.3,1.1
		c-0.2,0.3-0.5,0.6-0.8,0.8c-0.3,0.2-0.7,0.3-1.2,0.3C70.9,390.3,70.5,390.2,70.1,390z M72,389.3c0.2-0.1,0.4-0.3,0.5-0.5
		s0.2-0.4,0.2-0.7s-0.1-0.5-0.2-0.7c-0.1-0.2-0.3-0.4-0.5-0.5s-0.4-0.2-0.7-0.2s-0.5,0.1-0.7,0.2c-0.2,0.1-0.4,0.3-0.5,0.5
		c-0.1,0.2-0.2,0.4-0.2,0.7s0.1,0.5,0.2,0.7c0.1,0.2,0.3,0.4,0.5,0.5c0.2,0.1,0.4,0.2,0.7,0.2S71.8,389.4,72,389.3z"/>
	<path class="st2" d="M74.8,389.8c-0.3-0.3-0.5-0.8-0.5-1.4V386h1v2.3c0,0.8,0.3,1.1,0.9,1.1c0.3,0,0.5-0.1,0.7-0.3
		c0.2-0.2,0.2-0.5,0.2-0.9V386h1v2.4c0,0.6-0.2,1.1-0.5,1.4s-0.8,0.5-1.4,0.5C75.6,390.3,75.1,390.1,74.8,389.8z"/>
	<path class="st2" d="M79.9,390c-0.3-0.2-0.6-0.4-0.8-0.8c-0.2-0.3-0.3-0.7-0.3-1.1s0.1-0.8,0.3-1.1c0.2-0.3,0.5-0.6,0.8-0.8
		c0.3-0.2,0.7-0.3,1.2-0.3c0.4,0,0.7,0.1,1,0.2c0.3,0.1,0.5,0.3,0.7,0.6l-0.6,0.6c-0.3-0.3-0.6-0.5-1.1-0.5c-0.3,0-0.5,0.1-0.7,0.2
		s-0.4,0.3-0.5,0.5c-0.1,0.2-0.2,0.4-0.2,0.7s0.1,0.5,0.2,0.7c0.1,0.2,0.3,0.4,0.5,0.5c0.2,0.1,0.4,0.2,0.7,0.2
		c0.4,0,0.8-0.2,1.1-0.5l0.6,0.6c-0.2,0.2-0.4,0.4-0.7,0.6c-0.3,0.1-0.6,0.2-1,0.2C80.7,390.3,80.3,390.2,79.9,390z"/>
	<path class="st2" d="M87.3,386v4.2h-1v-1.7h-1.9v1.7h-1V386h1v1.7h1.9V386H87.3z"/>
	<path class="st2" d="M91.1,386.2c0.3,0.1,0.5,0.3,0.6,0.5s0.2,0.5,0.2,0.8c0,0.3-0.1,0.6-0.2,0.8c-0.1,0.2-0.4,0.4-0.6,0.5
		c-0.3,0.1-0.6,0.2-1,0.2h-0.8v1.2h-1V386h1.8C90.5,386,90.8,386.1,91.1,386.2z M90.7,388.1c0.2-0.1,0.2-0.3,0.2-0.5
		c0-0.2-0.1-0.4-0.2-0.5c-0.2-0.1-0.4-0.2-0.7-0.2h-0.8v1.5h0.8C90.4,388.2,90.6,388.2,90.7,388.1z"/>
	<path class="st2" d="M93.6,390c-0.3-0.2-0.6-0.4-0.8-0.8c-0.2-0.3-0.3-0.7-0.3-1.1s0.1-0.8,0.3-1.1c0.2-0.3,0.5-0.6,0.8-0.8
		c0.4-0.2,0.7-0.3,1.2-0.3c0.4,0,0.8,0.1,1.2,0.3c0.3,0.2,0.6,0.4,0.8,0.8c0.2,0.3,0.3,0.7,0.3,1.1s-0.1,0.8-0.3,1.1
		c-0.2,0.3-0.5,0.6-0.8,0.8c-0.3,0.2-0.7,0.3-1.2,0.3C94.3,390.3,93.9,390.2,93.6,390z M95.4,389.3c0.2-0.1,0.4-0.3,0.5-0.5
		s0.2-0.4,0.2-0.7s-0.1-0.5-0.2-0.7c-0.1-0.2-0.3-0.4-0.5-0.5s-0.4-0.2-0.7-0.2s-0.5,0.1-0.7,0.2c-0.2,0.1-0.4,0.3-0.5,0.5
		c-0.1,0.2-0.2,0.4-0.2,0.7s0.1,0.5,0.2,0.7c0.1,0.2,0.3,0.4,0.5,0.5c0.2,0.1,0.4,0.2,0.7,0.2S95.2,389.4,95.4,389.3z"/>
	<path class="st2" d="M97.8,386h1v4.2h-1V386z"/>
	<path class="st2" d="M103.6,386v4.2h-0.8l-2.1-2.5v2.5h-1V386h0.8l2.1,2.5V386H103.6z"/>
	<path class="st2" d="M105.5,386.8h-1.3V386h3.7v0.8h-1.3v3.4h-1V386.8z"/>
	<path class="st2" d="M68.4,396.5h-1.9l-0.4,0.9h-1l1.9-4.2h1l1.9,4.2h-1L68.4,396.5z M68.1,395.8l-0.7-1.6l-0.7,1.6H68.1z"/>
	<path class="st2" d="M74.1,393.2v4.2h-0.8l-2.1-2.6v2.6h-1v-4.2H71l2.1,2.6v-2.6H74.1z"/>
	<path class="st2" d="M77.8,396.5h-1.9l-0.4,0.9h-1l1.9-4.2h1l1.9,4.2h-1L77.8,396.5z M77.5,395.8l-0.7-1.6l-0.7,1.6H77.5z"/>
	<path class="st2" d="M79.7,393.2h1v3.4h2.1v0.8h-3.1V393.2z"/>
	<path class="st2" d="M84.9,395.9v1.5h-1v-1.5l-1.6-2.7h1l1.1,1.9l1.1-1.9h1L84.9,395.9z"/>
	<path class="st2" d="M87.2,397.3c-0.3-0.1-0.6-0.2-0.7-0.4l0.3-0.7c0.2,0.1,0.4,0.2,0.6,0.3s0.5,0.1,0.7,0.1c0.3,0,0.5,0,0.6-0.1
		s0.2-0.2,0.2-0.3c0-0.1,0-0.2-0.1-0.2c-0.1-0.1-0.2-0.1-0.3-0.2s-0.3-0.1-0.5-0.1c-0.3-0.1-0.6-0.2-0.8-0.2
		c-0.2-0.1-0.4-0.2-0.5-0.4c-0.1-0.2-0.2-0.4-0.2-0.7c0-0.2,0.1-0.5,0.2-0.7c0.1-0.2,0.3-0.4,0.6-0.5s0.6-0.2,1-0.2
		c0.3,0,0.5,0,0.8,0.1c0.3,0.1,0.5,0.2,0.7,0.3l-0.3,0.7c-0.4-0.2-0.8-0.3-1.2-0.3c-0.3,0-0.5,0-0.6,0.1s-0.2,0.2-0.2,0.3
		s0.1,0.3,0.2,0.3c0.1,0.1,0.4,0.1,0.7,0.2c0.3,0.1,0.6,0.2,0.8,0.2c0.2,0.1,0.4,0.2,0.5,0.4c0.1,0.2,0.2,0.4,0.2,0.7
		c0,0.2-0.1,0.5-0.2,0.7c-0.1,0.2-0.3,0.4-0.6,0.5c-0.3,0.1-0.6,0.2-1,0.2C87.9,397.5,87.6,397.4,87.2,397.3z"/>
	<path class="st2" d="M90.7,393.2h1v4.2h-1V393.2z"/>
	<path class="st2" d="M93,397.3c-0.3-0.1-0.6-0.2-0.7-0.4l0.3-0.7c0.2,0.1,0.4,0.2,0.6,0.3s0.5,0.1,0.7,0.1c0.3,0,0.5,0,0.6-0.1
		s0.2-0.2,0.2-0.3c0-0.1,0-0.2-0.1-0.2c-0.1-0.1-0.2-0.1-0.3-0.2s-0.3-0.1-0.5-0.1c-0.3-0.1-0.6-0.2-0.8-0.2
		c-0.2-0.1-0.4-0.2-0.5-0.4c-0.1-0.2-0.2-0.4-0.2-0.7c0-0.2,0.1-0.5,0.2-0.7c0.1-0.2,0.3-0.4,0.6-0.5s0.6-0.2,1-0.2
		c0.3,0,0.5,0,0.8,0.1c0.3,0.1,0.5,0.2,0.7,0.3l-0.3,0.7c-0.4-0.2-0.8-0.3-1.2-0.3c-0.3,0-0.5,0-0.6,0.1s-0.2,0.2-0.2,0.3
		s0.1,0.3,0.2,0.3c0.1,0.1,0.4,0.1,0.7,0.2c0.3,0.1,0.6,0.2,0.8,0.2c0.2,0.1,0.4,0.2,0.5,0.4c0.1,0.2,0.2,0.4,0.2,0.7
		c0,0.2-0.1,0.5-0.2,0.7c-0.1,0.2-0.3,0.4-0.6,0.5c-0.3,0.1-0.6,0.2-1,0.2C93.7,397.5,93.4,397.4,93,397.3z"/>
	<path class="st2" d="M68.9,403.8v0.8h-3.3v-4.2h3.2v0.8h-2.2v0.9h2v0.8h-2v1H68.9z"/>
	<path class="st2" d="M70.6,401.2v1.1h1.9v0.8h-1.9v1.5h-1v-4.2h3.2v0.8H70.6z"/>
	<path class="st2" d="M74.5,401.2v1.1h1.9v0.8h-1.9v1.5h-1v-4.2h3.2v0.8H74.5z"/>
	<path class="st2" d="M77.3,400.4h1v4.2h-1V400.4z"/>
	<path class="st2" d="M80.1,404.4c-0.3-0.2-0.6-0.4-0.8-0.8c-0.2-0.3-0.3-0.7-0.3-1.1s0.1-0.8,0.3-1.1c0.2-0.3,0.5-0.6,0.8-0.8
		c0.3-0.2,0.7-0.3,1.2-0.3c0.4,0,0.7,0.1,1,0.2s0.5,0.3,0.7,0.6l-0.6,0.6c-0.3-0.3-0.6-0.5-1.1-0.5c-0.3,0-0.5,0.1-0.7,0.2
		c-0.2,0.1-0.4,0.3-0.5,0.5c-0.1,0.2-0.2,0.4-0.2,0.7s0.1,0.5,0.2,0.7c0.1,0.2,0.3,0.4,0.5,0.5s0.4,0.2,0.7,0.2
		c0.4,0,0.8-0.2,1.1-0.5l0.6,0.6c-0.2,0.2-0.4,0.4-0.7,0.6s-0.6,0.2-1,0.2C80.9,404.7,80.5,404.6,80.1,404.4z"/>
	<path class="st2" d="M83.7,400.4h1v4.2h-1V400.4z"/>
	<path class="st2" d="M88.9,403.8v0.8h-3.3v-4.2h3.2v0.8h-2.2v0.9h2v0.8h-2v1H88.9z"/>
	<path class="st2" d="M93.5,400.4v4.2h-0.8l-2.1-2.5v2.5h-1v-4.2h0.8l2.1,2.5v-2.5H93.5z"/>
	<path class="st2" d="M95.4,404.4c-0.3-0.2-0.6-0.4-0.8-0.8c-0.2-0.3-0.3-0.7-0.3-1.1s0.1-0.8,0.3-1.1c0.2-0.3,0.5-0.6,0.8-0.8
		c0.3-0.2,0.7-0.3,1.2-0.3c0.4,0,0.7,0.1,1,0.2s0.5,0.3,0.7,0.6l-0.6,0.6c-0.3-0.3-0.6-0.5-1.1-0.5c-0.3,0-0.5,0.1-0.7,0.2
		c-0.2,0.1-0.4,0.3-0.5,0.5c-0.1,0.2-0.2,0.4-0.2,0.7s0.1,0.5,0.2,0.7c0.1,0.2,0.3,0.4,0.5,0.5s0.4,0.2,0.7,0.2
		c0.4,0,0.8-0.2,1.1-0.5l0.6,0.6c-0.2,0.2-0.4,0.4-0.7,0.6s-0.6,0.2-1,0.2C96.1,404.7,95.7,404.6,95.4,404.4z"/>
	<path class="st2" d="M98.9,400.4h1v4.2h-1V400.4z"/>
	<path class="st2" d="M104.2,403.8v0.8h-3.3v-4.2h3.2v0.8h-2.2v0.9h2v0.8h-2v1H104.2z"/>
	<path class="st2" d="M105.3,404.5c-0.3-0.1-0.6-0.2-0.7-0.4l0.3-0.7c0.2,0.1,0.4,0.2,0.6,0.3s0.5,0.1,0.7,0.1c0.3,0,0.5,0,0.6-0.1
		c0.1-0.1,0.2-0.2,0.2-0.3c0-0.1,0-0.2-0.1-0.2c-0.1-0.1-0.2-0.1-0.3-0.2c-0.1,0-0.3-0.1-0.5-0.1c-0.3-0.1-0.6-0.2-0.8-0.2
		c-0.2-0.1-0.4-0.2-0.5-0.4c-0.1-0.2-0.2-0.4-0.2-0.7c0-0.2,0.1-0.5,0.2-0.7c0.1-0.2,0.3-0.4,0.6-0.5c0.3-0.1,0.6-0.2,1-0.2
		c0.3,0,0.5,0,0.8,0.1s0.5,0.2,0.7,0.3l-0.3,0.7c-0.4-0.2-0.8-0.3-1.2-0.3c-0.3,0-0.5,0-0.6,0.1c-0.1,0.1-0.2,0.2-0.2,0.3
		c0,0.1,0.1,0.3,0.2,0.3c0.2,0.1,0.4,0.1,0.7,0.2c0.3,0.1,0.6,0.2,0.8,0.2c0.2,0.1,0.4,0.2,0.5,0.4s0.2,0.4,0.2,0.7
		c0,0.2-0.1,0.5-0.2,0.7c-0.1,0.2-0.3,0.4-0.6,0.5c-0.3,0.1-0.6,0.2-1,0.2C106,404.7,105.7,404.6,105.3,404.5z"/>
	<path class="st2" d="M66.5,411.6c-0.3-0.2-0.6-0.4-0.8-0.8c-0.2-0.3-0.3-0.7-0.3-1.1c0-0.4,0.1-0.8,0.3-1.1
		c0.2-0.3,0.5-0.6,0.8-0.8c0.4-0.2,0.7-0.3,1.2-0.3c0.4,0,0.8,0.1,1.2,0.3c0.3,0.2,0.6,0.4,0.8,0.8c0.2,0.3,0.3,0.7,0.3,1.1
		c0,0.4-0.1,0.8-0.3,1.1c-0.2,0.3-0.5,0.6-0.8,0.8s-0.7,0.3-1.2,0.3C67.2,411.9,66.8,411.8,66.5,411.6z M68.3,410.9
		c0.2-0.1,0.4-0.3,0.5-0.5c0.1-0.2,0.2-0.4,0.2-0.7c0-0.3-0.1-0.5-0.2-0.7s-0.3-0.4-0.5-0.5c-0.2-0.1-0.4-0.2-0.7-0.2
		s-0.5,0.1-0.7,0.2c-0.2,0.1-0.4,0.3-0.5,0.5c-0.1,0.2-0.2,0.4-0.2,0.7c0,0.3,0.1,0.5,0.2,0.7c0.1,0.2,0.3,0.4,0.5,0.5
		c0.2,0.1,0.4,0.2,0.7,0.2S68.1,411,68.3,410.9z"/>
	<path class="st2" d="M73.5,407.8c0.3,0.1,0.5,0.3,0.6,0.5c0.1,0.2,0.2,0.5,0.2,0.8c0,0.3-0.1,0.6-0.2,0.8s-0.4,0.4-0.6,0.5
		c-0.3,0.1-0.6,0.2-1,0.2h-0.8v1.2h-1v-4.2h1.8C72.9,407.6,73.2,407.7,73.5,407.8z M73.1,409.7c0.2-0.1,0.2-0.3,0.2-0.5
		c0-0.2-0.1-0.4-0.2-0.5c-0.2-0.1-0.4-0.2-0.7-0.2h-0.8v1.5h0.8C72.8,409.8,73,409.8,73.1,409.7z"/>
	<path class="st2" d="M77.8,407.8c0.3,0.1,0.5,0.3,0.6,0.5c0.1,0.2,0.2,0.5,0.2,0.8c0,0.3-0.1,0.6-0.2,0.8s-0.4,0.4-0.6,0.5
		c-0.3,0.1-0.6,0.2-1,0.2H76v1.2h-1v-4.2h1.8C77.2,407.6,77.5,407.7,77.8,407.8z M77.5,409.7c0.2-0.1,0.2-0.3,0.2-0.5
		c0-0.2-0.1-0.4-0.2-0.5c-0.2-0.1-0.4-0.2-0.7-0.2H76v1.5h0.8C77.1,409.8,77.3,409.8,77.5,409.7z"/>
	<path class="st2" d="M80.3,411.6c-0.3-0.2-0.6-0.4-0.8-0.8c-0.2-0.3-0.3-0.7-0.3-1.1c0-0.4,0.1-0.8,0.3-1.1
		c0.2-0.3,0.5-0.6,0.8-0.8c0.4-0.2,0.7-0.3,1.2-0.3c0.4,0,0.8,0.1,1.2,0.3c0.3,0.2,0.6,0.4,0.8,0.8c0.2,0.3,0.3,0.7,0.3,1.1
		c0,0.4-0.1,0.8-0.3,1.1c-0.2,0.3-0.5,0.6-0.8,0.8s-0.7,0.3-1.2,0.3C81,411.9,80.6,411.8,80.3,411.6z M82.1,410.9
		c0.2-0.1,0.4-0.3,0.5-0.5c0.1-0.2,0.2-0.4,0.2-0.7c0-0.3-0.1-0.5-0.2-0.7s-0.3-0.4-0.5-0.5c-0.2-0.1-0.4-0.2-0.7-0.2
		s-0.5,0.1-0.7,0.2c-0.2,0.1-0.4,0.3-0.5,0.5c-0.1,0.2-0.2,0.4-0.2,0.7c0,0.3,0.1,0.5,0.2,0.7c0.1,0.2,0.3,0.4,0.5,0.5
		c0.2,0.1,0.4,0.2,0.7,0.2S81.9,411,82.1,410.9z"/>
	<path class="st2" d="M87.2,411.8l-0.8-1.2h0h-0.8v1.2h-1v-4.2h1.8c0.4,0,0.7,0.1,1,0.2c0.3,0.1,0.5,0.3,0.6,0.5
		c0.1,0.2,0.2,0.5,0.2,0.8s-0.1,0.6-0.2,0.8s-0.4,0.4-0.6,0.5l0.9,1.4H87.2z M86.9,408.6c-0.2-0.1-0.4-0.2-0.7-0.2h-0.8v1.5h0.8
		c0.3,0,0.5-0.1,0.7-0.2c0.2-0.1,0.2-0.3,0.2-0.5C87.1,408.9,87.1,408.7,86.9,408.6z"/>
	<path class="st2" d="M89.7,408.4h-1.3v-0.8H92v0.8h-1.3v3.4h-1V408.4z"/>
	<path class="st2" d="M92.9,411.4c-0.3-0.3-0.5-0.8-0.5-1.4v-2.4h1v2.3c0,0.8,0.3,1.1,0.9,1.1c0.3,0,0.5-0.1,0.7-0.3
		c0.2-0.2,0.2-0.5,0.2-0.9v-2.3h1v2.4c0,0.6-0.2,1.1-0.5,1.4s-0.8,0.5-1.4,0.5C93.7,411.9,93.3,411.7,92.9,411.4z"/>
	<path class="st2" d="M101.1,407.6v4.2h-0.8l-2.1-2.5v2.5h-1v-4.2H98l2.1,2.6v-2.6H101.1z"/>
	<path class="st2" d="M102,407.6h1v4.2h-1V407.6z"/>
	<path class="st2" d="M104.9,408.4h-1.3v-0.8h3.7v0.8h-1.3v3.4h-1V408.4z"/>
	<path class="st2" d="M107.7,407.6h1v4.2h-1V407.6z"/>
	<path class="st2" d="M112.9,411v0.8h-3.3v-4.2h3.2v0.8h-2.2v0.9h1.9v0.8h-1.9v1H112.9z"/>
	<path class="st2" d="M114.1,411.7c-0.3-0.1-0.6-0.2-0.7-0.4l0.3-0.7c0.2,0.1,0.4,0.2,0.6,0.3s0.5,0.1,0.7,0.1c0.3,0,0.5,0,0.6-0.1
		c0.1-0.1,0.2-0.2,0.2-0.3c0-0.1,0-0.2-0.1-0.2s-0.2-0.1-0.3-0.2c-0.1,0-0.3-0.1-0.5-0.1c-0.3-0.1-0.6-0.2-0.8-0.2
		c-0.2-0.1-0.4-0.2-0.5-0.4c-0.1-0.2-0.2-0.4-0.2-0.7c0-0.2,0.1-0.5,0.2-0.7c0.1-0.2,0.3-0.4,0.6-0.5c0.3-0.1,0.6-0.2,1-0.2
		c0.3,0,0.5,0,0.8,0.1s0.5,0.2,0.7,0.3l-0.3,0.7c-0.4-0.2-0.8-0.3-1.2-0.3c-0.3,0-0.5,0-0.6,0.1c-0.1,0.1-0.2,0.2-0.2,0.3
		c0,0.1,0.1,0.3,0.2,0.3c0.2,0.1,0.4,0.1,0.7,0.2c0.3,0.1,0.6,0.2,0.8,0.2c0.2,0.1,0.4,0.2,0.5,0.4s0.2,0.4,0.2,0.7
		c0,0.2-0.1,0.5-0.2,0.7c-0.1,0.2-0.3,0.4-0.6,0.5c-0.3,0.1-0.6,0.2-1,0.2C114.8,411.9,114.4,411.8,114.1,411.7z"/>
</g>
<g>
	<path class="st2" d="M115.8,427.5c-0.3-0.2-0.6-0.4-0.8-0.8c-0.2-0.3-0.3-0.7-0.3-1.1s0.1-0.8,0.3-1.1c0.2-0.3,0.5-0.6,0.8-0.8
		c0.3-0.2,0.7-0.3,1.2-0.3c0.4,0,0.7,0.1,1,0.2s0.5,0.3,0.7,0.6l-0.6,0.6c-0.3-0.3-0.6-0.5-1.1-0.5c-0.3,0-0.5,0.1-0.7,0.2
		s-0.4,0.3-0.5,0.5c-0.1,0.2-0.2,0.4-0.2,0.7c0,0.3,0.1,0.5,0.2,0.7c0.1,0.2,0.3,0.4,0.5,0.5c0.2,0.1,0.4,0.2,0.7,0.2
		c0.4,0,0.8-0.2,1.1-0.5l0.6,0.6c-0.2,0.2-0.4,0.4-0.7,0.6s-0.6,0.2-1,0.2C116.6,427.7,116.2,427.6,115.8,427.5z"/>
	<path class="st2" d="M120.1,427.4c-0.3-0.2-0.6-0.4-0.8-0.8c-0.2-0.3-0.3-0.7-0.3-1.1c0-0.4,0.1-0.8,0.3-1.1
		c0.2-0.3,0.5-0.6,0.8-0.8c0.4-0.2,0.7-0.3,1.2-0.3c0.4,0,0.8,0.1,1.2,0.3c0.3,0.2,0.6,0.4,0.8,0.8c0.2,0.3,0.3,0.7,0.3,1.1
		c0,0.4-0.1,0.8-0.3,1.1c-0.2,0.3-0.5,0.6-0.8,0.8c-0.3,0.2-0.7,0.3-1.2,0.3C120.9,427.7,120.5,427.6,120.1,427.4z M122,426.7
		c0.2-0.1,0.4-0.3,0.5-0.5s0.2-0.4,0.2-0.7c0-0.3-0.1-0.5-0.2-0.7s-0.3-0.4-0.5-0.5s-0.4-0.2-0.7-0.2s-0.5,0.1-0.7,0.2
		c-0.2,0.1-0.4,0.3-0.5,0.5c-0.1,0.2-0.2,0.4-0.2,0.7c0,0.3,0.1,0.5,0.2,0.7c0.1,0.2,0.3,0.4,0.5,0.5c0.2,0.1,0.4,0.2,0.7,0.2
		S121.8,426.8,122,426.7z"/>
	<path class="st2" d="M128.2,423.5v4.2h-0.8l-2.1-2.5v2.5h-1v-4.2h0.8l2.1,2.5v-2.5H128.2z"/>
	<path class="st2" d="M129.6,427.6c-0.3-0.1-0.6-0.2-0.7-0.4l0.3-0.7c0.2,0.1,0.4,0.2,0.6,0.3s0.5,0.1,0.7,0.1c0.3,0,0.5,0,0.6-0.1
		s0.2-0.2,0.2-0.3c0-0.1,0-0.2-0.1-0.2s-0.2-0.1-0.3-0.2s-0.3-0.1-0.5-0.1c-0.3-0.1-0.6-0.2-0.8-0.2c-0.2-0.1-0.4-0.2-0.5-0.4
		c-0.1-0.2-0.2-0.4-0.2-0.7c0-0.2,0.1-0.5,0.2-0.7c0.1-0.2,0.3-0.4,0.6-0.5c0.3-0.1,0.6-0.2,1-0.2c0.3,0,0.5,0,0.8,0.1
		c0.3,0.1,0.5,0.2,0.7,0.3l-0.3,0.7c-0.4-0.2-0.8-0.3-1.2-0.3c-0.3,0-0.5,0-0.6,0.1s-0.2,0.2-0.2,0.3c0,0.1,0.1,0.3,0.2,0.3
		c0.1,0.1,0.4,0.1,0.7,0.2c0.3,0.1,0.6,0.2,0.8,0.2c0.2,0.1,0.4,0.2,0.5,0.4c0.1,0.2,0.2,0.4,0.2,0.7c0,0.2-0.1,0.5-0.2,0.7
		s-0.3,0.4-0.6,0.5c-0.3,0.1-0.6,0.2-1,0.2C130.2,427.7,129.9,427.7,129.6,427.6z"/>
	<path class="st2" d="M133.5,427.2c-0.3-0.3-0.5-0.8-0.5-1.4v-2.4h1v2.3c0,0.8,0.3,1.1,0.9,1.1c0.3,0,0.5-0.1,0.7-0.3
		c0.2-0.2,0.2-0.5,0.2-0.9v-2.3h1v2.4c0,0.6-0.2,1.1-0.5,1.4s-0.8,0.5-1.4,0.5C134.3,427.7,133.8,427.6,133.5,427.2z"/>
	<path class="st2" d="M141.6,427.7l0-2.5l-1.2,2.1h-0.4l-1.2-2v2.5h-0.9v-4.2h0.8l1.6,2.6l1.5-2.6h0.8l0,4.2H141.6z"/>
	<path class="st2" d="M146.7,426.9v0.8h-3.3v-4.2h3.2v0.8h-2.2v0.9h2v0.8h-2v1H146.7z"/>
	<path class="st2" d="M150.2,427.7l-0.8-1.2h0h-0.8v1.2h-1v-4.2h1.8c0.4,0,0.7,0.1,1,0.2c0.3,0.1,0.5,0.3,0.6,0.5
		c0.1,0.2,0.2,0.5,0.2,0.8c0,0.3-0.1,0.6-0.2,0.8s-0.4,0.4-0.6,0.5l0.9,1.4H150.2z M149.9,424.4c-0.2-0.1-0.4-0.2-0.7-0.2h-0.8v1.5
		h0.8c0.3,0,0.5-0.1,0.7-0.2c0.2-0.1,0.2-0.3,0.2-0.5C150.2,424.7,150.1,424.6,149.9,424.4z"/>
	<path class="st2" d="M156.8,427.7l-0.5-0.5c-0.4,0.3-0.9,0.5-1.4,0.5c-0.3,0-0.6,0-0.8-0.1s-0.4-0.2-0.6-0.4s-0.2-0.4-0.2-0.6
		c0-0.3,0.1-0.5,0.2-0.7c0.1-0.2,0.4-0.4,0.7-0.6c-0.2-0.2-0.3-0.3-0.3-0.4c-0.1-0.1-0.1-0.3-0.1-0.4c0-0.2,0.1-0.4,0.2-0.5
		c0.1-0.2,0.3-0.3,0.5-0.4s0.4-0.1,0.7-0.1c0.4,0,0.7,0.1,0.9,0.3c0.2,0.2,0.3,0.4,0.3,0.7c0,0.2-0.1,0.4-0.2,0.6
		c-0.1,0.2-0.3,0.3-0.6,0.5l0.8,0.7c0.1-0.2,0.2-0.4,0.2-0.7l0.8,0.2c-0.1,0.4-0.2,0.7-0.4,1l0.5,0.5L156.8,427.7z M155.8,426.8
		l-1-0.9c-0.2,0.1-0.3,0.2-0.4,0.3c-0.1,0.1-0.1,0.2-0.1,0.4c0,0.2,0.1,0.3,0.2,0.4c0.1,0.1,0.3,0.1,0.5,0.1
		C155.3,427,155.5,426.9,155.8,426.8z M154.8,424.1c-0.1,0.1-0.1,0.2-0.1,0.3c0,0.1,0,0.2,0.1,0.2s0.1,0.2,0.3,0.3
		c0.2-0.1,0.3-0.2,0.4-0.3s0.1-0.2,0.1-0.3c0-0.1,0-0.2-0.1-0.3c-0.1-0.1-0.2-0.1-0.3-0.1C155,424,154.9,424.1,154.8,424.1z"/>
	<path class="st2" d="M115.8,434.7c-0.3-0.2-0.6-0.4-0.8-0.8c-0.2-0.3-0.3-0.7-0.3-1.1s0.1-0.8,0.3-1.1c0.2-0.3,0.5-0.6,0.8-0.8
		c0.3-0.2,0.7-0.3,1.2-0.3c0.4,0,0.7,0.1,1,0.2s0.5,0.3,0.7,0.6l-0.6,0.6c-0.3-0.3-0.6-0.5-1.1-0.5c-0.3,0-0.5,0.1-0.7,0.2
		c-0.2,0.1-0.4,0.3-0.5,0.5c-0.1,0.2-0.2,0.4-0.2,0.7s0.1,0.5,0.2,0.7c0.1,0.2,0.3,0.4,0.5,0.5s0.4,0.2,0.7,0.2
		c0.4,0,0.8-0.2,1.1-0.5l0.6,0.6c-0.2,0.2-0.4,0.4-0.7,0.6s-0.6,0.2-1,0.2C116.6,434.9,116.2,434.8,115.8,434.7z"/>
	<path class="st2" d="M120.1,434.6c-0.3-0.2-0.6-0.4-0.8-0.8c-0.2-0.3-0.3-0.7-0.3-1.1s0.1-0.8,0.3-1.1c0.2-0.3,0.5-0.6,0.8-0.8
		c0.4-0.2,0.7-0.3,1.2-0.3c0.4,0,0.8,0.1,1.2,0.3c0.3,0.2,0.6,0.4,0.8,0.8c0.2,0.3,0.3,0.7,0.3,1.1s-0.1,0.8-0.3,1.1
		c-0.2,0.3-0.5,0.6-0.8,0.8c-0.3,0.2-0.7,0.3-1.2,0.3C120.9,434.9,120.5,434.8,120.1,434.6z M122,433.9c0.2-0.1,0.4-0.3,0.5-0.5
		c0.1-0.2,0.2-0.4,0.2-0.7s-0.1-0.5-0.2-0.7s-0.3-0.4-0.5-0.5c-0.2-0.1-0.4-0.2-0.7-0.2s-0.5,0.1-0.7,0.2c-0.2,0.1-0.4,0.3-0.5,0.5
		c-0.1,0.2-0.2,0.4-0.2,0.7s0.1,0.5,0.2,0.7c0.1,0.2,0.3,0.4,0.5,0.5c0.2,0.1,0.4,0.2,0.7,0.2S121.8,434,122,433.9z"/>
	<path class="st2" d="M128.2,430.7v4.2h-0.8l-2.1-2.5v2.5h-1v-4.2h0.8l2.1,2.6v-2.6H128.2z"/>
	<path class="st2" d="M133,430.7v4.2h-0.8l-2.1-2.5v2.5h-1v-4.2h0.8l2.1,2.6v-2.6H133z"/>
	<path class="st2" d="M137.3,434.1v0.8H134v-4.2h3.2v0.8H135v0.9h2v0.8h-2v1H137.3z"/>
	<path class="st2" d="M138.9,434.7c-0.3-0.2-0.6-0.4-0.8-0.8c-0.2-0.3-0.3-0.7-0.3-1.1s0.1-0.8,0.3-1.1c0.2-0.3,0.5-0.6,0.8-0.8
		c0.3-0.2,0.7-0.3,1.2-0.3c0.4,0,0.7,0.1,1,0.2s0.5,0.3,0.7,0.6l-0.6,0.6c-0.3-0.3-0.6-0.5-1.1-0.5c-0.3,0-0.5,0.1-0.7,0.2
		c-0.2,0.1-0.4,0.3-0.5,0.5c-0.1,0.2-0.2,0.4-0.2,0.7s0.1,0.5,0.2,0.7c0.1,0.2,0.3,0.4,0.5,0.5s0.4,0.2,0.7,0.2
		c0.4,0,0.8-0.2,1.1-0.5l0.6,0.6c-0.2,0.2-0.4,0.4-0.7,0.6s-0.6,0.2-1,0.2C139.6,434.9,139.2,434.8,138.9,434.7z"/>
	<path class="st2" d="M143.3,431.5h-1.3v-0.8h3.7v0.8h-1.3v3.4h-1V431.5z"/>
	<path class="st2" d="M146.1,430.7h1v4.2h-1V430.7z"/>
	<path class="st2" d="M148.9,434.6c-0.3-0.2-0.6-0.4-0.8-0.8c-0.2-0.3-0.3-0.7-0.3-1.1s0.1-0.8,0.3-1.1c0.2-0.3,0.5-0.6,0.8-0.8
		c0.4-0.2,0.7-0.3,1.2-0.3c0.4,0,0.8,0.1,1.2,0.3c0.3,0.2,0.6,0.4,0.8,0.8c0.2,0.3,0.3,0.7,0.3,1.1s-0.1,0.8-0.3,1.1
		c-0.2,0.3-0.5,0.6-0.8,0.8c-0.3,0.2-0.7,0.3-1.2,0.3C149.7,434.9,149.3,434.8,148.9,434.6z M150.8,433.9c0.2-0.1,0.4-0.3,0.5-0.5
		c0.1-0.2,0.2-0.4,0.2-0.7s-0.1-0.5-0.2-0.7s-0.3-0.4-0.5-0.5c-0.2-0.1-0.4-0.2-0.7-0.2s-0.5,0.1-0.7,0.2c-0.2,0.1-0.4,0.3-0.5,0.5
		c-0.1,0.2-0.2,0.4-0.2,0.7s0.1,0.5,0.2,0.7c0.1,0.2,0.3,0.4,0.5,0.5c0.2,0.1,0.4,0.2,0.7,0.2S150.6,434,150.8,433.9z"/>
	<path class="st2" d="M157,430.7v4.2h-0.8l-2.1-2.5v2.5h-1v-4.2h0.8l2.1,2.6v-2.6H157z"/>
	<path class="st2" d="M115.4,442c-0.3-0.1-0.6-0.2-0.7-0.4l0.3-0.7c0.2,0.1,0.4,0.2,0.6,0.3s0.5,0.1,0.7,0.1c0.3,0,0.5,0,0.6-0.1
		s0.2-0.2,0.2-0.3c0-0.1,0-0.2-0.1-0.2c-0.1-0.1-0.2-0.1-0.3-0.2s-0.3-0.1-0.5-0.1c-0.3-0.1-0.6-0.2-0.8-0.2s-0.4-0.2-0.5-0.4
		c-0.1-0.2-0.2-0.4-0.2-0.7c0-0.2,0.1-0.5,0.2-0.7s0.3-0.4,0.6-0.5s0.6-0.2,1-0.2c0.3,0,0.5,0,0.8,0.1c0.3,0.1,0.5,0.2,0.7,0.3
		l-0.3,0.7c-0.4-0.2-0.8-0.3-1.2-0.3c-0.3,0-0.5,0-0.6,0.1s-0.2,0.2-0.2,0.3s0.1,0.3,0.2,0.3c0.1,0.1,0.4,0.1,0.7,0.2
		c0.3,0.1,0.6,0.2,0.8,0.2s0.4,0.2,0.5,0.4c0.1,0.2,0.2,0.4,0.2,0.7c0,0.2-0.1,0.5-0.2,0.7c-0.1,0.2-0.3,0.4-0.6,0.5
		c-0.3,0.1-0.6,0.2-1,0.2C116,442.1,115.7,442.1,115.4,442z"/>
	<path class="st2" d="M119.6,438.7h-1.3v-0.8h3.7v0.8h-1.3v3.4h-1V438.7z"/>
	<path class="st2" d="M125.1,442.1l-0.8-1.2h0h-0.8v1.2h-1v-4.2h1.8c0.4,0,0.7,0.1,1,0.2c0.3,0.1,0.5,0.3,0.6,0.5
		c0.1,0.2,0.2,0.5,0.2,0.8c0,0.3-0.1,0.6-0.2,0.8c-0.2,0.2-0.4,0.4-0.6,0.5l0.9,1.3H125.1z M124.9,438.8c-0.2-0.1-0.4-0.2-0.7-0.2
		h-0.8v1.5h0.8c0.3,0,0.5-0.1,0.7-0.2c0.2-0.1,0.2-0.3,0.2-0.5C125.1,439.1,125,439,124.9,438.8z"/>
	<path class="st2" d="M129.6,441.2h-1.9l-0.4,0.9h-1l1.9-4.2h1l1.9,4.2h-1L129.6,441.2z M129.3,440.4l-0.7-1.6l-0.7,1.6H129.3z"/>
	<path class="st2" d="M132.1,438.7h-1.3v-0.8h3.7v0.8h-1.3v3.4h-1V438.7z"/>
	<path class="st2" d="M138.2,441.3v0.8h-3.3v-4.2h3.2v0.8h-2.2v0.9h2v0.8h-2v1H138.2z"/>
	<path class="st2" d="M141.8,439.9h0.9v1.7c-0.2,0.2-0.5,0.3-0.8,0.4c-0.3,0.1-0.6,0.1-0.9,0.1c-0.4,0-0.8-0.1-1.2-0.3
		c-0.3-0.2-0.6-0.4-0.8-0.8c-0.2-0.3-0.3-0.7-0.3-1.1s0.1-0.8,0.3-1.1c0.2-0.3,0.5-0.6,0.8-0.8c0.4-0.2,0.7-0.3,1.2-0.3
		c0.4,0,0.7,0.1,1,0.2s0.6,0.3,0.8,0.5l-0.6,0.6c-0.3-0.3-0.7-0.5-1.1-0.5c-0.3,0-0.5,0.1-0.7,0.2c-0.2,0.1-0.4,0.3-0.5,0.5
		c-0.1,0.2-0.2,0.4-0.2,0.7c0,0.3,0.1,0.5,0.2,0.7c0.1,0.2,0.3,0.4,0.5,0.5s0.4,0.2,0.7,0.2c0.3,0,0.5-0.1,0.8-0.2V439.9z"/>
	<path class="st2" d="M145.6,440.6v1.5h-1v-1.5l-1.6-2.7h1l1.1,1.9l1.1-1.9h1L145.6,440.6z"/>
</g>
<g>
	<path class="st2" d="M166.1,454.7l0-2.5l-1.2,2.1h-0.4l-1.2-2v2.5h-0.9v-4.2h0.8l1.6,2.6l1.5-2.6h0.8l0,4.2H166.1z"/>
	<path class="st2" d="M171.3,453.9v0.8H168v-4.2h3.2v0.8H169v0.9h2v0.8h-2v1H171.3z"/>
	<path class="st2" d="M174.8,453.8h-1.9l-0.4,0.9h-1l1.9-4.2h1l1.9,4.2h-1L174.8,453.8z M174.5,453l-0.7-1.6l-0.7,1.6H174.5z"/>
	<path class="st2" d="M180.5,450.5v4.2h-0.8l-2.1-2.5v2.5h-1v-4.2h0.8l2.1,2.5v-2.5H180.5z"/>
	<path class="st2" d="M181.5,450.5h1v4.2h-1V450.5z"/>
	<path class="st2" d="M187.3,450.5v4.2h-0.8l-2.1-2.5v2.5h-1v-4.2h0.8l2.1,2.5v-2.5H187.3z"/>
	<path class="st2" d="M191.2,452.5h0.9v1.7c-0.2,0.2-0.5,0.3-0.8,0.4c-0.3,0.1-0.6,0.1-0.9,0.1c-0.4,0-0.8-0.1-1.2-0.3
		c-0.3-0.2-0.6-0.4-0.8-0.8c-0.2-0.3-0.3-0.7-0.3-1.1s0.1-0.8,0.3-1.1c0.2-0.3,0.5-0.6,0.8-0.8c0.4-0.2,0.7-0.3,1.2-0.3
		c0.4,0,0.7,0.1,1,0.2s0.6,0.3,0.8,0.5l-0.6,0.6c-0.3-0.3-0.7-0.5-1.1-0.5c-0.3,0-0.5,0.1-0.7,0.2c-0.2,0.1-0.4,0.3-0.5,0.5
		c-0.1,0.2-0.2,0.4-0.2,0.7c0,0.3,0.1,0.5,0.2,0.7c0.1,0.2,0.3,0.4,0.5,0.5c0.2,0.1,0.4,0.2,0.7,0.2c0.3,0,0.5-0.1,0.8-0.2V452.5z"
		/>
	<path class="st2" d="M193.9,451.2v1.1h1.9v0.8h-1.9v1.5h-1v-4.2h3.2v0.8H193.9z"/>
	<path class="st2" d="M197.2,454.2c-0.3-0.3-0.5-0.8-0.5-1.4v-2.4h1v2.3c0,0.8,0.3,1.1,0.9,1.1c0.3,0,0.5-0.1,0.7-0.3
		c0.2-0.2,0.2-0.5,0.2-0.9v-2.3h1v2.4c0,0.6-0.2,1.1-0.5,1.4s-0.8,0.5-1.4,0.5C198,454.7,197.6,454.6,197.2,454.2z"/>
	<path class="st2" d="M201.5,450.5h1v3.4h2.1v0.8h-3.1V450.5z"/>
	<path class="st2" d="M163.2,461.7c-0.3-0.2-0.6-0.4-0.8-0.8c-0.2-0.3-0.3-0.7-0.3-1.1s0.1-0.8,0.3-1.1c0.2-0.3,0.5-0.6,0.8-0.8
		c0.3-0.2,0.7-0.3,1.2-0.3c0.4,0,0.7,0.1,1,0.2s0.5,0.3,0.7,0.6l-0.6,0.6c-0.3-0.3-0.6-0.5-1.1-0.5c-0.3,0-0.5,0.1-0.7,0.2
		c-0.2,0.1-0.4,0.3-0.5,0.5c-0.1,0.2-0.2,0.4-0.2,0.7s0.1,0.5,0.2,0.7c0.1,0.2,0.3,0.4,0.5,0.5s0.4,0.2,0.7,0.2
		c0.4,0,0.8-0.2,1.1-0.5l0.6,0.6c-0.2,0.2-0.4,0.4-0.7,0.6s-0.6,0.2-1,0.2C163.9,461.9,163.5,461.8,163.2,461.7z"/>
	<path class="st2" d="M167.5,461.6c-0.3-0.2-0.6-0.4-0.8-0.8c-0.2-0.3-0.3-0.7-0.3-1.1s0.1-0.8,0.3-1.1c0.2-0.3,0.5-0.6,0.8-0.8
		c0.4-0.2,0.7-0.3,1.2-0.3c0.4,0,0.8,0.1,1.2,0.3c0.3,0.2,0.6,0.4,0.8,0.8c0.2,0.3,0.3,0.7,0.3,1.1s-0.1,0.8-0.3,1.1
		c-0.2,0.3-0.5,0.6-0.8,0.8c-0.3,0.2-0.7,0.3-1.2,0.3C168.2,461.9,167.8,461.8,167.5,461.6z M169.3,460.9c0.2-0.1,0.4-0.3,0.5-0.5
		c0.1-0.2,0.2-0.4,0.2-0.7s-0.1-0.5-0.2-0.7s-0.3-0.4-0.5-0.5c-0.2-0.1-0.4-0.2-0.7-0.2s-0.5,0.1-0.7,0.2c-0.2,0.1-0.4,0.3-0.5,0.5
		c-0.1,0.2-0.2,0.4-0.2,0.7s0.1,0.5,0.2,0.7c0.1,0.2,0.3,0.4,0.5,0.5c0.2,0.1,0.4,0.2,0.7,0.2S169.1,461,169.3,460.9z"/>
	<path class="st2" d="M175.5,457.7v4.2h-0.8l-2.1-2.5v2.5h-1v-4.2h0.8l2.1,2.6v-2.6H175.5z"/>
	<path class="st2" d="M180.4,457.7v4.2h-0.8l-2.1-2.5v2.5h-1v-4.2h0.8l2.1,2.6v-2.6H180.4z"/>
	<path class="st2" d="M184.6,461.1v0.8h-3.3v-4.2h3.2v0.8h-2.2v0.9h2v0.8h-2v1H184.6z"/>
	<path class="st2" d="M186.2,461.7c-0.3-0.2-0.6-0.4-0.8-0.8c-0.2-0.3-0.3-0.7-0.3-1.1s0.1-0.8,0.3-1.1c0.2-0.3,0.5-0.6,0.8-0.8
		c0.3-0.2,0.7-0.3,1.2-0.3c0.4,0,0.7,0.1,1,0.2s0.5,0.3,0.7,0.6l-0.6,0.6c-0.3-0.3-0.6-0.5-1.1-0.5c-0.3,0-0.5,0.1-0.7,0.2
		c-0.2,0.1-0.4,0.3-0.5,0.5c-0.1,0.2-0.2,0.4-0.2,0.7s0.1,0.5,0.2,0.7c0.1,0.2,0.3,0.4,0.5,0.5s0.4,0.2,0.7,0.2
		c0.4,0,0.8-0.2,1.1-0.5l0.6,0.6c-0.2,0.2-0.4,0.4-0.7,0.6s-0.6,0.2-1,0.2C187,461.9,186.6,461.8,186.2,461.7z"/>
	<path class="st2" d="M190.6,458.5h-1.3v-0.8h3.7v0.8h-1.3v3.4h-1V458.5z"/>
	<path class="st2" d="M193.4,457.7h1v4.2h-1V457.7z"/>
	<path class="st2" d="M196.3,461.6c-0.3-0.2-0.6-0.4-0.8-0.8c-0.2-0.3-0.3-0.7-0.3-1.1s0.1-0.8,0.3-1.1c0.2-0.3,0.5-0.6,0.8-0.8
		c0.4-0.2,0.7-0.3,1.2-0.3c0.4,0,0.8,0.1,1.2,0.3c0.3,0.2,0.6,0.4,0.8,0.8c0.2,0.3,0.3,0.7,0.3,1.1s-0.1,0.8-0.3,1.1
		c-0.2,0.3-0.5,0.6-0.8,0.8c-0.3,0.2-0.7,0.3-1.2,0.3C197,461.9,196.6,461.8,196.3,461.6z M198.1,460.9c0.2-0.1,0.4-0.3,0.5-0.5
		c0.1-0.2,0.2-0.4,0.2-0.7s-0.1-0.5-0.2-0.7s-0.3-0.4-0.5-0.5c-0.2-0.1-0.4-0.2-0.7-0.2s-0.5,0.1-0.7,0.2c-0.2,0.1-0.4,0.3-0.5,0.5
		c-0.1,0.2-0.2,0.4-0.2,0.7s0.1,0.5,0.2,0.7c0.1,0.2,0.3,0.4,0.5,0.5c0.2,0.1,0.4,0.2,0.7,0.2S197.9,461,198.1,460.9z"/>
	<path class="st2" d="M204.3,457.7v4.2h-0.8l-2.1-2.5v2.5h-1v-4.2h0.8l2.1,2.6v-2.6H204.3z"/>
	<path class="st2" d="M205.7,461.8c-0.3-0.1-0.6-0.2-0.7-0.4l0.3-0.7c0.2,0.1,0.4,0.2,0.6,0.3s0.5,0.1,0.7,0.1c0.3,0,0.5,0,0.6-0.1
		s0.2-0.2,0.2-0.3c0-0.1,0-0.2-0.1-0.2c-0.1-0.1-0.2-0.1-0.3-0.2s-0.3-0.1-0.5-0.1c-0.3-0.1-0.6-0.2-0.8-0.2s-0.4-0.2-0.5-0.4
		c-0.1-0.2-0.2-0.4-0.2-0.7c0-0.2,0.1-0.5,0.2-0.7s0.3-0.4,0.6-0.5s0.6-0.2,1-0.2c0.3,0,0.5,0,0.8,0.1c0.3,0.1,0.5,0.2,0.7,0.3
		l-0.3,0.7c-0.4-0.2-0.8-0.3-1.2-0.3c-0.3,0-0.5,0-0.6,0.1s-0.2,0.2-0.2,0.3s0.1,0.3,0.2,0.3c0.1,0.1,0.4,0.1,0.7,0.2
		c0.3,0.1,0.6,0.2,0.8,0.2s0.4,0.2,0.5,0.4c0.1,0.2,0.2,0.4,0.2,0.7c0,0.2-0.1,0.5-0.2,0.7c-0.1,0.2-0.3,0.4-0.6,0.5
		c-0.3,0.1-0.6,0.2-1,0.2C206.4,461.9,206.1,461.9,205.7,461.8z"/>
	<path class="st2" d="M165.1,465c0.3,0.1,0.5,0.3,0.6,0.5c0.1,0.2,0.2,0.5,0.2,0.8c0,0.3-0.1,0.6-0.2,0.8c-0.1,0.2-0.4,0.4-0.6,0.5
		c-0.3,0.1-0.6,0.2-1,0.2h-0.8v1.2h-1v-4.2h1.8C164.5,464.9,164.8,464.9,165.1,465z M164.7,466.9c0.2-0.1,0.2-0.3,0.2-0.5
		c0-0.2-0.1-0.4-0.2-0.5c-0.2-0.1-0.4-0.2-0.7-0.2h-0.8v1.5h0.8C164.4,467.1,164.6,467,164.7,466.9z"/>
	<path class="st2" d="M166.6,464.9h1v3.4h2.1v0.8h-3.1V464.9z"/>
	<path class="st2" d="M173.1,468.2h-1.9l-0.4,0.9h-1l1.9-4.2h1l1.9,4.2h-1L173.1,468.2z M172.8,467.4l-0.7-1.6l-0.7,1.6H172.8z"/>
	<path class="st2" d="M178.7,464.9v4.2h-0.8l-2.1-2.5v2.5h-1v-4.2h0.8l2.1,2.6v-2.6H178.7z"/>
</g>
<g>
	<path class="st2" d="M215.6,470.5h1.9c0.5,0,0.9,0.1,1.2,0.3s0.6,0.4,0.8,0.7c0.2,0.3,0.3,0.7,0.3,1.1s-0.1,0.8-0.3,1.1
		c-0.2,0.3-0.5,0.6-0.8,0.7c-0.3,0.2-0.8,0.3-1.2,0.3h-1.9V470.5z M217.5,473.9c0.4,0,0.8-0.1,1-0.4c0.2-0.2,0.4-0.6,0.4-1
		c0-0.4-0.1-0.7-0.4-1c-0.2-0.2-0.6-0.4-1-0.4h-0.9v2.6H217.5z"/>
	<path class="st2" d="M223.3,474.7l-0.8-1.2h0h-0.8v1.2h-1v-4.2h1.8c0.4,0,0.7,0.1,1,0.2c0.3,0.1,0.5,0.3,0.6,0.5
		c0.1,0.2,0.2,0.5,0.2,0.8c0,0.3-0.1,0.6-0.2,0.8s-0.4,0.4-0.6,0.5l0.9,1.4H223.3z M223,471.4c-0.2-0.1-0.4-0.2-0.7-0.2h-0.8v1.5
		h0.8c0.3,0,0.5-0.1,0.7-0.2c0.2-0.1,0.2-0.3,0.2-0.5C223.2,471.7,223.2,471.6,223,471.4z"/>
	<path class="st2" d="M225,470.5h1v4.2h-1V470.5z"/>
	<path class="st2" d="M231,470.5l-1.8,4.2h-1l-1.8-4.2h1.1l1.3,3l1.3-3H231z"/>
	<path class="st2" d="M231.3,470.5h1v4.2h-1V470.5z"/>
	<path class="st2" d="M237.2,470.5v4.2h-0.8l-2.1-2.5v2.5h-1v-4.2h0.8l2.1,2.5v-2.5H237.2z"/>
	<path class="st2" d="M241,472.5h0.9v1.7c-0.2,0.2-0.5,0.3-0.8,0.4s-0.6,0.1-0.9,0.1c-0.4,0-0.8-0.1-1.2-0.3
		c-0.3-0.2-0.6-0.4-0.8-0.8c-0.2-0.3-0.3-0.7-0.3-1.1s0.1-0.8,0.3-1.1c0.2-0.3,0.5-0.6,0.8-0.8c0.4-0.2,0.7-0.3,1.2-0.3
		c0.4,0,0.7,0.1,1,0.2c0.3,0.1,0.6,0.3,0.8,0.5l-0.6,0.6c-0.3-0.3-0.7-0.5-1.1-0.5c-0.3,0-0.5,0.1-0.7,0.2c-0.2,0.1-0.4,0.3-0.5,0.5
		c-0.1,0.2-0.2,0.4-0.2,0.7c0,0.3,0.1,0.5,0.2,0.7c0.1,0.2,0.3,0.4,0.5,0.5c0.2,0.1,0.4,0.2,0.7,0.2c0.3,0,0.5-0.1,0.8-0.2V472.5z"
		/>
	<path class="st2" d="M219.5,481.9l0-2.5l-1.2,2.1h-0.4l-1.2-2v2.5h-0.9v-4.2h0.8l1.6,2.6l1.5-2.6h0.8l0,4.2H219.5z"/>
	<path class="st2" d="M224.6,481.1v0.8h-3.3v-4.2h3.2v0.8h-2.2v0.9h2v0.8h-2v1H224.6z"/>
	<path class="st2" d="M228.2,481h-1.9l-0.4,0.9h-1l1.9-4.2h1l1.9,4.2h-1L228.2,481z M227.9,480.2l-0.7-1.6l-0.7,1.6H227.9z"/>
	<path class="st2" d="M233.8,477.7v4.2H233l-2.1-2.5v2.5h-1v-4.2h0.8l2.1,2.6v-2.6H233.8z"/>
	<path class="st2" d="M234.8,477.7h1v4.2h-1V477.7z"/>
	<path class="st2" d="M240.7,477.7v4.2h-0.8l-2.1-2.5v2.5h-1v-4.2h0.8l2.1,2.6v-2.6H240.7z"/>
	<path class="st2" d="M244.5,479.7h0.9v1.7c-0.2,0.2-0.5,0.3-0.8,0.4c-0.3,0.1-0.6,0.1-0.9,0.1c-0.4,0-0.8-0.1-1.2-0.3
		c-0.3-0.2-0.6-0.4-0.8-0.8c-0.2-0.3-0.3-0.7-0.3-1.1s0.1-0.8,0.3-1.1c0.2-0.3,0.5-0.6,0.8-0.8c0.4-0.2,0.7-0.3,1.2-0.3
		c0.4,0,0.7,0.1,1,0.2c0.3,0.1,0.6,0.3,0.8,0.5l-0.6,0.6c-0.3-0.3-0.7-0.5-1.1-0.5c-0.3,0-0.5,0.1-0.7,0.2c-0.2,0.1-0.4,0.3-0.5,0.5
		c-0.1,0.2-0.2,0.4-0.2,0.7c0,0.3,0.1,0.5,0.2,0.7c0.1,0.2,0.3,0.4,0.5,0.5c0.2,0.1,0.4,0.2,0.7,0.2c0.3,0,0.5-0.1,0.8-0.2V479.7z"
		/>
	<path class="st2" d="M247.2,478.4v1.1h1.9v0.8h-1.9v1.5h-1v-4.2h3.2v0.8H247.2z"/>
	<path class="st2" d="M250.6,481.4c-0.3-0.3-0.5-0.8-0.5-1.4v-2.4h1v2.3c0,0.8,0.3,1.1,0.9,1.1c0.3,0,0.5-0.1,0.7-0.3
		c0.2-0.2,0.2-0.5,0.2-0.9v-2.3h1v2.4c0,0.6-0.2,1.1-0.5,1.4s-0.8,0.5-1.4,0.5C251.4,481.9,250.9,481.8,250.6,481.4z"/>
	<path class="st2" d="M254.8,477.7h1v3.4h2.1v0.8h-3.1V477.7z"/>
	<path class="st2" d="M219.3,487.3c0.1,0.2,0.2,0.4,0.2,0.7c0,0.4-0.1,0.7-0.4,0.8c-0.3,0.2-0.7,0.3-1.3,0.3h-2.2v-4.2h2.1
		c0.5,0,0.9,0.1,1.2,0.3c0.3,0.2,0.4,0.5,0.4,0.8c0,0.2,0,0.4-0.1,0.5c-0.1,0.2-0.2,0.3-0.4,0.4C219,487,219.1,487.1,219.3,487.3z
		 M216.6,485.6v1h1c0.2,0,0.4,0,0.5-0.1c0.1-0.1,0.2-0.2,0.2-0.4s-0.1-0.3-0.2-0.4c-0.1-0.1-0.3-0.1-0.5-0.1H216.6z M218.3,488.2
		c0.1-0.1,0.2-0.2,0.2-0.4c0-0.3-0.3-0.5-0.8-0.5h-1.1v1h1.1C218,488.3,218.2,488.3,218.3,488.2z"/>
	<path class="st2" d="M220.7,488.6c-0.3-0.3-0.5-0.8-0.5-1.4v-2.4h1v2.3c0,0.8,0.3,1.1,0.9,1.1c0.3,0,0.5-0.1,0.7-0.3
		c0.2-0.2,0.2-0.5,0.2-0.9v-2.3h1v2.4c0,0.6-0.2,1.1-0.5,1.4s-0.8,0.5-1.4,0.5C221.5,489.1,221,489,220.7,488.6z"/>
	<path class="st2" d="M225.4,489c-0.3-0.1-0.6-0.2-0.7-0.4l0.3-0.7c0.2,0.1,0.4,0.2,0.6,0.3s0.5,0.1,0.7,0.1c0.3,0,0.5,0,0.6-0.1
		c0.1-0.1,0.2-0.2,0.2-0.3c0-0.1,0-0.2-0.1-0.2c-0.1-0.1-0.2-0.1-0.3-0.2c-0.1,0-0.3-0.1-0.5-0.1c-0.3-0.1-0.6-0.2-0.8-0.2
		c-0.2-0.1-0.4-0.2-0.5-0.4s-0.2-0.4-0.2-0.7c0-0.2,0.1-0.5,0.2-0.7c0.1-0.2,0.3-0.4,0.6-0.5s0.6-0.2,1-0.2c0.3,0,0.5,0,0.8,0.1
		c0.3,0.1,0.5,0.2,0.7,0.3l-0.3,0.7c-0.4-0.2-0.8-0.3-1.2-0.3c-0.3,0-0.5,0-0.6,0.1c-0.1,0.1-0.2,0.2-0.2,0.3s0.1,0.3,0.2,0.3
		c0.1,0.1,0.4,0.1,0.7,0.2c0.3,0.1,0.6,0.2,0.8,0.2c0.2,0.1,0.4,0.2,0.5,0.4c0.1,0.2,0.2,0.4,0.2,0.7c0,0.2-0.1,0.5-0.2,0.7
		c-0.1,0.2-0.3,0.4-0.6,0.5s-0.6,0.2-1,0.2C226,489.1,225.7,489.1,225.4,489z"/>
	<path class="st2" d="M228.8,484.9h1v4.2h-1V484.9z"/>
	<path class="st2" d="M234.6,484.9v4.2h-0.8l-2.1-2.5v2.5h-1v-4.2h0.8l2.1,2.6v-2.6H234.6z"/>
	<path class="st2" d="M238.8,488.3v0.8h-3.3v-4.2h3.2v0.8h-2.2v0.9h1.9v0.8h-1.9v1H238.8z"/>
	<path class="st2" d="M240,489c-0.3-0.1-0.6-0.2-0.7-0.4l0.3-0.7c0.2,0.1,0.4,0.2,0.6,0.3s0.5,0.1,0.7,0.1c0.3,0,0.5,0,0.6-0.1
		c0.1-0.1,0.2-0.2,0.2-0.3c0-0.1,0-0.2-0.1-0.2c-0.1-0.1-0.2-0.1-0.3-0.2c-0.1,0-0.3-0.1-0.5-0.1c-0.3-0.1-0.6-0.2-0.8-0.2
		c-0.2-0.1-0.4-0.2-0.5-0.4s-0.2-0.4-0.2-0.7c0-0.2,0.1-0.5,0.2-0.7c0.1-0.2,0.3-0.4,0.6-0.5s0.6-0.2,1-0.2c0.3,0,0.5,0,0.8,0.1
		c0.3,0.1,0.5,0.2,0.7,0.3l-0.3,0.7c-0.4-0.2-0.8-0.3-1.2-0.3c-0.3,0-0.5,0-0.6,0.1c-0.1,0.1-0.2,0.2-0.2,0.3s0.1,0.3,0.2,0.3
		c0.1,0.1,0.4,0.1,0.7,0.2c0.3,0.1,0.6,0.2,0.8,0.2c0.2,0.1,0.4,0.2,0.5,0.4c0.1,0.2,0.2,0.4,0.2,0.7c0,0.2-0.1,0.5-0.2,0.7
		c-0.1,0.2-0.3,0.4-0.6,0.5s-0.6,0.2-1,0.2C240.7,489.1,240.3,489.1,240,489z"/>
	<path class="st2" d="M243.9,489c-0.3-0.1-0.6-0.2-0.7-0.4l0.3-0.7c0.2,0.1,0.4,0.2,0.6,0.3s0.5,0.1,0.7,0.1c0.3,0,0.5,0,0.6-0.1
		c0.1-0.1,0.2-0.2,0.2-0.3c0-0.1,0-0.2-0.1-0.2c-0.1-0.1-0.2-0.1-0.3-0.2c-0.1,0-0.3-0.1-0.5-0.1c-0.3-0.1-0.6-0.2-0.8-0.2
		c-0.2-0.1-0.4-0.2-0.5-0.4s-0.2-0.4-0.2-0.7c0-0.2,0.1-0.5,0.2-0.7c0.1-0.2,0.3-0.4,0.6-0.5s0.6-0.2,1-0.2c0.3,0,0.5,0,0.8,0.1
		c0.3,0.1,0.5,0.2,0.7,0.3l-0.3,0.7c-0.4-0.2-0.8-0.3-1.2-0.3c-0.3,0-0.5,0-0.6,0.1c-0.1,0.1-0.2,0.2-0.2,0.3s0.1,0.3,0.2,0.3
		c0.1,0.1,0.4,0.1,0.7,0.2c0.3,0.1,0.6,0.2,0.8,0.2c0.2,0.1,0.4,0.2,0.5,0.4c0.1,0.2,0.2,0.4,0.2,0.7c0,0.2-0.1,0.5-0.2,0.7
		c-0.1,0.2-0.3,0.4-0.6,0.5s-0.6,0.2-1,0.2C244.5,489.1,244.2,489.1,243.9,489z"/>
	<path class="st2" d="M218.5,494.1h0.9v1.7c-0.2,0.2-0.5,0.3-0.8,0.4c-0.3,0.1-0.6,0.1-0.9,0.1c-0.4,0-0.8-0.1-1.2-0.3
		c-0.3-0.2-0.6-0.4-0.8-0.8s-0.3-0.7-0.3-1.1s0.1-0.8,0.3-1.1c0.2-0.3,0.5-0.6,0.8-0.8c0.4-0.2,0.7-0.3,1.2-0.3c0.4,0,0.7,0.1,1,0.2
		c0.3,0.1,0.6,0.3,0.8,0.5l-0.6,0.6c-0.3-0.3-0.7-0.5-1.1-0.5c-0.3,0-0.5,0.1-0.7,0.2c-0.2,0.1-0.4,0.3-0.5,0.5
		c-0.1,0.2-0.2,0.4-0.2,0.7c0,0.3,0.1,0.5,0.2,0.7s0.3,0.4,0.5,0.5c0.2,0.1,0.4,0.2,0.7,0.2c0.3,0,0.5-0.1,0.8-0.2V494.1z"/>
	<path class="st2" d="M222.9,496.3l-0.8-1.2h0h-0.8v1.2h-1v-4.2h1.8c0.4,0,0.7,0.1,1,0.2c0.3,0.1,0.5,0.3,0.6,0.5
		c0.1,0.2,0.2,0.5,0.2,0.8c0,0.3-0.1,0.6-0.2,0.8s-0.4,0.4-0.6,0.5l0.9,1.4H222.9z M222.7,493c-0.2-0.1-0.4-0.2-0.7-0.2h-0.8v1.5
		h0.8c0.3,0,0.5-0.1,0.7-0.2c0.2-0.1,0.2-0.3,0.2-0.5C222.9,493.3,222.8,493.2,222.7,493z"/>
	<path class="st2" d="M225.5,496c-0.3-0.2-0.6-0.4-0.8-0.8c-0.2-0.3-0.3-0.7-0.3-1.1c0-0.4,0.1-0.8,0.3-1.1c0.2-0.3,0.5-0.6,0.8-0.8
		c0.4-0.2,0.7-0.3,1.2-0.3s0.8,0.1,1.2,0.3c0.3,0.2,0.6,0.4,0.8,0.8s0.3,0.7,0.3,1.1c0,0.4-0.1,0.8-0.3,1.1s-0.5,0.6-0.8,0.8
		c-0.3,0.2-0.7,0.3-1.2,0.3S225.9,496.2,225.5,496z M227.4,495.3c0.2-0.1,0.4-0.3,0.5-0.5c0.1-0.2,0.2-0.4,0.2-0.7
		c0-0.3-0.1-0.5-0.2-0.7c-0.1-0.2-0.3-0.4-0.5-0.5c-0.2-0.1-0.4-0.2-0.7-0.2s-0.5,0.1-0.7,0.2s-0.4,0.3-0.5,0.5s-0.2,0.4-0.2,0.7
		c0,0.3,0.1,0.5,0.2,0.7s0.3,0.4,0.5,0.5c0.2,0.1,0.4,0.2,0.7,0.2S227.2,495.4,227.4,495.3z"/>
	<path class="st2" d="M235.9,492.1l-1.4,4.2h-1l-0.9-2.8l-1,2.8h-1l-1.4-4.2h1l0.9,3l1-3h0.9l1,3l1-3H235.9z"/>
	<path class="st2" d="M237.4,492.9H236v-0.8h3.7v0.8h-1.3v3.4h-1V492.9z"/>
	<path class="st2" d="M244.1,492.1v4.2h-1v-1.7h-1.9v1.7h-1v-4.2h1v1.7h1.9v-1.7H244.1z"/>
</g>
</svg>
