<?xml version="1.0" encoding="utf-8"?>
<!-- Generator: Adobe Illustrator 22.1.0, SVG Export Plug-In . SVG Version: 6.00 Build 0)  -->
<svg version="1.1" id="Layer_1" xmlns="http://www.w3.org/2000/svg" xmlns:xlink="http://www.w3.org/1999/xlink" x="0px" y="0px"
	 viewBox="0 0 703 200" style="enable-background:new 0 0 703 200;" xml:space="preserve">
<style type="text/css">
	.st0{fill:none;stroke:#231F20;stroke-width:0.25;stroke-miterlimit:10;}
	.st1{fill:#231F20;}
	.st2{fill:#EB1D39;}
	.st3{fill:#FFFFFF;}
	.st4{fill:none;stroke:#231F20;stroke-width:0.8892;stroke-miterlimit:10;}
</style>
<g>
	<g>
		<path class="st0" d="M357.2,164.9"/>
		<path class="st0" d="M290.7,103.7L290.7,103.7l-0.1,0.3h0.1c11.9,0,20.9,3,28.4,9.5c6.6,5.8,11.2,13.6,16,21.8"/>
		<path class="st0" d="M319.2,113.3"/>
		<path class="st0" d="M400.7,178.2c0-0.1,0-0.2,0-0.3c-18.3-0.6-32.5-4.9-43.4-13.3c-10.3-7.9-16.3-19.6-22.1-29.5"/>
		<path class="st0" d="M400.7,178c0,0.1,293.5,0.3,295,0.3h0.1V178h-0.1"/>
	</g>
	<g>
		<path class="st0" d="M335.1,122.2"/>
		<path class="st0" d="M400.8,148.6c0-0.1,0-0.2,0-0.3c-42.2-0.8-54.6-15.1-65.6-26.3c-9.4-9.7-18.3-18.8-44.4-18.8h-0.1v0.3h0.1"/>
		<path class="st0" d="M400.3,148.4c1.4,0,293.9,0.2,295.3,0.2h0.1v-0.3h-0.1"/>
	</g>
	<g>
		<path class="st0" d="M400.9,119.6c-42.3-0.2-54.7-9.1-65.7-11.9c-9.4-2.4-18.3-4.6-44.4-4.6h-0.1v1.1h0.1"/>
		<path class="st0" d="M400.9,120.7"/>
		<path class="st0" d="M695.7,120.7L695.7,120.7l0.1-1.1h-0.1c-1.4,0-293.5,0-294.8,0"/>
	</g>
	<g>
		<path class="st0" d="M695.7,89c-1.3,0-293.3,0-294.6,0v0.1C402.4,89.1,694.4,89.1,695.7,89L695.7,89L695.7,89L695.7,89z"/>
		<path class="st0" d="M335.1,96.5c-9.4,3.1-18.3,6-44.4,6h-0.1v0.1h0.1C316.8,102.6,325.7,99.7,335.1,96.5c11-3.5,23.5-7,65.9-7.3
			v-0.1C358.6,89.3,346.1,92.8,335.1,96.5z"/>
	</g>
	<g>
		<path class="st0" d="M695.7,59.4c-1.2,0-293.1,0-294.3,0c0,0.1,0,0.1,0,0.2c1.2,0,293.1,0,294.3,0h0.1L695.7,59.4L695.7,59.4z"/>
		<path class="st0" d="M357.2,67.3c-10.3,4.7-16.3,10-22.1,15.9c-4.8,4.9-9.3,9.5-16,13c-7.5,3.9-16.5,5.7-28.4,5.7h-0.1v0.2h0.1
			c11.9,0,21-1.8,28.4-5.7c6.7-3.5,11.2-8.1,16-13c5.8-5.9,11.8-11.2,22.1-15.9c11-5,25.5-7.6,44.1-7.9c0-0.1,0-0.1,0-0.2
			C382.7,59.7,368.3,62.3,357.2,67.3z"/>
	</g>
	<g>
		<path class="st0" d="M695.7,29.7c-1.1,0-292.8,0-293.9,0.1c0,0.1,0,0.1,0,0.2c1,0,292.8-0.1,293.9-0.1h0.1L695.7,29.7L695.7,29.7z
			"/>
		<path class="st0" d="M357.2,43c-10.3,7.9-16.3,17.2-22.1,27.1c-4.8,8.2-9.3,15.9-16,21.7c-7.4,6.5-16.5,9.5-28.4,9.5h-0.1v0.2h0.1
			c11.9,0,21-3,28.4-9.5c6.7-5.8,11.2-13.5,16-21.8C341,60.3,347,51,357.2,43c11.2-8.4,25.8-12.7,44.6-13.1c0-0.1,0-0.1,0-0.2
			C382.9,30.2,368.3,34.5,357.2,43z"/>
	</g>
</g>
<g>
	<g>
		<path class="st1" d="M145.2,105.3L145.2,105.3c-15,0-26.3-3.6-35.7-11.4c-8.3-6.9-14-16.3-20-26.1c-7.3-11.9-14.8-24.2-27.7-33.6
			c-14.6-10.8-34.2-16-59.7-16H2V18h0.1c25.5,0,45.1,5.2,59.8,16c12.9,9.5,20.5,21.8,27.7,33.7c6,9.9,11.7,19.2,20,26.1
			c9.3,7.8,20.6,11.4,35.5,11.4h0.1L145.2,105.3L145.2,105.3z"/>
	</g>
	<g>
		<path class="st1" d="M145.2,105.3L145.2,105.3c-15,0-26.3-3.5-35.7-10.9c-8.3-6.6-14-15.5-20-24.9c-7.3-11.3-14.8-23-27.7-32
			C47.2,27.4,27.6,22.4,2.1,22.4H2v-0.2h0.1c25.5,0,45.1,5,59.8,15.2c12.9,9,20.5,20.7,27.7,32.1c6,9.4,11.7,18.2,20,24.8
			c9.3,7.4,20.6,10.8,35.5,10.8h0.1L145.2,105.3L145.2,105.3z"/>
	</g>
	<g>
		<path class="st1" d="M145.2,105.3L145.2,105.3c-15,0-26.3-3.3-35.7-10.3c-8.3-6.3-14-14.7-20-23.6C82.2,60.7,74.7,49.6,61.8,41
			C47.2,31.4,27.6,26.7,2.1,26.7H2v-0.2h0.1c25.5,0,45.1,4.7,59.8,14.4c12.9,8.5,20.5,19.7,27.7,30.4c6,8.9,11.7,17.3,20,23.5
			c9.3,7,20.6,10.3,35.5,10.3h0.1L145.2,105.3L145.2,105.3z"/>
	</g>
	<g>
		<path class="st1" d="M145.2,105.3L145.2,105.3c-15,0-26.3-3.1-35.7-9.8c-8.3-5.9-14-13.9-20.1-22.3C82.1,63,74.6,52.5,61.7,44.5
			C47.2,35.4,27.6,30.9,2.1,30.9H2v-0.2h0.1c25.5,0,45.1,4.5,59.8,13.6c12.9,8.1,20.5,18.6,27.7,28.8c6,8.4,11.7,16.4,20,22.3
			c9.3,6.6,20.6,9.7,35.5,9.7h0.1L145.2,105.3L145.2,105.3z"/>
	</g>
	<g>
		<path class="st1" d="M145.2,105.3L145.2,105.3c-15,0-26.3-2.9-35.7-9.2c-8.3-5.6-14-13.1-20.1-21C82.2,65.5,74.7,55.6,61.8,48
			C47.2,39.4,27.6,35.2,2.1,35.2H2V35h0.1c25.5,0,45.1,4.2,59.8,12.9C74.8,55.5,82.4,65.4,89.6,75c6,7.9,11.7,15.4,20,21
			c9.3,6.3,20.6,9.2,35.5,9.2h0.1L145.2,105.3L145.2,105.3z"/>
	</g>
	<g>
		<path class="st1" d="M145.2,105.3L145.2,105.3c-15,0-26.3-2.7-35.7-8.6c-8.3-5.2-14-12.3-20.1-19.8c-7.3-9-14.8-18.3-27.7-25.4
			C47.2,43.4,27.6,39.4,2.1,39.4H2v-0.2h0.1c25.5,0,45.1,4,59.8,12.1c12.9,7.2,20.5,16.5,27.7,25.5c6,7.5,11.7,14.5,20,19.7
			c9.3,5.9,20.6,8.6,35.5,8.6h0.1L145.2,105.3L145.2,105.3z"/>
	</g>
	<g>
		<path class="st1" d="M145.2,105.3L145.2,105.3c-15,0-26.3-2.6-35.7-8.1c-8.3-4.9-14-11.5-20.1-18.5c-7.3-8.4-14.8-17.1-27.7-23.8
			C47.2,47.4,27.6,43.7,2.1,43.7H2v-0.2h0.1c25.5,0,45.1,3.7,59.8,11.3c12.9,6.7,20.5,15.4,27.7,23.8c6,7,11.7,13.6,20,18.4
			c9.3,5.5,20.6,8.1,35.5,8.1h0.1L145.2,105.3L145.2,105.3z"/>
	</g>
	<g>
		<path class="st1" d="M145.2,105.3L145.2,105.3c-15,0-26.3-2.4-35.7-7.5c-8.3-4.6-14-10.7-20-17.2c-7.3-7.8-14.8-15.9-27.7-22.2
			C47.2,51.3,27.6,47.9,2.1,47.9H2v-0.2h0.1c25.5,0,45.1,3.4,59.8,10.5c12.9,6.2,20.5,14.3,27.7,22.2c6,6.5,11.7,12.6,20,17.2
			c9.3,5.1,20.6,7.5,35.5,7.5h0.1L145.2,105.3L145.2,105.3z"/>
	</g>
	<g>
		<path class="st1" d="M145.2,105.3L145.2,105.3c-15,0-26.3-2.2-35.7-7c-8.3-4.2-14-9.9-20-15.9c-7.3-7.3-14.8-14.8-27.7-20.5
			c-14.7-6.5-34.2-9.7-59.7-9.7H2V52h0.1c25.5,0,45.1,3.2,59.8,9.7C74.8,67.5,82.3,75,89.6,82.2c6,6,11.7,11.7,20,15.9
			c9.3,4.7,20.6,7,35.5,7h0.1L145.2,105.3L145.2,105.3z"/>
	</g>
	<g>
		<path class="st1" d="M145.2,105.3L145.2,105.3c-15,0-26.3-2-35.7-6.4c-8.3-3.9-14-9.1-20-14.7c-7.3-6.7-14.8-13.6-27.7-18.9
			c-14.7-6-34.2-8.9-59.7-8.9H2v-0.2h0.1c25.5,0,45.1,2.9,59.8,9c12.9,5.3,20.5,12.2,27.7,18.9c6,5.5,11.7,10.7,20,14.6
			c9.3,4.4,20.6,6.4,35.5,6.4h0.1L145.2,105.3L145.2,105.3z"/>
	</g>
	<g>
		<path class="st1" d="M145.2,105.3L145.2,105.3c-32.8,0-43.9-4.9-55.7-10.1C75.3,89,59.2,81.9,2.1,81.9H2v-0.2h0.1
			c57.1,0,73.3,7.1,87.5,13.3c11.8,5.2,22.9,10.1,55.6,10.1h0.1v0.2H145.2z"/>
	</g>
	<g>
		<path class="st1" d="M145.2,105.3L145.2,105.3c-32.8,0-43.9-4-55.7-8.2C75.3,92,59.2,86.2,2.1,86.2H2V86h0.1
			c57.1,0,73.2,5.8,87.5,10.9c11.8,4.2,22.9,8.2,55.6,8.2h0.1v0.2H145.2z"/>
	</g>
	<g>
		<path class="st1" d="M145.2,105.3L145.2,105.3c-32.8,0-43.9-3.1-55.7-6.4c-14.2-4-30.3-8.5-87.4-8.5H2v-0.2h0.1
			c57.1,0,73.2,4.5,87.5,8.5c11.8,3.3,22.9,6.4,55.6,6.4h0.1v0.2H145.2z"/>
	</g>
	<g>
		<path class="st1" d="M145.2,105.3L145.2,105.3c-32.8,0-43.9-2.2-55.7-4.6c-14.2-2.8-30.3-6.1-87.4-6.1H2v-0.2h0.1
			c57.1,0,73.2,3.2,87.5,6.1c11.8,2.4,22.9,4.6,55.6,4.6h0.1v0.2H145.2z"/>
	</g>
	<g>
		<path class="st1" d="M145.2,105.3L145.2,105.3c-32.8,0-43.9-1.3-55.7-2.7C75.3,100.9,59.2,99,2.1,99H2v-0.2h0.1
			c57.1,0,73.2,1.9,87.4,3.6c11.8,1.4,22.9,2.7,55.6,2.7h0.1L145.2,105.3L145.2,105.3z"/>
	</g>
	<g>
		<path class="st1" d="M145.2,105.3L145.2,105.3c-32.8,0-43.9-0.4-55.7-0.9c-14.2-0.6-30.3-1.2-87.4-1.2H2V103h0.1
			c57.1,0,73.2,0.6,87.4,1.2c11.8,0.5,22.9,0.9,55.6,0.9h0.1L145.2,105.3L145.2,105.3z"/>
	</g>
	<g>
		<path class="st1" d="M2.1,107.4L2.1,107.4L2,107.2h0.1c57.1,0,73.2-0.6,87.4-1.2c11.8-0.5,22.9-0.9,55.6-0.9h0.1v0.2h-0.1
			c-32.7,0-43.8,0.4-55.6,0.9C75.4,106.8,59.2,107.4,2.1,107.4z"/>
	</g>
	<g>
		<path class="st1" d="M2.1,111.7L2.1,111.7L2,111.5h0.1c57.1,0,73.2-1.9,87.4-3.6c11.8-1.4,22.9-2.7,55.6-2.7h0.1v0.2h-0.1
			c-32.7,0-43.8,1.3-55.6,2.7C75.4,109.8,59.3,111.7,2.1,111.7z"/>
	</g>
	<g>
		<path class="st1" d="M2.1,115.9L2.1,115.9L2,115.7h0.1c57.1,0,73.2-3.2,87.4-6.1c11.8-2.4,22.9-4.6,55.6-4.6h0.1v0.2h-0.1
			c-32.7,0-43.8,2.2-55.6,4.6C75.4,112.7,59.3,115.9,2.1,115.9z"/>
	</g>
	<g>
		<path class="st1" d="M2.1,120.2L2.1,120.2L2,120h0.1c57.1,0,73.2-4.5,87.4-8.5c11.8-3.3,22.9-6.4,55.6-6.4h0.1v0.2h-0.1
			c-32.7,0-43.8,3.1-55.6,6.4C75.4,115.7,59.3,120.2,2.1,120.2z"/>
	</g>
	<g>
		<path class="st1" d="M2.1,124.4L2.1,124.4L2,124.2h0.1c57.1,0,73.2-5.8,87.4-10.9c11.8-4.2,22.9-8.2,55.6-8.2h0.1v0.2h-0.1
			c-32.7,0-43.8,4-55.6,8.2C75.4,118.6,59.3,124.4,2.1,124.4z"/>
	</g>
	<g>
		<path class="st1" d="M2.1,149.9L2.1,149.9L2,149.7h0.1c25.5,0,45-2.7,59.7-8.2c12.9-4.8,20.4-11.1,27.7-17.2
			c11.8-9.9,22.9-19.2,55.6-19.2h0.1v0.2h-0.1c-14.9,0-26.2,1.9-35.5,5.8c-8.3,3.5-14,8.3-20,13.4c-7.3,6.1-14.8,12.4-27.7,17.3
			C47.2,147.3,27.7,149.9,2.1,149.9z"/>
	</g>
	<g>
		<path class="st1" d="M2.1,154.2L2.1,154.2L2,154h0.1c25.5,0,45-2.9,59.7-8.9c12.9-5.3,20.4-12.2,27.7-18.9
			c6-5.5,11.7-10.8,20-14.7c9.4-4.4,20.7-6.4,35.6-6.4h0.1v0.2h-0.1c-14.9,0-26.2,2-35.5,6.4c-8.3,3.9-14,9.1-20,14.6
			c-7.3,6.7-14.8,13.6-27.7,18.9C47.2,151.3,27.7,154.2,2.1,154.2z"/>
	</g>
	<g>
		<path class="st1" d="M2.1,158.4L2.1,158.4L2,158.2h0.1c25.5,0,45-3.2,59.7-9.7c12.9-5.8,20.4-13.3,27.7-20.5
			c6-6,11.7-11.7,20-15.9c9.4-4.8,20.7-7,35.6-7h0.1v0.2h-0.1c-14.9,0-26.2,2.2-35.5,7c-8.3,4.2-14,9.9-20,15.9
			c-7.3,7.3-14.8,14.8-27.7,20.5C47.2,155.3,27.7,158.4,2.1,158.4z"/>
	</g>
	<g>
		<path class="st1" d="M2.1,162.7L2.1,162.7L2,162.5h0.1c25.5,0,45-3.4,59.7-10.5c12.9-6.2,20.4-14.3,27.7-22.2
			c6-6.5,11.7-12.6,20-17.2c9.4-5.1,20.7-7.5,35.6-7.5h0.1v0.2h-0.1c-14.9,0-26.2,2.4-35.5,7.5c-8.3,4.6-14,10.7-20,17.2
			c-7.3,7.8-14.8,16-27.7,22.2C47.2,159.3,27.7,162.7,2.1,162.7z"/>
	</g>
	<g>
		<path class="st1" d="M2.1,166.9L2.1,166.9L2,166.7h0.1c25.5,0,45-3.7,59.7-11.3c12.9-6.7,20.4-15.4,27.7-23.8
			c6-7,11.7-13.6,20.1-18.5c9.4-5.5,20.7-8.1,35.6-8.1h0.1v0.2h-0.1c-14.9,0-26.2,2.6-35.5,8.1c-8.3,4.9-14,11.5-20,18.4
			c-7.3,8.4-14.8,17.1-27.7,23.8C47.2,163.3,27.7,166.9,2.1,166.9z"/>
	</g>
	<g>
		<path class="st1" d="M2.1,171.2L2.1,171.2L2,171h0.1c25.5,0,45-3.9,59.7-12.1c12.9-7.1,20.4-16.4,27.7-25.4
			c6-7.5,11.7-14.5,20.1-19.8c9.4-5.9,20.7-8.6,35.6-8.6h0.1v0.2h-0.1c-14.9,0-26.2,2.7-35.5,8.6c-8.3,5.2-14,12.3-20,19.7
			c-7.3,9-14.8,18.3-27.7,25.5C47.2,167.2,27.7,171.2,2.1,171.2z"/>
	</g>
	<g>
		<path class="st1" d="M2.1,175.5L2.1,175.5L2,175.2h0.1c25.5,0,45-4.2,59.7-12.8c12.9-7.6,20.4-17.5,27.7-27.1
			c6-7.9,11.7-15.4,20.1-21c9.4-6.3,20.7-9.2,35.6-9.2h0.1v0.2h-0.1c-14.9,0-26.2,2.9-35.5,9.2c-8.3,5.6-14,13.1-20,21
			c-7.3,9.6-14.8,19.5-27.7,27.1C47.2,171.2,27.7,175.5,2.1,175.5z"/>
	</g>
	<g>
		<path class="st1" d="M2.1,179.7L2.1,179.7L2,179.5h0.1c25.5,0,45-4.5,59.7-13.6c12.9-8.1,20.4-18.6,27.7-28.7
			c6-8.4,11.7-16.4,20.1-22.3c9.4-6.7,20.7-9.8,35.6-9.8h0.1v0.2h-0.1c-14.9,0-26.2,3.1-35.5,9.7c-8.3,5.9-14,13.9-20,22.3
			C82.4,147.5,74.9,158,62,166.1C47.2,175.2,27.7,179.7,2.1,179.7z"/>
	</g>
	<g>
		<path class="st1" d="M2.1,184L2.1,184L2,183.7h0.1c25.5,0,45-4.7,59.7-14.4c12.9-8.5,20.4-19.6,27.7-30.4c6-8.9,11.7-17.3,20-23.6
			c9.4-7,20.7-10.3,35.6-10.3h0.1v0.2h-0.1c-14.9,0-26.2,3.3-35.5,10.3c-8.3,6.2-14,14.6-20,23.5c-7.3,10.7-14.8,21.9-27.7,30.4
			C47.2,179.2,27.7,184,2.1,184z"/>
	</g>
	<g>
		<path class="st1" d="M2.1,188.2L2.1,188.2L2,188h0.1c25.5,0,45-5,59.7-15.2c12.9-9,20.4-20.7,27.7-32c6-9.4,11.7-18.3,20-24.9
			c9.4-7.4,20.7-10.9,35.6-10.9h0.1v0.2h-0.1c-14.9,0-26.2,3.4-35.5,10.8c-8.3,6.6-14,15.4-20,24.8c-7.3,11.3-14.8,23-27.7,32.1
			C47.2,183.2,27.7,188.2,2.1,188.2z"/>
	</g>
	<g>
		<path class="st1" d="M2.1,192.5L2.1,192.5L2,192.2h0.1c25.5,0,45-5.2,59.7-15.9c12.9-9.4,20.4-21.7,27.7-33.6
			c6-9.9,11.7-19.2,20-26.1c9.4-7.8,20.7-11.4,35.6-11.4h0.1v0.2h-0.1c-14.9,0-26.2,3.6-35.5,11.4c-8.3,6.9-14,16.2-20,26.1
			c-7.3,11.9-14.8,24.2-27.7,33.7C47.2,187.2,27.7,192.5,2.1,192.5z"/>
	</g>
</g>
<g>
	<path class="st1" d="M9.7,10V5.7L7.6,9.3H6.8l-2-3.5V10H3.2V2.9h1.4l2.7,4.4l2.6-4.4h1.4V10H9.7z"/>
	<path class="st1" d="M18.4,8.7V10h-5.5V2.9h5.4v1.3h-3.7v1.5h3.3V7h-3.3v1.6L18.4,8.7L18.4,8.7z"/>
	<path class="st1" d="M19.8,2.9H23c0.8,0,1.5,0.1,2.1,0.4s1.1,0.7,1.4,1.2S27,5.7,27,6.4s-0.2,1.3-0.5,1.9c-0.3,0.5-0.8,1-1.4,1.2
		C24.5,9.9,23.8,10,23,10h-3.2V2.9z M22.9,8.7c0.7,0,1.3-0.2,1.7-0.6c0.4-0.4,0.6-0.9,0.6-1.6S25,5.2,24.6,4.8
		c-0.4-0.4-1-0.6-1.7-0.6h-1.5v4.4L22.9,8.7L22.9,8.7z"/>
	<path class="st1" d="M28.2,2.9h1.6V10h-1.6V2.9z"/>
	<path class="st1" d="M36.2,8.5h-3.3L32.3,10h-1.7l3.2-7.1h1.6l3.2,7.1h-1.7L36.2,8.5z M35.7,7.2l-1.1-2.7l-1.1,2.7H35.7z"/>
</g>
<g>
	<path class="st1" d="M422.2,21c-0.6-0.3-1.1-0.8-1.4-1.3c-0.3-0.6-0.5-1.2-0.5-1.9s0.2-1.3,0.5-1.9s0.8-1,1.4-1.3s1.3-0.5,2-0.5
		s1.4,0.2,2,0.5s1.1,0.8,1.4,1.3c0.3,0.6,0.5,1.2,0.5,1.9s-0.2,1.3-0.5,1.9s-0.8,1-1.4,1.3s-1.3,0.5-2,0.5
		C423.4,21.4,422.8,21.3,422.2,21z M425.3,19.7c0.3-0.2,0.6-0.5,0.8-0.8c0.2-0.3,0.3-0.7,0.3-1.2c0-0.4-0.1-0.8-0.3-1.2
		c-0.2-0.3-0.5-0.6-0.8-0.8s-0.7-0.3-1.1-0.3s-0.8,0.1-1.1,0.3c-0.3,0.2-0.6,0.5-0.8,0.8c-0.2,0.3-0.3,0.7-0.3,1.2
		c0,0.4,0.1,0.8,0.3,1.2c0.2,0.3,0.5,0.6,0.8,0.8c0.3,0.2,0.7,0.3,1.1,0.3S425,19.9,425.3,19.7z"/>
	<path class="st1" d="M435.5,18.3c0.2,0.3,0.3,0.7,0.3,1.1c0,0.6-0.2,1.1-0.7,1.4s-1.2,0.5-2.1,0.5h-3.7v-7.1h3.5
		c0.9,0,1.5,0.2,2,0.5s0.7,0.8,0.7,1.4c0,0.3-0.1,0.7-0.2,0.9c-0.2,0.3-0.4,0.5-0.7,0.6C434.9,17.7,435.3,18,435.5,18.3z
		 M430.9,15.4v1.7h1.6c0.4,0,0.7-0.1,0.9-0.2c0.2-0.1,0.3-0.4,0.3-0.6s-0.1-0.5-0.3-0.6c-0.2-0.1-0.5-0.2-0.9-0.2L430.9,15.4
		L430.9,15.4z M433.9,19.9c0.2-0.1,0.3-0.4,0.3-0.7c0-0.6-0.4-0.9-1.3-0.9H431v1.8h1.9C433.3,20.1,433.6,20,433.9,19.9z"/>
	<path class="st1" d="M437.1,21.2c-0.4-0.2-0.7-0.4-1-0.8l0.9-1.1c0.4,0.5,0.8,0.8,1.3,0.8c0.7,0,1-0.4,1-1.2v-3.4h-2.5v-1.3h4.1
		v4.6c0,0.9-0.2,1.5-0.7,2c-0.4,0.4-1.1,0.7-1.9,0.7C437.9,21.4,437.5,21.4,437.1,21.2z"/>
	<path class="st1" d="M448.1,20v1.3h-5.5v-7.1h5.4v1.3h-3.7V17h3.3v1.3h-3.3V20H448.1z"/>
	<path class="st1" d="M450.8,21c-0.6-0.3-1-0.8-1.4-1.3c-0.3-0.6-0.5-1.2-0.5-1.9c0-0.7,0.2-1.3,0.5-1.9s0.8-1,1.4-1.3
		s1.2-0.5,2-0.5c0.6,0,1.2,0.1,1.7,0.3s0.9,0.5,1.3,0.9l-1.1,1c-0.5-0.6-1.1-0.8-1.8-0.8c-0.4,0-0.8,0.1-1.2,0.3
		c-0.3,0.2-0.6,0.5-0.8,0.8c-0.2,0.3-0.3,0.7-0.3,1.2c0,0.4,0.1,0.8,0.3,1.2c0.2,0.3,0.5,0.6,0.8,0.8c0.3,0.2,0.7,0.3,1.2,0.3
		c0.7,0,1.3-0.3,1.8-0.8l1.1,1c-0.3,0.4-0.8,0.7-1.3,0.9c-0.5,0.2-1.1,0.3-1.7,0.3C452.1,21.4,451.4,21.3,450.8,21z"/>
	<path class="st1" d="M458.3,15.5H456v-1.3h6.2v1.3h-2.3v5.8h-1.6L458.3,15.5L458.3,15.5z"/>
	<path class="st1" d="M463.1,14.2h1.6v7.1h-1.6V14.2z"/>
	<path class="st1" d="M473.2,14.2l-3.1,7.1h-1.6l-3.1-7.1h1.8l2.2,5.1l2.2-5.1C471.6,14.2,473.2,14.2,473.2,14.2z"/>
	<path class="st1" d="M479.3,20v1.3h-5.5v-7.1h5.4v1.3h-3.7V17h3.3v1.3h-3.3V20H479.3z"/>
</g>
<g>
	<path class="st1" d="M386.5,43.7h1.1v4.7h-1.1V43.7z"/>
	<path class="st1" d="M388.8,43.7h2.2c0.5,0,1,0.1,1.4,0.3s0.7,0.5,0.9,0.8c0.2,0.4,0.3,0.8,0.3,1.2s-0.1,0.9-0.3,1.2
		c-0.2,0.4-0.5,0.6-0.9,0.8s-0.9,0.3-1.4,0.3h-2.2V43.7z M390.9,47.6c0.5,0,0.9-0.1,1.1-0.4c0.3-0.3,0.4-0.6,0.4-1.1
		s-0.1-0.8-0.4-1.1s-0.7-0.4-1.1-0.4h-1v2.9L390.9,47.6L390.9,47.6z"/>
	<path class="st1" d="M398,47.6v0.9h-3.7v-4.7h3.6v0.9h-2.5v1h2.2v0.9h-2.2v1.1h2.6V47.6z"/>
	<path class="st1" d="M403.3,43.7v4.7h-0.9l-2.4-2.9v2.9h-1.1v-4.7h0.9l2.4,2.9v-2.9H403.3z"/>
	<path class="st1" d="M405.4,44.6h-1.5v-0.9h4.1v0.9h-1.5v3.9h-1.1V44.6z"/>
	<path class="st1" d="M408.6,43.7h1.1v4.7h-1.1V43.7z"/>
	<path class="st1" d="M411.9,44.6v1.3h2.2v0.9h-2.2v1.7h-1.1v-4.7h3.6v0.9h-2.5V44.6z"/>
	<path class="st1" d="M417.4,46.8v1.7h-1.1v-1.7l-1.8-3.1h1.2l1.3,2.1l1.3-2.1h1.1L417.4,46.8z"/>
	<path class="st1" d="M424.9,46h1v2c-0.3,0.2-0.6,0.3-0.9,0.4c-0.3,0.1-0.7,0.2-1,0.2c-0.5,0-0.9-0.1-1.3-0.3s-0.7-0.5-0.9-0.9
		c-0.2-0.4-0.3-0.8-0.3-1.3s0.1-0.9,0.3-1.3c0.2-0.4,0.5-0.7,0.9-0.9s0.8-0.3,1.3-0.3c0.4,0,0.8,0.1,1.1,0.2s0.6,0.3,0.9,0.6
		l-0.7,0.7c-0.3-0.4-0.7-0.5-1.2-0.5c-0.3,0-0.6,0.1-0.8,0.2s-0.4,0.3-0.5,0.5s-0.2,0.5-0.2,0.8s0.1,0.6,0.2,0.8s0.3,0.4,0.5,0.5
		s0.5,0.2,0.8,0.2s0.6-0.1,0.9-0.2L424.9,46L424.9,46z"/>
	<path class="st1" d="M429.9,48.5l-0.9-1.3h-0.1h-1v1.3h-1.1v-4.7h2.1c0.4,0,0.8,0.1,1.1,0.2c0.3,0.1,0.5,0.3,0.7,0.6
		s0.3,0.6,0.3,0.9c0,0.4-0.1,0.7-0.3,0.9c-0.2,0.3-0.4,0.5-0.7,0.6l1.1,1.5H429.9z M429.6,44.8c-0.2-0.1-0.4-0.2-0.8-0.2H428v1.7
		h0.9c0.3,0,0.6-0.1,0.8-0.2c0.2-0.1,0.3-0.3,0.3-0.6C429.9,45.2,429.8,45,429.6,44.8z"/>
	<path class="st1" d="M432.8,48.3c-0.4-0.2-0.7-0.5-0.9-0.9c-0.2-0.4-0.3-0.8-0.3-1.3s0.1-0.9,0.3-1.3c0.2-0.4,0.5-0.7,0.9-0.9
		s0.8-0.3,1.3-0.3s0.9,0.1,1.3,0.3s0.7,0.5,0.9,0.9c0.2,0.4,0.3,0.8,0.3,1.3s-0.1,0.9-0.3,1.3c-0.2,0.4-0.5,0.7-0.9,0.9
		s-0.8,0.3-1.3,0.3C433.7,48.6,433.2,48.5,432.8,48.3z M434.9,47.4c0.2-0.1,0.4-0.3,0.5-0.5s0.2-0.5,0.2-0.8s-0.1-0.6-0.2-0.8
		s-0.3-0.4-0.5-0.5s-0.5-0.2-0.8-0.2s-0.5,0.1-0.8,0.2c-0.2,0.1-0.4,0.3-0.5,0.5s-0.2,0.5-0.2,0.8s0.1,0.6,0.2,0.8s0.3,0.4,0.5,0.5
		s0.5,0.2,0.8,0.2C434.4,47.6,434.7,47.6,434.9,47.4z"/>
	<path class="st1" d="M444.6,43.7l-1.6,4.7h-1.2l-1-3.2l-1.1,3.2h-1.2l-1.6-4.7h1.1l1.1,3.3l1.1-3.3h1l1.1,3.4l1.1-3.4H444.6z"/>
	<path class="st1" d="M446.2,44.6h-1.5v-0.9h4.1v0.9h-1.5v3.9h-1.1V44.6z"/>
	<path class="st1" d="M453.8,43.7v4.7h-1.1v-1.9h-2.2v1.9h-1.1v-4.7h1.1v1.9h2.2v-1.9H453.8z"/>
	<path class="st1" d="M456.8,43.7h2.2c0.5,0,1,0.1,1.4,0.3s0.7,0.5,0.9,0.8c0.2,0.4,0.3,0.8,0.3,1.2s-0.1,0.9-0.3,1.2
		c-0.2,0.4-0.5,0.6-0.9,0.8s-0.9,0.3-1.4,0.3h-2.2V43.7z M458.9,47.6c0.5,0,0.9-0.1,1.1-0.4c0.3-0.3,0.4-0.6,0.4-1.1
		s-0.1-0.8-0.4-1.1s-0.7-0.4-1.1-0.4h-1v2.9L458.9,47.6L458.9,47.6z"/>
	<path class="st1" d="M465.4,48.5l-0.9-1.3h-0.1h-1v1.3h-1.1v-4.7h2.1c0.4,0,0.8,0.1,1.1,0.2c0.3,0.1,0.5,0.3,0.7,0.6
		s0.3,0.6,0.3,0.9c0,0.4-0.1,0.7-0.3,0.9c-0.2,0.3-0.4,0.5-0.7,0.6l1.1,1.5H465.4z M465.2,44.8c-0.2-0.1-0.4-0.2-0.8-0.2h-0.9v1.7
		h0.9c0.3,0,0.6-0.1,0.8-0.2c0.2-0.1,0.3-0.3,0.3-0.6C465.4,45.2,465.3,45,465.2,44.8z"/>
	<path class="st1" d="M467.4,43.7h1.1v4.7h-1.1V43.7z"/>
	<path class="st1" d="M474.2,43.7l-2.1,4.7H471l-2-4.7h1.2l1.4,3.4l1.5-3.4H474.2z"/>
	<path class="st1" d="M478.2,47.6v0.9h-3.7v-4.7h3.6v0.9h-2.5v1h2.2v0.9h-2.2v1.1h2.6V47.6z"/>
	<path class="st1" d="M482.1,48.5l-0.9-1.3h-0.1h-1v1.3H479v-4.7h2.1c0.4,0,0.8,0.1,1.1,0.2c0.3,0.1,0.5,0.3,0.7,0.6
		s0.3,0.6,0.3,0.9c0,0.4-0.1,0.7-0.3,0.9c-0.2,0.3-0.4,0.5-0.7,0.6l1.1,1.5H482.1z M481.9,44.8c-0.2-0.1-0.4-0.2-0.8-0.2h-0.9v1.7
		h0.9c0.3,0,0.6-0.1,0.8-0.2c0.2-0.1,0.3-0.3,0.3-0.6C482.1,45.2,482,45,481.9,44.8z"/>
	<path class="st1" d="M484.6,48.4c-0.4-0.1-0.6-0.2-0.8-0.4l0.4-0.8c0.2,0.1,0.4,0.3,0.7,0.4s0.6,0.1,0.8,0.1c0.3,0,0.5,0,0.7-0.1
		c0.1-0.1,0.2-0.2,0.2-0.4c0-0.1,0-0.2-0.1-0.3s-0.2-0.1-0.3-0.2c-0.1,0-0.3-0.1-0.6-0.1c-0.4-0.1-0.7-0.2-0.9-0.3
		c-0.2-0.1-0.4-0.2-0.6-0.4s-0.2-0.4-0.2-0.8c0-0.3,0.1-0.5,0.2-0.7s0.4-0.4,0.7-0.5c0.3-0.1,0.7-0.2,1.1-0.2c0.3,0,0.6,0,0.9,0.1
		s0.5,0.2,0.8,0.3l-0.3,0.8c-0.4-0.2-0.9-0.4-1.3-0.4c-0.3,0-0.5,0.1-0.7,0.1c-0.1,0.1-0.2,0.2-0.2,0.4s0.1,0.3,0.3,0.4
		c0.2,0.1,0.4,0.2,0.8,0.2c0.4,0.1,0.7,0.2,0.9,0.3c0.2,0.1,0.4,0.2,0.6,0.4s0.2,0.4,0.2,0.8c0,0.3-0.1,0.5-0.2,0.7
		c-0.2,0.2-0.4,0.4-0.7,0.5c-0.3,0.1-0.7,0.2-1.1,0.2C485.3,48.6,484.9,48.5,484.6,48.4z"/>
</g>
<g>
	<path class="st1" d="M386.5,72.6h2.2c0.5,0,1,0.1,1.4,0.3c0.4,0.2,0.7,0.5,0.9,0.8c0.2,0.4,0.3,0.8,0.3,1.2s-0.1,0.9-0.3,1.2
		c-0.2,0.4-0.5,0.6-0.9,0.8c-0.4,0.2-0.9,0.3-1.4,0.3h-2.2V72.6z M388.6,76.4c0.5,0,0.9-0.1,1.1-0.4c0.3-0.3,0.4-0.6,0.4-1.1
		s-0.1-0.8-0.4-1.1c-0.3-0.3-0.7-0.4-1.1-0.4h-1v2.9L388.6,76.4L388.6,76.4z"/>
	<path class="st1" d="M395.8,76.4v0.9h-3.7v-4.7h3.6v0.9h-2.5v1h2.2v0.9h-2.2v1.1h2.6V76.4z"/>
	<path class="st1" d="M397.8,73.4v1.3h2.2v0.9h-2.2v1.7h-1.1v-4.7h3.6v0.9h-2.5V73.4z"/>
	<path class="st1" d="M401,72.6h1.1v4.7H401V72.6z"/>
	<path class="st1" d="M407.6,72.6v4.7h-0.9l-2.4-2.9v2.9h-1.1v-4.7h0.9l2.4,2.9v-2.9H407.6z"/>
	<path class="st1" d="M412.4,76.4v0.9h-3.7v-4.7h3.6v0.9h-2.5v1h2.2v0.9h-2.2v1.1h2.6V76.4z"/>
	<path class="st1" d="M416.2,77.1c-0.4-0.2-0.7-0.5-0.9-0.9c-0.2-0.4-0.3-0.8-0.3-1.3s0.1-0.9,0.3-1.3c0.2-0.4,0.5-0.7,0.9-0.9
		c0.4-0.2,0.8-0.3,1.3-0.3s0.9,0.1,1.3,0.3c0.4,0.2,0.7,0.5,0.9,0.9c0.2,0.4,0.3,0.8,0.3,1.3s-0.1,0.9-0.3,1.3
		c-0.2,0.4-0.5,0.7-0.9,0.9s-0.8,0.3-1.3,0.3S416.6,77.3,416.2,77.1z M418.3,76.3c0.2-0.1,0.4-0.3,0.5-0.5s0.2-0.5,0.2-0.8
		s-0.1-0.6-0.2-0.8c-0.1-0.2-0.3-0.4-0.5-0.5s-0.5-0.2-0.8-0.2s-0.5,0.1-0.8,0.2c-0.2,0.1-0.4,0.3-0.5,0.5S416,74.7,416,75
		s0.1,0.6,0.2,0.8c0.1,0.2,0.3,0.4,0.5,0.5s0.5,0.2,0.8,0.2S418,76.4,418.3,76.3z"/>
	<path class="st1" d="M424.1,72.8c0.3,0.1,0.5,0.3,0.7,0.6c0.2,0.3,0.3,0.6,0.3,0.9s-0.1,0.7-0.3,0.9s-0.4,0.5-0.7,0.6
		c-0.3,0.1-0.7,0.2-1.1,0.2h-1v1.3h-1.1v-4.7h2.1C423.4,72.6,423.8,72.6,424.1,72.8z M423.7,74.9c0.2-0.1,0.3-0.3,0.3-0.6
		c0-0.3-0.1-0.5-0.3-0.6c-0.2-0.1-0.4-0.2-0.8-0.2H422v1.6h0.9C423.2,75.1,423.5,75,423.7,74.9z"/>
	<path class="st1" d="M429,72.8c0.3,0.1,0.5,0.3,0.7,0.6c0.2,0.3,0.3,0.6,0.3,0.9s-0.1,0.7-0.3,0.9c-0.2,0.3-0.4,0.5-0.7,0.6
		c-0.3,0.1-0.7,0.2-1.1,0.2h-1v1.3h-1.1v-4.7h2.1C428.3,72.6,428.7,72.6,429,72.8z M428.6,74.9c0.2-0.1,0.3-0.3,0.3-0.6
		c0-0.3-0.1-0.5-0.3-0.6c-0.2-0.1-0.4-0.2-0.8-0.2h-0.9v1.6h0.9C428.1,75.1,428.4,75,428.6,74.9z"/>
	<path class="st1" d="M431.7,77.1c-0.4-0.2-0.7-0.5-0.9-0.9c-0.2-0.4-0.3-0.8-0.3-1.3s0.1-0.9,0.3-1.3c0.2-0.4,0.5-0.7,0.9-0.9
		c0.4-0.2,0.8-0.3,1.3-0.3s0.9,0.1,1.3,0.3c0.4,0.2,0.7,0.5,0.9,0.9c0.2,0.4,0.3,0.8,0.3,1.3s-0.1,0.9-0.3,1.3
		c-0.2,0.4-0.5,0.7-0.9,0.9s-0.8,0.3-1.3,0.3C432.6,77.4,432.1,77.3,431.7,77.1z M433.8,76.3c0.2-0.1,0.4-0.3,0.5-0.5
		s0.2-0.5,0.2-0.8s-0.1-0.6-0.2-0.8c-0.1-0.2-0.3-0.4-0.5-0.5s-0.5-0.2-0.8-0.2s-0.5,0.1-0.8,0.2c-0.2,0.1-0.4,0.3-0.5,0.5
		s-0.2,0.5-0.2,0.8s0.1,0.6,0.2,0.8c0.1,0.2,0.3,0.4,0.5,0.5s0.5,0.2,0.8,0.2C433.4,76.5,433.6,76.4,433.8,76.3z"/>
	<path class="st1" d="M439.5,77.3l-0.9-1.3h-0.1h-1v1.3h-1.1v-4.7h2.1c0.4,0,0.8,0.1,1.1,0.2c0.3,0.1,0.5,0.3,0.7,0.6
		c0.2,0.3,0.3,0.6,0.3,0.9s-0.1,0.7-0.3,0.9c-0.2,0.3-0.4,0.5-0.7,0.6l1.1,1.5H439.5z M439.3,73.7c-0.2-0.1-0.4-0.2-0.8-0.2h-0.9
		v1.7h0.9c0.3,0,0.6-0.1,0.8-0.2c0.2-0.1,0.3-0.3,0.3-0.6C439.5,74,439.4,73.8,439.3,73.7z"/>
	<path class="st1" d="M442.4,73.5h-1.5v-0.9h4.1v0.9h-1.5v3.9h-1.1V73.5z"/>
	<path class="st1" d="M446.1,76.8c-0.4-0.4-0.6-0.9-0.6-1.6v-2.7h1.1v2.6c0,0.9,0.4,1.3,1.1,1.3c0.3,0,0.6-0.1,0.8-0.3
		c0.2-0.2,0.3-0.5,0.3-1v-2.6h1.1v2.7c0,0.7-0.2,1.2-0.6,1.6s-0.9,0.6-1.6,0.6C447,77.4,446.4,77.2,446.1,76.8z"/>
	<path class="st1" d="M455.2,72.6v4.7h-0.9l-2.4-2.9v2.9h-1.1v-4.7h0.9l2.4,2.9v-2.9H455.2z"/>
	<path class="st1" d="M456.4,72.6h1.1v4.7h-1.1V72.6z"/>
	<path class="st1" d="M459.6,73.5H458v-0.9h4.1v0.9h-1.5v3.9h-1.1v-3.9H459.6z"/>
	<path class="st1" d="M465,75.6v1.7h-1.1v-1.7l-1.8-3.1h1.2l1.3,2.1l1.3-2.1h1.1L465,75.6z"/>
</g>
<g>
	<path class="st1" d="M386.5,102h2.2c0.5,0,1,0.1,1.4,0.3c0.4,0.2,0.7,0.5,0.9,0.8c0.2,0.4,0.3,0.8,0.3,1.2s-0.1,0.9-0.3,1.2
		c-0.2,0.4-0.5,0.6-0.9,0.8c-0.4,0.2-0.9,0.3-1.4,0.3h-2.2V102z M388.6,105.8c0.5,0,0.9-0.1,1.1-0.4c0.3-0.3,0.4-0.6,0.4-1.1
		s-0.1-0.8-0.4-1.1c-0.3-0.3-0.7-0.4-1.1-0.4h-1v2.9L388.6,105.8L388.6,105.8z"/>
	<path class="st1" d="M395.8,105.8v0.9h-3.7V102h3.6v0.9h-2.5v1h2.2v0.9h-2.2v1.1L395.8,105.8L395.8,105.8z"/>
	<path class="st1" d="M397.2,106.6c-0.4-0.1-0.6-0.2-0.8-0.4l0.4-0.8c0.2,0.1,0.4,0.3,0.7,0.4c0.3,0.1,0.6,0.1,0.8,0.1
		c0.3,0,0.5,0,0.7-0.1c0.1-0.1,0.2-0.2,0.2-0.4c0-0.1,0-0.2-0.1-0.3c-0.1-0.1-0.2-0.1-0.3-0.2c-0.1,0-0.3-0.1-0.6-0.1
		c-0.4-0.1-0.7-0.2-0.9-0.3c-0.2-0.1-0.4-0.2-0.6-0.4c-0.2-0.2-0.2-0.4-0.2-0.8c0-0.3,0.1-0.5,0.2-0.7s0.4-0.4,0.7-0.5
		c0.3-0.1,0.7-0.2,1.1-0.2c0.3,0,0.6,0,0.9,0.1s0.5,0.2,0.8,0.3l-0.3,0.8c-0.4-0.2-0.9-0.4-1.3-0.4c-0.3,0-0.5,0-0.7,0.1
		c-0.1,0.1-0.2,0.2-0.2,0.4c0,0.2,0.1,0.3,0.3,0.4c0.2,0.1,0.4,0.2,0.8,0.2c0.4,0.1,0.7,0.2,0.9,0.3c0.2,0.1,0.4,0.2,0.6,0.4
		c0.2,0.2,0.2,0.4,0.2,0.8c0,0.3-0.1,0.5-0.2,0.7s-0.4,0.4-0.7,0.5c-0.3,0.1-0.7,0.2-1.1,0.2C397.9,106.8,397.5,106.7,397.2,106.6z"
		/>
	<path class="st1" d="M401,102h1.1v4.7H401V102z"/>
	<path class="st1" d="M406.4,104.3h1v1.9c-0.3,0.2-0.6,0.3-0.9,0.4s-0.7,0.2-1,0.2c-0.5,0-0.9-0.1-1.3-0.3c-0.4-0.2-0.7-0.5-0.9-0.9
		c-0.2-0.4-0.3-0.8-0.3-1.3s0.1-0.9,0.3-1.3c0.2-0.4,0.5-0.7,0.9-0.9c0.4-0.2,0.8-0.3,1.3-0.3c0.4,0,0.8,0.1,1.1,0.2
		c0.3,0.1,0.6,0.3,0.9,0.6l-0.7,0.7c-0.3-0.4-0.7-0.5-1.2-0.5c-0.3,0-0.6,0.1-0.8,0.2c-0.2,0.1-0.4,0.3-0.5,0.5s-0.2,0.5-0.2,0.8
		s0.1,0.6,0.2,0.8c0.1,0.2,0.3,0.4,0.5,0.5s0.5,0.2,0.8,0.2s0.6-0.1,0.9-0.2L406.4,104.3L406.4,104.3z"/>
	<path class="st1" d="M412.8,102v4.7h-0.9l-2.4-2.9v2.9h-1.1V102h0.9l2.4,2.9V102H412.8z"/>
	<path class="st1" d="M416.3,106.6c-0.4-0.1-0.6-0.2-0.8-0.4l0.4-0.8c0.2,0.1,0.4,0.3,0.7,0.4c0.3,0.1,0.6,0.1,0.8,0.1
		c0.3,0,0.5,0,0.7-0.1c0.1-0.1,0.2-0.2,0.2-0.4c0-0.1,0-0.2-0.1-0.3c-0.1-0.1-0.2-0.1-0.3-0.2c-0.1,0-0.3-0.1-0.6-0.1
		c-0.4-0.1-0.7-0.2-0.9-0.3c-0.2-0.1-0.4-0.2-0.6-0.4c-0.2-0.2-0.2-0.4-0.2-0.8c0-0.3,0.1-0.5,0.2-0.7s0.4-0.4,0.7-0.5
		c0.3-0.1,0.7-0.2,1.1-0.2c0.3,0,0.6,0,0.9,0.1s0.5,0.2,0.8,0.3l-0.3,0.8c-0.4-0.2-0.9-0.4-1.3-0.4c-0.3,0-0.5,0-0.7,0.1
		c-0.1,0.1-0.2,0.2-0.2,0.4c0,0.2,0.1,0.3,0.3,0.4c0.2,0.1,0.4,0.2,0.8,0.2c0.4,0.1,0.7,0.2,0.9,0.3c0.2,0.1,0.4,0.2,0.6,0.4
		c0.2,0.2,0.2,0.4,0.2,0.8c0,0.3-0.1,0.5-0.2,0.7c-0.2,0.2-0.4,0.4-0.7,0.5c-0.3,0.1-0.7,0.2-1.1,0.2
		C417,106.8,416.7,106.7,416.3,106.6z"/>
	<path class="st1" d="M421.1,102.9h-1.5V102h4.1v0.9h-1.5v3.9h-1.1V102.9z"/>
	<path class="st1" d="M427.3,106.7l-0.9-1.3h-0.1h-1v1.3h-1.1V102h2.1c0.4,0,0.8,0.1,1.1,0.2c0.3,0.1,0.5,0.3,0.7,0.6
		c0.2,0.3,0.3,0.6,0.3,0.9c0,0.4-0.1,0.7-0.3,0.9c-0.2,0.3-0.4,0.5-0.7,0.6l1.1,1.5H427.3z M427.1,103.1c-0.2-0.1-0.4-0.2-0.8-0.2
		h-0.9v1.7h0.9c0.3,0,0.6-0.1,0.8-0.2c0.2-0.1,0.3-0.3,0.3-0.6C427.3,103.4,427.2,103.2,427.1,103.1z"/>
	<path class="st1" d="M432.4,105.7h-2.2l-0.4,1h-1.1l2.1-4.7h1.1l2.1,4.7h-1.2L432.4,105.7z M432.1,104.9l-0.8-1.8l-0.8,1.8H432.1z"
		/>
	<path class="st1" d="M435.2,102.9h-1.5V102h4.1v0.9h-1.5v3.9h-1.1V102.9z"/>
	<path class="st1" d="M442.1,105.8v0.9h-3.7V102h3.6v0.9h-2.5v1h2.2v0.9h-2.2v1.1L442.1,105.8L442.1,105.8z"/>
	<path class="st1" d="M446.2,104.3h1v1.9c-0.3,0.2-0.6,0.3-0.9,0.4s-0.7,0.2-1,0.2c-0.5,0-0.9-0.1-1.3-0.3c-0.4-0.2-0.7-0.5-0.9-0.9
		c-0.2-0.4-0.3-0.8-0.3-1.3s0.1-0.9,0.3-1.3c0.2-0.4,0.5-0.7,0.9-0.9c0.4-0.2,0.8-0.3,1.3-0.3c0.4,0,0.8,0.1,1.1,0.2
		c0.3,0.1,0.6,0.3,0.9,0.6l-0.7,0.7c-0.3-0.4-0.7-0.5-1.2-0.5c-0.3,0-0.6,0.1-0.8,0.2c-0.2,0.1-0.4,0.3-0.5,0.5s-0.2,0.5-0.2,0.8
		s0.1,0.6,0.2,0.8c0.1,0.2,0.3,0.4,0.5,0.5s0.5,0.2,0.8,0.2s0.6-0.1,0.9-0.2L446.2,104.3L446.2,104.3z"/>
	<path class="st1" d="M450.5,105v1.7h-1.1V105l-1.8-3.1h1.2l1.3,2.1l1.3-2.1h1.1L450.5,105z"/>
</g>
<g>
	<path class="st1" d="M387.5,136.4c-0.4-0.2-0.7-0.5-0.9-0.9c-0.2-0.4-0.3-0.8-0.3-1.3s0.1-0.9,0.3-1.3c0.2-0.4,0.5-0.7,0.9-0.9
		s0.8-0.3,1.3-0.3c0.4,0,0.8,0.1,1.1,0.2c0.3,0.1,0.6,0.4,0.8,0.6l-0.7,0.7c-0.3-0.4-0.7-0.6-1.2-0.6c-0.3,0-0.6,0.1-0.8,0.2
		c-0.2,0.1-0.4,0.3-0.5,0.5s-0.2,0.5-0.2,0.8s0.1,0.6,0.2,0.8s0.3,0.4,0.5,0.5s0.5,0.2,0.8,0.2c0.5,0,0.9-0.2,1.2-0.6l0.7,0.7
		c-0.2,0.3-0.5,0.5-0.8,0.6s-0.7,0.2-1.1,0.2C388.3,136.7,387.9,136.6,387.5,136.4z"/>
	<path class="st1" d="M392.4,136.4c-0.4-0.2-0.7-0.5-0.9-0.9c-0.2-0.4-0.3-0.8-0.3-1.3s0.1-0.9,0.3-1.3c0.2-0.4,0.5-0.7,0.9-0.9
		s0.8-0.3,1.3-0.3s0.9,0.1,1.3,0.3s0.7,0.5,0.9,0.9c0.2,0.4,0.3,0.8,0.3,1.3s-0.1,0.9-0.3,1.3c-0.2,0.4-0.5,0.7-0.9,0.9
		s-0.8,0.3-1.3,0.3C393.2,136.7,392.8,136.6,392.4,136.4z M394.5,135.6c0.2-0.1,0.4-0.3,0.5-0.5s0.2-0.5,0.2-0.8s-0.1-0.6-0.2-0.8
		s-0.3-0.4-0.5-0.5s-0.5-0.2-0.8-0.2s-0.5,0.1-0.8,0.2c-0.2,0.1-0.4,0.3-0.5,0.5s-0.2,0.5-0.2,0.8s0.1,0.6,0.2,0.8s0.3,0.4,0.5,0.5
		s0.5,0.2,0.8,0.2S394.2,135.7,394.5,135.6z"/>
	<path class="st1" d="M401.5,131.9v4.7h-0.9l-2.4-2.9v2.9h-1.1v-4.7h0.9l2.4,2.9v-2.9H401.5z"/>
	<path class="st1" d="M407,131.9v4.7h-0.9l-2.4-2.9v2.9h-1.1v-4.7h0.9l2.4,2.9v-2.9H407z"/>
	<path class="st1" d="M411.8,135.8v0.9h-3.7V132h3.6v0.9h-2.5v1h2.2v0.9h-2.2v1.1L411.8,135.8L411.8,135.8z"/>
	<path class="st1" d="M413.6,136.4c-0.4-0.2-0.7-0.5-0.9-0.9c-0.2-0.4-0.3-0.8-0.3-1.3s0.1-0.9,0.3-1.3c0.2-0.4,0.5-0.7,0.9-0.9
		s0.8-0.3,1.3-0.3c0.4,0,0.8,0.1,1.1,0.2c0.3,0.1,0.6,0.4,0.8,0.6l-0.7,0.7c-0.3-0.4-0.7-0.6-1.2-0.6c-0.3,0-0.6,0.1-0.8,0.2
		c-0.2,0.1-0.4,0.3-0.5,0.5s-0.2,0.5-0.2,0.8s0.1,0.6,0.2,0.8s0.3,0.4,0.5,0.5s0.5,0.2,0.8,0.2c0.5,0,0.9-0.2,1.2-0.6l0.7,0.7
		c-0.2,0.3-0.5,0.5-0.8,0.6s-0.7,0.2-1.1,0.2C414.4,136.7,414,136.6,413.6,136.4z"/>
	<path class="st1" d="M418.5,132.8H417v-0.9h4.1v0.9h-1.5v3.9h-1.1V132.8z"/>
	<path class="st1" d="M421.7,131.9h1.1v4.7h-1.1V131.9z"/>
	<path class="st1" d="M424.9,136.4c-0.4-0.2-0.7-0.5-0.9-0.9c-0.2-0.4-0.3-0.8-0.3-1.3s0.1-0.9,0.3-1.3c0.2-0.4,0.5-0.7,0.9-0.9
		s0.8-0.3,1.3-0.3s0.9,0.1,1.3,0.3s0.7,0.5,0.9,0.9c0.2,0.4,0.3,0.8,0.3,1.3s-0.1,0.9-0.3,1.3c-0.2,0.4-0.5,0.7-0.9,0.9
		s-0.8,0.3-1.3,0.3C425.8,136.7,425.3,136.6,424.9,136.4z M427,135.6c0.2-0.1,0.4-0.3,0.5-0.5s0.2-0.5,0.2-0.8s-0.1-0.6-0.2-0.8
		s-0.3-0.4-0.5-0.5s-0.5-0.2-0.8-0.2s-0.5,0.1-0.8,0.2c-0.2,0.1-0.4,0.3-0.5,0.5s-0.2,0.5-0.2,0.8s0.1,0.6,0.2,0.8s0.3,0.4,0.5,0.5
		s0.5,0.2,0.8,0.2S426.8,135.7,427,135.6z"/>
	<path class="st1" d="M434,131.9v4.7h-0.9l-2.4-2.9v2.9h-1.1v-4.7h0.9l2.4,2.9v-2.9H434z"/>
	<path class="st1" d="M440.2,132.1c0.3,0.1,0.5,0.3,0.7,0.6s0.3,0.6,0.3,0.9c0,0.3-0.1,0.7-0.3,0.9c-0.2,0.3-0.4,0.5-0.7,0.6
		c-0.3,0.1-0.7,0.2-1.1,0.2h-1v1.3H437v-4.7h2.1C439.6,131.9,439.9,132,440.2,132.1z M439.8,134.2c0.2-0.1,0.3-0.3,0.3-0.6
		s-0.1-0.5-0.3-0.6c-0.2-0.1-0.4-0.2-0.8-0.2h-0.9v1.6h0.9C439.4,134.5,439.7,134.4,439.8,134.2z"/>
	<path class="st1" d="M442,131.9h1.1v3.9h2.4v0.9H442V131.9z"/>
	<path class="st1" d="M449.2,135.6H447l-0.4,1h-1.1l2.1-4.7h1.1l2.1,4.7h-1.2L449.2,135.6z M448.9,134.8l-0.8-1.8l-0.8,1.8H448.9z"
		/>
	<path class="st1" d="M455.7,131.9v4.7h-0.9l-2.4-2.9v2.9h-1.1v-4.7h0.9l2.4,2.9v-2.9H455.7z"/>
	<path class="st1" d="M457.3,136.6c-0.4-0.1-0.6-0.2-0.8-0.4l0.4-0.8c0.2,0.1,0.4,0.3,0.7,0.4c0.3,0.1,0.6,0.1,0.8,0.1
		c0.3,0,0.5,0,0.7-0.1c0.1-0.1,0.2-0.2,0.2-0.4c0-0.1,0-0.2-0.1-0.3s-0.2-0.1-0.3-0.2c-0.1,0-0.3-0.1-0.6-0.1
		c-0.4-0.1-0.7-0.2-0.9-0.3c-0.2-0.1-0.4-0.2-0.6-0.4s-0.2-0.4-0.2-0.8c0-0.3,0.1-0.5,0.2-0.7s0.4-0.4,0.7-0.5
		c0.3-0.1,0.7-0.2,1.1-0.2c0.3,0,0.6,0,0.9,0.1s0.5,0.2,0.8,0.3l-0.3,0.8c-0.4-0.2-0.9-0.4-1.3-0.4c-0.3,0-0.5,0-0.7,0.1
		c-0.1,0.1-0.2,0.2-0.2,0.4s0.1,0.3,0.3,0.4c0.2,0.1,0.4,0.2,0.8,0.2c0.4,0.1,0.7,0.2,0.9,0.3c0.2,0.1,0.4,0.2,0.6,0.4
		s0.2,0.4,0.2,0.8c0,0.3-0.1,0.5-0.2,0.7c-0.2,0.2-0.4,0.4-0.7,0.5c-0.3,0.1-0.7,0.2-1.1,0.2C458,136.7,457.6,136.7,457.3,136.6z"/>
</g>
<g>
	<path class="st1" d="M386.5,161.9h1.1v4.7h-1.1V161.9z"/>
	<path class="st1" d="M393.1,166.6v-2.8l-1.4,2.3h-0.5l-1.4-2.3v2.8h-1v-4.7h0.9l1.8,3l1.7-3h0.9v4.7H393.1z"/>
	<path class="st1" d="M398.4,162.1c0.3,0.1,0.5,0.3,0.7,0.6s0.3,0.6,0.3,0.9c0,0.3-0.1,0.7-0.3,0.9c-0.2,0.3-0.4,0.5-0.7,0.6
		c-0.3,0.1-0.7,0.2-1.1,0.2h-1v1.3h-1.1v-4.7h2.1C397.7,161.9,398.1,161.9,398.4,162.1z M398,164.2c0.2-0.1,0.3-0.3,0.3-0.6
		s-0.1-0.5-0.3-0.6c-0.2-0.1-0.4-0.2-0.8-0.2h-0.9v1.6h0.9C397.6,164.4,397.8,164.3,398,164.2z"/>
	<path class="st1" d="M403.2,166.6l-0.9-1.3h-0.1h-1v1.3h-1.1v-4.7h2.1c0.4,0,0.8,0.1,1.1,0.2c0.3,0.1,0.5,0.3,0.7,0.6
		s0.3,0.6,0.3,0.9c0,0.4-0.1,0.7-0.3,0.9c-0.2,0.3-0.4,0.5-0.7,0.6l1.1,1.5H403.2z M402.9,163c-0.2-0.1-0.4-0.2-0.8-0.2h-0.9v1.7
		h0.9c0.3,0,0.6-0.1,0.8-0.2c0.2-0.1,0.3-0.3,0.3-0.6C403.1,163.3,403,163.1,402.9,163z"/>
	<path class="st1" d="M406.1,166.4c-0.4-0.2-0.7-0.5-0.9-0.9c-0.2-0.4-0.3-0.8-0.3-1.3s0.1-0.9,0.3-1.3c0.2-0.4,0.5-0.7,0.9-0.9
		s0.8-0.3,1.3-0.3s0.9,0.1,1.3,0.3s0.7,0.5,0.9,0.9c0.2,0.4,0.3,0.8,0.3,1.3s-0.1,0.9-0.3,1.3c-0.2,0.4-0.5,0.7-0.9,0.9
		s-0.8,0.3-1.3,0.3S406.5,166.6,406.1,166.4z M408.2,165.6c0.2-0.1,0.4-0.3,0.5-0.5s0.2-0.5,0.2-0.8s-0.1-0.6-0.2-0.8
		s-0.3-0.4-0.5-0.5s-0.5-0.2-0.8-0.2s-0.5,0.1-0.8,0.2c-0.2,0.1-0.4,0.3-0.5,0.5s-0.2,0.5-0.2,0.8s0.1,0.6,0.2,0.8s0.3,0.4,0.5,0.5
		s0.5,0.2,0.8,0.2S407.9,165.7,408.2,165.6z"/>
	<path class="st1" d="M415.2,161.9l-2.1,4.7H412l-2-4.7h1.2l1.4,3.4l1.5-3.4H415.2z"/>
	<path class="st1" d="M419.3,165.7v0.9h-3.7v-4.7h3.6v0.9h-2.5v1h2.2v0.9h-2.2v1.1L419.3,165.7L419.3,165.7z"/>
	<path class="st1" d="M425.1,166.6l-0.9-1.3h-0.1h-1v1.3H422v-4.7h2.1c0.4,0,0.8,0.1,1.1,0.2c0.3,0.1,0.5,0.3,0.7,0.6
		s0.3,0.6,0.3,0.9c0,0.4-0.1,0.7-0.3,0.9c-0.2,0.3-0.4,0.5-0.7,0.6l1.1,1.5H425.1z M424.9,163c-0.2-0.1-0.4-0.2-0.8-0.2h-0.9v1.7
		h0.9c0.3,0,0.6-0.1,0.8-0.2c0.2-0.1,0.3-0.3,0.3-0.6C425.1,163.3,425,163.1,424.9,163z"/>
	<path class="st1" d="M428.1,166.4c-0.4-0.2-0.7-0.5-0.9-0.9c-0.2-0.4-0.3-0.8-0.3-1.3s0.1-0.9,0.3-1.3c0.2-0.4,0.5-0.7,0.9-0.9
		s0.8-0.3,1.3-0.3s0.9,0.1,1.3,0.3s0.7,0.5,0.9,0.9c0.2,0.4,0.3,0.8,0.3,1.3s-0.1,0.9-0.3,1.3c-0.2,0.4-0.5,0.7-0.9,0.9
		s-0.8,0.3-1.3,0.3S428.5,166.6,428.1,166.4z M430.2,165.6c0.2-0.1,0.4-0.3,0.5-0.5s0.2-0.5,0.2-0.8s-0.1-0.6-0.2-0.8
		s-0.3-0.4-0.5-0.5s-0.5-0.2-0.8-0.2s-0.5,0.1-0.8,0.2c-0.2,0.1-0.4,0.3-0.5,0.5s-0.2,0.5-0.2,0.8s0.1,0.6,0.2,0.8s0.3,0.4,0.5,0.5
		s0.5,0.2,0.8,0.2S429.9,165.7,430.2,165.6z"/>
	<path class="st1" d="M432.8,161.9h1.1v4.7h-1.1V161.9z"/>
</g>
<g>
	<path class="st1" d="M593,46.4c0.2,0.2,0.2,0.4,0.2,0.7c0,0.4-0.2,0.7-0.5,1c-0.3,0.2-0.8,0.3-1.4,0.3h-2.5v-4.7h2.3
		c0.6,0,1,0.1,1.3,0.3s0.5,0.5,0.5,0.9c0,0.2-0.1,0.4-0.2,0.6c-0.1,0.2-0.3,0.3-0.5,0.4C592.6,46.1,592.8,46.2,593,46.4z M590,44.6
		v1.1h1.1c0.3,0,0.5,0,0.6-0.1s0.2-0.2,0.2-0.4s-0.1-0.3-0.2-0.4c-0.1-0.1-0.3-0.1-0.6-0.1L590,44.6L590,44.6z M591.9,47.5
		c0.1-0.1,0.2-0.2,0.2-0.4c0-0.4-0.3-0.6-0.9-0.6H590v1.2h1.3C591.5,47.7,591.8,47.6,591.9,47.5z"/>
	<path class="st1" d="M594.6,48c-0.4-0.4-0.6-0.9-0.6-1.6v-2.7h1.1v2.6c0,0.9,0.4,1.3,1.1,1.3c0.3,0,0.6-0.1,0.8-0.3s0.3-0.5,0.3-1
		v-2.6h1.1v2.7c0,0.7-0.2,1.2-0.6,1.6s-0.9,0.6-1.6,0.6S595,48.4,594.6,48z"/>
	<path class="st1" d="M599.9,48.4c-0.4-0.1-0.6-0.2-0.8-0.4l0.4-0.8c0.2,0.1,0.4,0.3,0.7,0.4s0.6,0.1,0.8,0.1c0.3,0,0.5,0,0.7-0.1
		c0.1-0.1,0.2-0.2,0.2-0.4c0-0.1,0-0.2-0.1-0.3s-0.2-0.1-0.3-0.2c-0.1,0-0.3-0.1-0.6-0.1c-0.4-0.1-0.7-0.2-0.9-0.3s-0.4-0.2-0.6-0.4
		c-0.2-0.2-0.2-0.4-0.2-0.8c0-0.3,0.1-0.5,0.2-0.7c0.1-0.2,0.4-0.4,0.7-0.5s0.7-0.2,1.1-0.2c0.3,0,0.6,0,0.9,0.1
		c0.3,0.1,0.5,0.2,0.8,0.3l-0.3,0.8c-0.4-0.2-0.9-0.4-1.3-0.4c-0.3,0-0.5,0.1-0.7,0.1c-0.1,0.1-0.2,0.2-0.2,0.4s0.1,0.3,0.3,0.4
		c0.2,0.1,0.4,0.2,0.8,0.2c0.4,0.1,0.7,0.2,0.9,0.3s0.4,0.2,0.6,0.4c0.2,0.2,0.2,0.4,0.2,0.8c0,0.3-0.1,0.5-0.2,0.7
		c-0.2,0.2-0.4,0.4-0.7,0.5s-0.7,0.2-1.1,0.2C600.6,48.6,600.2,48.5,599.9,48.4z"/>
	<path class="st1" d="M603.7,43.7h1.1v4.7h-1.1V43.7z"/>
	<path class="st1" d="M610.3,43.7v4.7h-0.9l-2.4-2.9v2.9h-1v-4.7h0.9l2.4,2.9v-2.9H610.3z"/>
	<path class="st1" d="M615.1,47.6v0.9h-3.7v-4.7h3.6v0.9h-2.5v1h2.2v0.9h-2.2v1.1h2.6V47.6z"/>
	<path class="st1" d="M616.5,48.4c-0.4-0.1-0.6-0.2-0.8-0.4l0.4-0.8c0.2,0.1,0.4,0.3,0.7,0.4s0.6,0.1,0.8,0.1c0.3,0,0.5,0,0.7-0.1
		c0.1-0.1,0.2-0.2,0.2-0.4c0-0.1,0-0.2-0.1-0.3s-0.2-0.1-0.3-0.2c-0.1,0-0.3-0.1-0.6-0.1c-0.4-0.1-0.7-0.2-0.9-0.3s-0.4-0.2-0.6-0.4
		c-0.2-0.2-0.2-0.4-0.2-0.8c0-0.3,0.1-0.5,0.2-0.7c0.1-0.2,0.4-0.4,0.7-0.5s0.7-0.2,1.1-0.2c0.3,0,0.6,0,0.9,0.1s0.5,0.2,0.8,0.3
		l-0.3,0.8c-0.4-0.2-0.9-0.4-1.3-0.4c-0.3,0-0.5,0.1-0.7,0.1c-0.1,0.1-0.2,0.2-0.2,0.4s0.1,0.3,0.3,0.4c0.2,0.1,0.4,0.2,0.8,0.2
		c0.4,0.1,0.7,0.2,0.9,0.3s0.4,0.2,0.6,0.4c0.2,0.2,0.2,0.4,0.2,0.8c0,0.3-0.1,0.5-0.2,0.7c-0.2,0.2-0.4,0.4-0.7,0.5
		s-0.7,0.2-1.1,0.2C617.2,48.6,616.8,48.5,616.5,48.4z"/>
	<path class="st1" d="M620.8,48.4c-0.4-0.1-0.6-0.2-0.8-0.4l0.4-0.8c0.2,0.1,0.4,0.3,0.7,0.4s0.6,0.1,0.8,0.1c0.3,0,0.5,0,0.7-0.1
		c0.1-0.1,0.2-0.2,0.2-0.4c0-0.1,0-0.2-0.1-0.3s-0.2-0.1-0.3-0.2s-0.3-0.1-0.6-0.1c-0.4-0.1-0.7-0.2-0.9-0.3s-0.4-0.2-0.6-0.4
		c-0.2-0.2-0.2-0.4-0.2-0.8c0-0.3,0.1-0.5,0.2-0.7c0.1-0.2,0.4-0.4,0.7-0.5s0.7-0.2,1.1-0.2c0.3,0,0.6,0,0.9,0.1
		c0.3,0.1,0.5,0.2,0.8,0.3l-0.3,0.8c-0.4-0.2-0.9-0.4-1.3-0.4c-0.3,0-0.5,0.1-0.7,0.1c-0.1,0.1-0.2,0.2-0.2,0.4s0.1,0.3,0.3,0.4
		c0.2,0.1,0.4,0.2,0.8,0.2c0.4,0.1,0.7,0.2,0.9,0.3s0.4,0.2,0.6,0.4c0.2,0.2,0.2,0.4,0.2,0.8c0,0.3-0.1,0.5-0.2,0.7
		c-0.2,0.2-0.4,0.4-0.7,0.5s-0.7,0.2-1.1,0.2C621.5,48.6,621.1,48.5,620.8,48.4z"/>
	<path class="st1" d="M627.5,48.3c-0.4-0.2-0.7-0.5-0.9-0.9s-0.3-0.8-0.3-1.3s0.1-0.9,0.3-1.3c0.2-0.4,0.5-0.7,0.9-0.9
		s0.8-0.3,1.3-0.3c0.4,0,0.8,0.1,1.1,0.2c0.3,0.1,0.6,0.4,0.8,0.6l-0.7,0.7c-0.3-0.4-0.7-0.6-1.2-0.6c-0.3,0-0.6,0.1-0.8,0.2
		c-0.2,0.1-0.4,0.3-0.5,0.5s-0.2,0.5-0.2,0.8s0.1,0.6,0.2,0.8c0.1,0.2,0.3,0.4,0.5,0.5s0.5,0.2,0.8,0.2c0.5,0,0.9-0.2,1.2-0.6
		l0.7,0.7c-0.2,0.3-0.5,0.5-0.8,0.6s-0.7,0.2-1.1,0.2C628.4,48.6,627.9,48.5,627.5,48.3z"/>
	<path class="st1" d="M632.4,48.3c-0.4-0.2-0.7-0.5-0.9-0.9s-0.3-0.8-0.3-1.3s0.1-0.9,0.3-1.3c0.2-0.4,0.5-0.7,0.9-0.9
		s0.8-0.3,1.3-0.3s0.9,0.1,1.3,0.3c0.4,0.2,0.7,0.5,0.9,0.9s0.3,0.8,0.3,1.3s-0.1,0.9-0.3,1.3c-0.2,0.4-0.5,0.7-0.9,0.9
		s-0.8,0.3-1.3,0.3S632.8,48.5,632.4,48.3z M634.5,47.4c0.2-0.1,0.4-0.3,0.5-0.5s0.2-0.5,0.2-0.8s-0.1-0.6-0.2-0.8
		c-0.1-0.2-0.3-0.4-0.5-0.5s-0.5-0.2-0.8-0.2s-0.5,0.1-0.8,0.2c-0.2,0.1-0.4,0.3-0.5,0.5s-0.2,0.5-0.2,0.8s0.1,0.6,0.2,0.8
		c0.1,0.2,0.3,0.4,0.5,0.5s0.5,0.2,0.8,0.2C634,47.6,634.3,47.6,634.5,47.4z"/>
	<path class="st1" d="M641.5,43.7v4.7h-0.9l-2.4-2.9v2.9h-1.1v-4.7h0.9l2.4,2.9v-2.9H641.5z"/>
	<path class="st1" d="M643.6,44.6h-1.5v-0.9h4.1v0.9h-1.5v3.9h-1.1V44.6z"/>
	<path class="st1" d="M650.5,47.6v0.9h-3.7v-4.7h3.6v0.9h-2.5v1h2.2v0.9h-2.2v1.1h2.6V47.6z"/>
	<path class="st1" d="M654.3,48.5l-1.1-1.6l-1.1,1.6h-1.3l1.8-2.4l-1.7-2.3h1.2l1.1,1.5l1.1-1.5h1.2l-1.7,2.3l1.8,2.5L654.3,48.5
		L654.3,48.5z"/>
	<path class="st1" d="M657,44.6h-1.5v-0.9h4.1v0.9h-1.5v3.9H657V44.6z"/>
	<path class="st1" d="M665.2,47.5H663l-0.4,1h-1.1l2.1-4.7h1.1l2.1,4.7h-1.2L665.2,47.5z M664.9,46.6l-0.8-1.8l-0.8,1.8H664.9z"/>
	<path class="st1" d="M671.6,43.7v4.7h-0.9l-2.4-2.9v2.9h-1.1v-4.7h0.9l2.4,2.9v-2.9H671.6z"/>
	<path class="st1" d="M672.8,43.7h2.2c0.5,0,1,0.1,1.4,0.3s0.7,0.5,0.9,0.8c0.2,0.4,0.3,0.8,0.3,1.2s-0.1,0.9-0.3,1.2
		c-0.2,0.4-0.5,0.6-0.9,0.8s-0.9,0.3-1.4,0.3h-2.2V43.7z M674.9,47.6c0.5,0,0.9-0.1,1.1-0.4c0.3-0.3,0.4-0.6,0.4-1.1
		s-0.1-0.8-0.4-1.1c-0.3-0.3-0.7-0.4-1.1-0.4h-1v2.9L674.9,47.6L674.9,47.6z"/>
	<path class="st1" d="M682,46.6l-0.6,0.7v1.2h-1.1v-4.7h1.1V46l2.1-2.2h1.2l-2,2.1l2.1,2.6h-1.3L682,46.6z"/>
	<path class="st1" d="M688.5,43.9c0.3,0.1,0.5,0.3,0.7,0.6s0.3,0.6,0.3,0.9c0,0.3-0.1,0.7-0.3,0.9c-0.2,0.3-0.4,0.5-0.7,0.6
		s-0.7,0.2-1.1,0.2h-1v1.3h-1.1v-4.7h2.1C687.8,43.7,688.1,43.8,688.5,43.9z M688.1,46.1c0.2-0.1,0.3-0.3,0.3-0.6s-0.1-0.5-0.3-0.6
		s-0.4-0.2-0.8-0.2h-0.9v1.6h0.9C687.6,46.3,687.9,46.2,688.1,46.1z"/>
	<path class="st1" d="M690.2,43.7h1.1v4.7h-1.1V43.7z"/>
	<path class="st1" d="M692.9,48.4c-0.3-0.1-0.4-0.1-0.6-0.3l0.3-0.6c0.1,0.1,0.3,0.2,0.5,0.3c0.2,0.1,0.4,0.1,0.6,0.1
		c0.2,0,0.4,0,0.5-0.1c0.1-0.1,0.1-0.1,0.1-0.3c0-0.1,0-0.1-0.1-0.2c-0.1-0.1-0.1-0.1-0.2-0.1c-0.1-0.1-0.2-0.1-0.4-0.1
		c-0.3-0.1-0.5-0.1-0.6-0.2c-0.1-0.1-0.3-0.1-0.4-0.3s-0.1-0.3-0.1-0.6c0-0.2,0.1-0.4,0.1-0.5s0.3-0.3,0.5-0.4
		c0.2-0.1,0.5-0.1,0.8-0.1c0.2,0,0.4,0,0.6,0.1c0.2,0.1,0.4,0.1,0.6,0.2l-0.2,0.6c-0.3-0.1-0.6-0.3-0.9-0.3c-0.2,0-0.4,0.1-0.5,0.1
		c-0.1,0.1-0.1,0.1-0.1,0.3s0.1,0.2,0.2,0.3s0.3,0.1,0.6,0.1c0.3,0.1,0.5,0.1,0.6,0.2c0.1,0.1,0.3,0.1,0.4,0.3
		c0.1,0.1,0.1,0.3,0.1,0.6c0,0.2-0.1,0.4-0.1,0.5c-0.1,0.1-0.3,0.3-0.5,0.4c-0.2,0.1-0.5,0.1-0.8,0.1
		C693.4,48.5,693.1,48.5,692.9,48.4z"/>
</g>
<g>
	<path class="st1" d="M589.8,73.7c-0.4-0.2-0.7-0.5-0.9-0.9s-0.3-0.8-0.3-1.3s0.1-0.9,0.3-1.3s0.5-0.7,0.9-0.9
		c0.4-0.2,0.8-0.3,1.3-0.3s0.9,0.1,1.3,0.3c0.4,0.2,0.7,0.5,0.9,0.9s0.3,0.8,0.3,1.3s-0.1,0.9-0.3,1.3s-0.5,0.7-0.9,0.9
		s-0.8,0.3-1.3,0.3C590.7,74,590.2,73.9,589.8,73.7z M591.9,72.9c0.2-0.1,0.4-0.3,0.5-0.5s0.2-0.5,0.2-0.8s-0.1-0.6-0.2-0.8
		c-0.1-0.2-0.3-0.4-0.5-0.5s-0.5-0.2-0.8-0.2s-0.5,0.1-0.8,0.2c-0.2,0.1-0.4,0.3-0.5,0.5s-0.2,0.5-0.2,0.8s0.1,0.6,0.2,0.8
		c0.1,0.2,0.3,0.4,0.5,0.5s0.5,0.2,0.8,0.2S591.7,73,591.9,72.9z"/>
	<path class="st1" d="M595.1,73.9c-0.4-0.1-0.6-0.2-0.8-0.4l0.4-0.8c0.2,0.1,0.4,0.3,0.7,0.4s0.6,0.1,0.8,0.1c0.3,0,0.5,0,0.7-0.1
		c0.1-0.1,0.2-0.2,0.2-0.4c0-0.1,0-0.2-0.1-0.3c-0.1-0.1-0.2-0.1-0.3-0.2c-0.1,0-0.3-0.1-0.6-0.1c-0.4-0.1-0.7-0.2-0.9-0.3
		c-0.2-0.1-0.4-0.2-0.6-0.4c-0.2-0.2-0.2-0.4-0.2-0.8c0-0.3,0.1-0.5,0.2-0.7c0.1-0.2,0.4-0.4,0.7-0.5s0.7-0.2,1.1-0.2
		c0.3,0,0.6,0,0.9,0.1c0.3,0.1,0.5,0.2,0.8,0.3l-0.3,0.8c-0.4-0.2-0.9-0.4-1.3-0.4c-0.3,0-0.5,0.1-0.7,0.1s-0.2,0.2-0.2,0.4
		c0,0.2,0.1,0.3,0.3,0.4s0.4,0.2,0.8,0.2c0.4,0.1,0.7,0.2,0.9,0.3c0.2,0.1,0.4,0.2,0.6,0.4c0.2,0.2,0.2,0.4,0.2,0.8
		c0,0.3-0.1,0.5-0.2,0.7c-0.2,0.2-0.4,0.4-0.7,0.5s-0.7,0.2-1.1,0.2C595.8,74,595.4,74,595.1,73.9z"/>
	<path class="st1" d="M602.6,73v0.9h-3.7v-4.7h3.6v0.9H600v1h2.2V72H600v1H602.6z"/>
	<path class="st1" d="M606.6,69.4c0.3,0.1,0.5,0.3,0.7,0.6c0.2,0.3,0.3,0.6,0.3,0.9s-0.1,0.7-0.3,0.9c-0.2,0.3-0.4,0.5-0.7,0.6
		s-0.7,0.2-1.1,0.2h-1v1.3h-1.1v-4.7h2.1C606,69.2,606.3,69.2,606.6,69.4z M606.2,71.5c0.2-0.1,0.3-0.3,0.3-0.6
		c0-0.3-0.1-0.5-0.3-0.6s-0.4-0.2-0.8-0.2h-0.9v1.6h0.9C605.8,71.7,606.1,71.6,606.2,71.5z"/>
	<path class="st1" d="M610.2,71.1h1.9v0.8h-1.9V71.1z"/>
	<path class="st1" d="M616,70.1h-1.5v-0.9h4.1v0.9h-1.5V74H616V70.1z"/>
	<path class="st1" d="M620.1,73.7c-0.4-0.2-0.7-0.5-0.9-0.9s-0.3-0.8-0.3-1.3s0.1-0.9,0.3-1.3s0.5-0.7,0.9-0.9
		c0.4-0.2,0.8-0.3,1.3-0.3s0.9,0.1,1.3,0.3c0.4,0.2,0.7,0.5,0.9,0.9s0.3,0.8,0.3,1.3s-0.1,0.9-0.3,1.3s-0.5,0.7-0.9,0.9
		c-0.4,0.2-0.8,0.3-1.3,0.3C621,74,620.5,73.9,620.1,73.7z M622.2,72.9c0.2-0.1,0.4-0.3,0.5-0.5s0.2-0.5,0.2-0.8s-0.1-0.6-0.2-0.8
		c-0.1-0.2-0.3-0.4-0.5-0.5s-0.5-0.2-0.8-0.2s-0.5,0.1-0.8,0.2c-0.2,0.1-0.4,0.3-0.5,0.5s-0.2,0.5-0.2,0.8s0.1,0.6,0.2,0.8
		c0.1,0.2,0.3,0.4,0.5,0.5s0.5,0.2,0.8,0.2S622,73,622.2,72.9z"/>
	<path class="st1" d="M625.8,70.1h-1.5v-0.9h4.1v0.9h-1.5V74h-1.1V70.1z"/>
	<path class="st1" d="M631.9,72.9h-2.2l-0.4,1h-1.1l2.1-4.7h1.1l2.1,4.7h-1.2L631.9,72.9z M631.6,72.1l-0.8-1.8l-0.8,1.8H631.6z"/>
	<path class="st1" d="M634,69.2h1.1V73h2.4v0.9H634V69.2z"/>
	<path class="st1" d="M641,70.1h-1.5v-0.9h4.1v0.9h-1.5V74H641V70.1z"/>
	<path class="st1" d="M645.1,73.7c-0.4-0.2-0.7-0.5-0.9-0.9s-0.3-0.8-0.3-1.3s0.1-0.9,0.3-1.3s0.5-0.7,0.9-0.9
		c0.4-0.2,0.8-0.3,1.3-0.3s0.9,0.1,1.3,0.3c0.4,0.2,0.7,0.5,0.9,0.9s0.3,0.8,0.3,1.3s-0.1,0.9-0.3,1.3s-0.5,0.7-0.9,0.9
		s-0.8,0.3-1.3,0.3C645.9,74,645.5,73.9,645.1,73.7z M647.2,72.9c0.2-0.1,0.4-0.3,0.5-0.5s0.2-0.5,0.2-0.8s-0.1-0.6-0.2-0.8
		c-0.1-0.2-0.3-0.4-0.5-0.5s-0.5-0.2-0.8-0.2s-0.5,0.1-0.8,0.2c-0.2,0.1-0.4,0.3-0.5,0.5s-0.2,0.5-0.2,0.8s0.1,0.6,0.2,0.8
		c0.1,0.2,0.3,0.4,0.5,0.5s0.5,0.2,0.8,0.2S646.9,73,647.2,72.9z"/>
	<path class="st1" d="M650.4,73.4c-0.4-0.4-0.6-0.9-0.6-1.6v-2.7h1.1v2.6c0,0.9,0.4,1.3,1.1,1.3c0.3,0,0.6-0.1,0.8-0.3
		c0.2-0.2,0.3-0.5,0.3-1v-2.6h1.1v2.7c0,0.7-0.2,1.2-0.6,1.6c-0.4,0.4-0.9,0.6-1.6,0.6C651.3,74,650.7,73.8,650.4,73.4z"/>
	<path class="st1" d="M656.1,73.7c-0.4-0.2-0.7-0.5-0.9-0.9s-0.3-0.8-0.3-1.3s0.1-0.9,0.3-1.3s0.5-0.7,0.9-0.9
		c0.4-0.2,0.8-0.3,1.3-0.3c0.4,0,0.8,0.1,1.1,0.2s0.6,0.4,0.8,0.6l-0.7,0.7c-0.3-0.4-0.7-0.6-1.2-0.6c-0.3,0-0.6,0.1-0.8,0.2
		s-0.4,0.3-0.5,0.5s-0.2,0.5-0.2,0.8s0.1,0.6,0.2,0.8c0.1,0.2,0.3,0.4,0.5,0.5s0.5,0.2,0.8,0.2c0.5,0,0.9-0.2,1.2-0.6l0.7,0.7
		c-0.2,0.3-0.5,0.5-0.8,0.6s-0.7,0.2-1.1,0.2C657,74,656.5,73.9,656.1,73.7z"/>
	<path class="st1" d="M664.5,69.2v4.7h-1.1V72h-2.2v1.9h-1.1v-4.7h1.1V71h2.2v-1.9L664.5,69.2L664.5,69.2z"/>
	<path class="st1" d="M668.8,69.4c0.3,0.1,0.5,0.3,0.7,0.6c0.2,0.3,0.3,0.6,0.3,0.9s-0.1,0.7-0.3,0.9c-0.2,0.3-0.4,0.5-0.7,0.6
		s-0.7,0.2-1.1,0.2h-1v1.3h-1.1v-4.7h2.1C668.1,69.2,668.5,69.2,668.8,69.4z M668.4,71.5c0.2-0.1,0.3-0.3,0.3-0.6
		c0-0.3-0.1-0.5-0.3-0.6s-0.4-0.2-0.8-0.2h-0.9v1.6h0.9C668,71.7,668.2,71.6,668.4,71.5z"/>
	<path class="st1" d="M671.6,73.7c-0.4-0.2-0.7-0.5-0.9-0.9s-0.3-0.8-0.3-1.3s0.1-0.9,0.3-1.3s0.5-0.7,0.9-0.9
		c0.4-0.2,0.8-0.3,1.3-0.3s0.9,0.1,1.3,0.3c0.4,0.2,0.7,0.5,0.9,0.9s0.3,0.8,0.3,1.3s-0.1,0.9-0.3,1.3s-0.5,0.7-0.9,0.9
		s-0.8,0.3-1.3,0.3C672.4,74,672,73.9,671.6,73.7z M673.7,72.9c0.2-0.1,0.4-0.3,0.5-0.5s0.2-0.5,0.2-0.8s-0.1-0.6-0.2-0.8
		c-0.1-0.2-0.3-0.4-0.5-0.5s-0.5-0.2-0.8-0.2s-0.5,0.1-0.8,0.2c-0.2,0.1-0.4,0.3-0.5,0.5s-0.2,0.5-0.2,0.8s0.1,0.6,0.2,0.8
		c0.1,0.2,0.3,0.4,0.5,0.5s0.5,0.2,0.8,0.2S673.4,73,673.7,72.9z"/>
	<path class="st1" d="M676.3,69.2h1.1v4.7h-1.1V69.2z"/>
	<path class="st1" d="M682.9,69.2v4.7H682l-2.4-2.9v2.9h-1.1v-4.7h0.9l2.4,2.9v-2.9H682.9z"/>
	<path class="st1" d="M685,70.1h-1.5v-0.9h4.1v0.9h-1.5V74H685V70.1z"/>
	<path class="st1" d="M592,81h-2.2l-0.4,1h-1.1l2.1-4.7h1.1l2.1,4.7h-1.2L592,81z M591.7,80.2l-0.8-1.8l-0.8,1.8H591.7z"/>
	<path class="st1" d="M598.4,77.3V82h-0.9l-2.4-2.9V82H594v-4.7h0.9l2.4,2.9v-2.9H598.4z"/>
	<path class="st1" d="M602.7,81h-2.2l-0.4,1H599l2.1-4.7h1.1l2.1,4.7h-1.2L602.7,81z M602.3,80.2l-0.8-1.8l-0.8,1.8H602.3z"/>
	<path class="st1" d="M604.7,77.3h1.1v3.9h2.4v0.9h-3.5V77.3z"/>
	<path class="st1" d="M610.6,80.4v1.7h-1.1v-1.7l-1.8-3.1h1.2l1.3,2.1l1.3-2.1h1.1L610.6,80.4z"/>
	<path class="st1" d="M613.3,82c-0.4-0.1-0.6-0.2-0.8-0.4l0.4-0.8c0.2,0.1,0.4,0.3,0.7,0.4s0.6,0.1,0.8,0.1c0.3,0,0.5,0,0.7-0.1
		c0.1-0.1,0.2-0.2,0.2-0.4c0-0.1,0-0.2-0.1-0.3c-0.1-0.1-0.2-0.1-0.3-0.2c-0.1,0-0.3-0.1-0.6-0.1c-0.4-0.1-0.7-0.2-0.9-0.3
		c-0.2-0.1-0.4-0.2-0.6-0.4c-0.2-0.2-0.2-0.4-0.2-0.8c0-0.3,0.1-0.5,0.2-0.7c0.1-0.2,0.4-0.4,0.7-0.5s0.7-0.2,1.1-0.2
		c0.3,0,0.6,0,0.9,0.1c0.3,0.1,0.5,0.2,0.8,0.3l-0.3,0.8c-0.4-0.2-0.9-0.4-1.3-0.4c-0.3,0-0.5,0.1-0.7,0.1c-0.1,0.1-0.2,0.2-0.2,0.4
		c0,0.2,0.1,0.3,0.3,0.4s0.4,0.2,0.8,0.2c0.4,0.1,0.7,0.2,0.9,0.3c0.2,0.1,0.4,0.2,0.6,0.4c0.2,0.2,0.2,0.4,0.2,0.8
		c0,0.3-0.1,0.5-0.2,0.7c-0.2,0.2-0.4,0.4-0.7,0.5s-0.7,0.2-1.1,0.2C614,82.1,613.7,82.1,613.3,82z"/>
	<path class="st1" d="M617.2,77.3h1.1V82h-1.1V77.3z"/>
	<path class="st1" d="M619.9,82c-0.4-0.1-0.6-0.2-0.8-0.4l0.4-0.8c0.2,0.1,0.4,0.3,0.7,0.4s0.6,0.1,0.8,0.1c0.3,0,0.5,0,0.7-0.1
		c0.1-0.1,0.2-0.2,0.2-0.4c0-0.1,0-0.2-0.1-0.3c-0.1-0.1-0.2-0.1-0.3-0.2c-0.1,0-0.3-0.1-0.6-0.1c-0.4-0.1-0.7-0.2-0.9-0.3
		c-0.2-0.1-0.4-0.2-0.6-0.4c-0.2-0.2-0.2-0.4-0.2-0.8c0-0.3,0.1-0.5,0.2-0.7c0.1-0.2,0.4-0.4,0.7-0.5s0.7-0.2,1.1-0.2
		c0.3,0,0.6,0,0.9,0.1c0.3,0.1,0.5,0.2,0.8,0.3l-0.3,0.8c-0.4-0.2-0.9-0.4-1.3-0.4c-0.3,0-0.5,0.1-0.7,0.1c-0.1,0.1-0.2,0.2-0.2,0.4
		c0,0.2,0.1,0.3,0.3,0.4s0.4,0.2,0.8,0.2c0.4,0.1,0.7,0.2,0.9,0.3c0.2,0.1,0.4,0.2,0.6,0.4c0.2,0.2,0.2,0.4,0.2,0.8
		c0,0.3-0.1,0.5-0.2,0.7c-0.2,0.2-0.4,0.4-0.7,0.5s-0.7,0.2-1.1,0.2C620.6,82.1,620.2,82.1,619.9,82z"/>
	<path class="st1" d="M629.3,81.2v0.9h-3.7v-4.7h3.6v0.9h-2.5v1h2.2v0.9h-2.2v1.1h2.6V81.2z"/>
	<path class="st1" d="M631.3,78.2v1.3h2.2v0.9h-2.2v1.7h-1.1v-4.7h3.6v0.9h-2.5V78.2z"/>
	<path class="st1" d="M635.6,78.2v1.3h2.2v0.9h-2.2v1.7h-1.1v-4.7h3.6v0.9h-2.5V78.2z"/>
	<path class="st1" d="M638.9,77.3h1.1V82h-1.1V77.3z"/>
	<path class="st1" d="M642,81.8c-0.4-0.2-0.7-0.5-0.9-0.9s-0.3-0.8-0.3-1.3s0.1-0.9,0.3-1.3s0.5-0.7,0.9-0.9
		c0.4-0.2,0.8-0.3,1.3-0.3c0.4,0,0.8,0.1,1.1,0.2s0.6,0.4,0.8,0.6l-0.7,0.7c-0.3-0.4-0.7-0.6-1.2-0.6c-0.3,0-0.6,0.1-0.8,0.2
		s-0.4,0.3-0.5,0.5s-0.2,0.5-0.2,0.8s0.1,0.6,0.2,0.8c0.1,0.2,0.3,0.4,0.5,0.5s0.5,0.2,0.8,0.2c0.5,0,0.9-0.2,1.2-0.6l0.7,0.7
		c-0.2,0.3-0.5,0.5-0.8,0.6s-0.7,0.2-1.1,0.2C642.9,82.1,642.4,82,642,81.8z"/>
	<path class="st1" d="M646.1,77.3h1.1V82h-1.1V77.3z"/>
	<path class="st1" d="M652,81.2v0.9h-3.7v-4.7h3.6v0.9h-2.5v1h2.2v0.9h-2.2v1.1h2.6V81.2z"/>
	<path class="st1" d="M657.2,77.3V82h-0.9l-2.4-2.9V82h-1.1v-4.7h0.9l2.4,2.9v-2.9H657.2z"/>
	<path class="st1" d="M659.3,81.8c-0.4-0.2-0.7-0.5-0.9-0.9s-0.3-0.8-0.3-1.3s0.1-0.9,0.3-1.3s0.5-0.7,0.9-0.9
		c0.4-0.2,0.8-0.3,1.3-0.3c0.4,0,0.8,0.1,1.1,0.2s0.6,0.4,0.8,0.6l-0.7,0.7c-0.3-0.4-0.7-0.6-1.2-0.6c-0.3,0-0.6,0.1-0.8,0.2
		s-0.4,0.3-0.5,0.5s-0.2,0.5-0.2,0.8s0.1,0.6,0.2,0.8c0.1,0.2,0.3,0.4,0.5,0.5s0.5,0.2,0.8,0.2c0.5,0,0.9-0.2,1.2-0.6l0.7,0.7
		c-0.2,0.3-0.5,0.5-0.8,0.6s-0.7,0.2-1.1,0.2C660.1,82.1,659.7,82,659.3,81.8z"/>
	<path class="st1" d="M663.3,77.3h1.1V82h-1.1V77.3z"/>
	<path class="st1" d="M669.2,81.2v0.9h-3.7v-4.7h3.6v0.9h-2.5v1h2.2v0.9h-2.2v1.1h2.6V81.2z"/>
	<path class="st1" d="M670.5,82c-0.4-0.1-0.6-0.2-0.8-0.4l0.4-0.8c0.2,0.1,0.4,0.3,0.7,0.4s0.6,0.1,0.8,0.1c0.3,0,0.5,0,0.7-0.1
		c0.1-0.1,0.2-0.2,0.2-0.4c0-0.1,0-0.2-0.1-0.3c-0.1-0.1-0.2-0.1-0.3-0.2c-0.1,0-0.3-0.1-0.6-0.1c-0.4-0.1-0.7-0.2-0.9-0.3
		c-0.2-0.1-0.4-0.2-0.6-0.4c-0.2-0.2-0.2-0.4-0.2-0.8c0-0.3,0.1-0.5,0.2-0.7c0.1-0.2,0.4-0.4,0.7-0.5s0.7-0.2,1.1-0.2
		c0.3,0,0.6,0,0.9,0.1c0.3,0.1,0.5,0.2,0.8,0.3l-0.3,0.8c-0.4-0.2-0.9-0.4-1.3-0.4c-0.3,0-0.5,0.1-0.7,0.1c-0.1,0.1-0.2,0.2-0.2,0.4
		c0,0.2,0.1,0.3,0.3,0.4s0.4,0.2,0.8,0.2c0.4,0.1,0.7,0.2,0.9,0.3c0.2,0.1,0.4,0.2,0.6,0.4c0.2,0.2,0.2,0.4,0.2,0.8
		c0,0.3-0.1,0.5-0.2,0.7c-0.2,0.2-0.4,0.4-0.7,0.5s-0.7,0.2-1.1,0.2C671.2,82.1,670.9,82.1,670.5,82z"/>
</g>
<g>
	<path class="st1" d="M589.8,103.1c-0.4-0.2-0.7-0.5-0.9-0.9s-0.3-0.8-0.3-1.3s0.1-0.9,0.3-1.3s0.5-0.7,0.9-0.9
		c0.4-0.2,0.8-0.3,1.3-0.3c0.4,0,0.8,0.1,1.1,0.2s0.6,0.4,0.8,0.6l-0.7,0.7c-0.3-0.4-0.7-0.6-1.2-0.6c-0.3,0-0.6,0.1-0.8,0.2
		s-0.4,0.3-0.5,0.5s-0.2,0.5-0.2,0.8s0.1,0.6,0.2,0.8c0.1,0.2,0.3,0.4,0.5,0.5s0.5,0.2,0.8,0.2c0.5,0,0.9-0.2,1.2-0.6l0.7,0.7
		c-0.2,0.3-0.5,0.5-0.8,0.6s-0.7,0.2-1.1,0.2C590.7,103.4,590.2,103.3,589.8,103.1z"/>
	<path class="st1" d="M594.7,103.1c-0.4-0.2-0.7-0.5-0.9-0.9s-0.3-0.8-0.3-1.3s0.1-0.9,0.3-1.3s0.5-0.7,0.9-0.9
		c0.4-0.2,0.8-0.3,1.3-0.3s0.9,0.1,1.3,0.3c0.4,0.2,0.7,0.5,0.9,0.9s0.3,0.8,0.3,1.3s-0.1,0.9-0.3,1.3s-0.5,0.7-0.9,0.9
		c-0.4,0.2-0.8,0.3-1.3,0.3C595.6,103.4,595.1,103.3,594.7,103.1z M596.8,102.3c0.2-0.1,0.4-0.3,0.5-0.5s0.2-0.5,0.2-0.8
		s-0.1-0.6-0.2-0.8s-0.3-0.4-0.5-0.5s-0.5-0.2-0.8-0.2s-0.5,0.1-0.8,0.2c-0.2,0.1-0.4,0.3-0.5,0.5s-0.2,0.5-0.2,0.8s0.1,0.6,0.2,0.8
		c0.1,0.2,0.3,0.4,0.5,0.5s0.5,0.2,0.8,0.2S596.6,102.4,596.8,102.3z"/>
	<path class="st1" d="M603.8,98.6v4.7h-0.9l-2.4-2.9v2.9h-1.1v-4.7h0.9l2.4,2.9v-2.9H603.8z"/>
	<path class="st1" d="M605.4,103.2c-0.4-0.1-0.6-0.2-0.8-0.4l0.4-0.8c0.2,0.1,0.4,0.3,0.7,0.4s0.6,0.1,0.8,0.1c0.3,0,0.5,0,0.7-0.1
		c0.1-0.1,0.2-0.2,0.2-0.4c0-0.1,0-0.2-0.1-0.3s-0.2-0.1-0.3-0.2c-0.1,0-0.3-0.1-0.6-0.1c-0.4-0.1-0.7-0.2-0.9-0.3
		c-0.2-0.1-0.4-0.2-0.6-0.4c-0.2-0.2-0.2-0.4-0.2-0.8c0-0.3,0.1-0.5,0.2-0.7c0.1-0.2,0.4-0.4,0.7-0.5s0.7-0.2,1.1-0.2
		c0.3,0,0.6,0,0.9,0.1c0.3,0.1,0.5,0.2,0.8,0.3l-0.3,0.8c-0.4-0.2-0.9-0.4-1.3-0.4c-0.3,0-0.5,0-0.7,0.1c-0.1,0.1-0.2,0.2-0.2,0.4
		c0,0.2,0.1,0.3,0.3,0.4s0.4,0.2,0.8,0.2c0.4,0.1,0.7,0.2,0.9,0.3c0.2,0.1,0.4,0.2,0.6,0.4c0.2,0.2,0.2,0.4,0.2,0.8
		c0,0.3-0.1,0.5-0.2,0.7s-0.4,0.4-0.7,0.5s-0.7,0.2-1.1,0.2C606.1,103.4,605.8,103.3,605.4,103.2z"/>
	<path class="st1" d="M609.8,102.8c-0.4-0.4-0.6-0.9-0.6-1.6v-2.7h1.1v2.6c0,0.9,0.4,1.3,1.1,1.3c0.3,0,0.6-0.1,0.8-0.3
		c0.2-0.2,0.3-0.5,0.3-1v-2.6h1.1v2.7c0,0.7-0.2,1.2-0.6,1.6c-0.4,0.4-0.9,0.6-1.6,0.6S610.2,103.2,609.8,102.8z"/>
	<path class="st1" d="M618.9,103.3v-2.8l-1.4,2.3H617l-1.4-2.3v2.8h-1v-4.7h0.9l1.8,3l1.7-3h0.9v4.7H618.9z"/>
	<path class="st1" d="M624.8,102.4v0.9h-3.7v-4.7h3.6v0.9h-2.5v1h2.2v0.9h-2.2v1.1h2.6V102.4z"/>
	<path class="st1" d="M628.7,103.3l-0.9-1.3h-0.1h-1v1.3h-1.1v-4.7h2.1c0.4,0,0.8,0.1,1.1,0.2s0.5,0.3,0.7,0.6
		c0.2,0.3,0.3,0.6,0.3,0.9c0,0.4-0.1,0.7-0.3,0.9c-0.2,0.3-0.4,0.5-0.7,0.6l1.1,1.5H628.7z M628.4,99.7c-0.2-0.1-0.4-0.2-0.8-0.2
		h-0.9v1.7h0.9c0.3,0,0.6-0.1,0.8-0.2s0.3-0.3,0.3-0.6C628.7,100,628.6,99.8,628.4,99.7z"/>
	<path class="st1" d="M636.2,103.4l-0.6-0.5c-0.5,0.4-1,0.5-1.6,0.5c-0.3,0-0.7-0.1-0.9-0.2c-0.3-0.1-0.5-0.3-0.6-0.5
		s-0.2-0.4-0.2-0.7c0-0.3,0.1-0.6,0.2-0.8c0.2-0.2,0.4-0.4,0.8-0.6c-0.2-0.2-0.3-0.3-0.4-0.5c-0.1-0.2-0.1-0.3-0.1-0.5
		s0.1-0.4,0.2-0.6c0.1-0.2,0.3-0.3,0.5-0.4s0.5-0.1,0.8-0.1c0.4,0,0.7,0.1,1,0.3c0.2,0.2,0.4,0.5,0.4,0.8c0,0.2-0.1,0.5-0.2,0.7
		c-0.1,0.2-0.4,0.4-0.7,0.5l0.9,0.8c0.1-0.2,0.2-0.5,0.2-0.7l0.8,0.3c-0.1,0.4-0.2,0.8-0.4,1.1l0.6,0.5L636.2,103.4z M635,102.3
		l-1.1-1.1c-0.2,0.1-0.4,0.2-0.5,0.4c-0.1,0.1-0.1,0.3-0.1,0.4c0,0.2,0.1,0.3,0.2,0.4c0.2,0.1,0.4,0.2,0.6,0.2
		C634.5,102.6,634.7,102.5,635,102.3z M633.9,99.3c-0.1,0.1-0.1,0.2-0.1,0.3c0,0.1,0,0.2,0.1,0.3s0.1,0.2,0.3,0.3
		c0.2-0.1,0.4-0.2,0.5-0.3s0.1-0.2,0.1-0.3c0-0.1,0-0.2-0.1-0.3c-0.1-0.1-0.2-0.1-0.3-0.1C634.1,99.2,634,99.3,633.9,99.3z"/>
	<path class="st1" d="M640.4,103.1c-0.4-0.2-0.7-0.5-0.9-0.9s-0.3-0.8-0.3-1.3s0.1-0.9,0.3-1.3s0.5-0.7,0.9-0.9
		c0.4-0.2,0.8-0.3,1.3-0.3c0.4,0,0.8,0.1,1.1,0.2s0.6,0.4,0.8,0.6l-0.7,0.7c-0.3-0.4-0.7-0.6-1.2-0.6c-0.3,0-0.6,0.1-0.8,0.2
		s-0.4,0.3-0.5,0.5s-0.2,0.5-0.2,0.8s0.1,0.6,0.2,0.8c0.1,0.2,0.3,0.4,0.5,0.5s0.5,0.2,0.8,0.2c0.5,0,0.9-0.2,1.2-0.6l0.7,0.7
		c-0.2,0.3-0.5,0.5-0.8,0.6s-0.7,0.2-1.1,0.2C641.2,103.4,640.8,103.3,640.4,103.1z"/>
	<path class="st1" d="M645.2,103.1c-0.4-0.2-0.7-0.5-0.9-0.9s-0.3-0.8-0.3-1.3s0.1-0.9,0.3-1.3s0.5-0.7,0.9-0.9
		c0.4-0.2,0.8-0.3,1.3-0.3s0.9,0.1,1.3,0.3c0.4,0.2,0.7,0.5,0.9,0.9s0.3,0.8,0.3,1.3s-0.1,0.9-0.3,1.3s-0.5,0.7-0.9,0.9
		c-0.4,0.2-0.8,0.3-1.3,0.3C646.1,103.4,645.6,103.3,645.2,103.1z M647.3,102.3c0.2-0.1,0.4-0.3,0.5-0.5s0.2-0.5,0.2-0.8
		s-0.1-0.6-0.2-0.8s-0.3-0.4-0.5-0.5s-0.5-0.2-0.8-0.2s-0.5,0.1-0.8,0.2c-0.2,0.1-0.4,0.3-0.5,0.5s-0.2,0.5-0.2,0.8s0.1,0.6,0.2,0.8
		c0.1,0.2,0.3,0.4,0.5,0.5s0.5,0.2,0.8,0.2S647.1,102.4,647.3,102.3z"/>
	<path class="st1" d="M654.4,98.6v4.7h-0.9l-2.4-2.9v2.9H650v-4.7h0.9l2.4,2.9v-2.9H654.4z"/>
	<path class="st1" d="M659.8,98.6v4.7h-0.9l-2.4-2.9v2.9h-1.1v-4.7h0.9l2.4,2.9v-2.9H659.8z"/>
	<path class="st1" d="M664.6,102.4v0.9H661v-4.7h3.6v0.9h-2.5v1h2.2v0.9h-2.2v1.1h2.5V102.4z"/>
	<path class="st1" d="M666.5,103.1c-0.4-0.2-0.7-0.5-0.9-0.9s-0.3-0.8-0.3-1.3s0.1-0.9,0.3-1.3s0.5-0.7,0.9-0.9
		c0.4-0.2,0.8-0.3,1.3-0.3c0.4,0,0.8,0.1,1.1,0.2s0.6,0.4,0.8,0.6L669,100c-0.3-0.4-0.7-0.6-1.2-0.6c-0.3,0-0.6,0.1-0.8,0.2
		s-0.4,0.3-0.5,0.5s-0.2,0.5-0.2,0.8s0.1,0.6,0.2,0.8c0.1,0.2,0.3,0.4,0.5,0.5s0.5,0.2,0.8,0.2c0.5,0,0.9-0.2,1.2-0.6l0.7,0.7
		c-0.2,0.3-0.5,0.5-0.8,0.6s-0.7,0.2-1.1,0.2C667.3,103.4,666.9,103.3,666.5,103.1z"/>
	<path class="st1" d="M671.4,99.5h-1.5v-0.9h4.1v0.9h-1.5v3.9h-1.1V99.5z"/>
	<path class="st1" d="M674.6,98.6h1.1v4.7h-1.1V98.6z"/>
	<path class="st1" d="M677.8,103.1c-0.4-0.2-0.7-0.5-0.9-0.9s-0.3-0.8-0.3-1.3s0.1-0.9,0.3-1.3s0.5-0.7,0.9-0.9
		c0.4-0.2,0.8-0.3,1.3-0.3s0.9,0.1,1.3,0.3c0.4,0.2,0.7,0.5,0.9,0.9s0.3,0.8,0.3,1.3s-0.1,0.9-0.3,1.3s-0.5,0.7-0.9,0.9
		c-0.4,0.2-0.8,0.3-1.3,0.3S678.2,103.3,677.8,103.1z M679.9,102.3c0.2-0.1,0.4-0.3,0.5-0.5s0.2-0.5,0.2-0.8s-0.1-0.6-0.2-0.8
		s-0.3-0.4-0.5-0.5s-0.5-0.2-0.8-0.2s-0.5,0.1-0.8,0.2c-0.2,0.1-0.4,0.3-0.5,0.5s-0.2,0.5-0.2,0.8s0.1,0.6,0.2,0.8
		c0.1,0.2,0.3,0.4,0.5,0.5s0.5,0.2,0.8,0.2S679.7,102.4,679.9,102.3z"/>
	<path class="st1" d="M686.9,98.6v4.7H686l-2.4-2.9v2.9h-1.1v-4.7h0.9l2.4,2.9v-2.9H686.9z"/>
	<path class="st1" d="M589.3,111.4c-0.4-0.1-0.6-0.2-0.8-0.4l0.4-0.8c0.2,0.1,0.4,0.3,0.7,0.4s0.6,0.1,0.8,0.1c0.3,0,0.5,0,0.7-0.1
		c0.1-0.1,0.2-0.2,0.2-0.4c0-0.1,0-0.2-0.1-0.3c-0.1-0.1-0.2-0.1-0.3-0.2c-0.1,0-0.3-0.1-0.6-0.2c-0.4-0.1-0.7-0.2-0.9-0.3
		s-0.4-0.2-0.6-0.4c-0.2-0.2-0.2-0.4-0.2-0.8c0-0.3,0.1-0.5,0.2-0.7c0.1-0.2,0.4-0.4,0.7-0.5s0.7-0.2,1.1-0.2c0.3,0,0.6,0,0.9,0.1
		c0.3,0.1,0.5,0.2,0.8,0.3l-0.3,0.8c-0.4-0.2-0.9-0.4-1.3-0.4c-0.3,0-0.5,0.1-0.7,0.2c-0.1,0.1-0.2,0.2-0.2,0.4s0.1,0.3,0.3,0.4
		s0.4,0.2,0.8,0.2c0.4,0.1,0.7,0.2,0.9,0.3s0.4,0.2,0.6,0.4c0.2,0.2,0.2,0.4,0.2,0.8c0,0.3-0.1,0.5-0.2,0.7
		c-0.2,0.2-0.4,0.4-0.7,0.5s-0.7,0.2-1.1,0.2C590.1,111.5,589.7,111.5,589.3,111.4z"/>
	<path class="st1" d="M594.1,107.6h-1.5v-0.9h4.1v0.9h-1.5v3.9h-1.1V107.6z"/>
	<path class="st1" d="M600.4,111.5l-0.9-1.3h-0.1h-1v1.3h-1.1v-4.7h2.1c0.4,0,0.8,0.1,1.1,0.2s0.5,0.3,0.7,0.6
		c0.2,0.3,0.3,0.6,0.3,0.9c0,0.4-0.1,0.7-0.3,0.9c-0.2,0.3-0.4,0.5-0.7,0.6l1.1,1.5H600.4z M600.1,107.8c-0.2-0.1-0.4-0.2-0.8-0.2
		h-0.9v1.7h0.9c0.3,0,0.6-0.1,0.8-0.2s0.3-0.3,0.3-0.6C600.3,108.2,600.2,108,600.1,107.8z"/>
	<path class="st1" d="M605.4,110.4h-2.2l-0.4,1h-1.1l2.1-4.7h1.1l2.1,4.7h-1.2L605.4,110.4z M605.1,109.6l-0.8-1.8l-0.8,1.8H605.1z"
		/>
	<path class="st1" d="M608.3,107.6h-1.5v-0.9h4.1v0.9h-1.5v3.9h-1.1V107.6z"/>
	<path class="st1" d="M615.1,110.6v0.9h-3.7v-4.7h3.6v0.9h-2.5v1h2.2v0.9h-2.2v1.1h2.6V110.6z"/>
	<path class="st1" d="M619.2,109h1v1.9c-0.3,0.2-0.6,0.3-0.9,0.4c-0.3,0.1-0.7,0.2-1,0.2c-0.5,0-0.9-0.1-1.3-0.3
		c-0.4-0.2-0.7-0.5-0.9-0.9s-0.3-0.8-0.3-1.3s0.1-0.9,0.3-1.3s0.5-0.7,0.9-0.9c0.4-0.2,0.8-0.3,1.3-0.3c0.4,0,0.8,0.1,1.1,0.2
		s0.6,0.3,0.9,0.6l-0.7,0.7c-0.3-0.4-0.7-0.5-1.2-0.5c-0.3,0-0.6,0.1-0.8,0.2s-0.4,0.3-0.5,0.5s-0.2,0.5-0.2,0.8s0.1,0.6,0.2,0.8
		c0.1,0.2,0.3,0.4,0.5,0.5s0.5,0.2,0.8,0.2s0.6-0.1,0.9-0.2L619.2,109L619.2,109z"/>
	<path class="st1" d="M623.5,109.8v1.7h-1.1v-1.7l-1.8-3.1h1.2l1.3,2.1l1.3-2.1h1.1L623.5,109.8z"/>
</g>
<g>
	<path class="st1" d="M593.2,131.6v-2.8l-1.4,2.3h-0.5l-1.4-2.3v2.8h-1v-4.7h0.9l1.8,3l1.7-3h0.9v4.7H593.2z"/>
	<path class="st1" d="M599,130.7v0.9h-3.7v-4.7h3.6v0.9h-2.5v1h2.2v0.9h-2.2v1.1L599,130.7L599,130.7z"/>
	<path class="st1" d="M603,130.6h-2.2l-0.4,1h-1.1l2.1-4.7h1.1l2.1,4.7h-1.2L603,130.6z M602.7,129.7l-0.8-1.8l-0.8,1.8H602.7z"/>
	<path class="st1" d="M609.5,126.8v4.7h-0.9l-2.4-2.9v2.9h-1.1v-4.7h0.9l2.4,2.9v-2.9C608.4,126.8,609.5,126.8,609.5,126.8z"/>
	<path class="st1" d="M610.6,126.8h1.1v4.7h-1.1V126.8z"/>
	<path class="st1" d="M617.2,126.8v4.7h-0.9l-2.4-2.9v2.9h-1.1v-4.7h0.9l2.4,2.9v-2.9C616.1,126.8,617.2,126.8,617.2,126.8z"/>
	<path class="st1" d="M621.5,129.1h1v1.9c-0.3,0.2-0.6,0.3-0.9,0.4c-0.3,0.1-0.7,0.2-1,0.2c-0.5,0-0.9-0.1-1.3-0.3
		c-0.4-0.2-0.7-0.5-0.9-0.9s-0.3-0.8-0.3-1.3s0.1-0.9,0.3-1.3c0.2-0.4,0.5-0.7,0.9-0.9c0.4-0.2,0.8-0.3,1.3-0.3
		c0.4,0,0.8,0.1,1.1,0.2s0.6,0.3,0.9,0.6l-0.7,0.7c-0.3-0.4-0.7-0.5-1.2-0.5c-0.3,0-0.6,0.1-0.8,0.2s-0.4,0.3-0.5,0.5
		s-0.2,0.5-0.2,0.8s0.1,0.6,0.2,0.8c0.1,0.2,0.3,0.4,0.5,0.5s0.5,0.2,0.8,0.2s0.6-0.1,0.9-0.2L621.5,129.1L621.5,129.1z"/>
	<path class="st1" d="M624.6,127.7v1.3h2.2v0.9h-2.2v1.7h-1.1v-4.7h3.6v0.9L624.6,127.7L624.6,127.7z"/>
	<path class="st1" d="M628.4,131.1c-0.4-0.4-0.6-0.9-0.6-1.6v-2.7h1.1v2.6c0,0.9,0.4,1.3,1.1,1.3c0.3,0,0.6-0.1,0.8-0.3
		s0.3-0.5,0.3-1v-2.6h1.1v2.7c0,0.7-0.2,1.2-0.6,1.6c-0.4,0.4-0.9,0.6-1.6,0.6C629.3,131.7,628.8,131.5,628.4,131.1z"/>
	<path class="st1" d="M633.2,126.8h1.1v3.9h2.4v0.9h-3.5V126.8z"/>
	<path class="st1" d="M640.2,131.3c-0.4-0.2-0.7-0.5-0.9-0.9s-0.3-0.8-0.3-1.3s0.1-0.9,0.3-1.3c0.2-0.4,0.5-0.7,0.9-0.9
		c0.4-0.2,0.8-0.3,1.3-0.3c0.4,0,0.8,0.1,1.1,0.2s0.6,0.4,0.8,0.6l-0.7,0.7c-0.3-0.4-0.7-0.6-1.2-0.6c-0.3,0-0.6,0.1-0.8,0.2
		s-0.4,0.3-0.5,0.5c-0.1,0.2-0.2,0.5-0.2,0.8s0.1,0.6,0.2,0.8c0.1,0.2,0.3,0.4,0.5,0.5s0.5,0.2,0.8,0.2c0.5,0,0.9-0.2,1.2-0.6
		l0.7,0.7c-0.2,0.3-0.5,0.5-0.8,0.6s-0.7,0.2-1.1,0.2C641,131.7,640.6,131.6,640.2,131.3z"/>
	<path class="st1" d="M645,131.3c-0.4-0.2-0.7-0.5-0.9-0.9s-0.3-0.8-0.3-1.3s0.1-0.9,0.3-1.3c0.2-0.4,0.5-0.7,0.9-0.9
		c0.4-0.2,0.8-0.3,1.3-0.3s0.9,0.1,1.3,0.3c0.4,0.2,0.7,0.5,0.9,0.9c0.2,0.4,0.3,0.8,0.3,1.3s-0.1,0.9-0.3,1.3
		c-0.2,0.4-0.5,0.7-0.9,0.9s-0.8,0.3-1.3,0.3C645.9,131.7,645.4,131.5,645,131.3z M647.1,130.5c0.2-0.1,0.4-0.3,0.5-0.5
		s0.2-0.5,0.2-0.8s-0.1-0.6-0.2-0.8c-0.1-0.2-0.3-0.4-0.5-0.5s-0.5-0.2-0.8-0.2s-0.5,0.1-0.8,0.2c-0.2,0.1-0.4,0.3-0.5,0.5
		s-0.2,0.5-0.2,0.8s0.1,0.6,0.2,0.8c0.1,0.2,0.3,0.4,0.5,0.5s0.5,0.2,0.8,0.2S646.9,130.7,647.1,130.5z"/>
	<path class="st1" d="M654.2,126.8v4.7h-0.9l-2.4-2.9v2.9h-1.1v-4.7h0.9l2.4,2.9v-2.9C653.1,126.8,654.2,126.8,654.2,126.8z"/>
	<path class="st1" d="M659.6,126.8v4.7h-0.9l-2.4-2.9v2.9h-1.1v-4.7h0.9l2.4,2.9v-2.9C658.5,126.8,659.6,126.8,659.6,126.8z"/>
	<path class="st1" d="M664.4,130.7v0.9h-3.7v-4.7h3.6v0.9h-2.5v1h2.2v0.9h-2.2v1.1L664.4,130.7L664.4,130.7z"/>
	<path class="st1" d="M666.3,131.3c-0.4-0.2-0.7-0.5-0.9-0.9s-0.3-0.8-0.3-1.3s0.1-0.9,0.3-1.3c0.2-0.4,0.5-0.7,0.9-0.9
		c0.4-0.2,0.8-0.3,1.3-0.3c0.4,0,0.8,0.1,1.1,0.2s0.6,0.4,0.8,0.6l-0.7,0.7c-0.3-0.4-0.7-0.6-1.2-0.6c-0.3,0-0.6,0.1-0.8,0.2
		s-0.4,0.3-0.5,0.5c-0.1,0.2-0.2,0.5-0.2,0.8s0.1,0.6,0.2,0.8c0.1,0.2,0.3,0.4,0.5,0.5s0.5,0.2,0.8,0.2c0.5,0,0.9-0.2,1.2-0.6
		l0.7,0.7c-0.2,0.3-0.5,0.5-0.8,0.6s-0.7,0.2-1.1,0.2C667.1,131.7,666.7,131.6,666.3,131.3z"/>
	<path class="st1" d="M671.2,127.7h-1.5v-0.9h4.1v0.9h-1.5v3.9h-1.1V127.7z"/>
	<path class="st1" d="M674.4,126.8h1.1v4.7h-1.1V126.8z"/>
	<path class="st1" d="M677.6,131.3c-0.4-0.2-0.7-0.5-0.9-0.9s-0.3-0.8-0.3-1.3s0.1-0.9,0.3-1.3c0.2-0.4,0.5-0.7,0.9-0.9
		c0.4-0.2,0.8-0.3,1.3-0.3s0.9,0.1,1.3,0.3c0.4,0.2,0.7,0.5,0.9,0.9c0.2,0.4,0.3,0.8,0.3,1.3s-0.1,0.9-0.3,1.3
		c-0.2,0.4-0.5,0.7-0.9,0.9s-0.8,0.3-1.3,0.3C678.4,131.7,678,131.5,677.6,131.3z M679.7,130.5c0.2-0.1,0.4-0.3,0.5-0.5
		s0.2-0.5,0.2-0.8s-0.1-0.6-0.2-0.8c-0.1-0.2-0.3-0.4-0.5-0.5s-0.5-0.2-0.8-0.2s-0.5,0.1-0.8,0.2c-0.2,0.1-0.4,0.3-0.5,0.5
		s-0.2,0.5-0.2,0.8s0.1,0.6,0.2,0.8c0.1,0.2,0.3,0.4,0.5,0.5s0.5,0.2,0.8,0.2S679.5,130.7,679.7,130.5z"/>
	<path class="st1" d="M686.7,126.8v4.7h-0.9l-2.4-2.9v2.9h-1.1v-4.7h0.9l2.4,2.9v-2.9C685.6,126.8,686.7,126.8,686.7,126.8z"/>
	<path class="st1" d="M688.3,131.5c-0.4-0.1-0.6-0.2-0.8-0.4l0.4-0.8c0.2,0.1,0.4,0.3,0.7,0.4c0.3,0.1,0.6,0.1,0.8,0.1
		c0.3,0,0.5,0,0.7-0.1c0.1-0.1,0.2-0.2,0.2-0.4c0-0.1,0-0.2-0.1-0.3s-0.2-0.1-0.3-0.2s-0.3-0.1-0.6-0.1c-0.4-0.1-0.7-0.2-0.9-0.3
		s-0.4-0.2-0.6-0.4c-0.2-0.2-0.2-0.4-0.2-0.8c0-0.3,0.1-0.5,0.2-0.7c0.1-0.2,0.4-0.4,0.7-0.5s0.7-0.2,1.1-0.2c0.3,0,0.6,0,0.9,0.1
		c0.3,0.1,0.5,0.2,0.8,0.3L691,128c-0.4-0.2-0.9-0.4-1.3-0.4c-0.3,0-0.5,0-0.7,0.1c-0.1,0.1-0.2,0.2-0.2,0.4s0.1,0.3,0.3,0.4
		c0.2,0.1,0.4,0.2,0.8,0.2c0.4,0.1,0.7,0.2,0.9,0.3s0.4,0.2,0.6,0.4c0.2,0.2,0.2,0.4,0.2,0.8c0,0.3-0.1,0.5-0.2,0.7
		c-0.2,0.2-0.4,0.4-0.7,0.5s-0.7,0.2-1.1,0.2C689,131.7,688.7,131.6,688.3,131.5z"/>
	<path class="st1" d="M592,135.2c0.3,0.1,0.5,0.3,0.7,0.6s0.3,0.6,0.3,0.9c0,0.3-0.1,0.7-0.3,0.9c-0.2,0.3-0.4,0.5-0.7,0.6
		s-0.7,0.2-1.1,0.2h-1v1.3h-1.1V135h2.1C591.4,135,591.7,135,592,135.2z M591.6,137.3c0.2-0.1,0.3-0.3,0.3-0.6s-0.1-0.5-0.3-0.6
		s-0.4-0.2-0.8-0.2H590v1.6h0.9C591.2,137.5,591.5,137.4,591.6,137.3z"/>
	<path class="st1" d="M593.8,135h1.1v3.9h2.4v0.9h-3.5V135z"/>
	<path class="st1" d="M601,138.7h-2.2l-0.4,1h-1.1l2.1-4.7h1.1l2.1,4.7h-1.2L601,138.7z M600.7,137.9l-0.8-1.8l-0.8,1.8H600.7z"/>
	<path class="st1" d="M607.5,135v4.7h-0.9l-2.4-2.9v2.9h-1.1V135h0.9l2.4,2.9V135H607.5z"/>
</g>
<g>
	<path class="st1" d="M588.9,156.2h2.2c0.5,0,1,0.1,1.4,0.3s0.7,0.5,0.9,0.8c0.2,0.4,0.3,0.8,0.3,1.2c0,0.5-0.1,0.9-0.3,1.2
		c-0.2,0.4-0.5,0.6-0.9,0.8s-0.9,0.3-1.4,0.3h-2.2V156.2z M591,160.1c0.5,0,0.9-0.1,1.1-0.4c0.3-0.3,0.4-0.6,0.4-1.1
		s-0.1-0.8-0.4-1.1c-0.3-0.3-0.7-0.4-1.1-0.4h-1v2.9h1V160.1z"/>
	<path class="st1" d="M597.5,161l-0.9-1.3h-0.1h-1v1.3h-1.1v-4.7h2.1c0.4,0,0.8,0.1,1.1,0.2c0.3,0.1,0.5,0.3,0.7,0.6
		s0.3,0.6,0.3,0.9c0,0.4-0.1,0.7-0.3,0.9s-0.4,0.5-0.7,0.6l1.1,1.5H597.5z M597.2,157.3c-0.2-0.1-0.4-0.2-0.8-0.2h-0.9v1.7h0.9
		c0.3,0,0.6-0.1,0.8-0.2c0.2-0.1,0.3-0.3,0.3-0.6S597.4,157.5,597.2,157.3z"/>
	<path class="st1" d="M599.5,156.2h1.1v4.7h-1.1V156.2z"/>
	<path class="st1" d="M606.2,156.2l-2.1,4.7H603l-2-4.7h1.2l1.4,3.4l1.5-3.4H606.2z"/>
	<path class="st1" d="M606.6,156.2h1.1v4.7h-1.1V156.2z"/>
	<path class="st1" d="M613.2,156.2v4.7h-0.9l-2.4-2.9v2.9h-1.1v-4.7h0.9l2.4,2.9v-2.9H613.2z"/>
	<path class="st1" d="M617.5,158.5h1v1.9c-0.3,0.2-0.6,0.3-0.9,0.4c-0.3,0.1-0.7,0.2-1,0.2c-0.5,0-0.9-0.1-1.3-0.3
		c-0.4-0.2-0.7-0.5-0.9-0.9s-0.3-0.8-0.3-1.3s0.1-0.9,0.3-1.3c0.2-0.4,0.5-0.7,0.9-0.9s0.8-0.3,1.3-0.3c0.4,0,0.8,0.1,1.1,0.2
		c0.3,0.1,0.6,0.3,0.9,0.6l-0.7,0.7c-0.3-0.4-0.7-0.5-1.2-0.5c-0.3,0-0.6,0.1-0.8,0.2c-0.2,0.1-0.4,0.3-0.5,0.5s-0.2,0.5-0.2,0.8
		s0.1,0.6,0.2,0.8c0.1,0.2,0.3,0.4,0.5,0.5s0.5,0.2,0.8,0.2s0.6-0.1,0.9-0.2L617.5,158.5L617.5,158.5z"/>
	<path class="st1" d="M625.8,161v-2.8l-1.4,2.3h-0.5l-1.4-2.3v2.8h-1v-4.7h0.9l1.8,3l1.7-3h0.9v4.7H625.8z"/>
	<path class="st1" d="M631.6,160.1v0.9h-3.7v-4.7h3.6v0.9H629v1h2.2v0.9H629v1.1L631.6,160.1L631.6,160.1z"/>
	<path class="st1" d="M635.6,159.9h-2.2l-0.4,1h-1.1l2.1-4.7h1.1l2.1,4.7H636L635.6,159.9z M635.3,159.1l-0.8-1.8l-0.8,1.8H635.3z"
		/>
	<path class="st1" d="M642.1,156.2v4.7h-0.9l-2.4-2.9v2.9h-1.1v-4.7h0.9l2.4,2.9v-2.9H642.1z"/>
	<path class="st1" d="M643.2,156.2h1.1v4.7h-1.1V156.2z"/>
	<path class="st1" d="M649.8,156.2v4.7h-0.9l-2.4-2.9v2.9h-1.1v-4.7h0.9l2.4,2.9v-2.9H649.8z"/>
	<path class="st1" d="M654.1,158.5h1v1.9c-0.3,0.2-0.6,0.3-0.9,0.4c-0.3,0.1-0.7,0.2-1,0.2c-0.5,0-0.9-0.1-1.3-0.3
		c-0.4-0.2-0.7-0.5-0.9-0.9s-0.3-0.8-0.3-1.3s0.1-0.9,0.3-1.3c0.2-0.4,0.5-0.7,0.9-0.9s0.8-0.3,1.3-0.3c0.4,0,0.8,0.1,1.1,0.2
		c0.3,0.1,0.6,0.3,0.9,0.6l-0.7,0.7c-0.3-0.4-0.7-0.5-1.2-0.5c-0.3,0-0.6,0.1-0.8,0.2c-0.2,0.1-0.4,0.3-0.5,0.5s-0.2,0.5-0.2,0.8
		s0.1,0.6,0.2,0.8c0.1,0.2,0.3,0.4,0.5,0.5s0.5,0.2,0.8,0.2s0.6-0.1,0.9-0.2L654.1,158.5L654.1,158.5z"/>
	<path class="st1" d="M657.2,157.1v1.3h2.2v0.9h-2.2v1.7h-1.1v-4.7h3.6v0.9L657.2,157.1L657.2,157.1z"/>
	<path class="st1" d="M661,160.5c-0.4-0.4-0.6-0.9-0.6-1.6v-2.7h1.1v2.6c0,0.9,0.4,1.3,1.1,1.3c0.3,0,0.6-0.1,0.8-0.3s0.3-0.5,0.3-1
		v-2.6h1.1v2.7c0,0.7-0.2,1.2-0.6,1.6c-0.4,0.4-0.9,0.6-1.6,0.6C661.9,161,661.3,160.9,661,160.5z"/>
	<path class="st1" d="M665.8,156.2h1.1v3.9h2.4v0.9h-3.5V156.2z"/>
	<path class="st1" d="M593,167.1c0.2,0.2,0.2,0.4,0.2,0.7c0,0.4-0.2,0.7-0.5,1c-0.3,0.2-0.8,0.3-1.4,0.3h-2.5v-4.7h2.3
		c0.6,0,1,0.1,1.3,0.3s0.5,0.5,0.5,0.9c0,0.2-0.1,0.4-0.2,0.6c-0.1,0.2-0.3,0.3-0.5,0.4C592.6,166.7,592.8,166.9,593,167.1z
		 M590,165.2v1.1h1.1c0.3,0,0.5,0,0.6-0.1s0.2-0.2,0.2-0.4s-0.1-0.3-0.2-0.4s-0.3-0.1-0.6-0.1H590V165.2z M591.9,168.1
		c0.1-0.1,0.2-0.2,0.2-0.4c0-0.4-0.3-0.6-0.9-0.6H590v1.2h1.3C591.5,168.3,591.8,168.2,591.9,168.1z"/>
	<path class="st1" d="M594.6,168.6c-0.4-0.4-0.6-0.9-0.6-1.6v-2.7h1.1v2.6c0,0.9,0.4,1.3,1.1,1.3c0.3,0,0.6-0.1,0.8-0.3
		s0.3-0.5,0.3-1v-2.6h1.1v2.7c0,0.7-0.2,1.2-0.6,1.6c-0.4,0.4-0.9,0.6-1.6,0.6C595.5,169.2,595,169,594.6,168.6z"/>
	<path class="st1" d="M599.9,169c-0.4-0.1-0.6-0.2-0.8-0.4l0.4-0.8c0.2,0.1,0.4,0.3,0.7,0.4c0.3,0.1,0.6,0.1,0.8,0.1
		c0.3,0,0.5,0,0.7-0.1c0.1-0.1,0.2-0.2,0.2-0.4c0-0.1,0-0.2-0.1-0.3s-0.2-0.1-0.3-0.2c-0.1,0-0.3-0.1-0.6-0.2
		c-0.4-0.1-0.7-0.2-0.9-0.3s-0.4-0.2-0.6-0.4c-0.2-0.2-0.2-0.4-0.2-0.8c0-0.3,0.1-0.5,0.2-0.7c0.1-0.2,0.4-0.4,0.7-0.5
		s0.7-0.2,1.1-0.2c0.3,0,0.6,0,0.9,0.1c0.3,0.1,0.5,0.2,0.8,0.3l-0.3,0.8c-0.4-0.2-0.9-0.4-1.3-0.4c-0.3,0-0.5,0.1-0.7,0.2
		c-0.1,0.1-0.2,0.2-0.2,0.4s0.1,0.3,0.3,0.4c0.2,0.1,0.4,0.2,0.8,0.2c0.4,0.1,0.7,0.2,0.9,0.3s0.4,0.2,0.6,0.4
		c0.2,0.2,0.2,0.4,0.2,0.8c0,0.3-0.1,0.5-0.2,0.7c-0.2,0.2-0.4,0.4-0.7,0.5s-0.7,0.2-1.1,0.2C600.6,169.2,600.2,169.1,599.9,169z"/>
	<path class="st1" d="M603.7,164.4h1.1v4.7h-1.1V164.4z"/>
	<path class="st1" d="M610.3,164.4v4.7h-0.9l-2.4-2.9v2.9h-1v-4.7h0.9l2.4,2.9v-2.9H610.3z"/>
	<path class="st1" d="M615.1,168.2v0.9h-3.7v-4.7h3.6v0.9h-2.5v1h2.2v0.9h-2.2v1.1L615.1,168.2L615.1,168.2z"/>
	<path class="st1" d="M616.5,169c-0.4-0.1-0.6-0.2-0.8-0.4l0.4-0.8c0.2,0.1,0.4,0.3,0.7,0.4c0.3,0.1,0.6,0.1,0.8,0.1
		c0.3,0,0.5,0,0.7-0.1c0.1-0.1,0.2-0.2,0.2-0.4c0-0.1,0-0.2-0.1-0.3s-0.2-0.1-0.3-0.2c-0.1,0-0.3-0.1-0.6-0.2
		c-0.4-0.1-0.7-0.2-0.9-0.3s-0.4-0.2-0.6-0.4c-0.2-0.2-0.2-0.4-0.2-0.8c0-0.3,0.1-0.5,0.2-0.7c0.1-0.2,0.4-0.4,0.7-0.5
		s0.7-0.2,1.1-0.2c0.3,0,0.6,0,0.9,0.1c0.3,0.1,0.5,0.2,0.8,0.3l-0.3,0.8c-0.4-0.2-0.9-0.4-1.3-0.4c-0.3,0-0.5,0.1-0.7,0.2
		c-0.1,0.1-0.2,0.2-0.2,0.4s0.1,0.3,0.3,0.4c0.2,0.1,0.4,0.2,0.8,0.2c0.4,0.1,0.7,0.2,0.9,0.3s0.4,0.2,0.6,0.4
		c0.2,0.2,0.2,0.4,0.2,0.8c0,0.3-0.1,0.5-0.2,0.7c-0.2,0.2-0.4,0.4-0.7,0.5s-0.7,0.2-1.1,0.2C617.2,169.2,616.8,169.1,616.5,169z"/>
	<path class="st1" d="M620.8,169c-0.4-0.1-0.6-0.2-0.8-0.4l0.4-0.8c0.2,0.1,0.4,0.3,0.7,0.4c0.3,0.1,0.6,0.1,0.8,0.1
		c0.3,0,0.5,0,0.7-0.1c0.1-0.1,0.2-0.2,0.2-0.4c0-0.1,0-0.2-0.1-0.3s-0.2-0.1-0.3-0.2s-0.3-0.1-0.6-0.2c-0.4-0.1-0.7-0.2-0.9-0.3
		s-0.4-0.2-0.6-0.4c-0.2-0.2-0.2-0.4-0.2-0.8c0-0.3,0.1-0.5,0.2-0.7c0.1-0.2,0.4-0.4,0.7-0.5s0.7-0.2,1.1-0.2c0.3,0,0.6,0,0.9,0.1
		c0.3,0.1,0.5,0.2,0.8,0.3l-0.3,0.8c-0.4-0.2-0.9-0.4-1.3-0.4c-0.3,0-0.5,0.1-0.7,0.2c-0.1,0.1-0.2,0.2-0.2,0.4s0.1,0.3,0.3,0.4
		c0.2,0.1,0.4,0.2,0.8,0.2c0.4,0.1,0.7,0.2,0.9,0.3s0.4,0.2,0.6,0.4c0.2,0.2,0.2,0.4,0.2,0.8c0,0.3-0.1,0.5-0.2,0.7
		c-0.2,0.2-0.4,0.4-0.7,0.5s-0.7,0.2-1.1,0.2C621.5,169.2,621.1,169.1,620.8,169z"/>
	<path class="st1" d="M629.8,166.7h1v1.9c-0.3,0.2-0.6,0.3-0.9,0.4c-0.3,0.1-0.7,0.2-1,0.2c-0.5,0-0.9-0.1-1.3-0.3
		c-0.4-0.2-0.7-0.5-0.9-0.9s-0.3-0.8-0.3-1.3s0.1-0.9,0.3-1.3c0.2-0.4,0.5-0.7,0.9-0.9s0.8-0.3,1.3-0.3c0.4,0,0.8,0.1,1.1,0.2
		c0.3,0.1,0.6,0.3,0.9,0.6l-0.7,0.7c-0.3-0.4-0.7-0.5-1.2-0.5c-0.3,0-0.6,0.1-0.8,0.2c-0.2,0.1-0.4,0.3-0.5,0.5s-0.2,0.5-0.2,0.8
		s0.1,0.6,0.2,0.8c0.1,0.2,0.3,0.4,0.5,0.5s0.5,0.2,0.8,0.2s0.6-0.1,0.9-0.2L629.8,166.7L629.8,166.7z"/>
	<path class="st1" d="M634.8,169.1l-0.9-1.3h-0.1h-1v1.3h-1.1v-4.7h2.1c0.4,0,0.8,0.1,1.1,0.2c0.3,0.1,0.5,0.3,0.7,0.6
		s0.3,0.6,0.3,0.9c0,0.4-0.1,0.7-0.3,0.9c-0.2,0.3-0.4,0.5-0.7,0.6l1.1,1.5H634.8z M634.5,165.5c-0.2-0.1-0.4-0.2-0.8-0.2h-0.9v1.7
		h0.9c0.3,0,0.6-0.1,0.8-0.2c0.2-0.1,0.3-0.3,0.3-0.6C634.8,165.8,634.7,165.6,634.5,165.5z"/>
	<path class="st1" d="M637.7,168.9c-0.4-0.2-0.7-0.5-0.9-0.9s-0.3-0.8-0.3-1.3s0.1-0.9,0.3-1.3c0.2-0.4,0.5-0.7,0.9-0.9
		s0.8-0.3,1.3-0.3s0.9,0.1,1.3,0.3c0.4,0.2,0.7,0.5,0.9,0.9s0.3,0.8,0.3,1.3s-0.1,0.9-0.3,1.3c-0.2,0.4-0.5,0.7-0.9,0.9
		s-0.8,0.3-1.3,0.3C638.6,169.2,638.1,169.1,637.7,168.9z M639.8,168.1c0.2-0.1,0.4-0.3,0.5-0.5s0.2-0.5,0.2-0.8s-0.1-0.6-0.2-0.8
		c-0.1-0.2-0.3-0.4-0.5-0.5s-0.5-0.2-0.8-0.2s-0.5,0.1-0.8,0.2c-0.2,0.1-0.4,0.3-0.5,0.5s-0.2,0.5-0.2,0.8s0.1,0.6,0.2,0.8
		c0.1,0.2,0.3,0.4,0.5,0.5s0.5,0.2,0.8,0.2C639.4,168.2,639.6,168.2,639.8,168.1z"/>
	<path class="st1" d="M649.5,164.4l-1.6,4.7h-1.2l-1-3.2l-1.1,3.2h-1.2l-1.6-4.7h1.1l1.1,3.3l1.1-3.3h1l1.1,3.4l1.1-3.4H649.5z"/>
	<path class="st1" d="M651.1,165.3h-1.5v-0.9h4.1v0.9h-1.5v3.9h-1.1V165.3z"/>
	<path class="st1" d="M658.7,164.4v4.7h-1.1v-1.9h-2.2v1.9h-1.1v-4.7h1.1v1.9h2.2v-1.9H658.7z"/>
</g>
<g>
	<path class="st1" d="M616,21c-0.6-0.3-1.1-0.8-1.4-1.3c-0.3-0.6-0.5-1.2-0.5-1.9s0.2-1.3,0.5-1.9s0.8-1,1.4-1.3
		c0.6-0.3,1.3-0.5,2-0.5s1.4,0.2,2,0.5s1.1,0.8,1.4,1.3c0.3,0.6,0.5,1.2,0.5,1.9s-0.2,1.3-0.5,1.9s-0.8,1-1.4,1.3
		c-0.6,0.3-1.3,0.5-2,0.5C617.3,21.4,616.6,21.3,616,21z M619.2,19.7c0.3-0.2,0.6-0.5,0.8-0.8s0.3-0.7,0.3-1.2
		c0-0.4-0.1-0.8-0.3-1.2c-0.2-0.3-0.5-0.6-0.8-0.8s-0.7-0.3-1.1-0.3c-0.4,0-0.8,0.1-1.1,0.3s-0.6,0.5-0.8,0.8s-0.3,0.7-0.3,1.2
		c0,0.4,0.1,0.8,0.3,1.2c0.2,0.3,0.5,0.6,0.8,0.8c0.3,0.2,0.7,0.3,1.1,0.3S618.8,19.9,619.2,19.7z"/>
	<path class="st1" d="M624,20.6c-0.6-0.6-0.8-1.4-0.8-2.4v-4h1.6v3.9c0,1.3,0.5,1.9,1.6,1.9c0.5,0,0.9-0.2,1.2-0.5s0.4-0.8,0.4-1.5
		v-3.9h1.6v4c0,1-0.3,1.8-0.9,2.4c-0.6,0.6-1.4,0.8-2.4,0.8C625.3,21.4,624.5,21.2,624,20.6z"/>
	<path class="st1" d="M632.5,15.5h-2.3v-1.3h6.2v1.3h-2.3v5.8h-1.6L632.5,15.5L632.5,15.5z"/>
	<path class="st1" d="M642.1,14.5c0.5,0.2,0.8,0.5,1.1,0.9s0.4,0.8,0.4,1.4c0,0.5-0.1,1-0.4,1.4c-0.3,0.4-0.6,0.7-1.1,0.9
		c-0.5,0.2-1,0.3-1.6,0.3H639v2h-1.6v-7.1h3.1C641.1,14.2,641.6,14.3,642.1,14.5z M641.5,17.7c0.3-0.2,0.4-0.5,0.4-0.9
		s-0.1-0.7-0.4-0.9c-0.3-0.2-0.6-0.3-1.1-0.3H639V18h1.3C640.8,18,641.2,17.9,641.5,17.7z"/>
	<path class="st1" d="M645.5,20.6c-0.6-0.6-0.8-1.4-0.8-2.4v-4h1.6v3.9c0,1.3,0.5,1.9,1.6,1.9c0.5,0,0.9-0.2,1.2-0.5
		s0.4-0.8,0.4-1.5v-3.9h1.6v4c0,1-0.3,1.8-0.9,2.4c-0.6,0.6-1.4,0.8-2.4,0.8C646.8,21.4,646,21.2,645.5,20.6z"/>
	<path class="st1" d="M654,15.5h-2.3v-1.3h6.2v1.3h-2.3v5.8H654V15.5z"/>
</g>
<g>
	<path class="st1" d="M2.5,65.4h3.2c0.8,0,1.5,0.1,2.1,0.4s1.1,0.7,1.4,1.2s0.5,1.2,0.5,1.9s-0.2,1.3-0.5,1.9
		c-0.3,0.5-0.8,1-1.4,1.2c-0.6,0.3-1.3,0.4-2.1,0.4H2.5V65.4z M5.6,71.2c0.7,0,1.3-0.2,1.7-0.6C7.7,70.2,8,69.7,8,69
		s-0.2-1.2-0.6-1.6s-1-0.6-1.7-0.6H4.1v4.4C4.1,71.2,5.6,71.2,5.6,71.2z"/>
	<path class="st1" d="M15.5,71h-3.3l-0.6,1.5H9.8l3.2-7.1h1.6l3.2,7.1h-1.7L15.5,71z M14.9,69.8l-1.1-2.7l-1.1,2.7H14.9z"/>
	<path class="st1" d="M19.7,66.8h-2.3v-1.3h6.2v1.3h-2.3v5.8h-1.6C19.7,72.6,19.7,66.8,19.7,66.8z"/>
	<path class="st1" d="M28.8,71h-3.3l-0.6,1.5h-1.7l3.2-7.1H28l3.2,7.1h-1.7L28.8,71z M28.3,69.8l-1.1-2.7L26,69.8H28.3z"/>
</g>
<g>
	<path class="st1" d="M4.7,142.7c-0.6-0.3-1-0.8-1.4-1.3c-0.3-0.6-0.5-1.2-0.5-1.9s0.2-1.3,0.5-1.9c0.3-0.6,0.8-1,1.4-1.3
		s1.2-0.5,2-0.5c0.6,0,1.2,0.1,1.7,0.3s0.9,0.5,1.3,0.9l-1.1,1c-0.5-0.6-1.1-0.8-1.8-0.8c-0.4,0-0.8,0.1-1.2,0.3
		c-0.3,0.2-0.6,0.5-0.8,0.8c-0.2,0.3-0.3,0.7-0.3,1.2c0,0.4,0.1,0.8,0.3,1.2c0.2,0.3,0.5,0.6,0.8,0.8s0.7,0.3,1.2,0.3
		c0.7,0,1.3-0.3,1.8-0.8l1.1,1c-0.3,0.4-0.8,0.7-1.3,0.9s-1.1,0.3-1.7,0.3C5.9,143.2,5.2,143,4.7,142.7z"/>
	<path class="st1" d="M12,142.7c-0.6-0.3-1.1-0.8-1.4-1.3c-0.3-0.6-0.5-1.2-0.5-1.9s0.2-1.3,0.5-1.9c0.3-0.6,0.8-1,1.4-1.3
		c0.6-0.3,1.3-0.5,2-0.5s1.4,0.2,2,0.5s1.1,0.8,1.4,1.3c0.3,0.6,0.5,1.2,0.5,1.9s-0.2,1.3-0.5,1.9c-0.3,0.6-0.8,1-1.4,1.3
		s-1.3,0.5-2,0.5S12.6,143,12,142.7z M15.1,141.5c0.3-0.2,0.6-0.5,0.8-0.8s0.3-0.7,0.3-1.2c0-0.4-0.1-0.8-0.3-1.2
		c-0.2-0.3-0.5-0.6-0.8-0.8s-0.7-0.3-1.1-0.3s-0.8,0.1-1.1,0.3s-0.6,0.5-0.8,0.8s-0.3,0.7-0.3,1.2c0,0.4,0.1,0.8,0.3,1.2
		c0.2,0.3,0.5,0.6,0.8,0.8s0.7,0.3,1.1,0.3S14.8,141.7,15.1,141.5z"/>
	<path class="st1" d="M25.6,135.9v7.1h-1.4l-3.6-4.3v4.3H19v-7.1h1.4l3.5,4.3v-4.3H25.6z"/>
	<path class="st1" d="M28.8,137.3h-2.3V136h6.2v1.3h-2.3v5.8h-1.6C28.8,143.1,28.8,137.3,28.8,137.3z"/>
	<path class="st1" d="M39.1,141.7v1.3h-5.5v-7.1H39v1.3h-3.7v1.5h3.3v1.3h-3.3v1.6L39.1,141.7L39.1,141.7z"/>
	<path class="st1" d="M47,135.9v7.1h-1.4l-3.6-4.3v4.3h-1.6v-7.1h1.4l3.5,4.3v-4.3H47z"/>
	<path class="st1" d="M50.1,137.3h-2.3V136H54v1.3h-2.3v5.8h-1.6C50.1,143.1,50.1,137.3,50.1,137.3z"/>
</g>
<rect x="127.2" y="42.3" class="st2" width="183.1" height="131.6"/>
<g>
	<path class="st3" d="M177.6,95.5v-6.2l-3,5.1h-1.1l-3-5v6h-2.2V85.2h2l3.8,6.4l3.8-6.4h2v10.3H177.6z"/>
	<path class="st3" d="M190.2,93.6v1.9h-8V85.2h7.8v1.9h-5.4v2.2h4.8v1.9h-4.8v2.4H190.2z"/>
	<path class="st3" d="M198.9,93.3h-4.8l-0.9,2.2h-2.4l4.6-10.3h2.4l4.6,10.3h-2.5L198.9,93.3z M198.1,91.5l-1.6-3.9l-1.6,3.9H198.1z
		"/>
	<path class="st3" d="M212.8,85.2v10.3h-2l-5.1-6.2v6.2h-2.4V85.2h2l5.1,6.2v-6.2H212.8z"/>
	<path class="st3" d="M215.3,85.2h2.4v10.3h-2.4V85.2z"/>
	<path class="st3" d="M229.5,85.2v10.3h-2l-5.1-6.2v6.2H220V85.2h2l5.1,6.2v-6.2H229.5z"/>
	<path class="st3" d="M238.9,90.2h2.2v4.2c-0.6,0.4-1.2,0.7-1.9,1c-0.7,0.2-1.5,0.3-2.2,0.3c-1.1,0-2-0.2-2.9-0.7s-1.5-1.1-2-1.9
		s-0.7-1.7-0.7-2.7s0.2-1.9,0.7-2.7c0.5-0.8,1.2-1.4,2-1.9c0.9-0.5,1.8-0.7,2.9-0.7c0.9,0,1.7,0.2,2.5,0.5c0.7,0.3,1.4,0.7,1.9,1.3
		l-1.5,1.4c-0.7-0.8-1.6-1.2-2.7-1.2c-0.7,0-1.2,0.1-1.7,0.4s-0.9,0.7-1.2,1.2s-0.4,1.1-0.4,1.7s0.1,1.2,0.4,1.7
		c0.3,0.5,0.7,0.9,1.2,1.2c0.5,0.3,1.1,0.4,1.7,0.4c0.7,0,1.3-0.1,1.9-0.4v-3.1H238.9z"/>
	<path class="st3" d="M245.7,87.1v2.7h4.8v1.9h-4.8v3.7h-2.4V85.2h7.8v1.9H245.7z"/>
	<path class="st3" d="M253.8,94.5c-0.8-0.8-1.2-2-1.2-3.5v-5.8h2.4v5.7c0,1.8,0.8,2.8,2.3,2.8c0.7,0,1.3-0.2,1.7-0.7
		c0.4-0.4,0.6-1.1,0.6-2.1v-5.7h2.4V91c0,1.5-0.4,2.7-1.2,3.5c-0.8,0.8-2,1.2-3.4,1.2C255.8,95.7,254.6,95.3,253.8,94.5z"/>
	<path class="st3" d="M264.2,85.2h2.4v8.3h5.2v1.9h-7.5V85.2H264.2z"/>
	<path class="st3" d="M170.1,110.9h-4.8l-0.9,2.2H162l4.6-10.3h2.4l4.6,10.3H171L170.1,110.9z M169.3,109.1l-1.6-3.9l-1.6,3.9H169.3
		z"/>
	<path class="st3" d="M176.5,112.6c-0.8-0.5-1.5-1.1-2-1.9s-0.7-1.7-0.7-2.7s0.2-1.9,0.7-2.7c0.5-0.8,1.2-1.4,2-1.9s1.8-0.7,2.9-0.7
		c0.9,0,1.7,0.2,2.4,0.5s1.3,0.8,1.8,1.4l-1.5,1.4c-0.7-0.8-1.6-1.2-2.6-1.2c-0.6,0-1.2,0.1-1.7,0.4s-0.9,0.7-1.2,1.2
		s-0.4,1.1-0.4,1.7s0.1,1.2,0.4,1.7c0.3,0.5,0.7,0.9,1.2,1.2c0.5,0.3,1.1,0.4,1.7,0.4c1,0,1.9-0.4,2.6-1.2l1.5,1.4
		c-0.5,0.6-1.1,1.1-1.8,1.4s-1.5,0.5-2.4,0.5C178.3,113.3,177.4,113.1,176.5,112.6z"/>
	<path class="st3" d="M187.1,112.6c-0.8-0.5-1.5-1.1-2-1.9s-0.7-1.7-0.7-2.7s0.2-1.9,0.7-2.7c0.5-0.8,1.2-1.4,2-1.9s1.8-0.7,2.9-0.7
		c0.9,0,1.7,0.2,2.4,0.5s1.3,0.8,1.8,1.4l-1.5,1.4c-0.7-0.8-1.6-1.2-2.6-1.2c-0.6,0-1.2,0.1-1.7,0.4s-0.9,0.7-1.2,1.2
		s-0.4,1.1-0.4,1.7s0.1,1.2,0.4,1.7c0.3,0.5,0.7,0.9,1.2,1.2c0.5,0.3,1.1,0.4,1.7,0.4c1,0,1.9-0.4,2.6-1.2l1.5,1.4
		c-0.5,0.6-1.1,1.1-1.8,1.4s-1.5,0.5-2.4,0.5C188.9,113.3,187.9,113.1,187.1,112.6z"/>
	<path class="st3" d="M203.7,111.2v1.9h-8v-10.3h7.8v1.9h-5.4v2.2h4.8v1.9h-4.8v2.4H203.7z"/>
	<path class="st3" d="M205.6,102.9h2.4v8.3h5.2v1.9h-7.5L205.6,102.9L205.6,102.9z"/>
	<path class="st3" d="M222.5,111.2v1.9h-8v-10.3h7.8v1.9h-5.4v2.2h4.8v1.9h-4.8v2.4H222.5z"/>
	<path class="st3" d="M230.9,113.2l-2-2.9h-0.1h-2.1v2.9h-2.4v-10.3h4.5c0.9,0,1.7,0.2,2.4,0.5s1.2,0.7,1.6,1.3
		c0.4,0.6,0.5,1.2,0.5,2s-0.2,1.4-0.6,2c-0.4,0.6-0.9,1-1.6,1.3l2.3,3.3h-2.5V113.2z M230.3,105.3c-0.4-0.3-0.9-0.5-1.6-0.5h-1.9
		v3.6h1.9c0.7,0,1.3-0.2,1.6-0.5c0.4-0.3,0.6-0.8,0.6-1.3C230.9,106,230.7,105.6,230.3,105.3z"/>
	<path class="st3" d="M241.9,110.9h-4.8l-0.9,2.2h-2.4l4.6-10.3h2.4l4.6,10.3h-2.5L241.9,110.9z M241.2,109.1l-1.6-3.9l-1.6,3.9
		H241.2z"/>
	<path class="st3" d="M248,104.8h-3.3v-1.9h9v1.9h-3.3v8.3H248V104.8z"/>
	<path class="st3" d="M256.9,112.6c-0.9-0.5-1.5-1.1-2-1.9s-0.7-1.7-0.7-2.7s0.2-1.9,0.7-2.7c0.5-0.8,1.2-1.4,2-1.9
		c0.9-0.5,1.8-0.7,2.9-0.7s2,0.2,2.9,0.7s1.5,1.1,2,1.9s0.7,1.7,0.7,2.7s-0.2,1.9-0.7,2.7c-0.5,0.8-1.2,1.4-2,1.9s-1.8,0.7-2.9,0.7
		C258.7,113.3,257.8,113.1,256.9,112.6z M261.5,110.9c0.5-0.3,0.9-0.7,1.2-1.2c0.3-0.5,0.4-1.1,0.4-1.7s-0.1-1.2-0.4-1.7
		s-0.7-0.9-1.2-1.2c-0.5-0.3-1-0.4-1.6-0.4s-1.2,0.1-1.6,0.4c-0.5,0.3-0.9,0.7-1.2,1.2c-0.3,0.5-0.4,1.1-0.4,1.7s0.1,1.2,0.4,1.7
		s0.7,0.9,1.2,1.2c0.5,0.3,1,0.4,1.6,0.4C260.4,111.3,261,111.2,261.5,110.9z"/>
	<path class="st3" d="M273.8,113.2l-2-2.9h-0.1h-2.1v2.9h-2.4v-10.3h4.5c0.9,0,1.7,0.2,2.4,0.5c0.7,0.3,1.2,0.7,1.6,1.3
		c0.4,0.6,0.5,1.2,0.5,2s-0.2,1.4-0.6,2s-0.9,1-1.6,1.3l2.3,3.3h-2.5V113.2z M273.2,105.3c-0.4-0.3-0.9-0.5-1.6-0.5h-1.9v3.6h1.9
		c0.7,0,1.3-0.2,1.6-0.5c0.4-0.3,0.6-0.8,0.6-1.3C273.7,106,273.6,105.6,273.2,105.3z"/>
	<path class="st3" d="M184.5,121c0.7,0.3,1.2,0.7,1.6,1.3c0.4,0.6,0.5,1.2,0.5,2s-0.2,1.4-0.5,2c-0.4,0.6-0.9,1-1.6,1.3
		c-0.7,0.3-1.5,0.4-2.4,0.4H180v2.8h-2.4v-10.3h4.5C183.1,120.5,183.9,120.7,184.5,121z M183.7,125.5c0.4-0.3,0.6-0.7,0.6-1.3
		c0-0.6-0.2-1-0.6-1.3c-0.4-0.3-0.9-0.5-1.6-0.5h-1.9v3.6h1.9C182.7,126,183.3,125.9,183.7,125.5z"/>
	<path class="st3" d="M188.3,120.5h2.4v8.3h5.2v1.9h-7.5L188.3,120.5L188.3,120.5z"/>
	<path class="st3" d="M204.1,128.6h-4.8l-0.9,2.2H196l4.6-10.3h2.4l4.6,10.3H205L204.1,128.6z M203.3,126.8l-1.6-3.9l-1.6,3.9H203.3
		z"/>
	<path class="st3" d="M210.2,122.4h-3.3v-1.9h9v1.9h-3.3v8.3h-2.4V122.4z"/>
	<path class="st3" d="M219.5,122.4v2.7h4.8v1.9h-4.8v3.7h-2.4v-10.3h7.8v1.9h-5.4V122.4z"/>
	<path class="st3" d="M228.5,130.3c-0.9-0.5-1.5-1.1-2-1.9c-0.5-0.8-0.7-1.7-0.7-2.7s0.2-1.9,0.7-2.7s1.2-1.4,2-1.9
		c0.9-0.5,1.8-0.7,2.9-0.7c1.1,0,2,0.2,2.9,0.7s1.5,1.1,2,1.9s0.7,1.7,0.7,2.7s-0.2,1.9-0.7,2.7c-0.5,0.8-1.2,1.4-2,1.9
		c-0.9,0.5-1.8,0.7-2.9,0.7S229.3,130.7,228.5,130.3z M233,128.5c0.5-0.3,0.9-0.7,1.2-1.2s0.4-1.1,0.4-1.7s-0.1-1.2-0.4-1.7
		c-0.3-0.5-0.7-0.9-1.2-1.2c-0.5-0.3-1-0.4-1.6-0.4s-1.2,0.1-1.6,0.4c-0.5,0.3-0.9,0.7-1.2,1.2s-0.4,1.1-0.4,1.7s0.1,1.2,0.4,1.7
		c0.3,0.5,0.7,0.9,1.2,1.2s1,0.4,1.6,0.4S232.5,128.8,233,128.5z"/>
	<path class="st3" d="M245.4,130.8l-2-2.9h-0.1h-2.1v2.9h-2.4v-10.3h4.5c0.9,0,1.7,0.2,2.4,0.5s1.2,0.7,1.6,1.3
		c0.4,0.6,0.5,1.2,0.5,2s-0.2,1.4-0.6,2c-0.4,0.6-0.9,1-1.6,1.3l2.3,3.3h-2.5V130.8z M244.8,122.9c-0.4-0.3-0.9-0.5-1.6-0.5h-1.9
		v3.6h1.9c0.7,0,1.3-0.2,1.6-0.5c0.4-0.3,0.6-0.8,0.6-1.3C245.3,123.7,245.1,123.2,244.8,122.9z"/>
	<path class="st3" d="M259,130.8v-6.2l-3,5.1h-1.1l-3-5v6h-2.2v-10.3h2l3.8,6.4l3.8-6.4h2v10.3L259,130.8L259,130.8z"/>
</g>
<g>
	<g>
		<polyline class="st4" points="163.5,151 145.6,151 145.6,65.8 189.3,65.8 		"/>
		<g>
			<polygon class="st1" points="186.4,69.5 185.8,68.8 189,65.8 185.8,62.9 186.4,62.2 190.3,65.8 			"/>
		</g>
	</g>
</g>
<g>
	<g>
		<polyline class="st4" points="290.4,130.7 290.4,151 171,151 		"/>
		<g>
			<polygon class="st1" points="174,147.4 174.6,148 171.3,151 174.6,154 174,154.6 170,151 			"/>
		</g>
	</g>
</g>
<g>
	<g>
		<polyline class="st4" points="195.1,65.8 290.4,65.8 290.4,122.9 		"/>
		<g>
			<polygon class="st1" points="286.8,120 287.4,119.4 290.4,122.6 293.4,119.4 294,120 290.4,123.9 			"/>
		</g>
	</g>
</g>
<rect x="496.4" y="29.2" class="st2" width="76.6" height="149"/>
<g>
	<path class="st3" d="M518.5,41.4h1.5v6.3h-1.5V41.4z"/>
	<path class="st3" d="M525.7,44.5h1.3v2.6c-0.3,0.3-0.7,0.5-1.2,0.6s-0.9,0.2-1.4,0.2c-0.7,0-1.2-0.1-1.8-0.4s-0.9-0.7-1.2-1.2
		s-0.4-1.1-0.4-1.7s0.2-1.2,0.4-1.7c0.3-0.5,0.7-0.9,1.2-1.2s1.1-0.4,1.8-0.4c0.6,0,1.1,0.1,1.5,0.3c0.5,0.2,0.8,0.5,1.1,0.8
		l-0.9,0.9c-0.5-0.5-1-0.7-1.6-0.7c-0.4,0-0.8,0.1-1.1,0.3s-0.6,0.4-0.7,0.7c-0.2,0.3-0.3,0.7-0.3,1.1c0,0.4,0.1,0.7,0.3,1
		s0.4,0.5,0.7,0.7s0.7,0.3,1.1,0.3c0.4,0,0.8-0.1,1.1-0.3v-1.9H525.7z"/>
	<path class="st3" d="M534.2,41.4v6.3H533l-3.2-3.8v3.8h-1.4v-6.3h1.2l3.1,3.8v-3.8H534.2z"/>
	<path class="st3" d="M535.7,41.4h1.5v6.3h-1.5V41.4z"/>
	<path class="st3" d="M540,42.6h-2v-1.2h5.5v1.2h-2v5.1H540V42.6z"/>
	<path class="st3" d="M549.2,46.6v1.2h-4.9v-6.3h4.8v1.2h-3.3V44h2.9v1.1h-2.9v1.5H549.2z"/>
</g>
<g>
	<path class="st3" d="M519.2,76v1.2h-4.9v-6.3h4.8V72h-3.3v1.4h2.9v1.1h-2.9V76H519.2z"/>
	<path class="st3" d="M524.3,77.2l-1.5-2.2l-1.5,2.2h-1.7l2.3-3.2l-2.2-3.1h1.7l1.5,2.1l1.4-2.1h1.6l-2.2,3.1l2.4,3.3h-1.8V77.2z"/>
	<path class="st3" d="M530.8,71.1c0.4,0.2,0.7,0.5,1,0.8c0.2,0.3,0.3,0.8,0.3,1.2c0,0.5-0.1,0.9-0.3,1.2c-0.2,0.3-0.5,0.6-1,0.8
		c-0.4,0.2-0.9,0.3-1.5,0.3H528v1.7h-1.5v-6.3h2.7C529.9,70.8,530.3,70.9,530.8,71.1z M530.2,73.9c0.2-0.2,0.3-0.5,0.3-0.8
		c0-0.4-0.1-0.6-0.3-0.8c-0.2-0.2-0.6-0.3-1-0.3H528v2.2h1.2C529.7,74.2,530,74.1,530.2,73.9z"/>
	<path class="st3" d="M533.1,70.8h1.5V76h3.2v1.2h-4.6v-6.4H533.1z"/>
	<path class="st3" d="M539.7,76.8c-0.5-0.3-0.9-0.7-1.2-1.2s-0.4-1.1-0.4-1.7s0.2-1.2,0.4-1.7c0.3-0.5,0.7-0.9,1.2-1.2
		c0.5-0.3,1.1-0.4,1.8-0.4s1.2,0.1,1.8,0.4c0.5,0.3,0.9,0.7,1.2,1.2s0.5,1.1,0.5,1.7s-0.2,1.2-0.5,1.7s-0.7,0.9-1.2,1.2
		c-0.5,0.3-1.1,0.4-1.8,0.4S540.3,77.1,539.7,76.8z M542.5,75.8c0.3-0.2,0.5-0.4,0.7-0.7c0.2-0.3,0.3-0.7,0.3-1s-0.1-0.7-0.3-1
		s-0.4-0.5-0.7-0.7s-0.6-0.3-1-0.3s-0.7,0.1-1,0.3c-0.3,0.2-0.5,0.4-0.7,0.7c-0.2,0.3-0.3,0.7-0.3,1s0.1,0.7,0.3,1s0.4,0.5,0.7,0.7
		s0.6,0.3,1,0.3C541.9,76,542.2,75.9,542.5,75.8z"/>
	<path class="st3" d="M550.1,77.2l-1.2-1.8h-0.1h-1.3v1.8H546v-6.3h2.7c0.6,0,1,0.1,1.5,0.3c0.4,0.2,0.7,0.5,1,0.8
		c0.2,0.3,0.3,0.8,0.3,1.2s-0.1,0.9-0.3,1.2c-0.2,0.3-0.5,0.6-1,0.8l1.4,2H550.1z M549.7,72.3c-0.2-0.2-0.6-0.3-1-0.3h-1.2v2.2h1.2
		c0.4,0,0.8-0.1,1-0.3c0.2-0.2,0.3-0.5,0.3-0.8C550.1,72.8,550,72.5,549.7,72.3z"/>
	<path class="st3" d="M557.6,76v1.2h-4.9v-6.3h4.8V72h-3.3v1.4h2.9v1.1h-2.9V76H557.6z"/>
</g>
<g>
	<path class="st3" d="M518.3,100.8h2.9c0.7,0,1.3,0.1,1.8,0.4s0.9,0.6,1.2,1.1s0.4,1,0.4,1.7c0,0.6-0.1,1.2-0.4,1.7
		c-0.3,0.5-0.7,0.8-1.2,1.1c-0.5,0.3-1.1,0.4-1.8,0.4h-2.9V100.8z M521.1,105.9c0.6,0,1.1-0.2,1.5-0.5c0.4-0.4,0.6-0.8,0.6-1.4
		s-0.2-1.1-0.6-1.4c-0.4-0.4-0.9-0.5-1.5-0.5h-1.3v3.9L521.1,105.9L521.1,105.9z"/>
	<path class="st3" d="M530.6,105.9v1.2h-4.9v-6.3h4.8v1.2h-3.3v1.4h2.9v1.1h-2.9v1.5L530.6,105.9L530.6,105.9z"/>
	<path class="st3" d="M532.4,107c-0.5-0.1-0.8-0.3-1.1-0.5l0.5-1.1c0.3,0.2,0.6,0.4,1,0.5s0.7,0.2,1.1,0.2c0.4,0,0.7-0.1,0.9-0.2
		s0.3-0.3,0.3-0.5s-0.1-0.3-0.2-0.4c-0.1-0.1-0.3-0.2-0.5-0.2c-0.2-0.1-0.4-0.1-0.7-0.2c-0.5-0.1-0.9-0.2-1.2-0.3
		c-0.3-0.1-0.6-0.3-0.8-0.6c-0.2-0.3-0.3-0.6-0.3-1s0.1-0.7,0.3-1s0.5-0.5,0.9-0.7s0.9-0.3,1.5-0.3c0.4,0,0.8,0,1.2,0.1
		s0.7,0.2,1,0.4l-0.5,1.1c-0.6-0.3-1.2-0.5-1.8-0.5c-0.4,0-0.7,0.1-0.9,0.2s-0.3,0.3-0.3,0.5s0.1,0.4,0.3,0.5s0.6,0.2,1,0.3
		c0.5,0.1,0.9,0.2,1.2,0.3c0.3,0.1,0.6,0.3,0.8,0.5s0.3,0.6,0.3,1s-0.1,0.7-0.3,1s-0.5,0.5-0.9,0.7s-0.9,0.3-1.5,0.3
		C533.4,107.2,532.9,107.1,532.4,107z"/>
	<path class="st3" d="M537.6,100.8h1.5v6.3h-1.5V100.8z"/>
	<path class="st3" d="M544.8,103.8h1.3v2.6c-0.3,0.3-0.7,0.5-1.2,0.6s-0.9,0.2-1.4,0.2c-0.7,0-1.2-0.1-1.8-0.4
		c-0.5-0.3-0.9-0.7-1.2-1.2s-0.4-1.1-0.4-1.7s0.2-1.2,0.4-1.7c0.3-0.5,0.7-0.9,1.2-1.2c0.5-0.3,1.1-0.4,1.8-0.4
		c0.6,0,1.1,0.1,1.5,0.3c0.5,0.2,0.8,0.5,1.1,0.8l-0.9,0.9c-0.5-0.5-1-0.7-1.6-0.7c-0.4,0-0.8,0.1-1.1,0.3c-0.3,0.2-0.6,0.4-0.7,0.7
		c-0.2,0.3-0.3,0.7-0.3,1.1s0.1,0.7,0.3,1s0.4,0.5,0.7,0.7s0.7,0.3,1.1,0.3c0.4,0,0.8-0.1,1.1-0.3v-1.9H544.8z"/>
	<path class="st3" d="M553.3,100.8v6.3h-1.2l-3.2-3.8v3.8h-1.4v-6.3h1.2l3.1,3.8v-3.8H553.3z"/>
</g>
<g>
	<path class="st3" d="M517.4,136.3h-2.9l-0.6,1.4h-1.5l2.8-6.3h1.4l2.8,6.3H518L517.4,136.3z M517,135.2l-1-2.4l-1,2.4H517z"/>
	<path class="st3" d="M521.4,137.3c-0.5-0.3-0.9-0.7-1.2-1.2s-0.4-1.1-0.4-1.7c0-0.6,0.2-1.2,0.4-1.7c0.3-0.5,0.7-0.9,1.2-1.2
		s1.1-0.4,1.8-0.4c0.5,0,1,0.1,1.5,0.3c0.4,0.2,0.8,0.5,1.1,0.8l-0.9,0.9c-0.4-0.5-1-0.7-1.6-0.7c-0.4,0-0.7,0.1-1,0.3
		s-0.5,0.4-0.7,0.7s-0.3,0.7-0.3,1c0,0.4,0.1,0.7,0.3,1s0.4,0.5,0.7,0.7s0.7,0.3,1,0.3c0.6,0,1.2-0.3,1.6-0.8l0.9,0.9
		c-0.3,0.4-0.7,0.6-1.1,0.8c-0.4,0.2-0.9,0.3-1.5,0.3C522.5,137.7,521.9,137.6,521.4,137.3z"/>
	<path class="st3" d="M528,132.5h-2v-1.2h5.5v1.2h-2v5.1H528V132.5z"/>
	<path class="st3" d="M532.2,131.3h1.5v6.3h-1.5V131.3z"/>
	<path class="st3" d="M541.3,131.3l-2.7,6.3h-1.4l-2.7-6.3h1.6l1.9,4.5l2-4.5H541.3z"/>
	<path class="st3" d="M545.7,136.3h-2.9l-0.6,1.4h-1.5l2.8-6.3h1.4l2.8,6.3h-1.5L545.7,136.3z M545.3,135.2l-1-2.4l-1,2.4H545.3z"/>
	<path class="st3" d="M549.5,132.5h-2v-1.2h5.5v1.2h-2v5.1h-1.5V132.5z"/>
	<path class="st3" d="M558.7,136.5v1.2h-4.9v-6.3h4.8v1.2h-3.3v1.4h2.9v1.1h-2.9v1.5L558.7,136.5L558.7,136.5z"/>
</g>
<g>
	<path class="st3" d="M509.5,165.7h-2.9L506,167h-1.5l2.8-6.3h1.4l2.8,6.3H510L509.5,165.7z M509,164.6l-1-2.4l-1,2.4H509z"/>
	<path class="st3" d="M513.4,166.7c-0.5-0.3-0.9-0.7-1.2-1.2s-0.4-1.1-0.4-1.7c0-0.6,0.2-1.2,0.4-1.7c0.3-0.5,0.7-0.9,1.2-1.2
		s1.1-0.4,1.8-0.4c0.5,0,1,0.1,1.5,0.3c0.4,0.2,0.8,0.5,1.1,0.8l-0.9,0.9c-0.4-0.5-1-0.7-1.6-0.7c-0.4,0-0.7,0.1-1,0.3
		s-0.5,0.4-0.7,0.7s-0.3,0.7-0.3,1c0,0.4,0.1,0.7,0.3,1s0.4,0.5,0.7,0.7s0.7,0.3,1,0.3c0.6,0,1.2-0.3,1.6-0.8l0.9,0.9
		c-0.3,0.4-0.7,0.6-1.1,0.8c-0.4,0.2-0.9,0.3-1.5,0.3C514.5,167.1,513.9,167,513.4,166.7z"/>
	<path class="st3" d="M519.9,166.7c-0.5-0.3-0.9-0.7-1.2-1.2s-0.4-1.1-0.4-1.7c0-0.6,0.2-1.2,0.4-1.7c0.3-0.5,0.7-0.9,1.2-1.2
		s1.1-0.4,1.8-0.4c0.5,0,1,0.1,1.5,0.3c0.4,0.2,0.8,0.5,1.1,0.8l-0.9,0.9c-0.4-0.5-1-0.7-1.6-0.7c-0.4,0-0.7,0.1-1,0.3
		s-0.5,0.4-0.7,0.7s-0.3,0.7-0.3,1c0,0.4,0.1,0.7,0.3,1s0.4,0.5,0.7,0.7s0.7,0.3,1,0.3c0.6,0,1.2-0.3,1.6-0.8l0.9,0.9
		c-0.3,0.4-0.7,0.6-1.1,0.8c-0.4,0.2-0.9,0.3-1.5,0.3C521,167.1,520.4,167,519.9,166.7z"/>
	<path class="st3" d="M530.2,165.8v1.2h-4.9v-6.3h4.8v1.2h-3.3v1.4h2.9v1.1h-2.9v1.5L530.2,165.8L530.2,165.8z"/>
	<path class="st3" d="M531.3,160.7h1.5v5.1h3.2v1.2h-4.6v-6.3H531.3z"/>
	<path class="st3" d="M541.7,165.8v1.2h-4.9v-6.3h4.8v1.2h-3.3v1.4h2.9v1.1h-2.9v1.5L541.7,165.8L541.7,165.8z"/>
	<path class="st3" d="M546.9,167l-1.2-1.8h-0.1h-1.3v1.8h-1.5v-6.3h2.7c0.6,0,1,0.1,1.5,0.3c0.4,0.2,0.7,0.5,1,0.8
		c0.2,0.3,0.3,0.8,0.3,1.2s-0.1,0.9-0.3,1.2s-0.5,0.6-1,0.8l1.4,2H546.9z M546.5,162.2c-0.2-0.2-0.6-0.3-1-0.3h-1.2v2.2h1.2
		c0.4,0,0.8-0.1,1-0.3s0.3-0.5,0.3-0.8C546.9,162.6,546.8,162.4,546.5,162.2z"/>
	<path class="st3" d="M553.7,165.7h-2.9l-0.6,1.4h-1.5l2.8-6.3h1.4l2.8,6.3h-1.5L553.7,165.7z M553.2,164.6l-1-2.4l-1,2.4H553.2z"/>
	<path class="st3" d="M557.4,161.9h-2v-1.2h5.5v1.2h-2v5.1h-1.5V161.9z"/>
	<path class="st3" d="M566.6,165.8v1.2h-4.9v-6.3h4.8v1.2h-3.3v1.4h2.9v1.1h-2.9v1.5L566.6,165.8L566.6,165.8z"/>
</g>
</svg>
