<?xml version="1.0" encoding="utf-8"?>
<!-- Generator: Adobe Illustrator 22.1.0, SVG Export Plug-In . SVG Version: 6.00 Build 0)  -->
<svg version="1.1" id="Layer_1" xmlns="http://www.w3.org/2000/svg" xmlns:xlink="http://www.w3.org/1999/xlink" x="0px" y="0px"
	 viewBox="0 0 200 100" style="enable-background:new 0 0 200 100;" xml:space="preserve">
<style type="text/css">
	.st0{fill:#232020;}
	.st1{opacity:0.21;}
	.st2{opacity:0.35;}
	.st3{fill:none;}
	.st4{fill:#FFFFFF;}
	.st5{opacity:0.75;}
</style>
<rect x="-1.5" y="-0.7" class="st0" width="206.3" height="117.9"/>
<g class="st1">
	<g class="st2">
		<g>
			<polygon class="st3" points="97,80.4 92.1,65.3 122.9,62.8 			"/>
			<polygon class="st3" points="123,62.7 92,65.2 84.3,41.6 			"/>
			<polygon class="st3" points="172.5,52.7 163.4,67.1 123.4,62.7 			"/>
			<polygon class="st3" points="170.8,67.9 163.5,67.1 172.6,52.8 			"/>
			<polygon class="st3" points="149.4,89.2 123.2,62.7 163.3,67.2 			"/>
			<polygon class="st3" points="92,65.2 75.4,66.6 84.3,41.7 			"/>
			<polygon class="st3" points="75.3,66.6 51.7,68.5 84.2,41.7 			"/>
			<polygon class="st4" points="201.6,77.5 172.4,101.4 172.4,101.3 201.6,77.5 			"/>
			<path class="st4" d="M37.1,86.4l-11.9,14.9l0.1,0.1L37.1,86.4l21,14.9l0-0.1L37.3,86.4l14.3-17.8l9.7,32.7l0.1,0l-9.7-32.7
				l23.6-1.9l-12.4,34.6l0.1,0l12.4-34.7L92,65.3l5,15.2l-30.6,20.8l0,0.1L97,80.5l6.8,20.8l0.1,0L97,80.5l26-17.7l-13.8,38.5l0.1,0
				l13.8-38.5l15.9,38.5l0.1,0l-15.8-38.4l26.1,26.4l-7.6,12l0.1,0l7.6-12l11.9,12l0.1-0.1l-11.9-12l14-22.1l7.4,0.8l-3.9,33.3
				l0.1,0l3.9-33.3l30.7,3.4l0-0.1l-30.7-3.4l1.8-15.3l28.9,15.9l0-0.1l-28.9-16l-0.1,0l-49.5,10.1l-0.1,0L84.3,41.5l-0.1,0
				l-32.6,27l0,0L-2.8,57l0,0.1l54.3,11.5L37.1,86.4L-2.8,58l0,0.1L37.1,86.4z M163.5,67.1l9.1-14.3l-1.8,15.2L163.5,67.1z
				 M163.4,67.1l-40-4.4l49.1-10L163.4,67.1z M123.2,62.7l40.1,4.4l-14,22L123.2,62.7z M92.1,65.3l30.9-2.5L97,80.4L92.1,65.3z
				 M84.3,41.6l38.6,21L92,65.2L84.3,41.6z M75.4,66.6l8.9-24.9L92,65.2L75.4,66.6z M51.7,68.5l32.5-26.8l-8.9,24.9L51.7,68.5z"/>
			<polygon class="st4" points="-2.8,59.2 17.5,101.3 17.5,101.3 -2.9,59.2 			"/>
		</g>
		<path class="st4" d="M172.1,52.6c0,0.3,0.2,0.5,0.5,0.5c0.3,0,0.5-0.2,0.5-0.5c0-0.3-0.2-0.5-0.5-0.5
			C172.3,52.1,172.1,52.3,172.1,52.6z"/>
		<path class="st4" d="M170.3,68c0,0.3,0.2,0.5,0.5,0.5s0.5-0.2,0.5-0.5c0-0.3-0.2-0.5-0.5-0.5S170.3,67.7,170.3,68z"/>
		<ellipse class="st4" cx="163.4" cy="67.1" rx="0.5" ry="0.5"/>
		<path class="st4" d="M122.6,62.7c0,0.3,0.2,0.5,0.5,0.5c0.3,0,0.5-0.2,0.5-0.5c0-0.3-0.2-0.5-0.5-0.5
			C122.8,62.2,122.6,62.4,122.6,62.7z"/>
		<path class="st4" d="M148.9,89.3c0,0.3,0.2,0.5,0.5,0.5c0.3,0,0.5-0.2,0.5-0.5c0-0.3-0.2-0.5-0.5-0.5
			C149.1,88.7,148.9,89,148.9,89.3z"/>
		<path class="st4" d="M96.5,80.5c0,0.3,0.2,0.5,0.5,0.5c0.3,0,0.5-0.2,0.5-0.5c0-0.3-0.2-0.5-0.5-0.5
			C96.7,79.9,96.5,80.2,96.5,80.5z"/>
		<path class="st4" d="M91.5,65.2c0,0.3,0.2,0.5,0.5,0.5s0.5-0.2,0.5-0.5c0-0.3-0.2-0.5-0.5-0.5S91.5,65,91.5,65.2z"/>
		<path class="st4" d="M74.8,66.6c0,0.3,0.2,0.5,0.5,0.5s0.5-0.2,0.5-0.5c0-0.3-0.2-0.5-0.5-0.5S74.8,66.3,74.8,66.6z"/>
		<path class="st4" d="M51,68.6c0,0.3,0.2,0.5,0.5,0.5c0.3,0,0.5-0.2,0.5-0.5c0-0.3-0.2-0.5-0.5-0.5C51.3,68,51,68.3,51,68.6z"/>
		<path class="st4" d="M36.7,86.4c0,0.3,0.2,0.5,0.5,0.5c0.3,0,0.5-0.2,0.5-0.5c0-0.3-0.2-0.5-0.5-0.5
			C36.9,85.9,36.7,86.1,36.7,86.4z"/>
		<path class="st4" d="M83.8,41.6c0,0.3,0.2,0.5,0.5,0.5s0.5-0.2,0.5-0.5c0-0.3-0.2-0.5-0.5-0.5S83.8,41.3,83.8,41.6z"/>
	</g>
	<g>
		<g>
			<polygon class="st3" points="101.7,81.1 106.7,66 75.8,63.5 			"/>
			<polygon class="st3" points="75.8,63.4 106.7,65.9 114.4,42.4 			"/>
			<polygon class="st3" points="26.2,53.4 35.4,67.8 75.3,63.4 			"/>
			<polygon class="st3" points="28,68.6 35.3,67.8 26.2,53.5 			"/>
			<polygon class="st3" points="49.4,89.9 75.5,63.5 35.4,67.9 			"/>
			<polygon class="st3" points="106.8,65.9 123.4,67.3 114.5,42.4 			"/>
			<polygon class="st3" points="123.4,67.3 147,69.2 114.6,42.4 			"/>
			<polygon class="st4" points="-2.9,78.2 26.3,102.1 26.4,102 -2.8,78.2 			"/>
			<path class="st4" d="M201.6,58.7L201.6,58.7l-40,28.3l-14.3-17.8l54.3-11.5l0-0.1l-54.4,11.5l0,0l-32.6-27l-0.1,0L75.7,63.3
				l-0.1,0L26.1,53.3l-0.1,0l-28.9,16l0,0.1l28.9-15.9l1.8,15.3L-2.8,72l0,0.1l30.7-3.4l3.9,33.3l0.1,0L28,68.7l7.4-0.8l14,22.1
				l-11.9,12l0.1,0.1l11.9-12l7.6,12l0.1,0l-7.6-12l26.1-26.4L59.7,102l0.1,0l15.9-38.5L89.4,102l0.1,0L75.7,63.5l26,17.7L94.9,102
				l0.1,0l6.8-20.8l30.6,20.8l0-0.1l-30.6-20.8l5-15.2l16.6,1.4l12.4,34.7l0.1,0l-12.4-34.6l23.6,1.9l-9.7,32.7l0.1,0l9.7-32.7
				l14.3,17.8L140.6,102l0,0.1l20.9-14.9l11.9,14.9l0.1-0.1l-11.9-14.9L201.6,58.7z M28,68.6l-1.8-15.2l9.1,14.3L28,68.6z
				 M26.2,53.4l49.1,10l-40,4.4L26.2,53.4z M49.4,89.9l-14-22l40.1-4.4L49.4,89.9z M101.7,81.1L75.8,63.5l30.9,2.5L101.7,81.1z
				 M106.7,65.9l-30.9-2.5l38.6-21L106.7,65.9z M106.8,65.9l7.7-23.5l8.9,24.9L106.8,65.9z M123.4,67.3l-8.9-24.9L147,69.2
				L123.4,67.3z"/>
			<polygon class="st4" points="201.5,59.9 181.2,102 181.3,102 201.6,59.9 			"/>
		</g>
		<path class="st4" d="M26.7,53.3c0,0.3-0.2,0.5-0.5,0.5c-0.3,0-0.5-0.2-0.5-0.5c0-0.3,0.2-0.5,0.5-0.5C26.4,52.8,26.7,53,26.7,53.3
			z"/>
		<path class="st4" d="M28.4,68.7c0,0.3-0.2,0.5-0.5,0.5s-0.5-0.2-0.5-0.5c0-0.3,0.2-0.5,0.5-0.5S28.4,68.4,28.4,68.7z"/>
		<path class="st4" d="M35.9,67.8c0,0.3-0.2,0.5-0.5,0.5c-0.3,0-0.5-0.2-0.5-0.5c0-0.3,0.2-0.5,0.5-0.5
			C35.6,67.3,35.9,67.6,35.9,67.8z"/>
		<path class="st4" d="M76.2,63.4c0,0.3-0.2,0.5-0.5,0.5c-0.3,0-0.5-0.2-0.5-0.5s0.2-0.5,0.5-0.5C75.9,62.9,76.2,63.1,76.2,63.4z"/>
		<path class="st4" d="M49.9,90c0,0.3-0.2,0.5-0.5,0.5c-0.3,0-0.5-0.2-0.5-0.5s0.2-0.5,0.5-0.5C49.6,89.4,49.9,89.7,49.9,90z"/>
		<path class="st4" d="M102.3,81.2c0,0.3-0.2,0.5-0.5,0.5s-0.5-0.2-0.5-0.5c0-0.3,0.2-0.5,0.5-0.5S102.3,80.9,102.3,81.2z"/>
		<path class="st4" d="M107.2,65.9c0,0.3-0.2,0.5-0.5,0.5s-0.5-0.2-0.5-0.5c0-0.3,0.2-0.5,0.5-0.5S107.2,65.7,107.2,65.9z"/>
		<path class="st4" d="M123.9,67.3c0,0.3-0.2,0.5-0.5,0.5c-0.3,0-0.5-0.2-0.5-0.5c0-0.3,0.2-0.5,0.5-0.5
			C123.7,66.8,123.9,67,123.9,67.3z"/>
		<path class="st4" d="M147.7,69.3c0,0.3-0.2,0.5-0.5,0.5c-0.3,0-0.5-0.2-0.5-0.5c0-0.3,0.2-0.5,0.5-0.5
			C147.5,68.7,147.7,69,147.7,69.3z"/>
		<path class="st4" d="M162.1,87.1c0,0.3-0.2,0.5-0.5,0.5s-0.5-0.2-0.5-0.5s0.2-0.5,0.5-0.5S162.1,86.8,162.1,87.1z"/>
		<path class="st4" d="M115,42.3c0,0.3-0.2,0.5-0.5,0.5c-0.3,0-0.5-0.2-0.5-0.5c0-0.3,0.2-0.5,0.5-0.5C114.8,41.8,115,42,115,42.3z"
			/>
	</g>
	<g class="st5">
		<g>
			<polygon class="st3" points="101.7,102 106.7,86.9 75.8,84.4 			"/>
			<polygon class="st3" points="75.8,84.3 106.7,86.8 114.4,63.3 			"/>
			<polygon class="st3" points="26.2,74.3 35.4,88.7 75.3,84.3 			"/>
			<polygon class="st3" points="27.9,89.6 35.3,88.8 26.2,74.4 			"/>
			<polygon class="st3" points="49.4,110.9 75.5,84.4 35.4,88.8 			"/>
			<polygon class="st3" points="106.8,86.8 123.4,88.2 114.5,63.3 			"/>
			<polygon class="st3" points="123.4,88.2 147,90.2 114.6,63.3 			"/>
			<path class="st4" d="M201.6,79.7L201.6,79.7l-40,28.3l-14.3-17.8l54.3-11.5l0-0.1l-54.4,11.5l0,0l-32.6-27l-0.1,0L75.7,84.2
				l-0.1,0L26.1,74.2l-0.1,0l-28.9,16l0,0.1l28.9-15.9l1.8,15.3L-2.8,93l0,0.1l30.7-3.4l3.9,33.3l0.1,0L28,89.7l7.4-0.8l14,22.1
				l-11.9,12l0.1,0.1l11.9-12l7.6,12l0.1,0l-7.6-12l26.1-26.4l-15.8,38.4l0.1,0l15.9-38.5L89.4,123l0.1,0L75.7,84.4l26,17.7
				l-6.8,20.8l0.1,0l6.8-20.8l30.6,20.8l0-0.1l-30.6-20.8l5-15.2l16.6,1.4l12.4,34.7l0.1,0l-12.4-34.6l23.6,1.9l-9.7,32.7l0.1,0
				l9.7-32.7l14.3,17.8l-20.9,14.9l0,0.1l20.9-14.9l11.9,14.9l0.1-0.1l-11.9-14.9L201.6,79.7z M27.9,89.6l-1.8-15.2l9.1,14.3
				L27.9,89.6z M26.2,74.3l49.1,10l-40,4.4L26.2,74.3z M49.4,110.9l-14-22l40.1-4.4L49.4,110.9z M101.7,102L75.8,84.4l30.9,2.5
				L101.7,102z M106.7,86.8l-30.9-2.5l38.6-21L106.7,86.8z M106.8,86.8l7.7-23.5l8.9,24.9L106.8,86.8z M123.4,88.2l-8.9-24.9
				L147,90.2L123.4,88.2z"/>
			<polygon class="st4" points="201.5,80.8 181.2,122.9 181.3,123 201.6,80.8 			"/>
		</g>
		<path class="st4" d="M26.7,74.3c0,0.3-0.2,0.5-0.5,0.5c-0.3,0-0.5-0.2-0.5-0.5c0-0.3,0.2-0.5,0.5-0.5C26.4,73.7,26.7,74,26.7,74.3
			z"/>
		<path class="st4" d="M28.4,89.6c0,0.3-0.2,0.5-0.5,0.5c-0.3,0-0.5-0.2-0.5-0.5c0-0.3,0.2-0.5,0.5-0.5
			C28.2,89.1,28.4,89.3,28.4,89.6z"/>
		<path class="st4" d="M35.9,88.8c0,0.3-0.2,0.5-0.5,0.5c-0.3,0-0.5-0.2-0.5-0.5c0-0.3,0.2-0.5,0.5-0.5
			C35.6,88.3,35.9,88.5,35.9,88.8z"/>
		<path class="st4" d="M76.2,84.3c0,0.3-0.2,0.5-0.5,0.5c-0.3,0-0.5-0.2-0.5-0.5s0.2-0.5,0.5-0.5C75.9,83.8,76.2,84.1,76.2,84.3z"/>
		<path class="st4" d="M49.9,110.9c0,0.3-0.2,0.5-0.5,0.5s-0.5-0.2-0.5-0.5c0-0.3,0.2-0.5,0.5-0.5S49.9,110.6,49.9,110.9z"/>
		<path class="st4" d="M102.3,102.1c0,0.3-0.2,0.5-0.5,0.5c-0.3,0-0.5-0.2-0.5-0.5c0-0.3,0.2-0.5,0.5-0.5
			C102,101.6,102.3,101.8,102.3,102.1z"/>
		<path class="st4" d="M107.2,86.9c0,0.3-0.2,0.5-0.5,0.5c-0.3,0-0.5-0.2-0.5-0.5c0-0.3,0.2-0.5,0.5-0.5
			C107,86.4,107.2,86.6,107.2,86.9z"/>
		<path class="st4" d="M123.9,88.3c0,0.3-0.2,0.5-0.5,0.5c-0.3,0-0.5-0.2-0.5-0.5c0-0.3,0.2-0.5,0.5-0.5
			C123.7,87.7,123.9,88,123.9,88.3z"/>
		<path class="st4" d="M147.7,90.2c0,0.3-0.2,0.5-0.5,0.5c-0.3,0-0.5-0.2-0.5-0.5c0-0.3,0.2-0.5,0.5-0.5
			C147.5,89.7,147.7,89.9,147.7,90.2z"/>
		<path class="st4" d="M162.1,108.1c0,0.3-0.2,0.5-0.5,0.5c-0.3,0-0.5-0.2-0.5-0.5s0.2-0.5,0.5-0.5
			C161.8,107.5,162.1,107.8,162.1,108.1z"/>
		<path class="st4" d="M115,63.2c0,0.3-0.2,0.5-0.5,0.5c-0.3,0-0.5-0.2-0.5-0.5c0-0.3,0.2-0.5,0.5-0.5C114.8,62.7,115,62.9,115,63.2
			z"/>
	</g>
</g>
</svg>
