<?xml version="1.0" encoding="utf-8"?>
<!-- Generator: Adobe Illustrator 22.1.0, SVG Export Plug-In . SVG Version: 6.00 Build 0)  -->
<svg version="1.1" xmlns="http://www.w3.org/2000/svg" xmlns:xlink="http://www.w3.org/1999/xlink" x="0px" y="0px"
	 viewBox="0 0 100 100" style="enable-background:new 0 0 100 100;" xml:space="preserve">
<style type="text/css">
	.st0{display:none;}
	.st1{display:inline;}
	.st2{fill:none;stroke:#EB1D39;stroke-miterlimit:10;}
	.st3{fill:none;stroke:#EB1D39;stroke-width:1.5;stroke-miterlimit:10;}
	.st4{fill:#EB1D39;stroke:#FFFFFF;stroke-width:0.25;stroke-miterlimit:10;}
</style>
<g id="Layer_1" class="st0">
	<g class="st1">
		<circle class="st2" cx="49.9" cy="51.3" r="42.7"/>
		
			<image style="overflow:visible;" width="426" height="223" xlink:href="5A047DD23BA537C2.jpg"  transform="matrix(0.1112 0 0 0.1112 25.488 38.0209)">
		</image>
	</g>
</g>
<g id="Layer_2" class="st0">
	<g class="st1">
		<circle class="st2" cx="49.6" cy="51.3" r="42.7"/>
		<g>
			<path class="st3" d="M48.9,49.6h-12c-1.1,0-2-0.9-2-2v-17c0-1.1,0.9-2,2-2h28c1.1,0,2,0.9,2,2v17c0,1.1-0.9,2-2,2h-1v4
				c0,1-1.2,1.4-1.8,0.6l-4.2-4.6h-2"/>
			<path class="st3" d="M40.9,71.6h1c2.2,0,0.8,1,4,1c0.6,0,9,0,9,0"/>
			<path class="st3" d="M60.9,57.6h-3c-1.1,0-2,0.9-2,2c0,1.1,0.9,2,2,2h3c1.1,0,2-0.9,2-2C62.9,58.5,62,57.6,60.9,57.6z"/>
			<path class="st3" d="M62.9,65.6v2c0,1.1-0.9,2-2,2h-3c-1.1,0-2-0.9-2-2c0-1.1,0.9-2,2-2h1"/>
			<path class="st3" d="M60.9,69.6v2c0,1.1-0.9,2-2,2h-2c-1.1,0-2-0.9-2-2c0-1.1,0.9-2,2-2h1"/>
			<rect x="34.9" y="55.6" class="st3" width="6" height="17"/>
			<path class="st3" d="M57.9,61.6h1c-1.1,0-2,0.9-2,2l0,0c0,1.1,0.9,2,2,2h3c1.1,0,2-0.9,2-2l0,0c0-1.1-0.9-2-2-2h-1"/>
			<path class="st3" d="M47.2,66c3.3-1.2,4.7-4.1,5.7-7.4c0,0,0-2.6,0-3c0-0.5,0.5-1.5,0.5-3.8c0-2.3-0.5-3.2-1.5-4.4
				c-1-1.3-2.9-1-2.9,0.2v1c0,2.8-1,4.8-2.9,6.9l-3.1,2.1h-2"/>
		</g>
	</g>
</g>
<g id="Layer_3">
	<g>
		<circle class="st2" cx="49.7" cy="51.3" r="42.7"/>
		<g>
			<path class="st4" d="M71.6,41.2c-0.5-1.7-1.2-3.2-2.1-4.6l-1.4-2c-2.4-2.9-5.7-5.1-9.5-6.2c-0.6-0.2-1.3-0.3-1.9-0.4
				c-0.3,0-0.5,0-0.7,0.2c-0.2,0.2-0.4,0.4-0.4,0.6l-2.9,17.8c-0.1,0.3,0.1,0.7,0.3,0.9c0.2,0.2,0.4,0.2,0.6,0.2c0.1,0,0.2,0,0.3,0
				l17-5.4C71.5,42.2,71.8,41.7,71.6,41.2z M54.9,45.4l2.5-15.3c0.2,0.1,0.5,0.1,0.7,0.2c5.3,1.5,9.5,5.3,11.3,10.5L54.9,45.4z"/>
			<path class="st4" d="M66.2,59.9c0.6-1.1,1.1-2.4,1.4-3.6c0.9-3.4,0.9-6.9-0.1-10.3c-0.1-0.3-0.2-0.5-0.5-0.6
				c-0.2-0.1-0.5-0.1-0.8-0.1l-15.5,4.9L53.4,34c0.1-0.5-0.3-1-0.8-1.1c-1-0.2-2-0.3-3.1-0.3c-7.4,0-14.1,4.4-17.1,11l-0.8,2
				c-0.1,0.3-0.2,0.5-0.2,0.8c-2,7.3,0.6,14.8,6.1,19.4l1.6,1.2c1.6,1.1,3.4,1.9,5.4,2.5c1.6,0.4,3.3,0.7,5,0.7
				c4.4,0,8.5-1.6,11.8-4.2c0.1,0,0.2-0.1,0.3-0.2c0.1-0.1,0.2-0.2,0.2-0.3c1.3-1.1,2.4-2.4,3.3-3.8L66.2,59.9z M33.4,46.9
				c2-7.3,8.6-12.3,16.2-12.3c0.6,0,1.2,0,1.8,0.1l-2.6,16.2l-15.5,4C32.6,52.3,32.7,49.5,33.4,46.9z M45.1,67.5
				c-5.6-1.5-9.7-5.7-11.4-10.8l15.5-4l10.4,12c-2.8,2.1-6.3,3.3-10,3.3C48.1,68.1,46.6,67.9,45.1,67.5z M61.1,63.5l-9.8-11.4
				l14.6-4.6c0.6,2.7,0.6,5.5-0.2,8.2C64.9,58.8,63.3,61.4,61.1,63.5z"/>
		</g>
	</g>
</g>
</svg>
