<?xml version="1.0" encoding="utf-8"?>
<!-- Generator: Adobe Illustrator 22.1.0, SVG Export Plug-In . SVG Version: 6.00 Build 0)  -->
<svg version="1.1" id="Layer_1" xmlns="http://www.w3.org/2000/svg" xmlns:xlink="http://www.w3.org/1999/xlink" x="0px" y="0px"
	 viewBox="0 0 600 300" style="enable-background:new 0 0 600 300;" xml:space="preserve">
<style type="text/css">
	.st0{fill:#CE203D;}
	.st1{fill:none;stroke:#CE203D;stroke-width:2;stroke-miterlimit:8;}
	.st2{fill:#FFFFFF;}
	.st3{fill:#CE203D;stroke:#575757;stroke-miterlimit:10;}
	.st4{fill:#CE203D;stroke:#575757;stroke-miterlimit:8;}
	.st5{fill:#EC1D3A;}
	.st6{fill:none;stroke:#EC1D3A;stroke-width:2;stroke-miterlimit:8;}
	.st7{fill:#828282;}
	.st8{fill:none;stroke:#828282;stroke-width:2;stroke-miterlimit:8;}
</style>
<rect x="2.6" y="118.2" class="st0" width="118.7" height="109.1"/>
<rect x="2.6" y="118.2" class="st1" width="118.7" height="109.1"/>
<g>
	<path class="st2" d="M29.6,166.3v1.9h-7.7v-10h7.5v1.9h-5.2v2.2h4.6v1.8h-4.6v2.3L29.6,166.3L29.6,166.3z"/>
	<path class="st2" d="M40.5,158.2v10h-1.9l-5-6.1v6.1h-2.3v-10h1.9l4.9,6.1v-6.1H40.5z"/>
	<path class="st2" d="M43,158.2h4.5c1.1,0,2,0.2,2.9,0.6c0.8,0.4,1.5,1,1.9,1.8c0.5,0.8,0.7,1.6,0.7,2.6s-0.2,1.9-0.7,2.6
		c-0.5,0.8-1.1,1.3-1.9,1.8c-0.8,0.4-1.8,0.6-2.9,0.6H43V158.2z M47.4,166.3c1,0,1.8-0.3,2.4-0.8c0.6-0.6,0.9-1.3,0.9-2.3
		s-0.3-1.7-0.9-2.3c-0.6-0.6-1.4-0.8-2.4-0.8h-2.1v6.2L47.4,166.3L47.4,166.3z"/>
	<path class="st2" d="M55.8,167.2c-0.8-0.8-1.2-1.9-1.2-3.4v-5.6H57v5.5c0,1.8,0.7,2.7,2.2,2.7c0.7,0,1.3-0.2,1.6-0.7
		c0.4-0.4,0.6-1.1,0.6-2v-5.5h2.3v5.6c0,1.5-0.4,2.6-1.2,3.4c-0.8,0.8-1.9,1.2-3.3,1.2S56.6,168,55.8,167.2z"/>
	<path class="st2" d="M72.3,168.2l-1.9-2.8h-0.1h-2v2.8H66v-10h4.3c0.9,0,1.6,0.1,2.3,0.4c0.6,0.3,1.1,0.7,1.5,1.3
		c0.3,0.5,0.5,1.2,0.5,1.9s-0.2,1.4-0.5,1.9c-0.4,0.5-0.9,0.9-1.5,1.2l2.2,3.2h-2.5V168.2z M71.7,160.5c-0.4-0.3-0.9-0.5-1.6-0.5
		h-1.9v3.5h1.9c0.7,0,1.2-0.2,1.6-0.5s0.5-0.7,0.5-1.3C72.2,161.2,72.1,160.8,71.7,160.5z"/>
	<path class="st2" d="M76.5,158.2h2.3v10h-2.3V158.2z"/>
	<path class="st2" d="M90.3,158.2v10h-1.9l-5-6.1v6.1h-2.3v-10H83l4.9,6.1v-6.1H90.3z"/>
	<path class="st2" d="M99.4,163h2.1v4.1c-0.5,0.4-1.2,0.7-1.9,0.9c-0.7,0.2-1.4,0.3-2.1,0.3c-1,0-2-0.2-2.8-0.7
		c-0.8-0.4-1.5-1.1-1.9-1.8c-0.5-0.8-0.7-1.7-0.7-2.7s0.2-1.9,0.7-2.7s1.1-1.4,2-1.8c0.8-0.4,1.8-0.7,2.8-0.7c0.9,0,1.7,0.1,2.4,0.4
		c0.7,0.3,1.3,0.7,1.8,1.3l-1.5,1.4c-0.7-0.8-1.6-1.1-2.6-1.1c-0.6,0-1.2,0.1-1.7,0.4c-0.5,0.3-0.9,0.6-1.1,1.1
		c-0.3,0.5-0.4,1-0.4,1.7c0,0.6,0.1,1.2,0.4,1.7s0.7,0.9,1.1,1.1c0.5,0.3,1,0.4,1.7,0.4s1.3-0.1,1.8-0.4V163H99.4z"/>
</g>
<g>
	<path class="st2" d="M29,185.9c-0.8-0.4-1.5-1.1-1.9-1.8c-0.5-0.8-0.7-1.7-0.7-2.7s0.2-1.9,0.7-2.7s1.1-1.4,1.9-1.8
		c0.8-0.4,1.7-0.7,2.8-0.7c0.9,0,1.6,0.2,2.3,0.5s1.3,0.7,1.8,1.3l-1.5,1.4c-0.7-0.8-1.5-1.2-2.5-1.2c-0.6,0-1.2,0.1-1.6,0.4
		c-0.5,0.3-0.9,0.6-1.1,1.1c-0.3,0.5-0.4,1-0.4,1.7c0,0.6,0.1,1.2,0.4,1.7s0.6,0.9,1.1,1.1c0.5,0.3,1,0.4,1.6,0.4
		c1,0,1.8-0.4,2.5-1.2l1.5,1.4c-0.5,0.6-1.1,1-1.8,1.3s-1.5,0.5-2.3,0.5C30.7,186.5,29.8,186.3,29,185.9z"/>
	<path class="st2" d="M39.4,185.9c-0.8-0.4-1.5-1.1-1.9-1.9c-0.5-0.8-0.7-1.7-0.7-2.7s0.2-1.9,0.7-2.7s1.1-1.4,1.9-1.8
		c0.8-0.4,1.8-0.7,2.8-0.7s2,0.2,2.8,0.7c0.8,0.4,1.5,1.1,1.9,1.8c0.5,0.8,0.7,1.7,0.7,2.7s-0.2,1.9-0.7,2.7s-1.1,1.4-1.9,1.9
		c-0.8,0.4-1.8,0.7-2.8,0.7C41.1,186.5,40.2,186.3,39.4,185.9z M43.7,184.2c0.5-0.3,0.8-0.7,1.1-1.1c0.3-0.5,0.4-1,0.4-1.7
		c0-0.6-0.1-1.2-0.4-1.7c-0.3-0.5-0.6-0.9-1.1-1.1c-0.5-0.3-1-0.4-1.6-0.4s-1.1,0.1-1.6,0.4c-0.5,0.3-0.8,0.6-1.1,1.1
		s-0.4,1-0.4,1.7c0,0.6,0.1,1.2,0.4,1.7c0.3,0.5,0.6,0.9,1.1,1.1c0.5,0.3,1,0.4,1.6,0.4C42.7,184.6,43.3,184.4,43.7,184.2z"/>
	<path class="st2" d="M58.4,176.4v10h-1.9l-5-6.1v6.1h-2.3v-10h1.9l4.9,6.1v-6.1H58.4z"/>
	<path class="st2" d="M62.9,178.2h-3.2v-1.9h8.7v1.9h-3.2v8.1h-2.3C62.9,186.3,62.9,178.2,62.9,178.2z"/>
	<path class="st2" d="M77.4,184.5v1.9h-7.7v-10h7.5v1.9H72v2.2h4.6v1.8H72v2.3L77.4,184.5L77.4,184.5z"/>
	<path class="st2" d="M88.3,176.4v10h-1.9l-5-6.1v6.1h-2.3v-10H81l4.9,6.1v-6.1H88.3z"/>
	<path class="st2" d="M92.8,178.2h-3.2v-1.9h8.7v1.9h-3.2v8.1h-2.3V178.2z"/>
</g>
<rect x="161.3" y="115.6" class="st0" width="118.7" height="109.1"/>
<rect x="161.3" y="115.6" class="st1" width="118.7" height="109.1"/>
<g>
	<path class="st2" d="M220.2,171.9h-4.6l-0.9,2.1h-2.4l4.4-10h2.3l4.4,10H221L220.2,171.9z M219.5,170.1l-1.6-3.8l-1.6,3.8H219.5z"
		/>
	<path class="st2" d="M224.5,164h2.3v10h-2.3V164z"/>
</g>
<rect x="318.6" y="115.6" class="st3" width="118.7" height="109.1"/>
<rect x="318.6" y="115.6" class="st1" width="118.7" height="109.1"/>
<g>
	<path class="st2" d="M331.5,165.9h-3.2V164h8.7v1.9h-3.2v8.1h-2.3V165.9z"/>
	<path class="st2" d="M344.7,174l-1.9-2.8h-0.1h-2v2.8h-2.3v-10h4.3c0.9,0,1.6,0.1,2.3,0.4c0.6,0.3,1.1,0.7,1.5,1.3
		c0.3,0.5,0.5,1.2,0.5,1.9s-0.2,1.4-0.5,1.9c-0.4,0.5-0.9,0.9-1.5,1.2l2.2,3.2h-2.5V174z M344.1,166.4c-0.4-0.3-0.9-0.5-1.6-0.5
		h-1.9v3.5h1.9c0.7,0,1.2-0.2,1.6-0.5s0.5-0.7,0.5-1.3C344.6,167.1,344.4,166.7,344.1,166.4z"/>
	<path class="st2" d="M355.4,171.9h-4.6l-0.9,2.1h-2.4l4.4-10h2.3l4.4,10h-2.4L355.4,171.9z M354.6,170.1l-1.6-3.8l-1.6,3.8H354.6z"
		/>
	<path class="st2" d="M368.8,164v10h-1.9l-5-6.1v6.1h-2.3v-10h1.9l4.9,6.1V164H368.8z"/>
	<path class="st2" d="M372.2,173.9c-0.7-0.2-1.3-0.5-1.8-0.8l0.8-1.7c0.4,0.3,0.9,0.6,1.5,0.8s1.2,0.3,1.8,0.3
		c0.7,0,1.1-0.1,1.4-0.3s0.5-0.5,0.5-0.8c0-0.2-0.1-0.4-0.3-0.6c-0.2-0.2-0.4-0.3-0.7-0.4c-0.3-0.1-0.7-0.2-1.2-0.3
		c-0.8-0.2-1.4-0.4-1.9-0.5c-0.5-0.2-0.9-0.5-1.2-0.9c-0.3-0.4-0.5-0.9-0.5-1.6c0-0.6,0.2-1.1,0.5-1.6s0.8-0.8,1.4-1.1
		s1.4-0.4,2.3-0.4c0.6,0,1.3,0.1,1.9,0.2c0.6,0.2,1.1,0.4,1.6,0.7l-0.7,1.8c-0.9-0.5-1.8-0.8-2.8-0.8c-0.6,0-1.1,0.1-1.4,0.3
		s-0.5,0.5-0.5,0.8s0.2,0.6,0.5,0.8c0.4,0.2,0.9,0.3,1.6,0.5c0.8,0.2,1.4,0.4,1.9,0.5c0.5,0.2,0.9,0.5,1.2,0.9
		c0.3,0.4,0.5,0.9,0.5,1.6c0,0.6-0.2,1.1-0.5,1.6s-0.8,0.8-1.4,1.1s-1.4,0.4-2.3,0.4C373.7,174.2,372.9,174.1,372.2,173.9z"/>
	<path class="st2" d="M389.3,174v-6l-2.9,4.9h-1l-2.9-4.8v5.9h-2.2v-10h1.9l3.7,6.2l3.7-6.2h1.9v10L389.3,174L389.3,174z"/>
	<path class="st2" d="M401.5,172.2v1.9h-7.7v-10h7.5v1.9h-5.2v2.2h4.6v1.8h-4.6v2.3L401.5,172.2L401.5,172.2z"/>
	<path class="st2" d="M403.3,164h4.5c1.1,0,2,0.2,2.9,0.6c0.8,0.4,1.5,1,1.9,1.8c0.5,0.8,0.7,1.6,0.7,2.6s-0.2,1.9-0.7,2.6
		c-0.5,0.8-1.1,1.3-1.9,1.8c-0.8,0.4-1.8,0.6-2.9,0.6h-4.5V164z M407.7,172.1c1,0,1.8-0.3,2.4-0.8c0.6-0.6,0.9-1.3,0.9-2.3
		s-0.3-1.7-0.9-2.3s-1.4-0.8-2.4-0.8h-2.1v6.2L407.7,172.1L407.7,172.1z"/>
	<path class="st2" d="M415.1,164h2.3v10h-2.3V164z"/>
	<path class="st2" d="M426.4,171.9h-4.6l-0.9,2.1h-2.4l4.4-10h2.3l4.4,10h-2.4L426.4,171.9z M425.6,170.1l-1.6-3.8l-1.6,3.8H425.6z"
		/>
</g>
<rect x="476" y="114.3" class="st4" width="120" height="110.4"/>
<rect x="476" y="114.3" class="st1" width="120" height="110.4"/>
<g>
	<path class="st2" d="M512.6,168.2h2.1v4.1c-0.5,0.4-1.2,0.7-1.9,0.9s-1.4,0.3-2.1,0.3c-1,0-2-0.2-2.8-0.7c-0.8-0.4-1.5-1.1-1.9-1.8
		c-0.5-0.8-0.7-1.7-0.7-2.7s0.2-1.9,0.7-2.7s1.1-1.4,2-1.8c0.8-0.4,1.8-0.7,2.8-0.7c0.9,0,1.7,0.1,2.4,0.4c0.7,0.3,1.3,0.7,1.8,1.3
		l-1.5,1.4c-0.7-0.8-1.6-1.1-2.6-1.1c-0.6,0-1.2,0.1-1.7,0.4c-0.5,0.3-0.9,0.6-1.1,1.1c-0.3,0.5-0.4,1-0.4,1.7
		c0,0.6,0.1,1.2,0.4,1.7s0.7,0.9,1.1,1.1c0.5,0.3,1,0.4,1.7,0.4s1.3-0.1,1.8-0.4L512.6,168.2L512.6,168.2z"/>
	<path class="st2" d="M523.4,171.2h-4.6l-0.9,2.1h-2.4l4.4-10h2.3l4.4,10h-2.4L523.4,171.2z M522.7,169.5l-1.6-3.8l-1.6,3.8H522.7z"
		/>
	<path class="st2" d="M536.7,173.4v-6l-2.9,4.9h-1l-2.9-4.8v5.9h-2.2v-10h1.9l3.7,6.2l3.7-6.2h1.9v10L536.7,173.4L536.7,173.4z"/>
	<path class="st2" d="M541.2,163.4h2.3v10h-2.3V163.4z"/>
	<path class="st2" d="M555.1,163.4v10h-1.9l-5-6.1v6.1H546v-10h1.9l4.9,6.1v-6.1H555.1z"/>
	<path class="st2" d="M564.2,168.2h2.1v4.1c-0.5,0.4-1.2,0.7-1.9,0.9s-1.4,0.3-2.1,0.3c-1,0-2-0.2-2.8-0.7c-0.8-0.4-1.5-1.1-1.9-1.8
		c-0.5-0.8-0.7-1.7-0.7-2.7s0.2-1.9,0.7-2.7s1.1-1.4,2-1.8c0.8-0.4,1.8-0.7,2.8-0.7c0.9,0,1.7,0.1,2.4,0.4c0.7,0.3,1.3,0.7,1.8,1.3
		l-1.5,1.4c-0.7-0.8-1.6-1.1-2.6-1.1c-0.6,0-1.2,0.1-1.7,0.4c-0.5,0.3-0.9,0.6-1.1,1.1c-0.3,0.5-0.4,1-0.4,1.7
		c0,0.6,0.1,1.2,0.4,1.7c0.3,0.5,0.7,0.9,1.1,1.1c0.5,0.3,1,0.4,1.7,0.4s1.3-0.1,1.8-0.4L564.2,168.2L564.2,168.2z"/>
</g>
<rect x="2.6" y="251.9" class="st5" width="593.4" height="31.2"/>
<rect x="2.6" y="251.9" class="st6" width="593.4" height="31.2"/>
<g>
	<path class="st2" d="M228.5,261.2c0.6,0.3,1.1,0.7,1.5,1.3c0.3,0.5,0.5,1.2,0.5,1.9c0,0.7-0.2,1.4-0.5,1.9c-0.4,0.5-0.8,1-1.5,1.3
		c-0.6,0.3-1.4,0.4-2.3,0.4h-2v2.8h-2.3v-10h4.3C227.1,260.8,227.9,260.9,228.5,261.2z M227.7,265.7c0.4-0.3,0.5-0.7,0.5-1.3
		c0-0.6-0.2-1-0.5-1.3c-0.4-0.3-0.9-0.5-1.6-0.5h-1.9v3.5h1.9C226.8,266.1,227.3,266,227.7,265.7z"/>
	<path class="st2" d="M238.6,270.8l-1.9-2.8h-0.1h-2v2.8h-2.3v-10h4.3c0.9,0,1.6,0.1,2.3,0.4c0.6,0.3,1.1,0.7,1.5,1.3
		c0.3,0.5,0.5,1.2,0.5,1.9c0,0.7-0.2,1.4-0.5,1.9c-0.4,0.5-0.9,0.9-1.5,1.2l2.2,3.2h-2.5V270.8z M238,263.1
		c-0.4-0.3-0.9-0.5-1.6-0.5h-1.9v3.5h1.9c0.7,0,1.2-0.2,1.6-0.5c0.4-0.3,0.5-0.7,0.5-1.3C238.6,263.8,238.4,263.4,238,263.1z"/>
	<path class="st2" d="M250.5,268.9v1.9h-7.7v-10h7.5v1.9H245v2.2h4.6v1.8H245v2.3L250.5,268.9L250.5,268.9z"/>
	<path class="st2" d="M254.3,270.3c-0.8-0.4-1.5-1.1-1.9-1.8c-0.5-0.8-0.7-1.7-0.7-2.7s0.2-1.9,0.7-2.7c0.5-0.8,1.1-1.4,1.9-1.8
		c0.8-0.4,1.7-0.7,2.8-0.7c0.9,0,1.6,0.2,2.3,0.5c0.7,0.3,1.3,0.7,1.8,1.3l-1.5,1.4c-0.7-0.8-1.5-1.2-2.5-1.2
		c-0.6,0-1.2,0.1-1.6,0.4c-0.5,0.3-0.9,0.6-1.1,1.1c-0.3,0.5-0.4,1-0.4,1.7c0,0.6,0.1,1.2,0.4,1.7c0.3,0.5,0.6,0.9,1.1,1.1
		c0.5,0.3,1,0.4,1.6,0.4c1,0,1.8-0.4,2.5-1.2l1.5,1.4c-0.5,0.6-1.1,1-1.8,1.3c-0.7,0.3-1.5,0.5-2.3,0.5
		C256,271,255.1,270.7,254.3,270.3z"/>
	<path class="st2" d="M262.7,260.8h2.3v10h-2.3V260.8z"/>
	<path class="st2" d="M268.4,270.6c-0.7-0.2-1.3-0.5-1.8-0.8l0.8-1.7c0.4,0.3,0.9,0.6,1.5,0.8c0.6,0.2,1.2,0.3,1.8,0.3
		c0.7,0,1.1-0.1,1.4-0.3c0.3-0.2,0.5-0.5,0.5-0.8c0-0.2-0.1-0.4-0.3-0.6c-0.2-0.2-0.4-0.3-0.7-0.4c-0.3-0.1-0.7-0.2-1.2-0.3
		c-0.8-0.2-1.4-0.4-1.9-0.5c-0.5-0.2-0.9-0.5-1.2-0.9c-0.3-0.4-0.5-0.9-0.5-1.6c0-0.6,0.2-1.1,0.5-1.6s0.8-0.8,1.4-1.1
		c0.6-0.3,1.4-0.4,2.3-0.4c0.6,0,1.3,0.1,1.9,0.2c0.6,0.2,1.1,0.4,1.6,0.7l-0.7,1.8c-0.9-0.5-1.8-0.8-2.8-0.8
		c-0.6,0-1.1,0.1-1.4,0.3c-0.3,0.2-0.5,0.5-0.5,0.8s0.2,0.6,0.5,0.8c0.4,0.2,0.9,0.3,1.6,0.5c0.8,0.2,1.4,0.4,1.9,0.5
		c0.5,0.2,0.9,0.5,1.2,0.9c0.3,0.4,0.5,0.9,0.5,1.6c0,0.6-0.2,1.1-0.5,1.6s-0.8,0.8-1.4,1.1c-0.6,0.3-1.4,0.4-2.3,0.4
		C269.8,271,269.1,270.8,268.4,270.6z"/>
	<path class="st2" d="M276.4,260.8h2.3v10h-2.3V260.8z"/>
	<path class="st2" d="M283.1,270.3c-0.8-0.4-1.5-1.1-1.9-1.9c-0.5-0.8-0.7-1.7-0.7-2.7s0.2-1.9,0.7-2.7c0.5-0.8,1.1-1.4,1.9-1.8
		s1.8-0.7,2.8-0.7s2,0.2,2.8,0.7c0.8,0.4,1.5,1.1,1.9,1.8c0.5,0.8,0.7,1.7,0.7,2.7s-0.2,1.9-0.7,2.7c-0.5,0.8-1.1,1.4-1.9,1.9
		c-0.8,0.4-1.8,0.7-2.8,0.7S284,270.7,283.1,270.3z M287.5,268.6c0.5-0.3,0.8-0.7,1.1-1.1c0.3-0.5,0.4-1,0.4-1.7
		c0-0.6-0.1-1.2-0.4-1.7s-0.6-0.9-1.1-1.1c-0.5-0.3-1-0.4-1.6-0.4s-1.1,0.1-1.6,0.4s-0.8,0.6-1.1,1.1c-0.3,0.5-0.4,1-0.4,1.7
		c0,0.6,0.1,1.2,0.4,1.7s0.6,0.9,1.1,1.1c0.5,0.3,1,0.4,1.6,0.4S287,268.8,287.5,268.6z"/>
	<path class="st2" d="M302.2,260.8v10h-1.9l-5-6.1v6.1H293v-10h1.9l4.9,6.1v-6.1H302.2z"/>
	<path class="st2" d="M317.6,270.8v-6l-2.9,4.9h-1l-2.9-4.8v5.9h-2.2v-10h1.9l3.7,6.2l3.7-6.2h1.9v10H317.6z"/>
	<path class="st2" d="M328.7,268.6h-4.6l-0.9,2.1h-2.4l4.4-10h2.3l4.4,10h-2.4L328.7,268.6z M328,266.9l-1.6-3.8l-1.6,3.8H328z"/>
	<path class="st2" d="M339.3,270.8l-1.9-2.8h-0.1h-2v2.8H333v-10h4.3c0.9,0,1.6,0.1,2.3,0.4c0.6,0.3,1.1,0.7,1.5,1.3
		c0.3,0.5,0.5,1.2,0.5,1.9c0,0.7-0.2,1.4-0.5,1.9c-0.4,0.5-0.9,0.9-1.5,1.2l2.2,3.2h-2.5V270.8z M338.8,263.1
		c-0.4-0.3-0.9-0.5-1.6-0.5h-1.9v3.5h1.9c0.7,0,1.2-0.2,1.6-0.5s0.5-0.7,0.5-1.3C339.3,263.8,339.1,263.4,338.8,263.1z"/>
	<path class="st2" d="M347.1,266.9l-1.3,1.4v2.5h-2.3v-10h2.3v4.7l4.4-4.7h2.6l-4.1,4.5l4.4,5.5h-2.7L347.1,266.9z"/>
	<path class="st2" d="M361.6,268.9v1.9h-7.7v-10h7.5v1.9h-5.2v2.2h4.6v1.8h-4.6v2.3L361.6,268.9L361.6,268.9z"/>
	<path class="st2" d="M365.5,262.7h-3.2v-1.9h8.7v1.9h-3.2v8.1h-2.3V262.7z"/>
	<path class="st2" d="M372.2,260.8h2.3v10h-2.3V260.8z"/>
	<path class="st2" d="M386,260.8v10h-1.9l-5-6.1v6.1h-2.3v-10h1.9l4.9,6.1v-6.1H386z"/>
	<path class="st2" d="M395.1,265.6h2.1v4.1c-0.5,0.4-1.2,0.7-1.9,0.9c-0.7,0.2-1.4,0.3-2.1,0.3c-1,0-2-0.2-2.8-0.7
		c-0.8-0.4-1.5-1.1-1.9-1.8c-0.5-0.8-0.7-1.7-0.7-2.7s0.2-1.9,0.7-2.7c0.5-0.8,1.1-1.4,2-1.8c0.8-0.4,1.8-0.7,2.8-0.7
		c0.9,0,1.7,0.1,2.4,0.4c0.7,0.3,1.3,0.7,1.8,1.3l-1.5,1.4c-0.7-0.8-1.6-1.1-2.6-1.1c-0.6,0-1.2,0.1-1.7,0.4s-0.9,0.6-1.1,1.1
		c-0.3,0.5-0.4,1-0.4,1.7c0,0.6,0.1,1.2,0.4,1.7s0.7,0.9,1.1,1.1c0.5,0.3,1,0.4,1.7,0.4s1.3-0.1,1.8-0.4L395.1,265.6L395.1,265.6z"
		/>
</g>
<rect y="16.9" class="st5" width="596" height="41.6"/>
<rect y="16.9" class="st6" width="596" height="41.6"/>
<g>
	<path class="st2" d="M225.5,41.1c-0.8-0.4-1.5-1.1-1.9-1.8c-0.5-0.8-0.7-1.7-0.7-2.7s0.2-1.9,0.7-2.7s1.1-1.4,1.9-1.8
		c0.8-0.4,1.7-0.7,2.8-0.7c0.9,0,1.6,0.2,2.3,0.5s1.3,0.7,1.8,1.3l-1.5,1.4c-0.7-0.8-1.5-1.2-2.5-1.2c-0.6,0-1.2,0.1-1.6,0.4
		c-0.5,0.3-0.9,0.6-1.1,1.1c-0.3,0.5-0.4,1-0.4,1.7c0,0.6,0.1,1.2,0.4,1.7c0.3,0.5,0.6,0.9,1.1,1.1c0.5,0.3,1,0.4,1.6,0.4
		c1,0,1.8-0.4,2.5-1.2l1.5,1.4c-0.5,0.6-1.1,1-1.8,1.3s-1.5,0.5-2.3,0.5C227.2,41.7,226.3,41.5,225.5,41.1z"/>
	<path class="st2" d="M235.9,41.1c-0.8-0.4-1.5-1.1-1.9-1.9c-0.5-0.8-0.7-1.7-0.7-2.7s0.2-1.9,0.7-2.6c0.5-0.8,1.1-1.4,1.9-1.9
		c0.8-0.4,1.8-0.7,2.8-0.7s2,0.2,2.8,0.7c0.8,0.4,1.5,1.1,1.9,1.9c0.5,0.8,0.7,1.7,0.7,2.6c0,1-0.2,1.9-0.7,2.7s-1.1,1.4-1.9,1.9
		c-0.8,0.4-1.8,0.7-2.8,0.7C237.6,41.7,236.7,41.5,235.9,41.1z M240.3,39.4c0.5-0.3,0.8-0.6,1.1-1.1s0.4-1,0.4-1.7
		c0-0.6-0.1-1.2-0.4-1.7c-0.3-0.5-0.6-0.9-1.1-1.1c-0.5-0.3-1-0.4-1.6-0.4s-1.1,0.1-1.6,0.4c-0.5,0.3-0.8,0.6-1.1,1.1
		s-0.4,1-0.4,1.7c0,0.6,0.1,1.2,0.4,1.7c0.3,0.5,0.6,0.9,1.1,1.1c0.5,0.3,1,0.4,1.6,0.4C239.3,39.8,239.8,39.6,240.3,39.4z"/>
	<path class="st2" d="M255,31.6v10h-1.9l-5-6.1v6.1h-2.3v-10h1.9l4.9,6.1v-6.1C252.6,31.6,255,31.6,255,31.6z"/>
	<path class="st2" d="M259.4,33.4h-3.2v-1.9h8.7v1.9h-3.2v8.1h-2.3V33.4z"/>
	<path class="st2" d="M273.9,39.7v1.9h-7.7v-10h7.5v1.9h-5.2v2.2h4.6v1.8h-4.6v2.3h5.4V39.7z"/>
	<path class="st2" d="M284.9,31.6v10H283l-5-6.1v6.1h-2.3v-10h1.9l4.9,6.1v-6.1C282.5,31.6,284.9,31.6,284.9,31.6z"/>
	<path class="st2" d="M289.3,33.4h-3.2v-1.9h8.7v1.9h-3.2v8.1h-2.3V33.4z"/>
	<path class="st2" d="M301.1,41.4c-0.7-0.2-1.3-0.5-1.8-0.8l0.8-1.7c0.4,0.3,0.9,0.6,1.5,0.8s1.2,0.3,1.8,0.3c0.7,0,1.1-0.1,1.4-0.3
		s0.5-0.5,0.5-0.8c0-0.2-0.1-0.4-0.3-0.6c-0.2-0.2-0.4-0.3-0.7-0.4c-0.3-0.1-0.7-0.2-1.2-0.3c-0.8-0.2-1.4-0.4-1.9-0.5
		c-0.5-0.2-0.9-0.5-1.2-0.9c-0.3-0.4-0.5-0.9-0.5-1.6c0-0.6,0.2-1.1,0.5-1.6s0.8-0.8,1.4-1.1c0.6-0.3,1.4-0.4,2.3-0.4
		c0.6,0,1.3,0.1,1.9,0.2c0.6,0.2,1.1,0.4,1.6,0.7l-0.7,1.8c-0.9-0.5-1.8-0.8-2.8-0.8c-0.6,0-1.1,0.1-1.4,0.3s-0.5,0.5-0.5,0.8
		s0.2,0.6,0.5,0.8c0.4,0.2,0.9,0.3,1.6,0.5c0.8,0.2,1.4,0.4,1.9,0.5c0.5,0.2,0.9,0.5,1.2,0.9c0.3,0.4,0.5,0.9,0.5,1.6
		c0,0.6-0.2,1.1-0.5,1.6s-0.8,0.8-1.4,1.1s-1.4,0.4-2.3,0.4C302.6,41.7,301.9,41.6,301.1,41.4z"/>
	<path class="st2" d="M311.2,33.4H308v-1.9h8.7v1.9h-3.2v8.1h-2.3V33.4z"/>
	<path class="st2" d="M324.3,41.6l-1.9-2.8h-0.1h-2v2.8H318v-10h4.3c0.9,0,1.6,0.1,2.3,0.4c0.6,0.3,1.1,0.7,1.5,1.3
		c0.3,0.5,0.5,1.2,0.5,1.9s-0.2,1.4-0.5,1.9c-0.4,0.5-0.9,0.9-1.5,1.2l2.2,3.2L324.3,41.6L324.3,41.6z M323.8,33.9
		c-0.4-0.3-0.9-0.4-1.6-0.4h-1.9V37h1.9c0.7,0,1.2-0.2,1.6-0.5s0.5-0.7,0.5-1.3C324.3,34.6,324.1,34.2,323.8,33.9z"/>
	<path class="st2" d="M335,39.4h-4.6l-0.9,2.1h-2.4l4.4-10h2.3l4.4,10h-2.4L335,39.4z M334.3,37.7l-1.6-3.8l-1.6,3.8H334.3z"/>
	<path class="st2" d="M341.4,33.4h-3.2v-1.9h8.7v1.9h-3.2v8.1h-2.3V33.4z"/>
	<path class="st2" d="M355.9,39.7v1.9h-7.7v-10h7.5v1.9h-5.2v2.2h4.6v1.8h-4.6v2.3h5.4V39.7z"/>
	<path class="st2" d="M364.4,36.4h2.1v4.1c-0.5,0.4-1.2,0.7-1.9,0.9c-0.7,0.2-1.4,0.3-2.1,0.3c-1,0-2-0.2-2.8-0.7
		c-0.8-0.4-1.5-1.1-1.9-1.8s-0.7-1.7-0.7-2.7s0.2-1.9,0.7-2.7s1.1-1.4,2-1.8c0.8-0.4,1.8-0.7,2.8-0.7c0.9,0,1.7,0.1,2.4,0.4
		c0.7,0.3,1.3,0.7,1.8,1.3l-1.5,1.4c-0.7-0.8-1.6-1.1-2.6-1.1c-0.6,0-1.2,0.1-1.7,0.4c-0.5,0.3-0.9,0.6-1.1,1.1
		c-0.3,0.5-0.4,1-0.4,1.7c0,0.6,0.1,1.2,0.4,1.7s0.7,0.9,1.1,1.1c0.5,0.3,1,0.4,1.7,0.4s1.3-0.1,1.8-0.4L364.4,36.4L364.4,36.4z"/>
	<path class="st2" d="M373.4,38v3.5h-2.3V38l-3.8-6.4h2.4l2.7,4.4l2.7-4.4h2.3L373.4,38z"/>
</g>
<polygon class="st7" points="143.2,89.6 228,89.6 228,67.5 397.7,67.5 397.7,89.6 482.5,89.6 312.8,111.7 "/>
<polygon class="st8" points="143.2,89.6 228,89.6 228,67.5 397.7,67.5 397.7,89.6 482.5,89.6 312.8,111.7 "/>
<polygon class="st3" points="443.8,155.2 457.3,155.2 457.3,141.6 470.9,168.8 457.3,196.1 457.3,182.5 443.8,182.5 "/>
<polygon class="st1" points="443.8,155.2 457.3,155.2 457.3,141.6 470.9,168.8 457.3,196.1 457.3,182.5 443.8,182.5 "/>
<polygon class="st3" points="285.1,155.2 298.6,155.2 298.6,141.6 312.2,168.8 298.6,196.1 298.6,182.5 285.1,182.5 "/>
<polygon class="st1" points="285.1,155.2 298.6,155.2 298.6,141.6 312.2,168.8 298.6,196.1 298.6,182.5 285.1,182.5 "/>
<polygon class="st3" points="127.7,156.5 141.3,156.5 141.3,142.9 154.8,170.1 141.3,197.4 141.3,183.8 127.7,183.8 "/>
<polygon class="st1" points="127.7,156.5 141.3,156.5 141.3,142.9 154.8,170.1 141.3,197.4 141.3,183.8 127.7,183.8 "/>
<path class="st5" d="M137.2,240l-3.9-7.8l-3.9,7.8H137.2z M134,261.1v-22.4h-1.3v22.4H134z"/>
<path class="st5" d="M325.1,241.6l-3.9-7.8l-3.9,7.8H325.1z M321.9,262.7v-22.4h-1.3v22.4H321.9z"/>
<path class="st5" d="M65,239l-3.9-7.8l-3.9,7.8H65z M61.8,260.1v-22.4h-1.3v22.4H61.8z"/>
<path class="st5" d="M203.3,239l-3.9-7.8l-3.9,7.8H203.3z M200.1,260.1v-22.4h-1.3v22.4H200.1z"/>
<path class="st5" d="M267,240.3l-3.9-7.8l-3.9,7.8H267z M263.8,261.4V239h-1.3v22.4H263.8z"/>
<path class="st5" d="M389.6,241.6l-3.9-7.8l-3.9,7.8H389.6z M386.4,262.7v-22.4h-1.3v22.4H386.4z"/>
<path class="st5" d="M456.7,240.3l-3.9-7.8l-3.9,7.8H456.7z M453.5,261.4V239h-1.3v22.4H453.5z"/>
<path class="st5" d="M526.3,240.3l-3.9-7.8l-3.9,7.8H526.3z M523.1,261.4V239h-1.3v22.4H523.1z"/>
<path class="st5" d="M589.6,240.3l-3.9-7.8l-3.9,7.8H589.6z M586.4,261.4V239h-1.3v22.4H586.4z"/>
<path class="st5" d="M15,239l-3.9-7.8L7.3,239H15z M11.8,260.1v-22.4h-1.3v22.4H11.8z"/>
</svg>
