<?xml version="1.0" encoding="utf-8"?>
<!-- Generator: Adobe Illustrator 22.1.0, SVG Export Plug-In . SVG Version: 6.00 Build 0)  -->
<svg version="1.1" id="Layer_1" xmlns="http://www.w3.org/2000/svg" xmlns:xlink="http://www.w3.org/1999/xlink" x="0px" y="0px"
	 viewBox="0 0 300 100" style="enable-background:new 0 0 300 100;" xml:space="preserve">
<style type="text/css">
	.st0{fill:#FFFFFF;}
</style>
<g>
	<path class="st0" d="M31.1,96c0,0.1,0,0.1,0,0.2s0,0.1,0,0.1c0,0.1,0,0.2-0.1,0.3s-0.2,0.1-0.4,0.1c-0.2,0-0.3,0-0.4-0.1
		c-0.1-0.1-0.2-0.3-0.4-0.7c-0.1-0.4-0.3-0.8-0.5-1.3c-0.2-0.5-0.3-1-0.5-1.6s-0.3-1.1-0.4-1.6c-0.2,0.1-0.4,0.2-0.7,0.2
		c-0.3,0.1-0.6,0.2-0.9,0.2c-0.3,0.1-0.7,0.2-1.1,0.2c-0.1,0.6-0.2,1.2-0.3,1.6c-0.1,0.4-0.1,0.8-0.2,1.1c-0.1,0.3-0.1,0.5-0.2,0.6
		c-0.1,0.1-0.2,0.2-0.4,0.2c-0.1,0-0.2-0.1-0.3-0.2c-0.1-0.1-0.1-0.3-0.1-0.6c0-0.1,0-0.4,0.1-0.9c0.1-0.5,0.2-1,0.2-1.6
		c0.1-0.6,0.2-1.2,0.3-1.8c0.1-0.6,0.1-1,0.2-1.4c0-0.2,0.1-0.5,0.1-0.9c0.1-0.4,0.2-0.8,0.3-1.2s0.2-0.8,0.3-1.1s0.1-0.5,0.2-0.6
		c0.2-0.5,0.4-1.1,0.5-1.7c0.1-0.6,0.1-1.1,0.2-1.6s0.1-0.9,0.2-1.2s0.3-0.5,0.6-0.5c0.1,0,0.1,0.1,0.2,0.2c0.1,0.1,0.2,0.3,0.2,0.4
		c0.1,0.2,0.1,0.3,0.2,0.5c0,0.2,0.1,0.3,0.1,0.4c0,0.1,0,0.3,0.1,0.5c0,0.3,0,0.6,0.1,0.9c0,0.3,0,0.6,0.1,0.9c0,0.3,0,0.5,0.1,0.7
		c0,0.5,0.1,1,0.2,1.6c0.1,0.6,0.2,1.2,0.3,1.7s0.2,1,0.3,1.3s0.2,0.5,0.2,0.5c0.1,0,0.1,0,0.2,0c0.1,0,0.2,0,0.3,0
		c0.1,0,0.2,0.1,0.2,0.2s0,0.2-0.1,0.3s-0.1,0.1-0.2,0.2s-0.1,0.1-0.2,0.2c-0.1,0-0.1,0.1-0.1,0.2c0,0.1,0.1,0.4,0.2,0.9l0.4,1.3
		c0,0.1,0.1,0.3,0.2,0.6c0.1,0.3,0.2,0.6,0.3,0.9c0.1,0.3,0.2,0.6,0.3,0.8C31.1,95.8,31.1,96,31.1,96z M26.2,91c0.1,0,0.2,0,0.5-0.1
		c0.2-0.1,0.5-0.1,0.7-0.2s0.5-0.1,0.7-0.2c0.2-0.1,0.3-0.1,0.3-0.2c0,0,0-0.2-0.1-0.3s-0.1-0.4-0.2-0.7c-0.1-0.3-0.1-0.6-0.2-1
		c-0.1-0.4-0.1-0.8-0.2-1.2c0-0.3-0.1-0.6-0.1-1.1s-0.1-0.9-0.1-1.4c0-0.4-0.1-1-0.2-1.6c-0.1,0.4-0.2,0.8-0.2,1S27,84.6,27,84.8
		c0,0.2-0.1,0.4-0.1,0.4v0.6c0,0,0,0.2-0.1,0.4c0,0.2-0.1,0.5-0.1,0.9c-0.1,0.3-0.1,0.7-0.2,1.1s-0.1,0.8-0.2,1.2
		c-0.1,0.4-0.1,0.7-0.1,1C26.2,90.6,26.2,90.8,26.2,91C26.2,91,26.2,91,26.2,91z"/>
	<path class="st0" d="M35.9,94.7c-0.1,0.1-0.2,0.1-0.3,0.1c-0.1,0-0.3-0.1-0.4-0.4c-0.1-0.2-0.3-0.6-0.4-0.9
		c-0.1-0.4-0.3-0.8-0.4-1.2c-0.1-0.4-0.2-0.9-0.3-1.3s-0.2-0.7-0.2-1c-0.1-0.3-0.1-0.4-0.1-0.4c0-0.1,0-0.2-0.1-0.5
		c-0.1-0.2-0.1-0.6-0.2-1.2c-0.1-0.5-0.2-1.2-0.3-2.1C33.2,85,33.1,84,33,82.7c0-0.1,0-0.3,0.1-0.5c0-0.2,0.1-0.3,0.3-0.3
		c0.2,0,0.4,0.1,0.5,0.4c0.1,0.3,0.2,0.6,0.3,1s0.1,0.8,0.1,1.3s0.1,0.8,0.1,1.2c0.1,0.5,0.1,0.9,0.2,1.3s0.1,0.8,0.2,1.1
		c0.1,0.4,0.1,0.8,0.2,1.2c0.1,0.4,0.2,0.9,0.3,1.4l0.9,3.7C36.1,94.5,36,94.6,35.9,94.7z"/>
	<path class="st0" d="M40.6,94.7c-0.1,0.1-0.2,0.1-0.3,0.1c-0.1,0-0.3-0.1-0.4-0.4c-0.1-0.2-0.3-0.6-0.4-0.9
		c-0.1-0.4-0.3-0.8-0.4-1.2c-0.1-0.4-0.2-0.9-0.3-1.3s-0.2-0.7-0.2-1c-0.1-0.3-0.1-0.4-0.1-0.4c0-0.1,0-0.2-0.1-0.5
		c-0.1-0.2-0.1-0.6-0.2-1.2c-0.1-0.5-0.2-1.2-0.3-2.1c-0.1-0.8-0.2-1.9-0.3-3.1c0-0.1,0-0.3,0.1-0.5c0-0.2,0.1-0.3,0.3-0.3
		c0.2,0,0.4,0.1,0.5,0.4c0.1,0.3,0.2,0.6,0.3,1s0.1,0.8,0.1,1.3s0.1,0.8,0.1,1.2c0.1,0.5,0.1,0.9,0.2,1.3s0.1,0.8,0.2,1.1
		c0.1,0.4,0.1,0.8,0.2,1.2c0.1,0.4,0.2,0.9,0.3,1.4l0.9,3.7C40.7,94.5,40.7,94.6,40.6,94.7z"/>
	<path class="st0" d="M58.6,88.7c0,0.4-0.1,0.7-0.3,1.1c-0.2,0.4-0.5,0.7-0.8,1c-0.3,0.3-0.6,0.6-1,0.8c-0.4,0.3-0.7,0.5-1,0.7
		c-0.3,0.2-0.5,0.4-0.7,0.5c-0.2,0.1-0.3,0.2-0.3,0.3c0,0.2,0,0.5,0.1,0.8c0,0.3,0.1,0.7,0.2,1.1s0.1,0.8,0.2,1.2s0.1,0.8,0.1,1.2
		c0,0,0,0.1,0,0.2c0,0.1,0.1,0.2,0.1,0.4s0.1,0.3,0.1,0.4s0,0.2,0,0.2c0,0.1,0,0.2,0,0.3c0,0.1,0,0.2-0.1,0.4s-0.1,0.2-0.2,0.3
		c-0.1,0.1-0.2,0.1-0.3,0.1c-0.2,0-0.3-0.1-0.4-0.2c-0.1-0.1-0.1-0.3-0.1-0.4c0,0,0-0.1,0-0.1c0,0,0-0.1,0-0.1
		c0-0.2-0.1-0.6-0.2-1.3c-0.1-0.7-0.2-1.5-0.4-2.5c-0.1-1-0.3-2-0.4-3.1c-0.1-1.1-0.2-2.2-0.2-3.2c0-0.1,0-0.2,0-0.3s0-0.2,0-0.3
		c-0.1,0-0.4,0.1-0.6,0.2c-0.3,0.1-0.6,0.3-0.8,0.4c-0.3,0.2-0.5,0.3-0.7,0.5c-0.2,0.2-0.3,0.3-0.3,0.5h-0.2c0,0-0.1,0-0.2-0.1
		s-0.1-0.1-0.2-0.2c-0.1-0.1-0.1-0.1-0.1-0.2s-0.1-0.1-0.1-0.2c0-0.3,0.2-0.6,0.6-0.9c0.4-0.3,0.8-0.5,1.4-0.7
		c0.5-0.2,1.2-0.4,1.8-0.5C54.3,87,55,87,55.6,87c0.6,0,1.1,0.1,1.4,0.2c0.4,0.1,0.7,0.3,0.9,0.5c0.2,0.2,0.4,0.4,0.5,0.6
		C58.5,88.4,58.6,88.6,58.6,88.7z M57.5,88.6c0-0.1-0.2-0.3-0.5-0.5S56.2,88,55.7,88c-0.4,0-0.8,0-1,0s-0.3,0.1-0.4,0.1
		c0,0.2-0.1,0.5-0.1,0.8s0,0.7,0,1c0,0.4,0,0.7,0,1s0,0.6,0.1,0.8c0.2-0.1,0.5-0.3,0.8-0.5s0.7-0.5,1.1-0.8c0.4-0.3,0.7-0.6,0.9-0.9
		C57.4,89.2,57.5,88.9,57.5,88.6z"/>
	<path class="st0" d="M63.8,90.3c0,0.3,0,0.6-0.1,0.9c-0.1,0.3-0.2,0.5-0.4,0.8c-0.1,0.2-0.3,0.4-0.5,0.5c-0.2,0.1-0.4,0.2-0.6,0.2
		c-0.4,0-0.7-0.1-1-0.4c-0.2-0.2-0.4-0.5-0.5-0.8c-0.1-0.3-0.2-0.6-0.2-0.9s-0.1-0.6-0.1-0.7c0-0.3,0-0.6,0.1-0.9s0.2-0.6,0.3-0.9
		c0.1-0.3,0.3-0.5,0.5-0.7c0.2-0.2,0.4-0.3,0.5-0.3c0,0,0.1,0,0.2,0s0.2,0.1,0.3,0.1c0.1,0.1,0.2,0.1,0.3,0.2
		c0.1,0.1,0.1,0.2,0.2,0.3c0.2,0,0.3,0.1,0.5,0.2c0.2,0.1,0.2,0.2,0.3,0.2c0.1,0.4,0.2,0.8,0.2,1.1C63.7,89.7,63.8,90.1,63.8,90.3z
		 M62.8,89.9c0-0.2,0-0.5-0.1-0.7c0-0.2-0.1-0.5-0.3-0.7c0,0-0.1,0-0.1,0c-0.1,0-0.1,0-0.1,0c0,0-0.1,0-0.1,0c-0.2,0-0.3,0-0.4,0.1
		c-0.1,0.1-0.2,0.2-0.2,0.4c-0.1,0.2-0.1,0.3-0.1,0.5c0,0.2,0,0.3,0,0.5s0,0.3,0,0.5s0,0.4,0.1,0.6c0.1,0.2,0.1,0.3,0.2,0.5
		c0.1,0.1,0.2,0.2,0.4,0.2c0.1,0,0.3-0.1,0.4-0.2c0.1-0.2,0.2-0.3,0.2-0.5c0.1-0.2,0.1-0.4,0.1-0.6C62.8,90.1,62.8,90,62.8,89.9z"/>
	<path class="st0" d="M72.6,85.4c0.1,0,0.1,0.1,0.1,0.1c0,0.1-0.1,0.2-0.2,0.3c-0.1,0.1-0.2,0.2-0.2,0.4c0,0,0,0.1,0,0.3
		c0,0.2,0,0.4,0,0.6s0,0.5,0,0.7c0,0.2,0,0.3,0,0.4v2.2c0,0,0,0.1,0,0.3c0,0.2,0,0.4-0.1,0.7c0,0.3-0.1,0.5-0.1,0.8
		c0,0.3-0.1,0.5-0.1,0.7C72,93,72,93,71.9,93s-0.1,0.1-0.2,0.1c-0.1,0-0.2,0-0.2,0c-0.1,0-0.1,0-0.1,0c-0.2,0-0.3-0.1-0.5-0.3
		c-0.2-0.2-0.4-0.4-0.5-0.6c-0.2-0.2-0.3-0.5-0.4-0.7c-0.1-0.2-0.2-0.3-0.2-0.4c-0.1,0.2-0.1,0.4-0.2,0.6c-0.1,0.2-0.2,0.4-0.2,0.6
		c-0.1,0.2-0.2,0.3-0.3,0.4c-0.1,0.1-0.2,0.2-0.4,0.2c-0.2,0-0.4-0.1-0.6-0.3c-0.2-0.2-0.4-0.4-0.6-0.7c-0.2-0.3-0.4-0.6-0.6-0.9
		c-0.2-0.3-0.3-0.7-0.5-1c-0.1-0.3-0.2-0.6-0.3-0.9C66,89,66,88.8,66,88.6c0-0.1,0-0.1,0.1-0.2s0.1-0.1,0.2-0.1
		c0.2,0,0.4,0.1,0.4,0.2c0,0,0.1,0.1,0.1,0.4c0.1,0.2,0.2,0.5,0.3,0.9c0.1,0.3,0.3,0.7,0.5,1c0.2,0.4,0.4,0.7,0.7,0.9
		c0.1-0.2,0.2-0.4,0.3-0.6c0.1-0.2,0.1-0.5,0.2-0.7c0-0.2,0.1-0.4,0.1-0.6c0-0.2,0-0.3,0-0.5c0-0.1-0.1-0.2-0.1-0.4
		c0-0.1,0-0.2,0-0.3c0-0.1,0-0.2,0-0.3c0-0.4,0.1-0.5,0.4-0.5c0.2,0,0.4,0.1,0.5,0.2c0.1,0.1,0.2,0.3,0.3,0.5
		c0.1,0.2,0.1,0.4,0.1,0.5c0,0.2,0,0.3,0.1,0.4c0.1,0.3,0.2,0.7,0.3,0.9c0.1,0.3,0.3,0.6,0.5,0.9c0.1,0,0.1-0.1,0.1-0.2
		c0-0.1,0.1-0.2,0.1-0.3c0-0.1,0-0.2,0-0.3c0-0.1,0-0.2,0-0.2v-4.4c0-0.1,0-0.2,0.1-0.2c0.1-0.1,0.2-0.1,0.3-0.2
		c0.1-0.1,0.2-0.1,0.3-0.1c0.1,0,0.2-0.1,0.2-0.1c0.1,0,0.1,0,0.2,0.1C72.5,85.3,72.5,85.3,72.6,85.4z"/>
	<path class="st0" d="M80.6,92.8c0,0,0,0.1,0,0.1c0,0.1-0.1,0.2-0.2,0.4c0,0.1-0.1,0.2-0.3,0.3c-0.1,0.1-0.3,0.3-0.6,0.4
		c-0.2,0.1-0.6,0.2-0.9,0.4s-0.8,0.2-1.3,0.2c-0.3,0-0.7-0.1-1-0.2c-0.3-0.2-0.6-0.4-0.9-0.7c-0.2-0.3-0.5-0.7-0.6-1.1
		c-0.2-0.4-0.2-1-0.2-1.6c0-0.6,0.1-1.1,0.2-1.6c0.1-0.5,0.3-0.9,0.6-1.3s0.5-0.7,0.8-0.9c0.3-0.2,0.5-0.3,0.8-0.3
		c0.2,0,0.5,0,0.7,0.1s0.5,0.2,0.7,0.4c0.2,0.1,0.4,0.3,0.5,0.5s0.2,0.4,0.2,0.6c0,0.2-0.1,0.4-0.3,0.7c-0.2,0.2-0.4,0.5-0.7,0.6
		c-0.3,0.2-0.6,0.4-0.8,0.5c-0.3,0.1-0.5,0.2-0.7,0.2c-0.1,0-0.2,0-0.2-0.1c-0.1-0.1-0.1-0.2-0.1-0.3c0-0.2,0.1-0.4,0.3-0.5
		c0.2-0.1,0.4-0.2,0.6-0.3c0.2-0.1,0.4-0.2,0.6-0.3c0.2-0.1,0.3-0.3,0.3-0.5c0,0,0-0.1-0.1-0.2c-0.1-0.1-0.3-0.2-0.6-0.2
		c-0.1,0-0.3,0.1-0.5,0.3c-0.2,0.2-0.4,0.4-0.5,0.7c-0.2,0.3-0.3,0.6-0.4,1c-0.1,0.4-0.2,0.8-0.2,1.3c0,0.4,0.1,0.7,0.2,1
		c0.1,0.3,0.3,0.6,0.5,0.8c0.2,0.2,0.5,0.4,0.8,0.5c0.3,0.1,0.6,0.2,0.9,0.2c0.2,0,0.5,0,0.7-0.1c0.3-0.1,0.5-0.2,0.7-0.3
		c0.2-0.1,0.4-0.2,0.6-0.3c0.2-0.1,0.3-0.1,0.3-0.1s0.1,0,0.1,0.1C80.6,92.7,80.6,92.7,80.6,92.8z"/>
	<path class="st0" d="M87.4,88.3c0,0.1,0,0.2-0.1,0.3s-0.2,0.1-0.3,0.2s-0.2,0.1-0.4,0.1c-0.1,0-0.2,0-0.3,0c-0.2,0-0.4,0-0.4,0
		c-0.1,0-0.1,0-0.2,0c-0.4,0-0.7,0-0.9,0.1c-0.2,0.1-0.4,0.2-0.5,0.3s-0.2,0.3-0.2,0.5S84,90.1,84,90.4c0,0.5,0,0.8,0.1,1.1
		c0,0.3,0.1,0.5,0.1,0.7c0,0.2,0.1,0.3,0.1,0.4c0,0.1,0.1,0.2,0.1,0.3c0,0.1-0.1,0.2-0.2,0.4c-0.1,0.1-0.2,0.2-0.3,0.2
		c-0.2,0-0.3-0.2-0.5-0.5c-0.1-0.3-0.3-0.7-0.4-1.1c-0.1-0.4-0.2-0.9-0.2-1.3c-0.1-0.4-0.1-0.7-0.1-1c0-0.2,0-0.5,0.1-0.7
		c0-0.2,0.1-0.4,0.2-0.6c0.1-0.2,0.2-0.3,0.2-0.4c0.1-0.1,0.2-0.2,0.3-0.2c0.1,0,0.1,0,0.2,0.1c0,0.1,0.1,0.1,0.1,0.2
		s0.1,0.1,0.1,0.2c0,0.1,0.1,0.1,0.1,0.1c0.1,0,0.3-0.1,0.6-0.2c0.3-0.1,0.7-0.2,1.1-0.2c0.4,0,0.7,0,0.9,0c0.2,0,0.4,0.1,0.6,0.1
		c0,0,0.1,0,0.2,0.1C87.3,88.2,87.4,88.2,87.4,88.3z"/>
	<path class="st0" d="M95.2,92.8c0,0,0,0.1,0,0.1c0,0.1-0.1,0.2-0.2,0.4c0,0.1-0.1,0.2-0.3,0.3c-0.1,0.1-0.3,0.3-0.6,0.4
		c-0.2,0.1-0.6,0.2-0.9,0.4s-0.8,0.2-1.3,0.2c-0.3,0-0.7-0.1-1-0.2c-0.3-0.2-0.6-0.4-0.9-0.7c-0.2-0.3-0.5-0.7-0.6-1.1
		c-0.2-0.4-0.2-1-0.2-1.6c0-0.6,0.1-1.1,0.2-1.6c0.1-0.5,0.3-0.9,0.6-1.3s0.5-0.7,0.8-0.9c0.3-0.2,0.5-0.3,0.8-0.3
		c0.2,0,0.5,0,0.7,0.1s0.5,0.2,0.7,0.4c0.2,0.1,0.4,0.3,0.5,0.5s0.2,0.4,0.2,0.6c0,0.2-0.1,0.4-0.3,0.7c-0.2,0.2-0.4,0.5-0.7,0.6
		c-0.3,0.2-0.6,0.4-0.8,0.5c-0.3,0.1-0.5,0.2-0.7,0.2c-0.1,0-0.2,0-0.2-0.1c-0.1-0.1-0.1-0.2-0.1-0.3c0-0.2,0.1-0.4,0.3-0.5
		c0.2-0.1,0.4-0.2,0.6-0.3c0.2-0.1,0.4-0.2,0.6-0.3c0.2-0.1,0.3-0.3,0.3-0.5c0,0,0-0.1-0.1-0.2c-0.1-0.1-0.3-0.2-0.6-0.2
		c-0.1,0-0.3,0.1-0.5,0.3c-0.2,0.2-0.4,0.4-0.5,0.7c-0.2,0.3-0.3,0.6-0.4,1c-0.1,0.4-0.2,0.8-0.2,1.3c0,0.4,0.1,0.7,0.2,1
		c0.1,0.3,0.3,0.6,0.5,0.8c0.2,0.2,0.5,0.4,0.8,0.5c0.3,0.1,0.6,0.2,0.9,0.2c0.2,0,0.5,0,0.7-0.1c0.3-0.1,0.5-0.2,0.7-0.3
		c0.2-0.1,0.4-0.2,0.6-0.3c0.2-0.1,0.3-0.1,0.3-0.1s0.1,0,0.1,0.1C95.2,92.7,95.2,92.7,95.2,92.8z"/>
	<path class="st0" d="M103,91.5c0,0.1,0,0.1-0.1,0.2c-0.1,0.1-0.1,0.1-0.1,0.2c0,0.2,0,0.3,0.1,0.5c0.1,0.1,0.1,0.3,0.1,0.5
		c0,0.2-0.1,0.3-0.2,0.3c-0.1,0-0.3,0-0.3,0.1s-0.2,0.1-0.3,0.1c-0.1,0-0.2-0.1-0.3-0.2c-0.1-0.1-0.1-0.2-0.2-0.3c0,0,0,0-0.1,0.1
		c-0.1,0.1-0.2,0.2-0.4,0.3c-0.2,0.1-0.4,0.2-0.7,0.3s-0.7,0.1-1.2,0.1c-0.4,0-0.8-0.1-1.1-0.3s-0.6-0.4-0.8-0.7
		c-0.2-0.3-0.3-0.6-0.4-1s-0.1-0.8-0.1-1.1c0-0.4,0-0.7,0.1-1s0.2-0.6,0.3-0.8c0.1-0.2,0.3-0.4,0.5-0.6c0.2-0.1,0.5-0.2,0.8-0.2
		c0.3,0,0.6,0.1,0.8,0.3c0.3,0.2,0.5,0.4,0.7,0.6c0.2,0.2,0.5,0.5,0.7,0.8c-0.2-1.1-0.4-2.2-0.6-3.1c-0.1-0.4-0.1-0.8-0.2-1.2
		c-0.1-0.4-0.1-0.7-0.2-1s-0.1-0.6-0.1-0.8c0-0.2-0.1-0.3-0.1-0.4c0-0.1,0-0.2,0-0.5c0-0.2,0-0.5,0-0.7c0-0.2,0-0.5,0-0.7
		c0-0.2,0-0.3,0-0.4c0-0.1-0.1-0.3-0.2-0.5c-0.1-0.2-0.1-0.3-0.1-0.4c0-0.1,0-0.2,0.1-0.3c0.1-0.1,0.2-0.2,0.3-0.2
		c0.1,0,0.2,0,0.2,0c0.1,0,0.1,0.1,0.2,0.1c0.1,0.1,0.1,0.2,0.2,0.3c0.1,0.2,0.1,0.4,0.1,0.6c0,0.1,0.1,0.4,0.1,0.8
		c0.1,0.4,0.1,0.9,0.2,1.3c0.1,0.5,0.1,0.9,0.2,1.4s0.1,0.8,0.2,1c0.1,0.6,0.2,1.2,0.3,1.8c0.1,0.7,0.3,1.3,0.4,1.9
		c0.1,0.6,0.3,1.1,0.4,1.6c0.1,0.5,0.2,0.8,0.4,0.9c0,0.1,0.1,0.1,0.2,0.1C102.9,91.4,103,91.4,103,91.5z M101.4,92
		c0,0-0.1-0.2-0.3-0.6c-0.2-0.3-0.4-0.7-0.6-1.1c-0.3-0.4-0.5-0.7-0.9-1s-0.6-0.5-0.9-0.5c-0.2,0-0.5,0.2-0.6,0.6s-0.2,0.8-0.2,1.3
		c0,0.6,0.2,1,0.5,1.3c0.3,0.3,0.7,0.5,1.1,0.5c0.4,0,0.7-0.1,1.1-0.2C101,92.3,101.2,92.1,101.4,92z"/>
	<path class="st0" d="M119.1,90.7c0,0.7-0.1,1.2-0.2,1.7c-0.2,0.5-0.3,0.9-0.6,1.2c-0.2,0.3-0.4,0.6-0.7,0.7
		c-0.2,0.2-0.4,0.2-0.6,0.2c-0.2,0-0.4-0.1-0.6-0.3s-0.3-0.4-0.3-0.5c0-0.2,0.1-0.4,0.3-0.4c0.1,0,0.1,0,0.2,0.1
		c0.1,0.1,0.1,0.1,0.2,0.1c0.2-0.2,0.5-0.5,0.7-1c0.2-0.5,0.3-1.1,0.3-2c0-0.4,0-0.7-0.1-0.9c-0.1-0.3-0.2-0.5-0.3-0.7
		c-0.1-0.2-0.2-0.3-0.3-0.4s-0.2-0.2-0.2-0.2c-0.1,0-0.3,0.1-0.4,0.4c-0.1,0.3-0.3,0.6-0.4,1c-0.1,0.4-0.2,0.7-0.3,1.1
		c-0.1,0.4-0.1,0.6-0.1,0.7c0,0.1,0,0.2,0,0.2c0,0.1,0,0.1,0,0.2s0,0.1,0,0.2c0,0.3-0.1,0.5-0.3,0.7c-0.2,0.2-0.4,0.3-0.6,0.3
		c-0.1,0-0.2-0.1-0.2-0.2c-0.1-0.1-0.1-0.3-0.1-0.5s-0.1-0.4-0.1-0.6c0-0.2,0-0.4-0.1-0.5c-0.1-0.3-0.3-0.7-0.5-1.3
		c-0.2-0.6-0.4-1.2-0.6-1.8c-0.2-0.7-0.4-1.3-0.6-1.9c-0.2-0.6-0.3-1.1-0.4-1.5c-0.2-0.8-0.4-1.5-0.5-2.1c-0.1-0.6-0.2-1.1-0.3-1.6
		c-0.1-0.4-0.1-0.8-0.1-1.2c0-0.3,0-0.6,0-0.8c0-0.1,0.1-0.2,0.2-0.3c0.1-0.1,0.2-0.1,0.3-0.1c0.1,0,0.2,0,0.3,0.1
		c0.1,0.1,0.1,0.2,0.1,0.3c0,0.2,0,0.4,0.1,0.7c0,0.3,0.1,0.7,0.1,1.2c0,0.2,0.1,0.6,0.2,1c0.1,0.4,0.2,0.9,0.3,1.5s0.3,1.1,0.4,1.7
		c0.2,0.6,0.3,1.2,0.5,1.7c0.2,0.5,0.3,1,0.5,1.5c0.2,0.5,0.3,0.8,0.5,1.1c0.1-0.5,0.3-1,0.5-1.4c0.2-0.4,0.4-0.7,0.6-1
		c0.2-0.3,0.5-0.5,0.9-0.5c0.1,0,0.3,0.1,0.5,0.2c0.2,0.1,0.4,0.3,0.6,0.6c0.2,0.3,0.4,0.6,0.5,1.1C119,89.5,119.1,90,119.1,90.7z"
		/>
	<path class="st0" d="M125.7,84.8c-0.2,1-0.4,2-0.5,2.9c-0.1,0.4-0.1,0.8-0.2,1.2c-0.1,0.4-0.1,0.9-0.2,1.3
		c-0.1,0.4-0.1,0.8-0.2,1.2s-0.1,0.7-0.1,1c-0.1,0.5-0.1,1-0.1,1.6s-0.1,1.2-0.1,1.7c0,0.6,0,1.3,0,1.9c0,0.1,0,0.3,0,0.4
		c0,0.2,0,0.3,0,0.5c0,0.1,0,0.3-0.1,0.4c-0.1,0.1-0.2,0.2-0.3,0.2c-0.1,0-0.2-0.1-0.3-0.3c-0.1-0.2-0.1-0.4-0.2-0.6
		c0-0.2-0.1-0.5-0.1-0.7s0-0.4,0-0.5c0-0.1,0-0.3,0-0.4s0-0.4,0-0.7s0.1-0.8,0.1-1.3s0.1-1.2,0.2-2.1c0,0-0.1-0.1-0.3-0.2
		c-0.2-0.1-0.4-0.3-0.7-0.5c-0.3-0.2-0.6-0.4-0.9-0.6s-0.6-0.5-0.8-0.7c0,0-0.1-0.1-0.1-0.2c-0.1-0.1-0.1-0.2-0.1-0.4
		c0-0.1,0-0.2,0.1-0.2c0.1-0.1,0.2-0.1,0.2-0.1c0.1,0,0.1,0,0.2,0.1c0.3,0.3,0.7,0.6,1.2,1c0.4,0.4,0.9,0.7,1.3,1
		c0-0.3,0.1-0.7,0.2-1.2c0.1-0.5,0.2-1.1,0.3-1.8c0.1-0.6,0.2-1.2,0.3-1.8c0.1-0.6,0.2-1.1,0.2-1.4c0-0.1,0-0.2,0-0.3
		c0-0.1,0.1-0.3,0.1-0.4c0.1-0.1,0.1-0.2,0.2-0.3c0.1-0.1,0.2-0.1,0.2-0.1c0,0,0.1,0,0.3,0.1S125.7,84.5,125.7,84.8z"/>
	<path class="st0" d="M142.7,91.5c0,0.1,0,0.1-0.1,0.2c-0.1,0.1-0.1,0.1-0.1,0.2c0,0.2,0,0.3,0.1,0.5c0.1,0.1,0.1,0.3,0.1,0.5
		c0,0.2-0.1,0.3-0.2,0.3c-0.1,0-0.3,0-0.3,0.1c-0.1,0-0.2,0.1-0.3,0.1c-0.1,0-0.2-0.1-0.3-0.2c-0.1-0.1-0.1-0.2-0.2-0.3
		c0,0,0,0-0.1,0.1c-0.1,0.1-0.2,0.2-0.4,0.3c-0.2,0.1-0.4,0.2-0.7,0.3s-0.7,0.1-1.2,0.1c-0.4,0-0.8-0.1-1.1-0.3
		c-0.3-0.2-0.6-0.4-0.8-0.7s-0.3-0.6-0.4-1c-0.1-0.4-0.1-0.8-0.1-1.1c0-0.4,0-0.7,0.1-1c0.1-0.3,0.2-0.6,0.3-0.8s0.3-0.4,0.5-0.6
		c0.2-0.1,0.5-0.2,0.8-0.2c0.3,0,0.6,0.1,0.8,0.3s0.5,0.4,0.7,0.6c0.2,0.2,0.5,0.5,0.7,0.8c-0.2-1.1-0.4-2.2-0.5-3.1
		c-0.1-0.4-0.1-0.8-0.2-1.2c-0.1-0.4-0.1-0.7-0.2-1s-0.1-0.6-0.1-0.8c0-0.2-0.1-0.3-0.1-0.4c0-0.1,0-0.2,0-0.5s0-0.5,0-0.7
		c0-0.2,0-0.5,0-0.7s0-0.3,0-0.4c0-0.1-0.1-0.3-0.2-0.5c-0.1-0.2-0.1-0.3-0.1-0.4c0-0.1,0-0.2,0.1-0.3c0.1-0.1,0.2-0.2,0.3-0.2
		c0.1,0,0.2,0,0.2,0c0.1,0,0.1,0.1,0.2,0.1c0.1,0.1,0.1,0.2,0.2,0.3c0.1,0.2,0.1,0.4,0.1,0.6c0,0.1,0.1,0.4,0.1,0.8
		c0.1,0.4,0.1,0.9,0.2,1.3c0.1,0.5,0.1,0.9,0.2,1.4s0.1,0.8,0.2,1c0.1,0.6,0.2,1.2,0.3,1.8c0.1,0.7,0.3,1.3,0.4,1.9
		c0.1,0.6,0.3,1.1,0.4,1.6c0.1,0.5,0.2,0.8,0.4,0.9c0,0.1,0.1,0.1,0.2,0.1C142.6,91.4,142.6,91.4,142.7,91.5z M141,92
		c0,0-0.1-0.2-0.3-0.6c-0.2-0.3-0.4-0.7-0.6-1.1c-0.3-0.4-0.5-0.7-0.9-1s-0.6-0.5-0.9-0.5c-0.2,0-0.5,0.2-0.6,0.6
		c-0.2,0.4-0.2,0.8-0.2,1.3c0,0.6,0.2,1,0.5,1.3c0.3,0.3,0.7,0.5,1.1,0.5c0.4,0,0.7-0.1,1.1-0.2C140.6,92.3,140.9,92.1,141,92z"/>
	<path class="st0" d="M154.8,90.5c0,0.3-0.1,0.6-0.4,1s-0.6,0.8-1,1.1c-0.4,0.4-0.9,0.7-1.4,0.9c-0.5,0.3-1.1,0.4-1.7,0.4
		c-0.3,0-0.5,0-0.8-0.1c-0.3-0.1-0.6-0.2-0.9-0.4c-0.3-0.2-0.5-0.4-0.7-0.6c-0.2-0.2-0.4-0.5-0.5-0.8c-0.1,0.1-0.2,0.2-0.3,0.4
		c-0.1,0.2-0.3,0.4-0.4,0.6c-0.1,0.2-0.3,0.4-0.5,0.5c-0.2,0.2-0.4,0.2-0.5,0.2s-0.3-0.1-0.5-0.3c-0.1-0.2-0.2-0.4-0.3-0.7
		c-0.1-0.2-0.1-0.5-0.2-0.7c0-0.2,0-0.3,0-0.4c0-0.2,0.1-0.5,0.2-1c0.1-0.5,0.3-1,0.5-1.5c0.2-0.5,0.5-1,0.8-1.4
		c0.3-0.4,0.7-0.6,1.1-0.6c0.2,0,0.3,0.1,0.3,0.2c0.1,0.1,0.1,0.3,0.1,0.4v0.7c0.1,0.1,0.2,0.1,0.2,0.1c0.1,0,0.2,0.1,0.2,0.1
		c0.1,0,0.1,0.1,0.2,0.2c0,0.1,0.1,0.2,0.1,0.4c0,0.1,0,0.2,0,0.3c0,0.1,0,0.2,0,0.2c0,0.4,0,0.8,0.1,1.1c0.1,0.4,0.2,0.7,0.4,1
		c0.2,0.3,0.4,0.5,0.7,0.7c0.3,0.2,0.7,0.3,1.2,0.3c0.6,0,1.2-0.1,1.6-0.4s0.8-0.6,1.1-0.9c0.3-0.3,0.5-0.6,0.7-0.9
		c0.2-0.3,0.3-0.4,0.4-0.4C154.7,90.2,154.8,90.3,154.8,90.5z M147.1,89.5c0-0.1,0-0.1,0-0.2c0-0.1,0-0.1,0-0.1c0-0.1,0-0.1,0-0.2
		c0,0,0-0.1,0-0.2c0,0,0-0.1,0-0.1c0,0,0,0,0-0.1c-0.1,0-0.3,0.2-0.4,0.4c-0.1,0.2-0.3,0.5-0.4,0.8s-0.2,0.6-0.3,0.9
		s-0.1,0.5-0.1,0.7c0,0.1,0,0.3,0.1,0.5c0.1,0.2,0.1,0.4,0.2,0.5c0.2-0.5,0.5-1,0.7-1.5C147,90.5,147.1,90,147.1,89.5z"/>
	<path class="st0" d="M160.9,85.1c-0.2,0.2-0.5,0.4-0.8,0.6c-0.4,0.2-0.7,0.4-1.1,0.6c-0.4,0.2-0.7,0.3-0.9,0.5s-0.4,0.2-0.4,0.3
		s0,0.2,0.1,0.4c0.1,0.2,0.1,0.5,0.2,0.8c0.1,0.3,0.2,0.6,0.3,0.9s0.2,0.6,0.2,0.9c0,0.1,0.1,0.3,0.1,0.6s0.1,0.5,0.1,0.7
		c0,0.2,0.1,0.4,0.1,0.6c0,0.2,0,0.3,0,0.3c0,0.2,0,0.4-0.1,0.7c-0.1,0.2-0.2,0.4-0.4,0.4c-0.1,0-0.2,0-0.2-0.1s-0.1-0.2-0.2-0.3
		s-0.1-0.2-0.1-0.3s0-0.2,0-0.2c0,0,0-0.1,0-0.1c0-0.1,0-0.1,0-0.2c0-0.3,0-0.7-0.1-1.2c0-0.2-0.1-0.4-0.2-0.7
		c-0.1-0.3-0.2-0.7-0.3-1c-0.1-0.4-0.2-0.9-0.4-1.3c-0.1-0.2-0.1-0.3-0.1-0.3c-0.1,0-0.3,0.1-0.5,0.2c-0.2,0.1-0.5,0.3-0.8,0.5
		c-0.3,0.2-0.6,0.4-1,0.6c-0.3,0.2-0.7,0.4-0.9,0.6c-0.3,0.2-0.5,0.3-0.8,0.5c-0.2,0.1-0.3,0.2-0.4,0.2c-0.2,0-0.3-0.1-0.5-0.2
		s-0.2-0.3-0.2-0.4c0-0.1,0.1-0.2,0.4-0.4c0.2-0.2,0.5-0.4,0.9-0.6s0.7-0.4,1.2-0.6c0.4-0.2,0.8-0.4,1.2-0.6s0.8-0.4,1.3-0.6
		c-0.1-0.7-0.2-1.3-0.3-1.8c-0.1-0.5-0.1-0.9-0.2-1.3c-0.1-0.4-0.1-0.6-0.1-0.6c0-0.2,0-0.3,0.1-0.4s0.2-0.1,0.3-0.1
		c0.2,0,0.3,0.1,0.3,0.3c0.2,0.8,0.3,1.5,0.5,2.1c0.1,0.6,0.3,1.1,0.4,1.5c0.1,0,0.4-0.1,0.7-0.3s0.7-0.3,1-0.5
		c0.4-0.2,0.7-0.3,1-0.4s0.5-0.2,0.5-0.2c0.1,0,0.1,0,0.2,0.1C160.8,85,160.9,85.1,160.9,85.1z"/>
	<path class="st0" d="M172.5,90.5c0,0.3-0.1,0.6-0.4,1s-0.6,0.8-1,1.1c-0.4,0.4-0.9,0.7-1.4,0.9c-0.5,0.3-1.1,0.4-1.7,0.4
		c-0.3,0-0.5,0-0.8-0.1c-0.3-0.1-0.6-0.2-0.9-0.4c-0.3-0.2-0.5-0.4-0.7-0.6c-0.2-0.2-0.4-0.5-0.5-0.8c-0.1,0.1-0.2,0.2-0.3,0.4
		c-0.1,0.2-0.3,0.4-0.4,0.6c-0.1,0.2-0.3,0.4-0.5,0.5c-0.2,0.2-0.4,0.2-0.5,0.2s-0.3-0.1-0.5-0.3c-0.1-0.2-0.2-0.4-0.3-0.7
		c-0.1-0.2-0.1-0.5-0.2-0.7c0-0.2,0-0.3,0-0.4c0-0.2,0.1-0.5,0.2-1c0.1-0.5,0.3-1,0.5-1.5c0.2-0.5,0.5-1,0.8-1.4
		c0.3-0.4,0.7-0.6,1.1-0.6c0.2,0,0.3,0.1,0.3,0.2c0.1,0.1,0.1,0.3,0.1,0.4v0.7c0.1,0.1,0.2,0.1,0.2,0.1c0.1,0,0.2,0.1,0.2,0.1
		c0.1,0,0.1,0.1,0.2,0.2c0,0.1,0.1,0.2,0.1,0.4c0,0.1,0,0.2,0,0.3c0,0.1,0,0.2,0,0.2c0,0.4,0,0.8,0.1,1.1c0.1,0.4,0.2,0.7,0.4,1
		c0.2,0.3,0.4,0.5,0.7,0.7c0.3,0.2,0.7,0.3,1.2,0.3c0.6,0,1.2-0.1,1.6-0.4s0.8-0.6,1.1-0.9c0.3-0.3,0.5-0.6,0.7-0.9
		c0.2-0.3,0.3-0.4,0.4-0.4C172.4,90.2,172.5,90.3,172.5,90.5z M164.8,89.5c0-0.1,0-0.1,0-0.2c0-0.1,0-0.1,0-0.1c0-0.1,0-0.1,0-0.2
		c0,0,0-0.1,0-0.2c0,0,0-0.1,0-0.1c0,0,0,0,0-0.1c-0.1,0-0.3,0.2-0.4,0.4c-0.1,0.2-0.3,0.5-0.4,0.8s-0.2,0.6-0.3,0.9
		s-0.1,0.5-0.1,0.7c0,0.1,0,0.3,0.1,0.5c0.1,0.2,0.1,0.4,0.2,0.5c0.2-0.5,0.5-1,0.7-1.5C164.7,90.5,164.8,90,164.8,89.5z"/>
	<path class="st0" d="M176.6,90.1c0,0.1-0.1,0.3-0.4,0.4c-0.2,0.1-0.5,0.3-0.8,0.4s-0.6,0.2-0.9,0.3c-0.3,0.1-0.5,0.1-0.5,0.1
		c-0.3,0-0.4,0-0.5,0c-0.1,0-0.2-0.1-0.3-0.3c0-0.1-0.1-0.1-0.1-0.2c0-0.1-0.1-0.1-0.1-0.2c0-0.1,0-0.1,0-0.1c0,0,0.1,0,0.2,0
		c0.2,0,0.4,0,0.7-0.1s0.6-0.2,0.9-0.2c0.3-0.1,0.6-0.2,0.9-0.2c0.3-0.1,0.4-0.1,0.5-0.1c0.1,0,0.2,0.1,0.2,0.2
		C176.5,90,176.6,90.1,176.6,90.1z"/>
	<path class="st0" d="M184.7,91.5c0,0.1,0,0.1-0.1,0.2c-0.1,0.1-0.1,0.1-0.1,0.2c0,0.2,0,0.3,0.1,0.5c0.1,0.1,0.1,0.3,0.1,0.5
		c0,0.2-0.1,0.3-0.2,0.3c-0.1,0-0.3,0-0.3,0.1c-0.1,0-0.2,0.1-0.3,0.1c-0.1,0-0.2-0.1-0.3-0.2c-0.1-0.1-0.1-0.2-0.2-0.3
		c0,0,0,0-0.1,0.1c-0.1,0.1-0.2,0.2-0.4,0.3c-0.2,0.1-0.4,0.2-0.7,0.3s-0.7,0.1-1.2,0.1c-0.4,0-0.8-0.1-1.1-0.3
		c-0.3-0.2-0.6-0.4-0.8-0.7s-0.3-0.6-0.4-1c-0.1-0.4-0.1-0.8-0.1-1.1c0-0.4,0-0.7,0.1-1c0.1-0.3,0.2-0.6,0.3-0.8s0.3-0.4,0.5-0.6
		c0.2-0.1,0.5-0.2,0.8-0.2c0.3,0,0.6,0.1,0.8,0.3s0.5,0.4,0.7,0.6c0.2,0.2,0.5,0.5,0.7,0.8c-0.2-1.1-0.4-2.2-0.5-3.1
		c-0.1-0.4-0.1-0.8-0.2-1.2c-0.1-0.4-0.1-0.7-0.2-1s-0.1-0.6-0.1-0.8c0-0.2-0.1-0.3-0.1-0.4c0-0.1,0-0.2,0-0.5s0-0.5,0-0.7
		c0-0.2,0-0.5,0-0.7s0-0.3,0-0.4c0-0.1-0.1-0.3-0.2-0.5c-0.1-0.2-0.1-0.3-0.1-0.4c0-0.1,0-0.2,0.1-0.3c0.1-0.1,0.2-0.2,0.3-0.2
		c0.1,0,0.2,0,0.2,0c0.1,0,0.1,0.1,0.2,0.1c0.1,0.1,0.1,0.2,0.2,0.3c0.1,0.2,0.1,0.4,0.1,0.6c0,0.1,0.1,0.4,0.1,0.8
		c0.1,0.4,0.1,0.9,0.2,1.3c0.1,0.5,0.1,0.9,0.2,1.4s0.1,0.8,0.2,1c0.1,0.6,0.2,1.2,0.3,1.8c0.1,0.7,0.3,1.3,0.4,1.9
		c0.1,0.6,0.3,1.1,0.4,1.6c0.1,0.5,0.2,0.8,0.4,0.9c0,0.1,0.1,0.1,0.2,0.1C184.6,91.4,184.6,91.4,184.7,91.5z M183,92
		c0,0-0.1-0.2-0.3-0.6c-0.2-0.3-0.4-0.7-0.6-1.1c-0.3-0.4-0.5-0.7-0.9-1s-0.6-0.5-0.9-0.5c-0.2,0-0.5,0.2-0.6,0.6
		c-0.2,0.4-0.2,0.8-0.2,1.3c0,0.6,0.2,1,0.5,1.3c0.3,0.3,0.7,0.5,1.1,0.5c0.4,0,0.7-0.1,1.1-0.2C182.6,92.3,182.9,92.1,183,92z"/>
	<path class="st0" d="M191.5,88.3c0,0.1,0,0.2-0.1,0.3c-0.1,0.1-0.2,0.1-0.3,0.2s-0.2,0.1-0.4,0.1c-0.1,0-0.2,0-0.3,0
		c-0.2,0-0.4,0-0.4,0s-0.1,0-0.2,0c-0.4,0-0.7,0-0.9,0.1c-0.2,0.1-0.4,0.2-0.5,0.3c-0.1,0.1-0.2,0.3-0.2,0.5c0,0.2-0.1,0.4-0.1,0.7
		c0,0.5,0,0.8,0.1,1.1c0,0.3,0.1,0.5,0.1,0.7c0,0.2,0.1,0.3,0.1,0.4c0,0.1,0.1,0.2,0.1,0.3c0,0.1-0.1,0.2-0.2,0.4
		c-0.1,0.1-0.2,0.2-0.3,0.2c-0.2,0-0.3-0.2-0.5-0.5c-0.1-0.3-0.3-0.7-0.4-1.1c-0.1-0.4-0.2-0.9-0.2-1.3c-0.1-0.4-0.1-0.7-0.1-1
		c0-0.2,0-0.5,0.1-0.7s0.1-0.4,0.2-0.6c0.1-0.2,0.2-0.3,0.2-0.4s0.2-0.2,0.3-0.2c0.1,0,0.1,0,0.2,0.1c0,0.1,0.1,0.1,0.1,0.2
		s0.1,0.1,0.1,0.2c0,0.1,0.1,0.1,0.1,0.1c0.1,0,0.3-0.1,0.6-0.2c0.3-0.1,0.7-0.2,1.1-0.2c0.4,0,0.7,0,0.9,0c0.2,0,0.4,0.1,0.6,0.1
		c0,0,0.1,0,0.2,0.1C191.5,88.2,191.5,88.2,191.5,88.3z"/>
	<path class="st0" d="M194.6,84.9c0,0-0.1,0.1-0.2,0.2c-0.1,0.1-0.2,0.2-0.4,0.3c-0.1,0.1-0.3,0.2-0.4,0.3c-0.1,0.1-0.3,0.1-0.4,0.1
		c-0.1,0-0.1,0-0.2,0c-0.1,0-0.2,0-0.3-0.1c-0.1,0-0.2-0.1-0.3-0.2c-0.1-0.1-0.1-0.2-0.1-0.3c0-0.2,0.1-0.4,0.2-0.6
		c0.1-0.2,0.3-0.3,0.6-0.3c0,0,0.1,0,0.3,0.1c0.2,0,0.3,0.1,0.5,0.1c0.2,0.1,0.3,0.1,0.4,0.2C194.5,84.8,194.6,84.9,194.6,84.9z
		 M195.3,93.2c0,0.1-0.1,0.2-0.2,0.3c-0.2,0.1-0.3,0.1-0.3,0.1c-0.1,0-0.3-0.1-0.4-0.3c-0.1-0.2-0.2-0.4-0.3-0.7s-0.2-0.5-0.2-0.7
		c-0.1-0.2-0.1-0.4-0.1-0.5c0-0.1-0.1-0.3-0.2-0.5c-0.1-0.2-0.1-0.4-0.2-0.6c-0.1-0.2-0.1-0.4-0.2-0.5s-0.1-0.2-0.1-0.2
		c0-0.2,0-0.4,0.1-0.6c0.1-0.2,0.2-0.3,0.3-0.3c0.1,0,0.3,0.1,0.4,0.3s0.3,0.5,0.4,0.8c0.1,0.3,0.3,0.7,0.4,1
		c0.1,0.4,0.2,0.7,0.3,1.1s0.2,0.6,0.2,0.9C195.3,93,195.3,93.1,195.3,93.2z"/>
	<path class="st0" d="M201,87.3c0,0,0,0.2-0.1,0.6s-0.1,0.7-0.2,1.1c0,0.2-0.1,0.6-0.2,1.1c-0.1,0.5-0.1,1.2-0.1,2.2
		c0,0,0,0.1,0,0.2c0,0.1,0,0.3-0.1,0.4c0,0.1-0.1,0.3-0.2,0.4s-0.2,0.2-0.3,0.2c-0.1,0-0.3-0.1-0.4-0.2c-0.4-0.3-0.7-0.6-1-0.9
		c-0.3-0.4-0.6-0.7-0.8-1.2c-0.2-0.4-0.4-0.9-0.5-1.3c-0.1-0.5-0.2-0.9-0.2-1.4c0-0.1,0-0.1,0.1-0.2c0.1-0.1,0.1-0.1,0.2-0.1
		c0.2,0,0.4,0.1,0.5,0.4c0.1,0.2,0.2,0.6,0.4,0.9c0.1,0.4,0.3,0.7,0.4,1.1c0.2,0.4,0.4,0.7,0.8,1c0-0.1,0.1-0.2,0.1-0.3
		s0.1-0.3,0.1-0.4c0-0.1,0-0.3,0.1-0.6c0-0.3,0.1-0.6,0.1-1c0-0.3,0.1-0.7,0.1-1c0-0.3,0-0.5,0-0.6c0-0.1,0-0.2,0-0.3s0-0.2,0.1-0.3
		c0.1-0.1,0.1-0.2,0.2-0.3s0.2-0.1,0.4-0.1c0.1,0,0.2,0,0.4,0.1C200.9,87,201,87.2,201,87.3z"/>
	<path class="st0" d="M209,92.8c0,0,0,0.1,0,0.1c0,0.1-0.1,0.2-0.2,0.4c0,0.1-0.1,0.2-0.3,0.3s-0.3,0.3-0.6,0.4
		c-0.2,0.1-0.6,0.2-0.9,0.4c-0.4,0.1-0.8,0.2-1.3,0.2c-0.3,0-0.7-0.1-1-0.2c-0.3-0.2-0.6-0.4-0.9-0.7c-0.2-0.3-0.5-0.7-0.6-1.1
		s-0.2-1-0.2-1.6c0-0.6,0.1-1.1,0.2-1.6c0.1-0.5,0.3-0.9,0.6-1.3s0.5-0.7,0.8-0.9c0.3-0.2,0.6-0.3,0.8-0.3c0.2,0,0.5,0,0.7,0.1
		s0.5,0.2,0.7,0.4c0.2,0.1,0.4,0.3,0.5,0.5s0.2,0.4,0.2,0.6c0,0.2-0.1,0.4-0.3,0.7c-0.2,0.2-0.4,0.5-0.7,0.6s-0.6,0.4-0.8,0.5
		c-0.3,0.1-0.5,0.2-0.7,0.2c-0.1,0-0.2,0-0.2-0.1c-0.1-0.1-0.1-0.2-0.1-0.3c0-0.2,0.1-0.4,0.3-0.5s0.4-0.2,0.6-0.3
		c0.2-0.1,0.4-0.2,0.6-0.3c0.2-0.1,0.3-0.3,0.3-0.5c0,0,0-0.1-0.1-0.2s-0.3-0.2-0.6-0.2c-0.1,0-0.3,0.1-0.5,0.3
		c-0.2,0.2-0.4,0.4-0.6,0.7c-0.2,0.3-0.3,0.6-0.4,1c-0.1,0.4-0.2,0.8-0.2,1.3c0,0.4,0.1,0.7,0.2,1c0.1,0.3,0.3,0.6,0.5,0.8
		c0.2,0.2,0.5,0.4,0.8,0.5c0.3,0.1,0.6,0.2,0.9,0.2c0.2,0,0.5,0,0.7-0.1c0.3-0.1,0.5-0.2,0.7-0.3c0.2-0.1,0.4-0.2,0.6-0.3
		c0.2-0.1,0.3-0.1,0.3-0.1s0.1,0,0.1,0.1C209,92.7,209,92.7,209,92.8z"/>
	<path class="st0" d="M217.2,92.4c0,0.1,0,0.2-0.1,0.3s-0.1,0.2-0.2,0.2c-0.1,0.1-0.2,0.1-0.3,0.2c-0.1,0.1-0.2,0.1-0.3,0.1
		c-0.2,0-0.6-0.1-1-0.2c-0.4-0.1-0.7-0.3-0.9-0.5c-0.2-0.2-0.5-0.5-0.7-0.9c-0.2-0.3-0.4-0.9-0.6-1.5c-0.2,0.6-0.3,1.3-0.6,1.9
		c-0.2,0.6-0.6,1.2-1,1.7c0,0-0.1,0-0.1,0c-0.1,0-0.2-0.1-0.3-0.2s-0.2-0.2-0.2-0.3s0-0.3,0-0.7c0-0.4,0-0.8-0.1-1.3
		c0-0.5-0.1-0.9-0.1-1.4c0-0.5,0-0.9,0-1.2c0-0.1,0-0.3,0-0.6c0-0.2,0.1-0.5,0.1-0.6c0,0,0.1-0.1,0.2-0.2c0.1-0.1,0.2-0.1,0.3-0.1
		c0.1,0,0.2,0.1,0.2,0.2c0,0.1,0,0.3,0,0.4v3.5c0,0.1,0,0.2,0,0.3c0,0.1,0.1,0.2,0.1,0.3c0.2-0.4,0.3-0.8,0.5-1.2
		c0.1-0.5,0.3-0.9,0.4-1.4c0.1-0.4,0.3-0.8,0.4-1.1c0.1-0.3,0.3-0.5,0.4-0.5c0.1,0,0.3,0,0.4,0.1s0.2,0.2,0.2,0.4
		c0.1,0.4,0.1,0.8,0.2,1.1s0.1,0.6,0.2,0.9c0.1,0.3,0.2,0.5,0.3,0.7c0.1,0.2,0.3,0.4,0.5,0.6c0.2,0.2,0.4,0.3,0.7,0.4
		c0.3,0.1,0.5,0.1,0.7,0.1c0.1,0,0.2,0,0.3-0.1s0.2-0.1,0.2-0.1c0.1,0,0.1,0.1,0.2,0.2C217.2,92.3,217.2,92.3,217.2,92.4z"/>
	<path class="st0" d="M237.9,90.5c0,0.3-0.1,0.6-0.4,1s-0.6,0.8-1,1.1c-0.4,0.4-0.9,0.7-1.4,0.9c-0.5,0.3-1.1,0.4-1.7,0.4
		c-0.3,0-0.5,0-0.8-0.1c-0.3-0.1-0.6-0.2-0.9-0.4c-0.3-0.2-0.5-0.4-0.7-0.6c-0.2-0.2-0.4-0.5-0.5-0.8c-0.1,0.1-0.2,0.2-0.3,0.4
		c-0.1,0.2-0.3,0.4-0.4,0.6c-0.1,0.2-0.3,0.4-0.5,0.5c-0.2,0.2-0.4,0.2-0.5,0.2s-0.3-0.1-0.5-0.3c-0.1-0.2-0.2-0.4-0.3-0.7
		c-0.1-0.2-0.1-0.5-0.2-0.7c0-0.2,0-0.3,0-0.4c0-0.2,0.1-0.5,0.2-1c0.1-0.5,0.3-1,0.5-1.5c0.2-0.5,0.5-1,0.8-1.4
		c0.3-0.4,0.7-0.6,1.1-0.6c0.2,0,0.3,0.1,0.3,0.2c0.1,0.1,0.1,0.3,0.1,0.4v0.7c0.1,0.1,0.2,0.1,0.2,0.1c0.1,0,0.2,0.1,0.2,0.1
		c0.1,0,0.1,0.1,0.2,0.2c0,0.1,0.1,0.2,0.1,0.4c0,0.1,0,0.2,0,0.3c0,0.1,0,0.2,0,0.2c0,0.4,0,0.8,0.1,1.1c0.1,0.4,0.2,0.7,0.4,1
		c0.2,0.3,0.4,0.5,0.7,0.7c0.3,0.2,0.7,0.3,1.2,0.3c0.6,0,1.2-0.1,1.6-0.4s0.8-0.6,1.1-0.9c0.3-0.3,0.5-0.6,0.7-0.9
		c0.2-0.3,0.3-0.4,0.4-0.4C237.8,90.2,237.9,90.3,237.9,90.5z M230.2,89.5c0-0.1,0-0.1,0-0.2c0-0.1,0-0.1,0-0.1c0-0.1,0-0.1,0-0.2
		c0,0,0-0.1,0-0.2c0,0,0-0.1,0-0.1c0,0,0,0,0-0.1c-0.1,0-0.3,0.2-0.4,0.4c-0.1,0.2-0.3,0.5-0.4,0.8s-0.2,0.6-0.3,0.9
		s-0.1,0.5-0.1,0.7c0,0.1,0,0.3,0.1,0.5c0.1,0.2,0.1,0.4,0.2,0.5c0.2-0.5,0.5-1,0.7-1.5C230.1,90.5,230.2,90,230.2,89.5z"/>
	<path class="st0" d="M244.8,92.4c0,0.1,0,0.2-0.1,0.3s-0.1,0.2-0.2,0.2c-0.1,0.1-0.2,0.1-0.3,0.2c-0.1,0.1-0.2,0.1-0.3,0.1
		c-0.2,0-0.6-0.1-1-0.2c-0.4-0.1-0.7-0.3-0.9-0.5c-0.2-0.2-0.5-0.5-0.7-0.9c-0.2-0.3-0.4-0.9-0.6-1.5c-0.2,0.6-0.3,1.3-0.6,1.9
		c-0.2,0.6-0.6,1.2-1,1.7c0,0-0.1,0-0.1,0c-0.1,0-0.2-0.1-0.3-0.2s-0.2-0.2-0.2-0.3s0-0.3,0-0.7c0-0.4,0-0.8-0.1-1.3
		c0-0.5-0.1-0.9-0.1-1.4c0-0.5,0-0.9,0-1.2c0-0.1,0-0.3,0-0.6c0-0.2,0.1-0.5,0.1-0.6c0,0,0.1-0.1,0.2-0.2c0.1-0.1,0.2-0.1,0.3-0.1
		c0.1,0,0.2,0.1,0.2,0.2c0,0.1,0,0.3,0,0.4v3.5c0,0.1,0,0.2,0,0.3c0,0.1,0.1,0.2,0.1,0.3c0.2-0.4,0.3-0.8,0.5-1.2
		c0.1-0.5,0.3-0.9,0.4-1.4c0.1-0.4,0.3-0.8,0.4-1.1c0.1-0.3,0.3-0.5,0.4-0.5c0.1,0,0.3,0,0.4,0.1s0.2,0.2,0.2,0.4
		c0.1,0.4,0.1,0.8,0.2,1.1s0.1,0.6,0.2,0.9c0.1,0.3,0.2,0.5,0.3,0.7c0.1,0.2,0.3,0.4,0.5,0.6c0.2,0.2,0.4,0.3,0.7,0.4
		c0.3,0.1,0.5,0.1,0.7,0.1c0.1,0,0.2,0,0.3-0.1s0.2-0.1,0.2-0.1c0.1,0,0.1,0.1,0.2,0.2C244.7,92.3,244.8,92.3,244.8,92.4z"/>
	<path class="st0" d="M256.3,90.5c0,0.3-0.1,0.6-0.4,1s-0.6,0.8-1,1.1c-0.4,0.4-0.9,0.7-1.4,0.9c-0.5,0.3-1.1,0.4-1.7,0.4
		c-0.3,0-0.5,0-0.8-0.1c-0.3-0.1-0.6-0.2-0.9-0.4c-0.3-0.2-0.5-0.4-0.7-0.6c-0.2-0.2-0.4-0.5-0.5-0.8c-0.1,0.1-0.2,0.2-0.3,0.4
		c-0.1,0.2-0.3,0.4-0.4,0.6c-0.1,0.2-0.3,0.4-0.5,0.5c-0.2,0.2-0.4,0.2-0.5,0.2s-0.3-0.1-0.5-0.3c-0.1-0.2-0.2-0.4-0.3-0.7
		c-0.1-0.2-0.1-0.5-0.2-0.7c0-0.2,0-0.3,0-0.4c0-0.2,0.1-0.5,0.2-1c0.1-0.5,0.3-1,0.5-1.5c0.2-0.5,0.5-1,0.8-1.4
		c0.3-0.4,0.7-0.6,1.1-0.6c0.2,0,0.3,0.1,0.3,0.2c0.1,0.1,0.1,0.3,0.1,0.4v0.7c0.1,0.1,0.2,0.1,0.2,0.1c0.1,0,0.2,0.1,0.2,0.1
		c0.1,0,0.1,0.1,0.2,0.2c0,0.1,0.1,0.2,0.1,0.4c0,0.1,0,0.2,0,0.3c0,0.1,0,0.2,0,0.2c0,0.4,0,0.8,0.1,1.1c0.1,0.4,0.2,0.7,0.4,1
		c0.2,0.3,0.4,0.5,0.7,0.7c0.3,0.2,0.7,0.3,1.2,0.3c0.6,0,1.2-0.1,1.6-0.4s0.8-0.6,1.1-0.9c0.3-0.3,0.5-0.6,0.7-0.9
		c0.2-0.3,0.3-0.4,0.4-0.4C256.3,90.2,256.3,90.3,256.3,90.5z M248.6,89.5c0-0.1,0-0.1,0-0.2c0-0.1,0-0.1,0-0.1c0-0.1,0-0.1,0-0.2
		c0,0,0-0.1,0-0.2c0,0,0-0.1,0-0.1c0,0,0,0,0-0.1c-0.1,0-0.3,0.2-0.4,0.4c-0.1,0.2-0.3,0.5-0.4,0.8s-0.2,0.6-0.3,0.9
		s-0.1,0.5-0.1,0.7c0,0.1,0,0.3,0.1,0.5c0.1,0.2,0.1,0.4,0.2,0.5c0.2-0.5,0.5-1,0.7-1.5C248.5,90.5,248.6,90,248.6,89.5z"/>
	<path class="st0" d="M259.4,94.7c-0.1,0.1-0.2,0.1-0.3,0.1c-0.1,0-0.3-0.1-0.4-0.4s-0.3-0.6-0.4-0.9c-0.1-0.4-0.3-0.8-0.4-1.2
		s-0.2-0.9-0.3-1.3s-0.2-0.7-0.2-1c-0.1-0.3-0.1-0.4-0.1-0.4c0-0.1,0-0.2-0.1-0.5c-0.1-0.2-0.1-0.6-0.2-1.2
		c-0.1-0.5-0.2-1.2-0.3-2.1c-0.1-0.8-0.2-1.9-0.3-3.1c0-0.1,0-0.3,0.1-0.5c0-0.2,0.1-0.3,0.3-0.3c0.2,0,0.4,0.1,0.5,0.4
		c0.1,0.3,0.2,0.6,0.3,1c0.1,0.4,0.1,0.8,0.1,1.3s0.1,0.8,0.1,1.2c0.1,0.5,0.1,0.9,0.2,1.3c0.1,0.4,0.1,0.8,0.2,1.1
		c0.1,0.4,0.1,0.8,0.2,1.2c0.1,0.4,0.2,0.9,0.3,1.4l0.9,3.7C259.5,94.5,259.5,94.6,259.4,94.7z"/>
	<path class="st0" d="M265.9,84.8c-0.2,1-0.4,2-0.5,2.9c-0.1,0.4-0.1,0.8-0.2,1.2c-0.1,0.4-0.1,0.9-0.2,1.3
		c-0.1,0.4-0.1,0.8-0.2,1.2s-0.1,0.7-0.1,1c-0.1,0.5-0.1,1-0.1,1.6s-0.1,1.2-0.1,1.7c0,0.6,0,1.3,0,1.9c0,0.1,0,0.3,0,0.4
		c0,0.2,0,0.3,0,0.5c0,0.1,0,0.3-0.1,0.4c-0.1,0.1-0.2,0.2-0.3,0.2c-0.1,0-0.2-0.1-0.3-0.3c-0.1-0.2-0.1-0.4-0.2-0.6
		c0-0.2-0.1-0.5-0.1-0.7s0-0.4,0-0.5c0-0.1,0-0.3,0-0.4s0-0.4,0-0.7s0.1-0.8,0.1-1.3s0.1-1.2,0.2-2.1c0,0-0.1-0.1-0.3-0.2
		c-0.2-0.1-0.4-0.3-0.7-0.5c-0.3-0.2-0.6-0.4-0.9-0.6s-0.6-0.5-0.8-0.7c0,0-0.1-0.1-0.1-0.2c-0.1-0.1-0.1-0.2-0.1-0.4
		c0-0.1,0-0.2,0.1-0.2c0.1-0.1,0.2-0.1,0.2-0.1c0.1,0,0.1,0,0.2,0.1c0.3,0.3,0.7,0.6,1.2,1c0.4,0.4,0.9,0.7,1.3,1
		c0-0.3,0.1-0.7,0.2-1.2c0.1-0.5,0.2-1.1,0.3-1.8c0.1-0.6,0.2-1.2,0.3-1.8c0.1-0.6,0.2-1.1,0.2-1.4c0-0.1,0-0.2,0-0.3
		c0-0.1,0.1-0.3,0.1-0.4c0.1-0.1,0.1-0.2,0.2-0.3c0.1-0.1,0.2-0.1,0.2-0.1c0,0,0.1,0,0.3,0.1S265.9,84.5,265.9,84.8z"/>
	<path class="st0" d="M272.4,92.2c0,0.2-0.1,0.5-0.3,0.6c-0.2,0.2-0.4,0.3-0.6,0.5c-0.3,0.1-0.5,0.2-0.8,0.3
		c-0.3,0.1-0.6,0.1-0.9,0.2s-0.5,0.1-0.7,0.1c-0.2,0-0.3,0-0.4,0c-0.3,0-0.6-0.1-0.7-0.2c-0.2-0.1-0.3-0.3-0.3-0.5
		c0-0.1,0-0.2,0-0.2c0-0.1,0.1-0.1,0.2-0.1c0,0,0.1,0,0.2,0s0.2,0,0.2,0s0.2,0,0.6,0c0.3,0,0.7-0.1,1-0.1s0.7-0.1,1-0.3
		s0.4-0.3,0.4-0.4c0,0-0.2-0.1-0.5-0.3c-0.3-0.2-0.8-0.4-1.4-0.8c-0.5-0.3-0.8-0.6-1-0.9s-0.3-0.7-0.3-1.2c0-0.3,0.1-0.6,0.2-0.8
		c0.1-0.2,0.3-0.4,0.6-0.5c0.2-0.1,0.5-0.2,0.8-0.3s0.6-0.1,1-0.1c0,0,0.1,0,0.3,0s0.3,0.1,0.5,0.1c0.2,0.1,0.3,0.1,0.5,0.2
		c0.1,0.1,0.2,0.2,0.2,0.3c0,0,0,0.1-0.1,0.1c-0.1,0.1-0.1,0.2-0.3,0.3c0,0-0.1,0-0.2-0.1c-0.1,0-0.2-0.1-0.4-0.1
		c-0.1,0-0.3-0.1-0.4-0.1s-0.3,0-0.4,0c-0.4,0-0.7,0.1-0.9,0.2c-0.2,0.1-0.4,0.4-0.4,0.8c0,0.2,0.1,0.4,0.2,0.5
		c0.2,0.2,0.3,0.3,0.6,0.5c0.2,0.1,0.5,0.3,0.8,0.4c0.3,0.1,0.5,0.3,0.8,0.5c0.2,0.2,0.4,0.3,0.6,0.5
		C272.3,91.7,272.4,91.9,272.4,92.2z"/>
	<path class="st0" d="M275.6,84.9c0,0-0.1,0.1-0.2,0.2c-0.1,0.1-0.2,0.2-0.4,0.3c-0.1,0.1-0.3,0.2-0.4,0.3c-0.1,0.1-0.3,0.1-0.4,0.1
		c-0.1,0-0.1,0-0.2,0c-0.1,0-0.2,0-0.3-0.1c-0.1,0-0.2-0.1-0.3-0.2c-0.1-0.1-0.1-0.2-0.1-0.3c0-0.2,0.1-0.4,0.2-0.6
		c0.1-0.2,0.3-0.3,0.6-0.3c0,0,0.1,0,0.3,0.1c0.2,0,0.3,0.1,0.5,0.1c0.2,0.1,0.3,0.1,0.4,0.2C275.5,84.8,275.6,84.9,275.6,84.9z
		 M276.3,93.2c0,0.1-0.1,0.2-0.2,0.3c-0.2,0.1-0.3,0.1-0.3,0.1c-0.1,0-0.3-0.1-0.4-0.3c-0.1-0.2-0.2-0.4-0.3-0.7s-0.2-0.5-0.2-0.7
		c-0.1-0.2-0.1-0.4-0.1-0.5c0-0.1-0.1-0.3-0.2-0.5c-0.1-0.2-0.1-0.4-0.2-0.6c-0.1-0.2-0.1-0.4-0.2-0.5s-0.1-0.2-0.1-0.2
		c0-0.2,0-0.4,0.1-0.6c0.1-0.2,0.2-0.3,0.3-0.3c0.1,0,0.3,0.1,0.4,0.3s0.3,0.5,0.4,0.8c0.1,0.3,0.3,0.7,0.4,1
		c0.1,0.4,0.2,0.7,0.3,1.1s0.2,0.6,0.2,0.9C276.3,93,276.3,93.1,276.3,93.2z"/>
	<path class="st0" d="M282.7,92.2c0,0.2-0.1,0.5-0.3,0.6c-0.2,0.2-0.4,0.3-0.6,0.5c-0.3,0.1-0.5,0.2-0.8,0.3
		c-0.3,0.1-0.6,0.1-0.9,0.2s-0.5,0.1-0.7,0.1c-0.2,0-0.3,0-0.4,0c-0.3,0-0.6-0.1-0.7-0.2c-0.2-0.1-0.3-0.3-0.3-0.5
		c0-0.1,0-0.2,0-0.2c0-0.1,0.1-0.1,0.2-0.1c0,0,0.1,0,0.2,0s0.2,0,0.2,0s0.2,0,0.6,0c0.3,0,0.7-0.1,1-0.1s0.7-0.1,1-0.3
		s0.4-0.3,0.4-0.4c0,0-0.2-0.1-0.5-0.3c-0.3-0.2-0.8-0.4-1.4-0.8c-0.5-0.3-0.8-0.6-1-0.9s-0.3-0.7-0.3-1.2c0-0.3,0.1-0.6,0.2-0.8
		c0.1-0.2,0.3-0.4,0.6-0.5c0.2-0.1,0.5-0.2,0.8-0.3s0.6-0.1,1-0.1c0,0,0.1,0,0.3,0s0.3,0.1,0.5,0.1c0.2,0.1,0.3,0.1,0.5,0.2
		c0.1,0.1,0.2,0.2,0.2,0.3c0,0,0,0.1-0.1,0.1c-0.1,0.1-0.1,0.2-0.3,0.3c0,0-0.1,0-0.2-0.1c-0.1,0-0.2-0.1-0.4-0.1
		c-0.1,0-0.3-0.1-0.4-0.1s-0.3,0-0.4,0c-0.4,0-0.7,0.1-0.9,0.2c-0.2,0.1-0.4,0.4-0.4,0.8c0,0.2,0.1,0.4,0.2,0.5
		c0.2,0.2,0.3,0.3,0.6,0.5c0.2,0.1,0.5,0.3,0.8,0.4c0.3,0.1,0.5,0.3,0.8,0.5c0.2,0.2,0.4,0.3,0.6,0.5
		C282.6,91.7,282.7,91.9,282.7,92.2z"/>
</g>
<path class="st0" d="M170.2,6.8c-0.5-1.2-1.1-2.2-1.8-3.4l9.3,3.3c0.2,0,0.4,0,0.5,0c0.1,0,0.3-0.2,0.4-0.4c0.1-0.4,0-0.7-0.4-0.9
	l-11-3.9c-0.4-0.1-0.7,0-0.9,0.4l-3.9,11c-0.1,0.4,0,0.7,0.4,0.9c0.4,0.1,0.7,0,0.9-0.4l3.3-9.4c0.6,1.1,1.3,2.3,1.8,3.5
	c15.3,32.1,9.3,46.7-13,63.6c-1.1-1.5-3.1-2-4.8-1.2c-1.9,1-2.7,3.3-1.8,5.2c1,1.9,3.3,2.7,5.2,1.8c1.7-0.8,2.4-2.7,2.1-4.4
	C179.6,55.2,185.8,39.5,170.2,6.8z M153.7,75.5c-1.1,0.6-2.6,0-3.1-1.1c-0.6-1.1,0-2.6,1.1-3.1c1.1-0.6,2.6,0,3.1,1.1
	C155.4,73.5,154.9,75,153.7,75.5z"/>
</svg>
