<?xml version="1.0" encoding="utf-8"?>
<!-- Generator: Adobe Illustrator 22.1.0, SVG Export Plug-In . SVG Version: 6.00 Build 0)  -->
<svg version="1.1" xmlns="http://www.w3.org/2000/svg" xmlns:xlink="http://www.w3.org/1999/xlink" x="0px" y="0px"
	 viewBox="0 0 150 150" style="enable-background:new 0 0 150 150;" xml:space="preserve">
<style type="text/css">
	.st0{fill:#EB1D39;}
	.st1{fill:#FFFFFF;}
	.st2{display:none;}
	.st3{display:inline;}
	.st4{fill:#FFFFFF;stroke:#EB1D39;stroke-width:0.5;stroke-miterlimit:10;}
	.st5{fill:none;stroke:#FFFFFF;stroke-miterlimit:10;}
</style>
<g id="Layer_1">
	<g>
		<circle class="st0" cx="75" cy="75" r="75"/>
		<g>
			<g>
				<g>
					<g>
						<g>
							<path class="st1" d="M102.3,95.8c-0.2,0-0.5-0.1-0.7-0.3c-0.4-0.4-0.4-1,0-1.4l1.8-1.9c4.6-4.7,7.1-11,7.1-17.6v-7.3
								c-2.4,0.5-4.2,2.6-4.2,5.1c0,0.5-0.4,1-1,1s-1-0.4-1-1c0-3.9,3.2-7.1,7.1-7.1h1v9.3c0,7.1-2.7,13.8-7.7,18.9l-1.8,1.9
								C102.8,95.7,102.5,95.8,102.3,95.8z"/>
						</g>
					</g>
					<g>
						<g>
							<path class="st1" d="M106.3,80.6h-1.9V55.8c0-1.2-1-2.1-2.1-2.1s-2.1,1-2.1,2.1l0,17.5l-1.9,0l0-17.5c0-2.2,1.8-4.1,4.1-4.1
								c2.2,0,4.1,1.8,4.1,4.1V80.6z"/>
						</g>
					</g>
					<g>
						<g>
							<path class="st1" d="M93.9,73.3l-1.9,0l0-17.5c0-2.2,1.8-4.1,4.1-4.1c2.2,0,4.1,1.8,4.1,4.1l0,17.5l-1.9,0l0-17.5
								c0-1.2-1-2.1-2.1-2.1c-1.2,0-2.1,1-2.1,2.1L93.9,73.3z"/>
						</g>
					</g>
					<g>
						<g>
							
								<rect x="81.9" y="67.4" transform="matrix(1.899997e-03 -1 1 1.899997e-03 18.2326 155.0674)" class="st1" width="9.8" height="1.9"/>
						</g>
					</g>
					<g>
						<g>
							
								<rect x="84.2" y="63.6" transform="matrix(1.899997e-03 -1 1 1.899997e-03 28.2311 157.4249)" class="st1" width="17.5" height="1.9"/>
						</g>
					</g>
					<g>
						<g>
							<rect x="81.8" y="94.8" class="st1" width="1.9" height="19.5"/>
						</g>
					</g>
					<g>
						<g>
							<rect x="101.3" y="94.8" class="st1" width="1.9" height="19.5"/>
						</g>
					</g>
					<g>
						<g>
							<path class="st1" d="M82.8,95.8c-0.4,0-0.8-0.3-0.9-0.7l-0.1-0.3c-2.2-6.5-3.2-13.3-2.9-20.2l0.2-4.7c0-0.5,0.5-1,1-0.9
								c0.5,0,0.9,0.5,0.9,1l-0.2,4.7c-0.3,6.6,0.6,13.2,2.8,19.5l0.1,0.3c0.2,0.5-0.1,1.1-0.6,1.2C83,95.8,82.9,95.8,82.8,95.8z"/>
						</g>
					</g>
					<g>
						<g>
							<path class="st1" d="M91.5,89.9h-1.9v-2.5c0-4.4,3.5-8.1,8.1-8.7l7.7,0v1.9h-7.5c-3.5,0.4-6.2,3.3-6.2,6.8V89.9z"/>
						</g>
					</g>
				</g>
				<g>
					<g>
						<g>
							<path class="st1" d="M51.9,95.8c-0.3,0-0.5-0.1-0.7-0.3l-1.8-1.9c-5-5.1-7.7-11.8-7.7-18.9v-9.3h1c3.9,0,7.1,3.2,7.1,7.1
								c0,0.5-0.4,1-1,1c-0.5,0-1-0.4-1-1c0-2.5-1.8-4.6-4.2-5.1v7.3c0,6.6,2.5,12.9,7.1,17.6l1.8,1.9c0.4,0.4,0.4,1,0,1.4
								C52.4,95.7,52.2,95.8,51.9,95.8z"/>
						</g>
					</g>
					<g>
						<g>
							<path class="st1" d="M49.8,80.6h-1.9V55.8c0-2.2,1.8-4.1,4.1-4.1c2.2,0,4.1,1.8,4.1,4.1l0,17.5l-1.9,0l0-17.5
								c0-1.2-1-2.1-2.1-2.1c-1.2,0-2.1,1-2.1,2.1V80.6z"/>
						</g>
					</g>
					<g>
						<g>
							<path class="st1" d="M60.2,73.3l0-17.5c0-1.2-1-2.1-2.1-2.1c-1.2,0-2.1,1-2.1,2.1l0,17.5l-1.9,0l0-17.5
								c0-2.2,1.8-4.1,4.1-4.1c2.2,0,4.1,1.8,4.1,4.1l0,17.5L60.2,73.3z"/>
						</g>
					</g>
					<g>
						<g>
							
								<rect x="62.5" y="67.4" transform="matrix(5.899897e-03 -1 1 5.899897e-03 -1.3901 135.4018)" class="st1" width="9.8" height="1.9"/>
						</g>
					</g>
					<g>
						<g>
							<path class="st1" d="M60.2,73.3l0-17.5c0-1.1,0.4-2.1,1.2-2.9l1.4,1.4c-0.4,0.4-0.6,0.9-0.6,1.5l0,17.5L60.2,73.3z"/>
						</g>
					</g>
					<g>
						<g>
							<rect x="70.4" y="94.8" class="st1" width="1.9" height="19.5"/>
						</g>
					</g>
					<g>
						<g>
							<rect x="50.9" y="94.8" class="st1" width="1.9" height="19.5"/>
						</g>
					</g>
					<g>
						<g>
							<path class="st1" d="M71.4,95.8c-0.1,0-0.2,0-0.3-0.1c-0.5-0.2-0.8-0.7-0.6-1.2l0.1-0.3c2.1-6.3,3.1-12.8,2.8-19.5L73.2,70
								c0-0.5,0.4-1,0.9-1c0.5,0,1,0.4,1,0.9l0.2,4.7c0.3,6.9-0.7,13.7-2.9,20.2l-0.1,0.3C72.2,95.5,71.8,95.8,71.4,95.8z"/>
						</g>
					</g>
					<g>
						<g>
							<path class="st1" d="M64.6,89.9h-1.9v-2.5c0-3.4-2.7-6.3-6.4-6.8l-7.4,0v-1.9h7.5c4.7,0.6,8.2,4.3,8.2,8.7V89.9z"/>
						</g>
					</g>
				</g>
			</g>
			<g>
				<g>
					<g>
						<g>
							<path class="st1" d="M88.4,62.6c-0.3,0-0.5-0.1-0.7-0.3c-0.3-0.4-0.3-1,0.1-1.4c2.2-1.9,3.3-4,3.3-6.3c0-4.2-3.4-7.6-7.6-7.6
								c-2.2,0-4.3,1-5.8,2.6c-0.3,0.4-1,0.4-1.4,0.1c-0.4-0.3-0.4-1-0.1-1.4c1.8-2.1,4.4-3.3,7.2-3.3c5.3,0,9.5,4.3,9.5,9.5
								c0,2.8-1.4,5.5-3.9,7.7C88.9,62.5,88.7,62.6,88.4,62.6z"/>
						</g>
					</g>
					<g>
						<g>
							<path class="st1" d="M77,73.7c-0.3,0-0.5-0.1-0.7-0.3c-0.4-0.4-0.4-1,0-1.4L88.8,60c0.4-0.4,1-0.4,1.4,0c0.4,0.4,0.4,1,0,1.4
								L77.7,73.4C77.5,73.6,77.2,73.7,77,73.7z"/>
						</g>
					</g>
				</g>
				<g>
					<g>
						<g>
							<path class="st1" d="M65.5,62.6c-0.2,0-0.4-0.1-0.6-0.2c-2.6-2.2-3.9-4.9-3.9-7.7c0-5.3,4.3-9.5,9.5-9.5
								c2.8,0,5.4,1.2,7.2,3.3c0.3,0.4,0.3,1-0.1,1.4c-0.4,0.3-1,0.3-1.4-0.1C74.8,48,72.7,47,70.5,47c-4.2,0-7.6,3.4-7.6,7.6
								c0,2.3,1.1,4.4,3.3,6.3c0.4,0.3,0.5,1,0.1,1.4C66.1,62.5,65.8,62.6,65.5,62.6z"/>
						</g>
					</g>
					<g>
						<g>
							<path class="st1" d="M77,73.7c-0.2,0-0.5-0.1-0.7-0.3L63.9,61.4c-0.4-0.4-0.4-1,0-1.4c0.4-0.4,1-0.4,1.4,0l12.4,12.1
								c0.4,0.4,0.4,1,0,1.4C77.5,73.6,77.2,73.7,77,73.7z"/>
						</g>
					</g>
				</g>
			</g>
			<g>
				<g>
					<g>
						<path class="st1" d="M59.2,47c-0.2,0-0.4-0.1-0.5-0.2l-3.4-2.2c-0.4-0.3-0.6-0.9-0.3-1.3c0.3-0.4,0.9-0.6,1.3-0.3l3.4,2.2
							c0.4,0.3,0.6,0.9,0.3,1.3C59.8,46.9,59.5,47,59.2,47z"/>
					</g>
				</g>
				<g>
					<g>
						<path class="st1" d="M67.8,39c-0.3,0-0.6-0.1-0.8-0.4l-2.5-3.2c-0.3-0.4-0.3-1,0.2-1.4c0.4-0.3,1-0.3,1.4,0.2l2.5,3.2
							c0.3,0.4,0.3,1-0.2,1.4C68.2,39,68,39,67.8,39z"/>
					</g>
				</g>
				<g>
					<g>
						<path class="st1" d="M77,36.4c-0.5,0-1-0.4-1-1l0-4c0-0.5,0.4-1,1-1c0.5,0,1,0.4,1,1l0,4C78,36,77.5,36.4,77,36.4
							C77,36.4,77,36.4,77,36.4z"/>
					</g>
				</g>
				<g>
					<g>
						<path class="st1" d="M86.5,39c-0.2,0-0.4-0.1-0.6-0.2c-0.4-0.3-0.5-0.9-0.2-1.4l2.5-3.2c0.3-0.4,0.9-0.5,1.4-0.2
							c0.4,0.3,0.5,0.9,0.2,1.4l-2.5,3.2C87.1,38.9,86.8,39,86.5,39z"/>
					</g>
				</g>
				<g>
					<g>
						<path class="st1" d="M94.8,47c-0.3,0-0.6-0.2-0.8-0.4c-0.3-0.4-0.2-1,0.3-1.3l3.4-2.2c0.4-0.3,1-0.2,1.3,0.3
							c0.3,0.4,0.2,1-0.3,1.3l-3.4,2.2C95.1,47,94.9,47,94.8,47z"/>
					</g>
				</g>
			</g>
		</g>
	</g>
</g>
<g id="Layer_3" class="st2">
	<g class="st3">
		<circle class="st0" cx="75" cy="75" r="75"/>
		<path class="st4" d="M74.1,53c-12.3,0-22.2,10-22.2,22.2c0,12.3,10,22.2,22.2,22.2c12.3,0,22.2-10,22.2-22.2
			C96.3,63,86.3,53,74.1,53z M88.4,87.8c-3.5,4-8.6,6.5-14.3,6.5c-5.7,0-10.8-2.5-14.3-6.5v-1.4c0-2.3,1.9-3.2,2.7-3.4
			c0.7-0.2,2.2-0.8,3.2-1.1l7.2,7.2c0.3,0.3,0.7,0.5,1.1,0.5c0.4,0,0.8-0.2,1.1-0.5l7.2-7.2c1,0.3,2.5,0.9,3.2,1.1
			c0.8,0.3,2.7,1.2,2.7,3.4V87.8z M91,83.9c-0.7-1.8-2.3-3.2-4.4-4c-1-0.3-4.1-1.4-4.1-1.4c-0.6-0.2-1.2-0.1-1.6,0.4l-6.8,6.8
			l-6.8-6.8c-0.4-0.4-1.1-0.6-1.6-0.4c0,0-3.1,1.1-4.1,1.4c-2.1,0.7-3.7,2.2-4.4,4c-1.3-2.6-2.1-5.5-2.1-8.6
			c0-10.5,8.6-19.1,19.1-19.1c10.5,0,19.1,8.6,19.1,19.1C93.1,78.3,92.4,81.3,91,83.9z M74.1,59.3c-5.3,0-9.5,4.3-9.5,9.5
			c0,5.3,4.3,9.5,9.5,9.5c5.3,0,9.5-4.3,9.5-9.5C83.6,63.6,79.3,59.3,74.1,59.3z M74.1,75.2c-3.5,0-6.4-2.9-6.4-6.4
			c0-3.5,2.9-6.4,6.4-6.4c3.5,0,6.4,2.9,6.4,6.4C80.4,72.4,77.6,75.2,74.1,75.2z M95.7,40.1c-6.7-4.1-14.2-6.2-21.7-6.2
			c-7.5,0-15,2.1-21.7,6.2c-1.8-1.6-4-2.5-6.4-2.5c-2.5,0-4.9,1-6.7,2.8c-1.8,1.8-2.8,4.2-2.8,6.7c0,2.4,0.9,4.7,2.5,6.4
			c-4.1,6.7-6.2,14.2-6.2,21.7c0,7.5,2.1,15,6.2,21.7c-1.6,1.8-2.5,4-2.5,6.4c0,2.5,1,4.9,2.8,6.7c1.8,1.8,4.2,2.8,6.7,2.8
			c2.4,0,4.7-0.9,6.4-2.5c6.7,4.1,14.2,6.2,21.7,6.2c7.5,0,15-2.1,21.7-6.2c1.8,1.6,4,2.5,6.4,2.5c2.5,0,4.9-1,6.7-2.8
			s2.8-4.2,2.8-6.7c0-2.4-0.9-4.7-2.5-6.4c4.1-6.7,6.2-14.2,6.2-21.7c0-7.5-2.1-15-6.2-21.7c1.6-1.8,2.5-4,2.5-6.4
			c0-2.5-1-4.9-2.8-6.7c-1.8-1.8-4.2-2.8-6.7-2.8C99.7,37.6,97.5,38.5,95.7,40.1z M97.7,42.7c1.2-1.2,2.9-1.9,4.5-1.9
			s3.3,0.6,4.5,1.9c2.5,2.5,2.5,6.5,0,9c-2.5,2.5-6.5,2.5-9,0C95.2,49.2,95.2,45.1,97.7,42.7z M41.5,42.7c1.2-1.2,2.9-1.9,4.5-1.9
			s3.3,0.6,4.5,1.9c2.5,2.5,2.5,6.5,0,9c-2.5,2.5-6.5,2.5-9,0C39,49.2,39,45.1,41.5,42.7z M50.5,107.8c-2.5,2.5-6.5,2.5-9,0
			c-2.5-2.5-2.5-6.5,0-9c1.2-1.2,2.9-1.9,4.5-1.9s3.3,0.6,4.5,1.9C52.9,101.3,52.9,105.3,50.5,107.8z M106.6,107.8
			c-2.5,2.5-6.5,2.5-9,0c-2.5-2.5-2.5-6.5,0-9c1.2-1.2,2.9-1.9,4.5-1.9s3.3,0.6,4.5,1.9C109.1,101.3,109.1,105.3,106.6,107.8z
			 M93.7,107.8c-6.1,3.7-12.9,5.5-19.7,5.5c-6.8,0-13.6-1.9-19.7-5.5c0.7-1.4,1.1-2.9,1.1-4.5c0-2.5-1-4.9-2.8-6.7
			c-1.8-1.8-4.2-2.8-6.7-2.8c-1.6,0-3.1,0.4-4.5,1.1c-3.7-6.1-5.5-12.9-5.5-19.7c0-6.8,1.9-13.6,5.5-19.7c1.4,0.7,2.9,1.1,4.5,1.1
			c2.5,0,4.9-1,6.7-2.8c1.8-1.8,2.8-4.2,2.8-6.7c0-1.6-0.4-3.1-1.1-4.5c6.1-3.7,12.9-5.5,19.7-5.5s13.6,1.9,19.7,5.5
			c-0.7,1.4-1.1,2.9-1.1,4.5c0,2.5,1,4.9,2.8,6.7c1.8,1.8,4.2,2.8,6.7,2.8c1.6,0,3.1-0.4,4.5-1.1c3.7,6.1,5.5,12.9,5.5,19.7
			c0,6.8-1.9,13.6-5.5,19.7c-1.4-0.7-2.9-1.1-4.5-1.1c-2.5,0-4.9,1-6.7,2.8c-1.8,1.8-2.8,4.2-2.8,6.7
			C92.6,104.9,93,106.5,93.7,107.8z"/>
	</g>
</g>
<g id="Layer_2" class="st2">
	<g class="st3">
		<circle class="st0" cx="75" cy="75" r="75"/>
		<g>
			<path class="st5" d="M69.7,55.5c0,2.4,2.2,4.4,5,4.4c2.8,0,5-2,5-4.4c0-2.4-2.2-4.4-5-4.4c-2.8,0-5-2-5-4.4c0-2.4,2.2-4.4,5-4.4
				c2.8,0,5,2,5,4.4"/>
			<line class="st5" x1="74.6" y1="40.1" x2="74.6" y2="62.1"/>
		</g>
		<g>
			<path class="st5" d="M66.9,90.2c0-3.8,3.1-6.9,7-6.9s7,3.1,7,6.9c0,3.8-3.1,6.9-7,6.9S66.9,94.1,66.9,90.2z"/>
			<path class="st5" d="M86.1,114.8v-4.9c0-4.6-8-7-12.3-7c-4.4,0-12.3,2.4-12.3,7v4.9"/>
			<path class="st5" d="M88,90.2c0-3.8,3.1-6.9,7-6.9s7,3.1,7,6.9c0,3.8-3.1,6.9-7,6.9S88,94.1,88,90.2z"/>
			<path class="st5" d="M107.2,114.8v-4.9c0-4.6-8-7-12.3-7c-1.5,0-3.4,0.3-5.3,0.8"/>
			<path class="st5" d="M59.8,90.2c0-3.8-3.1-6.9-7-6.9s-7,3.1-7,6.9c0,3.8,3.1,6.9,7,6.9C56.6,97.2,59.8,94.1,59.8,90.2z"/>
			<path class="st5" d="M40.4,114.8v-4.9c0-4.6,8-7,12.4-7c1.5,0,3.4,0.3,5.2,0.8"/>
			<path class="st5" d="M73.8,34h31.6c3.9,0,7,3.1,7,7v17.6c0,3.9-3.1,7-7,7h-7v8.8c0,1.7-2.2,2.4-3.2,1.1l-7.4-9.8h-8.8l-3.6,10.8
				c-0.5,1.6-2.8,1.6-3.3,0l-3.6-10.8h-8.8l-7.4,9.8c-1,1.4-3.2,0.6-3.2-1.1v-8.8h-5.3c-3.9,0-7-3.1-7-7V41c0-3.9,3.1-7,7-7H73.8z"
				/>
		</g>
	</g>
</g>
</svg>
