<?xml version="1.0" encoding="utf-8"?>
<!-- Generator: Adobe Illustrator 22.1.0, SVG Export Plug-In . SVG Version: 6.00 Build 0)  -->
<svg version="1.1" id="Layer_1" xmlns="http://www.w3.org/2000/svg" xmlns:xlink="http://www.w3.org/1999/xlink" x="0px" y="0px"
	 viewBox="0 0 621.5 400" style="enable-background:new 0 0 621.5 400;" xml:space="preserve">
<style type="text/css">
	.st0{fill:#C00000;}
	.st1{fill:#404040;}
	.st2{fill:#FFFFFF;}
	.st3{stroke:#000000;stroke-miterlimit:10;}
</style>
<circle class="st0" cx="77.8" cy="107.9" r="75.8"/>
<circle class="st1" cx="77.8" cy="292.1" r="75.8"/>
<polygon class="st0" points="169.6,95.2 229.5,95.2 229.5,83 254,107.4 229.5,131.9 229.5,119.6 169.6,119.6 "/>
<polygon class="st0" points="169.6,279.4 229.5,279.4 229.5,267.2 254,291.6 229.5,316.1 229.5,303.9 169.6,303.9 "/>
<g>
	<path class="st2" d="M21.3,94c0.3,0.4,0.4,0.8,0.4,1.3c0,0.7-0.3,1.3-0.9,1.7c-0.6,0.4-1.4,0.6-2.5,0.6H14v-8.4h4.1
		c1,0,1.8,0.2,2.4,0.6s0.8,0.9,0.8,1.6c0,0.4-0.1,0.8-0.3,1.1c-0.2,0.3-0.5,0.6-0.8,0.8C20.7,93.4,21,93.7,21.3,94z M15.9,90.7v2
		h1.9c0.5,0,0.8-0.1,1.1-0.3c0.2-0.2,0.4-0.4,0.4-0.7c0-0.3-0.1-0.6-0.4-0.7c-0.2-0.2-0.6-0.2-1.1-0.2h-1.9V90.7z M19.4,95.9
		c0.3-0.2,0.4-0.4,0.4-0.8c0-0.7-0.5-1-1.5-1H16v2.1h2.3C18.7,96.2,19.1,96.1,19.4,95.9z"/>
	<path class="st2" d="M24.1,96.8c-0.7-0.7-1-1.6-1-2.8v-4.7H25v4.6c0,1.5,0.6,2.3,1.9,2.3c0.6,0,1.1-0.2,1.4-0.5
		c0.3-0.4,0.5-0.9,0.5-1.7v-4.6h1.9V94c0,1.2-0.3,2.2-1,2.8s-1.6,1-2.8,1S24.8,97.5,24.1,96.8z"/>
	<path class="st2" d="M32.6,89.2h1.9v8.4h-1.9V89.2z"/>
	<path class="st2" d="M36.6,89.2h1.9V96h4.2v1.6h-6.2L36.6,89.2L36.6,89.2z"/>
	<path class="st2" d="M43.8,89.2h3.8c0.9,0,1.7,0.2,2.4,0.5s1.2,0.8,1.6,1.5c0.4,0.6,0.6,1.4,0.6,2.2c0,0.8-0.2,1.6-0.6,2.2
		c-0.4,0.6-0.9,1.1-1.6,1.5s-1.5,0.5-2.4,0.5h-3.8V89.2z M47.6,96c0.8,0,1.5-0.2,2-0.7s0.8-1.1,0.8-1.9s-0.2-1.4-0.8-1.9
		c-0.5-0.5-1.2-0.7-2-0.7h-1.8V96H47.6z"/>
	<path class="st2" d="M53.7,89.2h1.9v8.4h-1.9V89.2z"/>
	<path class="st2" d="M65.4,89.2v8.4h-1.6l-4.2-5.1v5.1h-1.9v-8.4h1.6l4.2,5.1v-5.1H65.4z"/>
	<path class="st2" d="M73.1,93.3h1.8v3.4c-0.5,0.3-1,0.6-1.6,0.8c-0.6,0.2-1.2,0.3-1.8,0.3c-0.9,0-1.7-0.2-2.4-0.6s-1.2-0.9-1.6-1.5
		c-0.4-0.7-0.6-1.4-0.6-2.2c0-0.8,0.2-1.6,0.6-2.2c0.4-0.7,0.9-1.2,1.7-1.5s1.5-0.6,2.4-0.6c0.7,0,1.4,0.1,2,0.4
		c0.6,0.2,1.1,0.6,1.5,1.1l-1.2,1.2c-0.6-0.6-1.3-0.9-2.2-0.9c-0.5,0-1,0.1-1.4,0.3c-0.4,0.2-0.7,0.5-1,0.9
		c-0.2,0.4-0.3,0.9-0.3,1.4s0.1,1,0.3,1.4c0.2,0.4,0.6,0.7,1,1s0.9,0.3,1.4,0.3c0.6,0,1.1-0.1,1.5-0.4v-2.6L73.1,93.3L73.1,93.3z"/>
	<path class="st2" d="M81.7,97.2c-0.7-0.4-1.2-0.9-1.6-1.6s-0.6-1.4-0.6-2.2c0-0.8,0.2-1.6,0.6-2.2c0.4-0.7,0.9-1.2,1.6-1.6
		s1.5-0.6,2.4-0.6s1.7,0.2,2.4,0.6s1.2,0.9,1.6,1.6s0.6,1.4,0.6,2.2c0,0.8-0.2,1.6-0.6,2.2c-0.4,0.7-0.9,1.2-1.6,1.6
		s-1.5,0.6-2.4,0.6C83.2,97.8,82.4,97.6,81.7,97.2z M85.4,95.8c0.4-0.2,0.7-0.5,0.9-1c0.2-0.4,0.3-0.9,0.3-1.4s-0.1-1-0.3-1.4
		c-0.2-0.4-0.5-0.7-0.9-1c-0.4-0.2-0.8-0.3-1.3-0.3s-0.9,0.1-1.3,0.3c-0.4,0.2-0.7,0.5-0.9,1c-0.2,0.4-0.3,0.9-0.3,1.4
		s0.1,1,0.3,1.4c0.2,0.4,0.5,0.7,0.9,1c0.4,0.2,0.8,0.3,1.3,0.3C84.6,96.1,85,96,85.4,95.8z"/>
	<path class="st2" d="M97.9,89.2v8.4h-1.6l-4.2-5.1v5.1h-1.9v-8.4h1.6l4.2,5.1v-5.1H97.9z"/>
	<path class="st2" d="M115.9,89.2l-2.7,8.4h-2.1l-1.8-5.7l-1.9,5.7h-2.1l-2.8-8.4h2l1.9,5.9l2-5.9h1.8l1.9,6l2-6H115.9z"/>
	<path class="st2" d="M124.7,89.2v8.4h-1.9v-3.4H119v3.4h-2v-8.4h1.9v3.3h3.8v-3.3H124.7z"/>
	<path class="st2" d="M132.2,95.8h-3.9l-0.7,1.8h-2l3.7-8.4h1.9l3.8,8.4h-2L132.2,95.8z M131.6,94.4l-1.3-3.2l-1.3,3.2H131.6z"/>
	<path class="st2" d="M137.2,90.8h-2.7v-1.6h7.3v1.6h-2.7v6.8h-1.9L137.2,90.8L137.2,90.8z"/>
	<path class="st2" d="M23,109.1v3h-1.9v-3l-3.3-5.4h2.1l2.2,3.7l2.2-3.7h1.9L23,109.1z"/>
	<path class="st2" d="M28.4,111.6c-0.7-0.4-1.2-0.9-1.6-1.6s-0.6-1.4-0.6-2.2c0-0.8,0.2-1.6,0.6-2.2c0.4-0.7,0.9-1.2,1.6-1.6
		s1.5-0.6,2.4-0.6s1.7,0.2,2.4,0.6s1.2,0.9,1.6,1.6c0.4,0.7,0.6,1.4,0.6,2.2c0,0.8-0.2,1.6-0.6,2.2c-0.4,0.7-0.9,1.2-1.6,1.6
		s-1.5,0.6-2.4,0.6S29.1,112,28.4,111.6z M32.1,110.2c0.4-0.2,0.7-0.5,0.9-1c0.2-0.4,0.3-0.9,0.3-1.4s-0.1-1-0.3-1.4s-0.5-0.7-0.9-1
		c-0.4-0.2-0.8-0.3-1.3-0.3s-0.9,0.1-1.3,0.3c-0.4,0.2-0.7,0.5-0.9,1c-0.2,0.4-0.3,0.9-0.3,1.4s0.1,1,0.3,1.4c0.2,0.4,0.5,0.7,0.9,1
		c0.4,0.2,0.8,0.3,1.3,0.3S31.7,110.4,32.1,110.2z"/>
	<path class="st2" d="M37.7,111.2c-0.7-0.7-1-1.6-1-2.8v-4.7h1.9v4.6c0,1.5,0.6,2.3,1.9,2.3c0.6,0,1.1-0.2,1.4-0.5
		c0.3-0.4,0.5-0.9,0.5-1.7v-4.6h1.9v4.7c0,1.2-0.3,2.2-1,2.8s-1.6,1-2.8,1S38.4,111.9,37.7,111.2z"/>
	<path class="st2" d="M57.4,103.6v8.4h-1.9v-3.4h-3.8v3.4h-1.9v-8.4h1.9v3.3h3.8v-3.3H57.4z"/>
	<path class="st2" d="M64.9,110.2H61l-0.8,1.8h-2l3.7-8.4h1.9l3.8,8.4h-2L64.9,110.2z M64.3,108.8l-1.3-3.2l-1.3,3.2H64.3z"/>
	<path class="st2" d="M76.2,103.6l-3.6,8.4h-1.9l-3.6-8.4h2.1l2.6,6l2.6-6H76.2z"/>
	<path class="st2" d="M83.4,110.5v1.6h-6.5v-8.4h6.3v1.6h-4.4v1.8h3.9v1.5h-3.9v1.9H83.4z"/>
	<path class="st2" d="M89.1,111.9c-0.6-0.2-1.1-0.4-1.5-0.7l0.7-1.5c0.4,0.3,0.8,0.5,1.3,0.6c0.5,0.2,1,0.2,1.5,0.2
		c0.6,0,1-0.1,1.2-0.2c0.3-0.2,0.4-0.4,0.4-0.7c0-0.2-0.1-0.4-0.2-0.5c-0.2-0.1-0.4-0.2-0.6-0.3s-0.6-0.2-1-0.3
		c-0.6-0.2-1.2-0.3-1.6-0.5s-0.8-0.4-1-0.7c-0.3-0.3-0.4-0.8-0.4-1.3s0.1-0.9,0.4-1.3s0.7-0.7,1.2-0.9s1.2-0.3,2-0.3
		c0.5,0,1.1,0.1,1.6,0.2s1,0.3,1.3,0.6l-0.6,1.5c-0.8-0.4-1.6-0.7-2.3-0.7c-0.5,0-0.9,0.1-1.2,0.3c-0.3,0.2-0.4,0.4-0.4,0.7
		s0.2,0.5,0.5,0.6s0.8,0.3,1.4,0.4c0.6,0.2,1.2,0.3,1.6,0.5s0.8,0.4,1,0.7s0.4,0.8,0.4,1.3s-0.1,0.9-0.4,1.3s-0.7,0.7-1.2,0.9
		s-1.2,0.3-2,0.3C90.4,112.2,89.8,112.1,89.1,111.9z"/>
	<path class="st2" d="M102.5,110.5v1.6H96v-8.4h6.3v1.6h-4.4v1.8h3.9v1.5h-3.9v1.9H102.5z"/>
	<path class="st2" d="M110.5,110.5v1.6H104v-8.4h6.3v1.6h-4.4v1.8h3.9v1.5h-3.9v1.9H110.5z"/>
	<path class="st2" d="M119.8,103.6v8.4h-1.6l-4.2-5.1v5.1h-1.9v-8.4h1.6l4.2,5.1v-5.1H119.8z"/>
	<path class="st2" d="M136.5,103.6v8.4h-1.6l-4.2-5.1v5.1h-1.9v-8.4h1.6l4.2,5.1v-5.1H136.5z"/>
	<path class="st2" d="M23.8,119.6h-2.7V118h7.3v1.6h-2.7v6.8h-1.9C23.8,126.4,23.8,119.6,23.8,119.6z"/>
	<path class="st2" d="M37.1,118v8.4h-1.9V123h-3.8v3.4h-1.9V118h1.9v3.3h3.8V118H37.1z"/>
	<path class="st2" d="M39.1,118H41v8.4h-1.9V118z"/>
	<path class="st2" d="M43.9,126.3c-0.6-0.2-1.1-0.4-1.5-0.7l0.7-1.5c0.4,0.3,0.8,0.5,1.3,0.6s1,0.2,1.5,0.2c0.6,0,1-0.1,1.2-0.2
		c0.3-0.2,0.4-0.4,0.4-0.7c0-0.2-0.1-0.4-0.2-0.5c-0.2-0.1-0.4-0.2-0.6-0.3c-0.2-0.1-0.6-0.2-1-0.3c-0.6-0.2-1.2-0.3-1.6-0.5
		c-0.4-0.2-0.8-0.4-1.1-0.7s-0.4-0.8-0.4-1.3s0.1-0.9,0.4-1.3c0.3-0.4,0.7-0.7,1.2-0.9c0.5-0.2,1.2-0.3,1.9-0.3
		c0.5,0,1.1,0.1,1.6,0.2s1,0.3,1.3,0.6l-0.6,1.5c-0.8-0.4-1.6-0.7-2.3-0.7c-0.5,0-0.9,0.1-1.2,0.3c-0.3,0.2-0.4,0.4-0.4,0.7
		s0.1,0.5,0.5,0.6c0.3,0.1,0.8,0.3,1.4,0.4c0.6,0.2,1.2,0.3,1.6,0.5c0.4,0.2,0.8,0.4,1,0.7s0.4,0.8,0.4,1.3s-0.1,0.9-0.4,1.3
		c-0.3,0.4-0.7,0.7-1.2,0.9c-0.5,0.2-1.2,0.3-2,0.3C45.2,126.6,44.5,126.5,43.9,126.3z"/>
	<path class="st2" d="M55,126.3c-0.6-0.2-1.1-0.4-1.5-0.7l0.7-1.5c0.4,0.3,0.8,0.5,1.3,0.6s1,0.2,1.5,0.2c0.6,0,1-0.1,1.2-0.2
		c0.3-0.2,0.4-0.4,0.4-0.7c0-0.2-0.1-0.4-0.2-0.5c-0.2-0.1-0.4-0.2-0.6-0.3c-0.2-0.1-0.6-0.2-1-0.3c-0.6-0.2-1.2-0.3-1.6-0.5
		c-0.4-0.2-0.8-0.4-1.1-0.7s-0.4-0.8-0.4-1.3s0.1-0.9,0.4-1.3c0.3-0.4,0.7-0.7,1.2-0.9c0.5-0.2,1.2-0.3,1.9-0.3
		c0.5,0,1.1,0.1,1.6,0.2s1,0.3,1.3,0.6l-0.6,1.5c-0.8-0.4-1.6-0.7-2.3-0.7c-0.5,0-0.9,0.1-1.2,0.3c-0.3,0.2-0.4,0.4-0.4,0.7
		s0.1,0.5,0.5,0.6c0.3,0.1,0.8,0.3,1.4,0.4c0.6,0.2,1.2,0.3,1.6,0.5c0.4,0.2,0.8,0.4,1,0.7s0.4,0.8,0.4,1.3s-0.1,0.9-0.4,1.3
		c-0.3,0.4-0.7,0.7-1.2,0.9c-0.5,0.2-1.2,0.3-2,0.3C56.2,126.6,55.6,126.5,55,126.3z"/>
	<path class="st2" d="M62.7,125.6c-0.7-0.7-1-1.6-1-2.8V118h1.9v4.6c0,1.5,0.6,2.3,1.9,2.3c0.6,0,1.1-0.2,1.4-0.5
		c0.3-0.4,0.5-0.9,0.5-1.7V118h1.9v4.7c0,1.2-0.3,2.2-1,2.8s-1.6,1-2.8,1S63.4,126.3,62.7,125.6z"/>
	<path class="st2" d="M78.5,122.8c0.3,0.4,0.4,0.8,0.4,1.3c0,0.7-0.3,1.3-0.9,1.7c-0.6,0.4-1.4,0.6-2.5,0.6h-4.3V118h4.1
		c1,0,1.8,0.2,2.4,0.6s0.8,0.9,0.8,1.6c0,0.4-0.1,0.8-0.3,1.1c-0.2,0.3-0.5,0.6-0.8,0.8C77.9,122.2,78.3,122.5,78.5,122.8z
		 M73.2,119.5v2h1.9c0.5,0,0.8-0.1,1.1-0.3s0.4-0.4,0.4-0.7c0-0.3-0.1-0.6-0.4-0.7s-0.6-0.2-1.1-0.2h-1.9V119.5z M76.6,124.7
		c0.3-0.2,0.4-0.4,0.4-0.8c0-0.7-0.5-1-1.5-1h-2.3v2.1h2.3C76,125,76.3,124.9,76.6,124.7z"/>
	<path class="st2" d="M88.1,126.4v-5l-2.5,4.2h-0.9l-2.5-4v4.9h-1.8V118H82l3.1,5.2l3.1-5.2h1.6v8.4H88.1z"/>
	<path class="st2" d="M91.9,118h1.9v8.4h-1.9V118z"/>
	<path class="st2" d="M96.7,126.3c-0.6-0.2-1.1-0.4-1.5-0.7l0.7-1.5c0.4,0.3,0.8,0.5,1.3,0.6s1,0.2,1.5,0.2c0.6,0,1-0.1,1.2-0.2
		c0.3-0.2,0.4-0.4,0.4-0.7c0-0.2-0.1-0.4-0.2-0.5c-0.2-0.1-0.4-0.2-0.6-0.3s-0.6-0.2-1-0.3c-0.6-0.2-1.2-0.3-1.6-0.5s-0.8-0.4-1-0.7
		c-0.3-0.3-0.4-0.8-0.4-1.3s0.1-0.9,0.4-1.3s0.7-0.7,1.2-0.9s1.2-0.3,2-0.3c0.5,0,1.1,0.1,1.6,0.2s1,0.3,1.3,0.6l-0.6,1.5
		c-0.8-0.4-1.6-0.7-2.3-0.7c-0.5,0-0.9,0.1-1.2,0.3c-0.3,0.2-0.4,0.4-0.4,0.7s0.2,0.5,0.5,0.6s0.8,0.3,1.4,0.4
		c0.6,0.2,1.2,0.3,1.6,0.5s0.8,0.4,1,0.7s0.4,0.8,0.4,1.3s-0.1,0.9-0.4,1.3s-0.7,0.7-1.2,0.9c-0.5,0.2-1.2,0.3-2,0.3
		C97.9,126.6,97.3,126.5,96.7,126.3z"/>
	<path class="st2" d="M104.3,126.3c-0.6-0.2-1.1-0.4-1.5-0.7l0.7-1.5c0.4,0.3,0.8,0.5,1.3,0.6s1,0.2,1.5,0.2c0.6,0,1-0.1,1.2-0.2
		c0.3-0.2,0.4-0.4,0.4-0.7c0-0.2-0.1-0.4-0.2-0.5c-0.2-0.1-0.4-0.2-0.6-0.3s-0.6-0.2-1-0.3c-0.6-0.2-1.2-0.3-1.6-0.5s-0.8-0.4-1-0.7
		c-0.3-0.3-0.4-0.8-0.4-1.3s0.1-0.9,0.4-1.3s0.7-0.7,1.2-0.9s1.2-0.3,2-0.3c0.5,0,1.1,0.1,1.6,0.2s1,0.3,1.3,0.6l-0.6,1.5
		c-0.8-0.4-1.6-0.7-2.3-0.7c-0.5,0-0.9,0.1-1.2,0.3c-0.3,0.2-0.4,0.4-0.4,0.7s0.2,0.5,0.5,0.6s0.8,0.3,1.4,0.4
		c0.6,0.2,1.2,0.3,1.6,0.5s0.8,0.4,1,0.7s0.4,0.8,0.4,1.3s-0.1,0.9-0.4,1.3s-0.7,0.7-1.2,0.9c-0.5,0.2-1.2,0.3-2,0.3
		C105.6,126.6,104.9,126.5,104.3,126.3z"/>
	<path class="st2" d="M111.1,118h1.9v8.4h-1.9V118z"/>
	<path class="st2" d="M116.8,126c-0.7-0.4-1.2-0.9-1.6-1.6s-0.6-1.4-0.6-2.2s0.2-1.6,0.6-2.2c0.4-0.7,0.9-1.2,1.6-1.6
		s1.5-0.6,2.4-0.6s1.7,0.2,2.4,0.6s1.2,0.9,1.6,1.6s0.6,1.4,0.6,2.2s-0.2,1.6-0.6,2.2c-0.4,0.7-0.9,1.2-1.6,1.6s-1.5,0.6-2.4,0.6
		S117.5,126.4,116.8,126z M120.5,124.6c0.4-0.2,0.7-0.5,0.9-1c0.2-0.4,0.3-0.9,0.3-1.4s-0.1-1-0.3-1.4c-0.2-0.4-0.5-0.7-0.9-1
		c-0.4-0.2-0.8-0.3-1.3-0.3s-0.9,0.1-1.3,0.3c-0.4,0.2-0.7,0.5-0.9,1c-0.2,0.4-0.3,0.9-0.3,1.4s0.1,1,0.3,1.4c0.2,0.4,0.5,0.7,0.9,1
		c0.4,0.2,0.8,0.3,1.3,0.3C119.6,124.9,120.1,124.8,120.5,124.6z"/>
	<path class="st2" d="M132.9,118v8.4h-1.6l-4.2-5.1v5.1h-1.9V118h1.6l4.2,5.1V118H132.9z"/>
	<path class="st2" d="M125.6,103.6h1.9v8.4h-1.9V103.6z"/>
</g>
<g>
	<path class="st2" d="M18.5,276.8h-2.7v-1.6h7.3v1.6h-2.7v6.8h-1.9V276.8z"/>
	<path class="st2" d="M31.9,275.2v8.4H30v-3.4h-3.8v3.4h-1.9v-8.4h1.9v3.3H30v-3.3H31.9z"/>
	<path class="st2" d="M40.4,282.1v1.6h-6.5v-8.4h6.3v1.6h-4.4v1.8h3.9v1.5h-3.9v1.9H40.4z"/>
	<path class="st2" d="M53,283.6v-5l-2.5,4.2h-0.9l-2.5-4v4.9h-1.8v-8.4h1.6l3.1,5.2l3.1-5.2h1.6v8.4H53V283.6z"/>
	<path class="st2" d="M63.3,282.1v1.6h-6.5v-8.4h6.3v1.6h-4.4v1.8h3.9v1.5h-3.9v1.9H63.3z"/>
	<path class="st2" d="M71.3,282.1v1.6h-6.5v-8.4h6.3v1.6h-4.4v1.8h3.9v1.5h-3.9v1.9H71.3z"/>
	<path class="st2" d="M74.6,276.8h-2.7v-1.6h7.3v1.6h-2.7v6.8h-1.9C74.6,283.6,74.6,276.8,74.6,276.8z"/>
	<path class="st2" d="M80.3,275.2h1.9v8.4h-1.9V275.2z"/>
	<path class="st2" d="M91.9,275.2v8.4h-1.6l-4.2-5.1v5.1h-1.9v-8.4h1.6l4.2,5.1v-5.1H91.9z"/>
	<path class="st2" d="M99.6,279.3h1.8v3.4c-0.5,0.3-1,0.6-1.6,0.8c-0.6,0.2-1.2,0.3-1.8,0.3c-0.9,0-1.7-0.2-2.4-0.6
		c-0.7-0.4-1.2-0.9-1.6-1.5c-0.4-0.7-0.6-1.4-0.6-2.2c0-0.8,0.2-1.6,0.6-2.2c0.4-0.7,0.9-1.2,1.7-1.5s1.5-0.6,2.4-0.6
		c0.7,0,1.4,0.1,2,0.4c0.6,0.2,1.1,0.6,1.5,1.1l-1.2,1.2c-0.6-0.6-1.3-0.9-2.2-0.9c-0.5,0-1,0.1-1.4,0.3c-0.4,0.2-0.7,0.5-1,0.9
		c-0.2,0.4-0.3,0.9-0.3,1.4s0.1,1,0.3,1.4c0.2,0.4,0.6,0.7,1,1s0.9,0.3,1.4,0.3c0.6,0,1.1-0.1,1.5-0.4v-2.6L99.6,279.3L99.6,279.3z"
		/>
	<path class="st2" d="M119.3,275.2l-2.7,8.4h-2.1l-1.8-5.7l-1.9,5.7h-2.1l-2.8-8.4h2l1.9,5.9l2-5.9h1.8l1.9,6l2-6H119.3z"/>
	<path class="st2" d="M120.3,275.2h1.9v8.4h-1.9V275.2z"/>
	<path class="st2" d="M124.3,275.2h1.9v6.8h4.2v1.6h-6.2L124.3,275.2L124.3,275.2z"/>
	<path class="st2" d="M131.5,275.2h1.9v6.8h4.2v1.6h-6.2v-8.4H131.5z"/>
	<path class="st2" d="M30.4,291.2v2.2h3.9v1.6h-3.9v3.1h-1.9v-8.4h6.3v1.6h-4.4V291.2z"/>
	<path class="st2" d="M37.8,297.6c-0.7-0.4-1.2-0.9-1.6-1.6s-0.6-1.4-0.6-2.2s0.2-1.6,0.6-2.2c0.4-0.7,0.9-1.2,1.6-1.6
		c0.7-0.4,1.5-0.6,2.4-0.6s1.7,0.2,2.4,0.6s1.2,0.9,1.6,1.6c0.4,0.7,0.6,1.4,0.6,2.2s-0.2,1.6-0.6,2.2c-0.4,0.7-0.9,1.2-1.6,1.6
		s-1.5,0.6-2.4,0.6S38.5,298,37.8,297.6z M41.5,296.2c0.4-0.2,0.7-0.5,0.9-1s0.3-0.9,0.3-1.4s-0.1-1-0.3-1.4s-0.5-0.7-0.9-1
		c-0.4-0.2-0.8-0.3-1.3-0.3s-0.9,0.1-1.3,0.3c-0.4,0.2-0.7,0.5-0.9,1c-0.2,0.4-0.3,0.9-0.3,1.4s0.1,1,0.3,1.4s0.5,0.7,0.9,1
		c0.4,0.2,0.8,0.3,1.3,0.3S41.1,296.4,41.5,296.2z"/>
	<path class="st2" d="M47.9,297.6c-0.7-0.4-1.2-0.9-1.6-1.5s-0.6-1.4-0.6-2.2s0.2-1.6,0.6-2.2s0.9-1.2,1.6-1.5
		c0.7-0.4,1.5-0.6,2.3-0.6c0.7,0,1.4,0.1,2,0.4s1.1,0.6,1.5,1.1l-1.2,1.2c-0.6-0.7-1.3-1-2.1-1c-0.5,0-1,0.1-1.4,0.3
		c-0.4,0.2-0.7,0.5-1,1c-0.2,0.4-0.3,0.9-0.3,1.4s0.1,1,0.3,1.4s0.5,0.7,1,1c0.4,0.2,0.9,0.3,1.4,0.3c0.8,0,1.5-0.3,2.1-1l1.2,1.2
		c-0.4,0.5-0.9,0.9-1.5,1.1c-0.6,0.3-1.3,0.4-2,0.4C49.4,298.2,48.6,298,47.9,297.6z"/>
	<path class="st2" d="M55.8,297.2c-0.7-0.7-1-1.6-1-2.8v-4.7h1.9v4.6c0,1.5,0.6,2.3,1.9,2.3c0.6,0,1.1-0.2,1.4-0.5
		c0.3-0.4,0.5-0.9,0.5-1.7v-4.6h1.9v4.7c0,1.2-0.3,2.2-1,2.8s-1.6,1-2.8,1S56.5,297.9,55.8,297.2z"/>
	<path class="st2" d="M65.2,297.9c-0.6-0.2-1.1-0.4-1.5-0.7l0.7-1.5c0.4,0.3,0.8,0.5,1.3,0.6c0.5,0.2,1,0.2,1.5,0.2
		c0.6,0,1-0.1,1.2-0.2c0.3-0.2,0.4-0.4,0.4-0.7c0-0.2-0.1-0.4-0.2-0.5c-0.2-0.1-0.4-0.2-0.6-0.3s-0.6-0.2-1-0.3
		c-0.6-0.2-1.2-0.3-1.6-0.5s-0.8-0.4-1.1-0.7s-0.4-0.8-0.4-1.3s0.1-0.9,0.4-1.3s0.7-0.7,1.2-0.9c0.5-0.2,1.2-0.3,2-0.3
		c0.5,0,1.1,0.1,1.6,0.2s1,0.3,1.3,0.6l-0.6,1.5c-0.8-0.4-1.6-0.7-2.3-0.7c-0.5,0-0.9,0.1-1.2,0.3s-0.4,0.4-0.4,0.7
		c0,0.3,0.2,0.5,0.5,0.6s0.8,0.3,1.4,0.4c0.6,0.2,1.2,0.3,1.6,0.5s0.8,0.4,1,0.7s0.4,0.8,0.4,1.3s-0.1,0.9-0.4,1.3s-0.7,0.7-1.2,0.9
		s-1.2,0.3-2,0.3C66.5,298.2,65.8,298.1,65.2,297.9z"/>
	<path class="st2" d="M77.1,297.6c-0.7-0.4-1.2-0.9-1.6-1.6s-0.6-1.4-0.6-2.2s0.2-1.6,0.6-2.2c0.4-0.7,0.9-1.2,1.6-1.6
		s1.5-0.6,2.4-0.6s1.7,0.2,2.4,0.6c0.7,0.4,1.2,0.9,1.6,1.6s0.6,1.4,0.6,2.2s-0.2,1.6-0.6,2.2c-0.4,0.7-0.9,1.2-1.6,1.6
		s-1.5,0.6-2.4,0.6S77.8,298,77.1,297.6z M80.8,296.2c0.4-0.2,0.7-0.5,0.9-1c0.2-0.4,0.3-0.9,0.3-1.4s-0.1-1-0.3-1.4
		c-0.2-0.4-0.5-0.7-0.9-1c-0.4-0.2-0.8-0.3-1.3-0.3s-0.9,0.1-1.3,0.3c-0.4,0.2-0.7,0.5-0.9,1c-0.2,0.4-0.3,0.9-0.3,1.4
		s0.1,1,0.3,1.4c0.2,0.4,0.5,0.7,0.9,1c0.4,0.2,0.8,0.3,1.3,0.3S80.4,296.4,80.8,296.2z"/>
	<path class="st2" d="M93.3,289.6v8.4h-1.6l-4.2-5.1v5.1h-1.9v-8.4h1.6l4.2,5.1v-5.1H93.3z"/>
	<path class="st2" d="M100.4,297.6c-0.7-0.4-1.2-0.9-1.6-1.6s-0.6-1.4-0.6-2.2s0.2-1.6,0.6-2.2c0.4-0.7,0.9-1.2,1.6-1.6
		s1.5-0.6,2.4-0.6s1.7,0.2,2.4,0.6c0.7,0.4,1.2,0.9,1.6,1.6s0.6,1.4,0.6,2.2s-0.2,1.6-0.6,2.2c-0.4,0.7-0.9,1.2-1.6,1.6
		s-1.5,0.6-2.4,0.6C101.8,298.2,101.1,298,100.4,297.6z M104.1,296.2c0.4-0.2,0.7-0.5,0.9-1c0.2-0.4,0.3-0.9,0.3-1.4s-0.1-1-0.3-1.4
		c-0.2-0.4-0.5-0.7-0.9-1c-0.4-0.2-0.8-0.3-1.3-0.3s-0.9,0.1-1.3,0.3c-0.4,0.2-0.7,0.5-0.9,1c-0.2,0.4-0.3,0.9-0.3,1.4
		s0.1,1,0.3,1.4c0.2,0.4,0.5,0.7,0.9,1c0.4,0.2,0.8,0.3,1.3,0.3C103.2,296.5,103.7,296.4,104.1,296.2z"/>
	<path class="st2" d="M109.7,297.2c-0.7-0.7-1-1.6-1-2.8v-4.7h1.9v4.6c0,1.5,0.6,2.3,1.9,2.3c0.6,0,1.1-0.2,1.4-0.5
		c0.3-0.4,0.5-0.9,0.5-1.7v-4.6h1.9v4.7c0,1.2-0.3,2.2-1,2.8s-1.6,1-2.8,1C111.3,298.2,110.4,297.9,109.7,297.2z"/>
	<path class="st2" d="M123.6,298l-1.6-2.3h-0.1h-1.7v2.3h-1.9v-8.4h3.6c0.7,0,1.4,0.1,1.9,0.4c0.5,0.2,1,0.6,1.3,1.1s0.4,1,0.4,1.6
		s-0.2,1.2-0.5,1.6c-0.3,0.5-0.7,0.8-1.3,1l1.9,2.7L123.6,298L123.6,298z M123.1,291.6c-0.3-0.3-0.7-0.4-1.3-0.4h-1.6v2.9h1.6
		c0.6,0,1-0.1,1.3-0.4s0.5-0.6,0.5-1.1C123.5,292.2,123.4,291.9,123.1,291.6z"/>
	<path class="st2" d="M43.8,312.3c-0.6-0.2-1.1-0.4-1.5-0.7l0.7-1.5c0.4,0.3,0.8,0.5,1.3,0.6s1,0.2,1.5,0.2c0.6,0,1-0.1,1.2-0.2
		c0.3-0.2,0.4-0.4,0.4-0.7c0-0.2-0.1-0.4-0.2-0.5c-0.2-0.1-0.4-0.2-0.6-0.3c-0.2-0.1-0.6-0.2-1-0.3c-0.6-0.2-1.2-0.3-1.6-0.5
		c-0.4-0.2-0.8-0.4-1.1-0.7s-0.4-0.8-0.4-1.3s0.1-0.9,0.4-1.3c0.3-0.4,0.7-0.7,1.2-0.9c0.5-0.2,1.2-0.3,1.9-0.3
		c0.5,0,1.1,0.1,1.6,0.2s1,0.3,1.3,0.6l-0.6,1.5c-0.8-0.4-1.6-0.7-2.3-0.7c-0.5,0-0.9,0.1-1.2,0.3c-0.3,0.2-0.4,0.4-0.4,0.7
		c0,0.3,0.1,0.5,0.5,0.6c0.3,0.1,0.8,0.3,1.4,0.4c0.6,0.2,1.2,0.3,1.6,0.5c0.4,0.2,0.8,0.4,1,0.7s0.4,0.8,0.4,1.3s-0.1,0.9-0.4,1.3
		c-0.3,0.4-0.7,0.7-1.2,0.9c-0.5,0.2-1.2,0.3-2,0.3C45,312.6,44.4,312.5,43.8,312.3z"/>
	<path class="st2" d="M52.3,312c-0.7-0.4-1.2-0.9-1.6-1.6c-0.4-0.7-0.6-1.4-0.6-2.2s0.2-1.6,0.6-2.2c0.4-0.7,0.9-1.2,1.6-1.6
		c0.7-0.4,1.5-0.6,2.4-0.6s1.7,0.2,2.4,0.6s1.2,0.9,1.6,1.6c0.4,0.7,0.6,1.4,0.6,2.2s-0.2,1.6-0.6,2.2c-0.4,0.7-0.9,1.2-1.6,1.6
		s-1.5,0.6-2.4,0.6S53,312.4,52.3,312z M56,310.6c0.4-0.2,0.7-0.5,0.9-1c0.2-0.4,0.3-0.9,0.3-1.4s-0.1-1-0.3-1.4s-0.5-0.7-0.9-1
		c-0.4-0.2-0.8-0.3-1.3-0.3s-0.9,0.1-1.3,0.3c-0.4,0.2-0.7,0.5-0.9,1c-0.2,0.4-0.3,0.9-0.3,1.4s0.1,1,0.3,1.4s0.5,0.7,0.9,1
		c0.4,0.2,0.8,0.3,1.3,0.3S55.6,310.8,56,310.6z"/>
	<path class="st2" d="M60.7,304h1.9v6.8h4.2v1.6h-6.2L60.7,304L60.7,304z"/>
	<path class="st2" d="M68.8,311.6c-0.7-0.7-1-1.6-1-2.8V304h1.9v4.6c0,1.5,0.6,2.3,1.9,2.3c0.6,0,1.1-0.2,1.4-0.5
		c0.3-0.4,0.5-0.9,0.5-1.7V304h1.9v4.7c0,1.2-0.3,2.2-1,2.8s-1.6,1-2.8,1C70.4,312.6,69.4,312.3,68.8,311.6z"/>
	<path class="st2" d="M78.9,305.6h-2.7V304h7.3v1.6h-2.7v6.8h-1.9C78.9,312.4,78.9,305.6,78.9,305.6z"/>
	<path class="st2" d="M84.6,304h1.9v8.4h-1.9V304z"/>
	<path class="st2" d="M90.2,312c-0.7-0.4-1.2-0.9-1.6-1.6S88,309,88,308.2s0.2-1.6,0.6-2.2c0.4-0.7,0.9-1.2,1.6-1.6s1.5-0.6,2.4-0.6
		s1.7,0.2,2.4,0.6c0.7,0.4,1.2,0.9,1.6,1.6s0.6,1.4,0.6,2.2s-0.2,1.6-0.6,2.2c-0.4,0.7-0.9,1.2-1.6,1.6s-1.5,0.6-2.4,0.6
		S90.9,312.4,90.2,312z M93.9,310.6c0.4-0.2,0.7-0.5,0.9-1c0.2-0.4,0.3-0.9,0.3-1.4s-0.1-1-0.3-1.4c-0.2-0.4-0.5-0.7-0.9-1
		c-0.4-0.2-0.8-0.3-1.3-0.3s-0.9,0.1-1.3,0.3c-0.4,0.2-0.7,0.5-0.9,1c-0.2,0.4-0.3,0.9-0.3,1.4s0.1,1,0.3,1.4c0.2,0.4,0.5,0.7,0.9,1
		c0.4,0.2,0.8,0.3,1.3,0.3S93.5,310.8,93.9,310.6z"/>
	<path class="st2" d="M106.3,304v8.4h-1.6l-4.2-5.1v5.1h-1.9V304h1.6l4.2,5.1V304H106.3z"/>
	<path class="st2" d="M109.2,312.3c-0.6-0.2-1.1-0.4-1.5-0.7l0.7-1.5c0.4,0.3,0.8,0.5,1.3,0.6s1,0.2,1.5,0.2c0.6,0,1-0.1,1.2-0.2
		c0.3-0.2,0.4-0.4,0.4-0.7c0-0.2-0.1-0.4-0.2-0.5c-0.2-0.1-0.4-0.2-0.6-0.3s-0.6-0.2-1-0.3c-0.6-0.2-1.2-0.3-1.6-0.5s-0.8-0.4-1-0.7
		c-0.3-0.3-0.4-0.8-0.4-1.3s0.1-0.9,0.4-1.3s0.7-0.7,1.2-0.9c0.5-0.2,1.2-0.3,2-0.3c0.5,0,1.1,0.1,1.6,0.2s1,0.3,1.3,0.6l-0.6,1.5
		c-0.8-0.4-1.6-0.7-2.3-0.7c-0.5,0-0.9,0.1-1.2,0.3s-0.4,0.4-0.4,0.7c0,0.3,0.2,0.5,0.5,0.6s0.8,0.3,1.4,0.4
		c0.6,0.2,1.2,0.3,1.6,0.5s0.8,0.4,1,0.7s0.4,0.8,0.4,1.3s-0.1,0.9-0.4,1.3s-0.7,0.7-1.2,0.9c-0.5,0.2-1.2,0.3-2,0.3
		C110.4,312.6,109.8,312.5,109.2,312.3z"/>
</g>
<g>
	<path d="M278.6,90.4v7H277v-2.9h-3.2v2.9h-1.6v-7h1.6v2.8h3.2v-2.8H278.6z"/>
	<path d="M281.7,97c-0.6-0.3-1-0.7-1.4-1.3c-0.3-0.5-0.5-1.2-0.5-1.9s0.2-1.3,0.5-1.9c0.3-0.5,0.8-1,1.4-1.3s1.2-0.5,2-0.5
		c0.7,0,1.4,0.2,2,0.5s1,0.7,1.4,1.3c0.3,0.5,0.5,1.2,0.5,1.9s-0.2,1.3-0.5,1.9c-0.3,0.5-0.8,1-1.4,1.3s-1.2,0.5-2,0.5
		C282.9,97.5,282.3,97.3,281.7,97z M284.8,95.8c0.3-0.2,0.6-0.5,0.8-0.8c0.2-0.3,0.3-0.7,0.3-1.2c0-0.4-0.1-0.8-0.3-1.2
		c-0.2-0.3-0.5-0.6-0.8-0.8s-0.7-0.3-1.1-0.3s-0.8,0.1-1.1,0.3c-0.3,0.2-0.6,0.5-0.8,0.8c-0.2,0.3-0.3,0.7-0.3,1.2
		c0,0.4,0.1,0.8,0.3,1.2c0.2,0.3,0.5,0.6,0.8,0.8c0.3,0.2,0.7,0.3,1.1,0.3C284.1,96.1,284.5,96,284.8,95.8z"/>
	<path d="M299.1,90.4l-2.3,7H295l-1.5-4.7l-1.6,4.7h-1.7l-2.3-7h1.7l1.6,4.9l1.6-4.9h1.5l1.6,5l1.6-5H299.1z"/>
	<path d="M313.5,90.4l-2.3,7h-1.7l-1.5-4.7l-1.6,4.7h-1.7l-2.3-7h1.7l1.6,4.9l1.6-4.9h1.5l1.6,5l1.6-5H313.5z"/>
	<path d="M319.9,96.1v1.3h-5.4v-7h5.3v1.3H316v1.5h3.2v1.3H316v1.6C316,96.1,319.9,96.1,319.9,96.1z"/>
	<path d="M325.4,97c-0.6-0.3-1-0.7-1.4-1.3c-0.3-0.6-0.5-1.2-0.5-1.9s0.2-1.3,0.5-1.9c0.3-0.5,0.8-1,1.4-1.3s1.2-0.5,1.9-0.5
		c0.6,0,1.2,0.1,1.6,0.3s0.9,0.5,1.2,0.9l-1,1c-0.5-0.5-1.1-0.8-1.8-0.8c-0.4,0-0.8,0.1-1.2,0.3c-0.3,0.2-0.6,0.5-0.8,0.8
		c-0.2,0.3-0.3,0.7-0.3,1.2c0,0.4,0.1,0.8,0.3,1.2c0.2,0.3,0.5,0.6,0.8,0.8c0.3,0.2,0.7,0.3,1.2,0.3c0.7,0,1.3-0.3,1.8-0.8l1,1
		c-0.3,0.4-0.7,0.7-1.2,0.9c-0.5,0.2-1,0.3-1.7,0.3C326.6,97.5,326,97.3,325.4,97z"/>
	<path d="M335.8,95.9h-3.2l-0.6,1.5h-1.7l3.1-7h1.6l3.1,7h-1.7L335.8,95.9z M335.3,94.7l-1.1-2.7l-1.1,2.7H335.3z"/>
	<path d="M345.2,90.4v7h-1.3l-3.5-4.2v4.2h-1.6v-7h1.3l3.5,4.2v-4.2H345.2z"/>
	<path d="M351.4,91.7v1.9h3.2v1.3h-3.2v2.5h-1.6v-7h5.3v1.3C355.1,91.7,351.4,91.7,351.4,91.7z"/>
	<path d="M357.5,97c-0.6-0.3-1-0.7-1.4-1.3s-0.5-1.2-0.5-1.9s0.2-1.3,0.5-1.9s0.8-1,1.4-1.3s1.2-0.5,2-0.5s1.4,0.2,2,0.5
		s1,0.7,1.4,1.3s0.5,1.2,0.5,1.9s-0.2,1.3-0.5,1.9s-0.8,1-1.4,1.3s-1.2,0.5-2,0.5S358.1,97.3,357.5,97z M360.6,95.8
		c0.3-0.2,0.6-0.5,0.8-0.8c0.2-0.3,0.3-0.7,0.3-1.2c0-0.4-0.1-0.8-0.3-1.2c-0.2-0.3-0.5-0.6-0.8-0.8s-0.7-0.3-1.1-0.3
		s-0.8,0.1-1.1,0.3c-0.3,0.2-0.6,0.5-0.8,0.8c-0.2,0.3-0.3,0.7-0.3,1.2c0,0.4,0.1,0.8,0.3,1.2c0.2,0.3,0.5,0.6,0.8,0.8
		c0.3,0.2,0.7,0.3,1.1,0.3S360.2,96,360.6,95.8z"/>
	<path d="M369,97.4l-1.3-2h-0.1h-1.4v2h-1.6v-7h3c0.6,0,1.2,0.1,1.6,0.3c0.5,0.2,0.8,0.5,1.1,0.9c0.2,0.4,0.4,0.8,0.4,1.4
		s-0.1,1-0.4,1.3c-0.2,0.4-0.6,0.7-1.1,0.9l1.6,2.2C370.8,97.4,369,97.4,369,97.4z M368.5,92c-0.3-0.2-0.6-0.3-1.1-0.3h-1.3v2.4h1.3
		c0.5,0,0.9-0.1,1.1-0.3s0.4-0.5,0.4-0.9C368.9,92.5,368.8,92.2,368.5,92z"/>
	<path d="M376.6,93.8h1.5v2.8c-0.4,0.3-0.8,0.5-1.3,0.7s-1,0.2-1.5,0.2c-0.7,0-1.4-0.2-2-0.5s-1-0.7-1.4-1.3
		c-0.3-0.6-0.5-1.2-0.5-1.9s0.2-1.3,0.5-1.9c0.3-0.5,0.8-1,1.4-1.3s1.2-0.5,2-0.5c0.6,0,1.2,0.1,1.7,0.3s0.9,0.5,1.3,0.9l-1,1
		c-0.5-0.5-1.1-0.8-1.8-0.8c-0.4,0-0.8,0.1-1.2,0.3s-0.6,0.5-0.8,0.8s-0.3,0.7-0.3,1.2c0,0.4,0.1,0.8,0.3,1.2
		c0.2,0.3,0.5,0.6,0.8,0.8s0.7,0.3,1.2,0.3s0.9-0.1,1.3-0.3v-2C376.8,93.8,376.6,93.8,376.6,93.8z"/>
	<path d="M385,96.1v1.3h-5.4v-7h5.3v1.3h-3.7v1.5h3.2v1.3h-3.2v1.6C381.2,96.1,385,96.1,385,96.1z"/>
	<path d="M395.5,97.4v-4.2l-2.1,3.5h-0.7l-2.1-3.4v4.1h-1.5v-7h1.3l2.6,4.4l2.6-4.4h1.3v7H395.5z"/>
	<path d="M404.1,96.1v1.3h-5.4v-7h5.3v1.3h-3.7v1.5h3.2v1.3h-3.2v1.6C400.3,96.1,404.1,96.1,404.1,96.1z"/>
	<path d="M410,95.9h-3.2l-0.6,1.5h-1.7l3.1-7h1.6l3.1,7h-1.7L410,95.9z M409.5,94.7l-1.1-2.7l-1.1,2.7H409.5z"/>
	<path d="M419.4,90.4v7h-1.3l-3.5-4.2v4.2H413v-7h1.3l3.5,4.2v-4.2H419.4z"/>
	<path d="M421.1,90.4h1.6v7h-1.6V90.4z"/>
	<path d="M430.8,90.4v7h-1.3l-3.5-4.2v4.2h-1.6v-7h1.3l3.5,4.2v-4.2H430.8z"/>
	<path d="M437.2,93.8h1.5v2.8c-0.4,0.3-0.8,0.5-1.3,0.7s-1,0.2-1.5,0.2c-0.7,0-1.4-0.2-2-0.5s-1-0.7-1.4-1.3
		c-0.3-0.6-0.5-1.2-0.5-1.9s0.2-1.3,0.5-1.9c0.3-0.5,0.8-1,1.4-1.3s1.2-0.5,2-0.5c0.6,0,1.2,0.1,1.7,0.3s0.9,0.5,1.3,0.9l-1,1
		c-0.5-0.5-1.1-0.8-1.8-0.8c-0.4,0-0.8,0.1-1.2,0.3s-0.6,0.5-0.8,0.8s-0.3,0.7-0.3,1.2c0,0.4,0.1,0.8,0.3,1.2
		c0.2,0.3,0.5,0.6,0.8,0.8s0.7,0.3,1.2,0.3s0.9-0.1,1.3-0.3v-2C437.4,93.8,437.2,93.8,437.2,93.8z"/>
	<path d="M441.8,91.7v1.9h3.2v1.3h-3.2v2.5h-1.6v-7h5.3v1.3C445.5,91.7,441.8,91.7,441.8,91.7z"/>
	<path d="M447.3,96.7c-0.6-0.6-0.8-1.3-0.8-2.4v-3.9h1.6v3.9c0,1.3,0.5,1.9,1.6,1.9c0.5,0,0.9-0.2,1.2-0.5s0.4-0.8,0.4-1.4v-3.9h1.6
		v3.9c0,1-0.3,1.8-0.8,2.4s-1.3,0.8-2.3,0.8S447.9,97.2,447.3,96.7z"/>
	<path d="M454.4,90.4h1.6v5.7h3.5v1.3h-5.1V90.4z"/>
	<path d="M464.7,97c-0.6-0.3-1-0.7-1.4-1.3c-0.3-0.6-0.5-1.2-0.5-1.9s0.2-1.3,0.5-1.9c0.3-0.5,0.8-1,1.4-1.3s1.2-0.5,1.9-0.5
		c0.6,0,1.2,0.1,1.6,0.3s0.9,0.5,1.2,0.9l-1,1c-0.5-0.5-1.1-0.8-1.8-0.8c-0.4,0-0.8,0.1-1.2,0.3c-0.3,0.2-0.6,0.5-0.8,0.8
		c-0.2,0.3-0.3,0.7-0.3,1.2c0,0.4,0.1,0.8,0.3,1.2c0.2,0.3,0.5,0.6,0.8,0.8c0.3,0.2,0.7,0.3,1.2,0.3c0.7,0,1.3-0.3,1.8-0.8l1,1
		c-0.3,0.4-0.7,0.7-1.2,0.9c-0.5,0.2-1,0.3-1.7,0.3C465.9,97.5,465.3,97.3,464.7,97z"/>
	<path d="M471.9,97c-0.6-0.3-1-0.7-1.4-1.3s-0.5-1.2-0.5-1.9s0.2-1.3,0.5-1.9s0.8-1,1.4-1.3s1.2-0.5,2-0.5s1.4,0.2,2,0.5
		s1,0.7,1.4,1.3s0.5,1.2,0.5,1.9s-0.2,1.3-0.5,1.9s-0.8,1-1.4,1.3s-1.2,0.5-2,0.5S472.5,97.3,471.9,97z M475,95.8
		c0.3-0.2,0.6-0.5,0.8-0.8c0.2-0.3,0.3-0.7,0.3-1.2c0-0.4-0.1-0.8-0.3-1.2c-0.2-0.3-0.5-0.6-0.8-0.8s-0.7-0.3-1.1-0.3
		s-0.8,0.1-1.1,0.3c-0.3,0.2-0.6,0.5-0.8,0.8c-0.2,0.3-0.3,0.7-0.3,1.2c0,0.4,0.1,0.8,0.3,1.2c0.2,0.3,0.5,0.6,0.8,0.8
		c0.3,0.2,0.7,0.3,1.1,0.3S474.7,96,475,95.8z"/>
	<path d="M485.3,90.4v7H484l-3.5-4.2v4.2h-1.6v-7h1.3l3.5,4.2v-4.2H485.3z"/>
	<path d="M493.4,90.4v7h-1.3l-3.5-4.2v4.2H487v-7h1.3l3.5,4.2v-4.2H493.4z"/>
	<path d="M500.5,96.1v1.3h-5.4v-7h5.3v1.3h-3.7v1.5h3.2v1.3h-3.2v1.6C496.7,96.1,500.5,96.1,500.5,96.1z"/>
	<path d="M503.2,97c-0.6-0.3-1-0.7-1.4-1.3c-0.3-0.6-0.5-1.2-0.5-1.9s0.2-1.3,0.5-1.9c0.3-0.5,0.8-1,1.4-1.3s1.2-0.5,1.9-0.5
		c0.6,0,1.2,0.1,1.6,0.3s0.9,0.5,1.2,0.9l-1,1c-0.5-0.5-1.1-0.8-1.8-0.8c-0.4,0-0.8,0.1-1.2,0.3c-0.3,0.2-0.6,0.5-0.8,0.8
		c-0.2,0.3-0.3,0.7-0.3,1.2c0,0.4,0.1,0.8,0.3,1.2c0.2,0.3,0.5,0.6,0.8,0.8c0.3,0.2,0.7,0.3,1.2,0.3c0.7,0,1.3-0.3,1.8-0.8l1,1
		c-0.3,0.4-0.7,0.7-1.2,0.9c-0.5,0.2-1,0.3-1.7,0.3C504.4,97.5,503.8,97.3,503.2,97z"/>
	<path d="M510.5,91.7h-2.2v-1.3h6.1v1.3h-2.2v5.7h-1.6L510.5,91.7L510.5,91.7z"/>
	<path d="M515.2,90.4h1.6v7h-1.6V90.4z"/>
	<path d="M519.9,97c-0.6-0.3-1-0.7-1.4-1.3s-0.5-1.2-0.5-1.9s0.2-1.3,0.5-1.9s0.8-1,1.4-1.3s1.2-0.5,2-0.5s1.4,0.2,2,0.5
		s1,0.7,1.4,1.3s0.5,1.2,0.5,1.9s-0.2,1.3-0.5,1.9s-0.8,1-1.4,1.3c-0.6,0.3-1.2,0.5-2,0.5S520.5,97.3,519.9,97z M523,95.8
		c0.3-0.2,0.6-0.5,0.8-0.8s0.3-0.7,0.3-1.2c0-0.4-0.1-0.8-0.3-1.2c-0.2-0.3-0.5-0.6-0.8-0.8s-0.7-0.3-1.1-0.3s-0.8,0.1-1.1,0.3
		c-0.3,0.2-0.6,0.5-0.8,0.8s-0.3,0.7-0.3,1.2c0,0.4,0.1,0.8,0.3,1.2c0.2,0.3,0.5,0.6,0.8,0.8c0.3,0.2,0.7,0.3,1.1,0.3
		S522.7,96,523,95.8z"/>
	<path d="M533.3,90.4v7H532l-3.5-4.2v4.2h-1.6v-7h1.3l3.5,4.2v-4.2H533.3z"/>
	<path d="M535.7,97.3c-0.5-0.1-0.9-0.3-1.2-0.6l0.5-1.2c0.3,0.2,0.7,0.4,1.1,0.5c0.4,0.1,0.8,0.2,1.2,0.2c0.5,0,0.8-0.1,1-0.2
		s0.3-0.3,0.3-0.5s-0.1-0.3-0.2-0.4c-0.1-0.1-0.3-0.2-0.5-0.3c-0.2-0.1-0.5-0.1-0.8-0.2c-0.5-0.1-1-0.3-1.3-0.4s-0.6-0.3-0.9-0.6
		c-0.2-0.3-0.4-0.7-0.4-1.1s0.1-0.8,0.3-1.1s0.6-0.6,1-0.8s1-0.3,1.6-0.3c0.4,0,0.9,0.1,1.3,0.2s0.8,0.3,1.1,0.5l-0.5,1.2
		c-0.6-0.4-1.3-0.5-1.9-0.5c-0.5,0-0.8,0.1-1,0.2s-0.3,0.3-0.3,0.6c0,0.2,0.1,0.4,0.4,0.5s0.6,0.2,1.1,0.3c0.5,0.1,1,0.3,1.3,0.4
		s0.6,0.3,0.9,0.6c0.2,0.3,0.4,0.6,0.4,1.1c0,0.4-0.1,0.8-0.3,1.1c-0.2,0.3-0.6,0.6-1,0.8c-0.4,0.2-1,0.3-1.6,0.3
		C536.8,97.5,536.2,97.4,535.7,97.3z"/>
	<path d="M545.8,91.7v1.9h3.2v1.3h-3.2v2.5h-1.6v-7h5.3v1.3C549.5,91.7,545.8,91.7,545.8,91.7z"/>
	<path d="M552,97c-0.6-0.3-1-0.7-1.4-1.3s-0.5-1.2-0.5-1.9s0.2-1.3,0.5-1.9s0.8-1,1.4-1.3s1.2-0.5,2-0.5s1.4,0.2,2,0.5
		s1,0.7,1.4,1.3s0.5,1.2,0.5,1.9s-0.2,1.3-0.5,1.9s-0.8,1-1.4,1.3c-0.6,0.3-1.2,0.5-2,0.5S552.5,97.3,552,97z M555,95.8
		c0.3-0.2,0.6-0.5,0.8-0.8s0.3-0.7,0.3-1.2c0-0.4-0.1-0.8-0.3-1.2c-0.2-0.3-0.5-0.6-0.8-0.8s-0.7-0.3-1.1-0.3s-0.8,0.1-1.1,0.3
		c-0.3,0.2-0.6,0.5-0.8,0.8s-0.3,0.7-0.3,1.2c0,0.4,0.1,0.8,0.3,1.2c0.2,0.3,0.5,0.6,0.8,0.8c0.3,0.2,0.7,0.3,1.1,0.3
		S554.7,96,555,95.8z"/>
	<path d="M563.4,97.4l-1.3-2H562h-1.4v2H559v-7h3c0.6,0,1.2,0.1,1.6,0.3c0.5,0.2,0.8,0.5,1.1,0.9c0.2,0.4,0.4,0.8,0.4,1.4
		s-0.1,1-0.4,1.3c-0.2,0.4-0.6,0.7-1.1,0.9l1.6,2.2C565.2,97.4,563.4,97.4,563.4,97.4z M563,92c-0.3-0.2-0.6-0.3-1.1-0.3h-1.3v2.4
		h1.3c0.5,0,0.9-0.1,1.1-0.3s0.4-0.5,0.4-0.9C563.4,92.5,563.3,92.2,563,92z"/>
	<path d="M276.6,109.4l-1.7-2.4l-1.7,2.4h-1.9l2.6-3.6l-2.5-3.4h1.8l1.6,2.3l1.6-2.3h1.8l-2.4,3.4l2.6,3.6H276.6z"/>
	<path d="M282.4,106.9v2.5h-1.6v-2.5l-2.7-4.5h1.7l1.9,3.1l1.9-3.1h1.6L282.4,106.9z"/>
	<path d="M291.5,108.1v1.3h-6.1v-1l3.8-4.6h-3.8v-1.3h5.9v1l-3.8,4.6H291.5z"/>
	<path d="M297.1,107.9h-3.2l-0.6,1.5h-1.7l3.1-7h1.6l3.1,7h-1.7L297.1,107.9z M296.6,106.7l-1.1-2.7l-1.1,2.7H296.6z"/>
	<path d="M300.2,102.4h1.6v5.7h3.5v1.3h-5.1V102.4z"/>
	<path d="M313.7,107.9h-3.2l-0.6,1.5h-1.7l3.1-7h1.6l3.1,7h-1.7L313.7,107.9z M313.1,106.7L312,104l-1.1,2.7H313.1z"/>
	<path d="M323.1,102.4v7h-1.3l-3.5-4.2v4.2h-1.6v-7h1.3l3.5,4.2v-4.2H323.1z"/>
	<path d="M324.8,102.4h3.2c0.8,0,1.4,0.1,2,0.4s1,0.7,1.4,1.2c0.3,0.5,0.5,1.1,0.5,1.8s-0.2,1.3-0.5,1.8s-0.8,0.9-1.4,1.2
		c-0.6,0.3-1.3,0.4-2,0.4h-3.2V102.4z M327.9,108.1c0.7,0,1.3-0.2,1.7-0.6c0.4-0.4,0.6-0.9,0.6-1.6s-0.2-1.2-0.6-1.6s-1-0.6-1.7-0.6
		h-1.5v4.3L327.9,108.1L327.9,108.1z"/>
	<path d="M342.3,102.4v7H341l-3.5-4.2v4.2h-1.6v-7h1.3l3.5,4.2v-4.2H342.3z"/>
	<path d="M348.6,107.9h-3.2l-0.6,1.5H343l3.1-7h1.6l3.1,7h-1.7L348.6,107.9z M348.1,106.7L347,104l-1.1,2.7H348.1z"/>
	<path d="M352.3,109.3c-0.5-0.1-0.9-0.3-1.2-0.6l0.5-1.2c0.3,0.2,0.7,0.4,1.1,0.5s0.8,0.2,1.2,0.2c0.5,0,0.8-0.1,1-0.2
		s0.3-0.3,0.3-0.5s-0.1-0.3-0.2-0.4s-0.3-0.2-0.5-0.3c-0.2-0.1-0.5-0.1-0.8-0.2c-0.5-0.1-1-0.3-1.3-0.4s-0.6-0.3-0.9-0.6
		c-0.2-0.3-0.4-0.7-0.4-1.1s0.1-0.8,0.3-1.1s0.6-0.6,1-0.8s1-0.3,1.6-0.3c0.4,0,0.9,0.1,1.3,0.2s0.8,0.3,1.1,0.5l-0.5,1.2
		c-0.6-0.4-1.3-0.5-1.9-0.5c-0.5,0-0.8,0.1-1,0.2s-0.3,0.3-0.3,0.6c0,0.2,0.1,0.4,0.4,0.5s0.6,0.2,1.1,0.3c0.5,0.1,1,0.3,1.3,0.4
		s0.6,0.3,0.9,0.6c0.2,0.3,0.4,0.6,0.4,1.1c0,0.4-0.1,0.8-0.3,1.1c-0.2,0.3-0.6,0.6-1,0.8c-0.4,0.2-1,0.3-1.6,0.3
		C353.4,109.5,352.8,109.4,352.3,109.3z"/>
	<path d="M362.6,107.9h-3.2l-0.6,1.5h-1.7l3.1-7h1.6l3.1,7h-1.7L362.6,107.9z M362.1,106.7L361,104l-1.1,2.7H362.1z"/>
	<path d="M367,109c-0.6-0.3-1-0.7-1.4-1.3c-0.3-0.6-0.5-1.2-0.5-1.9s0.2-1.3,0.5-1.9c0.3-0.5,0.8-1,1.4-1.3s1.2-0.5,1.9-0.5
		c0.6,0,1.2,0.1,1.6,0.3s0.9,0.5,1.2,0.9l-1,1c-0.5-0.5-1.1-0.8-1.8-0.8c-0.4,0-0.8,0.1-1.2,0.3c-0.3,0.2-0.6,0.5-0.8,0.8
		c-0.2,0.3-0.3,0.7-0.3,1.2c0,0.4,0.1,0.8,0.3,1.2c0.2,0.3,0.5,0.6,0.8,0.8c0.3,0.2,0.7,0.3,1.2,0.3c0.7,0,1.3-0.3,1.8-0.8l1,1
		c-0.3,0.4-0.7,0.7-1.2,0.9c-0.5,0.2-1,0.3-1.7,0.3C368.2,109.5,367.5,109.3,367,109z"/>
	<path d="M374.2,109c-0.6-0.3-1-0.7-1.4-1.3s-0.5-1.2-0.5-1.9s0.2-1.3,0.5-1.9s0.8-1,1.4-1.3s1.2-0.5,2-0.5s1.4,0.2,2,0.5
		s1,0.7,1.4,1.3s0.5,1.2,0.5,1.9s-0.2,1.3-0.5,1.9s-0.8,1-1.4,1.3s-1.2,0.5-2,0.5S374.7,109.3,374.2,109z M377.2,107.8
		c0.3-0.2,0.6-0.5,0.8-0.8c0.2-0.3,0.3-0.7,0.3-1.2c0-0.4-0.1-0.8-0.3-1.2c-0.2-0.3-0.5-0.6-0.8-0.8s-0.7-0.3-1.1-0.3
		s-0.8,0.1-1.1,0.3c-0.3,0.2-0.6,0.5-0.8,0.8c-0.2,0.3-0.3,0.7-0.3,1.2c0,0.4,0.1,0.8,0.3,1.2c0.2,0.3,0.5,0.6,0.8,0.8
		c0.3,0.2,0.7,0.3,1.1,0.3S376.9,108,377.2,107.8z"/>
	<path d="M385.6,109.4l-1.3-2h-0.1h-1.4v2h-1.6v-7h3c0.6,0,1.2,0.1,1.6,0.3c0.5,0.2,0.8,0.5,1.1,0.9c0.2,0.4,0.4,0.8,0.4,1.4
		s-0.1,1-0.4,1.3c-0.2,0.4-0.6,0.7-1.1,0.9l1.6,2.2C387.4,109.4,385.6,109.4,385.6,109.4z M385.2,104c-0.3-0.2-0.6-0.3-1.1-0.3h-1.3
		v2.4h1.3c0.5,0,0.9-0.1,1.1-0.3s0.4-0.5,0.4-0.9C385.6,104.5,385.5,104.2,385.2,104z"/>
	<path d="M389.9,103.7h-2.2v-1.3h6.1v1.3h-2.2v5.7H390L389.9,103.7L389.9,103.7z"/>
	<path d="M402,107.9h-3.2l-0.6,1.5h-1.7l3.1-7h1.6l3.1,7h-1.7L402,107.9z M401.5,106.7l-1.1-2.7l-1.1,2.7H401.5z"/>
	<path d="M409.5,109.4l-1.3-2h-0.1h-1.4v2h-1.6v-7h3c0.6,0,1.2,0.1,1.6,0.3c0.5,0.2,0.8,0.5,1.1,0.9c0.2,0.4,0.4,0.8,0.4,1.4
		s-0.1,1-0.4,1.3c-0.2,0.4-0.6,0.7-1.1,0.9l1.6,2.2C411.3,109.4,409.5,109.4,409.5,109.4z M409.1,104c-0.3-0.2-0.6-0.3-1.1-0.3h-1.3
		v2.4h1.3c0.5,0,0.9-0.1,1.1-0.3s0.4-0.5,0.4-0.9C409.5,104.5,409.4,104.2,409.1,104z"/>
	<path d="M413.9,109c-0.6-0.3-1-0.7-1.4-1.3s-0.5-1.2-0.5-1.9s0.2-1.3,0.5-1.9s0.8-1,1.4-1.3s1.2-0.5,2-0.5s1.4,0.2,2,0.5
		s1,0.7,1.4,1.3s0.5,1.2,0.5,1.9s-0.2,1.3-0.5,1.9s-0.8,1-1.4,1.3s-1.2,0.5-2,0.5S414.4,109.3,413.9,109z M416.9,107.8
		c0.3-0.2,0.6-0.5,0.8-0.8c0.2-0.3,0.3-0.7,0.3-1.2c0-0.4-0.1-0.8-0.3-1.2c-0.2-0.3-0.5-0.6-0.8-0.8s-0.7-0.3-1.1-0.3
		s-0.8,0.1-1.1,0.3c-0.3,0.2-0.6,0.5-0.8,0.8c-0.2,0.3-0.3,0.7-0.3,1.2c0,0.4,0.1,0.8,0.3,1.2c0.2,0.3,0.5,0.6,0.8,0.8
		c0.3,0.2,0.7,0.3,1.1,0.3S416.6,108,416.9,107.8z"/>
	<path d="M421.7,108.7c-0.6-0.6-0.8-1.3-0.8-2.4v-3.9h1.6v3.9c0,1.3,0.5,1.9,1.6,1.9c0.5,0,0.9-0.2,1.2-0.5s0.4-0.8,0.4-1.4v-3.9
		h1.6v3.9c0,1-0.3,1.8-0.8,2.4s-1.3,0.8-2.3,0.8S422.2,109.2,421.7,108.7z"/>
	<path d="M435.2,102.4v7h-1.3l-3.5-4.2v4.2h-1.6v-7h1.3l3.5,4.2v-4.2H435.2z"/>
	<path d="M436.8,102.4h3.2c0.8,0,1.4,0.1,2,0.4s1,0.7,1.4,1.2c0.3,0.5,0.5,1.1,0.5,1.8s-0.2,1.3-0.5,1.8s-0.8,0.9-1.4,1.2
		c-0.6,0.3-1.3,0.4-2,0.4h-3.2V102.4z M439.9,108.1c0.7,0,1.3-0.2,1.7-0.6c0.4-0.4,0.6-0.9,0.6-1.6s-0.2-1.2-0.6-1.6s-1-0.6-1.7-0.6
		h-1.5v4.3L439.9,108.1L439.9,108.1z"/>
	<path d="M452.5,107.9h-3.2l-0.6,1.5H447l3.1-7h1.6l3.1,7h-1.7L452.5,107.9z M452,106.7l-1.1-2.7l-1.1,2.7H452z"/>
	<path d="M462,102.4v7h-1.3l-3.5-4.2v4.2h-1.6v-7h1.3l3.5,4.2v-4.2H462z"/>
	<path d="M471.1,107.9h-3.2l-0.6,1.5h-1.7l3.1-7h1.6l3.1,7h-1.7L471.1,107.9z M470.6,106.7l-1.1-2.7l-1.1,2.7H470.6z"/>
	<path d="M474.8,108.7c-0.6-0.6-0.8-1.3-0.8-2.4v-3.9h1.6v3.9c0,1.3,0.5,1.9,1.6,1.9c0.5,0,0.9-0.2,1.2-0.5s0.4-0.8,0.4-1.4v-3.9
		h1.6v3.9c0,1-0.3,1.8-0.8,2.4s-1.3,0.8-2.3,0.8S475.3,109.2,474.8,108.7z"/>
	<path d="M481.9,102.4h3.2c0.8,0,1.4,0.1,2,0.4s1,0.7,1.4,1.2c0.3,0.5,0.5,1.1,0.5,1.8s-0.2,1.3-0.5,1.8s-0.8,0.9-1.4,1.2
		c-0.6,0.3-1.3,0.4-2,0.4h-3.2V102.4z M485,108.1c0.7,0,1.3-0.2,1.7-0.6c0.4-0.4,0.6-0.9,0.6-1.6s-0.2-1.2-0.6-1.6s-1-0.6-1.7-0.6
		h-1.5v4.3L485,108.1L485,108.1z"/>
	<path d="M490.1,102.4h1.6v7h-1.6V102.4z"/>
	<path d="M498.8,108.1v1.3h-5.4v-7h5.3v1.3H495v1.5h3.2v1.3H495v1.6C495,108.1,498.8,108.1,498.8,108.1z"/>
	<path d="M506.6,102.4v7h-1.3l-3.5-4.2v4.2h-1.6v-7h1.3l3.5,4.2v-4.2H506.6z"/>
	<path d="M509.6,109c-0.6-0.3-1-0.7-1.4-1.3c-0.3-0.6-0.5-1.2-0.5-1.9s0.2-1.3,0.5-1.9c0.3-0.5,0.8-1,1.4-1.3s1.2-0.5,1.9-0.5
		c0.6,0,1.2,0.1,1.6,0.3s0.9,0.5,1.2,0.9l-1,1c-0.5-0.5-1.1-0.8-1.8-0.8c-0.4,0-0.8,0.1-1.2,0.3c-0.3,0.2-0.6,0.5-0.8,0.8
		c-0.2,0.3-0.3,0.7-0.3,1.2c0,0.4,0.1,0.8,0.3,1.2c0.2,0.3,0.5,0.6,0.8,0.8c0.3,0.2,0.7,0.3,1.2,0.3c0.7,0,1.3-0.3,1.8-0.8l1,1
		c-0.3,0.4-0.7,0.7-1.2,0.9c-0.5,0.2-1,0.3-1.7,0.3C510.9,109.5,510.2,109.3,509.6,109z"/>
	<path d="M521,108.1v1.3h-5.4v-7h5.3v1.3h-3.7v1.5h3.2v1.3h-3.2v1.6C517.2,108.1,521,108.1,521,108.1z"/>
	<path d="M522,105.2h2.8v1.2H522V105.2z"/>
	<path d="M527.9,103.7v1.9h3.2v1.3h-3.2v2.5h-1.6v-7h5.3v1.3C531.6,103.7,527.9,103.7,527.9,103.7z"/>
	<path d="M532.7,102.4h1.6v7h-1.6V102.4z"/>
	<path d="M540.4,109.4l-1.3-2H539h-1.4v2H536v-7h3c0.6,0,1.2,0.1,1.6,0.3c0.5,0.2,0.8,0.5,1.1,0.9c0.2,0.4,0.4,0.8,0.4,1.4
		s-0.1,1-0.4,1.3c-0.2,0.4-0.6,0.7-1.1,0.9l1.6,2.2C542.2,109.4,540.4,109.4,540.4,109.4z M540,104c-0.3-0.2-0.6-0.3-1.1-0.3h-1.3
		v2.4h1.3c0.5,0,0.9-0.1,1.1-0.3s0.4-0.5,0.4-0.9C540.4,104.5,540.3,104.2,540,104z"/>
	<path d="M544,109.3c-0.5-0.1-0.9-0.3-1.2-0.6l0.5-1.2c0.3,0.2,0.7,0.4,1.1,0.5c0.4,0.1,0.8,0.2,1.2,0.2c0.5,0,0.8-0.1,1-0.2
		s0.3-0.3,0.3-0.5s-0.1-0.3-0.2-0.4c-0.1-0.1-0.3-0.2-0.5-0.3c-0.2-0.1-0.5-0.1-0.8-0.2c-0.5-0.1-1-0.3-1.3-0.4s-0.6-0.3-0.9-0.6
		c-0.2-0.3-0.4-0.7-0.4-1.1s0.1-0.8,0.3-1.1s0.6-0.6,1-0.8s1-0.3,1.6-0.3c0.4,0,0.9,0.1,1.3,0.2s0.8,0.3,1.1,0.5l-0.5,1.2
		c-0.6-0.4-1.3-0.5-1.9-0.5c-0.5,0-0.8,0.1-1,0.2s-0.3,0.3-0.3,0.6c0,0.2,0.1,0.4,0.4,0.5s0.6,0.2,1.1,0.3c0.5,0.1,1,0.3,1.3,0.4
		s0.6,0.3,0.9,0.6c0.2,0.3,0.4,0.6,0.4,1.1c0,0.4-0.1,0.8-0.3,1.1c-0.2,0.3-0.6,0.6-1,0.8c-0.4,0.2-1,0.3-1.6,0.3
		C545.1,109.5,544.5,109.4,544,109.3z"/>
	<path d="M551.1,103.7h-2.2v-1.3h6.1v1.3h-2.2v5.7h-1.6L551.1,103.7L551.1,103.7z"/>
	<path d="M556.6,107.8c0.2,0.2,0.3,0.4,0.3,0.7c0,0.1,0,0.3,0,0.4s-0.1,0.3-0.2,0.6l-0.6,1.4h-1l0.4-1.6c-0.2-0.1-0.3-0.2-0.4-0.3
		s-0.1-0.3-0.1-0.5c0-0.3,0.1-0.5,0.3-0.7s0.4-0.3,0.7-0.3C556.2,107.5,556.5,107.6,556.6,107.8z"/>
	<path d="M277.6,120.1v1.3h-5.4v-7h5.3v1.3h-3.7v1.5h3.2v1.3h-3.2v1.6C273.8,120.1,277.6,120.1,277.6,120.1z"/>
	<path d="M285.5,114.4l-3,7h-1.6l-3-7h1.8l2.1,5l2.2-5H285.5z"/>
	<path d="M287.5,121c-0.6-0.3-1-0.7-1.4-1.3c-0.3-0.5-0.5-1.2-0.5-1.9s0.2-1.3,0.5-1.9c0.3-0.5,0.8-1,1.4-1.3s1.2-0.5,2-0.5
		c0.7,0,1.4,0.2,2,0.5s1,0.7,1.4,1.3c0.3,0.5,0.5,1.2,0.5,1.9s-0.2,1.3-0.5,1.9c-0.3,0.5-0.8,1-1.4,1.3s-1.2,0.5-2,0.5
		S288,121.3,287.5,121z M290.6,119.8c0.3-0.2,0.6-0.5,0.8-0.8c0.2-0.3,0.3-0.7,0.3-1.2c0-0.4-0.1-0.8-0.3-1.2
		c-0.2-0.3-0.5-0.6-0.8-0.8s-0.7-0.3-1.1-0.3s-0.8,0.1-1.1,0.3c-0.3,0.2-0.6,0.5-0.8,0.8c-0.2,0.3-0.3,0.7-0.3,1.2
		c0,0.4,0.1,0.8,0.3,1.2c0.2,0.3,0.5,0.6,0.8,0.8c0.3,0.2,0.7,0.3,1.1,0.3C289.8,120.1,290.2,120,290.6,119.8z"/>
	<path d="M294.5,114.4h1.6v5.7h3.5v1.3h-5.1V114.4z"/>
	<path d="M306.8,114.4l-3,7h-1.6l-3-7h1.8l2.1,5l2.2-5H306.8z"/>
	<path d="M312.8,120.1v1.3h-5.4v-7h5.3v1.3H309v1.5h3.2v1.3H309v1.6C309,120.1,312.8,120.1,312.8,120.1z"/>
	<path d="M314.1,114.4h3.2c0.8,0,1.4,0.1,2,0.4s1,0.7,1.4,1.2c0.3,0.5,0.5,1.1,0.5,1.8s-0.2,1.3-0.5,1.8s-0.8,0.9-1.4,1.2
		c-0.6,0.3-1.3,0.4-2,0.4h-3.2V114.4z M317.2,120.1c0.7,0,1.3-0.2,1.7-0.6c0.4-0.4,0.6-0.9,0.6-1.6s-0.2-1.2-0.6-1.6s-1-0.6-1.7-0.6
		h-1.5v4.3L317.2,120.1L317.2,120.1z"/>
	<path d="M325.1,114.4h3.2c0.8,0,1.4,0.1,2,0.4s1,0.7,1.4,1.2c0.3,0.5,0.5,1.1,0.5,1.8s-0.2,1.3-0.5,1.8s-0.8,0.9-1.4,1.2
		c-0.6,0.3-1.3,0.4-2,0.4h-3.2V114.4z M328.2,120.1c0.7,0,1.3-0.2,1.7-0.6c0.4-0.4,0.6-0.9,0.6-1.6s-0.2-1.2-0.6-1.6s-1-0.6-1.7-0.6
		h-1.5v4.3L328.2,120.1L328.2,120.1z"/>
	<path d="M333.4,114.4h1.6v7h-1.6V114.4z"/>
	<path d="M341.4,117.8h1.5v2.8c-0.4,0.3-0.8,0.5-1.3,0.7s-1,0.2-1.5,0.2c-0.7,0-1.4-0.2-2-0.5s-1-0.7-1.4-1.3
		c-0.3-0.6-0.5-1.2-0.5-1.9s0.2-1.3,0.5-1.9c0.3-0.5,0.8-1,1.4-1.3s1.2-0.5,2-0.5c0.6,0,1.2,0.1,1.7,0.3s0.9,0.5,1.3,0.9l-1,1
		c-0.5-0.5-1.1-0.8-1.8-0.8c-0.4,0-0.8,0.1-1.2,0.3s-0.6,0.5-0.8,0.8s-0.3,0.7-0.3,1.2c0,0.4,0.1,0.8,0.3,1.2
		c0.2,0.3,0.5,0.6,0.8,0.8s0.7,0.3,1.2,0.3s0.9-0.1,1.3-0.3v-2C341.6,117.8,341.4,117.8,341.4,117.8z"/>
	<path d="M344.4,114.4h1.6v7h-1.6V114.4z"/>
	<path d="M349.1,115.7h-2.2v-1.3h6.1v1.3h-2.2v5.7h-1.6L349.1,115.7L349.1,115.7z"/>
	<path d="M358.1,119.9h-3.2l-0.6,1.5h-1.7l3.1-7h1.6l3.1,7h-1.7L358.1,119.9z M357.6,118.7l-1.1-2.7l-1.1,2.7H357.6z"/>
	<path d="M361.2,114.4h1.6v5.7h3.5v1.3h-5.1V114.4z"/>
	<path d="M374.6,119.9h-3.2l-0.6,1.5h-1.7l3.1-7h1.6l3.1,7h-1.7L374.6,119.9z M374.1,118.7L373,116l-1.1,2.7H374.1z"/>
	<path d="M384.1,114.4v7h-1.3l-3.5-4.2v4.2h-1.6v-7h1.3l3.5,4.2v-4.2H384.1z"/>
	<path d="M385.8,114.4h3.2c0.8,0,1.4,0.1,2,0.4s1,0.7,1.4,1.2c0.3,0.5,0.5,1.1,0.5,1.8s-0.2,1.3-0.5,1.8s-0.8,0.9-1.4,1.2
		c-0.6,0.3-1.3,0.4-2,0.4h-3.2V114.4z M388.9,120.1c0.7,0,1.3-0.2,1.7-0.6c0.4-0.4,0.6-0.9,0.6-1.6s-0.2-1.2-0.6-1.6s-1-0.6-1.7-0.6
		h-1.5v4.3L388.9,120.1L388.9,120.1z"/>
	<path d="M397.6,121.3c-0.5-0.1-0.9-0.3-1.2-0.6l0.5-1.2c0.3,0.2,0.7,0.4,1.1,0.5s0.8,0.2,1.2,0.2c0.5,0,0.8-0.1,1-0.2
		s0.3-0.3,0.3-0.5s-0.1-0.3-0.2-0.4s-0.3-0.2-0.5-0.3c-0.2-0.1-0.5-0.1-0.8-0.2c-0.5-0.1-1-0.3-1.3-0.4s-0.6-0.3-0.9-0.6
		c-0.2-0.3-0.4-0.7-0.4-1.1s0.1-0.8,0.3-1.1s0.6-0.6,1-0.8s1-0.3,1.6-0.3c0.4,0,0.9,0.1,1.3,0.2s0.8,0.3,1.1,0.5l-0.5,1.2
		c-0.6-0.4-1.3-0.5-1.9-0.5c-0.5,0-0.8,0.1-1,0.2s-0.3,0.3-0.3,0.6c0,0.2,0.1,0.4,0.4,0.5s0.6,0.2,1.1,0.3c0.5,0.1,1,0.3,1.3,0.4
		s0.6,0.3,0.9,0.6c0.2,0.3,0.4,0.6,0.4,1.1c0,0.4-0.1,0.8-0.3,1.1c-0.2,0.3-0.6,0.6-1,0.8c-0.4,0.2-1,0.3-1.6,0.3
		C398.6,121.5,398.1,121.4,397.6,121.3z"/>
	<path d="M404.7,121c-0.6-0.3-1-0.7-1.4-1.3s-0.5-1.2-0.5-1.9s0.2-1.3,0.5-1.9s0.8-1,1.4-1.3s1.2-0.5,2-0.5s1.4,0.2,2,0.5
		s1,0.7,1.4,1.3s0.5,1.2,0.5,1.9s-0.2,1.3-0.5,1.9s-0.8,1-1.4,1.3s-1.2,0.5-2,0.5S405.2,121.3,404.7,121z M407.8,119.8
		c0.3-0.2,0.6-0.5,0.8-0.8c0.2-0.3,0.3-0.7,0.3-1.2c0-0.4-0.1-0.8-0.3-1.2c-0.2-0.3-0.5-0.6-0.8-0.8s-0.7-0.3-1.1-0.3
		s-0.8,0.1-1.1,0.3c-0.3,0.2-0.6,0.5-0.8,0.8c-0.2,0.3-0.3,0.7-0.3,1.2c0,0.4,0.1,0.8,0.3,1.2c0.2,0.3,0.5,0.6,0.8,0.8
		c0.3,0.2,0.7,0.3,1.1,0.3S407.4,120,407.8,119.8z"/>
	<path d="M413.1,121c-0.6-0.3-1-0.7-1.4-1.3c-0.3-0.6-0.5-1.2-0.5-1.9s0.2-1.3,0.5-1.9c0.3-0.5,0.8-1,1.4-1.3s1.2-0.5,1.9-0.5
		c0.6,0,1.2,0.1,1.6,0.3s0.9,0.5,1.2,0.9l-1,1c-0.5-0.5-1.1-0.8-1.8-0.8c-0.4,0-0.8,0.1-1.2,0.3c-0.3,0.2-0.6,0.5-0.8,0.8
		c-0.2,0.3-0.3,0.7-0.3,1.2c0,0.4,0.1,0.8,0.3,1.2c0.2,0.3,0.5,0.6,0.8,0.8c0.3,0.2,0.7,0.3,1.2,0.3c0.7,0,1.3-0.3,1.8-0.8l1,1
		c-0.3,0.4-0.7,0.7-1.2,0.9c-0.5,0.2-1,0.3-1.7,0.3C414.3,121.5,413.7,121.3,413.1,121z"/>
	<path d="M419,114.4h1.6v7H419V114.4z"/>
	<path d="M426.9,119.9h-3.2l-0.6,1.5h-1.7l3.1-7h1.6l3.1,7h-1.7L426.9,119.9z M426.4,118.7l-1.1-2.7l-1.1,2.7H426.4z"/>
	<path d="M429.9,114.4h1.6v5.7h3.5v1.3h-5.1V114.4z"/>
	<path d="M439.5,121.3c-0.5-0.1-0.9-0.3-1.2-0.6l0.5-1.2c0.3,0.2,0.7,0.4,1.1,0.5s0.8,0.2,1.2,0.2c0.5,0,0.8-0.1,1-0.2
		s0.3-0.3,0.3-0.5s-0.1-0.3-0.2-0.4s-0.3-0.2-0.5-0.3c-0.2-0.1-0.5-0.1-0.8-0.2c-0.5-0.1-1-0.3-1.3-0.4s-0.6-0.3-0.9-0.6
		c-0.2-0.3-0.4-0.7-0.4-1.1s0.1-0.8,0.3-1.1s0.6-0.6,1-0.8s1-0.3,1.6-0.3c0.4,0,0.9,0.1,1.3,0.2s0.8,0.3,1.1,0.5l-0.5,1.2
		c-0.6-0.4-1.3-0.5-1.9-0.5c-0.5,0-0.8,0.1-1,0.2s-0.3,0.3-0.3,0.6c0,0.2,0.1,0.4,0.4,0.5s0.6,0.2,1.1,0.3c0.5,0.1,1,0.3,1.3,0.4
		s0.6,0.3,0.9,0.6c0.2,0.3,0.4,0.6,0.4,1.1c0,0.4-0.1,0.8-0.3,1.1c-0.2,0.3-0.6,0.6-1,0.8c-0.4,0.2-1,0.3-1.6,0.3
		C440.6,121.5,440,121.4,439.5,121.3z"/>
	<path d="M446.5,115.7h-2.2v-1.3h6.1v1.3h-2.2v5.7h-1.6L446.5,115.7L446.5,115.7z"/>
	<path d="M455.7,121.4l-1.3-2h-0.1h-1.4v2h-1.6v-7h3c0.6,0,1.2,0.1,1.6,0.3c0.5,0.2,0.8,0.5,1.1,0.9c0.2,0.4,0.4,0.8,0.4,1.4
		s-0.1,1-0.4,1.3c-0.2,0.4-0.6,0.7-1.1,0.9l1.6,2.2C457.5,121.4,455.7,121.4,455.7,121.4z M455.3,116c-0.3-0.2-0.6-0.3-1.1-0.3h-1.3
		v2.4h1.3c0.5,0,0.9-0.1,1.1-0.3s0.4-0.5,0.4-0.9C455.7,116.5,455.6,116.2,455.3,116z"/>
	<path d="M463.2,119.9H460l-0.6,1.5h-1.7l3.1-7h1.6l3.1,7h-1.7L463.2,119.9z M462.7,118.7l-1.1-2.7l-1.1,2.7H462.7z"/>
	<path d="M467.4,115.7h-2.2v-1.3h6.1v1.3H469v5.7h-1.6V115.7z"/>
	<path d="M477.5,120.1v1.3h-5.4v-7h5.3v1.3h-3.7v1.5h3.2v1.3h-3.2v1.6C473.7,120.1,477.5,120.1,477.5,120.1z"/>
	<path d="M483.5,117.8h1.5v2.8c-0.4,0.3-0.8,0.5-1.3,0.7s-1,0.2-1.5,0.2c-0.7,0-1.4-0.2-2-0.5s-1-0.7-1.4-1.3
		c-0.3-0.6-0.5-1.2-0.5-1.9s0.2-1.3,0.5-1.9c0.3-0.5,0.8-1,1.4-1.3s1.2-0.5,2-0.5c0.6,0,1.2,0.1,1.7,0.3s0.9,0.5,1.3,0.9l-1,1
		c-0.5-0.5-1.1-0.8-1.8-0.8c-0.4,0-0.8,0.1-1.2,0.3s-0.6,0.5-0.8,0.8s-0.3,0.7-0.3,1.2c0,0.4,0.1,0.8,0.3,1.2
		c0.2,0.3,0.5,0.6,0.8,0.8s0.7,0.3,1.2,0.3s0.9-0.1,1.3-0.3v-2C483.7,117.8,483.5,117.8,483.5,117.8z"/>
	<path d="M489.9,118.9v2.5h-1.6v-2.5l-2.7-4.5h1.7l1.9,3.1l1.9-3.1h1.6L489.9,118.9z"/>
</g>
<g>
	<path d="M275.4,270c-0.6-0.3-1-0.7-1.4-1.3c-0.3-0.6-0.5-1.2-0.5-1.9s0.2-1.3,0.5-1.9c0.3-0.5,0.8-1,1.4-1.3s1.2-0.5,2-0.5
		c0.7,0,1.4,0.2,2,0.5s1,0.7,1.4,1.3c0.3,0.6,0.5,1.2,0.5,1.9s-0.2,1.3-0.5,1.9c-0.3,0.5-0.8,1-1.4,1.3s-1.2,0.5-2,0.5
		C276.6,270.5,276,270.3,275.4,270z M278.5,268.8c0.3-0.2,0.6-0.5,0.8-0.8s0.3-0.7,0.3-1.2s-0.1-0.8-0.3-1.2s-0.5-0.6-0.8-0.8
		s-0.7-0.3-1.1-0.3s-0.8,0.1-1.1,0.3c-0.3,0.2-0.6,0.5-0.8,0.8s-0.3,0.7-0.3,1.2s0.1,0.8,0.3,1.2s0.5,0.6,0.8,0.8
		c0.3,0.2,0.7,0.3,1.1,0.3C277.8,269.1,278.1,269,278.5,268.8z"/>
	<path d="M283.1,269.7c-0.6-0.6-0.8-1.3-0.8-2.4v-3.9h1.6v3.9c0,1.3,0.5,1.9,1.6,1.9c0.5,0,0.9-0.2,1.2-0.5s0.4-0.8,0.4-1.4v-3.9
		h1.6v3.9c0,1-0.3,1.8-0.8,2.4s-1.3,0.8-2.3,0.8S283.8,270.2,283.1,269.7z"/>
	<path d="M294.8,270.4l-1.4-2h-0.1h-1.4v2h-1.6v-7h3c0.6,0,1.2,0.1,1.6,0.3c0.5,0.2,0.8,0.5,1.1,0.9c0.2,0.4,0.4,0.8,0.4,1.4
		s-0.1,1-0.4,1.3s-0.6,0.7-1.1,0.9l1.6,2.2L294.8,270.4L294.8,270.4z M294.4,265c-0.3-0.2-0.6-0.3-1.1-0.3H292v2.4h1.3
		c0.5,0,0.9-0.1,1.1-0.3c0.3-0.2,0.4-0.5,0.4-0.9C294.8,265.5,294.5,265.2,294.4,265z"/>
	<path d="M300.5,263.4h3.2c0.8,0,1.4,0.1,2,0.4s1,0.7,1.4,1.2c0.3,0.5,0.5,1.1,0.5,1.8s-0.2,1.3-0.5,1.8s-0.8,0.9-1.4,1.2
		c-0.6,0.3-1.3,0.4-2,0.4h-3.2V263.4z M303.5,269.1c0.7,0,1.3-0.2,1.7-0.6c0.4-0.4,0.6-0.9,0.6-1.6s-0.2-1.2-0.6-1.6s-1-0.6-1.7-0.6
		H302v4.3h1.5V269.1z"/>
	<path d="M314.1,269.1v1.3h-5.4v-7h5.3v1.3h-3.7v1.5h3.2v1.3h-3.2v1.6L314.1,269.1L314.1,269.1z"/>
	<path d="M316.9,264.7h-2.2v-1.3h6.1v1.3h-2.2v5.7h-1.6L316.9,264.7L316.9,264.7z"/>
	<path d="M325.9,268.9h-3.2l-0.6,1.5h-1.7l3.1-7h1.6l3.1,7h-1.7L325.9,268.9z M325.4,267.7l-1.1-2.7l-1.1,2.7H325.4z"/>
	<path d="M329,263.4h1.6v7H329V263.4z"/>
	<path d="M332.1,263.4h1.6v5.7h3.5v1.3h-5.1V263.4z"/>
	<path d="M343.6,269.1v1.3h-5.4v-7h5.3v1.3h-3.7v1.5h3.2v1.3h-3.2v1.6L343.6,269.1L343.6,269.1z"/>
	<path d="M345,263.4h3.2c0.8,0,1.4,0.1,2,0.4s1,0.7,1.4,1.2c0.3,0.5,0.5,1.1,0.5,1.8s-0.2,1.3-0.5,1.8s-0.8,0.9-1.4,1.2
		c-0.6,0.3-1.3,0.4-2,0.4H345V263.4z M348,269.1c0.7,0,1.3-0.2,1.7-0.6c0.4-0.4,0.6-0.9,0.6-1.6s-0.2-1.2-0.6-1.6s-1-0.6-1.7-0.6
		h-1.5v4.3h1.5V269.1z"/>
	<path d="M356,263.4h3.2c0.8,0,1.4,0.1,2,0.4s1,0.7,1.4,1.2c0.3,0.5,0.5,1.1,0.5,1.8s-0.2,1.3-0.5,1.8s-0.8,0.9-1.4,1.2
		c-0.6,0.3-1.3,0.4-2,0.4H356V263.4z M359.1,269.1c0.7,0,1.3-0.2,1.7-0.6c0.4-0.4,0.6-0.9,0.6-1.6s-0.2-1.2-0.6-1.6s-1-0.6-1.7-0.6
		h-1.5v4.3h1.5V269.1z"/>
	<path d="M364.2,263.4h1.6v7h-1.6V263.4z"/>
	<path d="M372.2,266.8h1.5v2.8c-0.4,0.3-0.8,0.5-1.3,0.7s-1,0.2-1.5,0.2c-0.7,0-1.4-0.2-2-0.5s-1-0.7-1.4-1.3
		c-0.3-0.6-0.5-1.2-0.5-1.9s0.2-1.3,0.5-1.9c0.3-0.5,0.8-1,1.4-1.3s1.2-0.5,2-0.5c0.6,0,1.2,0.1,1.7,0.3c0.5,0.2,0.9,0.5,1.3,0.9
		l-1,1c-0.5-0.5-1.1-0.8-1.8-0.8c-0.4,0-0.8,0.1-1.2,0.3s-0.6,0.5-0.8,0.8s-0.3,0.7-0.3,1.2c0,0.4,0.1,0.8,0.3,1.2s0.5,0.6,0.8,0.8
		s0.7,0.3,1.2,0.3s0.9-0.1,1.3-0.3v-2L372.2,266.8L372.2,266.8z"/>
	<path d="M375.2,263.4h1.6v7h-1.6V263.4z"/>
	<path d="M380,264.7h-2.3v-1.3h6.1v1.3h-2.2v5.7H380V264.7z"/>
	<path d="M389,268.9h-3.3l-0.6,1.5h-1.7l3.1-7h1.6l3.1,7h-1.7L389,268.9z M388.5,267.7l-1.1-2.7l-1.1,2.7H388.5z"/>
	<path d="M392,263.4h1.6v5.7h3.5v1.3H392V263.4z"/>
	<path d="M401.6,270.3c-0.5-0.1-0.9-0.3-1.2-0.6l0.5-1.2c0.3,0.2,0.7,0.4,1.1,0.5s0.8,0.2,1.2,0.2c0.5,0,0.8-0.1,1-0.2
		s0.3-0.3,0.3-0.5s-0.1-0.3-0.2-0.4s-0.3-0.2-0.5-0.3c-0.2-0.1-0.5-0.1-0.8-0.2c-0.5-0.1-1-0.3-1.3-0.4s-0.6-0.3-0.9-0.6
		c-0.2-0.3-0.4-0.7-0.4-1.1s0.1-0.8,0.3-1.1s0.6-0.6,1-0.8s1-0.3,1.6-0.3c0.4,0,0.9,0.1,1.3,0.2s0.8,0.3,1.1,0.5l-0.5,1.2
		c-0.6-0.4-1.3-0.6-1.9-0.6c-0.5,0-0.8,0.1-1,0.2s-0.3,0.3-0.3,0.6s0.1,0.4,0.4,0.5c0.2,0.1,0.6,0.2,1.1,0.3c0.5,0.1,1,0.3,1.3,0.4
		s0.6,0.3,0.9,0.6c0.2,0.3,0.4,0.6,0.4,1.1c0,0.4-0.1,0.8-0.3,1.1c-0.2,0.3-0.6,0.6-1,0.8c-0.4,0.2-1,0.3-1.6,0.3
		S402.1,270.4,401.6,270.3z"/>
	<path d="M408.6,264.7h-2.2v-1.3h6.1v1.3h-2.2v5.7h-1.6L408.6,264.7L408.6,264.7z"/>
	<path d="M417.9,270.4l-1.3-2h-0.1h-1.4v2h-1.6v-7h3c0.6,0,1.2,0.1,1.6,0.3c0.5,0.2,0.8,0.5,1.1,0.9c0.2,0.4,0.4,0.8,0.4,1.4
		s-0.1,1-0.4,1.3s-0.6,0.7-1.1,0.9l1.6,2.2L417.9,270.4L417.9,270.4z M417.5,265c-0.3-0.2-0.6-0.3-1.1-0.3h-1.3v2.4h1.3
		c0.5,0,0.9-0.1,1.1-0.3c0.3-0.2,0.4-0.5,0.4-0.9C417.9,265.5,417.6,265.2,417.5,265z"/>
	<path d="M425.4,268.9h-3.2l-0.6,1.5h-1.7l3.1-7h1.6l3.1,7h-1.7L425.4,268.9z M424.9,267.7l-1.1-2.7l-1.1,2.7H424.9z"/>
	<path d="M429.5,264.7h-2.2v-1.3h6.1v1.3h-2.2v5.7h-1.6L429.5,264.7L429.5,264.7z"/>
	<path d="M439.6,269.1v1.3h-5.4v-7h5.3v1.3h-3.7v1.5h3.2v1.3h-3.2v1.6L439.6,269.1L439.6,269.1z"/>
	<path d="M445.6,266.8h1.5v2.8c-0.4,0.3-0.8,0.5-1.3,0.7s-1,0.2-1.5,0.2c-0.7,0-1.4-0.2-2-0.5s-1-0.7-1.4-1.3
		c-0.3-0.6-0.5-1.2-0.5-1.9s0.2-1.3,0.5-1.9c0.3-0.5,0.8-1,1.4-1.3s1.2-0.5,2-0.5c0.6,0,1.2,0.1,1.7,0.3c0.5,0.2,0.9,0.5,1.3,0.9
		l-1,1c-0.5-0.5-1.1-0.8-1.8-0.8c-0.4,0-0.8,0.1-1.2,0.3s-0.6,0.5-0.8,0.8s-0.3,0.7-0.3,1.2c0,0.4,0.1,0.8,0.3,1.2s0.5,0.6,0.8,0.8
		s0.7,0.3,1.2,0.3s0.9-0.1,1.3-0.3v-2L445.6,266.8L445.6,266.8z"/>
	<path d="M448.6,263.4h1.6v7h-1.6V263.4z"/>
	<path d="M457.4,269.1v1.3H452v-7h5.3v1.3h-3.7v1.5h3.2v1.3h-3.2v1.6L457.4,269.1L457.4,269.1z"/>
	<path d="M459.4,270.3c-0.5-0.1-0.9-0.3-1.2-0.6l0.5-1.2c0.3,0.2,0.7,0.4,1.1,0.5s0.8,0.2,1.2,0.2c0.5,0,0.8-0.1,1-0.2
		s0.3-0.3,0.3-0.5s-0.1-0.3-0.2-0.4s-0.3-0.2-0.5-0.3c-0.2-0.1-0.5-0.1-0.8-0.2c-0.5-0.1-1-0.3-1.3-0.4s-0.6-0.3-0.9-0.6
		c-0.2-0.3-0.4-0.7-0.4-1.1s0.1-0.8,0.3-1.1s0.6-0.6,1-0.8s1-0.3,1.6-0.3c0.4,0,0.9,0.1,1.3,0.2s0.8,0.3,1.1,0.5l-0.5,1.2
		c-0.6-0.4-1.3-0.6-1.9-0.6c-0.5,0-0.8,0.1-1,0.2s-0.3,0.3-0.3,0.6s0.1,0.4,0.4,0.5c0.2,0.1,0.6,0.2,1.1,0.3c0.5,0.1,1,0.3,1.3,0.4
		s0.6,0.3,0.9,0.6c0.2,0.3,0.4,0.6,0.4,1.1c0,0.4-0.1,0.8-0.3,1.1c-0.2,0.3-0.6,0.6-1,0.8c-0.4,0.2-1,0.3-1.6,0.3
		S459.9,270.4,459.4,270.3z"/>
	<path d="M472.5,268.9h-3.2l-0.6,1.5h-1.7l3.1-7h1.6l3.1,7H473L472.5,268.9z M472,267.7l-1.1-2.7l-1.1,2.7H472z"/>
	<path d="M481.9,263.4v7h-1.3l-3.5-4.2v4.2h-1.6v-7h1.3l3.5,4.2v-4.2H481.9z"/>
	<path d="M483.5,263.4h3.2c0.8,0,1.4,0.1,2,0.4s1,0.7,1.4,1.2c0.3,0.5,0.5,1.1,0.5,1.8s-0.2,1.3-0.5,1.8s-0.8,0.9-1.4,1.2
		c-0.6,0.3-1.3,0.4-2,0.4h-3.2V263.4z M486.6,269.1c0.7,0,1.3-0.2,1.7-0.6c0.4-0.4,0.6-0.9,0.6-1.6s-0.2-1.2-0.6-1.6s-1-0.6-1.7-0.6
		h-1.5v4.3h1.5V269.1z"/>
	<path d="M496,270c-0.6-0.3-1-0.7-1.4-1.3c-0.3-0.6-0.5-1.2-0.5-1.9s0.2-1.3,0.5-1.9c0.3-0.5,0.8-1,1.4-1.3s1.2-0.5,1.9-0.5
		c0.6,0,1.2,0.1,1.6,0.3s0.9,0.5,1.2,0.9l-1,1c-0.5-0.5-1.1-0.8-1.8-0.8c-0.4,0-0.8,0.1-1.2,0.3c-0.3,0.2-0.6,0.5-0.8,0.8
		c-0.2,0.3-0.3,0.7-0.3,1.2s0.1,0.8,0.3,1.2c0.2,0.3,0.5,0.6,0.8,0.8c0.3,0.2,0.7,0.3,1.2,0.3c0.7,0,1.3-0.3,1.8-0.8l1,1
		c-0.3,0.4-0.7,0.7-1.2,0.9c-0.5,0.2-1,0.3-1.7,0.3C497.2,270.5,496.6,270.3,496,270z"/>
	<path d="M506.5,270.4l-1.3-2h-0.1h-1.4v2h-1.6v-7h3c0.6,0,1.2,0.1,1.6,0.3c0.5,0.2,0.8,0.5,1.1,0.9c0.2,0.4,0.4,0.8,0.4,1.4
		s-0.1,1-0.4,1.3s-0.6,0.7-1.1,0.9l1.6,2.2L506.5,270.4L506.5,270.4z M506,265c-0.3-0.2-0.6-0.3-1.1-0.3h-1.3v2.4h1.3
		c0.5,0,0.9-0.1,1.1-0.3c0.3-0.2,0.4-0.5,0.4-0.9C506.5,265.5,506.2,265.2,506,265z"/>
	<path d="M514.8,269.1v1.3h-5.4v-7h5.3v1.3h-3.7v1.5h3.2v1.3h-3.2v1.6L514.8,269.1L514.8,269.1z"/>
	<path d="M520.6,268.9h-3.2l-0.6,1.5h-1.7l3.1-7h1.6l3.1,7h-1.7L520.6,268.9z M520.1,267.7L519,265l-1.1,2.7H520.1z"/>
	<path d="M524.8,264.7h-2.2v-1.3h6.1v1.3h-2.2v5.7h-1.7V264.7z"/>
	<path d="M529.5,263.4h1.6v7h-1.6V263.4z"/>
	<path d="M539.5,263.4l-3,7h-1.6l-3-7h1.8l2.1,5l2.2-5H539.5z"/>
	<path d="M545.5,269.1v1.3H540v-7h5.3v1.3h-3.7v1.5h3.2v1.3h-3.2v1.6L545.5,269.1L545.5,269.1z"/>
	<path d="M551,270c-0.6-0.3-1-0.7-1.4-1.3c-0.3-0.6-0.5-1.2-0.5-1.9s0.2-1.3,0.5-1.9c0.3-0.5,0.8-1,1.4-1.3c0.6-0.3,1.2-0.5,1.9-0.5
		c0.6,0,1.2,0.1,1.6,0.3s0.9,0.5,1.2,0.9l-1,1c-0.5-0.5-1.1-0.8-1.8-0.8c-0.4,0-0.8,0.1-1.2,0.3c-0.3,0.2-0.6,0.5-0.8,0.8
		s-0.3,0.7-0.3,1.2s0.1,0.8,0.3,1.2c0.2,0.3,0.5,0.6,0.8,0.8c0.3,0.2,0.7,0.3,1.2,0.3c0.7,0,1.3-0.3,1.8-0.8l1,1
		c-0.3,0.4-0.7,0.7-1.2,0.9c-0.5,0.2-1,0.3-1.7,0.3C552.2,270.5,551.7,270.3,551,270z"/>
	<path d="M558.2,270c-0.6-0.3-1-0.7-1.4-1.3c-0.3-0.6-0.5-1.2-0.5-1.9s0.2-1.3,0.5-1.9c0.3-0.5,0.8-1,1.4-1.3c0.6-0.3,1.2-0.5,2-0.5
		s1.4,0.2,2,0.5s1,0.7,1.4,1.3c0.3,0.6,0.5,1.2,0.5,1.9s-0.2,1.3-0.5,1.9c-0.3,0.5-0.8,1-1.4,1.3c-0.6,0.3-1.2,0.5-2,0.5
		S558.8,270.3,558.2,270z M561.3,268.8c0.3-0.2,0.6-0.5,0.8-0.8s0.3-0.7,0.3-1.2s-0.1-0.8-0.3-1.2s-0.5-0.6-0.8-0.8
		s-0.7-0.3-1.1-0.3s-0.8,0.1-1.1,0.3c-0.3,0.2-0.6,0.5-0.8,0.8s-0.3,0.7-0.3,1.2s0.1,0.8,0.3,1.2c0.2,0.3,0.5,0.6,0.8,0.8
		c0.3,0.2,0.7,0.3,1.1,0.3S561,269,561.3,268.8z"/>
	<path d="M571.7,263.4v7h-1.3l-3.5-4.2v4.2h-1.6v-7h1.3l3.5,4.2v-4.2H571.7z"/>
	<path d="M574.8,270c-0.6-0.3-1-0.7-1.4-1.3c-0.3-0.6-0.5-1.2-0.5-1.9s0.2-1.3,0.5-1.9c0.3-0.5,0.8-1,1.4-1.3
		c0.6-0.3,1.2-0.5,1.9-0.5c0.6,0,1.2,0.1,1.6,0.3s0.9,0.5,1.2,0.9l-1,1c-0.5-0.5-1.1-0.8-1.8-0.8c-0.4,0-0.8,0.1-1.2,0.3
		c-0.3,0.2-0.6,0.5-0.8,0.8s-0.3,0.7-0.3,1.2s0.1,0.8,0.3,1.2c0.2,0.3,0.5,0.6,0.8,0.8c0.3,0.2,0.7,0.3,1.2,0.3
		c0.7,0,1.3-0.3,1.8-0.8l1,1c-0.3,0.4-0.7,0.7-1.2,0.9c-0.5,0.2-1,0.3-1.7,0.3C576,270.5,575.3,270.3,574.8,270z"/>
	<path d="M586,269.1v1.3h-5.4v-7h5.3v1.3h-3.7v1.5h3.2v1.3h-3.2v1.6L586,269.1L586,269.1z"/>
	<path d="M592,263.7c0.5,0.2,0.8,0.5,1.1,0.9c0.2,0.4,0.4,0.8,0.4,1.4c0,0.5-0.1,1-0.4,1.3c-0.2,0.4-0.6,0.7-1.1,0.9
		c-0.5,0.2-1,0.3-1.6,0.3H589v1.9h-1.6v-7h3C591,263.4,591.5,263.5,592,263.7z M591.5,266.8c0.3-0.2,0.4-0.5,0.4-0.9
		s-0.1-0.7-0.4-0.9c-0.3-0.2-0.6-0.3-1.1-0.3h-1.3v2.4h1.3C590.8,267.1,591.2,267,591.5,266.8z"/>
	<path d="M595.8,264.7h-2.2v-1.3h6.1v1.3h-2.2v5.7h-1.6L595.8,264.7L595.8,264.7z"/>
	<path d="M601.2,270.3c-0.5-0.1-0.9-0.3-1.2-0.6l0.5-1.2c0.3,0.2,0.7,0.4,1.1,0.5c0.4,0.1,0.8,0.2,1.2,0.2c0.5,0,0.8-0.1,1-0.2
		s0.3-0.3,0.3-0.5s-0.1-0.3-0.2-0.4c-0.1-0.1-0.3-0.2-0.5-0.3c-0.2-0.1-0.5-0.1-0.8-0.2c-0.5-0.1-1-0.3-1.3-0.4s-0.6-0.3-0.9-0.6
		c-0.2-0.3-0.4-0.7-0.4-1.1s0.1-0.8,0.3-1.1s0.6-0.6,1-0.8s1-0.3,1.6-0.3c0.4,0,0.9,0.1,1.3,0.2s0.8,0.3,1.1,0.5l-0.5,1.2
		c-0.6-0.4-1.3-0.6-1.9-0.6c-0.5,0-0.8,0.1-1,0.2s-0.3,0.3-0.3,0.6s0.1,0.4,0.4,0.5c0.2,0.1,0.6,0.2,1.1,0.3c0.5,0.1,1,0.3,1.3,0.4
		s0.6,0.3,0.9,0.6c0.2,0.3,0.4,0.6,0.4,1.1c0,0.4-0.1,0.8-0.3,1.1c-0.2,0.3-0.6,0.6-1,0.8c-0.4,0.2-1,0.3-1.6,0.3
		C602.2,270.5,601.8,270.4,601.2,270.3z"/>
	<path d="M275.4,294c-0.6-0.3-1-0.7-1.4-1.3c-0.3-0.6-0.5-1.2-0.5-1.9s0.2-1.3,0.5-1.9c0.3-0.5,0.8-1,1.4-1.3s1.2-0.5,2-0.5
		c0.7,0,1.4,0.2,2,0.5s1,0.7,1.4,1.3c0.3,0.6,0.5,1.2,0.5,1.9s-0.2,1.3-0.5,1.9c-0.3,0.5-0.8,1-1.4,1.3s-1.2,0.5-2,0.5
		C276.6,294.5,276,294.3,275.4,294z M278.5,292.8c0.3-0.2,0.6-0.5,0.8-0.8s0.3-0.7,0.3-1.2s-0.1-0.8-0.3-1.2s-0.5-0.6-0.8-0.8
		s-0.7-0.3-1.1-0.3s-0.8,0.1-1.1,0.3c-0.3,0.2-0.6,0.5-0.8,0.8s-0.3,0.7-0.3,1.2s0.1,0.8,0.3,1.2s0.5,0.6,0.8,0.8
		c0.3,0.2,0.7,0.3,1.1,0.3C277.8,293.1,278.1,293,278.5,292.8z"/>
	<path d="M283.1,293.7c-0.6-0.6-0.8-1.3-0.8-2.4v-3.9h1.6v3.9c0,1.3,0.5,1.9,1.6,1.9c0.5,0,0.9-0.2,1.2-0.5s0.4-0.8,0.4-1.4v-3.9
		h1.6v3.9c0,1-0.3,1.8-0.8,2.4s-1.3,0.8-2.3,0.8S283.8,294.2,283.1,293.7z"/>
	<path d="M294.8,294.4l-1.4-2h-0.1h-1.4v2h-1.6v-7h3c0.6,0,1.2,0.1,1.6,0.3c0.5,0.2,0.8,0.5,1.1,0.9c0.2,0.4,0.4,0.8,0.4,1.4
		s-0.1,1-0.4,1.3s-0.6,0.7-1.1,0.9l1.6,2.2L294.8,294.4L294.8,294.4z M294.4,289c-0.3-0.2-0.6-0.3-1.1-0.3H292v2.4h1.3
		c0.5,0,0.9-0.1,1.1-0.3c0.3-0.2,0.4-0.5,0.4-0.9C294.8,289.5,294.5,289.2,294.4,289z"/>
	<path d="M305,292.9h-3.2l-0.6,1.5h-1.7l3.1-7h1.6l3.1,7h-1.7L305,292.9z M304.5,291.7l-1.1-2.7l-1.1,2.7H304.5z"/>
	<path d="M312.8,287.7c0.5,0.2,0.8,0.5,1.1,0.9c0.2,0.4,0.4,0.8,0.4,1.4c0,0.5-0.1,1-0.4,1.3c-0.2,0.4-0.6,0.7-1.1,0.9
		c-0.5,0.2-1,0.3-1.6,0.3h-1.4v1.9h-1.6v-7h3C311.8,287.4,312.2,287.5,312.8,287.7z M312.1,290.8c0.3-0.2,0.4-0.5,0.4-0.9
		s-0.1-0.7-0.4-0.9c-0.3-0.2-0.6-0.3-1.1-0.3h-1.3v2.4h1.3C311.5,291.1,312,291,312.1,290.8z"/>
	<path d="M320,287.7c0.5,0.2,0.8,0.5,1.1,0.9c0.2,0.4,0.4,0.8,0.4,1.4c0,0.5-0.1,1-0.4,1.3c-0.2,0.4-0.6,0.7-1.1,0.9
		c-0.5,0.2-1,0.3-1.6,0.3H317v1.9h-1.6v-7h3C319,287.4,319.5,287.5,320,287.7z M319.4,290.8c0.3-0.2,0.4-0.5,0.4-0.9
		s-0.1-0.7-0.4-0.9c-0.3-0.2-0.6-0.3-1.1-0.3H317v2.4h1.3C318.8,291.1,319.1,291,319.4,290.8z"/>
	<path d="M327,294.4l-1.3-2h-0.1h-1.4v2h-1.6v-7h3c0.6,0,1.2,0.1,1.6,0.3c0.5,0.2,0.8,0.5,1.1,0.9c0.2,0.4,0.4,0.8,0.4,1.4
		s-0.1,1-0.4,1.3s-0.6,0.7-1.1,0.9l1.6,2.2L327,294.4L327,294.4z M326.6,289c-0.3-0.2-0.6-0.3-1.1-0.3h-1.3v2.4h1.3
		c0.5,0,0.9-0.1,1.1-0.3c0.3-0.2,0.4-0.5,0.4-0.9C327,289.5,326.9,289.2,326.6,289z"/>
	<path d="M331.4,294c-0.6-0.3-1-0.7-1.4-1.3c-0.3-0.6-0.5-1.2-0.5-1.9s0.2-1.3,0.5-1.9c0.3-0.5,0.8-1,1.4-1.3s1.2-0.5,2-0.5
		s1.4,0.2,2,0.5s1,0.7,1.4,1.3c0.3,0.6,0.5,1.2,0.5,1.9s-0.2,1.3-0.5,1.9c-0.3,0.5-0.8,1-1.4,1.3s-1.2,0.5-2,0.5
		S332,294.3,331.4,294z M334.5,292.8c0.3-0.2,0.6-0.5,0.8-0.8s0.3-0.7,0.3-1.2s-0.1-0.8-0.3-1.2s-0.5-0.6-0.8-0.8s-0.7-0.3-1.1-0.3
		s-0.8,0.1-1.1,0.3c-0.3,0.2-0.6,0.5-0.8,0.8c-0.2,0.3-0.3,0.7-0.3,1.2s0.1,0.8,0.3,1.2c0.2,0.3,0.5,0.6,0.8,0.8
		c0.3,0.2,0.7,0.3,1.1,0.3S334,293,334.5,292.8z"/>
	<path d="M342.9,292.9h-3.2l-0.6,1.5h-1.7l3.1-7h1.6l3.1,7h-1.7L342.9,292.9z M342.4,291.7l-1.1-2.7l-1.1,2.7H342.4z"/>
	<path d="M347.2,294c-0.6-0.3-1-0.7-1.4-1.3c-0.3-0.6-0.5-1.2-0.5-1.9s0.2-1.3,0.5-1.9c0.3-0.5,0.8-1,1.4-1.3s1.2-0.5,1.9-0.5
		c0.6,0,1.2,0.1,1.6,0.3s0.9,0.5,1.2,0.9l-1,1c-0.5-0.5-1.1-0.8-1.8-0.8c-0.4,0-0.8,0.1-1.2,0.3c-0.3,0.2-0.6,0.5-0.8,0.8
		c-0.2,0.3-0.3,0.7-0.3,1.2s0.1,0.8,0.3,1.2c0.2,0.3,0.5,0.6,0.8,0.8c0.3,0.2,0.7,0.3,1.2,0.3c0.7,0,1.3-0.3,1.8-0.8l1,1
		c-0.3,0.4-0.7,0.7-1.2,0.9c-0.5,0.2-1,0.3-1.7,0.3C348.5,294.5,347.8,294.3,347.2,294z"/>
	<path d="M359.5,287.4v7h-1.6v-2.9h-3.2v2.9h-1.6v-7h1.6v2.8h3.2v-2.8H359.5z"/>
	<path d="M365.5,288.7h-2.2v-1.3h6.1v1.3h-2.2v5.7h-1.6L365.5,288.7L365.5,288.7z"/>
	<path d="M371.5,294c-0.6-0.3-1-0.7-1.4-1.3c-0.3-0.6-0.5-1.2-0.5-1.9s0.2-1.3,0.5-1.9c0.3-0.5,0.8-1,1.4-1.3s1.2-0.5,2-0.5
		s1.4,0.2,2,0.5s1,0.7,1.4,1.3c0.3,0.6,0.5,1.2,0.5,1.9s-0.2,1.3-0.5,1.9c-0.3,0.5-0.8,1-1.4,1.3s-1.2,0.5-2,0.5
		S372.1,294.3,371.5,294z M374.6,292.8c0.3-0.2,0.6-0.5,0.8-0.8s0.3-0.7,0.3-1.2s-0.1-0.8-0.3-1.2s-0.5-0.6-0.8-0.8
		s-0.7-0.3-1.1-0.3s-0.8,0.1-1.1,0.3c-0.3,0.2-0.6,0.5-0.8,0.8c-0.2,0.3-0.3,0.7-0.3,1.2s0.1,0.8,0.3,1.2c0.2,0.3,0.5,0.6,0.8,0.8
		c0.3,0.2,0.7,0.3,1.1,0.3S374.2,293,374.6,292.8z"/>
	<path d="M381.4,287.4h3.2c0.8,0,1.4,0.1,2,0.4s1,0.7,1.4,1.2c0.3,0.5,0.5,1.1,0.5,1.8s-0.2,1.3-0.5,1.8s-0.8,0.9-1.4,1.2
		c-0.6,0.3-1.3,0.4-2,0.4h-3.2V287.4z M384.5,293.1c0.7,0,1.3-0.2,1.7-0.6c0.4-0.4,0.6-0.9,0.6-1.6s-0.2-1.2-0.6-1.6s-1-0.6-1.7-0.6
		H383v4.3h1.5V293.1z"/>
	<path d="M389.6,287.4h1.6v7h-1.6V287.4z"/>
	<path d="M397.6,290.8h1.5v2.8c-0.4,0.3-0.8,0.5-1.3,0.7s-1,0.2-1.5,0.2c-0.7,0-1.4-0.2-2-0.5s-1-0.7-1.4-1.3
		c-0.3-0.6-0.5-1.2-0.5-1.9s0.2-1.3,0.5-1.9c0.3-0.5,0.8-1,1.4-1.3s1.2-0.5,2-0.5c0.6,0,1.2,0.1,1.7,0.3c0.5,0.2,0.9,0.5,1.3,0.9
		l-1,1c-0.5-0.5-1.1-0.8-1.8-0.8c-0.4,0-0.8,0.1-1.2,0.3s-0.6,0.5-0.8,0.8s-0.3,0.7-0.3,1.2c0,0.4,0.1,0.8,0.3,1.2s0.5,0.6,0.8,0.8
		s0.7,0.3,1.2,0.3s0.9-0.1,1.3-0.3v-2L397.6,290.8L397.6,290.8z"/>
	<path d="M400.6,287.4h1.6v7h-1.6V287.4z"/>
	<path d="M405.4,288.7h-2.2v-1.3h6.1v1.3H407v5.7h-1.6L405.4,288.7L405.4,288.7z"/>
	<path d="M414.4,292.9h-3.2l-0.6,1.5h-1.7l3.1-7h1.6l3.1,7h-1.7L414.4,292.9z M413.9,291.7l-1.1-2.7l-1.1,2.7H413.9z"/>
	<path d="M417.5,287.4h1.6v5.7h3.5v1.3h-5.1V287.4z"/>
	<path d="M430.9,292.9h-3.2l-0.6,1.5h-1.7l3.1-7h1.6l3.1,7h-1.7L430.9,292.9z M430.4,291.7l-1.1-2.7l-1.1,2.7H430.4z"/>
	<path d="M438.4,294.4l-1.3-2H437h-1.4v2H434v-7h3c0.6,0,1.2,0.1,1.6,0.3c0.5,0.2,0.8,0.5,1.1,0.9c0.2,0.4,0.4,0.8,0.4,1.4
		s-0.1,1-0.4,1.3s-0.6,0.7-1.1,0.9l1.6,2.2L438.4,294.4L438.4,294.4z M438,289c-0.3-0.2-0.6-0.3-1.1-0.3h-1.3v2.4h1.3
		c0.5,0,0.9-0.1,1.1-0.3c0.3-0.2,0.4-0.5,0.4-0.9C438.4,289.5,438.2,289.2,438,289z"/>
	<path d="M442.8,294c-0.6-0.3-1-0.7-1.4-1.3c-0.3-0.6-0.5-1.2-0.5-1.9s0.2-1.3,0.5-1.9c0.3-0.5,0.8-1,1.4-1.3s1.2-0.5,1.9-0.5
		c0.6,0,1.2,0.1,1.6,0.3s0.9,0.5,1.2,0.9l-1,1c-0.5-0.5-1.1-0.8-1.8-0.8c-0.4,0-0.8,0.1-1.2,0.3c-0.3,0.2-0.6,0.5-0.8,0.8
		c-0.2,0.3-0.3,0.7-0.3,1.2s0.1,0.8,0.3,1.2c0.2,0.3,0.5,0.6,0.8,0.8c0.3,0.2,0.7,0.3,1.2,0.3c0.7,0,1.3-0.3,1.8-0.8l1,1
		c-0.3,0.4-0.7,0.7-1.2,0.9c-0.5,0.2-1,0.3-1.7,0.3C444,294.5,443.2,294.3,442.8,294z"/>
	<path d="M455,287.4v7h-1.6v-2.9h-3.2v2.9h-1.6v-7h1.6v2.8h3.2v-2.8H455z"/>
	<path d="M456.6,287.4h1.6v7h-1.6V287.4z"/>
	<path d="M461.5,288.7h-2.2v-1.3h6.1v1.3h-2.2v5.7h-1.6L461.5,288.7L461.5,288.7z"/>
	<path d="M471.5,293.1v1.3h-5.4v-7h5.3v1.3h-3.7v1.5h3.2v1.3h-3.2v1.6L471.5,293.1L471.5,293.1z"/>
	<path d="M474.2,294c-0.6-0.3-1-0.7-1.4-1.3c-0.3-0.6-0.5-1.2-0.5-1.9s0.2-1.3,0.5-1.9c0.3-0.5,0.8-1,1.4-1.3s1.2-0.5,1.9-0.5
		c0.6,0,1.2,0.1,1.6,0.3s0.9,0.5,1.2,0.9l-1,1c-0.5-0.5-1.1-0.8-1.8-0.8c-0.4,0-0.8,0.1-1.2,0.3c-0.3,0.2-0.6,0.5-0.8,0.8
		c-0.2,0.3-0.3,0.7-0.3,1.2s0.1,0.8,0.3,1.2c0.2,0.3,0.5,0.6,0.8,0.8c0.3,0.2,0.7,0.3,1.2,0.3c0.7,0,1.3-0.3,1.8-0.8l1,1
		c-0.3,0.4-0.7,0.7-1.2,0.9c-0.5,0.2-1,0.3-1.7,0.3C475.5,294.5,474.9,294.3,474.2,294z"/>
	<path d="M481.5,288.7h-2.2v-1.3h6.1v1.3h-2.2v5.7h-1.6L481.5,288.7L481.5,288.7z"/>
	<path d="M487,293.7c-0.6-0.6-0.8-1.3-0.8-2.4v-3.9h1.6v3.9c0,1.3,0.5,1.9,1.6,1.9c0.5,0,0.9-0.2,1.2-0.5s0.4-0.8,0.4-1.4v-3.9h1.6
		v3.9c0,1-0.3,1.8-0.8,2.4s-1.3,0.8-2.3,0.8S487.5,294.2,487,293.7z"/>
	<path d="M498.5,294.4l-1.3-2h-0.1h-1.4v2h-1.6v-7h3c0.6,0,1.2,0.1,1.6,0.3c0.5,0.2,0.8,0.5,1.1,0.9c0.2,0.4,0.4,0.8,0.4,1.4
		s-0.1,1-0.4,1.3s-0.6,0.7-1.1,0.9l1.6,2.2L498.5,294.4L498.5,294.4z M498,289c-0.3-0.2-0.6-0.3-1.1-0.3h-1.3v2.4h1.3
		c0.5,0,0.9-0.1,1.1-0.3c0.3-0.2,0.4-0.5,0.4-0.9C498.5,289.5,498.4,289.2,498,289z"/>
	<path d="M506.9,293.1v1.3h-5.4v-7h5.3v1.3H503v1.5h3.2v1.3H503v1.6L506.9,293.1L506.9,293.1z"/>
	<path d="M515.5,292.9h-3.2l-0.6,1.5H510l3.1-7h1.6l3.1,7h-1.7L515.5,292.9z M515,291.7l-1.1-2.7l-1.1,2.7H515z"/>
	<path d="M525,287.4v7h-1.3l-3.5-4.2v4.2h-1.6v-7h1.3l3.5,4.2v-4.2H525z"/>
	<path d="M526.7,287.4h3.2c0.8,0,1.4,0.1,2,0.4s1,0.7,1.4,1.2c0.3,0.5,0.5,1.1,0.5,1.8s-0.2,1.3-0.5,1.8s-0.8,0.9-1.4,1.2
		c-0.6,0.3-1.3,0.4-2,0.4h-3.2V287.4z M529.8,293.1c0.7,0,1.3-0.2,1.7-0.6s0.6-0.9,0.6-1.6s-0.2-1.2-0.6-1.6c-0.4-0.4-1-0.6-1.7-0.6
		h-1.5v4.3h1.5V293.1z"/>
	<path d="M539.2,294c-0.6-0.3-1-0.7-1.4-1.3c-0.3-0.6-0.5-1.2-0.5-1.9s0.2-1.3,0.5-1.9c0.3-0.5,0.8-1,1.4-1.3
		c0.6-0.3,1.2-0.5,1.9-0.5c0.6,0,1.2,0.1,1.6,0.3s0.9,0.5,1.2,0.9l-1,1c-0.5-0.5-1.1-0.8-1.8-0.8c-0.4,0-0.8,0.1-1.2,0.3
		c-0.3,0.2-0.6,0.5-0.8,0.8s-0.3,0.7-0.3,1.2s0.1,0.8,0.3,1.2c0.2,0.3,0.5,0.6,0.8,0.8c0.3,0.2,0.7,0.3,1.2,0.3
		c0.7,0,1.3-0.3,1.8-0.8l1,1c-0.3,0.4-0.7,0.7-1.2,0.9c-0.5,0.2-1,0.3-1.7,0.3C540.5,294.5,539.8,294.3,539.2,294z"/>
	<path d="M546.3,294c-0.6-0.3-1-0.7-1.4-1.3c-0.3-0.6-0.5-1.2-0.5-1.9s0.2-1.3,0.5-1.9c0.3-0.5,0.8-1,1.4-1.3c0.6-0.3,1.2-0.5,2-0.5
		s1.4,0.2,2,0.5s1,0.7,1.4,1.3c0.3,0.6,0.5,1.2,0.5,1.9s-0.2,1.3-0.5,1.9c-0.3,0.5-0.8,1-1.4,1.3c-0.6,0.3-1.2,0.5-2,0.5
		S547,294.3,546.3,294z M549.5,292.8c0.3-0.2,0.6-0.5,0.8-0.8s0.3-0.7,0.3-1.2s-0.1-0.8-0.3-1.2s-0.5-0.6-0.8-0.8s-0.7-0.3-1.1-0.3
		s-0.8,0.1-1.1,0.3c-0.3,0.2-0.6,0.5-0.8,0.8s-0.3,0.7-0.3,1.2s0.1,0.8,0.3,1.2c0.2,0.3,0.5,0.6,0.8,0.8c0.3,0.2,0.7,0.3,1.1,0.3
		S549.2,293,549.5,292.8z"/>
	<path d="M559.8,287.4v7h-1.3l-3.5-4.2v4.2h-1.6v-7h1.3l3.5,4.2v-4.2H559.8z"/>
	<path d="M563,288.7h-2.2v-1.3h6.1v1.3h-2.2v5.7H563L563,288.7L563,288.7z"/>
	<path d="M573,293.1v1.3h-5.4v-7h5.3v1.3h-3.7v1.5h3.2v1.3h-3.2v1.6L573,293.1L573,293.1z"/>
	<path d="M580.8,287.4v7h-1.3l-3.5-4.2v4.2h-1.6v-7h1.3l3.5,4.2v-4.2H580.8z"/>
	<path d="M583.8,288.7h-2.2v-1.3h6.1v1.3h-2.2v5.7h-1.6L583.8,288.7L583.8,288.7z"/>
	<path d="M280.4,311.4v7h-1.6v-2.9h-3.2v2.9h-1.6v-7h1.6v2.8h3.2v-2.8H280.4z"/>
	<path d="M283.5,318c-0.6-0.3-1-0.7-1.4-1.3c-0.3-0.6-0.5-1.2-0.5-1.9s0.2-1.3,0.5-1.9c0.3-0.5,0.8-1,1.4-1.3s1.2-0.5,2-0.5
		c0.7,0,1.4,0.2,2,0.5s1,0.7,1.4,1.3c0.3,0.6,0.5,1.2,0.5,1.9s-0.2,1.3-0.5,1.9c-0.3,0.5-0.8,1-1.4,1.3s-1.2,0.5-2,0.5
		C284.6,318.5,284,318.3,283.5,318z M286.5,316.8c0.3-0.2,0.6-0.5,0.8-0.8s0.3-0.7,0.3-1.2s-0.1-0.8-0.3-1.2s-0.5-0.6-0.8-0.8
		s-0.7-0.3-1.1-0.3s-0.8,0.1-1.1,0.3c-0.3,0.2-0.6,0.5-0.8,0.8s-0.3,0.7-0.3,1.2s0.1,0.8,0.3,1.2s0.5,0.6,0.8,0.8
		c0.3,0.2,0.7,0.3,1.1,0.3C285.9,317.1,286.2,317,286.5,316.8z"/>
	<path d="M300.9,311.4l-2.3,7h-1.8l-1.5-4.7l-1.6,4.7h-1.7l-2.3-7h1.7l1.6,4.9l1.6-4.9h1.5l1.6,5l1.6-5H300.9z"/>
	<path d="M306.1,312.7h-2.2v-1.3h6.1v1.3h-2.3v5.7h-1.6V312.7z"/>
	<path d="M312.2,318c-0.6-0.3-1-0.7-1.4-1.3c-0.3-0.6-0.5-1.2-0.5-1.9s0.2-1.3,0.5-1.9c0.3-0.5,0.8-1,1.4-1.3s1.2-0.5,2-0.5
		s1.4,0.2,2,0.5s1,0.7,1.4,1.3c0.3,0.6,0.5,1.2,0.5,1.9s-0.2,1.3-0.5,1.9c-0.3,0.5-0.8,1-1.4,1.3s-1.2,0.5-2,0.5
		S312.8,318.3,312.2,318z M315.2,316.8c0.3-0.2,0.6-0.5,0.8-0.8s0.3-0.7,0.3-1.2s-0.1-0.8-0.3-1.2s-0.5-0.6-0.8-0.8
		s-0.7-0.3-1.1-0.3s-0.8,0.1-1.1,0.3c-0.3,0.2-0.6,0.5-0.8,0.8c-0.2,0.3-0.3,0.7-0.3,1.2s0.1,0.8,0.3,1.2c0.2,0.3,0.5,0.6,0.8,0.8
		c0.3,0.2,0.7,0.3,1.1,0.3S315,317,315.2,316.8z"/>
	<path d="M326.5,318.4l-1.3-2h-0.1h-1.4v2h-1.6v-7h3c0.6,0,1.2,0.1,1.6,0.3c0.5,0.2,0.8,0.5,1.1,0.9c0.2,0.4,0.4,0.8,0.4,1.4
		s-0.1,1-0.4,1.3s-0.6,0.7-1.1,0.9l1.6,2.2L326.5,318.4L326.5,318.4z M326.1,313c-0.3-0.2-0.6-0.3-1.1-0.3h-1.3v2.4h1.3
		c0.5,0,0.9-0.1,1.1-0.3c0.3-0.2,0.4-0.5,0.4-0.9C326.5,313.5,326.4,313.2,326.1,313z"/>
	<path d="M334.9,317.1v1.3h-5.4v-7h5.3v1.3H331v1.5h3.2v1.3H331v1.6L334.9,317.1L334.9,317.1z"/>
	<path d="M340.8,316.9h-3.2l-0.6,1.5h-1.7l3.1-7h1.6l3.1,7h-1.7L340.8,316.9z M340.2,315.7l-1.1-2.7l-1.1,2.7H340.2z"/>
	<path d="M345,318c-0.6-0.3-1-0.7-1.4-1.3c-0.3-0.6-0.5-1.2-0.5-1.9s0.2-1.3,0.5-1.9c0.3-0.5,0.8-1,1.4-1.3s1.2-0.5,1.9-0.5
		c0.6,0,1.2,0.1,1.6,0.3s0.9,0.5,1.2,0.9l-1,1c-0.5-0.5-1.1-0.8-1.8-0.8c-0.4,0-0.8,0.1-1.2,0.3c-0.3,0.2-0.6,0.5-0.8,0.8
		c-0.2,0.3-0.3,0.7-0.3,1.2s0.1,0.8,0.3,1.2c0.2,0.3,0.5,0.6,0.8,0.8c0.3,0.2,0.7,0.3,1.2,0.3c0.7,0,1.3-0.3,1.8-0.8l1,1
		c-0.3,0.4-0.7,0.7-1.2,0.9c-0.5,0.2-1,0.3-1.7,0.3C346.4,318.5,345.6,318.3,345,318z"/>
	<path d="M357.5,311.4v7h-1.6v-2.9h-3.2v2.9H351v-7h1.6v2.8h3.2v-2.8H357.5z"/>
	<path d="M363.4,312.7h-2.2v-1.3h6.1v1.3H365v5.7h-1.6L363.4,312.7L363.4,312.7z"/>
	<path d="M374.5,311.4v7h-1.6v-2.9h-3.2v2.9h-1.6v-7h1.6v2.8h3.2v-2.8H374.5z"/>
	<path d="M381.5,317.1v1.3h-5.4v-7h5.3v1.3h-3.7v1.5h3.2v1.3h-3.2v1.6L381.5,317.1L381.5,317.1z"/>
	<path d="M390.1,318.4l-1.3-2h-0.1h-1.4v2h-1.6v-7h3c0.6,0,1.2,0.1,1.6,0.3c0.5,0.2,0.8,0.5,1.1,0.9c0.2,0.4,0.4,0.8,0.4,1.4
		s-0.1,1-0.4,1.3s-0.6,0.7-1.1,0.9l1.6,2.2L390.1,318.4L390.1,318.4z M389.8,313c-0.3-0.2-0.6-0.3-1.1-0.3h-1.3v2.4h1.3
		c0.5,0,0.9-0.1,1.1-0.3c0.3-0.2,0.4-0.5,0.4-0.9C390.1,313.5,390,313.2,389.8,313z"/>
	<path d="M393,311.4h1.6v7H393V311.4z"/>
	<path d="M401,314.8h1.5v2.8c-0.4,0.3-0.8,0.5-1.3,0.7s-1,0.2-1.5,0.2c-0.7,0-1.4-0.2-2-0.5s-1-0.7-1.4-1.3
		c-0.3-0.6-0.5-1.2-0.5-1.9s0.2-1.3,0.5-1.9c0.3-0.5,0.8-1,1.4-1.3s1.2-0.5,2-0.5c0.6,0,1.2,0.1,1.7,0.3c0.5,0.2,0.9,0.5,1.3,0.9
		l-1,1c-0.5-0.5-1.1-0.8-1.8-0.8c-0.4,0-0.8,0.1-1.2,0.3s-0.6,0.5-0.8,0.8s-0.3,0.7-0.3,1.2c0,0.4,0.1,0.8,0.3,1.2s0.5,0.6,0.8,0.8
		s0.7,0.3,1.2,0.3s0.9-0.1,1.3-0.3v-2L401,314.8L401,314.8z"/>
	<path d="M410.5,311.4v7h-1.6v-2.9h-3.2v2.9H404v-7h1.6v2.8h3.2v-2.8H410.5z"/>
	<path d="M413.5,312.7h-2.2v-1.3h6.1v1.3h-2.2v5.7h-1.6L413.5,312.7L413.5,312.7z"/>
	<path d="M422.5,318c-0.6-0.3-1-0.7-1.4-1.3c-0.3-0.6-0.5-1.2-0.5-1.9s0.2-1.3,0.5-1.9c0.3-0.5,0.8-1,1.4-1.3s1.2-0.5,1.9-0.5
		c0.6,0,1.2,0.1,1.6,0.3s0.9,0.5,1.2,0.9l-1,1c-0.5-0.5-1.1-0.8-1.8-0.8c-0.4,0-0.8,0.1-1.2,0.3c-0.3,0.2-0.6,0.5-0.8,0.8
		c-0.2,0.3-0.3,0.7-0.3,1.2s0.1,0.8,0.3,1.2c0.2,0.3,0.5,0.6,0.8,0.8c0.3,0.2,0.7,0.3,1.2,0.3c0.7,0,1.3-0.3,1.8-0.8l1,1
		c-0.3,0.4-0.7,0.7-1.2,0.9c-0.5,0.2-1,0.3-1.7,0.3C423.8,318.5,423.1,318.3,422.5,318z"/>
	<path d="M429.8,318c-0.6-0.3-1-0.7-1.4-1.3c-0.3-0.6-0.5-1.2-0.5-1.9s0.2-1.3,0.5-1.9c0.3-0.5,0.8-1,1.4-1.3s1.2-0.5,2-0.5
		s1.4,0.2,2,0.5s1,0.7,1.4,1.3c0.3,0.6,0.5,1.2,0.5,1.9s-0.2,1.3-0.5,1.9c-0.3,0.5-0.8,1-1.4,1.3s-1.2,0.5-2,0.5
		S430.4,318.3,429.8,318z M432.9,316.8c0.3-0.2,0.6-0.5,0.8-0.8s0.3-0.7,0.3-1.2s-0.1-0.8-0.3-1.2s-0.5-0.6-0.8-0.8
		s-0.7-0.3-1.1-0.3s-0.8,0.1-1.1,0.3c-0.3,0.2-0.6,0.5-0.8,0.8c-0.2,0.3-0.3,0.7-0.3,1.2s0.1,0.8,0.3,1.2c0.2,0.3,0.5,0.6,0.8,0.8
		c0.3,0.2,0.7,0.3,1.1,0.3S432.5,317,432.9,316.8z"/>
	<path d="M443.1,311.4v7h-1.3l-3.5-4.2v4.2h-1.6v-7h1.3l3.5,4.2v-4.2H443.1z"/>
	<path d="M445.5,318.3c-0.5-0.1-0.9-0.3-1.2-0.6l0.5-1.2c0.3,0.2,0.7,0.4,1.1,0.5s0.8,0.2,1.2,0.2c0.5,0,0.8-0.1,1-0.2
		s0.3-0.3,0.3-0.5s-0.1-0.3-0.2-0.4s-0.3-0.2-0.5-0.3c-0.2-0.1-0.5-0.1-0.8-0.2c-0.5-0.1-1-0.3-1.3-0.4s-0.6-0.3-0.9-0.6
		c-0.2-0.3-0.4-0.7-0.4-1.1s0.1-0.8,0.3-1.1s0.6-0.6,1-0.8s1-0.3,1.6-0.3c0.4,0,0.9,0.1,1.3,0.2s0.8,0.3,1.1,0.5l-0.5,1.2
		c-0.6-0.4-1.3-0.6-1.9-0.6c-0.5,0-0.8,0.1-1,0.2s-0.3,0.3-0.3,0.6s0.1,0.4,0.4,0.5c0.2,0.1,0.6,0.2,1.1,0.3c0.5,0.1,1,0.3,1.3,0.4
		s0.6,0.3,0.9,0.6c0.2,0.3,0.4,0.6,0.4,1.1c0,0.4-0.1,0.8-0.3,1.1c-0.2,0.3-0.6,0.6-1,0.8c-0.4,0.2-1,0.3-1.6,0.3
		S446,318.4,445.5,318.3z"/>
	<path d="M452,317.7c-0.6-0.6-0.8-1.3-0.8-2.4v-3.9h1.6v3.9c0,1.3,0.5,1.9,1.6,1.9c0.5,0,0.9-0.2,1.2-0.5s0.4-0.8,0.4-1.4v-3.9h1.6
		v3.9c0,1-0.3,1.8-0.8,2.4s-1.3,0.8-2.3,0.8S452.5,318.2,452,317.7z"/>
	<path d="M465.5,318.4v-4.2l-2.1,3.5h-0.7l-2.1-3.4v4.1H459v-7h1.3l2.6,4.3l2.6-4.3h1.3v7H465.5z"/>
	<path d="M474,317.1v1.3h-5.4v-7h5.3v1.3h-3.7v1.5h3.2v1.3h-3.2v1.6L474,317.1L474,317.1z"/>
	<path d="M479.9,318.4l-1.3-2h-0.1h-1.4v2h-1.6v-7h3c0.6,0,1.2,0.1,1.6,0.3c0.5,0.2,0.8,0.5,1.1,0.9c0.2,0.4,0.4,0.8,0.4,1.4
		s-0.1,1-0.4,1.3s-0.6,0.7-1.1,0.9l1.6,2.2L479.9,318.4L479.9,318.4z M479.5,313c-0.3-0.2-0.6-0.3-1.1-0.3h-1.3v2.4h1.3
		c0.5,0,0.9-0.1,1.1-0.3c0.3-0.2,0.4-0.5,0.4-0.9C479.8,313.5,479.6,313.2,479.5,313z"/>
	<path d="M490.1,316.9h-3.2l-0.6,1.5h-1.7l3.1-7h1.6l3.1,7h-1.7L490.1,316.9z M489.6,315.7l-1.1-2.7l-1.1,2.7H489.6z"/>
	<path d="M494.2,312.7H492v-1.3h6.1v1.3h-2.2v5.7h-1.6L494.2,312.7L494.2,312.7z"/>
	<path d="M503.4,312.7h-2.2v-1.3h6.1v1.3H505v5.7h-1.6L503.4,312.7L503.4,312.7z"/>
	<path d="M514.5,311.4v7h-1.6v-2.9h-3.2v2.9H508v-7h1.6v2.8h3.2v-2.8H514.5z"/>
	<path d="M521.5,317.1v1.3h-5.4v-7h5.3v1.3h-3.7v1.5h3.2v1.3h-3.2v1.6L521.5,317.1L521.5,317.1z"/>
	<path d="M530.2,318.4l-1.3-2h-0.1h-1.4v2h-1.6v-7h3c0.6,0,1.2,0.1,1.6,0.3c0.5,0.2,0.8,0.5,1.1,0.9c0.2,0.4,0.4,0.8,0.4,1.4
		s-0.1,1-0.4,1.3s-0.6,0.7-1.1,0.9l1.6,2.2L530.2,318.4L530.2,318.4z M529.8,313c-0.3-0.2-0.6-0.3-1.1-0.3h-1.3v2.4h1.3
		c0.5,0,0.9-0.1,1.1-0.3c0.3-0.2,0.4-0.5,0.4-0.9C530,313.5,530,313.2,529.8,313z"/>
	<path d="M533,311.4h1.6v7H533V311.4z"/>
	<path d="M541,314.8h1.5v2.8c-0.4,0.3-0.8,0.5-1.3,0.7s-1,0.2-1.5,0.2c-0.7,0-1.4-0.2-2-0.5s-1-0.7-1.4-1.3
		c-0.3-0.6-0.5-1.2-0.5-1.9s0.2-1.3,0.5-1.9c0.3-0.5,0.8-1,1.4-1.3c0.6-0.3,1.2-0.5,2-0.5c0.6,0,1.2,0.1,1.7,0.3
		c0.5,0.2,0.9,0.5,1.3,0.9l-1,1c-0.5-0.5-1.1-0.8-1.8-0.8c-0.4,0-0.8,0.1-1.2,0.3s-0.6,0.5-0.8,0.8s-0.3,0.7-0.3,1.2
		c0,0.4,0.1,0.8,0.3,1.2s0.5,0.6,0.8,0.8s0.7,0.3,1.2,0.3s0.9-0.1,1.3-0.3v-2L541,314.8L541,314.8z"/>
	<path d="M550.5,311.4v7h-1.7v-2.9h-3.2v2.9H544v-7h1.6v2.8h3.2v-2.8H550.5z"/>
	<path d="M553.5,312.7h-2.2v-1.3h6.1v1.3h-2.2v5.7h-1.6L553.5,312.7L553.5,312.7z"/>
	<path d="M562.5,312.7h-2.2v-1.3h6.1v1.3h-2.2v5.7h-1.6L562.5,312.7L562.5,312.7z"/>
	<path d="M567.2,311.4h1.6v7h-1.6V311.4z"/>
	<path d="M577,318.4v-4.2l-2.1,3.5h-0.7l-2.1-3.4v4.1h-1.5v-7h1.3l2.6,4.3l2.6-4.3h1.3v7H577z"/>
	<path d="M585.5,317.1v1.3h-5.4v-7h5.3v1.3h-3.7v1.5h3.2v1.3h-3.2v1.6L585.5,317.1L585.5,317.1z"/>
</g>
<circle class="st3" cx="265.3" cy="267.1" r="0.9"/>
<circle class="st3" cx="265.4" cy="290.9" r="0.9"/>
<circle class="st3" cx="265.6" cy="314.8" r="0.9"/>
</svg>
