<?xml version="1.0" encoding="utf-8"?>
<!-- Generator: Adobe Illustrator 22.1.0, SVG Export Plug-In . SVG Version: 6.00 Build 0)  -->
<svg version="1.1" id="Layer_1" xmlns="http://www.w3.org/2000/svg" xmlns:xlink="http://www.w3.org/1999/xlink" x="0px" y="0px"
	 viewBox="0 0 300 300" style="enable-background:new 0 0 300 300;" xml:space="preserve">
<style type="text/css">
	.st0{fill:url(#SVGID_1_);}
	.st1{fill:url(#SVGID_2_);}
</style>
<g>
	
		<linearGradient id="SVGID_1_" gradientUnits="userSpaceOnUse" x1="34.2256" y1="126.9326" x2="157.4852" y2="251.9285" gradientTransform="matrix(1 0 0 -1 0 302)">
		<stop  offset="0" style="stop-color:#EC758E"/>
		<stop  offset="1" style="stop-color:#DC002E"/>
	</linearGradient>
	<path class="st0" d="M187.3,112c0-0.8,0-1.6,0-2.4V7c0-2.4-2-4-4-4h-67.3c-2.4,0-4,2-4,4v100.7c0,2.4-2,4-4,4H7.5c-2.4,0-4,2-4,4
		v67.3c0,2.4,2,4,4,4h102.7c1.2,0,2,0,3.2,0C113.7,146.3,146.4,113.6,187.3,112z"/>
	
		<linearGradient id="SVGID_2_" gradientUnits="userSpaceOnUse" x1="264.7006" y1="170.8479" x2="122.3442" y2="38.9079" gradientTransform="matrix(1 0 0 -1 0 302)">
		<stop  offset="0" style="stop-color:#B1B3B3"/>
		<stop  offset="1" style="stop-color:#3D3F3F"/>
	</linearGradient>
	<path class="st1" d="M292.8,111.6H190.1c-1.2,0-2,0-3.2,0c-1.2,41-33.8,73.6-74.4,75.6c0,0.8,0,1.6,0,2.4v102.7c0,2.4,2,4,4,4h67.3
		c2.4,0,4-2,4-4V191.6c0-2.4,2-4,4-4h100.7c2.4,0,4-2,4-4V116C297.2,113.6,295.2,111.6,292.8,111.6z"/>
	<path d="M187.3,112c-40.6,1.6-73.2,34.6-74.4,75.6C153.5,185.7,186.1,152.6,187.3,112z"/>
</g>
</svg>
