<?xml version="1.0" encoding="utf-8"?>
<!-- Generator: Adobe Illustrator 22.1.0, SVG Export Plug-In . SVG Version: 6.00 Build 0)  -->
<svg version="1.1" id="Layer_1" xmlns="http://www.w3.org/2000/svg" xmlns:xlink="http://www.w3.org/1999/xlink" x="0px" y="0px"
	 viewBox="0 0 600 400" style="enable-background:new 0 0 600 400;" xml:space="preserve">
<style type="text/css">
	.st0{fill:none;stroke:#FFFFFF;stroke-miterlimit:10;}
	.st1{fill:#231F20;stroke:#FFFFFF;stroke-miterlimit:10;}
	.st2{fill:none;}
	.st3{enable-background:new    ;}
	.st4{fill:#FFFFFF;}
</style>
<circle class="st0" cx="289.9" cy="195" r="134"/>
<circle class="st1" cx="159.3" cy="194.6" r="41"/>
<rect x="132.9" y="214.8" class="st2" width="64.7" height="36.5"/>
<g class="st3">
	<path class="st4" d="M137.8,219.5v1h-4.2v-5.4h4.1v1h-2.8v1.2h2.5v1h-2.5v1.2H137.8z"/>
	<path class="st4" d="M141.2,220.5l-0.9-1.3l-0.9,1.3h-1.3l1.6-2.1l-1.5-2.1h1.3l0.9,1.2l0.9-1.2h1.3l-1.5,2l1.6,2.1H141.2z"/>
	<path class="st4" d="M146.7,216.6c0.3,0.2,0.6,0.4,0.7,0.7c0.2,0.3,0.3,0.7,0.3,1.1s-0.1,0.8-0.3,1.1c-0.2,0.3-0.4,0.6-0.7,0.7
		c-0.3,0.2-0.7,0.3-1,0.3c-0.5,0-0.9-0.2-1.2-0.5v1.9h-1.2v-5.6h1.1v0.5c0.3-0.4,0.7-0.5,1.3-0.5C146,216.3,146.4,216.4,146.7,216.6
		z M146.2,219.3c0.2-0.2,0.3-0.5,0.3-0.8s-0.1-0.6-0.3-0.8c-0.2-0.2-0.4-0.3-0.8-0.3s-0.6,0.1-0.8,0.3c-0.2,0.2-0.3,0.5-0.3,0.8
		s0.1,0.6,0.3,0.8c0.2,0.2,0.5,0.3,0.8,0.3S146,219.5,146.2,219.3z"/>
	<path class="st4" d="M152.5,218.8h-3.1c0.1,0.3,0.2,0.5,0.4,0.6c0.2,0.1,0.5,0.2,0.8,0.2c0.2,0,0.4,0,0.6-0.1
		c0.2-0.1,0.3-0.2,0.5-0.3l0.6,0.7c-0.4,0.4-1,0.7-1.7,0.7c-0.5,0-0.9-0.1-1.2-0.3c-0.4-0.2-0.6-0.4-0.8-0.8s-0.3-0.7-0.3-1.1
		c0-0.4,0.1-0.8,0.3-1.1c0.2-0.3,0.5-0.6,0.8-0.8c0.3-0.2,0.7-0.3,1.1-0.3c0.4,0,0.8,0.1,1.1,0.3c0.3,0.2,0.6,0.4,0.8,0.8
		c0.2,0.3,0.3,0.7,0.3,1.1C152.5,218.5,152.5,218.6,152.5,218.8z M149.7,217.4c-0.2,0.2-0.3,0.4-0.3,0.6h2c0-0.3-0.2-0.5-0.3-0.6
		s-0.4-0.2-0.7-0.2C150.1,217.2,149.9,217.3,149.7,217.4z"/>
	<path class="st4" d="M155.1,216.5c0.2-0.1,0.5-0.2,0.8-0.2v1.1c-0.1,0-0.2,0-0.3,0c-0.3,0-0.6,0.1-0.8,0.3s-0.3,0.5-0.3,0.9v2h-1.2
		v-4.1h1.1v0.5C154.6,216.7,154.8,216.6,155.1,216.5z"/>
	<path class="st4" d="M156.7,215.6c-0.1-0.1-0.2-0.3-0.2-0.5s0.1-0.3,0.2-0.5c0.1-0.1,0.3-0.2,0.5-0.2c0.2,0,0.4,0.1,0.5,0.2
		c0.1,0.1,0.2,0.3,0.2,0.5c0,0.2-0.1,0.4-0.2,0.5c-0.1,0.1-0.3,0.2-0.5,0.2C157,215.8,156.8,215.7,156.7,215.6z M156.6,216.4h1.2
		v4.1h-1.2V216.4z"/>
	<path class="st4" d="M163,218.8h-3.1c0.1,0.3,0.2,0.5,0.4,0.6c0.2,0.1,0.5,0.2,0.8,0.2c0.2,0,0.4,0,0.6-0.1
		c0.2-0.1,0.3-0.2,0.5-0.3l0.6,0.7c-0.4,0.4-1,0.7-1.7,0.7c-0.5,0-0.9-0.1-1.2-0.3c-0.4-0.2-0.6-0.4-0.8-0.8s-0.3-0.7-0.3-1.1
		c0-0.4,0.1-0.8,0.3-1.1c0.2-0.3,0.5-0.6,0.8-0.8c0.3-0.2,0.7-0.3,1.1-0.3c0.4,0,0.8,0.1,1.1,0.3c0.3,0.2,0.6,0.4,0.8,0.8
		c0.2,0.3,0.3,0.7,0.3,1.1C163,218.5,163,218.6,163,218.8z M160.2,217.4c-0.2,0.2-0.3,0.4-0.3,0.6h2c0-0.3-0.2-0.5-0.3-0.6
		s-0.4-0.2-0.7-0.2C160.6,217.2,160.3,217.3,160.2,217.4z"/>
	<path class="st4" d="M167.5,216.8c0.3,0.3,0.5,0.8,0.5,1.4v2.4h-1.2v-2.2c0-0.3-0.1-0.6-0.2-0.7c-0.1-0.2-0.4-0.2-0.6-0.2
		c-0.3,0-0.5,0.1-0.7,0.3c-0.2,0.2-0.3,0.5-0.3,0.8v2h-1.2v-4.1h1.1v0.5c0.2-0.2,0.4-0.3,0.6-0.4c0.2-0.1,0.5-0.1,0.8-0.1
		C166.8,216.3,167.2,216.5,167.5,216.8z"/>
	<path class="st4" d="M170,220.3c-0.4-0.2-0.6-0.4-0.8-0.8s-0.3-0.7-0.3-1.1s0.1-0.8,0.3-1.1s0.5-0.6,0.8-0.8
		c0.4-0.2,0.7-0.3,1.2-0.3c0.4,0,0.8,0.1,1.1,0.3c0.3,0.2,0.6,0.4,0.7,0.8l-0.9,0.5c-0.2-0.4-0.5-0.6-0.9-0.6
		c-0.3,0-0.6,0.1-0.8,0.3s-0.3,0.5-0.3,0.8s0.1,0.6,0.3,0.8s0.5,0.3,0.8,0.3c0.4,0,0.7-0.2,0.9-0.6l0.9,0.5
		c-0.1,0.3-0.4,0.6-0.7,0.8s-0.7,0.3-1.1,0.3C170.7,220.6,170.3,220.5,170,220.3z"/>
	<path class="st4" d="M177.7,218.8h-3.1c0.1,0.3,0.2,0.5,0.4,0.6c0.2,0.1,0.5,0.2,0.8,0.2c0.2,0,0.4,0,0.6-0.1
		c0.2-0.1,0.3-0.2,0.5-0.3l0.6,0.7c-0.4,0.4-1,0.7-1.7,0.7c-0.5,0-0.9-0.1-1.2-0.3c-0.4-0.2-0.6-0.4-0.8-0.8s-0.3-0.7-0.3-1.1
		c0-0.4,0.1-0.8,0.3-1.1c0.2-0.3,0.5-0.6,0.8-0.8c0.3-0.2,0.7-0.3,1.1-0.3c0.4,0,0.8,0.1,1.1,0.3c0.3,0.2,0.6,0.4,0.8,0.8
		c0.2,0.3,0.3,0.7,0.3,1.1C177.7,218.5,177.7,218.6,177.7,218.8z M174.9,217.4c-0.2,0.2-0.3,0.4-0.3,0.6h2c0-0.3-0.2-0.5-0.3-0.6
		s-0.4-0.2-0.7-0.2C175.3,217.2,175,217.3,174.9,217.4z"/>
</g>
<rect x="340.8" y="28.7" class="st2" width="147.7" height="45.2"/>
<g class="st3">
	<path class="st4" d="M341.6,36.4v-0.3h1.1v-7h-1.1v-0.3h2.7v0.3h-1.1v3.3h5.1v-3.3h-1.1v-0.3h2.7v0.3h-1.1v7h1.1v0.3h-2.7v-0.3h1.1
		v-3.4h-5.1v3.4h1.1v0.3H341.6z"/>
	<path class="st4" d="M352.3,36.2c-0.4-0.2-0.8-0.6-1-1c-0.2-0.4-0.4-0.9-0.4-1.5c0-0.5,0.1-1,0.4-1.4c0.2-0.4,0.6-0.7,1-1
		c0.4-0.2,0.9-0.3,1.4-0.3c0.5,0,1,0.1,1.5,0.3c0.4,0.2,0.8,0.6,1,1s0.4,0.9,0.4,1.4c0,0.5-0.1,1-0.4,1.5s-0.6,0.8-1,1
		c-0.4,0.2-0.9,0.4-1.5,0.4C353.3,36.6,352.8,36.5,352.3,36.2z M355.1,35.9c0.4-0.2,0.7-0.5,0.9-0.9c0.2-0.4,0.3-0.8,0.3-1.3
		c0-0.5-0.1-0.9-0.3-1.3s-0.5-0.7-0.9-0.9c-0.4-0.2-0.8-0.3-1.3-0.3c-0.5,0-0.9,0.1-1.3,0.3c-0.4,0.2-0.7,0.5-0.9,0.9
		s-0.3,0.8-0.3,1.3c0,0.5,0.1,0.9,0.3,1.3c0.2,0.4,0.5,0.7,0.9,0.9c0.4,0.2,0.8,0.3,1.3,0.3C354.3,36.3,354.7,36.2,355.1,35.9z"/>
	<path class="st4" d="M359.9,36.4l-1.8-5h-0.9v-0.3h2.3v0.3h-1l1.7,4.7l1.7-4.7H361v-0.3h2.3v0.3h-1l1.8,4.7l1.6-4.7h-0.9v-0.3h2.2
		v0.3h-0.9l-1.7,5h-0.5l-1.7-4.7l-1.7,4.7H359.9z"/>
	<path class="st4" d="M377.4,36.1v0.3h-1.3v-0.6c-0.3,0.2-0.6,0.4-0.9,0.5c-0.3,0.1-0.7,0.2-1.1,0.2c-0.5,0-1-0.1-1.4-0.4
		c-0.4-0.2-0.8-0.6-1-1s-0.4-0.9-0.4-1.5c0-0.5,0.1-1,0.4-1.4c0.2-0.4,0.6-0.7,1-1s0.9-0.3,1.4-0.3c0.4,0,0.7,0.1,1.1,0.2
		s0.7,0.3,0.9,0.5V29h-0.9v-0.3h1.3v7.4H377.4z M372,35.1c0.2,0.4,0.5,0.7,0.9,0.9c0.4,0.2,0.8,0.3,1.3,0.3c0.3,0,0.7-0.1,1-0.2
		c0.3-0.1,0.6-0.3,0.9-0.5V32c-0.3-0.3-0.6-0.4-0.9-0.6s-0.7-0.2-1-0.2c-0.5,0-0.9,0.1-1.2,0.3s-0.6,0.5-0.9,0.9
		c-0.2,0.4-0.3,0.8-0.3,1.3C371.7,34.3,371.8,34.7,372,35.1z"/>
	<path class="st4" d="M379.4,36.2c-0.4-0.2-0.8-0.6-1-1c-0.2-0.4-0.4-0.9-0.4-1.5c0-0.5,0.1-1,0.4-1.4c0.2-0.4,0.6-0.7,1-1
		c0.4-0.2,0.9-0.3,1.4-0.3c0.5,0,1,0.1,1.5,0.3c0.4,0.2,0.8,0.6,1,1s0.4,0.9,0.4,1.4c0,0.5-0.1,1-0.4,1.5s-0.6,0.8-1,1
		c-0.4,0.2-0.9,0.4-1.5,0.4C380.3,36.6,379.8,36.5,379.4,36.2z M382.1,35.9c0.4-0.2,0.7-0.5,0.9-0.9c0.2-0.4,0.3-0.8,0.3-1.3
		c0-0.5-0.1-0.9-0.3-1.3s-0.5-0.7-0.9-0.9c-0.4-0.2-0.8-0.3-1.3-0.3c-0.5,0-0.9,0.1-1.3,0.3c-0.4,0.2-0.7,0.5-0.9,0.9
		s-0.3,0.8-0.3,1.3c0,0.5,0.1,0.9,0.3,1.3c0.2,0.4,0.5,0.7,0.9,0.9c0.4,0.2,0.8,0.3,1.3,0.3C381.3,36.3,381.7,36.2,382.1,35.9z"/>
	<path class="st4" d="M394.1,36.1v0.3h-1.3v-0.6c-0.3,0.2-0.6,0.4-0.9,0.5c-0.3,0.1-0.7,0.2-1.1,0.2c-0.5,0-1-0.1-1.4-0.4
		c-0.4-0.2-0.8-0.6-1-1s-0.4-0.9-0.4-1.5c0-0.5,0.1-1,0.4-1.4c0.2-0.4,0.6-0.7,1-1s0.9-0.3,1.4-0.3c0.4,0,0.7,0.1,1.1,0.2
		s0.7,0.3,0.9,0.5V29H392v-0.3h1.3v7.4H394.1z M388.8,35.1c0.2,0.4,0.5,0.7,0.9,0.9c0.4,0.2,0.8,0.3,1.3,0.3c0.3,0,0.7-0.1,1-0.2
		c0.3-0.1,0.6-0.3,0.9-0.5V32c-0.3-0.3-0.6-0.4-0.9-0.6s-0.7-0.2-1-0.2c-0.5,0-0.9,0.1-1.2,0.3s-0.6,0.5-0.9,0.9
		c-0.2,0.4-0.3,0.8-0.3,1.3C388.5,34.3,388.6,34.7,388.8,35.1z"/>
	<path class="st4" d="M399.9,36.1v0.3h-1.1l-0.1-0.5c-0.8,0.5-1.5,0.7-2.1,0.7c-0.5,0-1-0.1-1.3-0.4c-0.3-0.3-0.5-0.7-0.5-1.1
		c0-0.5,0.2-0.9,0.5-1.2s0.8-0.4,1.3-0.4c0.5,0,1.1,0.1,2,0.2v-0.8c0-0.5-0.1-0.9-0.4-1.2c-0.3-0.3-0.7-0.4-1.1-0.4
		c-0.5,0-1.2,0.1-1.8,0.4l-0.1-0.3c0.3-0.1,0.7-0.3,1-0.3c0.3-0.1,0.6-0.1,0.9-0.1c0.7,0,1.2,0.2,1.5,0.5s0.5,0.8,0.5,1.3v3.4H399.9
		z M395.7,35.9c0.3,0.2,0.6,0.4,1,0.4c0.3,0,0.6-0.1,0.9-0.2s0.7-0.3,1.1-0.5v-1.6c-0.8-0.2-1.4-0.2-2-0.2c-0.4,0-0.8,0.1-1.1,0.3
		c-0.3,0.2-0.4,0.5-0.4,1C395.3,35.4,395.4,35.7,395.7,35.9z"/>
	<path class="st4" d="M402,36.1c-0.3-0.2-0.4-0.6-0.4-1.1v-3.6h-1v-0.3h1v-1.8l0.4-0.1v2h1.5v0.3H402v3.5c0,0.4,0.1,0.7,0.3,0.9
		s0.5,0.3,1,0.3h0.5v0.3h-0.6C402.7,36.4,402.3,36.3,402,36.1z"/>
	<path class="st4" d="M409.7,36.1v0.3h-1.1l-0.1-0.5c-0.8,0.5-1.5,0.7-2.1,0.7c-0.5,0-1-0.1-1.3-0.4c-0.3-0.3-0.5-0.7-0.5-1.1
		c0-0.5,0.2-0.9,0.5-1.2c0.3-0.2,0.8-0.4,1.3-0.4c0.5,0,1.1,0.1,2,0.2v-0.8c0-0.5-0.1-0.9-0.4-1.2c-0.3-0.3-0.7-0.4-1.1-0.4
		c-0.5,0-1.2,0.1-1.8,0.4l-0.1-0.3c0.3-0.1,0.7-0.3,1-0.3c0.3-0.1,0.6-0.1,0.9-0.1c0.7,0,1.2,0.2,1.5,0.5c0.3,0.3,0.5,0.8,0.5,1.3
		v3.4H409.7z M405.4,35.9c0.3,0.2,0.6,0.4,1,0.4c0.3,0,0.6-0.1,0.9-0.2c0.3-0.1,0.7-0.3,1.1-0.5v-1.6c-0.8-0.2-1.4-0.2-2-0.2
		c-0.4,0-0.8,0.1-1.1,0.3c-0.3,0.2-0.4,0.5-0.4,1C405,35.4,405.2,35.7,405.4,35.9z"/>
	<path class="st4" d="M413.9,36.4v-0.3h1.2v-4.7H414v-0.3h1.5v5h1.2v0.3H413.9z M414.9,29.7c-0.1-0.1-0.1-0.1-0.1-0.2s0-0.2,0.1-0.2
		c0.1-0.1,0.1-0.1,0.3-0.1c0.1,0,0.2,0,0.3,0.1c0.1,0.1,0.1,0.1,0.1,0.2s0,0.2-0.1,0.2c-0.1,0.1-0.2,0.1-0.3,0.1
		C415.1,29.8,415,29.7,414.9,29.7z"/>
	<path class="st4" d="M427.2,36.1v0.3h-2.5v-0.3h1.1v-3.6c0-0.4-0.1-0.7-0.4-0.9c-0.2-0.2-0.6-0.3-0.9-0.3c-0.3,0-0.7,0.1-1.1,0.2
		c-0.4,0.1-0.8,0.3-1.1,0.5c0.1,0.2,0.1,0.4,0.1,0.6v3.5h1v0.3h-2.5v-0.3h1.1v-3.6c0-0.4-0.1-0.7-0.3-0.9c-0.2-0.2-0.5-0.3-0.9-0.3
		c-0.2,0-0.5,0.1-0.9,0.2c-0.4,0.1-0.8,0.3-1.2,0.5v4.1h1.1v0.3h-2.7v-0.3h1.2v-4.7h-1.1v-0.3h1.5v0.6c0.4-0.2,0.7-0.4,1.1-0.5
		c0.4-0.1,0.7-0.2,1-0.2c0.3,0,0.6,0.1,0.9,0.2c0.2,0.1,0.4,0.3,0.5,0.6c0.4-0.3,0.9-0.5,1.2-0.6c0.4-0.1,0.7-0.2,1.1-0.2
		c0.5,0,0.9,0.1,1.2,0.4c0.3,0.3,0.4,0.7,0.4,1.2v3.5H427.2z"/>
	<path class="st4" d="M432.4,31.3c0.4,0.2,0.7,0.6,0.9,1s0.3,0.9,0.3,1.5c0,0.8-0.2,1.5-0.7,2s-1.1,0.8-1.9,0.8
		c-0.4,0-0.7-0.1-1.1-0.2c-0.4-0.1-0.7-0.3-1-0.6l0,2.4h0.9v0.3h-2.2v-0.3h0.9v-6.8h-0.8v-0.3h1.2v0.6c0.3-0.2,0.6-0.4,1-0.5
		c0.4-0.1,0.7-0.2,1.1-0.2C431.5,31,432,31.1,432.4,31.3z M432.7,35.6c0.4-0.5,0.6-1.1,0.6-1.8c0-0.7-0.2-1.3-0.6-1.8
		c-0.4-0.5-1-0.7-1.7-0.7c-0.3,0-0.7,0.1-1,0.2c-0.4,0.1-0.7,0.3-1,0.5v3.4c0.3,0.3,0.6,0.5,1,0.6s0.7,0.2,1,0.2
		C431.7,36.3,432.2,36,432.7,35.6z"/>
	<path class="st4" d="M439.6,36.1v0.3h-1.1l-0.1-0.5c-0.8,0.5-1.5,0.7-2.1,0.7c-0.5,0-1-0.1-1.3-0.4c-0.3-0.3-0.5-0.7-0.5-1.1
		c0-0.5,0.2-0.9,0.5-1.2s0.8-0.4,1.3-0.4c0.5,0,1.1,0.1,2,0.2v-0.8c0-0.5-0.1-0.9-0.4-1.2c-0.3-0.3-0.7-0.4-1.1-0.4
		c-0.5,0-1.2,0.1-1.8,0.4l-0.1-0.3c0.3-0.1,0.7-0.3,1-0.3c0.3-0.1,0.6-0.1,0.9-0.1c0.7,0,1.2,0.2,1.5,0.5s0.5,0.8,0.5,1.3v3.4H439.6
		z M435.4,35.9c0.3,0.2,0.6,0.4,1,0.4c0.3,0,0.6-0.1,0.9-0.2s0.7-0.3,1.1-0.5v-1.6c-0.8-0.2-1.4-0.2-2-0.2c-0.4,0-0.8,0.1-1.1,0.3
		c-0.3,0.2-0.4,0.5-0.4,1C435,35.4,435.1,35.7,435.4,35.9z"/>
	<path class="st4" d="M445.4,35.6c-0.3,0.3-0.6,0.5-1,0.7c-0.4,0.2-0.8,0.2-1.2,0.2c-0.5,0-1-0.1-1.4-0.4c-0.4-0.2-0.7-0.6-1-1
		s-0.3-0.9-0.3-1.4c0-0.5,0.1-1,0.3-1.4s0.6-0.7,1-1c0.4-0.2,0.9-0.3,1.4-0.3c0.4,0,0.8,0.1,1.1,0.2c0.3,0.2,0.6,0.4,0.7,0.6v-0.8
		h0.4v1.5H445c-0.1-0.4-0.3-0.7-0.6-1c-0.3-0.3-0.8-0.4-1.2-0.4c-0.5,0-0.9,0.1-1.2,0.3c-0.4,0.2-0.6,0.5-0.8,0.9
		c-0.2,0.4-0.3,0.8-0.3,1.3c0,0.5,0.1,0.9,0.3,1.3c0.2,0.4,0.5,0.7,0.8,0.9c0.4,0.2,0.8,0.3,1.2,0.3c0.4,0,0.8-0.1,1.1-0.2
		s0.6-0.4,1-0.7L445.4,35.6z"/>
	<path class="st4" d="M448,36.1c-0.3-0.2-0.4-0.6-0.4-1.1v-3.6h-1v-0.3h1v-1.8l0.4-0.1v2h1.5v0.3H448v3.5c0,0.4,0.1,0.7,0.3,0.9
		s0.5,0.3,1,0.3h0.5v0.3h-0.6C448.7,36.4,448.3,36.3,448,36.1z"/>
	<path class="st4" d="M455.3,37.7h0.5c0.3,0,0.5,0,0.6-0.1c0.1,0,0.2-0.1,0.3-0.2c0.1-0.1,0.2-0.3,0.3-0.5l0.4-1h-0.2l-2.1-4.6H454
		v-0.3h2.4v0.3h-1l2,4.4l1.9-4.4h-1.1v-0.3h2.4v0.3h-0.9l-2.4,5.6c-0.1,0.3-0.2,0.5-0.4,0.6c-0.1,0.1-0.3,0.2-0.5,0.3
		c-0.2,0.1-0.4,0.1-0.7,0.1h-0.5V37.7z"/>
	<path class="st4" d="M462.5,36.2c-0.4-0.2-0.8-0.6-1-1c-0.2-0.4-0.4-0.9-0.4-1.5c0-0.5,0.1-1,0.4-1.4c0.2-0.4,0.6-0.7,1-1
		c0.4-0.2,0.9-0.3,1.4-0.3c0.5,0,1,0.1,1.5,0.3c0.4,0.2,0.8,0.6,1,1s0.4,0.9,0.4,1.4c0,0.5-0.1,1-0.4,1.5s-0.6,0.8-1,1
		c-0.4,0.2-0.9,0.4-1.5,0.4C463.4,36.6,463,36.5,462.5,36.2z M465.3,35.9c0.4-0.2,0.7-0.5,0.9-0.9c0.2-0.4,0.3-0.8,0.3-1.3
		c0-0.5-0.1-0.9-0.3-1.3s-0.5-0.7-0.9-0.9c-0.4-0.2-0.8-0.3-1.3-0.3c-0.5,0-0.9,0.1-1.3,0.3c-0.4,0.2-0.7,0.5-0.9,0.9
		s-0.3,0.8-0.3,1.3c0,0.5,0.1,0.9,0.3,1.3c0.2,0.4,0.5,0.7,0.9,0.9c0.4,0.2,0.8,0.3,1.3,0.3C464.5,36.3,464.9,36.2,465.3,35.9z"/>
	<path class="st4" d="M473.7,36.1v0.3h-1.3l0-0.6c-0.7,0.5-1.4,0.8-2.2,0.8c-0.6,0-1-0.2-1.3-0.5c-0.2-0.3-0.4-0.7-0.4-1v-3.6h-1
		v-0.3h1.4V35c0,0.3,0.1,0.6,0.3,0.9c0.2,0.2,0.5,0.4,0.9,0.4c0.4,0,0.8-0.1,1.1-0.2c0.3-0.1,0.7-0.3,1-0.6v-4.1h-1v-0.3h1.4v5
		H473.7z"/>
	<path class="st4" d="M478.6,31.3l-0.1,0.3c-0.2-0.1-0.3-0.2-0.4-0.2c-0.1,0-0.3-0.1-0.4-0.1c-0.2,0-0.5,0.1-0.7,0.2
		c-0.2,0.2-0.4,0.4-0.5,0.7c-0.1,0.3-0.2,0.7-0.2,1.1v2.7h1.1v0.3h-2.7v-0.3h1.2v-4.7h-1.1v-0.3h1.5v1.1c0.1-0.4,0.3-0.7,0.6-0.9
		s0.5-0.3,0.8-0.3C478,31,478.3,31.1,478.6,31.3z"/>
</g>
<g class="st3">
	<path class="st4" d="M346.5,47.8c0.5,0.5,0.7,1.1,0.7,2c0,0.9-0.3,1.6-0.8,2.1c-0.5,0.5-1.2,0.8-2,0.8c-0.3,0-0.7-0.1-1-0.2
		c-0.3-0.1-0.6-0.3-0.9-0.6v0.6h-1.3v-0.3h0.9v-7.1h-0.9v-0.3h1.3v3c0.3-0.2,0.6-0.4,1-0.5s0.7-0.2,1-0.2
		C345.3,47.1,346,47.3,346.5,47.8z M346.1,51.7c0.4-0.4,0.7-1,0.7-1.8c0-0.8-0.2-1.4-0.6-1.8c-0.4-0.4-1-0.7-1.7-0.7
		c-0.3,0-0.6,0.1-1,0.2c-0.4,0.1-0.7,0.3-1,0.5v3.4c0.3,0.3,0.6,0.4,0.9,0.6s0.7,0.2,1,0.2C345.1,52.4,345.7,52.1,346.1,51.7z"/>
	<path class="st4" d="M352.2,47.4l-0.1,0.3c-0.2-0.1-0.3-0.2-0.4-0.2c-0.1,0-0.3-0.1-0.4-0.1c-0.2,0-0.5,0.1-0.7,0.2
		c-0.2,0.2-0.4,0.4-0.5,0.7c-0.1,0.3-0.2,0.7-0.2,1.1v2.7h1.1v0.3h-2.7v-0.3h1.2v-4.7h-1.1v-0.3h1.5v1.1c0.1-0.4,0.3-0.7,0.6-0.9
		s0.5-0.3,0.8-0.3C351.6,47.1,352,47.2,352.2,47.4z"/>
	<path class="st4" d="M358.1,52.2v0.3H357l-0.1-0.5c-0.8,0.5-1.5,0.7-2.1,0.7c-0.5,0-1-0.1-1.3-0.4c-0.3-0.3-0.5-0.7-0.5-1.1
		c0-0.5,0.2-0.9,0.5-1.2c0.3-0.2,0.8-0.4,1.3-0.4c0.5,0,1.1,0.1,2,0.2V49c0-0.5-0.1-0.9-0.4-1.2c-0.3-0.3-0.7-0.4-1.1-0.4
		c-0.5,0-1.2,0.1-1.8,0.4l-0.1-0.3c0.3-0.1,0.7-0.3,1-0.3c0.3-0.1,0.6-0.1,0.9-0.1c0.7,0,1.2,0.2,1.5,0.5c0.3,0.3,0.5,0.8,0.5,1.3
		v3.4H358.1z M353.8,52c0.3,0.2,0.6,0.4,1,0.4c0.3,0,0.6-0.1,0.9-0.2c0.3-0.1,0.7-0.3,1.1-0.5V50c-0.8-0.2-1.4-0.2-2-0.2
		c-0.4,0-0.8,0.1-1.1,0.3c-0.3,0.2-0.4,0.5-0.4,1C353.4,51.5,353.5,51.8,353.8,52z"/>
	<path class="st4" d="M365.1,52.2v0.3h-2.5v-0.3h1.1v-3.6c0-0.4-0.1-0.7-0.3-0.9c-0.2-0.2-0.5-0.3-0.9-0.3c-0.6,0-1.3,0.2-2.2,0.7
		v4.1h1.1v0.3h-2.7v-0.3h1.2v-4.7h-1.1v-0.3h1.5v0.6c0.8-0.5,1.6-0.7,2.2-0.7c0.5,0,0.9,0.1,1.2,0.4c0.3,0.3,0.4,0.7,0.4,1.2v3.5
		H365.1z"/>
	<path class="st4" d="M371.6,52.2v0.3h-1.3v-0.6c-0.3,0.2-0.6,0.4-0.9,0.5c-0.3,0.1-0.7,0.2-1.1,0.2c-0.5,0-1-0.1-1.4-0.4
		c-0.4-0.2-0.8-0.6-1-1s-0.4-0.9-0.4-1.5c0-0.5,0.1-1,0.4-1.4c0.2-0.4,0.6-0.7,1-1s0.9-0.3,1.4-0.3c0.4,0,0.7,0.1,1.1,0.2
		c0.4,0.1,0.7,0.3,0.9,0.5v-2.7h-0.9v-0.3h1.3v7.4H371.6z M366.3,51.2c0.2,0.4,0.5,0.7,0.9,0.9c0.4,0.2,0.8,0.3,1.3,0.3
		c0.4,0,0.7-0.1,1-0.2c0.3-0.1,0.6-0.3,0.9-0.5v-3.5c-0.3-0.3-0.6-0.4-0.9-0.6s-0.7-0.2-1-0.2c-0.5,0-0.9,0.1-1.2,0.3
		s-0.6,0.5-0.9,0.9s-0.3,0.8-0.3,1.3C365.9,50.4,366,50.8,366.3,51.2z"/>
	<path class="st4" d="M376.8,52.1c-0.4-0.4-0.6-0.9-0.6-1.6c0-1.1,0.6-1.9,1.7-2.2c-0.4-0.4-0.6-0.8-0.8-1.1
		c-0.2-0.3-0.3-0.6-0.3-0.9c0-0.4,0.2-0.8,0.5-1s0.7-0.4,1.3-0.4c0.5,0,1,0.1,1.3,0.4c0.3,0.2,0.5,0.6,0.5,1c0,0.5-0.2,0.9-0.5,1.3
		c-0.3,0.4-0.8,0.7-1.4,0.9l2.4,2.9c0.1-0.2,0.2-0.5,0.4-0.9c0.1-0.4,0.2-0.7,0.2-0.9h1.1v0.3h-0.9c0,0.2-0.1,0.5-0.2,0.9
		c-0.1,0.4-0.3,0.7-0.4,0.9l0.5,0.7h1v0.3h-1.1l-0.6-0.7c-0.2,0.3-0.5,0.5-0.9,0.6c-0.4,0.2-0.8,0.2-1.2,0.2
		C377.9,52.7,377.3,52.5,376.8,52.1z M379.7,52.1c0.3-0.1,0.6-0.3,0.8-0.6l-2.4-3c-0.5,0.1-0.9,0.4-1.2,0.7
		c-0.3,0.3-0.4,0.8-0.4,1.2c0,0.6,0.2,1,0.5,1.4s0.9,0.5,1.5,0.5C379,52.3,379.4,52.3,379.7,52.1z M379.5,47.3
		c0.3-0.3,0.5-0.7,0.5-1.1c0-0.3-0.1-0.6-0.4-0.8c-0.2-0.2-0.6-0.3-1-0.3c-0.4,0-0.8,0.1-1,0.3c-0.3,0.2-0.4,0.5-0.4,0.8
		c0,0.3,0.1,0.6,0.3,0.9c0.2,0.3,0.4,0.7,0.8,1.1C378.8,47.9,379.2,47.6,379.5,47.3z"/>
	<path class="st4" d="M392.1,47.8c0.5,0.5,0.7,1.1,0.7,2c0,0.9-0.3,1.6-0.8,2.1c-0.5,0.5-1.2,0.8-2,0.8c-0.3,0-0.7-0.1-1-0.2
		c-0.3-0.1-0.6-0.3-0.9-0.6v0.6h-1.3v-0.3h0.9v-7.1h-0.9v-0.3h1.3v3c0.3-0.2,0.6-0.4,1-0.5s0.7-0.2,1-0.2
		C391,47.1,391.6,47.3,392.1,47.8z M391.8,51.7c0.4-0.4,0.7-1,0.7-1.8c0-0.8-0.2-1.4-0.6-1.8c-0.4-0.4-1-0.7-1.7-0.7
		c-0.3,0-0.6,0.1-1,0.2c-0.4,0.1-0.7,0.3-1,0.5v3.4c0.3,0.3,0.6,0.4,0.9,0.6s0.7,0.2,1,0.2C390.8,52.4,391.3,52.1,391.8,51.7z"/>
	<path class="st4" d="M399.7,52.2v0.3h-1.3l0-0.6c-0.7,0.5-1.4,0.8-2.2,0.8c-0.6,0-1-0.2-1.3-0.5c-0.2-0.3-0.4-0.7-0.4-1v-3.6h-1
		v-0.3h1.4v3.9c0,0.3,0.1,0.6,0.3,0.9c0.2,0.2,0.5,0.4,0.9,0.4c0.4,0,0.8-0.1,1.1-0.2c0.3-0.1,0.7-0.3,1-0.6v-4.1h-1v-0.3h1.4v5
		H399.7z"/>
	<path class="st4" d="M404.9,50.2c0.3,0.2,0.4,0.5,0.4,1c0,0.5-0.2,0.8-0.6,1.1c-0.4,0.2-0.8,0.4-1.4,0.4c-0.4,0-0.8-0.1-1.2-0.2
		c-0.4-0.1-0.6-0.3-0.8-0.5v0.6H401v-1.6h0.3l0,0.7c0.2,0.2,0.5,0.4,0.9,0.6c0.3,0.1,0.7,0.2,1.2,0.2c0.5,0,0.8-0.1,1.1-0.3
		c0.3-0.2,0.4-0.5,0.4-0.8c0-0.3-0.1-0.5-0.2-0.6s-0.3-0.3-0.5-0.4c-0.2-0.1-0.5-0.2-0.9-0.3l-0.9-0.2c-0.5-0.1-0.8-0.3-1.1-0.5
		c-0.2-0.2-0.4-0.5-0.4-0.9c0-0.4,0.2-0.8,0.5-1s0.8-0.4,1.4-0.4c0.3,0,0.6,0.1,0.9,0.2c0.3,0.1,0.6,0.3,0.8,0.5v-0.5h0.3v1.7h-0.3
		l-0.1-0.9c-0.2-0.2-0.4-0.3-0.7-0.5c-0.3-0.1-0.6-0.2-1-0.2c-0.4,0-0.8,0.1-1.1,0.3c-0.3,0.2-0.4,0.5-0.4,0.8
		c0,0.3,0.1,0.5,0.3,0.7c0.2,0.1,0.5,0.3,0.9,0.4l0.9,0.2C404.2,49.8,404.6,50,404.9,50.2z"/>
	<path class="st4" d="M406.3,52.5v-0.3h1.2v-4.7h-1.1v-0.3h1.5v5h1.2v0.3H406.3z M407.2,45.8c-0.1-0.1-0.1-0.1-0.1-0.2
		s0-0.2,0.1-0.2c0.1-0.1,0.1-0.1,0.3-0.1c0.1,0,0.2,0,0.3,0.1c0.1,0.1,0.1,0.1,0.1,0.2s0,0.2-0.1,0.2c-0.1,0.1-0.2,0.1-0.3,0.1
		C407.4,45.9,407.3,45.8,407.2,45.8z"/>
	<path class="st4" d="M415.9,52.2v0.3h-2.5v-0.3h1.1v-3.6c0-0.4-0.1-0.7-0.3-0.9c-0.2-0.2-0.5-0.3-0.9-0.3c-0.6,0-1.3,0.2-2.2,0.7
		v4.1h1.1v0.3h-2.7v-0.3h1.2v-4.7h-1.1v-0.3h1.5v0.6c0.8-0.5,1.6-0.7,2.2-0.7c0.5,0,0.9,0.1,1.2,0.4c0.3,0.3,0.4,0.7,0.4,1.2v3.5
		H415.9z"/>
	<path class="st4" d="M421.6,50h-4.9c0,0.5,0.1,0.9,0.3,1.2c0.2,0.4,0.5,0.6,0.9,0.8c0.4,0.2,0.8,0.3,1.2,0.3c0.4,0,0.8-0.1,1.2-0.3
		c0.4-0.2,0.7-0.4,1-0.7l0.1,0.3c-0.3,0.3-0.7,0.6-1.1,0.7c-0.4,0.2-0.8,0.3-1.2,0.3c-0.5,0-1-0.1-1.4-0.3c-0.4-0.2-0.8-0.5-1-1
		s-0.4-0.9-0.4-1.5c0-0.6,0.1-1.1,0.4-1.5s0.6-0.7,1-0.9c0.4-0.2,0.9-0.3,1.3-0.3c0.5,0,0.9,0.1,1.3,0.3s0.7,0.5,0.9,0.9
		C421.4,48.8,421.6,49.3,421.6,50L421.6,50z M421.2,49.7c0-0.5-0.1-0.9-0.3-1.3s-0.5-0.6-0.8-0.8c-0.3-0.2-0.7-0.3-1.1-0.3
		c-0.4,0-0.8,0.1-1.1,0.3c-0.3,0.2-0.6,0.5-0.8,0.8c-0.2,0.4-0.3,0.8-0.3,1.2H421.2z"/>
	<path class="st4" d="M427.1,50.2c0.3,0.2,0.4,0.5,0.4,1c0,0.5-0.2,0.8-0.6,1.1c-0.4,0.2-0.8,0.4-1.4,0.4c-0.4,0-0.8-0.1-1.2-0.2
		c-0.4-0.1-0.6-0.3-0.8-0.5v0.6h-0.3v-1.6h0.3l0,0.7c0.2,0.2,0.5,0.4,0.9,0.6c0.3,0.1,0.7,0.2,1.2,0.2c0.5,0,0.8-0.1,1.1-0.3
		c0.3-0.2,0.4-0.5,0.4-0.8c0-0.3-0.1-0.5-0.2-0.6s-0.3-0.3-0.5-0.4c-0.2-0.1-0.5-0.2-0.9-0.3l-0.9-0.2c-0.5-0.1-0.8-0.3-1.1-0.5
		c-0.2-0.2-0.4-0.5-0.4-0.9c0-0.4,0.2-0.8,0.5-1s0.8-0.4,1.4-0.4c0.3,0,0.6,0.1,0.9,0.2c0.3,0.1,0.6,0.3,0.8,0.5v-0.5h0.3v1.7h-0.3
		l-0.1-0.9c-0.2-0.2-0.4-0.3-0.7-0.5c-0.3-0.1-0.6-0.2-1-0.2c-0.4,0-0.8,0.1-1.1,0.3c-0.3,0.2-0.4,0.5-0.4,0.8
		c0,0.3,0.1,0.5,0.3,0.7c0.2,0.1,0.5,0.3,0.9,0.4l0.9,0.2C426.4,49.8,426.9,50,427.1,50.2z"/>
	<path class="st4" d="M433.1,50.2c0.3,0.2,0.4,0.5,0.4,1c0,0.5-0.2,0.8-0.6,1.1c-0.4,0.2-0.8,0.4-1.4,0.4c-0.4,0-0.8-0.1-1.2-0.2
		s-0.6-0.3-0.8-0.5v0.6h-0.4v-1.6h0.3l0,0.7c0.2,0.2,0.5,0.4,0.9,0.6c0.3,0.1,0.7,0.2,1.2,0.2c0.5,0,0.8-0.1,1.1-0.3
		c0.3-0.2,0.4-0.5,0.4-0.8c0-0.3-0.1-0.5-0.2-0.6c-0.1-0.2-0.3-0.3-0.5-0.4c-0.2-0.1-0.5-0.2-0.9-0.3l-0.9-0.2
		c-0.5-0.1-0.8-0.3-1.1-0.5c-0.2-0.2-0.4-0.5-0.4-0.9c0-0.4,0.2-0.8,0.5-1s0.8-0.4,1.4-0.4c0.3,0,0.6,0.1,0.9,0.2
		c0.3,0.1,0.6,0.3,0.8,0.5v-0.5h0.3v1.7h-0.3l-0.1-0.9c-0.2-0.2-0.4-0.3-0.7-0.5c-0.3-0.1-0.6-0.2-1-0.2c-0.4,0-0.8,0.1-1.1,0.3
		s-0.4,0.5-0.4,0.8c0,0.3,0.1,0.5,0.3,0.7s0.5,0.3,0.9,0.4l0.9,0.2C432.4,49.8,432.9,50,433.1,50.2z"/>
	<path class="st4" d="M436.1,50.6c0-0.4,0.1-0.7,0.2-0.9c0.1-0.3,0.2-0.5,0.4-0.7c0.2-0.2,0.4-0.4,0.7-0.7c0.3-0.3,0.5-0.6,0.7-0.8
		c0.2-0.3,0.2-0.6,0.2-0.9c0-0.5-0.1-0.8-0.4-1.1s-0.7-0.4-1.2-0.4c-0.5,0-0.9,0.1-1.2,0.4c-0.3,0.2-0.5,0.6-0.5,1h-0.4
		c0-0.5,0.2-0.9,0.6-1.2s0.9-0.5,1.5-0.5c0.6,0,1.1,0.2,1.5,0.5c0.4,0.3,0.5,0.7,0.5,1.3c0,0.4-0.1,0.7-0.3,1s-0.4,0.6-0.8,1
		c-0.3,0.3-0.5,0.5-0.6,0.7c-0.1,0.2-0.3,0.4-0.3,0.6c-0.1,0.2-0.1,0.5-0.1,0.8v0.1h-0.4V50.6z M436,52.5c-0.1-0.1-0.1-0.1-0.1-0.2
		s0-0.2,0.1-0.2c0.1-0.1,0.2-0.1,0.3-0.1s0.2,0,0.3,0.1c0.1,0.1,0.1,0.2,0.1,0.2s0,0.2-0.1,0.2c-0.1,0.1-0.2,0.1-0.3,0.1
		S436.1,52.6,436,52.5z"/>
</g>
<rect x="474.2" y="172.8" class="st2" width="121.8" height="60.3"/>
<g class="st3">
	<path class="st4" d="M475,180.5v-0.3h1.1v-7H475v-0.3h2.7v0.3h-1.1v3.3h5.1v-3.3h-1.1v-0.3h2.7v0.3H482v7h1.1v0.3h-2.7v-0.3h1.1
		v-3.4h-5.1v3.4h1.1v0.3H475z"/>
	<path class="st4" d="M485.8,180.3c-0.4-0.2-0.8-0.6-1-1c-0.2-0.4-0.4-0.9-0.4-1.5c0-0.5,0.1-1,0.4-1.4c0.2-0.4,0.6-0.7,1-1
		c0.4-0.2,0.9-0.3,1.4-0.3c0.5,0,1,0.1,1.5,0.3c0.4,0.2,0.8,0.6,1,1s0.4,0.9,0.4,1.4c0,0.5-0.1,1-0.4,1.5s-0.6,0.8-1,1
		s-0.9,0.4-1.5,0.4C486.7,180.7,486.2,180.5,485.8,180.3z M488.5,180c0.4-0.2,0.7-0.5,0.9-0.9c0.2-0.4,0.3-0.8,0.3-1.3
		c0-0.5-0.1-0.9-0.3-1.3s-0.5-0.7-0.9-0.9c-0.4-0.2-0.8-0.3-1.3-0.3c-0.5,0-0.9,0.1-1.3,0.3c-0.4,0.2-0.7,0.5-0.9,0.9
		c-0.2,0.4-0.3,0.8-0.3,1.3c0,0.5,0.1,0.9,0.3,1.3c0.2,0.4,0.5,0.7,0.9,0.9c0.4,0.2,0.8,0.3,1.3,0.3
		C487.7,180.3,488.1,180.2,488.5,180z"/>
	<path class="st4" d="M493.4,180.5l-1.8-5h-0.9v-0.3h2.3v0.3h-1l1.7,4.7l1.7-4.7h-0.9v-0.3h2.3v0.3h-1l1.7,4.7l1.6-4.7h-0.9v-0.3
		h2.2v0.3h-0.9l-1.7,5h-0.5l-1.7-4.7l-1.7,4.7H493.4z"/>
	<path class="st4" d="M510.8,180.2v0.3h-1.3v-0.6c-0.3,0.2-0.6,0.4-0.9,0.5s-0.7,0.2-1.1,0.2c-0.5,0-1-0.1-1.4-0.4
		c-0.4-0.2-0.8-0.6-1-1s-0.4-0.9-0.4-1.5c0-0.5,0.1-1,0.4-1.4s0.6-0.7,1-1s0.9-0.3,1.4-0.3c0.4,0,0.7,0.1,1.1,0.2
		c0.4,0.1,0.7,0.3,0.9,0.5v-2.7h-0.9v-0.3h1.3v7.4H510.8z M505.4,179.2c0.2,0.4,0.5,0.7,0.9,0.9c0.4,0.2,0.8,0.3,1.3,0.3
		c0.3,0,0.7-0.1,1-0.2s0.6-0.3,0.9-0.5v-3.5c-0.3-0.3-0.6-0.4-0.9-0.6s-0.7-0.2-1-0.2c-0.5,0-0.9,0.1-1.2,0.3s-0.6,0.5-0.9,0.9
		c-0.2,0.4-0.3,0.8-0.3,1.3C505.1,178.4,505.2,178.8,505.4,179.2z"/>
	<path class="st4" d="M512.8,180.3c-0.4-0.2-0.8-0.6-1-1c-0.2-0.4-0.4-0.9-0.4-1.5c0-0.5,0.1-1,0.4-1.4c0.2-0.4,0.6-0.7,1-1
		c0.4-0.2,0.9-0.3,1.4-0.3c0.5,0,1,0.1,1.5,0.3c0.4,0.2,0.8,0.6,1,1s0.4,0.9,0.4,1.4c0,0.5-0.1,1-0.4,1.5s-0.6,0.8-1,1
		s-0.9,0.4-1.5,0.4C513.7,180.7,513.2,180.5,512.8,180.3z M515.5,180c0.4-0.2,0.7-0.5,0.9-0.9c0.2-0.4,0.3-0.8,0.3-1.3
		c0-0.5-0.1-0.9-0.3-1.3s-0.5-0.7-0.9-0.9c-0.4-0.2-0.8-0.3-1.3-0.3c-0.5,0-0.9,0.1-1.3,0.3c-0.4,0.2-0.7,0.5-0.9,0.9
		s-0.3,0.8-0.3,1.3c0,0.5,0.1,0.9,0.3,1.3c0.2,0.4,0.5,0.7,0.9,0.9c0.4,0.2,0.8,0.3,1.3,0.3C514.7,180.3,515.1,180.2,515.5,180z"/>
	<path class="st4" d="M523.2,178h-4.9c0,0.5,0.1,0.9,0.3,1.2c0.2,0.4,0.5,0.6,0.9,0.8c0.4,0.2,0.8,0.3,1.2,0.3
		c0.4,0,0.8-0.1,1.2-0.3s0.7-0.4,1-0.7l0.1,0.3c-0.3,0.3-0.7,0.6-1.1,0.7c-0.4,0.2-0.8,0.3-1.2,0.3c-0.5,0-1-0.1-1.4-0.3
		c-0.4-0.2-0.8-0.5-1-1c-0.3-0.4-0.4-0.9-0.4-1.5c0-0.6,0.1-1.1,0.4-1.5c0.3-0.4,0.6-0.7,1-0.9c0.4-0.2,0.9-0.3,1.3-0.3
		c0.5,0,0.9,0.1,1.3,0.3s0.7,0.5,0.9,0.9C523,176.7,523.2,177.3,523.2,178L523.2,178z M522.8,177.7c0-0.5-0.1-0.9-0.3-1.3
		c-0.2-0.3-0.5-0.6-0.8-0.8c-0.3-0.2-0.7-0.3-1.1-0.3c-0.4,0-0.8,0.1-1.1,0.3c-0.3,0.2-0.6,0.5-0.8,0.8c-0.2,0.4-0.3,0.8-0.3,1.2
		H522.8z"/>
	<path class="st4" d="M528.7,178.2c0.3,0.2,0.4,0.5,0.4,1c0,0.5-0.2,0.8-0.6,1.1c-0.4,0.2-0.8,0.4-1.4,0.4c-0.4,0-0.8-0.1-1.2-0.2
		s-0.6-0.3-0.8-0.5v0.6h-0.4v-1.6h0.3l0,0.7c0.2,0.2,0.5,0.4,0.9,0.6c0.3,0.1,0.7,0.2,1.2,0.2c0.5,0,0.8-0.1,1.1-0.3
		c0.3-0.2,0.4-0.5,0.4-0.8c0-0.3-0.1-0.5-0.2-0.6c-0.1-0.2-0.3-0.3-0.5-0.4c-0.2-0.1-0.5-0.2-0.9-0.3l-0.9-0.2
		c-0.5-0.1-0.8-0.3-1.1-0.5c-0.2-0.2-0.4-0.5-0.4-0.9c0-0.4,0.2-0.8,0.5-1c0.4-0.2,0.8-0.4,1.4-0.4c0.3,0,0.6,0.1,0.9,0.2
		c0.3,0.1,0.6,0.3,0.8,0.5v-0.5h0.3v1.7h-0.3l-0.1-0.9c-0.2-0.2-0.4-0.3-0.7-0.5s-0.6-0.2-1-0.2c-0.4,0-0.8,0.1-1.1,0.3
		s-0.4,0.5-0.4,0.8c0,0.3,0.1,0.5,0.3,0.7c0.2,0.1,0.5,0.3,0.9,0.4l0.9,0.2C528,177.8,528.5,178,528.7,178.2z"/>
</g>
<g class="st3">
	<path class="st4" d="M484.5,196.3v0.3H482v-0.3h1.1v-3.6c0-0.4-0.1-0.7-0.4-0.9c-0.2-0.2-0.6-0.3-0.9-0.3c-0.3,0-0.7,0.1-1.1,0.2
		c-0.4,0.1-0.8,0.3-1.1,0.5c0.1,0.2,0.1,0.4,0.1,0.6v3.5h1v0.3h-2.5v-0.3h1.1v-3.6c0-0.4-0.1-0.7-0.3-0.9c-0.2-0.2-0.5-0.3-0.9-0.3
		c-0.2,0-0.5,0.1-0.9,0.2c-0.4,0.1-0.8,0.3-1.2,0.5v4.1h1.1v0.3h-2.7v-0.3h1.2v-4.7h-1.1v-0.3h1.5v0.6c0.4-0.2,0.7-0.4,1.1-0.5
		s0.7-0.2,1-0.2c0.3,0,0.6,0.1,0.9,0.2c0.2,0.1,0.4,0.3,0.5,0.6c0.4-0.3,0.9-0.5,1.2-0.6c0.4-0.1,0.7-0.2,1.1-0.2
		c0.5,0,0.9,0.1,1.2,0.4c0.3,0.3,0.4,0.7,0.4,1.2v3.5H484.5z"/>
	<path class="st4" d="M490.2,194.1h-4.9c0,0.5,0.1,0.9,0.3,1.2c0.2,0.4,0.5,0.6,0.9,0.8c0.4,0.2,0.8,0.3,1.2,0.3
		c0.4,0,0.8-0.1,1.2-0.3s0.7-0.4,1-0.7l0.1,0.3c-0.3,0.3-0.7,0.6-1.1,0.7c-0.4,0.2-0.8,0.3-1.2,0.3c-0.5,0-1-0.1-1.4-0.3
		c-0.4-0.2-0.8-0.5-1-1c-0.3-0.4-0.4-0.9-0.4-1.5c0-0.6,0.1-1.1,0.4-1.5c0.3-0.4,0.6-0.7,1-0.9c0.4-0.2,0.9-0.3,1.3-0.3
		c0.5,0,0.9,0.1,1.3,0.3s0.7,0.5,0.9,0.9C490.1,192.8,490.2,193.4,490.2,194.1L490.2,194.1z M489.8,193.8c0-0.5-0.1-0.9-0.3-1.3
		c-0.2-0.3-0.5-0.6-0.8-0.8c-0.3-0.2-0.7-0.3-1.1-0.3c-0.4,0-0.8,0.1-1.1,0.3c-0.3,0.2-0.6,0.5-0.8,0.8c-0.2,0.4-0.3,0.8-0.3,1.2
		H489.8z"/>
	<path class="st4" d="M496.5,196.3v0.3h-1.1l-0.1-0.5c-0.8,0.5-1.5,0.7-2.1,0.7c-0.5,0-1-0.1-1.3-0.4c-0.3-0.3-0.5-0.7-0.5-1.1
		c0-0.5,0.2-0.9,0.5-1.2c0.3-0.2,0.8-0.4,1.3-0.4c0.5,0,1.1,0.1,2,0.2v-0.8c0-0.5-0.1-0.9-0.4-1.2c-0.3-0.3-0.7-0.4-1.1-0.4
		c-0.5,0-1.2,0.1-1.8,0.4l-0.1-0.3c0.3-0.1,0.7-0.3,1-0.3c0.3-0.1,0.6-0.1,0.9-0.1c0.7,0,1.2,0.2,1.5,0.5s0.5,0.8,0.5,1.3v3.4H496.5
		z M492.2,196.1c0.2,0.2,0.6,0.4,1,0.4c0.3,0,0.6-0.1,0.9-0.2s0.7-0.3,1.1-0.5v-1.6c-0.8-0.2-1.4-0.2-2-0.2c-0.4,0-0.8,0.1-1.1,0.3
		c-0.3,0.2-0.4,0.5-0.4,1C491.8,195.5,492,195.8,492.2,196.1z"/>
	<path class="st4" d="M503.5,196.3v0.3H501v-0.3h1.1v-3.6c0-0.4-0.1-0.7-0.3-0.9c-0.2-0.2-0.5-0.3-0.9-0.3c-0.6,0-1.3,0.2-2.2,0.7
		v4.1h1.1v0.3h-2.7v-0.3h1.2v-4.7h-1.1v-0.3h1.5v0.6c0.8-0.5,1.6-0.7,2.2-0.7c0.5,0,0.9,0.1,1.2,0.4c0.3,0.3,0.4,0.7,0.4,1.2v3.5
		H503.5z"/>
	<path class="st4" d="M503.8,196.6v-0.3h1.2v-4.7h-1.1v-0.3h1.5v5h1.2v0.3H503.8z M504.8,189.8c-0.1-0.1-0.1-0.1-0.1-0.2
		s0-0.2,0.1-0.2c0.1-0.1,0.1-0.1,0.3-0.1c0.1,0,0.2,0,0.3,0.1c0.1,0.1,0.1,0.1,0.1,0.2s0,0.2-0.1,0.2c-0.1,0.1-0.2,0.1-0.3,0.1
		C504.9,189.9,504.9,189.9,504.8,189.8z"/>
	<path class="st4" d="M513.4,196.3v0.3h-2.5v-0.3h1.1v-3.6c0-0.4-0.1-0.7-0.3-0.9c-0.2-0.2-0.5-0.3-0.9-0.3c-0.6,0-1.3,0.2-2.2,0.7
		v4.1h1.1v0.3H507v-0.3h1.2v-4.7H507v-0.3h1.5v0.6c0.8-0.5,1.6-0.7,2.2-0.7c0.5,0,0.9,0.1,1.2,0.4c0.3,0.3,0.4,0.7,0.4,1.2v3.5
		H513.4z"/>
	<path class="st4" d="M520,191.3v0.3h-0.9v5.1c0,0.8-0.2,1.4-0.6,1.8s-1,0.6-1.8,0.6c-0.4,0-1.1-0.1-1.9-0.3l0.1-0.3
		c0.7,0.2,1.3,0.3,1.8,0.3c0.7,0,1.2-0.2,1.5-0.5c0.4-0.3,0.5-0.8,0.5-1.4v-0.9c-0.3,0.2-0.6,0.4-0.9,0.6c-0.4,0.1-0.7,0.2-1.1,0.2
		c-0.5,0-1-0.1-1.4-0.3c-0.4-0.2-0.8-0.6-1-1c-0.2-0.4-0.4-0.9-0.4-1.4c0-0.5,0.1-1,0.3-1.4c0.2-0.4,0.5-0.7,0.9-1
		c0.4-0.2,0.9-0.3,1.4-0.3c0.4,0,0.8,0.1,1.2,0.2c0.4,0.1,0.7,0.3,1,0.6v-0.6H520z M514.6,195.2c0.2,0.4,0.5,0.6,0.9,0.8
		s0.8,0.3,1.3,0.3c0.3,0,0.7-0.1,1.1-0.2s0.7-0.3,0.9-0.6v-3.3c-0.3-0.2-0.6-0.4-1-0.6c-0.4-0.1-0.8-0.2-1.1-0.2
		c-0.7,0-1.2,0.2-1.6,0.7c-0.4,0.5-0.6,1.1-0.6,1.8C514.3,194.4,514.4,194.8,514.6,195.2z"/>
	<path class="st4" d="M520.9,196.3h1v-4.7h-1v-0.3h1v-1.5c0-0.3,0.1-0.6,0.3-0.8c0.2-0.2,0.5-0.3,0.8-0.3c0.3,0,0.6,0.1,0.7,0.2
		c0.2,0.2,0.3,0.4,0.3,0.7l-0.3,0.1c-0.1-0.5-0.3-0.7-0.7-0.7c-0.2,0-0.4,0.1-0.5,0.2c-0.1,0.1-0.2,0.3-0.2,0.6v1.5h1.4v0.3h-1.4
		v4.7h1.3v0.3h-2.7V196.3z"/>
	<path class="st4" d="M530.2,196.3v0.3h-1.3l0-0.6c-0.7,0.5-1.4,0.8-2.2,0.8c-0.6,0-1-0.2-1.3-0.5c-0.2-0.3-0.4-0.7-0.4-1v-3.6h-1
		v-0.3h1.4v3.9c0,0.3,0.1,0.6,0.3,0.9c0.2,0.2,0.5,0.4,0.9,0.4c0.4,0,0.8-0.1,1.1-0.2c0.3-0.1,0.7-0.3,1-0.6v-4.1h-1v-0.3h1.4v5
		H530.2z"/>
	<path class="st4" d="M530.9,196.6v-0.3h1v-7.1h-0.9v-0.3h1.3v7.4h1v0.3H530.9z"/>
	<path class="st4" d="M540.2,196.3v0.3h-2.5v-0.3h1.1v-3.6c0-0.4-0.1-0.7-0.3-0.9c-0.2-0.2-0.5-0.3-0.9-0.3c-0.6,0-1.3,0.2-2.2,0.7
		v4.1h1.1v0.3h-2.7v-0.3h1.2v-4.7h-1.1v-0.3h1.5v0.6c0.8-0.5,1.6-0.7,2.2-0.7c0.5,0,0.9,0.1,1.2,0.4c0.3,0.3,0.4,0.7,0.4,1.2v3.5
		H540.2z"/>
	<path class="st4" d="M545.9,194.1H541c0,0.5,0.1,0.9,0.3,1.2c0.2,0.4,0.5,0.6,0.9,0.8c0.4,0.2,0.8,0.3,1.2,0.3
		c0.4,0,0.8-0.1,1.2-0.3s0.7-0.4,1-0.7l0.1,0.3c-0.3,0.3-0.7,0.6-1.1,0.7c-0.4,0.2-0.8,0.3-1.2,0.3c-0.5,0-1-0.1-1.4-0.3
		c-0.4-0.2-0.8-0.5-1-1c-0.3-0.4-0.4-0.9-0.4-1.5c0-0.6,0.1-1.1,0.4-1.5c0.3-0.4,0.6-0.7,1-0.9c0.4-0.2,0.9-0.3,1.3-0.3
		c0.5,0,0.9,0.1,1.3,0.3s0.7,0.5,0.9,0.9C545.8,192.8,545.9,193.4,545.9,194.1L545.9,194.1z M545.5,193.8c0-0.5-0.1-0.9-0.3-1.3
		c-0.2-0.3-0.5-0.6-0.8-0.8c-0.3-0.2-0.7-0.3-1.1-0.3c-0.4,0-0.8,0.1-1.1,0.3c-0.3,0.2-0.6,0.5-0.8,0.8c-0.2,0.4-0.3,0.8-0.3,1.2
		H545.5z"/>
	<path class="st4" d="M551.5,194.3c0.3,0.2,0.4,0.5,0.4,1c0,0.5-0.2,0.8-0.6,1.1c-0.4,0.2-0.8,0.4-1.4,0.4c-0.4,0-0.8-0.1-1.2-0.2
		s-0.6-0.3-0.8-0.5v0.6h-0.4V195h0.3l0,0.7c0.2,0.2,0.5,0.4,0.9,0.6c0.3,0.1,0.7,0.2,1.2,0.2c0.5,0,0.8-0.1,1.1-0.3
		c0.3-0.2,0.4-0.5,0.4-0.8c0-0.3-0.1-0.5-0.2-0.6c-0.1-0.2-0.3-0.3-0.5-0.4c-0.2-0.1-0.5-0.2-0.9-0.3l-0.9-0.2
		c-0.5-0.1-0.8-0.3-1.1-0.5c-0.2-0.2-0.4-0.5-0.4-0.9c0-0.4,0.2-0.8,0.5-1c0.4-0.2,0.8-0.4,1.4-0.4c0.3,0,0.6,0.1,0.9,0.2
		c0.3,0.1,0.6,0.3,0.8,0.5v-0.5h0.3v1.7h-0.3l-0.1-0.9c-0.2-0.2-0.4-0.3-0.7-0.5s-0.6-0.2-1-0.2c-0.4,0-0.8,0.1-1.1,0.3
		s-0.4,0.5-0.4,0.8c0,0.3,0.1,0.5,0.3,0.7c0.2,0.1,0.5,0.3,0.9,0.4l0.9,0.2C550.7,193.9,551.2,194.1,551.5,194.3z"/>
	<path class="st4" d="M557.5,194.3c0.3,0.2,0.4,0.5,0.4,1c0,0.5-0.2,0.8-0.6,1.1c-0.4,0.2-0.8,0.4-1.4,0.4c-0.4,0-0.8-0.1-1.2-0.2
		c-0.4-0.1-0.6-0.3-0.8-0.5v0.6h-0.4V195h0.3l0,0.7c0.2,0.2,0.5,0.4,0.9,0.6c0.3,0.1,0.7,0.2,1.2,0.2c0.5,0,0.8-0.1,1.1-0.3
		c0.3-0.2,0.4-0.5,0.4-0.8c0-0.3-0.1-0.5-0.2-0.6c-0.1-0.2-0.3-0.3-0.5-0.4c-0.2-0.1-0.5-0.2-0.9-0.3l-0.9-0.2
		c-0.5-0.1-0.8-0.3-1.1-0.5c-0.2-0.2-0.4-0.5-0.4-0.9c0-0.4,0.2-0.8,0.5-1s0.8-0.4,1.4-0.4c0.3,0,0.6,0.1,0.9,0.2s0.6,0.3,0.8,0.5
		v-0.5h0.3v1.7h-0.3l-0.1-0.9c-0.2-0.2-0.4-0.3-0.7-0.5c-0.3-0.1-0.6-0.2-1-0.2c-0.4,0-0.8,0.1-1.1,0.3c-0.3,0.2-0.4,0.5-0.4,0.8
		c0,0.3,0.1,0.5,0.3,0.7s0.5,0.3,0.9,0.4l0.9,0.2C556.7,193.9,557.2,194.1,557.5,194.3z"/>
	<path class="st4" d="M568.7,196.3v0.3h-1.3V196c-0.3,0.2-0.6,0.4-0.9,0.5s-0.7,0.2-1.1,0.2c-0.5,0-1-0.1-1.4-0.4
		c-0.4-0.2-0.8-0.6-1-1s-0.4-0.9-0.4-1.5c0-0.5,0.1-1,0.4-1.4s0.6-0.7,1-1s0.9-0.3,1.4-0.3c0.4,0,0.7,0.1,1.1,0.2
		c0.4,0.1,0.7,0.3,0.9,0.5v-2.7h-0.9v-0.3h1.3v7.4H568.7z M563.3,195.3c0.2,0.4,0.5,0.7,0.9,0.9c0.4,0.2,0.8,0.3,1.3,0.3
		c0.3,0,0.7-0.1,1-0.2s0.6-0.3,0.9-0.5v-3.5c-0.3-0.3-0.6-0.4-0.9-0.6s-0.7-0.2-1-0.2c-0.5,0-0.9,0.1-1.2,0.3s-0.6,0.5-0.9,0.9
		c-0.2,0.4-0.3,0.8-0.3,1.3C563,194.5,563.1,194.9,563.3,195.3z"/>
	<path class="st4" d="M573.5,191.4l-0.1,0.3c-0.2-0.1-0.3-0.2-0.4-0.2c-0.1,0-0.3-0.1-0.4-0.1c-0.2,0-0.5,0.1-0.7,0.2
		c-0.2,0.2-0.4,0.4-0.5,0.7c-0.1,0.3-0.2,0.7-0.2,1.1v2.7h1.1v0.3h-2.7v-0.3h1.2v-4.7h-1.1v-0.3h1.5v1.1c0.1-0.4,0.3-0.7,0.6-0.9
		s0.5-0.3,0.8-0.3C572.9,191.2,573.2,191.3,573.5,191.4z"/>
	<path class="st4" d="M574,196.6v-0.3h1.2v-4.7h-1.1v-0.3h1.5v5h1.2v0.3H574z M575,189.8c-0.1-0.1-0.1-0.1-0.1-0.2s0-0.2,0.1-0.2
		c0.1-0.1,0.1-0.1,0.3-0.1c0.1,0,0.2,0,0.3,0.1c0.1,0.1,0.1,0.1,0.1,0.2s0,0.2-0.1,0.2c-0.1,0.1-0.2,0.1-0.3,0.1
		C575.2,189.9,575.1,189.9,575,189.8z"/>
	<path class="st4" d="M580.3,196.6l-2.2-5h-1v-0.3h2.5v0.3h-1.1l2,4.7l2-4.7h-1.1v-0.3h2.4v0.3h-0.9l-2.2,5H580.3z"/>
	<path class="st4" d="M589.6,194.1h-4.9c0,0.5,0.1,0.9,0.3,1.2c0.2,0.4,0.5,0.6,0.9,0.8c0.4,0.2,0.8,0.3,1.2,0.3
		c0.4,0,0.8-0.1,1.2-0.3c0.4-0.2,0.7-0.4,1-0.7l0.1,0.3c-0.3,0.3-0.7,0.6-1.1,0.7c-0.4,0.2-0.8,0.3-1.2,0.3c-0.5,0-1-0.1-1.4-0.3
		c-0.4-0.2-0.8-0.5-1-1s-0.4-0.9-0.4-1.5c0-0.6,0.1-1.1,0.4-1.5s0.6-0.7,1-0.9c0.4-0.2,0.9-0.3,1.3-0.3c0.5,0,0.9,0.1,1.3,0.3
		s0.7,0.5,0.9,0.9C589.5,192.8,589.6,193.4,589.6,194.1L589.6,194.1z M589.2,193.8c0-0.5-0.1-0.9-0.3-1.3s-0.5-0.6-0.8-0.8
		c-0.3-0.2-0.7-0.3-1.1-0.3c-0.4,0-0.8,0.1-1.1,0.3c-0.3,0.2-0.6,0.5-0.8,0.8c-0.2,0.4-0.3,0.8-0.3,1.2H589.2z"/>
</g>
<g class="st3">
	<path class="st4" d="M479.9,208.1c0.5,0.5,0.7,1.1,0.7,2c0,0.9-0.3,1.6-0.8,2.1c-0.5,0.5-1.2,0.8-2,0.8c-0.3,0-0.7-0.1-1-0.2
		s-0.6-0.3-0.9-0.6v0.6h-1.3v-0.3h0.9v-7.1h-0.9v-0.3h1.3v3c0.3-0.2,0.6-0.4,1-0.5c0.4-0.1,0.7-0.2,1-0.2
		C478.7,207.4,479.4,207.6,479.9,208.1z M479.6,212c0.4-0.4,0.7-1,0.7-1.8c0-0.8-0.2-1.4-0.6-1.8c-0.4-0.4-1-0.7-1.7-0.7
		c-0.3,0-0.6,0.1-1,0.2c-0.3,0.1-0.7,0.3-1,0.5v3.4c0.3,0.3,0.6,0.4,0.9,0.6s0.7,0.2,1,0.2C478.5,212.6,479.1,212.4,479.6,212z"/>
	<path class="st4" d="M485.7,207.6l-0.1,0.3c-0.2-0.1-0.3-0.2-0.4-0.2c-0.1,0-0.3-0.1-0.4-0.1c-0.2,0-0.5,0.1-0.7,0.2
		c-0.2,0.2-0.4,0.4-0.5,0.7c-0.1,0.3-0.2,0.7-0.2,1.1v2.7h1.1v0.3h-2.7v-0.3h1.2v-4.7h-1.1v-0.3h1.5v1.1c0.1-0.4,0.3-0.7,0.6-0.9
		s0.5-0.3,0.8-0.3C485,207.4,485.4,207.5,485.7,207.6z"/>
	<path class="st4" d="M491.5,212.5v0.3h-1.1l-0.1-0.5c-0.8,0.5-1.5,0.7-2.1,0.7c-0.5,0-1-0.1-1.3-0.4c-0.3-0.3-0.5-0.7-0.5-1.1
		c0-0.5,0.2-0.9,0.5-1.2c0.3-0.2,0.8-0.4,1.3-0.4c0.5,0,1.1,0.1,2,0.2v-0.8c0-0.5-0.1-0.9-0.4-1.2c-0.3-0.3-0.7-0.4-1.1-0.4
		c-0.5,0-1.2,0.1-1.8,0.4l-0.1-0.3c0.3-0.1,0.7-0.3,1-0.3c0.3-0.1,0.6-0.1,0.9-0.1c0.7,0,1.2,0.2,1.5,0.5s0.5,0.8,0.5,1.3v3.4H491.5
		z M487.2,212.3c0.2,0.2,0.6,0.4,1,0.4c0.3,0,0.6-0.1,0.9-0.2s0.7-0.3,1.1-0.5v-1.6c-0.8-0.2-1.4-0.2-2-0.2c-0.4,0-0.8,0.1-1.1,0.3
		c-0.3,0.2-0.4,0.5-0.4,1C486.8,211.7,487,212,487.2,212.3z"/>
	<path class="st4" d="M498.5,212.5v0.3H496v-0.3h1.1v-3.6c0-0.4-0.1-0.7-0.3-0.9c-0.2-0.2-0.5-0.3-0.9-0.3c-0.6,0-1.3,0.2-2.2,0.7
		v4.1h1.1v0.3h-2.7v-0.3h1.2v-4.7h-1.1v-0.3h1.5v0.6c0.8-0.5,1.6-0.7,2.2-0.7c0.5,0,0.9,0.1,1.2,0.4c0.3,0.3,0.4,0.7,0.4,1.2v3.5
		H498.5z"/>
	<path class="st4" d="M505,212.5v0.3h-1.3v-0.6c-0.3,0.2-0.6,0.4-0.9,0.5c-0.3,0.1-0.7,0.2-1.1,0.2c-0.5,0-1-0.1-1.4-0.4
		c-0.4-0.2-0.8-0.6-1-1s-0.4-0.9-0.4-1.5c0-0.5,0.1-1,0.4-1.4c0.2-0.4,0.6-0.7,1-1c0.4-0.2,0.9-0.3,1.4-0.3c0.4,0,0.7,0.1,1.1,0.2
		c0.4,0.1,0.7,0.3,0.9,0.5v-2.7h-0.9v-0.3h1.3v7.4H505z M499.7,211.5c0.2,0.4,0.5,0.7,0.9,0.9c0.4,0.2,0.8,0.3,1.3,0.3
		c0.3,0,0.7-0.1,1-0.2c0.3-0.1,0.6-0.3,0.9-0.5v-3.5c-0.3-0.3-0.6-0.4-0.9-0.6s-0.7-0.2-1-0.2c-0.5,0-0.9,0.1-1.2,0.3
		s-0.6,0.5-0.9,0.9s-0.3,0.8-0.3,1.3C499.4,210.7,499.5,211.1,499.7,211.5z"/>
	<path class="st4" d="M513.7,210.5c0.3,0.2,0.4,0.5,0.4,1c0,0.5-0.2,0.8-0.6,1.1c-0.4,0.2-0.8,0.4-1.4,0.4c-0.4,0-0.8-0.1-1.2-0.2
		s-0.6-0.3-0.8-0.5v0.6h-0.4v-1.6h0.3l0,0.7c0.2,0.2,0.5,0.4,0.9,0.6c0.3,0.1,0.7,0.2,1.2,0.2c0.5,0,0.8-0.1,1.1-0.3
		c0.3-0.2,0.4-0.5,0.4-0.8c0-0.3-0.1-0.5-0.2-0.6c-0.1-0.2-0.3-0.3-0.5-0.4c-0.2-0.1-0.5-0.2-0.9-0.3l-0.9-0.2
		c-0.5-0.1-0.8-0.3-1.1-0.5c-0.2-0.2-0.4-0.5-0.4-0.9c0-0.4,0.2-0.8,0.5-1c0.4-0.2,0.8-0.4,1.4-0.4c0.3,0,0.6,0.1,0.9,0.2
		c0.3,0.1,0.6,0.3,0.8,0.5v-0.5h0.3v1.7h-0.3l-0.1-0.9c-0.2-0.2-0.4-0.3-0.7-0.5s-0.6-0.2-1-0.2c-0.4,0-0.8,0.1-1.1,0.3
		s-0.4,0.5-0.4,0.8c0,0.3,0.1,0.5,0.3,0.7c0.2,0.1,0.5,0.3,0.9,0.4l0.9,0.2C513,210.1,513.5,210.3,513.7,210.5z"/>
	<path class="st4" d="M521.3,212.5v0.3H520l0-0.6c-0.7,0.5-1.4,0.8-2.2,0.8c-0.6,0-1-0.2-1.3-0.5c-0.2-0.3-0.4-0.7-0.4-1v-3.6h-1
		v-0.3h1.4v3.9c0,0.3,0.1,0.6,0.3,0.9c0.2,0.2,0.5,0.4,0.9,0.4s0.8-0.1,1.1-0.2c0.3-0.1,0.7-0.3,1-0.6v-4.1h-1v-0.3h1.4v5H521.3z"/>
	<path class="st4" d="M527,212c-0.3,0.3-0.6,0.5-1,0.7c-0.4,0.2-0.8,0.2-1.2,0.2c-0.5,0-1-0.1-1.4-0.4c-0.4-0.2-0.7-0.6-1-1
		s-0.3-0.9-0.3-1.4c0-0.5,0.1-1,0.3-1.4s0.6-0.7,1-1c0.4-0.2,0.9-0.3,1.4-0.3c0.4,0,0.8,0.1,1.1,0.2c0.3,0.2,0.6,0.4,0.7,0.6v-0.8
		h0.4v1.5h-0.3c-0.1-0.4-0.3-0.7-0.6-1c-0.3-0.3-0.8-0.4-1.2-0.4c-0.5,0-0.9,0.1-1.2,0.3c-0.4,0.2-0.6,0.5-0.8,0.9
		c-0.2,0.4-0.3,0.8-0.3,1.3c0,0.5,0.1,0.9,0.3,1.3c0.2,0.4,0.5,0.7,0.8,0.9s0.8,0.3,1.2,0.3c0.4,0,0.8-0.1,1.1-0.2s0.6-0.4,1-0.7
		L527,212z"/>
	<path class="st4" d="M533.3,212c-0.3,0.3-0.6,0.5-1,0.7c-0.4,0.2-0.8,0.2-1.2,0.2c-0.5,0-1-0.1-1.4-0.4c-0.4-0.2-0.7-0.6-1-1
		s-0.3-0.9-0.3-1.4c0-0.5,0.1-1,0.3-1.4s0.6-0.7,1-1s0.9-0.3,1.4-0.3c0.4,0,0.8,0.1,1.1,0.2c0.3,0.2,0.6,0.4,0.7,0.6v-0.8h0.4v1.5
		h-0.3c-0.1-0.4-0.3-0.7-0.6-1c-0.3-0.3-0.8-0.4-1.2-0.4c-0.5,0-0.9,0.1-1.2,0.3c-0.4,0.2-0.6,0.5-0.8,0.9c-0.2,0.4-0.3,0.8-0.3,1.3
		c0,0.5,0.1,0.9,0.3,1.3c0.2,0.4,0.5,0.7,0.8,0.9c0.4,0.2,0.8,0.3,1.2,0.3c0.4,0,0.8-0.1,1.1-0.2s0.6-0.4,1-0.7L533.3,212z"/>
	<path class="st4" d="M539.9,210.3H535c0,0.5,0.1,0.9,0.4,1.2c0.2,0.4,0.5,0.6,0.9,0.8c0.4,0.2,0.8,0.3,1.2,0.3
		c0.4,0,0.8-0.1,1.2-0.3c0.4-0.2,0.7-0.4,1-0.7l0.1,0.3c-0.3,0.3-0.7,0.6-1.1,0.7c-0.4,0.2-0.8,0.3-1.2,0.3c-0.5,0-1-0.1-1.4-0.3
		c-0.4-0.2-0.8-0.5-1-1s-0.4-0.9-0.4-1.5c0-0.6,0.1-1.1,0.4-1.5c0.3-0.4,0.6-0.7,1-0.9c0.4-0.2,0.9-0.3,1.3-0.3
		c0.5,0,0.9,0.1,1.3,0.3c0.4,0.2,0.7,0.5,0.9,0.9C539.7,209,539.9,209.6,539.9,210.3L539.9,210.3z M539.5,210c0-0.5-0.1-0.9-0.3-1.3
		c-0.2-0.3-0.5-0.6-0.8-0.8c-0.3-0.2-0.7-0.3-1.1-0.3c-0.4,0-0.8,0.1-1.1,0.3c-0.3,0.2-0.6,0.5-0.8,0.8c-0.2,0.4-0.3,0.8-0.3,1.2
		H539.5z"/>
	<path class="st4" d="M545.4,210.5c0.3,0.2,0.4,0.5,0.4,1c0,0.5-0.2,0.8-0.6,1.1c-0.4,0.2-0.8,0.4-1.4,0.4c-0.4,0-0.8-0.1-1.2-0.2
		c-0.4-0.1-0.6-0.3-0.8-0.5v0.6h-0.3v-1.6h0.3l0,0.7c0.2,0.2,0.5,0.4,0.9,0.6c0.3,0.1,0.7,0.2,1.2,0.2c0.5,0,0.8-0.1,1.1-0.3
		c0.3-0.2,0.4-0.5,0.4-0.8c0-0.3-0.1-0.5-0.2-0.6s-0.3-0.3-0.5-0.4c-0.2-0.1-0.5-0.2-0.9-0.3l-0.9-0.2c-0.5-0.1-0.8-0.3-1.1-0.5
		c-0.2-0.2-0.4-0.5-0.4-0.9c0-0.4,0.2-0.8,0.5-1s0.8-0.4,1.4-0.4c0.3,0,0.6,0.1,0.9,0.2s0.6,0.3,0.8,0.5v-0.5h0.3v1.7h-0.3l-0.1-0.9
		c-0.2-0.2-0.4-0.3-0.7-0.5c-0.3-0.1-0.6-0.2-1-0.2c-0.4,0-0.8,0.1-1.1,0.3c-0.3,0.2-0.4,0.5-0.4,0.8c0,0.3,0.1,0.5,0.3,0.7
		c0.2,0.1,0.5,0.3,0.9,0.4l0.9,0.2C544.7,210.1,545.2,210.3,545.4,210.5z"/>
	<path class="st4" d="M551.4,210.5c0.3,0.2,0.4,0.5,0.4,1c0,0.5-0.2,0.8-0.6,1.1c-0.4,0.2-0.8,0.4-1.4,0.4c-0.4,0-0.8-0.1-1.2-0.2
		s-0.6-0.3-0.8-0.5v0.6h-0.4v-1.6h0.3l0,0.7c0.2,0.2,0.5,0.4,0.9,0.6c0.3,0.1,0.7,0.2,1.2,0.2c0.5,0,0.8-0.1,1.1-0.3
		c0.3-0.2,0.4-0.5,0.4-0.8c0-0.3-0.1-0.5-0.2-0.6c-0.1-0.2-0.3-0.3-0.5-0.4c-0.2-0.1-0.5-0.2-0.9-0.3l-0.9-0.2
		c-0.5-0.1-0.8-0.3-1.1-0.5c-0.2-0.2-0.4-0.5-0.4-0.9c0-0.4,0.2-0.8,0.5-1c0.4-0.2,0.8-0.4,1.4-0.4c0.3,0,0.6,0.1,0.9,0.2
		c0.3,0.1,0.6,0.3,0.8,0.5v-0.5h0.3v1.7h-0.3l-0.1-0.9c-0.2-0.2-0.4-0.3-0.7-0.5s-0.6-0.2-1-0.2c-0.4,0-0.8,0.1-1.1,0.3
		s-0.4,0.5-0.4,0.8c0,0.3,0.1,0.5,0.3,0.7c0.2,0.1,0.5,0.3,0.9,0.4l0.9,0.2C550.7,210.1,551.2,210.3,551.4,210.5z"/>
	<path class="st4" d="M554.4,210.9c0-0.4,0.1-0.7,0.2-0.9s0.2-0.5,0.4-0.7c0.2-0.2,0.4-0.4,0.7-0.7c0.3-0.3,0.5-0.6,0.7-0.8
		c0.2-0.3,0.2-0.6,0.2-0.9c0-0.5-0.1-0.8-0.4-1.1s-0.7-0.4-1.2-0.4c-0.5,0-0.9,0.1-1.2,0.4c-0.3,0.2-0.5,0.6-0.5,1h-0.4
		c0-0.5,0.2-0.9,0.6-1.2c0.4-0.3,0.9-0.5,1.5-0.5c0.6,0,1.1,0.2,1.5,0.5c0.4,0.3,0.5,0.7,0.5,1.3c0,0.4-0.1,0.7-0.3,1
		s-0.4,0.6-0.8,1c-0.3,0.3-0.5,0.5-0.6,0.7c-0.1,0.2-0.3,0.4-0.3,0.6c-0.1,0.2-0.1,0.5-0.1,0.8v0.1h-0.4V210.9z M554.3,212.8
		c-0.1-0.1-0.1-0.1-0.1-0.2s0-0.2,0.1-0.2s0.2-0.1,0.3-0.1s0.2,0,0.3,0.1c0.1,0.1,0.1,0.2,0.1,0.2s0,0.2-0.1,0.2
		c-0.1,0.1-0.2,0.1-0.3,0.1S554.4,212.9,554.3,212.8z"/>
</g>
<rect x="343.3" y="331.3" class="st2" width="116.8" height="45.9"/>
<g class="st3">
	<path class="st4" d="M344.1,339.1v-0.3h1.1v-7h-1.1v-0.3h2.7v0.3h-1.1v3.3h5.1v-3.3h-1.1v-0.3h2.7v0.3h-1.1v7h1.1v0.3h-2.7v-0.3
		h1.1v-3.4h-5.1v3.4h1.1v0.3H344.1z"/>
	<path class="st4" d="M354.8,338.9c-0.4-0.2-0.8-0.6-1-1c-0.2-0.4-0.4-0.9-0.4-1.5c0-0.5,0.1-1,0.4-1.4c0.2-0.4,0.6-0.7,1-1
		c0.4-0.2,0.9-0.3,1.4-0.3c0.5,0,1,0.1,1.5,0.3c0.4,0.2,0.8,0.6,1,1s0.4,0.9,0.4,1.4c0,0.5-0.1,1-0.4,1.5s-0.6,0.8-1,1
		c-0.4,0.2-0.9,0.4-1.5,0.4C355.8,339.2,355.3,339.1,354.8,338.9z M357.6,338.6c0.4-0.2,0.7-0.5,0.9-0.9c0.2-0.4,0.3-0.8,0.3-1.3
		c0-0.5-0.1-0.9-0.3-1.3s-0.5-0.7-0.9-0.9c-0.4-0.2-0.8-0.3-1.3-0.3c-0.5,0-0.9,0.1-1.3,0.3c-0.4,0.2-0.7,0.5-0.9,0.9
		c-0.2,0.4-0.3,0.8-0.3,1.3c0,0.5,0.1,0.9,0.3,1.3c0.2,0.4,0.5,0.7,0.9,0.9c0.4,0.2,0.8,0.3,1.3,0.3
		C356.8,338.9,357.2,338.8,357.6,338.6z"/>
	<path class="st4" d="M362.5,339.1l-1.8-5h-0.9v-0.3h2.3v0.3h-1l1.7,4.7l1.7-4.7h-0.9v-0.3h2.3v0.3h-1l1.7,4.7l1.6-4.7h-0.9v-0.3
		h2.2v0.3h-0.9l-1.7,5h-0.5l-1.7-4.7l-1.7,4.7H362.5z"/>
	<path class="st4" d="M375.1,338.7c-0.3-0.2-0.4-0.6-0.4-1.1v-3.6h-1v-0.3h1v-1.8l0.4-0.1v2h1.5v0.3h-1.5v3.5c0,0.4,0.1,0.7,0.3,0.9
		s0.5,0.3,1,0.3h0.5v0.3h-0.6C375.8,339.1,375.4,338.9,375.1,338.7z"/>
	<path class="st4" d="M379,338.9c-0.4-0.2-0.8-0.6-1-1c-0.2-0.4-0.4-0.9-0.4-1.5c0-0.5,0.1-1,0.4-1.4c0.2-0.4,0.6-0.7,1-1
		c0.4-0.2,0.9-0.3,1.4-0.3c0.5,0,1,0.1,1.5,0.3c0.4,0.2,0.8,0.6,1,1s0.4,0.9,0.4,1.4c0,0.5-0.1,1-0.4,1.5s-0.6,0.8-1,1
		c-0.4,0.2-0.9,0.4-1.5,0.4C379.9,339.2,379.4,339.1,379,338.9z M381.7,338.6c0.4-0.2,0.7-0.5,0.9-0.9c0.2-0.4,0.3-0.8,0.3-1.3
		c0-0.5-0.1-0.9-0.3-1.3s-0.5-0.7-0.9-0.9c-0.4-0.2-0.8-0.3-1.3-0.3c-0.5,0-0.9,0.1-1.3,0.3c-0.4,0.2-0.7,0.5-0.9,0.9
		s-0.3,0.8-0.3,1.3c0,0.5,0.1,0.9,0.3,1.3c0.2,0.4,0.5,0.7,0.9,0.9c0.4,0.2,0.8,0.3,1.3,0.3C380.9,338.9,381.3,338.8,381.7,338.6z"
		/>
	<path class="st4" d="M393,334.4c0.5,0.5,0.7,1.1,0.7,2c0,0.9-0.3,1.6-0.8,2.1c-0.5,0.5-1.2,0.8-2,0.8c-0.3,0-0.7-0.1-1-0.2
		c-0.3-0.1-0.6-0.3-0.9-0.6v0.6h-1.3v-0.3h0.9v-7.1h-0.9v-0.3h1.3v3c0.3-0.2,0.6-0.4,1-0.5s0.7-0.2,1-0.2
		C391.9,333.6,392.5,333.9,393,334.4z M392.7,338.2c0.4-0.4,0.7-1,0.7-1.8c0-0.8-0.2-1.4-0.6-1.8s-1-0.7-1.7-0.7
		c-0.3,0-0.6,0.1-1,0.2c-0.3,0.1-0.7,0.3-1,0.5v3.4c0.3,0.3,0.6,0.4,0.9,0.6s0.7,0.2,1,0.2C391.7,338.9,392.2,338.7,392.7,338.2z"/>
	<path class="st4" d="M399.8,336.5h-4.9c0,0.5,0.1,0.9,0.4,1.2c0.2,0.4,0.5,0.6,0.9,0.8c0.4,0.2,0.8,0.3,1.2,0.3
		c0.4,0,0.8-0.1,1.2-0.3c0.4-0.2,0.7-0.4,1-0.7l0.1,0.3c-0.3,0.3-0.7,0.6-1.1,0.7c-0.4,0.2-0.8,0.3-1.2,0.3c-0.5,0-1-0.1-1.4-0.3
		c-0.4-0.2-0.8-0.5-1-1c-0.3-0.4-0.4-0.9-0.4-1.5c0-0.6,0.1-1.1,0.4-1.5c0.3-0.4,0.6-0.7,1-0.9c0.4-0.2,0.9-0.3,1.3-0.3
		c0.5,0,0.9,0.1,1.3,0.3s0.7,0.5,0.9,0.9C399.7,335.3,399.8,335.8,399.8,336.5L399.8,336.5z M399.5,336.2c0-0.5-0.1-0.9-0.3-1.3
		c-0.2-0.3-0.5-0.6-0.8-0.8c-0.3-0.2-0.7-0.3-1.1-0.3c-0.4,0-0.8,0.1-1.1,0.3c-0.3,0.2-0.6,0.5-0.8,0.8c-0.2,0.4-0.3,0.8-0.3,1.2
		H399.5z"/>
	<path class="st4" d="M405.4,336.8c0.3,0.2,0.4,0.5,0.4,1c0,0.5-0.2,0.8-0.6,1.1c-0.4,0.2-0.8,0.4-1.4,0.4c-0.4,0-0.8-0.1-1.2-0.2
		c-0.4-0.1-0.6-0.3-0.8-0.5v0.6h-0.3v-1.6h0.3l0,0.7c0.2,0.2,0.5,0.4,0.9,0.6c0.3,0.1,0.7,0.2,1.2,0.2c0.5,0,0.8-0.1,1.1-0.3
		c0.3-0.2,0.4-0.5,0.4-0.8c0-0.3-0.1-0.5-0.2-0.6s-0.3-0.3-0.5-0.4c-0.2-0.1-0.5-0.2-0.9-0.3l-0.9-0.2c-0.5-0.1-0.8-0.3-1.1-0.5
		c-0.2-0.2-0.4-0.5-0.4-0.9c0-0.4,0.2-0.8,0.5-1s0.8-0.4,1.4-0.4c0.3,0,0.6,0.1,0.9,0.2c0.3,0.1,0.6,0.3,0.8,0.5v-0.5h0.3v1.7h-0.3
		l-0.1-0.9c-0.2-0.2-0.4-0.3-0.7-0.5c-0.3-0.1-0.6-0.2-1-0.2c-0.4,0-0.8,0.1-1.1,0.3c-0.3,0.2-0.4,0.5-0.4,0.8
		c0,0.3,0.1,0.5,0.3,0.7c0.2,0.1,0.5,0.3,0.9,0.4l0.9,0.2C404.7,336.4,405.1,336.6,405.4,336.8z"/>
	<path class="st4" d="M408.2,338.7c-0.3-0.2-0.4-0.6-0.4-1.1v-3.6h-1v-0.3h1v-1.8l0.4-0.1v2h1.5v0.3h-1.5v3.5c0,0.4,0.1,0.7,0.3,0.9
		s0.5,0.3,1,0.3h0.5v0.3h-0.6C408.9,339.1,408.5,338.9,408.2,338.7z"/>
	<path class="st4" d="M418.6,333.9l-0.1,0.3c-0.2-0.1-0.3-0.2-0.4-0.2c-0.1,0-0.3-0.1-0.4-0.1c-0.2,0-0.5,0.1-0.7,0.2
		c-0.2,0.2-0.4,0.4-0.5,0.7c-0.1,0.3-0.2,0.7-0.2,1.1v2.7h1.1v0.3h-2.7v-0.3h1.2v-4.7h-1.1v-0.3h1.5v1.1c0.1-0.4,0.3-0.7,0.6-0.9
		s0.5-0.3,0.8-0.3C418,333.6,418.3,333.7,418.6,333.9z"/>
	<path class="st4" d="M424.5,336.5h-4.9c0,0.5,0.1,0.9,0.3,1.2c0.2,0.4,0.5,0.6,0.9,0.8c0.4,0.2,0.8,0.3,1.2,0.3
		c0.4,0,0.8-0.1,1.2-0.3c0.4-0.2,0.7-0.4,1-0.7l0.1,0.3c-0.3,0.3-0.7,0.6-1.1,0.7c-0.4,0.2-0.8,0.3-1.2,0.3c-0.5,0-1-0.1-1.4-0.3
		c-0.4-0.2-0.8-0.5-1-1s-0.4-0.9-0.4-1.5c0-0.6,0.1-1.1,0.4-1.5s0.6-0.7,1-0.9c0.4-0.2,0.9-0.3,1.3-0.3c0.5,0,0.9,0.1,1.3,0.3
		s0.7,0.5,0.9,0.9C424.4,335.3,424.5,335.8,424.5,336.5L424.5,336.5z M424.1,336.2c0-0.5-0.1-0.9-0.3-1.3s-0.5-0.6-0.8-0.8
		c-0.3-0.2-0.7-0.3-1.1-0.3c-0.4,0-0.8,0.1-1.1,0.3c-0.3,0.2-0.6,0.5-0.8,0.8c-0.2,0.4-0.3,0.8-0.3,1.2H424.1z"/>
	<path class="st4" d="M430.8,338.8v0.3h-1.1l-0.1-0.5c-0.8,0.5-1.5,0.7-2.1,0.7c-0.5,0-1-0.1-1.3-0.4c-0.3-0.3-0.5-0.7-0.5-1.1
		c0-0.5,0.2-0.9,0.5-1.2c0.3-0.2,0.8-0.4,1.3-0.4c0.5,0,1.1,0.1,2,0.2v-0.8c0-0.5-0.1-0.9-0.4-1.2c-0.3-0.3-0.7-0.4-1.1-0.4
		c-0.5,0-1.2,0.1-1.8,0.4l-0.1-0.3c0.3-0.1,0.7-0.3,1-0.3c0.3-0.1,0.6-0.1,0.9-0.1c0.7,0,1.2,0.2,1.5,0.5c0.3,0.3,0.5,0.8,0.5,1.3
		v3.4H430.8z M426.5,338.5c0.3,0.2,0.6,0.4,1,0.4c0.3,0,0.6-0.1,0.9-0.2c0.3-0.1,0.7-0.3,1.1-0.5v-1.6c-0.8-0.2-1.4-0.2-2-0.2
		c-0.4,0-0.8,0.1-1.1,0.3c-0.3,0.2-0.4,0.5-0.4,1C426.1,338,426.3,338.3,426.5,338.5z"/>
	<path class="st4" d="M436.5,338.3c-0.3,0.3-0.6,0.5-1,0.7c-0.4,0.2-0.8,0.2-1.2,0.2c-0.5,0-1-0.1-1.4-0.4c-0.4-0.2-0.7-0.6-1-1
		s-0.3-0.9-0.3-1.4c0-0.5,0.1-1,0.3-1.4s0.6-0.7,1-1c0.4-0.2,0.9-0.3,1.4-0.3c0.4,0,0.8,0.1,1.1,0.2c0.3,0.2,0.6,0.4,0.7,0.6v-0.8
		h0.4v1.5h-0.3c-0.1-0.4-0.3-0.7-0.6-1c-0.3-0.3-0.8-0.4-1.2-0.4c-0.5,0-0.9,0.1-1.2,0.3c-0.4,0.2-0.6,0.5-0.8,0.9
		c-0.2,0.4-0.3,0.8-0.3,1.3c0,0.5,0.1,0.9,0.3,1.3c0.2,0.4,0.5,0.7,0.8,0.9s0.8,0.3,1.2,0.3c0.4,0,0.8-0.1,1.1-0.2s0.6-0.4,1-0.7
		L436.5,338.3z"/>
	<path class="st4" d="M443.5,338.8v0.3H441v-0.3h1.1v-3.6c0-0.4-0.1-0.7-0.4-0.9c-0.2-0.2-0.5-0.3-0.9-0.3c-0.5,0-1.3,0.2-2.2,0.7
		v4.1h1v0.3h-2.3v-0.3h1v-7.1h-0.9v-0.3h1.3v3c0.4-0.3,0.8-0.4,1.2-0.6s0.7-0.2,1-0.2c0.5,0,0.9,0.1,1.2,0.4
		c0.3,0.3,0.4,0.7,0.4,1.2v3.5H443.5z"/>
</g>
<g class="st3">
	<path class="st4" d="M344.8,356.4h0.5c0.3,0,0.5,0,0.6-0.1c0.1,0,0.2-0.1,0.3-0.2s0.2-0.3,0.3-0.5l0.4-1h-0.2l-2.1-4.6h-1.1v-0.3
		h2.4v0.3h-1l2,4.4l1.9-4.4h-1.1v-0.3h2.4v0.3h-0.9l-2.4,5.6c-0.1,0.3-0.2,0.5-0.4,0.6c-0.1,0.1-0.3,0.2-0.5,0.3
		c-0.2,0.1-0.4,0.1-0.7,0.1h-0.5V356.4z"/>
	<path class="st4" d="M352.1,355c-0.4-0.2-0.8-0.6-1-1c-0.2-0.4-0.4-0.9-0.4-1.5c0-0.5,0.1-1,0.4-1.4c0.2-0.4,0.6-0.7,1-1
		c0.4-0.2,0.9-0.3,1.4-0.3c0.5,0,1,0.1,1.5,0.3c0.4,0.2,0.8,0.6,1,1s0.4,0.9,0.4,1.4c0,0.5-0.1,1-0.4,1.5s-0.6,0.8-1,1
		c-0.4,0.2-0.9,0.4-1.5,0.4C353,355.3,352.5,355.2,352.1,355z M354.8,354.7c0.4-0.2,0.7-0.5,0.9-0.9c0.2-0.4,0.3-0.8,0.3-1.3
		c0-0.5-0.1-0.9-0.3-1.3s-0.5-0.7-0.9-0.9c-0.4-0.2-0.8-0.3-1.3-0.3c-0.5,0-0.9,0.1-1.3,0.3c-0.4,0.2-0.7,0.5-0.9,0.9
		s-0.3,0.8-0.3,1.3c0,0.5,0.1,0.9,0.3,1.3c0.2,0.4,0.5,0.7,0.9,0.9c0.4,0.2,0.8,0.3,1.3,0.3C354,355,354.4,354.9,354.8,354.7z"/>
	<path class="st4" d="M363.2,354.9v0.3h-1.3l0-0.6c-0.7,0.5-1.4,0.8-2.2,0.8c-0.6,0-1-0.2-1.3-0.5c-0.2-0.3-0.4-0.7-0.4-1v-3.6h-1
		v-0.3h1.4v3.9c0,0.3,0.1,0.6,0.3,0.9c0.2,0.2,0.5,0.4,0.9,0.4c0.4,0,0.8-0.1,1.1-0.2c0.3-0.1,0.7-0.3,1-0.6v-4.1h-1v-0.3h1.4v5
		H363.2z"/>
	<path class="st4" d="M368.2,350l-0.1,0.3c-0.2-0.1-0.3-0.2-0.4-0.2c-0.1,0-0.3-0.1-0.4-0.1c-0.2,0-0.5,0.1-0.7,0.2
		c-0.2,0.2-0.4,0.4-0.5,0.7c-0.1,0.3-0.2,0.7-0.2,1.1v2.7h1.1v0.3h-2.7v-0.3h1.2v-4.7h-1.1v-0.3h1.5v1.1c0.1-0.4,0.3-0.7,0.6-0.9
		s0.5-0.3,0.8-0.3C367.5,349.7,367.9,349.8,368.2,350z"/>
	<path class="st4" d="M373.7,354.8c-0.3-0.2-0.4-0.6-0.4-1.1v-3.6h-1v-0.3h1V348l0.4-0.1v2h1.5v0.3h-1.5v3.5c0,0.4,0.1,0.7,0.3,0.9
		s0.5,0.3,1,0.3h0.5v0.3H375C374.4,355.2,374,355,373.7,354.8z"/>
	<path class="st4" d="M381.4,354.9v0.3h-1.1l-0.1-0.5c-0.8,0.5-1.5,0.7-2.1,0.7c-0.5,0-1-0.1-1.3-0.4c-0.3-0.3-0.5-0.7-0.5-1.1
		c0-0.5,0.2-0.9,0.5-1.2c0.3-0.2,0.8-0.4,1.3-0.4c0.5,0,1.1,0.1,2,0.2v-0.8c0-0.5-0.1-0.9-0.4-1.2c-0.3-0.3-0.7-0.4-1.1-0.4
		c-0.5,0-1.2,0.1-1.8,0.4l-0.1-0.3c0.3-0.1,0.7-0.3,1-0.3c0.3-0.1,0.6-0.1,0.9-0.1c0.7,0,1.2,0.2,1.5,0.5c0.3,0.3,0.5,0.8,0.5,1.3
		v3.4H381.4z M377.1,354.6c0.3,0.2,0.6,0.4,1,0.4c0.3,0,0.6-0.1,0.9-0.2c0.3-0.1,0.7-0.3,1.1-0.5v-1.6c-0.8-0.2-1.4-0.2-2-0.2
		c-0.4,0-0.8,0.1-1.1,0.3c-0.3,0.2-0.4,0.5-0.4,1C376.8,354.1,376.9,354.4,377.1,354.6z"/>
	<path class="st4" d="M386.4,350l-0.1,0.3c-0.2-0.1-0.3-0.2-0.4-0.2c-0.1,0-0.3-0.1-0.4-0.1c-0.2,0-0.5,0.1-0.7,0.2
		c-0.2,0.2-0.4,0.4-0.5,0.7c-0.1,0.3-0.2,0.7-0.2,1.1v2.7h1.1v0.3h-2.7v-0.3h1.2v-4.7h-1.1v-0.3h1.5v1.1c0.1-0.4,0.3-0.7,0.6-0.9
		s0.5-0.3,0.8-0.3C385.8,349.7,386.1,349.8,386.4,350z"/>
	<path class="st4" d="M393.2,349.9v0.3h-0.9v5.1c0,0.8-0.2,1.4-0.6,1.8s-1,0.6-1.8,0.6c-0.4,0-1.1-0.1-1.9-0.3l0.1-0.3
		c0.7,0.2,1.3,0.3,1.8,0.3c0.7,0,1.2-0.2,1.5-0.5c0.4-0.3,0.5-0.8,0.5-1.4v-0.9c-0.3,0.2-0.6,0.4-0.9,0.6c-0.4,0.1-0.7,0.2-1.1,0.2
		c-0.5,0-1-0.1-1.4-0.3s-0.8-0.6-1-1c-0.2-0.4-0.4-0.9-0.4-1.4c0-0.5,0.1-1,0.3-1.4c0.2-0.4,0.5-0.7,0.9-1c0.4-0.2,0.9-0.3,1.4-0.3
		c0.4,0,0.8,0.1,1.2,0.2c0.4,0.1,0.7,0.3,1,0.6v-0.6H393.2z M387.8,353.8c0.2,0.4,0.5,0.6,0.9,0.8c0.4,0.2,0.8,0.3,1.3,0.3
		c0.3,0,0.7-0.1,1.1-0.2s0.7-0.3,0.9-0.6v-3.3c-0.3-0.2-0.6-0.4-1-0.6c-0.4-0.1-0.8-0.2-1.1-0.2c-0.7,0-1.2,0.2-1.6,0.7
		c-0.4,0.5-0.6,1.1-0.6,1.8C387.5,353,387.6,353.4,387.8,353.8z"/>
	<path class="st4" d="M399,352.6h-4.9c0,0.5,0.1,0.9,0.4,1.2c0.2,0.4,0.5,0.6,0.9,0.8c0.4,0.2,0.8,0.3,1.2,0.3
		c0.4,0,0.8-0.1,1.2-0.3c0.4-0.2,0.7-0.4,1-0.7l0.1,0.3c-0.3,0.3-0.7,0.6-1.1,0.7c-0.4,0.2-0.8,0.3-1.2,0.3c-0.5,0-1-0.1-1.4-0.3
		c-0.4-0.2-0.8-0.5-1-1c-0.3-0.4-0.4-0.9-0.4-1.5c0-0.6,0.1-1.1,0.4-1.5c0.3-0.4,0.6-0.7,1-0.9c0.4-0.2,0.9-0.3,1.3-0.3
		c0.5,0,0.9,0.1,1.3,0.3s0.7,0.5,0.9,0.9C398.9,351.4,399,351.9,399,352.6L399,352.6z M398.7,352.3c0-0.5-0.1-0.9-0.3-1.3
		c-0.2-0.3-0.5-0.6-0.8-0.8c-0.3-0.2-0.7-0.3-1.1-0.3c-0.4,0-0.8,0.1-1.1,0.3c-0.3,0.2-0.6,0.5-0.8,0.8c-0.2,0.4-0.3,0.8-0.3,1.2
		H398.7z"/>
	<path class="st4" d="M401.4,354.8c-0.3-0.2-0.4-0.6-0.4-1.1v-3.6h-1v-0.3h1V348l0.4-0.1v2h1.5v0.3h-1.5v3.5c0,0.4,0.1,0.7,0.3,0.9
		s0.5,0.3,1,0.3h0.5v0.3h-0.6C402.1,355.2,401.7,355,401.4,354.8z"/>
	<path class="st4" d="M405.4,353.3c0-0.4,0.1-0.7,0.2-0.9c0.1-0.3,0.2-0.5,0.4-0.7c0.2-0.2,0.4-0.4,0.7-0.7c0.3-0.3,0.5-0.6,0.7-0.8
		c0.2-0.3,0.2-0.6,0.2-0.9c0-0.5-0.1-0.8-0.4-1.1s-0.7-0.4-1.2-0.4c-0.5,0-0.9,0.1-1.2,0.4c-0.3,0.2-0.5,0.6-0.5,1h-0.4
		c0-0.5,0.2-0.9,0.6-1.2s0.9-0.5,1.5-0.5c0.6,0,1.1,0.2,1.5,0.5c0.4,0.3,0.5,0.7,0.5,1.3c0,0.4-0.1,0.7-0.3,1s-0.4,0.6-0.8,1
		c-0.3,0.3-0.5,0.5-0.6,0.7c-0.1,0.2-0.3,0.4-0.3,0.6c-0.1,0.2-0.1,0.5-0.1,0.8v0.1h-0.4V353.3z M405.3,355.2
		c-0.1-0.1-0.1-0.1-0.1-0.2s0-0.2,0.1-0.2c0.1-0.1,0.2-0.1,0.3-0.1s0.2,0,0.3,0.1c0.1,0.1,0.1,0.2,0.1,0.2s0,0.2-0.1,0.2
		c-0.1,0.1-0.2,0.1-0.3,0.1S405.4,355.3,405.3,355.2z"/>
</g>
<rect x="6.7" y="181.3" class="st2" width="111.6" height="45.9"/>
<g class="st3">
	<path class="st4" d="M7.5,189v-0.3h1.1v-7H7.5v-0.3h2.7v0.3H9.1v3.3h5.1v-3.3h-1.1v-0.3h2.7v0.3h-1.1v7h1.1v0.3h-2.7v-0.3h1.1v-3.4
		H9.1v3.4h1.1v0.3H7.5z"/>
	<path class="st4" d="M18.3,188.8c-0.4-0.2-0.8-0.6-1-1s-0.4-0.9-0.4-1.5c0-0.5,0.1-1,0.4-1.4c0.2-0.4,0.6-0.7,1-1
		c0.4-0.2,0.9-0.3,1.4-0.3c0.5,0,1,0.1,1.5,0.3c0.4,0.2,0.8,0.6,1,1s0.4,0.9,0.4,1.4c0,0.5-0.1,1-0.4,1.5s-0.6,0.8-1,1
		s-0.9,0.4-1.5,0.4C19.2,189.2,18.8,189.1,18.3,188.8z M21,188.5c0.4-0.2,0.7-0.5,0.9-0.9c0.2-0.4,0.3-0.8,0.3-1.3
		c0-0.5-0.1-0.9-0.3-1.3s-0.5-0.7-0.9-0.9c-0.4-0.2-0.8-0.3-1.3-0.3c-0.5,0-0.9,0.1-1.3,0.3c-0.4,0.2-0.7,0.5-0.9,0.9
		c-0.2,0.4-0.3,0.8-0.3,1.3c0,0.5,0.1,0.9,0.3,1.3c0.2,0.4,0.5,0.7,0.9,0.9c0.4,0.2,0.8,0.3,1.3,0.3C20.3,188.9,20.7,188.8,21,188.5
		z"/>
	<path class="st4" d="M25.9,189l-1.8-5h-0.9v-0.3h2.3v0.3h-1l1.7,4.7l1.7-4.7H27v-0.3h2.3v0.3h-1l1.7,4.7l1.6-4.7h-0.9v-0.3H33v0.3
		H32l-1.7,5h-0.5l-1.7-4.7l-1.7,4.7H25.9z"/>
	<path class="st4" d="M43.3,188.7v0.3H42v-0.6c-0.3,0.2-0.6,0.4-0.9,0.5s-0.7,0.2-1.1,0.2c-0.5,0-1-0.1-1.4-0.4
		c-0.4-0.2-0.8-0.6-1-1s-0.4-0.9-0.4-1.5c0-0.5,0.1-1,0.4-1.4s0.6-0.7,1-1s0.9-0.3,1.4-0.3c0.4,0,0.7,0.1,1.1,0.2
		c0.4,0.1,0.7,0.3,0.9,0.5v-2.7h-0.9v-0.3h1.3v7.4H43.3z M38,187.7c0.2,0.4,0.5,0.7,0.9,0.9c0.4,0.2,0.8,0.3,1.3,0.3
		c0.4,0,0.7-0.1,1-0.2s0.6-0.3,0.9-0.5v-3.5c-0.3-0.3-0.6-0.4-0.9-0.6s-0.7-0.2-1-0.2c-0.5,0-0.9,0.1-1.2,0.3s-0.6,0.5-0.9,0.9
		c-0.2,0.4-0.3,0.8-0.3,1.3C37.7,186.9,37.8,187.3,38,187.7z"/>
	<path class="st4" d="M45.3,188.8c-0.4-0.2-0.8-0.6-1-1s-0.4-0.9-0.4-1.5c0-0.5,0.1-1,0.4-1.4c0.2-0.4,0.6-0.7,1-1
		c0.4-0.2,0.9-0.3,1.4-0.3c0.5,0,1,0.1,1.5,0.3c0.4,0.2,0.8,0.6,1,1s0.4,0.9,0.4,1.4c0,0.5-0.1,1-0.4,1.5s-0.6,0.8-1,1
		s-0.9,0.4-1.5,0.4C46.3,189.2,45.8,189.1,45.3,188.8z M48.1,188.5c0.4-0.2,0.7-0.5,0.9-0.9c0.2-0.4,0.3-0.8,0.3-1.3
		c0-0.5-0.1-0.9-0.3-1.3s-0.5-0.7-0.9-0.9c-0.4-0.2-0.8-0.3-1.3-0.3c-0.5,0-0.9,0.1-1.3,0.3c-0.4,0.2-0.7,0.5-0.9,0.9
		c-0.2,0.4-0.3,0.8-0.3,1.3c0,0.5,0.1,0.9,0.3,1.3c0.2,0.4,0.5,0.7,0.9,0.9c0.4,0.2,0.8,0.3,1.3,0.3
		C47.3,188.9,47.7,188.8,48.1,188.5z"/>
	<path class="st4" d="M55.7,186.5h-4.9c0,0.5,0.1,0.9,0.4,1.2c0.2,0.4,0.5,0.6,0.9,0.8c0.4,0.2,0.8,0.3,1.2,0.3
		c0.4,0,0.8-0.1,1.2-0.3c0.4-0.2,0.7-0.4,1-0.7l0.1,0.3c-0.3,0.3-0.7,0.6-1.1,0.7c-0.4,0.2-0.8,0.3-1.2,0.3c-0.5,0-1-0.1-1.4-0.3
		c-0.4-0.2-0.8-0.5-1-1c-0.3-0.4-0.4-0.9-0.4-1.5c0-0.6,0.1-1.1,0.4-1.5c0.3-0.4,0.6-0.7,1-0.9c0.4-0.2,0.9-0.3,1.3-0.3
		c0.5,0,0.9,0.1,1.3,0.3s0.7,0.5,0.9,0.9C55.6,185.2,55.7,185.8,55.7,186.5L55.7,186.5z M55.4,186.2c0-0.5-0.1-0.9-0.3-1.3
		c-0.2-0.3-0.5-0.6-0.8-0.8c-0.3-0.2-0.7-0.3-1.1-0.3c-0.4,0-0.8,0.1-1.1,0.3c-0.3,0.2-0.6,0.5-0.8,0.8c-0.2,0.4-0.3,0.8-0.3,1.2
		H55.4z"/>
	<path class="st4" d="M61.3,186.7c0.3,0.2,0.4,0.5,0.4,1c0,0.5-0.2,0.8-0.6,1.1c-0.4,0.2-0.8,0.4-1.4,0.4c-0.4,0-0.8-0.1-1.2-0.2
		c-0.4-0.1-0.6-0.3-0.8-0.5v0.6h-0.4v-1.6h0.3l0,0.7c0.2,0.2,0.5,0.4,0.9,0.6c0.3,0.1,0.7,0.2,1.2,0.2c0.5,0,0.8-0.1,1.1-0.3
		c0.3-0.2,0.4-0.5,0.4-0.8c0-0.3-0.1-0.5-0.2-0.6c-0.1-0.2-0.3-0.3-0.5-0.4c-0.2-0.1-0.5-0.2-0.9-0.3l-0.9-0.2
		c-0.5-0.1-0.8-0.3-1.1-0.5c-0.2-0.2-0.4-0.5-0.4-0.9c0-0.4,0.2-0.8,0.5-1s0.8-0.4,1.4-0.4c0.3,0,0.6,0.1,0.9,0.2s0.6,0.3,0.8,0.5
		v-0.5h0.3v1.7h-0.3l-0.1-0.9c-0.2-0.2-0.4-0.3-0.7-0.5s-0.6-0.2-1-0.2c-0.4,0-0.8,0.1-1.1,0.3c-0.3,0.2-0.4,0.5-0.4,0.8
		c0,0.3,0.1,0.5,0.3,0.7c0.2,0.1,0.5,0.3,0.9,0.4l0.9,0.2C60.6,186.3,61,186.5,61.3,186.7z"/>
	<path class="st4" d="M71.4,188.2c-0.3,0.3-0.6,0.5-1,0.7c-0.4,0.2-0.8,0.2-1.2,0.2c-0.5,0-1-0.1-1.4-0.4c-0.4-0.2-0.7-0.6-1-1
		s-0.3-0.9-0.3-1.4c0-0.5,0.1-1,0.3-1.4s0.6-0.7,1-1c0.4-0.2,0.9-0.3,1.4-0.3c0.4,0,0.8,0.1,1.1,0.2c0.3,0.2,0.6,0.4,0.7,0.6v-0.8
		h0.4v1.5h-0.3c-0.1-0.4-0.3-0.7-0.6-1c-0.3-0.3-0.8-0.4-1.2-0.4c-0.5,0-0.9,0.1-1.2,0.3c-0.4,0.2-0.6,0.5-0.8,0.9
		c-0.2,0.4-0.3,0.8-0.3,1.3c0,0.5,0.1,0.9,0.3,1.3c0.2,0.4,0.5,0.7,0.8,0.9c0.4,0.2,0.8,0.3,1.2,0.3c0.4,0,0.8-0.1,1.1-0.2
		s0.6-0.4,1-0.7L71.4,188.2z"/>
	<path class="st4" d="M74.1,188.8c-0.4-0.2-0.8-0.6-1-1s-0.4-0.9-0.4-1.5c0-0.5,0.1-1,0.4-1.4c0.2-0.4,0.6-0.7,1-1
		c0.4-0.2,0.9-0.3,1.4-0.3c0.5,0,1,0.1,1.5,0.3c0.4,0.2,0.8,0.6,1,1s0.4,0.9,0.4,1.4c0,0.5-0.1,1-0.4,1.5s-0.6,0.8-1,1
		s-0.9,0.4-1.5,0.4C75,189.2,74.5,189.1,74.1,188.8z M76.8,188.5c0.4-0.2,0.7-0.5,0.9-0.9c0.2-0.4,0.3-0.8,0.3-1.3
		c0-0.5-0.1-0.9-0.3-1.3s-0.5-0.7-0.9-0.9c-0.4-0.2-0.8-0.3-1.3-0.3c-0.5,0-0.9,0.1-1.3,0.3c-0.4,0.2-0.7,0.5-0.9,0.9
		c-0.2,0.4-0.3,0.8-0.3,1.3c0,0.5,0.1,0.9,0.3,1.3c0.2,0.4,0.5,0.7,0.9,0.9c0.4,0.2,0.8,0.3,1.3,0.3C76,188.9,76.5,188.8,76.8,188.5
		z"/>
	<path class="st4" d="M85.5,188.7v0.3h-2.5v-0.3h1.1v-3.6c0-0.4-0.1-0.7-0.3-0.9c-0.2-0.2-0.5-0.3-0.9-0.3c-0.6,0-1.3,0.2-2.2,0.7
		v4.1h1.1v0.3h-2.7v-0.3h1.2V184h-1.1v-0.3h1.5v0.6c0.8-0.5,1.6-0.7,2.2-0.7c0.5,0,0.9,0.1,1.2,0.4c0.3,0.3,0.4,0.7,0.4,1.2v3.5
		H85.5z"/>
	<path class="st4" d="M87.2,188.7c-0.3-0.2-0.4-0.6-0.4-1.1V184h-1v-0.3h1v-1.8l0.4-0.1v2h1.5v0.3h-1.5v3.5c0,0.4,0.1,0.7,0.3,0.9
		s0.5,0.3,1,0.3H89v0.3h-0.6C87.9,189,87.5,188.9,87.2,188.7z"/>
	<path class="st4" d="M95,186.5h-4.9c0,0.5,0.1,0.9,0.4,1.2c0.2,0.4,0.5,0.6,0.9,0.8c0.4,0.2,0.8,0.3,1.2,0.3c0.4,0,0.8-0.1,1.2-0.3
		c0.4-0.2,0.7-0.4,1-0.7l0.1,0.3c-0.3,0.3-0.7,0.6-1.1,0.7c-0.4,0.2-0.8,0.3-1.2,0.3c-0.5,0-1-0.1-1.4-0.3c-0.4-0.2-0.8-0.5-1-1
		c-0.3-0.4-0.4-0.9-0.4-1.5c0-0.6,0.1-1.1,0.4-1.5c0.3-0.4,0.6-0.7,1-0.9c0.4-0.2,0.9-0.3,1.3-0.3c0.5,0,0.9,0.1,1.3,0.3
		s0.7,0.5,0.9,0.9C94.8,185.2,95,185.8,95,186.5L95,186.5z M94.6,186.2c0-0.5-0.1-0.9-0.3-1.3c-0.2-0.3-0.5-0.6-0.8-0.8
		c-0.3-0.2-0.7-0.3-1.1-0.3c-0.4,0-0.8,0.1-1.1,0.3c-0.3,0.2-0.6,0.5-0.8,0.8c-0.2,0.4-0.3,0.8-0.3,1.2H94.6z"/>
	<path class="st4" d="M102.3,188.7v0.3h-2.5v-0.3h1.1v-3.6c0-0.4-0.1-0.7-0.3-0.9c-0.2-0.2-0.5-0.3-0.9-0.3c-0.6,0-1.3,0.2-2.2,0.7
		v4.1h1.1v0.3h-2.7v-0.3h1.2V184h-1.1v-0.3h1.5v0.6c0.8-0.5,1.6-0.7,2.2-0.7c0.5,0,0.9,0.1,1.2,0.4c0.3,0.3,0.4,0.7,0.4,1.2v3.5
		H102.3z"/>
	<path class="st4" d="M104.1,188.7c-0.3-0.2-0.4-0.6-0.4-1.1V184h-1v-0.3h1v-1.8l0.4-0.1v2h1.5v0.3H104v3.5c0,0.4,0.1,0.7,0.3,0.9
		s0.5,0.3,1,0.3h0.5v0.3h-0.6C104.7,189,104.3,188.9,104.1,188.7z"/>
</g>
<g class="st3">
	<path class="st4" d="M13.2,204.8v0.3h-1.3v-0.6c-0.3,0.2-0.6,0.4-0.9,0.5s-0.7,0.2-1.1,0.2c-0.5,0-1-0.1-1.4-0.4
		c-0.4-0.2-0.8-0.6-1-1s-0.4-0.9-0.4-1.5c0-0.5,0.1-1,0.4-1.4s0.6-0.7,1-1c0.4-0.2,0.9-0.3,1.4-0.3c0.4,0,0.7,0.1,1.1,0.2
		c0.4,0.1,0.7,0.3,0.9,0.5v-2.7H11v-0.3h1.3v7.4H13.2z M7.8,203.8c0.2,0.4,0.5,0.7,0.9,0.9c0.4,0.2,0.8,0.3,1.3,0.3
		c0.4,0,0.7-0.1,1-0.2s0.6-0.3,0.9-0.5v-3.5c-0.3-0.3-0.6-0.4-0.9-0.6s-0.7-0.2-1-0.2c-0.5,0-0.9,0.1-1.2,0.3s-0.6,0.5-0.9,0.9
		c-0.2,0.4-0.3,0.8-0.3,1.3C7.5,203,7.6,203.4,7.8,203.8z"/>
	<path class="st4" d="M18.1,200l-0.1,0.3c-0.2-0.1-0.3-0.2-0.4-0.2c-0.1,0-0.3-0.1-0.4-0.1c-0.2,0-0.5,0.1-0.7,0.2
		c-0.2,0.2-0.4,0.4-0.5,0.7c-0.1,0.3-0.2,0.7-0.2,1.1v2.7h1.1v0.3h-2.7v-0.3h1.2v-4.7h-1.1v-0.3h1.5v1.1c0.1-0.4,0.3-0.7,0.6-0.9
		c0.2-0.2,0.5-0.3,0.8-0.3C17.4,199.7,17.8,199.8,18.1,200z"/>
	<path class="st4" d="M18.6,205.1v-0.3h1.2v-4.7h-1.1v-0.3h1.5v5h1.2v0.3H18.6z M19.6,198.4c-0.1-0.1-0.1-0.1-0.1-0.2s0-0.2,0.1-0.2
		c0.1-0.1,0.1-0.1,0.3-0.1c0.1,0,0.2,0,0.3,0.1c0.1,0.1,0.1,0.1,0.1,0.2s0,0.2-0.1,0.2c-0.1,0.1-0.2,0.1-0.3,0.1
		C19.7,198.5,19.6,198.4,19.6,198.4z"/>
	<path class="st4" d="M24.8,205.1l-2.2-5h-1v-0.3h2.5v0.3H23l2,4.7l2-4.7h-1.1v-0.3h2.4v0.3h-0.9l-2.2,5H24.8z"/>
	<path class="st4" d="M34.1,202.6h-4.9c0,0.5,0.1,0.9,0.4,1.2c0.2,0.4,0.5,0.6,0.9,0.8c0.4,0.2,0.8,0.3,1.2,0.3
		c0.4,0,0.8-0.1,1.2-0.3c0.4-0.2,0.7-0.4,1-0.7l0.1,0.3c-0.3,0.3-0.7,0.6-1.1,0.7c-0.4,0.2-0.8,0.3-1.2,0.3c-0.5,0-1-0.1-1.4-0.3
		c-0.4-0.2-0.8-0.5-1-1c-0.3-0.4-0.4-0.9-0.4-1.5c0-0.6,0.1-1.1,0.4-1.5c0.3-0.4,0.6-0.7,1-0.9c0.4-0.2,0.9-0.3,1.3-0.3
		c0.5,0,0.9,0.1,1.3,0.3c0.4,0.2,0.7,0.5,0.9,0.9C34,201.3,34.1,201.9,34.1,202.6L34.1,202.6z M33.8,202.3c0-0.5-0.1-0.9-0.3-1.3
		c-0.2-0.3-0.5-0.6-0.8-0.8c-0.3-0.2-0.7-0.3-1.1-0.3c-0.4,0-0.8,0.1-1.1,0.3c-0.3,0.2-0.6,0.5-0.8,0.8c-0.2,0.4-0.3,0.8-0.3,1.2
		H33.8z"/>
	<path class="st4" d="M44.1,202.6h-4.9c0,0.5,0.1,0.9,0.4,1.2c0.2,0.4,0.5,0.6,0.9,0.8c0.4,0.2,0.8,0.3,1.2,0.3
		c0.4,0,0.8-0.1,1.2-0.3c0.4-0.2,0.7-0.4,1-0.7l0.1,0.3c-0.3,0.3-0.7,0.6-1.1,0.7c-0.4,0.2-0.8,0.3-1.2,0.3c-0.5,0-1-0.1-1.4-0.3
		c-0.4-0.2-0.8-0.5-1-1c-0.3-0.4-0.4-0.9-0.4-1.5c0-0.6,0.1-1.1,0.4-1.5c0.3-0.4,0.6-0.7,1-0.9c0.4-0.2,0.9-0.3,1.3-0.3
		c0.5,0,0.9,0.1,1.3,0.3c0.4,0.2,0.7,0.5,0.9,0.9C44,201.3,44.1,201.9,44.1,202.6L44.1,202.6z M43.8,202.3c0-0.5-0.1-0.9-0.3-1.3
		c-0.2-0.3-0.5-0.6-0.8-0.8c-0.3-0.2-0.7-0.3-1.1-0.3c-0.4,0-0.8,0.1-1.1,0.3c-0.3,0.2-0.6,0.5-0.8,0.8c-0.2,0.4-0.3,0.8-0.3,1.2
		H43.8z"/>
	<path class="st4" d="M45,205.1v-0.3h1l2-2.4l-1.9-2.3h-1v-0.3h2.4v0.3h-1.1l1.7,2.1l1.7-2.1h-1.1v-0.3h2.5v0.3h-1.1l-1.9,2.3l2,2.4
		h1v0.3h-2.5v-0.3h1.2l-1.9-2.2l-1.8,2.2h1v0.3H45z"/>
	<path class="st4" d="M56.9,200c0.4,0.2,0.7,0.6,0.9,1s0.3,0.9,0.3,1.5c0,0.8-0.2,1.5-0.7,2s-1.1,0.8-1.9,0.8
		c-0.4,0-0.7-0.1-1.1-0.2c-0.4-0.1-0.7-0.3-1-0.6l0,2.4h0.9v0.3h-2.2v-0.3h0.9v-6.8h-0.8v-0.3h1.2v0.6c0.3-0.2,0.6-0.4,1-0.5
		c0.4-0.1,0.7-0.2,1.1-0.2C56,199.7,56.5,199.8,56.9,200z M57.1,204.3c0.4-0.5,0.6-1.1,0.6-1.8c0-0.7-0.2-1.3-0.6-1.8
		c-0.4-0.5-1-0.7-1.7-0.7c-0.3,0-0.7,0.1-1,0.2c-0.4,0.1-0.7,0.3-1,0.5v3.4c0.3,0.3,0.6,0.5,1,0.6c0.4,0.1,0.7,0.2,1,0.2
		C56.2,205,56.7,204.7,57.1,204.3z"/>
	<path class="st4" d="M64.2,202.6h-4.9c0,0.5,0.1,0.9,0.4,1.2c0.2,0.4,0.5,0.6,0.9,0.8c0.4,0.2,0.8,0.3,1.2,0.3
		c0.4,0,0.8-0.1,1.2-0.3c0.4-0.2,0.7-0.4,1-0.7l0.1,0.3c-0.3,0.3-0.7,0.6-1.1,0.7c-0.4,0.2-0.8,0.3-1.2,0.3c-0.5,0-1-0.1-1.4-0.3
		c-0.4-0.2-0.8-0.5-1-1c-0.3-0.4-0.4-0.9-0.4-1.5c0-0.6,0.1-1.1,0.4-1.5c0.3-0.4,0.6-0.7,1-0.9c0.4-0.2,0.9-0.3,1.3-0.3
		c0.5,0,0.9,0.1,1.3,0.3c0.4,0.2,0.7,0.5,0.9,0.9C64.1,201.3,64.2,201.9,64.2,202.6L64.2,202.6z M63.9,202.3c0-0.5-0.1-0.9-0.3-1.3
		c-0.2-0.3-0.5-0.6-0.8-0.8c-0.3-0.2-0.7-0.3-1.1-0.3c-0.4,0-0.8,0.1-1.1,0.3c-0.3,0.2-0.6,0.5-0.8,0.8c-0.2,0.4-0.3,0.8-0.3,1.2
		H63.9z"/>
	<path class="st4" d="M69.6,200l-0.1,0.3c-0.2-0.1-0.3-0.2-0.4-0.2c-0.1,0-0.3-0.1-0.4-0.1c-0.2,0-0.5,0.1-0.7,0.2
		c-0.2,0.2-0.4,0.4-0.5,0.7c-0.1,0.3-0.2,0.7-0.2,1.1v2.7h1.1v0.3h-2.7v-0.3h1.2v-4.7h-1.1v-0.3h1.5v1.1c0.1-0.4,0.3-0.7,0.6-0.9
		c0.2-0.2,0.5-0.3,0.8-0.3C69,199.7,69.3,199.8,69.6,200z"/>
	<path class="st4" d="M70.1,205.1v-0.3h1.2v-4.7h-1.1v-0.3h1.5v5h1.2v0.3H70.1z M71.1,198.4c-0.1-0.1-0.1-0.1-0.1-0.2s0-0.2,0.1-0.2
		c0.1-0.1,0.1-0.1,0.3-0.1c0.1,0,0.2,0,0.3,0.1c0.1,0.1,0.1,0.1,0.1,0.2s0,0.2-0.1,0.2c-0.1,0.1-0.2,0.1-0.3,0.1
		C71.2,198.5,71.1,198.4,71.1,198.4z"/>
	<path class="st4" d="M78.7,202.6h-4.9c0,0.5,0.1,0.9,0.4,1.2c0.2,0.4,0.5,0.6,0.9,0.8c0.4,0.2,0.8,0.3,1.2,0.3
		c0.4,0,0.8-0.1,1.2-0.3c0.4-0.2,0.7-0.4,1-0.7l0.1,0.3c-0.3,0.3-0.7,0.6-1.1,0.7c-0.4,0.2-0.8,0.3-1.2,0.3c-0.5,0-1-0.1-1.4-0.3
		c-0.4-0.2-0.8-0.5-1-1c-0.3-0.4-0.4-0.9-0.4-1.5c0-0.6,0.1-1.1,0.4-1.5c0.3-0.4,0.6-0.7,1-0.9c0.4-0.2,0.9-0.3,1.3-0.3
		c0.5,0,0.9,0.1,1.3,0.3c0.4,0.2,0.7,0.5,0.9,0.9C78.6,201.3,78.7,201.9,78.7,202.6L78.7,202.6z M78.3,202.3c0-0.5-0.1-0.9-0.3-1.3
		c-0.2-0.3-0.5-0.6-0.8-0.8c-0.3-0.2-0.7-0.3-1.1-0.3c-0.4,0-0.8,0.1-1.1,0.3c-0.3,0.2-0.6,0.5-0.8,0.8c-0.2,0.4-0.3,0.8-0.3,1.2
		H78.3z"/>
	<path class="st4" d="M86.1,204.8v0.3h-2.5v-0.3h1.1v-3.6c0-0.4-0.1-0.7-0.3-0.9c-0.2-0.2-0.5-0.3-0.9-0.3c-0.6,0-1.3,0.2-2.2,0.7
		v4.1h1.1v0.3h-2.7v-0.3h1.2v-4.7h-1.1v-0.3h1.5v0.6c0.8-0.5,1.6-0.7,2.2-0.7c0.5,0,0.9,0.1,1.2,0.4c0.3,0.3,0.4,0.7,0.4,1.2v3.5
		H86.1z"/>
	<path class="st4" d="M91.5,204.3c-0.3,0.3-0.6,0.5-1,0.7c-0.4,0.2-0.8,0.2-1.2,0.2c-0.5,0-1-0.1-1.4-0.4c-0.4-0.2-0.7-0.6-1-1
		s-0.3-0.9-0.3-1.4c0-0.5,0.1-1,0.3-1.4s0.6-0.7,1-1c0.4-0.2,0.9-0.3,1.4-0.3c0.4,0,0.8,0.1,1.1,0.2c0.3,0.2,0.6,0.4,0.7,0.6v-0.8
		h0.4v1.5h-0.3c-0.1-0.4-0.3-0.7-0.6-1c-0.3-0.3-0.8-0.4-1.2-0.4c-0.5,0-0.9,0.1-1.2,0.3c-0.4,0.2-0.6,0.5-0.8,0.9
		c-0.2,0.4-0.3,0.8-0.3,1.3c0,0.5,0.1,0.9,0.3,1.3c0.2,0.4,0.5,0.7,0.8,0.9c0.4,0.2,0.8,0.3,1.2,0.3c0.4,0,0.8-0.1,1.1-0.2
		s0.6-0.4,1-0.7L91.5,204.3z"/>
	<path class="st4" d="M98.1,202.6h-4.9c0,0.5,0.1,0.9,0.4,1.2c0.2,0.4,0.5,0.6,0.9,0.8c0.4,0.2,0.8,0.3,1.2,0.3
		c0.4,0,0.8-0.1,1.2-0.3c0.4-0.2,0.7-0.4,1-0.7l0.1,0.3c-0.3,0.3-0.7,0.6-1.1,0.7c-0.4,0.2-0.8,0.3-1.2,0.3c-0.5,0-1-0.1-1.4-0.3
		c-0.4-0.2-0.8-0.5-1-1c-0.3-0.4-0.4-0.9-0.4-1.5c0-0.6,0.1-1.1,0.4-1.5c0.3-0.4,0.6-0.7,1-0.9c0.4-0.2,0.9-0.3,1.3-0.3
		c0.5,0,0.9,0.1,1.3,0.3c0.4,0.2,0.7,0.5,0.9,0.9C97.9,201.3,98.1,201.9,98.1,202.6L98.1,202.6z M97.7,202.3c0-0.5-0.1-0.9-0.3-1.3
		c-0.2-0.3-0.5-0.6-0.8-0.8c-0.3-0.2-0.7-0.3-1.1-0.3c-0.4,0-0.8,0.1-1.1,0.3c-0.3,0.2-0.6,0.5-0.8,0.8c-0.2,0.4-0.3,0.8-0.3,1.2
		H97.7z"/>
	<path class="st4" d="M100.6,203.2c0-0.4,0.1-0.7,0.2-0.9s0.2-0.5,0.4-0.7c0.2-0.2,0.4-0.4,0.7-0.7c0.3-0.3,0.5-0.6,0.7-0.8
		c0.2-0.3,0.2-0.6,0.2-0.9c0-0.5-0.1-0.8-0.4-1.1c-0.3-0.3-0.7-0.4-1.2-0.4c-0.5,0-0.9,0.1-1.2,0.4c-0.3,0.2-0.5,0.6-0.5,1H99
		c0-0.5,0.2-0.9,0.6-1.2s0.9-0.5,1.5-0.5c0.6,0,1.1,0.2,1.5,0.5c0.4,0.3,0.5,0.7,0.5,1.3c0,0.4-0.1,0.7-0.3,1
		c-0.2,0.3-0.4,0.6-0.8,1c-0.3,0.3-0.5,0.5-0.6,0.7c-0.1,0.2-0.3,0.4-0.3,0.6c-0.1,0.2-0.1,0.5-0.1,0.8v0.1h-0.4V203.2z
		 M100.5,205.1c-0.1-0.1-0.1-0.1-0.1-0.2s0-0.2,0.1-0.2s0.2-0.1,0.3-0.1c0.1,0,0.2,0,0.3,0.1c0.1,0.1,0.1,0.2,0.1,0.2s0,0.2-0.1,0.2
		c-0.1,0.1-0.2,0.1-0.3,0.1C100.7,205.2,100.6,205.2,100.5,205.1z"/>
</g>
<g>
	<path class="st4" d="M158.1,176.1c-6.3,0-9.7,4.7-9.7,9.4c0,3,1.4,5.4,2.6,7.6c1,1.7,1.9,3.3,1.9,5v0.8c0,0.3,0.3,0.6,0.6,0.6h8.6
		c0.4,0,0.6-0.3,0.6-0.6V198c0-1.6,1-3.3,2.1-5.1c1.4-2.3,2.8-4.7,2.8-7.6C167.8,181,165.2,176.1,158.1,176.1z M163.8,192.2
		c-1.2,1.9-2.3,3.8-2.3,5.8v0.2h-7.3V198c-0.1-2-1-3.7-2.1-5.5c-1.1-2-2.4-4.3-2.4-6.9c0-4,2.9-8.1,8.4-8.1c6.2,0,8.4,4.2,8.4,7.9
		C166.5,187.8,165.1,190.1,163.8,192.2z"/>
	<path class="st4" d="M164.9,174.8c0.1,0.1,0.2,0.1,0.3,0.1c0.2,0,0.4-0.1,0.6-0.3l2.5-4.3c0.2-0.3,0.1-0.7-0.2-0.9
		s-0.7-0.1-0.9,0.2l-2.5,4.3C164.5,174.2,164.6,174.6,164.9,174.8z"/>
	<path class="st4" d="M177.2,182.7c-0.1-0.3-0.4-0.6-0.8-0.5l-4.8,0.9c-0.3,0.1-0.6,0.4-0.5,0.8c0.1,0.3,0.3,0.5,0.6,0.5h0.1
		l4.8-0.9C177,183.4,177.3,183,177.2,182.7z"/>
	<path class="st4" d="M151.4,175.3c0.1,0,0.2,0,0.3-0.1c0.3-0.2,0.4-0.6,0.2-0.9l-2.4-4.3c-0.2-0.3-0.6-0.4-0.9-0.2
		c-0.3,0.2-0.4,0.6-0.2,0.9l2.4,4.3C150.9,175.2,151.1,175.3,151.4,175.3z"/>
	<path class="st4" d="M173.1,197l-3.9-3c-0.3-0.2-0.7-0.2-0.9,0.1s-0.2,0.7,0.1,0.9l3.9,3c0.1,0.1,0.3,0.1,0.4,0.1
		c0.2,0,0.4-0.1,0.5-0.2C173.4,197.6,173.4,197.2,173.1,197z"/>
	<path class="st4" d="M147.1,194.5l-3.8,3.1c-0.3,0.2-0.3,0.6-0.1,0.9c0.1,0.2,0.3,0.2,0.5,0.2c0.1,0,0.3,0,0.4-0.1l3.8-3.1
		c0.3-0.2,0.3-0.6,0.1-0.9S147.4,194.2,147.1,194.5z"/>
	<path class="st4" d="M144.9,184.8c0.3,0,0.6-0.2,0.6-0.5c0.1-0.3-0.2-0.7-0.5-0.7l-4.9-0.8c-0.3-0.1-0.7,0.2-0.7,0.5
		c-0.1,0.3,0.2,0.7,0.5,0.7L144.9,184.8C144.8,184.8,144.8,184.8,144.9,184.8z"/>
	<path class="st4" d="M155.6,179.8c-1.5,0.6-3,2.4-3.5,4.4c-0.5,2.2,0.1,4.3,1.6,6c0.1,0.1,0.3,0.2,0.5,0.2s0.3-0.1,0.4-0.2
		c0.3-0.2,0.3-0.6,0-0.9c-1.6-1.8-1.6-3.6-1.3-4.8c0.4-1.8,1.7-3.1,2.6-3.5c0.3-0.1,0.5-0.5,0.4-0.8
		C156.3,179.9,155.9,179.7,155.6,179.8z"/>
	<path class="st4" d="M162,200.7h-8.2c-0.4,0-0.6,0.3-0.6,0.6s0.3,0.6,0.6,0.6h8.2c0.4,0,0.6-0.3,0.6-0.6S162.3,200.7,162,200.7z"/>
	<path class="st4" d="M162,203h-8.2c-0.4,0-0.6,0.3-0.6,0.6c0,0.4,0.3,0.6,0.6,0.6h8.2c0.4,0,0.6-0.3,0.6-0.6
		C162.6,203.2,162.3,203,162,203z"/>
	<path class="st4" d="M162,205.2h-8.2c-0.4,0-0.6,0.3-0.6,0.6c0,0.4,0.3,0.6,0.6,0.6h8.2c0.4,0,0.6-0.3,0.6-0.6
		S162.3,205.2,162,205.2z"/>
	<path class="st4" d="M160,207.3h-4.8c-0.4,0-0.6,0.3-0.6,0.6c0,0.4,0.3,0.6,0.6,0.6h4.8c0.4,0,0.6-0.3,0.6-0.6
		C160.7,207.6,160.4,207.3,160,207.3z"/>
</g>
<circle class="st1" cx="419" cy="194.6" r="41"/>
<rect x="386.9" y="214.8" class="st2" width="64.7" height="36.5"/>
<g class="st3">
	<path class="st4" d="M409.6,218.2c0.2,0.2,0.3,0.5,0.3,0.8c0,0.5-0.2,0.8-0.5,1.1c-0.4,0.3-0.9,0.4-1.6,0.4h-2.8v-5.4h2.6
		c0.7,0,1.2,0.1,1.5,0.4c0.4,0.3,0.5,0.6,0.5,1c0,0.3-0.1,0.5-0.2,0.7s-0.3,0.4-0.5,0.5C409.2,217.8,409.4,218,409.6,218.2z
		 M406.2,216.1v1.3h1.2c0.3,0,0.5-0.1,0.7-0.2c0.2-0.1,0.2-0.3,0.2-0.5c0-0.2-0.1-0.4-0.2-0.5c-0.2-0.1-0.4-0.2-0.7-0.2H406.2z
		 M408.3,219.4c0.2-0.1,0.2-0.3,0.2-0.5c0-0.4-0.3-0.7-1-0.7h-1.5v1.3h1.5C407.9,219.6,408.2,219.5,408.3,219.4z"/>
	<path class="st4" d="M412.4,216.5c0.2-0.1,0.5-0.2,0.8-0.2v1.1c-0.1,0-0.2,0-0.3,0c-0.3,0-0.6,0.1-0.8,0.3
		c-0.2,0.2-0.3,0.5-0.3,0.9v2h-1.2v-4.1h1.1v0.5C412,216.7,412.2,216.6,412.4,216.5z"/>
	<path class="st4" d="M417.1,216.8c0.3,0.3,0.5,0.8,0.5,1.4v2.4h-1.1V220c-0.2,0.4-0.6,0.6-1.3,0.6c-0.3,0-0.6-0.1-0.8-0.2
		c-0.2-0.1-0.4-0.3-0.5-0.4s-0.2-0.4-0.2-0.6c0-0.4,0.1-0.7,0.4-0.9c0.3-0.2,0.7-0.3,1.3-0.3h1c0-0.3-0.1-0.5-0.2-0.6
		c-0.2-0.1-0.4-0.2-0.7-0.2c-0.2,0-0.4,0-0.7,0.1c-0.2,0.1-0.4,0.2-0.5,0.3l-0.4-0.8c0.2-0.2,0.5-0.3,0.8-0.4c0.3-0.1,0.6-0.1,1-0.1
		C416.3,216.3,416.8,216.5,417.1,216.8z M416.1,219.6c0.2-0.1,0.3-0.2,0.3-0.4v-0.4h-0.8c-0.5,0-0.7,0.2-0.7,0.5
		c0,0.2,0.1,0.3,0.2,0.4c0.1,0.1,0.3,0.1,0.5,0.1C415.8,219.8,415.9,219.7,416.1,219.6z"/>
	<path class="st4" d="M422.5,216.8c0.3,0.3,0.5,0.8,0.5,1.4v2.4h-1.2v-2.2c0-0.3-0.1-0.6-0.2-0.7c-0.1-0.2-0.4-0.2-0.6-0.2
		c-0.3,0-0.5,0.1-0.7,0.3c-0.2,0.2-0.3,0.5-0.3,0.8v2h-1.2v-4.1h1.1v0.5c0.2-0.2,0.4-0.3,0.6-0.4c0.2-0.1,0.5-0.1,0.8-0.1
		C421.7,216.3,422.2,216.5,422.5,216.8z"/>
	<path class="st4" d="M428.3,214.8v5.7h-1.1V220c-0.3,0.4-0.7,0.5-1.3,0.5c-0.4,0-0.7-0.1-1.1-0.3c-0.3-0.2-0.6-0.4-0.7-0.7
		c-0.2-0.3-0.3-0.7-0.3-1.1s0.1-0.8,0.3-1.1c0.2-0.3,0.4-0.6,0.7-0.7c0.3-0.2,0.7-0.3,1.1-0.3c0.5,0,0.9,0.2,1.2,0.5v-2H428.3z
		 M426.8,219.3c0.2-0.2,0.3-0.5,0.3-0.8s-0.1-0.6-0.3-0.8c-0.2-0.2-0.5-0.3-0.8-0.3c-0.3,0-0.6,0.1-0.8,0.3
		c-0.2,0.2-0.3,0.5-0.3,0.8s0.1,0.6,0.3,0.8c0.2,0.2,0.5,0.3,0.8,0.3C426.4,219.6,426.6,219.5,426.8,219.3z"/>
</g>
<circle class="st1" cx="289.8" cy="60.9" r="41"/>
<rect x="257.6" y="83.7" class="st2" width="64.7" height="32.3"/>
<g class="st3">
	<path class="st4" d="M279.2,84h2.4c0.6,0,1.1,0.1,1.5,0.3c0.4,0.2,0.8,0.5,1,0.9c0.2,0.4,0.4,0.9,0.4,1.4s-0.1,1-0.4,1.4
		s-0.6,0.7-1,0.9c-0.4,0.2-1,0.3-1.5,0.3h-2.4V84z M281.5,88.4c0.5,0,1-0.2,1.3-0.5s0.5-0.7,0.5-1.2s-0.2-0.9-0.5-1.2
		s-0.8-0.5-1.3-0.5h-1.1v3.3H281.5z"/>
	<path class="st4" d="M288.6,85.7c0.3,0.3,0.5,0.8,0.5,1.4v2.4H288v-0.5c-0.2,0.4-0.6,0.6-1.3,0.6c-0.3,0-0.6-0.1-0.8-0.2
		c-0.2-0.1-0.4-0.3-0.5-0.4s-0.2-0.4-0.2-0.6c0-0.4,0.1-0.7,0.4-0.9c0.3-0.2,0.7-0.3,1.3-0.3h1c0-0.3-0.1-0.5-0.2-0.6
		c-0.2-0.1-0.4-0.2-0.7-0.2c-0.2,0-0.4,0-0.6,0.1c-0.2,0.1-0.4,0.2-0.5,0.3l-0.4-0.8c0.2-0.2,0.5-0.3,0.8-0.4c0.3-0.1,0.6-0.1,1-0.1
		C287.7,85.2,288.2,85.3,288.6,85.7z M287.5,88.5c0.2-0.1,0.3-0.2,0.3-0.4v-0.4h-0.8c-0.5,0-0.7,0.2-0.7,0.5c0,0.2,0.1,0.3,0.2,0.4
		c0.1,0.1,0.3,0.1,0.5,0.1C287.2,88.6,287.4,88.6,287.5,88.5z"/>
	<path class="st4" d="M292.8,89.2c-0.1,0.1-0.3,0.2-0.4,0.2c-0.2,0-0.4,0.1-0.5,0.1c-0.5,0-0.9-0.1-1.1-0.4s-0.4-0.6-0.4-1.1v-1.7
		h-0.6v-0.9h0.6v-1h1.2v1h1v0.9h-1V88c0,0.2,0,0.3,0.1,0.4c0.1,0.1,0.2,0.1,0.4,0.1c0.2,0,0.4-0.1,0.5-0.2L292.8,89.2z"/>
	<path class="st4" d="M296.7,85.7c0.3,0.3,0.5,0.8,0.5,1.4v2.4H296v-0.5c-0.2,0.4-0.6,0.6-1.3,0.6c-0.3,0-0.6-0.1-0.8-0.2
		c-0.2-0.1-0.4-0.3-0.5-0.4s-0.2-0.4-0.2-0.6c0-0.4,0.1-0.7,0.4-0.9c0.3-0.2,0.7-0.3,1.3-0.3h1c0-0.3-0.1-0.5-0.2-0.6
		c-0.2-0.1-0.4-0.2-0.7-0.2c-0.2,0-0.4,0-0.6,0.1c-0.2,0.1-0.4,0.2-0.5,0.3l-0.4-0.8c0.2-0.2,0.5-0.3,0.8-0.4c0.3-0.1,0.6-0.1,1-0.1
		C295.8,85.2,296.3,85.3,296.7,85.7z M295.6,88.5c0.2-0.1,0.3-0.2,0.3-0.4v-0.4h-0.8c-0.5,0-0.7,0.2-0.7,0.5c0,0.2,0.1,0.3,0.2,0.4
		c0.1,0.1,0.3,0.1,0.5,0.1C295.3,88.6,295.5,88.6,295.6,88.5z"/>
</g>
<circle class="st1" cx="289.8" cy="321.1" r="41"/>
<rect x="257.6" y="343.9" class="st2" width="64.7" height="32.3"/>
<g class="st3">
	<path class="st4" d="M268.9,348.4h-2.5l-0.5,1.2h-1.3l2.4-5.4h1.2l2.4,5.4h-1.3L268.9,348.4z M268.5,347.5l-0.9-2.1l-0.9,2.1H268.5
		z"/>
	<path class="st4" d="M272,349.3c-0.4-0.2-0.6-0.4-0.8-0.8s-0.3-0.7-0.3-1.1s0.1-0.8,0.3-1.1s0.5-0.6,0.8-0.8
		c0.4-0.2,0.7-0.3,1.2-0.3c0.4,0,0.8,0.1,1.1,0.3c0.3,0.2,0.6,0.4,0.7,0.8l-0.9,0.5c-0.2-0.4-0.5-0.6-0.9-0.6
		c-0.3,0-0.6,0.1-0.8,0.3s-0.3,0.5-0.3,0.8s0.1,0.6,0.3,0.8s0.5,0.3,0.8,0.3c0.4,0,0.7-0.2,0.9-0.6l0.9,0.5
		c-0.1,0.3-0.4,0.6-0.7,0.8s-0.7,0.3-1.1,0.3C272.7,349.6,272.3,349.5,272,349.3z"/>
	<path class="st4" d="M278.4,349.4c-0.1,0.1-0.3,0.2-0.4,0.2c-0.2,0-0.4,0.1-0.5,0.1c-0.5,0-0.9-0.1-1.1-0.4s-0.4-0.6-0.4-1.1v-1.7
		h-0.6v-0.9h0.6v-1h1.2v1h1v0.9h-1v1.7c0,0.2,0,0.3,0.1,0.4c0.1,0.1,0.2,0.1,0.4,0.1c0.2,0,0.4-0.1,0.5-0.2L278.4,349.4z"/>
	<path class="st4" d="M279.2,344.7c-0.1-0.1-0.2-0.3-0.2-0.5s0.1-0.3,0.2-0.5c0.1-0.1,0.3-0.2,0.5-0.2c0.2,0,0.4,0.1,0.5,0.2
		c0.1,0.1,0.2,0.3,0.2,0.5c0,0.2-0.1,0.4-0.2,0.5c-0.1,0.1-0.3,0.2-0.5,0.2C279.5,344.8,279.3,344.8,279.2,344.7z M279.1,345.4h1.2
		v4.1h-1.2V345.4z"/>
	<path class="st4" d="M285.5,345.4l-1.7,4.1h-1.2l-1.7-4.1h1.2l1.1,2.8l1.2-2.8H285.5z"/>
	<path class="st4" d="M289,345.8c0.3,0.3,0.5,0.8,0.5,1.4v2.4h-1.1V349c-0.2,0.4-0.6,0.6-1.3,0.6c-0.3,0-0.6-0.1-0.8-0.2
		c-0.2-0.1-0.4-0.3-0.5-0.4s-0.2-0.4-0.2-0.6c0-0.4,0.1-0.7,0.4-0.9c0.3-0.2,0.7-0.3,1.3-0.3h1c0-0.3-0.1-0.5-0.2-0.6
		c-0.2-0.1-0.4-0.2-0.7-0.2c-0.2,0-0.4,0-0.6,0.1c-0.2,0.1-0.4,0.2-0.5,0.3l-0.4-0.8c0.2-0.2,0.5-0.3,0.8-0.4c0.3-0.1,0.6-0.1,1-0.1
		C288.2,345.4,288.7,345.5,289,345.8z M288,348.7c0.2-0.1,0.3-0.2,0.3-0.4v-0.4h-0.8c-0.5,0-0.7,0.2-0.7,0.5c0,0.2,0.1,0.3,0.2,0.4
		c0.1,0.1,0.3,0.1,0.5,0.1C287.7,348.8,287.8,348.8,288,348.7z"/>
	<path class="st4" d="M293.3,349.4c-0.1,0.1-0.3,0.2-0.4,0.2c-0.2,0-0.4,0.1-0.5,0.1c-0.5,0-0.9-0.1-1.1-0.4s-0.4-0.6-0.4-1.1v-1.7
		h-0.6v-0.9h0.6v-1h1.2v1h1v0.9h-1v1.7c0,0.2,0,0.3,0.1,0.4c0.1,0.1,0.2,0.1,0.4,0.1c0.2,0,0.4-0.1,0.5-0.2L293.3,349.4z"/>
	<path class="st4" d="M294,344.7c-0.1-0.1-0.2-0.3-0.2-0.5s0.1-0.3,0.2-0.5c0.1-0.1,0.3-0.2,0.5-0.2c0.2,0,0.4,0.1,0.5,0.2
		c0.1,0.1,0.2,0.3,0.2,0.5c0,0.2-0.1,0.4-0.2,0.5c-0.1,0.1-0.3,0.2-0.5,0.2C294.4,344.8,294.2,344.8,294,344.7z M294,345.4h1.2v4.1
		H294V345.4z"/>
	<path class="st4" d="M297.1,349.3c-0.3-0.2-0.6-0.4-0.8-0.8s-0.3-0.7-0.3-1.1s0.1-0.8,0.3-1.1s0.5-0.6,0.8-0.8
		c0.3-0.2,0.7-0.3,1.2-0.3c0.4,0,0.8,0.1,1.2,0.3c0.3,0.2,0.6,0.4,0.8,0.8c0.2,0.3,0.3,0.7,0.3,1.1s-0.1,0.8-0.3,1.1
		c-0.2,0.3-0.5,0.6-0.8,0.8c-0.3,0.2-0.7,0.3-1.2,0.3C297.8,349.6,297.4,349.5,297.1,349.3z M299,348.3c0.2-0.2,0.3-0.5,0.3-0.8
		s-0.1-0.6-0.3-0.8c-0.2-0.2-0.5-0.3-0.8-0.3c-0.3,0-0.6,0.1-0.8,0.3c-0.2,0.2-0.3,0.5-0.3,0.8s0.1,0.6,0.3,0.8
		c0.2,0.2,0.5,0.3,0.8,0.3C298.6,348.6,298.8,348.5,299,348.3z"/>
	<path class="st4" d="M305.1,345.8c0.3,0.3,0.5,0.8,0.5,1.4v2.4h-1.2v-2.2c0-0.3-0.1-0.6-0.2-0.7c-0.1-0.2-0.4-0.2-0.6-0.2
		c-0.3,0-0.5,0.1-0.7,0.3c-0.2,0.2-0.3,0.5-0.3,0.8v2h-1.2v-4.1h1.1v0.5c0.2-0.2,0.4-0.3,0.6-0.4c0.2-0.1,0.5-0.1,0.8-0.1
		C304.4,345.4,304.8,345.5,305.1,345.8z"/>
</g>
<g>
	<g>
		<path class="st4" d="M282.4,321.2h-0.3c-0.4,0-0.8-0.1-1.2-0.2l0,0c-0.4-0.1-0.8-0.2-1.2-0.3l-0.3-0.1l-0.5-3.3
			c-0.6-0.3-1.1-0.6-1.6-1l-3.2,0.8l-0.2-0.2c-0.5-0.6-1-1.3-1.4-2.1l-0.1-0.3l2-2.7c-0.2-0.6-0.3-1.2-0.4-1.9l-2.9-1.7v-0.3
			c0-0.4,0.1-0.8,0.2-1.2c0.1-0.4,0.2-0.8,0.3-1.2l0.1-0.3l3.3-0.5c0.3-0.6,0.6-1.1,1-1.6l-0.8-3.2l0.2-0.2c0.6-0.5,1.3-1,2.1-1.4
			l0.3-0.1l2.7,2c0.6-0.2,1.2-0.3,1.8-0.4l1.7-2.9h0.3c0.4,0,0.8,0.1,1.2,0.2c0.4,0.1,0.8,0.2,1.2,0.3l0.3,0.1l0.5,3.3
			c0.6,0.3,1.1,0.6,1.6,1l3.2-0.8l0.2,0.2c0.5,0.6,1,1.3,1.4,2.1l0.1,0.3l-2,2.7c0.2,0.6,0.3,1.2,0.4,1.9l2.9,1.7v0.3
			c0,0.4-0.1,0.8-0.2,1.2c-0.1,0.4-0.2,0.8-0.3,1.2l-0.1,0.3l-3.3,0.5c-0.3,0.6-0.6,1.1-1,1.6l0.8,3.2l-0.2,0.2
			c-0.6,0.5-1.3,1-2.1,1.4l-0.3,0.1l-2.7-2c-0.6,0.2-1.2,0.3-1.8,0.4L282.4,321.2z M281,320.1c0.3,0.1,0.5,0.1,0.8,0.1l1.6-2.8h0.3
			c0.7,0,1.4-0.2,2.1-0.4l0.2-0.1l2.6,1.9c0.5-0.3,1-0.6,1.4-0.9l-0.8-3.1l0.2-0.2c0.5-0.5,0.9-1.1,1.2-1.8l0.1-0.2l3.2-0.5
			c0.1-0.3,0.1-0.5,0.2-0.8s0.1-0.6,0.1-0.8l-2.8-1.6v-0.3c-0.1-0.7-0.2-1.4-0.4-2.1l-0.1-0.2l1.9-2.6c-0.3-0.5-0.6-1-0.9-1.4
			l-3.1,0.8l-0.2-0.2c-0.5-0.5-1.1-0.9-1.8-1.2l-0.2-0.1l-0.5-3.2c-0.3-0.1-0.5-0.1-0.8-0.2s-0.5-0.1-0.8-0.1l-1.6,2.8h-0.3
			c-0.7,0-1.4,0.2-2.1,0.4l-0.2,0.1l-2.6-1.9c-0.5,0.3-1,0.6-1.4,0.9l0.8,3.1l-0.2,0.2c-0.5,0.5-0.9,1.1-1.2,1.8l-0.1,0.2l-3.2,0.5
			c-0.1,0.3-0.1,0.5-0.2,0.8s-0.1,0.6-0.1,0.8l2.8,1.6v0.3c0.1,0.7,0.2,1.4,0.4,2.1l0.1,0.2l-1.9,2.6c0.3,0.5,0.6,1,0.9,1.4l3.1-0.8
			l0.2,0.2c0.5,0.5,1.1,0.9,1.8,1.2l0.2,0.1l0.5,3.2C280.5,319.9,280.8,320,281,320.1z"/>
	</g>
	<g>
		<path class="st4" d="M283.2,313.7c-0.3,0-0.6,0-0.9-0.1c-1.2-0.2-2.2-0.9-2.9-1.9c-0.7-1-0.9-2.2-0.7-3.4c0.5-2.5,2.9-4.1,5.3-3.6
			c2.5,0.5,4.1,2.9,3.6,5.3l0,0c-0.2,1.2-0.9,2.2-1.9,2.9C285,313.4,284.1,313.7,283.2,313.7z M283.2,305.5c-1.7,0-3.2,1.2-3.5,2.9
			c-0.2,0.9,0,1.9,0.6,2.7c0.5,0.8,1.4,1.3,2.3,1.5c1.9,0.4,3.8-0.9,4.2-2.8l0,0c0.4-1.9-0.9-3.8-2.8-4.2
			C283.6,305.6,283.4,305.5,283.2,305.5z"/>
	</g>
	<g>
		<path class="st4" d="M298,333.6h-0.3c-0.3,0-0.7-0.1-1-0.1l0,0c-0.3-0.1-0.7-0.1-1-0.2l-0.3-0.1l-0.4-2.7
			c-0.4-0.2-0.8-0.5-1.2-0.8l-2.6,0.7l-0.2-0.2c-0.4-0.5-0.8-1.1-1.2-1.7l-0.1-0.3l1.6-2.2c-0.1-0.5-0.2-1-0.3-1.5l-2.3-1.4v-0.3
			c0-0.3,0.1-0.7,0.1-1c0.1-0.3,0.1-0.7,0.2-1l0.1-0.3l2.7-0.4c0.2-0.4,0.5-0.9,0.8-1.2l-0.7-2.6l0.2-0.2c0.5-0.4,1.1-0.8,1.7-1.1
			l0.3-0.1l2.2,1.6c0.5-0.1,0.9-0.2,1.4-0.3l1.4-2.3h0.3c0.3,0,0.7,0.1,1,0.1c0.3,0.1,0.7,0.1,1,0.2l0.3,0.1l0.4,2.7
			c0.4,0.2,0.8,0.5,1.2,0.8l2.6-0.7l0.2,0.2c0.4,0.5,0.8,1.1,1.2,1.7l0.1,0.3l-1.6,2.2c0.1,0.5,0.2,1,0.3,1.5l2.3,1.4v0.3
			c0,0.3-0.1,0.7-0.1,1c-0.1,0.3-0.1,0.7-0.2,1L308,327l-2.7,0.4c-0.2,0.4-0.5,0.9-0.8,1.2l0.7,2.6l-0.2,0.2
			c-0.5,0.4-1.1,0.8-1.7,1.1l-0.3,0.1l-2.2-1.6c-0.5,0.1-0.9,0.2-1.4,0.3L298,333.6z M296.9,332.5c0.2,0,0.4,0.1,0.6,0.1l1.3-2.2
			h0.3c0.6,0,1.2-0.2,1.7-0.3l0.2-0.1l2.1,1.5c0.4-0.2,0.7-0.4,1-0.7l-0.7-2.5l0.2-0.2c0.4-0.4,0.7-0.9,1-1.5l0.1-0.2l2.6-0.4
			c0.1-0.2,0.1-0.4,0.1-0.6s0.1-0.4,0.1-0.6l-2.3-1.3v-0.3c0-0.6-0.2-1.2-0.3-1.7l-0.1-0.2l1.5-2.1c-0.2-0.4-0.4-0.7-0.7-1l-2.5,0.7
			l-0.2-0.2c-0.4-0.4-0.9-0.7-1.4-0.9l-0.2-0.1l-0.4-2.6c-0.2-0.1-0.4-0.1-0.6-0.1s-0.4-0.1-0.6-0.1l-1.3,2.2h-0.3
			c-0.6,0-1.2,0.2-1.7,0.3l-0.2,0.1l-2.1-1.5c-0.4,0.2-0.7,0.4-1,0.7l0.7,2.5l-0.2,0.2c-0.4,0.4-0.7,0.9-1,1.5l-0.1,0.2l-2.6,0.4
			c-0.1,0.2-0.1,0.4-0.1,0.6s-0.1,0.4-0.1,0.6l2.3,1.3v0.3c0,0.6,0.2,1.2,0.3,1.7l0.1,0.2l-1.5,2.1c0.2,0.4,0.4,0.7,0.7,1l2.5-0.7
			l0.2,0.2c0.4,0.4,0.9,0.7,1.4,0.9l0.2,0.1l0.4,2.6C296.5,332.4,296.7,332.5,296.9,332.5L296.9,332.5z"/>
	</g>
	<g>
		<path class="st4" d="M298.6,327.5c-0.2,0-0.5,0-0.7-0.1c-2.1-0.4-3.4-2.4-3-4.5s2.4-3.4,4.5-3s3.4,2.4,3,4.5
			C302,326.2,300.4,327.5,298.6,327.5z M298.6,320.8c-1.3,0-2.5,0.9-2.8,2.3c-0.3,1.5,0.7,3,2.3,3.3c1.5,0.3,3-0.7,3.3-2.3
			c0.3-1.5-0.7-3-2.3-3.3C299,320.8,298.8,320.8,298.6,320.8z"/>
	</g>
</g>
<polygon class="st0" points="421.6,167.3 426.1,181 440.5,181 428.8,189.4 433.3,203.1 421.6,194.7 410,203.1 414.4,189.4 
	402.8,181 417.2,181 "/>
<g>
	<g>
		<path class="st4" d="M271.7,68.9c-2.1,0-3.9-1.7-3.9-3.9c0-2.1,1.7-3.9,3.9-3.9c2.1,0,3.9,1.7,3.9,3.9
			C275.6,67.2,273.8,68.9,271.7,68.9z M271.7,63.1c-1,0-1.9,0.9-1.9,1.9s0.9,1.9,1.9,1.9c1.1,0,1.9-0.9,1.9-1.9
			S272.7,63.1,271.7,63.1z"/>
	</g>
	<g>
		<path class="st4" d="M280.3,55.9c-2.1,0-3.9-1.7-3.9-3.9c0-2.1,1.7-3.9,3.9-3.9c2.1,0,3.9,1.7,3.9,3.9
			C284.2,54.1,282.5,55.9,280.3,55.9z M280.3,50.1c-1,0-1.9,0.9-1.9,1.9s0.9,1.9,1.9,1.9c1.1,0,1.9-0.9,1.9-1.9
			C282.2,50.9,281.4,50.1,280.3,50.1z"/>
	</g>
	<g>
		<path class="st4" d="M294.8,57.8c-2.1,0-3.9-1.7-3.9-3.9c0-2.1,1.7-3.9,3.9-3.9c2.1,0,3.9,1.7,3.9,3.9
			C298.7,56,297,57.8,294.8,57.8z M294.8,52c-1,0-1.9,0.9-1.9,1.9s0.9,1.9,1.9,1.9c1.1,0,1.9-0.9,1.9-1.9
			C296.7,52.8,295.9,52,294.8,52z"/>
	</g>
	<g>
		<path class="st4" d="M306,49.7c-2.1,0-3.9-1.7-3.9-3.9c0-2.1,1.7-3.9,3.9-3.9c2.1,0,3.9,1.7,3.9,3.9S308.2,49.7,306,49.7z
			 M306,43.9c-1.1,0-1.9,0.9-1.9,1.9s0.9,1.9,1.9,1.9c1.1,0,1.9-0.9,1.9-1.9C307.9,44.8,307.1,43.9,306,43.9z"/>
	</g>
	<g>
		<path class="st4" d="M297.4,53.3c-0.3,0-0.6-0.1-0.8-0.4c-0.3-0.4-0.2-1.1,0.2-1.4l5.9-4.3c0.4-0.3,1.1-0.2,1.4,0.2
			s0.2,1.1-0.2,1.4l-5.9,4.3C297.8,53.2,297.6,53.3,297.4,53.3z"/>
	</g>
	<g>
		<path class="st4" d="M291.6,54.8c-0.1,0-0.1,0-0.2,0l-8.4-1.4c-0.5-0.1-0.9-0.6-0.8-1.1s0.6-0.9,1.1-0.8l8.4,1.4
			c0.5,0.1,0.9,0.6,0.8,1.1C292.5,54.5,292,54.8,291.6,54.8z"/>
	</g>
	<g>
		<path class="st4" d="M273.7,62.9c-0.2,0-0.4-0.1-0.6-0.2c-0.4-0.3-0.6-0.9-0.2-1.4L278,54c0.3-0.4,0.9-0.6,1.4-0.2
			c0.4,0.3,0.6,0.9,0.2,1.4l-5.1,7.3C274.3,62.7,274,62.9,273.7,62.9z"/>
	</g>
</g>
</svg>
