<?xml version="1.0" encoding="utf-8"?>
<!-- Generator: Adobe Illustrator 22.1.0, SVG Export Plug-In . SVG Version: 6.00 Build 0)  -->
<svg version="1.1" id="Layer_1" xmlns="http://www.w3.org/2000/svg" xmlns:xlink="http://www.w3.org/1999/xlink" x="0px" y="0px"
	 viewBox="0 0 600 400" style="enable-background:new 0 0 600 400;" xml:space="preserve">
<style type="text/css">
	.st0{fill:none;stroke:#FFFFFF;stroke-miterlimit:10;}
	.st1{fill:#231F20;stroke:#FFFFFF;stroke-miterlimit:10;}
	.st2{fill:none;}
	.st3{enable-background:new    ;}
	.st4{fill:#FFFFFF;}
</style>
<circle class="st0" cx="289.9" cy="195" r="134"/>
<circle class="st1" cx="159.3" cy="194.6" r="41"/>
<rect x="132.9" y="214.8" class="st2" width="64.7" height="36.5"/>
<g class="st3">
	<path class="st4" d="M141.1,219.5v1h-4.2v-5.4h4.1v1h-2.8v1.2h2.5v1h-2.5v1.2H141.1z"/>
	<path class="st4" d="M144.4,220.5l-0.9-1.3l-0.9,1.3h-1.3l1.6-2.1l-1.5-2.1h1.3l0.9,1.2l0.9-1.2h1.3l-1.5,2l1.6,2.1h-1.5V220.5z"/>
	<path class="st4" d="M149.9,216.6c0.3,0.2,0.6,0.4,0.7,0.7c0.2,0.3,0.3,0.7,0.3,1.1s-0.1,0.8-0.3,1.1s-0.4,0.6-0.7,0.7
		c-0.3,0.2-0.7,0.3-1,0.3c-0.5,0-0.9-0.2-1.2-0.5v1.9h-1.2v-5.6h1.1v0.5c0.3-0.4,0.7-0.5,1.3-0.5
		C149.2,216.3,149.6,216.4,149.9,216.6z M149.4,219.3c0.2-0.2,0.3-0.5,0.3-0.8s-0.1-0.6-0.3-0.8s-0.4-0.3-0.8-0.3s-0.6,0.1-0.8,0.3
		s-0.3,0.5-0.3,0.8s0.1,0.6,0.3,0.8s0.5,0.3,0.8,0.3S149.2,219.5,149.4,219.3z"/>
	<path class="st4" d="M155.8,218.8h-3.1c0.1,0.3,0.2,0.5,0.4,0.6s0.5,0.2,0.8,0.2c0.2,0,0.4,0,0.6-0.1c0.2-0.1,0.3-0.2,0.5-0.3
		l0.6,0.7c-0.4,0.4-1,0.7-1.7,0.7c-0.5,0-0.9-0.1-1.2-0.3c-0.4-0.2-0.6-0.4-0.8-0.8s-0.3-0.7-0.3-1.1c0-0.4,0.1-0.8,0.3-1.1
		s0.5-0.6,0.8-0.8s0.7-0.3,1.1-0.3c0.4,0,0.8,0.1,1.1,0.3s0.6,0.4,0.8,0.8c0.2,0.3,0.3,0.7,0.3,1.1
		C155.8,218.5,155.8,218.6,155.8,218.8z M152.9,217.4c-0.2,0.2-0.3,0.4-0.3,0.6h2c0-0.3-0.2-0.5-0.3-0.6s-0.4-0.2-0.7-0.2
		C153.4,217.2,153.1,217.3,152.9,217.4z"/>
	<path class="st4" d="M158.4,216.5c0.2-0.1,0.5-0.2,0.8-0.2v1.1c-0.1,0-0.2,0-0.3,0c-0.3,0-0.6,0.1-0.8,0.3s-0.3,0.5-0.3,0.9v2h-1.2
		v-4.1h1.1v0.5C157.9,216.7,158.1,216.6,158.4,216.5z"/>
	<path class="st4" d="M159.9,215.6c-0.1-0.1-0.2-0.3-0.2-0.5s0.1-0.3,0.2-0.5c0.1-0.1,0.3-0.2,0.5-0.2s0.4,0.1,0.5,0.2
		c0.1,0.1,0.2,0.3,0.2,0.5s-0.1,0.4-0.2,0.5c-0.1,0.1-0.3,0.2-0.5,0.2S160.1,215.7,159.9,215.6z M159.9,216.4h1.2v4.1h-1.2V216.4z"
		/>
	<path class="st4" d="M166.2,218.8h-3.1c0.1,0.3,0.2,0.5,0.4,0.6s0.5,0.2,0.8,0.2c0.2,0,0.4,0,0.6-0.1c0.2-0.1,0.3-0.2,0.5-0.3
		l0.6,0.7c-0.4,0.4-1,0.7-1.7,0.7c-0.5,0-0.9-0.1-1.2-0.3c-0.4-0.2-0.6-0.4-0.8-0.8s-0.3-0.7-0.3-1.1c0-0.4,0.1-0.8,0.3-1.1
		s0.5-0.6,0.8-0.8s0.7-0.3,1.1-0.3c0.4,0,0.8,0.1,1.1,0.3s0.6,0.4,0.8,0.8c0.2,0.3,0.3,0.7,0.3,1.1
		C166.2,218.5,166.2,218.6,166.2,218.8z M163.4,217.4c-0.2,0.2-0.3,0.4-0.3,0.6h2c0-0.3-0.2-0.5-0.3-0.6s-0.4-0.2-0.7-0.2
		C163.9,217.2,163.6,217.3,163.4,217.4z"/>
	<path class="st4" d="M170.8,216.8c0.3,0.3,0.5,0.8,0.5,1.4v2.4h-1.2v-2.2c0-0.3-0.1-0.6-0.2-0.7c-0.1-0.2-0.4-0.2-0.6-0.2
		c-0.3,0-0.5,0.1-0.7,0.3s-0.3,0.5-0.3,0.8v2h-1.2v-4.1h1.1v0.5c0.2-0.2,0.4-0.3,0.6-0.4c0.2-0.1,0.5-0.1,0.8-0.1
		C170.1,216.3,170.4,216.5,170.8,216.8z"/>
	<path class="st4" d="M173.2,220.3c-0.4-0.2-0.6-0.4-0.8-0.8s-0.3-0.7-0.3-1.1s0.1-0.8,0.3-1.1s0.5-0.6,0.8-0.8
		c0.4-0.2,0.7-0.3,1.2-0.3c0.4,0,0.8,0.1,1.1,0.3s0.6,0.4,0.7,0.8l-0.9,0.5c-0.2-0.4-0.5-0.6-0.9-0.6c-0.3,0-0.6,0.1-0.8,0.3
		s-0.3,0.5-0.3,0.8s0.1,0.6,0.3,0.8s0.5,0.3,0.8,0.3c0.4,0,0.7-0.2,0.9-0.6l0.9,0.5c-0.1,0.3-0.4,0.6-0.7,0.8s-0.7,0.3-1.1,0.3
		C173.9,220.6,173.6,220.5,173.2,220.3z"/>
	<path class="st4" d="M180.9,218.8h-3.1c0.1,0.3,0.2,0.5,0.4,0.6s0.5,0.2,0.8,0.2c0.2,0,0.4,0,0.6-0.1c0.2-0.1,0.3-0.2,0.5-0.3
		l0.6,0.7c-0.4,0.4-1,0.7-1.7,0.7c-0.5,0-0.9-0.1-1.2-0.3c-0.4-0.2-0.6-0.4-0.8-0.8s-0.3-0.7-0.3-1.1c0-0.4,0.1-0.8,0.3-1.1
		s0.5-0.6,0.8-0.8s0.7-0.3,1.1-0.3c0.4,0,0.8,0.1,1.1,0.3s0.6,0.4,0.8,0.8c0.2,0.3,0.3,0.7,0.3,1.1
		C180.9,218.5,180.9,218.6,180.9,218.8z M178.1,217.4c-0.2,0.2-0.3,0.4-0.3,0.6h2c0-0.3-0.2-0.5-0.3-0.6s-0.4-0.2-0.7-0.2
		C178.6,217.2,178.2,217.3,178.1,217.4z"/>
</g>
<g>
	<path class="st4" d="M158.1,176.1c-6.3,0-9.7,4.7-9.7,9.4c0,3,1.4,5.4,2.6,7.6c1,1.7,1.9,3.3,1.9,5v0.8c0,0.3,0.3,0.6,0.6,0.6h8.6
		c0.4,0,0.6-0.3,0.6-0.6V198c0-1.6,1-3.3,2.1-5.1c1.4-2.3,2.8-4.7,2.8-7.6C167.8,181,165.2,176.1,158.1,176.1z M163.8,192.2
		c-1.2,1.9-2.3,3.8-2.3,5.8v0.2h-7.3V198c-0.1-2-1-3.7-2.1-5.5c-1.1-2-2.4-4.3-2.4-6.9c0-4,2.9-8.1,8.4-8.1c6.2,0,8.4,4.2,8.4,7.9
		C166.5,187.8,165.1,190.1,163.8,192.2z"/>
	<path class="st4" d="M164.9,174.8c0.1,0.1,0.2,0.1,0.3,0.1c0.2,0,0.4-0.1,0.6-0.3l2.5-4.3c0.2-0.3,0.1-0.7-0.2-0.9
		s-0.7-0.1-0.9,0.2l-2.5,4.3C164.5,174.2,164.6,174.6,164.9,174.8z"/>
	<path class="st4" d="M177.2,182.7c-0.1-0.3-0.4-0.6-0.8-0.5l-4.8,0.9c-0.3,0.1-0.6,0.4-0.5,0.8c0.1,0.3,0.3,0.5,0.6,0.5h0.1
		l4.8-0.9C177,183.4,177.3,183,177.2,182.7z"/>
	<path class="st4" d="M151.4,175.3c0.1,0,0.2,0,0.3-0.1c0.3-0.2,0.4-0.6,0.2-0.9l-2.4-4.3c-0.2-0.3-0.6-0.4-0.9-0.2
		c-0.3,0.2-0.4,0.6-0.2,0.9l2.4,4.3C150.9,175.2,151.1,175.3,151.4,175.3z"/>
	<path class="st4" d="M173.1,197l-3.9-3c-0.3-0.2-0.7-0.2-0.9,0.1s-0.2,0.7,0.1,0.9l3.9,3c0.1,0.1,0.3,0.1,0.4,0.1
		c0.2,0,0.4-0.1,0.5-0.2C173.4,197.6,173.4,197.2,173.1,197z"/>
	<path class="st4" d="M147.1,194.5l-3.8,3.1c-0.3,0.2-0.3,0.6-0.1,0.9c0.1,0.2,0.3,0.2,0.5,0.2c0.1,0,0.3,0,0.4-0.1l3.8-3.1
		c0.3-0.2,0.3-0.6,0.1-0.9S147.4,194.2,147.1,194.5z"/>
	<path class="st4" d="M144.9,184.8c0.3,0,0.6-0.2,0.6-0.5c0.1-0.3-0.2-0.7-0.5-0.7l-4.9-0.8c-0.3-0.1-0.7,0.2-0.7,0.5
		c-0.1,0.3,0.2,0.7,0.5,0.7L144.9,184.8C144.8,184.8,144.8,184.8,144.9,184.8z"/>
	<path class="st4" d="M155.6,179.8c-1.5,0.6-3,2.4-3.5,4.4c-0.5,2.2,0.1,4.3,1.6,6c0.1,0.1,0.3,0.2,0.5,0.2s0.3-0.1,0.4-0.2
		c0.3-0.2,0.3-0.6,0-0.9c-1.6-1.8-1.6-3.6-1.3-4.8c0.4-1.8,1.7-3.1,2.6-3.5c0.3-0.1,0.5-0.5,0.4-0.8
		C156.3,179.9,155.9,179.7,155.6,179.8z"/>
	<path class="st4" d="M162,200.7h-8.2c-0.4,0-0.6,0.3-0.6,0.6s0.3,0.6,0.6,0.6h8.2c0.4,0,0.6-0.3,0.6-0.6S162.3,200.7,162,200.7z"/>
	<path class="st4" d="M162,203h-8.2c-0.4,0-0.6,0.3-0.6,0.6c0,0.4,0.3,0.6,0.6,0.6h8.2c0.4,0,0.6-0.3,0.6-0.6
		C162.6,203.2,162.3,203,162,203z"/>
	<path class="st4" d="M162,205.2h-8.2c-0.4,0-0.6,0.3-0.6,0.6c0,0.4,0.3,0.6,0.6,0.6h8.2c0.4,0,0.6-0.3,0.6-0.6
		S162.3,205.2,162,205.2z"/>
	<path class="st4" d="M160,207.3h-4.8c-0.4,0-0.6,0.3-0.6,0.6c0,0.4,0.3,0.6,0.6,0.6h4.8c0.4,0,0.6-0.3,0.6-0.6
		C160.7,207.6,160.4,207.3,160,207.3z"/>
</g>
<circle class="st1" cx="419" cy="194.6" r="41"/>
<rect x="386.9" y="214.8" class="st2" width="64.7" height="36.5"/>
<g class="st3">
	<path class="st4" d="M412.9,218.2c0.2,0.2,0.3,0.5,0.3,0.8c0,0.5-0.2,0.8-0.5,1.1c-0.4,0.3-0.9,0.4-1.6,0.4h-2.8v-5.4h2.6
		c0.7,0,1.2,0.1,1.5,0.4c0.4,0.3,0.5,0.6,0.5,1c0,0.3-0.1,0.5-0.2,0.7s-0.3,0.4-0.5,0.5C412.5,217.8,412.6,218,412.9,218.2z
		 M409.5,216.1v1.3h1.2c0.3,0,0.5-0.1,0.7-0.2c0.2-0.1,0.2-0.3,0.2-0.5s-0.1-0.4-0.2-0.5c-0.2-0.1-0.4-0.2-0.7-0.2L409.5,216.1
		L409.5,216.1z M411.5,219.4c0.2-0.1,0.2-0.3,0.2-0.5c0-0.4-0.3-0.7-1-0.7h-1.5v1.3h1.5C411.1,219.6,411.5,219.5,411.5,219.4z"/>
	<path class="st4" d="M415.6,216.5c0.2-0.1,0.5-0.2,0.8-0.2v1.1c-0.1,0-0.2,0-0.3,0c-0.3,0-0.6,0.1-0.8,0.3
		c-0.2,0.2-0.3,0.5-0.3,0.9v2h-1.2v-4.1h1.1v0.5C415.2,216.7,415.5,216.6,415.6,216.5z"/>
	<path class="st4" d="M420.4,216.8c0.3,0.3,0.5,0.8,0.5,1.4v2.4h-1.1V220c-0.2,0.4-0.6,0.6-1.3,0.6c-0.3,0-0.6-0.1-0.8-0.2
		c-0.2-0.1-0.4-0.3-0.5-0.4s-0.2-0.4-0.2-0.6c0-0.4,0.1-0.7,0.4-0.9s0.7-0.3,1.3-0.3h1c0-0.3-0.1-0.5-0.2-0.6
		c-0.2-0.1-0.4-0.2-0.7-0.2c-0.2,0-0.4,0-0.7,0.1c-0.2,0.1-0.4,0.2-0.5,0.3l-0.4-0.8c0.2-0.2,0.5-0.3,0.8-0.4c0.3-0.1,0.6-0.1,1-0.1
		C419.5,216.3,420,216.5,420.4,216.8z M419.4,219.6c0.2-0.1,0.3-0.2,0.3-0.4v-0.4h-0.8c-0.5,0-0.7,0.2-0.7,0.5
		c0,0.2,0.1,0.3,0.2,0.4c0.1,0.1,0.3,0.1,0.5,0.1C419,219.8,419.1,219.7,419.4,219.6z"/>
	<path class="st4" d="M425.8,216.8c0.3,0.3,0.5,0.8,0.5,1.4v2.4H425v-2.2c0-0.3-0.1-0.6-0.2-0.7c-0.1-0.2-0.4-0.2-0.6-0.2
		c-0.3,0-0.5,0.1-0.7,0.3s-0.3,0.5-0.3,0.8v2H422v-4.1h1.1v0.5c0.2-0.2,0.4-0.3,0.6-0.4c0.2-0.1,0.5-0.1,0.8-0.1
		C425,216.3,425.5,216.5,425.8,216.8z"/>
	<path class="st4" d="M431.5,214.8v5.7h-1.1V220c-0.3,0.4-0.7,0.5-1.3,0.5c-0.4,0-0.7-0.1-1.1-0.3c-0.3-0.2-0.6-0.4-0.7-0.7
		c-0.2-0.3-0.3-0.7-0.3-1.1s0.1-0.8,0.3-1.1c0.2-0.3,0.4-0.6,0.7-0.7c0.3-0.2,0.7-0.3,1.1-0.3c0.5,0,0.9,0.2,1.2,0.5v-2L431.5,214.8
		L431.5,214.8z M430,219.3c0.2-0.2,0.3-0.5,0.3-0.8s-0.1-0.6-0.3-0.8c-0.2-0.2-0.5-0.3-0.8-0.3s-0.6,0.1-0.8,0.3
		c-0.2,0.2-0.3,0.5-0.3,0.8s0.1,0.6,0.3,0.8c0.2,0.2,0.5,0.3,0.8,0.3C429.6,219.6,429.9,219.5,430,219.3z"/>
</g>
<circle class="st1" cx="289.8" cy="60.9" r="41"/>
<rect x="257.6" y="83.7" class="st2" width="64.7" height="32.3"/>
<g class="st3">
	<path class="st4" d="M281.8,84h2.4c0.6,0,1.1,0.1,1.5,0.3c0.4,0.2,0.8,0.5,1,0.9s0.4,0.9,0.4,1.4s-0.1,1-0.4,1.4s-0.6,0.7-1,0.9
		c-0.4,0.2-1,0.3-1.5,0.3h-2.4V84z M284.1,88.4c0.5,0,1-0.2,1.3-0.5s0.5-0.7,0.5-1.2s-0.2-0.9-0.5-1.2s-0.8-0.5-1.3-0.5H283v3.3
		L284.1,88.4L284.1,88.4z"/>
	<path class="st4" d="M291.2,85.7c0.3,0.3,0.5,0.8,0.5,1.4v2.4h-1.1V89c-0.2,0.4-0.6,0.6-1.3,0.6c-0.3,0-0.6-0.1-0.8-0.2
		c-0.2-0.1-0.4-0.3-0.5-0.4s-0.2-0.4-0.2-0.6c0-0.4,0.1-0.7,0.4-0.9c0.3-0.2,0.7-0.3,1.3-0.3h1c0-0.3-0.1-0.5-0.2-0.6
		c-0.2-0.1-0.4-0.2-0.7-0.2c-0.2,0-0.4,0-0.6,0.1s-0.4,0.2-0.5,0.3l-0.4-0.8c0.2-0.2,0.5-0.3,0.8-0.4s0.6-0.1,1-0.1
		C290.3,85.2,290.8,85.3,291.2,85.7z M290.1,88.5c0.2-0.1,0.3-0.2,0.3-0.4v-0.4h-0.8c-0.5,0-0.7,0.2-0.7,0.5c0,0.2,0.1,0.3,0.2,0.4
		s0.3,0.1,0.5,0.1C289.8,88.6,290,88.6,290.1,88.5z"/>
	<path class="st4" d="M295.4,89.2c-0.1,0.1-0.3,0.2-0.4,0.2c-0.2,0-0.4,0.1-0.5,0.1c-0.5,0-0.9-0.1-1.1-0.4S293,88.5,293,88v-1.7
		h-0.6v-0.9h0.6v-1h1.2v1h1v0.9h-1V88c0,0.2,0,0.3,0.1,0.4s0.2,0.1,0.4,0.1c0.2,0,0.4-0.1,0.5-0.2L295.4,89.2z"/>
	<path class="st4" d="M299.3,85.7c0.3,0.3,0.5,0.8,0.5,1.4v2.4h-1.2V89c-0.2,0.4-0.6,0.6-1.3,0.6c-0.3,0-0.6-0.1-0.8-0.2
		c-0.2-0.1-0.4-0.3-0.5-0.4s-0.2-0.4-0.2-0.6c0-0.4,0.1-0.7,0.4-0.9c0.3-0.2,0.7-0.3,1.3-0.3h1c0-0.3-0.1-0.5-0.2-0.6
		c-0.2-0.1-0.4-0.2-0.7-0.2c-0.2,0-0.4,0-0.6,0.1s-0.4,0.2-0.5,0.3l-0.4-0.8c0.2-0.2,0.5-0.3,0.8-0.4s0.6-0.1,1-0.1
		C298.4,85.2,298.9,85.3,299.3,85.7z M298.2,88.5c0.2-0.1,0.3-0.2,0.3-0.4v-0.4h-0.8c-0.5,0-0.7,0.2-0.7,0.5c0,0.2,0.1,0.3,0.2,0.4
		s0.3,0.1,0.5,0.1C297.9,88.6,298.1,88.6,298.2,88.5z"/>
</g>
<circle class="st1" cx="289.8" cy="321.1" r="41"/>
<rect x="257.6" y="343.9" class="st2" width="64.7" height="32.3"/>
<g class="st3">
	<path class="st4" d="M272.8,348.4h-2.5l-0.5,1.2h-1.3l2.4-5.4h1.2l2.4,5.4h-1.3L272.8,348.4z M272.4,347.5l-0.9-2.1l-0.9,2.1H272.4
		z"/>
	<path class="st4" d="M275.9,349.3c-0.4-0.2-0.6-0.4-0.8-0.8s-0.3-0.7-0.3-1.1s0.1-0.8,0.3-1.1s0.5-0.6,0.8-0.8
		c0.4-0.2,0.7-0.3,1.2-0.3c0.4,0,0.8,0.1,1.1,0.3c0.3,0.2,0.6,0.4,0.7,0.8l-0.9,0.5c-0.2-0.4-0.5-0.6-0.9-0.6
		c-0.3,0-0.6,0.1-0.8,0.3s-0.3,0.5-0.3,0.8s0.1,0.6,0.3,0.8s0.5,0.3,0.8,0.3c0.4,0,0.7-0.2,0.9-0.6l0.9,0.5
		c-0.1,0.3-0.4,0.6-0.7,0.8s-0.7,0.3-1.1,0.3C276.6,349.6,276.2,349.5,275.9,349.3z"/>
	<path class="st4" d="M282.3,349.4c-0.1,0.1-0.3,0.2-0.4,0.2c-0.2,0-0.4,0.1-0.5,0.1c-0.5,0-0.9-0.1-1.1-0.4s-0.4-0.6-0.4-1.1v-1.7
		h-0.6v-0.9h0.6v-1h1.2v1h1v0.9h-1v1.7c0,0.2,0,0.3,0.1,0.4s0.2,0.1,0.4,0.1c0.2,0,0.4-0.1,0.5-0.2L282.3,349.4z"/>
	<path class="st4" d="M283.1,344.7c-0.1-0.1-0.2-0.3-0.2-0.5s0.1-0.3,0.2-0.5c0.1-0.1,0.3-0.2,0.5-0.2s0.4,0.1,0.5,0.2
		s0.2,0.3,0.2,0.5s-0.1,0.4-0.2,0.5s-0.3,0.2-0.5,0.2C283.4,344.8,283.2,344.8,283.1,344.7z M283,345.4h1.2v4.1H283V345.4z"/>
	<path class="st4" d="M289.4,345.4l-1.7,4.1h-1.2l-1.7-4.1h1.2l1.1,2.8l1.2-2.8H289.4z"/>
	<path class="st4" d="M292.9,345.8c0.3,0.3,0.5,0.8,0.5,1.4v2.4h-1.1V349c-0.2,0.4-0.6,0.6-1.3,0.6c-0.3,0-0.6-0.1-0.8-0.2
		c-0.2-0.1-0.4-0.3-0.5-0.4s-0.2-0.4-0.2-0.6c0-0.4,0.1-0.7,0.4-0.9c0.3-0.2,0.7-0.3,1.3-0.3h1c0-0.3-0.1-0.5-0.2-0.6
		c-0.2-0.1-0.4-0.2-0.7-0.2c-0.2,0-0.4,0-0.6,0.1s-0.4,0.2-0.5,0.3l-0.4-0.8c0.2-0.2,0.5-0.3,0.8-0.4s0.6-0.1,1-0.1
		C292.1,345.4,292.6,345.5,292.9,345.8z M291.9,348.7c0.2-0.1,0.3-0.2,0.3-0.4v-0.4h-0.8c-0.5,0-0.7,0.2-0.7,0.5
		c0,0.2,0.1,0.3,0.2,0.4s0.3,0.1,0.5,0.1C291.6,348.8,291.7,348.8,291.9,348.7z"/>
	<path class="st4" d="M297.2,349.4c-0.1,0.1-0.3,0.2-0.4,0.2c-0.2,0-0.4,0.1-0.5,0.1c-0.5,0-0.9-0.1-1.1-0.4s-0.4-0.6-0.4-1.1v-1.7
		h-0.6v-0.9h0.6v-1h1.2v1h1v0.9h-1v1.7c0,0.2,0,0.3,0.1,0.4s0.2,0.1,0.4,0.1c0.2,0,0.4-0.1,0.5-0.2L297.2,349.4z"/>
	<path class="st4" d="M297.9,344.7c-0.1-0.1-0.2-0.3-0.2-0.5s0.1-0.3,0.2-0.5c0.1-0.1,0.3-0.2,0.5-0.2s0.4,0.1,0.5,0.2
		s0.2,0.3,0.2,0.5s-0.1,0.4-0.2,0.5s-0.3,0.2-0.5,0.2C298.3,344.8,298.1,344.8,297.9,344.7z M297.9,345.4h1.2v4.1h-1.2V345.4z"/>
	<path class="st4" d="M301,349.3c-0.3-0.2-0.6-0.4-0.8-0.8s-0.3-0.7-0.3-1.1s0.1-0.8,0.3-1.1s0.5-0.6,0.8-0.8
		c0.3-0.2,0.7-0.3,1.2-0.3c0.4,0,0.8,0.1,1.2,0.3c0.3,0.2,0.6,0.4,0.8,0.8c0.2,0.3,0.3,0.7,0.3,1.1s-0.1,0.8-0.3,1.1
		c-0.2,0.3-0.5,0.6-0.8,0.8c-0.3,0.2-0.7,0.3-1.2,0.3C301.7,349.6,301.3,349.5,301,349.3z M302.9,348.3c0.2-0.2,0.3-0.5,0.3-0.8
		s-0.1-0.6-0.3-0.8c-0.2-0.2-0.5-0.3-0.8-0.3s-0.6,0.1-0.8,0.3c-0.2,0.2-0.3,0.5-0.3,0.8s0.1,0.6,0.3,0.8c0.2,0.2,0.5,0.3,0.8,0.3
		C302.5,348.6,302.7,348.5,302.9,348.3z"/>
	<path class="st4" d="M309,345.8c0.3,0.3,0.5,0.8,0.5,1.4v2.4h-1.2v-2.2c0-0.3-0.1-0.6-0.2-0.7c-0.1-0.2-0.4-0.2-0.6-0.2
		c-0.3,0-0.5,0.1-0.7,0.3c-0.2,0.2-0.3,0.5-0.3,0.8v2h-1.2v-4.1h1.1v0.5c0.2-0.2,0.4-0.3,0.6-0.4s0.5-0.1,0.8-0.1
		C308.3,345.4,308.7,345.5,309,345.8z"/>
</g>
<g>
	<g>
		<path class="st4" d="M282.4,321.2h-0.3c-0.4,0-0.8-0.1-1.2-0.2l0,0c-0.4-0.1-0.8-0.2-1.2-0.3l-0.3-0.1l-0.5-3.3
			c-0.6-0.3-1.1-0.6-1.6-1l-3.2,0.8l-0.2-0.2c-0.5-0.6-1-1.3-1.4-2.1l-0.1-0.3l2-2.7c-0.2-0.6-0.3-1.2-0.4-1.9l-2.9-1.7v-0.3
			c0-0.4,0.1-0.8,0.2-1.2c0.1-0.4,0.2-0.8,0.3-1.2l0.1-0.3l3.3-0.5c0.3-0.6,0.6-1.1,1-1.6l-0.8-3.2l0.2-0.2c0.6-0.5,1.3-1,2.1-1.4
			l0.3-0.1l2.7,2c0.6-0.2,1.2-0.3,1.8-0.4l1.7-2.9h0.3c0.4,0,0.8,0.1,1.2,0.2c0.4,0.1,0.8,0.2,1.2,0.3l0.3,0.1l0.5,3.3
			c0.6,0.3,1.1,0.6,1.6,1l3.2-0.8l0.2,0.2c0.5,0.6,1,1.3,1.4,2.1l0.1,0.3l-2,2.7c0.2,0.6,0.3,1.2,0.4,1.9l2.9,1.7v0.3
			c0,0.4-0.1,0.8-0.2,1.2c-0.1,0.4-0.2,0.8-0.3,1.2l-0.1,0.3l-3.3,0.5c-0.3,0.6-0.6,1.1-1,1.6l0.8,3.2l-0.2,0.2
			c-0.6,0.5-1.3,1-2.1,1.4l-0.3,0.1l-2.7-2c-0.6,0.2-1.2,0.3-1.8,0.4L282.4,321.2z M281,320.1c0.3,0.1,0.5,0.1,0.8,0.1l1.6-2.8h0.3
			c0.7,0,1.4-0.2,2.1-0.4l0.2-0.1l2.6,1.9c0.5-0.3,1-0.6,1.4-0.9l-0.8-3.1l0.2-0.2c0.5-0.5,0.9-1.1,1.2-1.8l0.1-0.2l3.2-0.5
			c0.1-0.3,0.1-0.5,0.2-0.8s0.1-0.6,0.1-0.8l-2.8-1.6v-0.3c-0.1-0.7-0.2-1.4-0.4-2.1l-0.1-0.2l1.9-2.6c-0.3-0.5-0.6-1-0.9-1.4
			l-3.1,0.8l-0.2-0.2c-0.5-0.5-1.1-0.9-1.8-1.2l-0.2-0.1l-0.5-3.2c-0.3-0.1-0.5-0.1-0.8-0.2s-0.5-0.1-0.8-0.1l-1.6,2.8h-0.3
			c-0.7,0-1.4,0.2-2.1,0.4l-0.2,0.1l-2.6-1.9c-0.5,0.3-1,0.6-1.4,0.9l0.8,3.1l-0.2,0.2c-0.5,0.5-0.9,1.1-1.2,1.8l-0.1,0.2l-3.2,0.5
			c-0.1,0.3-0.1,0.5-0.2,0.8s-0.1,0.6-0.1,0.8l2.8,1.6v0.3c0.1,0.7,0.2,1.4,0.4,2.1l0.1,0.2l-1.9,2.6c0.3,0.5,0.6,1,0.9,1.4l3.1-0.8
			l0.2,0.2c0.5,0.5,1.1,0.9,1.8,1.2l0.2,0.1l0.5,3.2C280.5,319.9,280.8,320,281,320.1z"/>
	</g>
	<g>
		<path class="st4" d="M283.2,313.7c-0.3,0-0.6,0-0.9-0.1c-1.2-0.2-2.2-0.9-2.9-1.9c-0.7-1-0.9-2.2-0.7-3.4c0.5-2.5,2.9-4.1,5.3-3.6
			c2.5,0.5,4.1,2.9,3.6,5.3l0,0c-0.2,1.2-0.9,2.2-1.9,2.9C285,313.4,284.1,313.7,283.2,313.7z M283.2,305.5c-1.7,0-3.2,1.2-3.5,2.9
			c-0.2,0.9,0,1.9,0.6,2.7c0.5,0.8,1.4,1.3,2.3,1.5c1.9,0.4,3.8-0.9,4.2-2.8l0,0c0.4-1.9-0.9-3.8-2.8-4.2
			C283.6,305.6,283.4,305.5,283.2,305.5z"/>
	</g>
	<g>
		<path class="st4" d="M298,333.6h-0.3c-0.3,0-0.7-0.1-1-0.1l0,0c-0.3-0.1-0.7-0.1-1-0.2l-0.3-0.1l-0.4-2.7
			c-0.4-0.2-0.8-0.5-1.2-0.8l-2.6,0.7l-0.2-0.2c-0.4-0.5-0.8-1.1-1.2-1.7l-0.1-0.3l1.6-2.2c-0.1-0.5-0.2-1-0.3-1.5l-2.3-1.4v-0.3
			c0-0.3,0.1-0.7,0.1-1c0.1-0.3,0.1-0.7,0.2-1l0.1-0.3l2.7-0.4c0.2-0.4,0.5-0.9,0.8-1.2l-0.7-2.6l0.2-0.2c0.5-0.4,1.1-0.8,1.7-1.1
			l0.3-0.1l2.2,1.6c0.5-0.1,0.9-0.2,1.4-0.3l1.4-2.3h0.3c0.3,0,0.7,0.1,1,0.1c0.3,0.1,0.7,0.1,1,0.2l0.3,0.1l0.4,2.7
			c0.4,0.2,0.8,0.5,1.2,0.8l2.6-0.7l0.2,0.2c0.4,0.5,0.8,1.1,1.2,1.7l0.1,0.3l-1.6,2.2c0.1,0.5,0.2,1,0.3,1.5l2.3,1.4v0.3
			c0,0.3-0.1,0.7-0.1,1c-0.1,0.3-0.1,0.7-0.2,1L308,327l-2.7,0.4c-0.2,0.4-0.5,0.9-0.8,1.2l0.7,2.6l-0.2,0.2
			c-0.5,0.4-1.1,0.8-1.7,1.1l-0.3,0.1l-2.2-1.6c-0.5,0.1-0.9,0.2-1.4,0.3L298,333.6z M296.9,332.5c0.2,0,0.4,0.1,0.6,0.1l1.3-2.2
			h0.3c0.6,0,1.2-0.2,1.7-0.3l0.2-0.1l2.1,1.5c0.4-0.2,0.7-0.4,1-0.7l-0.7-2.5l0.2-0.2c0.4-0.4,0.7-0.9,1-1.5l0.1-0.2l2.6-0.4
			c0.1-0.2,0.1-0.4,0.1-0.6s0.1-0.4,0.1-0.6l-2.3-1.3v-0.3c0-0.6-0.2-1.2-0.3-1.7l-0.1-0.2l1.5-2.1c-0.2-0.4-0.4-0.7-0.7-1l-2.5,0.7
			l-0.2-0.2c-0.4-0.4-0.9-0.7-1.4-0.9l-0.2-0.1l-0.4-2.6c-0.2-0.1-0.4-0.1-0.6-0.1s-0.4-0.1-0.6-0.1l-1.3,2.2h-0.3
			c-0.6,0-1.2,0.2-1.7,0.3l-0.2,0.1l-2.1-1.5c-0.4,0.2-0.7,0.4-1,0.7l0.7,2.5l-0.2,0.2c-0.4,0.4-0.7,0.9-1,1.5l-0.1,0.2l-2.6,0.4
			c-0.1,0.2-0.1,0.4-0.1,0.6s-0.1,0.4-0.1,0.6l2.3,1.3v0.3c0,0.6,0.2,1.2,0.3,1.7l0.1,0.2l-1.5,2.1c0.2,0.4,0.4,0.7,0.7,1l2.5-0.7
			l0.2,0.2c0.4,0.4,0.9,0.7,1.4,0.9l0.2,0.1l0.4,2.6C296.5,332.4,296.7,332.5,296.9,332.5L296.9,332.5z"/>
	</g>
	<g>
		<path class="st4" d="M298.6,327.5c-0.2,0-0.5,0-0.7-0.1c-2.1-0.4-3.4-2.4-3-4.5s2.4-3.4,4.5-3s3.4,2.4,3,4.5
			C302,326.2,300.4,327.5,298.6,327.5z M298.6,320.8c-1.3,0-2.5,0.9-2.8,2.3c-0.3,1.5,0.7,3,2.3,3.3c1.5,0.3,3-0.7,3.3-2.3
			c0.3-1.5-0.7-3-2.3-3.3C299,320.8,298.8,320.8,298.6,320.8z"/>
	</g>
</g>
<polygon class="st0" points="418.4,167.3 422.9,181 437.2,181 425.5,189.4 430,203.1 418.4,194.7 406.8,203.1 411.1,189.4 
	399.5,181 414,181 "/>
<g>
	<g>
		<path class="st4" d="M271.7,68.9c-2.1,0-3.9-1.7-3.9-3.9c0-2.1,1.7-3.9,3.9-3.9c2.1,0,3.9,1.7,3.9,3.9
			C275.6,67.2,273.8,68.9,271.7,68.9z M271.7,63.1c-1,0-1.9,0.9-1.9,1.9s0.9,1.9,1.9,1.9c1.1,0,1.9-0.9,1.9-1.9
			S272.7,63.1,271.7,63.1z"/>
	</g>
	<g>
		<path class="st4" d="M280.3,55.9c-2.1,0-3.9-1.7-3.9-3.9c0-2.1,1.7-3.9,3.9-3.9c2.1,0,3.9,1.7,3.9,3.9
			C284.2,54.1,282.5,55.9,280.3,55.9z M280.3,50.1c-1,0-1.9,0.9-1.9,1.9s0.9,1.9,1.9,1.9c1.1,0,1.9-0.9,1.9-1.9
			C282.2,50.9,281.4,50.1,280.3,50.1z"/>
	</g>
	<g>
		<path class="st4" d="M294.8,57.8c-2.1,0-3.9-1.7-3.9-3.9c0-2.1,1.7-3.9,3.9-3.9c2.1,0,3.9,1.7,3.9,3.9
			C298.7,56,297,57.8,294.8,57.8z M294.8,52c-1,0-1.9,0.9-1.9,1.9s0.9,1.9,1.9,1.9c1.1,0,1.9-0.9,1.9-1.9
			C296.7,52.8,295.9,52,294.8,52z"/>
	</g>
	<g>
		<path class="st4" d="M306,49.7c-2.1,0-3.9-1.7-3.9-3.9c0-2.1,1.7-3.9,3.9-3.9c2.1,0,3.9,1.7,3.9,3.9S308.2,49.7,306,49.7z
			 M306,43.9c-1.1,0-1.9,0.9-1.9,1.9s0.9,1.9,1.9,1.9c1.1,0,1.9-0.9,1.9-1.9C307.9,44.8,307.1,43.9,306,43.9z"/>
	</g>
	<g>
		<path class="st4" d="M297.4,53.3c-0.3,0-0.6-0.1-0.8-0.4c-0.3-0.4-0.2-1.1,0.2-1.4l5.9-4.3c0.4-0.3,1.1-0.2,1.4,0.2
			s0.2,1.1-0.2,1.4l-5.9,4.3C297.8,53.2,297.6,53.3,297.4,53.3z"/>
	</g>
	<g>
		<path class="st4" d="M291.6,54.8c-0.1,0-0.1,0-0.2,0l-8.4-1.4c-0.5-0.1-0.9-0.6-0.8-1.1s0.6-0.9,1.1-0.8l8.4,1.4
			c0.5,0.1,0.9,0.6,0.8,1.1C292.5,54.5,292,54.8,291.6,54.8z"/>
	</g>
	<g>
		<path class="st4" d="M273.7,62.9c-0.2,0-0.4-0.1-0.6-0.2c-0.4-0.3-0.6-0.9-0.2-1.4L278,54c0.3-0.4,0.9-0.6,1.4-0.2
			c0.4,0.3,0.6,0.9,0.2,1.4l-5.1,7.3C274.3,62.7,274,62.9,273.7,62.9z"/>
	</g>
</g>
<g>
	<path class="st4" d="M28,188.3v6.3h-0.9v-2.8h-3.6v2.8h-0.9v-6.3h0.9v2.7h3.6v-2.7H28z"/>
	<path class="st4" d="M30.5,194.3c-0.4-0.2-0.7-0.5-0.9-0.9c-0.2-0.4-0.3-0.8-0.3-1.3c0-0.5,0.1-0.9,0.3-1.3
		c0.2-0.4,0.5-0.7,0.9-0.9s0.8-0.3,1.3-0.3c0.5,0,0.9,0.1,1.3,0.3c0.4,0.2,0.7,0.5,0.9,0.9c0.2,0.4,0.3,0.8,0.3,1.3
		c0,0.5-0.1,0.9-0.3,1.3c-0.2,0.4-0.5,0.7-0.9,0.9c-0.4,0.2-0.8,0.3-1.3,0.3C31.3,194.7,30.9,194.5,30.5,194.3z M32.6,193.7
		c0.2-0.1,0.4-0.3,0.6-0.6c0.1-0.3,0.2-0.5,0.2-0.9c0-0.3-0.1-0.6-0.2-0.9c-0.1-0.3-0.3-0.5-0.6-0.6c-0.2-0.1-0.5-0.2-0.8-0.2
		c-0.3,0-0.6,0.1-0.8,0.2c-0.2,0.1-0.4,0.3-0.6,0.6c-0.1,0.3-0.2,0.5-0.2,0.9c0,0.3,0.1,0.6,0.2,0.9c0.1,0.3,0.3,0.5,0.6,0.6
		c0.2,0.1,0.5,0.2,0.8,0.2C32.1,193.9,32.4,193.8,32.6,193.7z"/>
	<path class="st4" d="M42.5,189.8l-1.8,4.8h-0.8l-1.4-3.6l-1.4,3.6h-0.8l-1.8-4.8h0.8l1.4,3.8l1.4-3.8h0.7l1.4,3.8l1.4-3.8H42.5z"/>
	<path class="st4" d="M50.3,187.9v6.7h-0.8v-0.8c-0.2,0.3-0.4,0.5-0.7,0.6c-0.3,0.1-0.6,0.2-1,0.2c-0.5,0-0.9-0.1-1.2-0.3
		c-0.4-0.2-0.7-0.5-0.9-0.9c-0.2-0.4-0.3-0.8-0.3-1.3s0.1-0.9,0.3-1.3c0.2-0.4,0.5-0.7,0.9-0.9c0.4-0.2,0.8-0.3,1.2-0.3
		c0.3,0,0.7,0.1,0.9,0.2c0.3,0.1,0.5,0.3,0.7,0.6v-2.6H50.3z M48.7,193.7c0.2-0.1,0.4-0.3,0.6-0.6c0.1-0.3,0.2-0.5,0.2-0.9
		c0-0.3-0.1-0.6-0.2-0.9c-0.1-0.3-0.3-0.5-0.6-0.6c-0.2-0.1-0.5-0.2-0.8-0.2c-0.3,0-0.6,0.1-0.8,0.2c-0.2,0.1-0.4,0.3-0.6,0.6
		c-0.1,0.3-0.2,0.5-0.2,0.9c0,0.3,0.1,0.6,0.2,0.9c0.1,0.3,0.3,0.5,0.6,0.6c0.2,0.1,0.5,0.2,0.8,0.2
		C48.2,193.9,48.4,193.8,48.7,193.7z"/>
	<path class="st4" d="M52.7,194.3c-0.4-0.2-0.7-0.5-0.9-0.9c-0.2-0.4-0.3-0.8-0.3-1.3c0-0.5,0.1-0.9,0.3-1.3
		c0.2-0.4,0.5-0.7,0.9-0.9s0.8-0.3,1.3-0.3c0.5,0,0.9,0.1,1.3,0.3c0.4,0.2,0.7,0.5,0.9,0.9c0.2,0.4,0.3,0.8,0.3,1.3
		c0,0.5-0.1,0.9-0.3,1.3c-0.2,0.4-0.5,0.7-0.9,0.9c-0.4,0.2-0.8,0.3-1.3,0.3C53.5,194.7,53.1,194.5,52.7,194.3z M54.8,193.7
		c0.2-0.1,0.4-0.3,0.6-0.6c0.1-0.3,0.2-0.5,0.2-0.9c0-0.3-0.1-0.6-0.2-0.9c-0.1-0.3-0.3-0.5-0.6-0.6c-0.2-0.1-0.5-0.2-0.8-0.2
		c-0.3,0-0.6,0.1-0.8,0.2c-0.2,0.1-0.4,0.3-0.6,0.6c-0.1,0.3-0.2,0.5-0.2,0.9c0,0.3,0.1,0.6,0.2,0.9c0.1,0.3,0.3,0.5,0.6,0.6
		c0.2,0.1,0.5,0.2,0.8,0.2C54.3,193.9,54.6,193.8,54.8,193.7z"/>
	<path class="st4" d="M62,192.5h-3.9c0.1,0.4,0.2,0.8,0.6,1s0.7,0.4,1.2,0.4c0.6,0,1-0.2,1.4-0.6l0.5,0.6c-0.2,0.3-0.5,0.4-0.8,0.6
		c-0.3,0.1-0.7,0.2-1.1,0.2c-0.5,0-1-0.1-1.3-0.3s-0.7-0.5-0.9-0.9c-0.2-0.4-0.3-0.8-0.3-1.3c0-0.5,0.1-0.9,0.3-1.3
		c0.2-0.4,0.5-0.7,0.9-0.9c0.4-0.2,0.8-0.3,1.2-0.3s0.9,0.1,1.2,0.3c0.4,0.2,0.6,0.5,0.8,0.9c0.2,0.4,0.3,0.8,0.3,1.3
		C62,192.3,62,192.4,62,192.5z M58.6,190.9c-0.3,0.3-0.4,0.6-0.5,1h3.1c0-0.4-0.2-0.7-0.5-1c-0.3-0.3-0.6-0.4-1-0.4
		S58.9,190.6,58.6,190.9z"/>
	<path class="st4" d="M63.4,194.5c-0.4-0.1-0.6-0.2-0.8-0.4l0.4-0.7c0.2,0.1,0.5,0.3,0.8,0.4c0.3,0.1,0.6,0.1,0.9,0.1
		c0.8,0,1.1-0.2,1.1-0.6c0-0.1-0.1-0.3-0.2-0.3s-0.2-0.1-0.4-0.2c-0.2,0-0.4-0.1-0.7-0.1c-0.4-0.1-0.7-0.1-0.9-0.2
		c-0.2-0.1-0.5-0.2-0.6-0.4s-0.3-0.4-0.3-0.8c0-0.4,0.2-0.8,0.5-1c0.4-0.3,0.8-0.4,1.4-0.4c0.3,0,0.6,0,1,0.1
		c0.3,0.1,0.6,0.2,0.8,0.3l-0.4,0.7c-0.4-0.3-0.8-0.4-1.4-0.4c-0.4,0-0.6,0.1-0.8,0.2c-0.2,0.1-0.3,0.3-0.3,0.5
		c0,0.2,0.1,0.3,0.2,0.4c0.1,0.1,0.2,0.2,0.4,0.2c0.2,0,0.4,0.1,0.7,0.1c0.4,0.1,0.7,0.1,0.9,0.2c0.2,0.1,0.4,0.2,0.6,0.4
		c0.2,0.2,0.3,0.4,0.3,0.8c0,0.4-0.2,0.8-0.6,1c-0.4,0.3-0.9,0.4-1.5,0.4C64.2,194.7,63.8,194.6,63.4,194.5z"/>
	<path class="st4" d="M70.9,194.3c-0.4-0.2-0.7-0.5-0.9-0.9c-0.2-0.4-0.3-0.8-0.3-1.3c0-0.5,0.1-0.9,0.3-1.3
		c0.2-0.4,0.5-0.7,0.9-0.9c0.4-0.2,0.8-0.3,1.3-0.3c0.4,0,0.8,0.1,1.2,0.3c0.3,0.2,0.6,0.4,0.8,0.8l-0.7,0.4
		c-0.1-0.2-0.3-0.4-0.6-0.5c-0.2-0.1-0.5-0.2-0.7-0.2c-0.3,0-0.6,0.1-0.8,0.2c-0.2,0.1-0.4,0.3-0.6,0.6c-0.1,0.3-0.2,0.5-0.2,0.9
		c0,0.3,0.1,0.6,0.2,0.9c0.1,0.3,0.3,0.5,0.6,0.6c0.2,0.1,0.5,0.2,0.8,0.2c0.3,0,0.5-0.1,0.7-0.2c0.2-0.1,0.4-0.3,0.6-0.5l0.7,0.4
		c-0.2,0.3-0.4,0.6-0.8,0.8c-0.3,0.2-0.7,0.3-1.2,0.3C71.7,194.7,71.3,194.5,70.9,194.3z"/>
	<path class="st4" d="M75.9,194.3c-0.4-0.2-0.7-0.5-0.9-0.9c-0.2-0.4-0.3-0.8-0.3-1.3c0-0.5,0.1-0.9,0.3-1.3
		c0.2-0.4,0.5-0.7,0.9-0.9s0.8-0.3,1.3-0.3c0.5,0,0.9,0.1,1.3,0.3c0.4,0.2,0.7,0.5,0.9,0.9c0.2,0.4,0.3,0.8,0.3,1.3
		c0,0.5-0.1,0.9-0.3,1.3c-0.2,0.4-0.5,0.7-0.9,0.9c-0.4,0.2-0.8,0.3-1.3,0.3C76.7,194.7,76.3,194.5,75.9,194.3z M78,193.7
		c0.2-0.1,0.4-0.3,0.6-0.6c0.1-0.3,0.2-0.5,0.2-0.9c0-0.3-0.1-0.6-0.2-0.9c-0.1-0.3-0.3-0.5-0.6-0.6c-0.2-0.1-0.5-0.2-0.8-0.2
		c-0.3,0-0.6,0.1-0.8,0.2c-0.2,0.1-0.4,0.3-0.6,0.6c-0.1,0.3-0.2,0.5-0.2,0.9c0,0.3,0.1,0.6,0.2,0.9c0.1,0.3,0.3,0.5,0.6,0.6
		c0.2,0.1,0.5,0.2,0.8,0.2C77.5,193.9,77.8,193.8,78,193.7z"/>
	<path class="st4" d="M84.9,190.3c0.4,0.4,0.5,0.9,0.5,1.5v2.7h-0.9V192c0-0.5-0.1-0.8-0.3-1s-0.5-0.4-1-0.4c-0.5,0-0.8,0.1-1.1,0.4
		s-0.4,0.7-0.4,1.2v2.5h-0.9v-4.8h0.8v0.7c0.2-0.2,0.4-0.4,0.7-0.6c0.3-0.1,0.6-0.2,1-0.2C84,189.8,84.5,190,84.9,190.3z"/>
	<path class="st4" d="M89.7,194.3c-0.1,0.1-0.3,0.2-0.5,0.2c-0.2,0.1-0.4,0.1-0.6,0.1c-0.5,0-0.9-0.1-1.1-0.4
		c-0.3-0.3-0.4-0.6-0.4-1.1v-2.6h-0.8v-0.7h0.8v-1H88v1h1.4v0.7H88v2.6c0,0.3,0.1,0.5,0.2,0.6c0.1,0.1,0.3,0.2,0.6,0.2
		c0.3,0,0.5-0.1,0.7-0.2L89.7,194.3z"/>
	<path class="st4" d="M94.9,192.5H91c0.1,0.4,0.2,0.8,0.6,1s0.7,0.4,1.2,0.4c0.6,0,1-0.2,1.4-0.6l0.5,0.6c-0.2,0.3-0.5,0.4-0.8,0.6
		c-0.3,0.1-0.7,0.2-1.1,0.2c-0.5,0-1-0.1-1.3-0.3s-0.7-0.5-0.9-0.9c-0.2-0.4-0.3-0.8-0.3-1.3c0-0.5,0.1-0.9,0.3-1.3
		c0.2-0.4,0.5-0.7,0.9-0.9c0.4-0.2,0.8-0.3,1.2-0.3s0.9,0.1,1.2,0.3c0.4,0.2,0.6,0.5,0.8,0.9c0.2,0.4,0.3,0.8,0.3,1.3
		C94.9,192.3,94.9,192.4,94.9,192.5z M91.5,190.9c-0.3,0.3-0.4,0.6-0.5,1h3.1c0-0.4-0.2-0.7-0.5-1c-0.3-0.3-0.6-0.4-1-0.4
		S91.8,190.6,91.5,190.9z"/>
	<path class="st4" d="M100.1,190.3c0.4,0.4,0.5,0.9,0.5,1.5v2.7h-0.9V192c0-0.5-0.1-0.8-0.3-1s-0.5-0.4-1-0.4
		c-0.5,0-0.8,0.1-1.1,0.4s-0.4,0.7-0.4,1.2v2.5h-0.9v-4.8h0.8v0.7c0.2-0.2,0.4-0.4,0.7-0.6c0.3-0.1,0.6-0.2,1-0.2
		C99.2,189.8,99.7,190,100.1,190.3z"/>
	<path class="st4" d="M104.9,194.3c-0.1,0.1-0.3,0.2-0.5,0.2c-0.2,0.1-0.4,0.1-0.6,0.1c-0.5,0-0.9-0.1-1.1-0.4
		c-0.3-0.3-0.4-0.6-0.4-1.1v-2.6h-0.8v-0.7h0.8v-1h0.9v1h1.4v0.7h-1.4v2.6c0,0.3,0.1,0.5,0.2,0.6c0.1,0.1,0.3,0.2,0.6,0.2
		c0.3,0,0.5-0.1,0.7-0.2L104.9,194.3z"/>
	<path class="st4" d="M26.9,198.7v6.7h-0.8v-0.8c-0.2,0.3-0.4,0.5-0.7,0.6c-0.3,0.1-0.6,0.2-1,0.2c-0.5,0-0.9-0.1-1.2-0.3
		c-0.4-0.2-0.7-0.5-0.9-0.9c-0.2-0.4-0.3-0.8-0.3-1.3c0-0.5,0.1-0.9,0.3-1.3s0.5-0.7,0.9-0.9c0.4-0.2,0.8-0.3,1.2-0.3
		c0.3,0,0.7,0.1,0.9,0.2c0.3,0.1,0.5,0.3,0.7,0.6v-2.6H26.9z M25.3,204.5c0.2-0.1,0.4-0.3,0.6-0.6c0.1-0.3,0.2-0.5,0.2-0.9
		c0-0.3-0.1-0.6-0.2-0.9c-0.1-0.3-0.3-0.5-0.6-0.6c-0.2-0.1-0.5-0.2-0.8-0.2c-0.3,0-0.6,0.1-0.8,0.2c-0.2,0.1-0.4,0.3-0.6,0.6
		s-0.2,0.5-0.2,0.9c0,0.3,0.1,0.6,0.2,0.9s0.3,0.5,0.6,0.6c0.2,0.1,0.5,0.2,0.8,0.2C24.8,204.7,25,204.6,25.3,204.5z"/>
	<path class="st4" d="M30.1,200.8c0.3-0.1,0.7-0.2,1.1-0.2v0.8c0,0-0.1,0-0.2,0c-0.5,0-0.8,0.1-1.1,0.4c-0.3,0.3-0.4,0.7-0.4,1.2
		v2.4h-0.9v-4.8h0.8v0.8C29.5,201.2,29.8,200.9,30.1,200.8z"/>
	<path class="st4" d="M32.2,199.5c-0.1-0.1-0.2-0.2-0.2-0.4c0-0.2,0.1-0.3,0.2-0.4c0.1-0.1,0.3-0.2,0.4-0.2s0.3,0.1,0.4,0.2
		s0.2,0.2,0.2,0.4c0,0.2-0.1,0.3-0.2,0.4c-0.1,0.1-0.3,0.2-0.4,0.2S32.3,199.7,32.2,199.5z M32.2,200.6H33v4.8h-0.9V200.6z"/>
	<path class="st4" d="M38.9,200.6l-2.1,4.8h-0.9l-2.1-4.8h0.9l1.6,3.8l1.7-3.8H38.9z"/>
	<path class="st4" d="M43.9,203.3H40c0.1,0.4,0.2,0.8,0.6,1s0.7,0.4,1.2,0.4c0.6,0,1-0.2,1.4-0.6l0.5,0.6c-0.2,0.3-0.5,0.4-0.8,0.6
		c-0.3,0.1-0.7,0.2-1.1,0.2c-0.5,0-1-0.1-1.3-0.3s-0.7-0.5-0.9-0.9c-0.2-0.4-0.3-0.8-0.3-1.3c0-0.5,0.1-0.9,0.3-1.3
		c0.2-0.4,0.5-0.7,0.9-0.9c0.4-0.2,0.8-0.3,1.2-0.3s0.9,0.1,1.2,0.3c0.4,0.2,0.6,0.5,0.8,0.9c0.2,0.4,0.3,0.8,0.3,1.3
		C43.9,203.1,43.9,203.2,43.9,203.3z M40.5,201.7c-0.3,0.3-0.4,0.6-0.5,1h3.1c0-0.4-0.2-0.7-0.5-1c-0.3-0.3-0.6-0.4-1-0.4
		S40.8,201.4,40.5,201.7z"/>
	<path class="st4" d="M51.8,203.3h-3.9c0.1,0.4,0.2,0.8,0.6,1s0.7,0.4,1.2,0.4c0.6,0,1-0.2,1.4-0.6l0.5,0.6
		c-0.2,0.3-0.5,0.4-0.8,0.6c-0.3,0.1-0.7,0.2-1.1,0.2c-0.5,0-1-0.1-1.3-0.3s-0.7-0.5-0.9-0.9c-0.2-0.4-0.3-0.8-0.3-1.3
		c0-0.5,0.1-0.9,0.3-1.3c0.2-0.4,0.5-0.7,0.9-0.9c0.4-0.2,0.8-0.3,1.2-0.3s0.9,0.1,1.2,0.3c0.4,0.2,0.6,0.5,0.8,0.9
		c0.2,0.4,0.3,0.8,0.3,1.3C51.8,203.1,51.8,203.2,51.8,203.3z M48.4,201.7c-0.3,0.3-0.4,0.6-0.5,1H51c0-0.4-0.2-0.7-0.5-1
		c-0.3-0.3-0.6-0.4-1-0.4S48.7,201.4,48.4,201.7z"/>
	<path class="st4" d="M55.9,205.4l-1.4-1.8l-1.4,1.8h-1l1.9-2.4l-1.8-2.3h1l1.3,1.7l1.3-1.7h0.9L55,203l1.9,2.4H55.9z"/>
	<path class="st4" d="M61.6,200.9c0.4,0.2,0.7,0.5,0.9,0.9s0.3,0.8,0.3,1.3c0,0.5-0.1,0.9-0.3,1.3c-0.2,0.4-0.5,0.7-0.9,0.9
		c-0.4,0.2-0.8,0.3-1.2,0.3c-0.3,0-0.7-0.1-0.9-0.2c-0.3-0.1-0.5-0.3-0.7-0.6v2.5h-0.9v-6.5h0.8v0.8c0.2-0.3,0.4-0.5,0.7-0.6
		c0.3-0.1,0.6-0.2,1-0.2C60.9,200.6,61.3,200.7,61.6,200.9z M61.1,204.5c0.2-0.1,0.4-0.3,0.6-0.6c0.1-0.3,0.2-0.5,0.2-0.9
		c0-0.3-0.1-0.6-0.2-0.9c-0.1-0.3-0.3-0.5-0.6-0.6c-0.2-0.1-0.5-0.2-0.8-0.2c-0.3,0-0.6,0.1-0.8,0.2s-0.4,0.3-0.6,0.6
		c-0.1,0.3-0.2,0.5-0.2,0.9c0,0.3,0.1,0.6,0.2,0.9s0.3,0.5,0.6,0.6c0.2,0.1,0.5,0.2,0.8,0.2C60.6,204.7,60.9,204.6,61.1,204.5z"/>
	<path class="st4" d="M68.3,203.3h-3.9c0.1,0.4,0.2,0.8,0.6,1s0.7,0.4,1.2,0.4c0.6,0,1-0.2,1.4-0.6l0.5,0.6
		c-0.2,0.3-0.5,0.4-0.8,0.6c-0.3,0.1-0.7,0.2-1.1,0.2c-0.5,0-1-0.1-1.3-0.3s-0.7-0.5-0.9-0.9c-0.2-0.4-0.3-0.8-0.3-1.3
		c0-0.5,0.1-0.9,0.3-1.3c0.2-0.4,0.5-0.7,0.9-0.9c0.4-0.2,0.8-0.3,1.2-0.3s0.9,0.1,1.2,0.3c0.4,0.2,0.6,0.5,0.8,0.9
		c0.2,0.4,0.3,0.8,0.3,1.3C68.3,203.1,68.3,203.2,68.3,203.3z M64.9,201.7c-0.3,0.3-0.4,0.6-0.5,1h3.1c0-0.4-0.2-0.7-0.5-1
		c-0.3-0.3-0.6-0.4-1-0.4S65.2,201.4,64.9,201.7z"/>
	<path class="st4" d="M71,200.8c0.3-0.1,0.7-0.2,1.1-0.2v0.8c0,0-0.1,0-0.2,0c-0.5,0-0.8,0.1-1.1,0.4c-0.3,0.3-0.4,0.7-0.4,1.2v2.4
		h-0.9v-4.8h0.8v0.8C70.5,201.2,70.7,200.9,71,200.8z"/>
	<path class="st4" d="M73.1,199.5c-0.1-0.1-0.2-0.2-0.2-0.4c0-0.2,0.1-0.3,0.2-0.4c0.1-0.1,0.3-0.2,0.4-0.2s0.3,0.1,0.4,0.2
		s0.2,0.2,0.2,0.4c0,0.2-0.1,0.3-0.2,0.4c-0.1,0.1-0.3,0.2-0.4,0.2S73.3,199.7,73.1,199.5z M73.1,200.6H74v4.8h-0.9V200.6z"/>
	<path class="st4" d="M79.9,203.3h-3.9c0.1,0.4,0.2,0.8,0.6,1s0.7,0.4,1.2,0.4c0.6,0,1-0.2,1.4-0.6l0.5,0.6
		c-0.2,0.3-0.5,0.4-0.8,0.6c-0.3,0.1-0.7,0.2-1.1,0.2c-0.5,0-1-0.1-1.3-0.3s-0.7-0.5-0.9-0.9c-0.2-0.4-0.3-0.8-0.3-1.3
		c0-0.5,0.1-0.9,0.3-1.3c0.2-0.4,0.5-0.7,0.9-0.9c0.4-0.2,0.8-0.3,1.2-0.3s0.9,0.1,1.2,0.3c0.4,0.2,0.6,0.5,0.8,0.9
		c0.2,0.4,0.3,0.8,0.3,1.3C80,203.1,79.9,203.2,79.9,203.3z M76.6,201.7c-0.3,0.3-0.4,0.6-0.5,1h3.1c0-0.4-0.2-0.7-0.5-1
		c-0.3-0.3-0.6-0.4-1-0.4S76.8,201.4,76.6,201.7z"/>
	<path class="st4" d="M85.1,201.1c0.4,0.4,0.5,0.9,0.5,1.5v2.7h-0.9v-2.6c0-0.5-0.1-0.8-0.3-1c-0.2-0.2-0.5-0.4-1-0.4
		c-0.5,0-0.8,0.1-1.1,0.4c-0.3,0.3-0.4,0.7-0.4,1.2v2.5h-0.9v-4.8H82v0.7c0.2-0.2,0.4-0.4,0.7-0.6s0.6-0.2,1-0.2
		C84.3,200.6,84.8,200.8,85.1,201.1z"/>
	<path class="st4" d="M88.1,205.1c-0.4-0.2-0.7-0.5-0.9-0.9c-0.2-0.4-0.3-0.8-0.3-1.3c0-0.5,0.1-0.9,0.3-1.3
		c0.2-0.4,0.5-0.7,0.9-0.9c0.4-0.2,0.8-0.3,1.3-0.3c0.4,0,0.8,0.1,1.2,0.3c0.3,0.2,0.6,0.4,0.8,0.8l-0.7,0.4
		c-0.1-0.2-0.3-0.4-0.6-0.5c-0.2-0.1-0.5-0.2-0.7-0.2c-0.3,0-0.6,0.1-0.8,0.2c-0.2,0.1-0.4,0.3-0.6,0.6s-0.2,0.5-0.2,0.9
		c0,0.3,0.1,0.6,0.2,0.9c0.1,0.3,0.3,0.5,0.6,0.6s0.5,0.2,0.8,0.2c0.3,0,0.5-0.1,0.7-0.2s0.4-0.3,0.6-0.5l0.7,0.4
		c-0.2,0.3-0.4,0.6-0.8,0.8c-0.3,0.2-0.7,0.3-1.2,0.3C88.9,205.5,88.5,205.3,88.1,205.1z"/>
	<path class="st4" d="M96.7,203.3h-3.9c0.1,0.4,0.2,0.8,0.6,1s0.7,0.4,1.2,0.4c0.6,0,1-0.2,1.4-0.6l0.5,0.6
		c-0.2,0.3-0.5,0.4-0.8,0.6c-0.3,0.1-0.7,0.2-1.1,0.2c-0.5,0-1-0.1-1.3-0.3s-0.7-0.5-0.9-0.9c-0.2-0.4-0.3-0.8-0.3-1.3
		c0-0.5,0.1-0.9,0.3-1.3c0.2-0.4,0.5-0.7,0.9-0.9c0.4-0.2,0.8-0.3,1.2-0.3s0.9,0.1,1.2,0.3c0.4,0.2,0.6,0.5,0.8,0.9
		c0.2,0.4,0.3,0.8,0.3,1.3C96.7,203.1,96.7,203.2,96.7,203.3z M93.3,201.7c-0.3,0.3-0.4,0.6-0.5,1h3.1c0-0.4-0.2-0.7-0.5-1
		c-0.3-0.3-0.6-0.4-1-0.4S93.6,201.4,93.3,201.7z"/>
	<path class="st4" d="M98.8,202.8c0.1-0.2,0.2-0.3,0.3-0.5c0.1-0.1,0.3-0.3,0.5-0.5c0.2-0.2,0.4-0.4,0.5-0.5
		c0.1-0.2,0.2-0.3,0.2-0.6c0-0.3-0.1-0.5-0.3-0.7c-0.2-0.2-0.5-0.3-0.9-0.3c-0.7,0-1.2,0.2-1.6,0.7l-0.7-0.5c0.3-0.3,0.6-0.6,1-0.7
		c0.4-0.2,0.8-0.3,1.4-0.3c0.7,0,1.2,0.1,1.6,0.4c0.4,0.3,0.6,0.7,0.6,1.2c0,0.2,0,0.5-0.1,0.7c-0.1,0.2-0.2,0.3-0.3,0.5
		c-0.1,0.1-0.3,0.3-0.5,0.5c-0.2,0.2-0.4,0.4-0.5,0.6c-0.1,0.2-0.2,0.4-0.2,0.6h-0.9C98.7,203.2,98.7,203,98.8,202.8z M98.7,205.3
		c-0.1-0.1-0.2-0.2-0.2-0.4s0.1-0.3,0.2-0.4c0.1-0.1,0.3-0.2,0.4-0.2c0.2,0,0.3,0.1,0.4,0.2c0.1,0.1,0.2,0.2,0.2,0.4
		s-0.1,0.3-0.2,0.4c-0.1,0.1-0.2,0.2-0.4,0.2C99,205.5,98.8,205.4,98.7,205.3z"/>
</g>
<g>
	<path class="st4" d="M343.2,26.7V33h-0.9v-2.8h-3.6V33h-0.9v-6.3h0.9v2.7h3.6v-2.7H343.2z"/>
	<path class="st4" d="M345.8,32.7c-0.4-0.2-0.7-0.5-0.9-0.9c-0.2-0.4-0.3-0.8-0.3-1.3c0-0.5,0.1-0.9,0.3-1.3
		c0.2-0.4,0.5-0.7,0.9-0.9s0.8-0.3,1.3-0.3c0.5,0,0.9,0.1,1.3,0.3c0.4,0.2,0.7,0.5,0.9,0.9c0.2,0.4,0.3,0.8,0.3,1.3
		c0,0.5-0.1,0.9-0.3,1.3c-0.2,0.4-0.5,0.7-0.9,0.9c-0.4,0.2-0.8,0.3-1.3,0.3C346.6,33.1,346.1,33,345.8,32.7z M347.9,32.1
		c0.2-0.1,0.4-0.3,0.6-0.6c0.1-0.3,0.2-0.5,0.2-0.9c0-0.3-0.1-0.6-0.2-0.9c-0.1-0.3-0.3-0.5-0.6-0.6c-0.2-0.1-0.5-0.2-0.8-0.2
		c-0.3,0-0.6,0.1-0.8,0.2c-0.2,0.1-0.4,0.3-0.6,0.6c-0.1,0.3-0.2,0.5-0.2,0.9c0,0.3,0.1,0.6,0.2,0.9c0.1,0.3,0.3,0.5,0.6,0.6
		c0.2,0.1,0.5,0.2,0.8,0.2C347.3,32.3,347.6,32.2,347.9,32.1z"/>
	<path class="st4" d="M357.8,28.2L356,33h-0.8l-1.4-3.6l-1.4,3.6h-0.8l-1.8-4.8h0.8L352,32l1.4-3.8h0.7l1.4,3.8l1.4-3.8H357.8z"/>
	<path class="st4" d="M365.6,26.3V33h-0.8v-0.8c-0.2,0.3-0.4,0.5-0.7,0.6c-0.3,0.1-0.6,0.2-1,0.2c-0.5,0-0.9-0.1-1.2-0.3
		s-0.7-0.5-0.9-0.9c-0.2-0.4-0.3-0.8-0.3-1.3s0.1-0.9,0.3-1.3c0.2-0.4,0.5-0.7,0.9-0.9c0.4-0.2,0.8-0.3,1.2-0.3
		c0.3,0,0.7,0.1,0.9,0.2c0.3,0.1,0.5,0.3,0.7,0.6v-2.6H365.6z M363.9,32.1c0.2-0.1,0.4-0.3,0.6-0.6c0.1-0.3,0.2-0.5,0.2-0.9
		c0-0.3-0.1-0.6-0.2-0.9c-0.1-0.3-0.3-0.5-0.6-0.6c-0.2-0.1-0.5-0.2-0.8-0.2c-0.3,0-0.6,0.1-0.8,0.2c-0.2,0.1-0.4,0.3-0.6,0.6
		c-0.1,0.3-0.2,0.5-0.2,0.9c0,0.3,0.1,0.6,0.2,0.9c0.1,0.3,0.3,0.5,0.6,0.6c0.2,0.1,0.5,0.2,0.8,0.2
		C363.4,32.3,363.7,32.2,363.9,32.1z"/>
	<path class="st4" d="M368,32.7c-0.4-0.2-0.7-0.5-0.9-0.9c-0.2-0.4-0.3-0.8-0.3-1.3c0-0.5,0.1-0.9,0.3-1.3c0.2-0.4,0.5-0.7,0.9-0.9
		s0.8-0.3,1.3-0.3c0.5,0,0.9,0.1,1.3,0.3c0.4,0.2,0.7,0.5,0.9,0.9c0.2,0.4,0.3,0.8,0.3,1.3c0,0.5-0.1,0.9-0.3,1.3
		c-0.2,0.4-0.5,0.7-0.9,0.9c-0.4,0.2-0.8,0.3-1.3,0.3C368.8,33.1,368.4,33,368,32.7z M370.1,32.1c0.2-0.1,0.4-0.3,0.6-0.6
		c0.1-0.3,0.2-0.5,0.2-0.9c0-0.3-0.1-0.6-0.2-0.9c-0.1-0.3-0.3-0.5-0.6-0.6c-0.2-0.1-0.5-0.2-0.8-0.2c-0.3,0-0.6,0.1-0.8,0.2
		c-0.2,0.1-0.4,0.3-0.6,0.6c-0.1,0.3-0.2,0.5-0.2,0.9c0,0.3,0.1,0.6,0.2,0.9c0.1,0.3,0.3,0.5,0.6,0.6c0.2,0.1,0.5,0.2,0.8,0.2
		C369.6,32.3,369.8,32.2,370.1,32.1z"/>
	<path class="st4" d="M379.9,26.3V33H379v-0.8c-0.2,0.3-0.4,0.5-0.7,0.6c-0.3,0.1-0.6,0.2-1,0.2c-0.5,0-0.9-0.1-1.2-0.3
		c-0.4-0.2-0.7-0.5-0.9-0.9c-0.2-0.4-0.3-0.8-0.3-1.3s0.1-0.9,0.3-1.3c0.2-0.4,0.5-0.7,0.9-0.9c0.4-0.2,0.8-0.3,1.2-0.3
		c0.3,0,0.7,0.1,0.9,0.2c0.3,0.1,0.5,0.3,0.7,0.6v-2.6H379.9z M378.2,32.1c0.2-0.1,0.4-0.3,0.6-0.6c0.1-0.3,0.2-0.5,0.2-0.9
		c0-0.3-0.1-0.6-0.2-0.9c-0.1-0.3-0.3-0.5-0.6-0.6c-0.2-0.1-0.5-0.2-0.8-0.2c-0.3,0-0.6,0.1-0.8,0.2c-0.2,0.1-0.4,0.3-0.6,0.6
		c-0.1,0.3-0.2,0.5-0.2,0.9c0,0.3,0.1,0.6,0.2,0.9c0.1,0.3,0.3,0.5,0.6,0.6c0.2,0.1,0.5,0.2,0.8,0.2C377.7,32.3,378,32.2,378.2,32.1
		z"/>
	<path class="st4" d="M384.7,28.7c0.4,0.3,0.5,0.8,0.5,1.4V33h-0.8v-0.6c-0.1,0.2-0.3,0.4-0.6,0.5c-0.3,0.1-0.6,0.2-1,0.2
		c-0.5,0-1-0.1-1.3-0.4s-0.5-0.6-0.5-1s0.2-0.8,0.5-1c0.3-0.3,0.8-0.4,1.5-0.4h1.4v-0.2c0-0.4-0.1-0.7-0.3-0.9
		c-0.2-0.2-0.5-0.3-1-0.3c-0.3,0-0.6,0-0.8,0.1c-0.3,0.1-0.5,0.2-0.7,0.4l-0.4-0.6c0.2-0.2,0.5-0.3,0.9-0.5c0.3-0.1,0.7-0.2,1.1-0.2
		C383.9,28.2,384.4,28.3,384.7,28.7z M383.9,32.2c0.2-0.1,0.4-0.4,0.5-0.6v-0.7h-1.3c-0.7,0-1.1,0.2-1.1,0.7c0,0.2,0.1,0.4,0.3,0.6
		c0.2,0.1,0.4,0.2,0.8,0.2S383.6,32.3,383.9,32.2z"/>
	<path class="st4" d="M389.6,32.7c-0.1,0.1-0.3,0.2-0.5,0.2c-0.2,0.1-0.4,0.1-0.6,0.1c-0.5,0-0.9-0.1-1.1-0.4
		c-0.3-0.3-0.4-0.6-0.4-1.1v-2.6h-0.8v-0.7h0.8v-1h0.9v1h1.4v0.7h-1.4v2.6c0,0.3,0.1,0.5,0.2,0.6c0.1,0.1,0.3,0.2,0.6,0.2
		c0.3,0,0.5-0.1,0.7-0.2L389.6,32.7z"/>
	<path class="st4" d="M393.9,28.7c0.4,0.3,0.5,0.8,0.5,1.4V33h-0.8v-0.6c-0.1,0.2-0.3,0.4-0.6,0.5c-0.3,0.1-0.6,0.2-0.9,0.2
		c-0.5,0-1-0.1-1.3-0.4c-0.3-0.3-0.5-0.6-0.5-1s0.2-0.8,0.5-1c0.3-0.3,0.8-0.4,1.5-0.4h1.4v-0.2c0-0.4-0.1-0.7-0.3-0.9
		c-0.2-0.2-0.5-0.3-1-0.3c-0.3,0-0.6,0-0.8,0.1c-0.3,0.1-0.5,0.2-0.7,0.4l-0.4-0.6c0.2-0.2,0.5-0.3,0.9-0.5c0.3-0.1,0.7-0.2,1.1-0.2
		C393,28.2,393.5,28.3,393.9,28.7z M393,32.2c0.2-0.1,0.4-0.4,0.5-0.6v-0.7h-1.3c-0.7,0-1.1,0.2-1.1,0.7c0,0.2,0.1,0.4,0.3,0.6
		c0.2,0.1,0.4,0.2,0.8,0.2S392.8,32.3,393,32.2z"/>
	<path class="st4" d="M398.4,27.2c-0.1-0.1-0.2-0.2-0.2-0.4c0-0.2,0.1-0.3,0.2-0.4s0.3-0.2,0.4-0.2s0.3,0.1,0.4,0.2
		c0.1,0.1,0.2,0.2,0.2,0.4c0,0.2-0.1,0.3-0.2,0.4c-0.1,0.1-0.2,0.2-0.4,0.2S398.5,27.3,398.4,27.2z M398.4,28.2h0.9V33h-0.9V28.2z"
		/>
	<path class="st4" d="M408.3,28.7c0.4,0.3,0.5,0.9,0.5,1.5V33H408v-2.6c0-0.5-0.1-0.8-0.3-1s-0.5-0.4-0.9-0.4c-0.4,0-0.8,0.1-1,0.4
		c-0.3,0.3-0.4,0.7-0.4,1.2V33h-0.9v-2.6c0-0.5-0.1-0.8-0.3-1s-0.5-0.4-0.9-0.4c-0.4,0-0.8,0.1-1,0.4s-0.4,0.7-0.4,1.2V33h-0.9v-4.8
		h0.8v0.7c0.2-0.2,0.4-0.4,0.7-0.6c0.3-0.1,0.6-0.2,1-0.2c0.4,0,0.7,0.1,1,0.2s0.5,0.4,0.7,0.7c0.2-0.3,0.4-0.5,0.8-0.6
		c0.3-0.2,0.7-0.2,1.1-0.2C407.5,28.2,408,28.4,408.3,28.7z"/>
	<path class="st4" d="M414.2,28.5c0.4,0.2,0.7,0.5,0.9,0.9c0.2,0.4,0.3,0.8,0.3,1.3s-0.1,0.9-0.3,1.3c-0.2,0.4-0.5,0.7-0.9,0.9
		c-0.4,0.2-0.8,0.3-1.2,0.3c-0.3,0-0.7-0.1-0.9-0.2c-0.3-0.1-0.5-0.3-0.7-0.6v2.5h-0.9v-6.5h0.8V29c0.2-0.3,0.4-0.5,0.7-0.6
		c0.3-0.1,0.6-0.2,1-0.2C413.4,28.2,413.8,28.3,414.2,28.5z M413.7,32.1c0.2-0.1,0.4-0.3,0.6-0.6c0.1-0.3,0.2-0.5,0.2-0.9
		c0-0.3-0.1-0.6-0.2-0.9c-0.1-0.3-0.3-0.5-0.6-0.6c-0.2-0.1-0.5-0.2-0.8-0.2c-0.3,0-0.6,0.1-0.8,0.2c-0.2,0.1-0.4,0.3-0.6,0.6
		s-0.2,0.5-0.2,0.9c0,0.3,0.1,0.6,0.2,0.9c0.1,0.3,0.3,0.5,0.6,0.6c0.2,0.1,0.5,0.2,0.8,0.2C413.2,32.3,413.5,32.2,413.7,32.1z"/>
	<path class="st4" d="M419.8,28.7c0.4,0.3,0.5,0.8,0.5,1.4V33h-0.8v-0.6c-0.1,0.2-0.3,0.4-0.6,0.5c-0.3,0.1-0.6,0.2-0.9,0.2
		c-0.5,0-1-0.1-1.3-0.4c-0.3-0.3-0.5-0.6-0.5-1s0.2-0.8,0.5-1c0.3-0.3,0.8-0.4,1.5-0.4h1.4v-0.2c0-0.4-0.1-0.7-0.3-0.9
		c-0.2-0.2-0.5-0.3-1-0.3c-0.3,0-0.6,0-0.8,0.1c-0.3,0.1-0.5,0.2-0.7,0.4l-0.4-0.6c0.2-0.2,0.5-0.3,0.9-0.5c0.3-0.1,0.7-0.2,1.1-0.2
		C418.9,28.2,419.4,28.3,419.8,28.7z M418.9,32.2c0.2-0.1,0.4-0.4,0.5-0.6v-0.7h-1.3c-0.7,0-1.1,0.2-1.1,0.7c0,0.2,0.1,0.4,0.3,0.6
		c0.2,0.1,0.4,0.2,0.8,0.2S418.7,32.3,418.9,32.2z"/>
	<path class="st4" d="M422.7,32.7c-0.4-0.2-0.7-0.5-0.9-0.9c-0.2-0.4-0.3-0.8-0.3-1.3c0-0.5,0.1-0.9,0.3-1.3
		c0.2-0.4,0.5-0.7,0.9-0.9s0.8-0.3,1.3-0.3c0.4,0,0.8,0.1,1.2,0.3c0.3,0.2,0.6,0.4,0.8,0.8l-0.7,0.4c-0.2-0.2-0.3-0.4-0.6-0.5
		c-0.2-0.1-0.5-0.2-0.7-0.2c-0.3,0-0.6,0.1-0.8,0.2c-0.2,0.1-0.4,0.3-0.6,0.6c-0.1,0.3-0.2,0.5-0.2,0.9c0,0.3,0.1,0.6,0.2,0.9
		c0.1,0.3,0.3,0.5,0.6,0.6c0.2,0.1,0.5,0.2,0.8,0.2c0.3,0,0.5-0.1,0.7-0.2c0.2-0.1,0.4-0.3,0.6-0.5l0.7,0.4
		c-0.2,0.3-0.4,0.6-0.8,0.8s-0.7,0.3-1.2,0.3C423.5,33.1,423.1,33,422.7,32.7z"/>
	<path class="st4" d="M429.8,32.7c-0.1,0.1-0.3,0.2-0.5,0.2c-0.2,0.1-0.4,0.1-0.6,0.1c-0.5,0-0.9-0.1-1.1-0.4s-0.4-0.6-0.4-1.1v-2.6
		h-0.8v-0.7h0.8v-1h0.9v1h1.4v0.7h-1.4v2.6c0,0.3,0.1,0.5,0.2,0.6c0.1,0.1,0.3,0.2,0.6,0.2c0.3,0,0.5-0.1,0.7-0.2L429.8,32.7z"/>
	<path class="st4" d="M437.5,28.2l-2.3,5.2c-0.2,0.5-0.4,0.8-0.7,1c-0.3,0.2-0.6,0.3-1,0.3c-0.2,0-0.5,0-0.7-0.1s-0.4-0.2-0.5-0.3
		l0.4-0.6c0.2,0.2,0.5,0.4,0.9,0.4c0.2,0,0.4-0.1,0.5-0.2c0.1-0.1,0.3-0.3,0.4-0.6l0.2-0.3l-2.1-4.8h0.9L435,32l1.6-3.8H437.5z"/>
	<path class="st4" d="M438.9,32.7c-0.4-0.2-0.7-0.5-0.9-0.9c-0.2-0.4-0.3-0.8-0.3-1.3c0-0.5,0.1-0.9,0.3-1.3
		c0.2-0.4,0.5-0.7,0.9-0.9s0.8-0.3,1.3-0.3c0.5,0,0.9,0.1,1.3,0.3c0.4,0.2,0.7,0.5,0.9,0.9c0.2,0.4,0.3,0.8,0.3,1.3
		c0,0.5-0.1,0.9-0.3,1.3c-0.2,0.4-0.5,0.7-0.9,0.9c-0.4,0.2-0.8,0.3-1.3,0.3C439.7,33.1,439.3,33,438.9,32.7z M441,32.1
		c0.2-0.1,0.4-0.3,0.6-0.6c0.1-0.3,0.2-0.5,0.2-0.9c0-0.3-0.1-0.6-0.2-0.9c-0.1-0.3-0.3-0.5-0.6-0.6c-0.2-0.1-0.5-0.2-0.8-0.2
		c-0.3,0-0.6,0.1-0.8,0.2c-0.2,0.1-0.4,0.3-0.6,0.6c-0.1,0.3-0.2,0.5-0.2,0.9c0,0.3,0.1,0.6,0.2,0.9c0.1,0.3,0.3,0.5,0.6,0.6
		c0.2,0.1,0.5,0.2,0.8,0.2C440.5,32.3,440.8,32.2,441,32.1z"/>
	<path class="st4" d="M448.3,28.2V33h-0.8v-0.7c-0.2,0.2-0.4,0.4-0.7,0.6c-0.3,0.1-0.6,0.2-0.9,0.2c-0.6,0-1.1-0.2-1.5-0.5
		c-0.4-0.4-0.5-0.9-0.5-1.6v-2.7h0.9v2.6c0,0.5,0.1,0.8,0.3,1c0.2,0.2,0.5,0.4,1,0.4c0.5,0,0.8-0.1,1.1-0.4c0.3-0.3,0.4-0.7,0.4-1.2
		v-2.5H448.3z"/>
	<path class="st4" d="M451.5,28.4c0.3-0.1,0.7-0.2,1.1-0.2V29c0,0-0.1,0-0.2,0c-0.5,0-0.8,0.1-1.1,0.4c-0.3,0.3-0.4,0.7-0.4,1.2V33
		H450v-4.8h0.8V29C451,28.8,451.2,28.5,451.5,28.4z"/>
	<path class="st4" d="M341.4,39.3c0.4,0.2,0.7,0.5,0.9,0.9c0.2,0.4,0.3,0.8,0.3,1.3s-0.1,0.9-0.3,1.3c-0.2,0.4-0.5,0.7-0.9,0.9
		c-0.4,0.2-0.8,0.3-1.2,0.3c-0.4,0-0.7-0.1-1-0.2c-0.3-0.1-0.5-0.3-0.7-0.6v0.8h-0.8v-6.7h0.9v2.6c0.2-0.3,0.4-0.4,0.7-0.6
		c0.3-0.1,0.6-0.2,0.9-0.2C340.7,39,341.1,39.1,341.4,39.3z M341,42.9c0.2-0.1,0.4-0.3,0.6-0.6c0.1-0.3,0.2-0.5,0.2-0.9
		c0-0.3-0.1-0.6-0.2-0.9c-0.1-0.3-0.3-0.5-0.6-0.6c-0.2-0.1-0.5-0.2-0.8-0.2c-0.3,0-0.6,0.1-0.8,0.2c-0.2,0.1-0.4,0.3-0.6,0.6
		c-0.1,0.3-0.2,0.5-0.2,0.9c0,0.3,0.1,0.6,0.2,0.9c0.1,0.3,0.3,0.5,0.6,0.6c0.2,0.1,0.5,0.2,0.8,0.2C340.4,43.1,340.7,43,341,42.9z"
		/>
	<path class="st4" d="M345.3,39.2c0.3-0.1,0.7-0.2,1.1-0.2v0.8c0,0-0.1,0-0.2,0c-0.5,0-0.8,0.1-1.1,0.4c-0.3,0.3-0.4,0.7-0.4,1.2
		v2.4h-0.9V39h0.8v0.8C344.8,39.6,345,39.3,345.3,39.2z"/>
	<path class="st4" d="M350.7,39.5c0.4,0.3,0.5,0.8,0.5,1.4v2.9h-0.8v-0.6c-0.1,0.2-0.3,0.4-0.6,0.5c-0.3,0.1-0.6,0.2-1,0.2
		c-0.5,0-1-0.1-1.3-0.4s-0.5-0.6-0.5-1s0.2-0.8,0.5-1c0.3-0.3,0.8-0.4,1.5-0.4h1.4v-0.2c0-0.4-0.1-0.7-0.3-0.9
		c-0.2-0.2-0.5-0.3-1-0.3c-0.3,0-0.6,0-0.8,0.1c-0.3,0.1-0.5,0.2-0.7,0.4l-0.4-0.6c0.2-0.2,0.5-0.3,0.9-0.5c0.3-0.1,0.7-0.2,1.1-0.2
		C349.8,39,350.3,39.1,350.7,39.5z M349.8,43c0.2-0.1,0.4-0.4,0.5-0.6v-0.7H349c-0.7,0-1.1,0.2-1.1,0.7c0,0.2,0.1,0.4,0.3,0.6
		c0.2,0.1,0.4,0.2,0.8,0.2S349.6,43.1,349.8,43z"/>
	<path class="st4" d="M356.8,39.5c0.4,0.4,0.5,0.9,0.5,1.5v2.7h-0.9v-2.6c0-0.5-0.1-0.8-0.3-1c-0.2-0.2-0.5-0.4-1-0.4
		c-0.5,0-0.8,0.1-1.1,0.4c-0.3,0.3-0.4,0.7-0.4,1.2v2.5h-0.9V39h0.8v0.7c0.2-0.2,0.4-0.4,0.7-0.6c0.3-0.1,0.6-0.2,1-0.2
		C356,39,356.5,39.2,356.8,39.5z"/>
	<path class="st4" d="M363.5,37.1v6.7h-0.8V43c-0.2,0.3-0.4,0.5-0.7,0.6c-0.3,0.1-0.6,0.2-1,0.2c-0.5,0-0.9-0.1-1.2-0.3
		s-0.7-0.5-0.9-0.9c-0.2-0.4-0.3-0.8-0.3-1.3s0.1-0.9,0.3-1.3c0.2-0.4,0.5-0.7,0.9-0.9c0.4-0.2,0.8-0.3,1.2-0.3
		c0.3,0,0.7,0.1,0.9,0.2c0.3,0.1,0.5,0.3,0.7,0.6v-2.6H363.5z M361.8,42.9c0.2-0.1,0.4-0.3,0.6-0.6c0.1-0.3,0.2-0.5,0.2-0.9
		c0-0.3-0.1-0.6-0.2-0.9c-0.1-0.3-0.3-0.5-0.6-0.6c-0.2-0.1-0.5-0.2-0.8-0.2c-0.3,0-0.6,0.1-0.8,0.2c-0.2,0.1-0.4,0.3-0.6,0.6
		c-0.1,0.3-0.2,0.5-0.2,0.9c0,0.3,0.1,0.6,0.2,0.9c0.1,0.3,0.3,0.5,0.6,0.6c0.2,0.1,0.5,0.2,0.8,0.2C361.3,43.1,361.6,43,361.8,42.9
		z"/>
	<path class="st4" d="M372.3,43.9l-0.8-0.8c-0.6,0.5-1.3,0.8-2.1,0.8c-0.4,0-0.8-0.1-1.1-0.2c-0.3-0.1-0.6-0.3-0.8-0.6
		c-0.2-0.2-0.3-0.5-0.3-0.9c0-0.4,0.1-0.7,0.4-1s0.6-0.6,1.2-0.9c-0.3-0.3-0.5-0.5-0.6-0.7c-0.1-0.2-0.2-0.5-0.2-0.7
		c0-0.4,0.2-0.8,0.5-1c0.3-0.3,0.7-0.4,1.2-0.4c0.5,0,0.9,0.1,1.1,0.4s0.4,0.6,0.4,1c0,0.3-0.1,0.6-0.3,0.9s-0.6,0.5-1,0.8l1.6,1.5
		c0.2-0.3,0.3-0.7,0.4-1.1l0.7,0.2c-0.1,0.6-0.3,1-0.5,1.4l0.8,0.8L372.3,43.9z M370.9,42.6l-1.8-1.8c-0.4,0.2-0.7,0.5-0.9,0.7
		s-0.3,0.4-0.3,0.7c0,0.3,0.1,0.5,0.4,0.7s0.6,0.3,1,0.3C370,43.2,370.5,43,370.9,42.6z M368.9,38.3c-0.2,0.1-0.2,0.3-0.2,0.6
		c0,0.2,0,0.3,0.1,0.5c0.1,0.2,0.3,0.4,0.5,0.6c0.4-0.2,0.7-0.4,0.9-0.6s0.2-0.4,0.2-0.5c0-0.2-0.1-0.4-0.2-0.5
		c-0.1-0.1-0.4-0.2-0.6-0.2C369.3,38.1,369.1,38.1,368.9,38.3z"/>
	<path class="st4" d="M379.9,39.3c0.4,0.2,0.7,0.5,0.9,0.9c0.2,0.4,0.3,0.8,0.3,1.3s-0.1,0.9-0.3,1.3c-0.2,0.4-0.5,0.7-0.9,0.9
		c-0.4,0.2-0.8,0.3-1.2,0.3c-0.4,0-0.7-0.1-1-0.2c-0.3-0.1-0.5-0.3-0.7-0.6v0.8h-0.8v-6.7h0.9v2.6c0.2-0.3,0.4-0.4,0.7-0.6
		c0.3-0.1,0.6-0.2,0.9-0.2C379.1,39,379.5,39.1,379.9,39.3z M379.4,42.9c0.2-0.1,0.4-0.3,0.6-0.6c0.1-0.3,0.2-0.5,0.2-0.9
		c0-0.3-0.1-0.6-0.2-0.9c-0.1-0.3-0.3-0.5-0.6-0.6c-0.2-0.1-0.5-0.2-0.8-0.2c-0.3,0-0.6,0.1-0.8,0.2c-0.2,0.1-0.4,0.3-0.6,0.6
		c-0.1,0.3-0.2,0.5-0.2,0.9c0,0.3,0.1,0.6,0.2,0.9c0.1,0.3,0.3,0.5,0.6,0.6c0.2,0.1,0.5,0.2,0.8,0.2C378.9,43.1,379.2,43,379.4,42.9
		z"/>
	<path class="st4" d="M386.7,39v4.8h-0.8v-0.7c-0.2,0.2-0.4,0.4-0.7,0.6c-0.3,0.1-0.6,0.2-0.9,0.2c-0.6,0-1.1-0.2-1.5-0.5
		c-0.4-0.4-0.5-0.9-0.5-1.6V39h0.9v2.6c0,0.5,0.1,0.8,0.3,1c0.2,0.2,0.5,0.4,1,0.4c0.5,0,0.8-0.1,1.1-0.4c0.3-0.3,0.4-0.7,0.4-1.2
		V39H386.7z"/>
	<path class="st4" d="M388.6,43.7c-0.4-0.1-0.6-0.2-0.8-0.4l0.4-0.7c0.2,0.1,0.5,0.3,0.8,0.4c0.3,0.1,0.6,0.1,0.9,0.1
		c0.8,0,1.1-0.2,1.1-0.6c0-0.1-0.1-0.3-0.2-0.3c-0.1-0.1-0.2-0.1-0.4-0.2c-0.2,0-0.4-0.1-0.7-0.1c-0.4-0.1-0.7-0.1-0.9-0.2
		c-0.2-0.1-0.5-0.2-0.6-0.4s-0.3-0.4-0.3-0.8c0-0.4,0.2-0.8,0.5-1c0.4-0.3,0.8-0.4,1.4-0.4c0.3,0,0.6,0,1,0.1
		c0.3,0.1,0.6,0.2,0.8,0.3l-0.4,0.7c-0.4-0.3-0.8-0.4-1.4-0.4c-0.4,0-0.6,0.1-0.8,0.2s-0.3,0.3-0.3,0.5c0,0.2,0.1,0.3,0.2,0.4
		c0.1,0.1,0.2,0.2,0.4,0.2s0.4,0.1,0.7,0.1c0.4,0.1,0.7,0.1,0.9,0.2c0.2,0.1,0.4,0.2,0.6,0.4c0.2,0.2,0.3,0.4,0.3,0.8
		c0,0.4-0.2,0.8-0.6,1c-0.4,0.3-0.9,0.4-1.5,0.4C389.3,43.9,389,43.8,388.6,43.7z"/>
	<path class="st4" d="M392.9,38c-0.1-0.1-0.2-0.2-0.2-0.4c0-0.2,0.1-0.3,0.2-0.4s0.3-0.2,0.4-0.2s0.3,0.1,0.4,0.2
		c0.1,0.1,0.2,0.2,0.2,0.4c0,0.2-0.1,0.3-0.2,0.4c-0.1,0.1-0.2,0.2-0.4,0.2S393,38.1,392.9,38z M392.9,39h0.9v4.8h-0.9V39z"/>
	<path class="st4" d="M399.4,39.5c0.4,0.4,0.5,0.9,0.5,1.5v2.7H399v-2.6c0-0.5-0.1-0.8-0.3-1c-0.2-0.2-0.5-0.4-1-0.4
		c-0.5,0-0.8,0.1-1.1,0.4c-0.3,0.3-0.4,0.7-0.4,1.2v2.5h-0.9V39h0.8v0.7c0.2-0.2,0.4-0.4,0.7-0.6c0.3-0.1,0.6-0.2,1-0.2
		C398.5,39,399,39.2,399.4,39.5z"/>
	<path class="st4" d="M405.8,41.7H402c0.1,0.4,0.2,0.8,0.6,1c0.3,0.3,0.7,0.4,1.2,0.4c0.6,0,1-0.2,1.4-0.6l0.5,0.6
		c-0.2,0.3-0.5,0.4-0.8,0.6c-0.3,0.1-0.7,0.2-1.1,0.2c-0.5,0-1-0.1-1.3-0.3c-0.4-0.2-0.7-0.5-0.9-0.9s-0.3-0.8-0.3-1.3
		c0-0.5,0.1-0.9,0.3-1.3c0.2-0.4,0.5-0.7,0.9-0.9s0.8-0.3,1.2-0.3s0.9,0.1,1.2,0.3s0.6,0.5,0.8,0.9c0.2,0.4,0.3,0.8,0.3,1.3
		C405.8,41.5,405.8,41.6,405.8,41.7z M402.4,40.1c-0.3,0.3-0.4,0.6-0.5,1h3.1c0-0.4-0.2-0.7-0.5-1c-0.3-0.3-0.6-0.4-1-0.4
		S402.7,39.8,402.4,40.1z"/>
	<path class="st4" d="M407.3,43.7c-0.4-0.1-0.6-0.2-0.8-0.4l0.4-0.7c0.2,0.1,0.5,0.3,0.8,0.4c0.3,0.1,0.6,0.1,0.9,0.1
		c0.8,0,1.1-0.2,1.1-0.6c0-0.1-0.1-0.3-0.2-0.3c-0.1-0.1-0.2-0.1-0.4-0.2c-0.2,0-0.4-0.1-0.7-0.1c-0.4-0.1-0.7-0.1-0.9-0.2
		c-0.2-0.1-0.5-0.2-0.6-0.4s-0.3-0.4-0.3-0.8c0-0.4,0.2-0.8,0.5-1c0.4-0.3,0.8-0.4,1.4-0.4c0.3,0,0.6,0,1,0.1
		c0.3,0.1,0.6,0.2,0.8,0.3l-0.4,0.7c-0.4-0.3-0.8-0.4-1.4-0.4c-0.4,0-0.6,0.1-0.8,0.2s-0.3,0.3-0.3,0.5c0,0.2,0.1,0.3,0.2,0.4
		c0.1,0.1,0.2,0.2,0.4,0.2s0.4,0.1,0.7,0.1c0.4,0.1,0.7,0.1,0.9,0.2c0.2,0.1,0.4,0.2,0.6,0.4c0.2,0.2,0.3,0.4,0.3,0.8
		c0,0.4-0.2,0.8-0.6,1c-0.4,0.3-0.9,0.4-1.5,0.4C408,43.9,407.6,43.8,407.3,43.7z"/>
	<path class="st4" d="M411.8,43.7c-0.4-0.1-0.6-0.2-0.8-0.4l0.4-0.7c0.2,0.1,0.5,0.3,0.8,0.4c0.3,0.1,0.6,0.1,0.9,0.1
		c0.8,0,1.1-0.2,1.1-0.6c0-0.1-0.1-0.3-0.2-0.3c-0.1-0.1-0.2-0.1-0.4-0.2c-0.2,0-0.4-0.1-0.7-0.1c-0.4-0.1-0.7-0.1-0.9-0.2
		c-0.2-0.1-0.5-0.2-0.6-0.4s-0.3-0.4-0.3-0.8c0-0.4,0.2-0.8,0.5-1c0.4-0.3,0.8-0.4,1.4-0.4c0.3,0,0.6,0,1,0.1
		c0.3,0.1,0.6,0.2,0.8,0.3l-0.4,0.7c-0.4-0.3-0.8-0.4-1.4-0.4c-0.4,0-0.6,0.1-0.8,0.2c-0.2,0.1-0.3,0.3-0.3,0.5
		c0,0.2,0.1,0.3,0.2,0.4c0.1,0.1,0.2,0.2,0.4,0.2c0.2,0,0.4,0.1,0.7,0.1c0.4,0.1,0.7,0.1,0.9,0.2c0.2,0.1,0.4,0.2,0.6,0.4
		c0.2,0.2,0.3,0.4,0.3,0.8c0,0.4-0.2,0.8-0.6,1c-0.4,0.3-0.9,0.4-1.5,0.4C412.5,43.9,412.2,43.8,411.8,43.7z"/>
	<path class="st4" d="M417.3,41.2c0.1-0.2,0.2-0.3,0.3-0.5c0.1-0.1,0.3-0.3,0.5-0.5c0.2-0.2,0.4-0.4,0.5-0.5s0.2-0.3,0.2-0.6
		c0-0.3-0.1-0.5-0.3-0.7c-0.2-0.2-0.5-0.3-0.9-0.3c-0.7,0-1.2,0.2-1.6,0.7l-0.7-0.5c0.3-0.3,0.6-0.6,1-0.7c0.4-0.2,0.8-0.3,1.4-0.3
		c0.7,0,1.2,0.1,1.6,0.4c0.4,0.3,0.6,0.7,0.6,1.2c0,0.2,0,0.5-0.1,0.7s-0.2,0.3-0.3,0.5s-0.3,0.3-0.5,0.5c-0.2,0.2-0.4,0.4-0.5,0.6
		c-0.1,0.2-0.2,0.4-0.2,0.6h-0.9C417.1,41.6,417.2,41.4,417.3,41.2z M417.2,43.7c-0.1-0.1-0.2-0.2-0.2-0.4s0.1-0.3,0.2-0.4
		c0.1-0.1,0.3-0.2,0.4-0.2s0.3,0.1,0.4,0.2c0.1,0.1,0.2,0.2,0.2,0.4s-0.1,0.3-0.2,0.4c-0.1,0.1-0.2,0.2-0.4,0.2
		C417.4,43.9,417.3,43.8,417.2,43.7z"/>
</g>
<g>
	<path class="st4" d="M480.1,185.6v6.3h-0.9v-2.8h-3.6v2.8h-0.9v-6.3h0.9v2.7h3.6v-2.7H480.1z"/>
	<path class="st4" d="M482.6,191.6c-0.4-0.2-0.7-0.5-0.9-0.9c-0.2-0.4-0.3-0.8-0.3-1.3c0-0.5,0.1-0.9,0.3-1.3
		c0.2-0.4,0.5-0.7,0.9-0.9s0.8-0.3,1.3-0.3c0.5,0,0.9,0.1,1.3,0.3c0.4,0.2,0.7,0.5,0.9,0.9c0.2,0.4,0.3,0.8,0.3,1.3
		c0,0.5-0.1,0.9-0.3,1.3c-0.2,0.4-0.5,0.7-0.9,0.9c-0.4,0.2-0.8,0.3-1.3,0.3C483.4,191.9,483,191.8,482.6,191.6z M484.7,191
		c0.2-0.1,0.4-0.3,0.6-0.6c0.1-0.3,0.2-0.5,0.2-0.9c0-0.3-0.1-0.6-0.2-0.9c-0.1-0.3-0.3-0.5-0.6-0.6c-0.2-0.1-0.5-0.2-0.8-0.2
		c-0.3,0-0.6,0.1-0.8,0.2c-0.2,0.1-0.4,0.3-0.6,0.6c-0.1,0.3-0.2,0.5-0.2,0.9c0,0.3,0.1,0.6,0.2,0.9c0.1,0.3,0.3,0.5,0.6,0.6
		c0.2,0.1,0.5,0.2,0.8,0.2C484.2,191.2,484.5,191.1,484.7,191z"/>
	<path class="st4" d="M494.6,187.1l-1.8,4.8H492l-1.4-3.6l-1.4,3.6h-0.8l-1.8-4.8h0.8l1.4,3.8l1.4-3.8h0.7l1.4,3.8l1.4-3.8H494.6z"
		/>
	<path class="st4" d="M502.4,185.2v6.7h-0.8v-0.8c-0.2,0.3-0.4,0.5-0.7,0.6c-0.3,0.1-0.6,0.2-1,0.2c-0.5,0-0.9-0.1-1.2-0.3
		s-0.7-0.5-0.9-0.9c-0.2-0.4-0.3-0.8-0.3-1.3s0.1-0.9,0.3-1.3c0.2-0.4,0.5-0.7,0.9-0.9c0.4-0.2,0.8-0.3,1.2-0.3
		c0.3,0,0.7,0.1,0.9,0.2c0.3,0.1,0.5,0.3,0.7,0.6v-2.6H502.4z M500.8,191c0.2-0.1,0.4-0.3,0.6-0.6c0.1-0.3,0.2-0.5,0.2-0.9
		c0-0.3-0.1-0.6-0.2-0.9c-0.1-0.3-0.3-0.5-0.6-0.6c-0.2-0.1-0.5-0.2-0.8-0.2c-0.3,0-0.6,0.1-0.8,0.2c-0.2,0.1-0.4,0.3-0.6,0.6
		c-0.1,0.3-0.2,0.5-0.2,0.9c0,0.3,0.1,0.6,0.2,0.9c0.1,0.3,0.3,0.5,0.6,0.6c0.2,0.1,0.5,0.2,0.8,0.2
		C500.3,191.2,500.5,191.1,500.8,191z"/>
	<path class="st4" d="M504.8,191.6c-0.4-0.2-0.7-0.5-0.9-0.9c-0.2-0.4-0.3-0.8-0.3-1.3c0-0.5,0.1-0.9,0.3-1.3
		c0.2-0.4,0.5-0.7,0.9-0.9s0.8-0.3,1.3-0.3c0.5,0,0.9,0.1,1.3,0.3c0.4,0.2,0.7,0.5,0.9,0.9c0.2,0.4,0.3,0.8,0.3,1.3
		c0,0.5-0.1,0.9-0.3,1.3c-0.2,0.4-0.5,0.7-0.9,0.9c-0.4,0.2-0.8,0.3-1.3,0.3C505.6,191.9,505.2,191.8,504.8,191.6z M506.9,191
		c0.2-0.1,0.4-0.3,0.6-0.6c0.1-0.3,0.2-0.5,0.2-0.9c0-0.3-0.1-0.6-0.2-0.9c-0.1-0.3-0.3-0.5-0.6-0.6c-0.2-0.1-0.5-0.2-0.8-0.2
		c-0.3,0-0.6,0.1-0.8,0.2c-0.2,0.1-0.4,0.3-0.6,0.6c-0.1,0.3-0.2,0.5-0.2,0.9c0,0.3,0.1,0.6,0.2,0.9c0.1,0.3,0.3,0.5,0.6,0.6
		c0.2,0.1,0.5,0.2,0.8,0.2C506.4,191.2,506.7,191.1,506.9,191z"/>
	<path class="st4" d="M514.1,189.8h-3.9c0.1,0.4,0.2,0.8,0.6,1c0.3,0.3,0.7,0.4,1.2,0.4c0.6,0,1-0.2,1.4-0.6l0.5,0.6
		c-0.2,0.3-0.5,0.4-0.8,0.6c-0.3,0.1-0.7,0.2-1.1,0.2c-0.5,0-1-0.1-1.3-0.3c-0.4-0.2-0.7-0.5-0.9-0.9s-0.3-0.8-0.3-1.3
		c0-0.5,0.1-0.9,0.3-1.3c0.2-0.4,0.5-0.7,0.9-0.9s0.8-0.3,1.2-0.3s0.9,0.1,1.2,0.3s0.6,0.5,0.8,0.9c0.2,0.4,0.3,0.8,0.3,1.3
		C514.1,189.6,514.1,189.7,514.1,189.8z M510.7,188.2c-0.3,0.3-0.4,0.6-0.5,1h3.1c0-0.4-0.2-0.7-0.5-1c-0.3-0.3-0.6-0.4-1-0.4
		S511,187.9,510.7,188.2z"/>
	<path class="st4" d="M515.5,191.8c-0.4-0.1-0.6-0.2-0.8-0.4l0.4-0.7c0.2,0.1,0.5,0.3,0.8,0.4c0.3,0.1,0.6,0.1,0.9,0.1
		c0.8,0,1.1-0.2,1.1-0.6c0-0.1-0.1-0.3-0.2-0.3c-0.1-0.1-0.2-0.1-0.4-0.2c-0.2,0-0.4-0.1-0.7-0.1c-0.4-0.1-0.7-0.1-0.9-0.2
		c-0.2-0.1-0.5-0.2-0.6-0.4s-0.3-0.4-0.3-0.8c0-0.4,0.2-0.8,0.5-1c0.4-0.3,0.8-0.4,1.4-0.4c0.3,0,0.6,0,1,0.1
		c0.3,0.1,0.6,0.2,0.8,0.3l-0.4,0.7c-0.4-0.3-0.8-0.4-1.4-0.4c-0.4,0-0.6,0.1-0.8,0.2c-0.2,0.1-0.3,0.3-0.3,0.5
		c0,0.2,0.1,0.3,0.2,0.4c0.1,0.1,0.2,0.2,0.4,0.2c0.2,0,0.4,0.1,0.7,0.1c0.4,0.1,0.7,0.1,0.9,0.2c0.2,0.1,0.4,0.2,0.6,0.4
		c0.2,0.2,0.3,0.4,0.3,0.8c0,0.4-0.2,0.8-0.6,1c-0.4,0.3-0.9,0.4-1.5,0.4C516.3,191.9,515.9,191.9,515.5,191.8z"/>
	<path class="st4" d="M529.6,187.6c0.4,0.3,0.5,0.9,0.5,1.5v2.7h-0.9v-2.6c0-0.5-0.1-0.8-0.3-1s-0.5-0.4-0.9-0.4
		c-0.4,0-0.8,0.1-1,0.4c-0.3,0.3-0.4,0.7-0.4,1.2v2.5h-0.9v-2.6c0-0.5-0.1-0.8-0.3-1s-0.5-0.4-0.9-0.4c-0.4,0-0.8,0.1-1,0.4
		s-0.4,0.7-0.4,1.2v2.5h-0.9v-4.8h0.8v0.7c0.2-0.2,0.4-0.4,0.7-0.6c0.3-0.1,0.6-0.2,1-0.2c0.4,0,0.7,0.1,1,0.2s0.5,0.4,0.7,0.7
		c0.2-0.3,0.4-0.5,0.8-0.6c0.3-0.2,0.7-0.2,1.1-0.2C528.8,187.1,529.3,187.3,529.6,187.6z"/>
	<path class="st4" d="M536,189.8h-3.9c0.1,0.4,0.2,0.8,0.6,1c0.3,0.3,0.7,0.4,1.2,0.4c0.6,0,1-0.2,1.4-0.6l0.5,0.6
		c-0.2,0.3-0.5,0.4-0.8,0.6c-0.3,0.1-0.7,0.2-1.1,0.2c-0.5,0-1-0.1-1.3-0.3c-0.4-0.2-0.7-0.5-0.9-0.9c-0.2-0.4-0.3-0.8-0.3-1.3
		c0-0.5,0.1-0.9,0.3-1.3c0.2-0.4,0.5-0.7,0.9-0.9c0.4-0.2,0.8-0.3,1.2-0.3s0.9,0.1,1.2,0.3c0.4,0.2,0.6,0.5,0.8,0.9
		c0.2,0.4,0.3,0.8,0.3,1.3C536.1,189.6,536.1,189.7,536,189.8z M532.7,188.2c-0.3,0.3-0.4,0.6-0.5,1h3.1c0-0.4-0.2-0.7-0.5-1
		c-0.3-0.3-0.6-0.4-1-0.4S532.9,187.9,532.7,188.2z"/>
	<path class="st4" d="M540.4,187.6c0.4,0.3,0.5,0.8,0.5,1.4v2.9h-0.8v-0.6c-0.1,0.2-0.3,0.4-0.6,0.5c-0.3,0.1-0.6,0.2-1,0.2
		c-0.5,0-1-0.1-1.3-0.4s-0.5-0.6-0.5-1s0.2-0.8,0.5-1c0.3-0.3,0.8-0.4,1.5-0.4h1.4V189c0-0.4-0.1-0.7-0.3-0.9
		c-0.2-0.2-0.5-0.3-1-0.3c-0.3,0-0.6,0-0.8,0.1c-0.3,0.1-0.5,0.2-0.7,0.4l-0.4-0.6c0.2-0.2,0.5-0.3,0.9-0.5c0.3-0.1,0.7-0.2,1.1-0.2
		C539.5,187.1,540,187.2,540.4,187.6z M539.5,191.1c0.2-0.1,0.4-0.4,0.5-0.6v-0.7h-1.3c-0.7,0-1.1,0.2-1.1,0.7
		c0,0.2,0.1,0.4,0.3,0.6c0.2,0.1,0.4,0.2,0.8,0.2S539.3,191.2,539.5,191.1z"/>
	<path class="st4" d="M546.5,187.6c0.4,0.4,0.5,0.9,0.5,1.5v2.7h-0.9v-2.6c0-0.5-0.1-0.8-0.3-1c-0.2-0.2-0.5-0.4-1-0.4
		c-0.5,0-0.8,0.1-1.1,0.4c-0.3,0.3-0.4,0.7-0.4,1.2v2.5h-0.9v-4.8h0.8v0.7c0.2-0.2,0.4-0.4,0.7-0.6c0.3-0.1,0.6-0.2,1-0.2
		C545.7,187.1,546.1,187.3,546.5,187.6z"/>
	<path class="st4" d="M548.6,186c-0.1-0.1-0.2-0.2-0.2-0.4c0-0.2,0.1-0.3,0.2-0.4c0.1-0.1,0.2-0.2,0.4-0.2s0.3,0.1,0.4,0.2
		c0.1,0.1,0.2,0.2,0.2,0.4c0,0.2-0.1,0.3-0.2,0.4c-0.1,0.1-0.3,0.2-0.4,0.2S548.8,186.1,548.6,186z M548.6,187.1h0.9v4.8h-0.9V187.1
		z"/>
	<path class="st4" d="M555.1,187.6c0.4,0.4,0.5,0.9,0.5,1.5v2.7h-0.9v-2.6c0-0.5-0.1-0.8-0.3-1c-0.2-0.2-0.5-0.4-1-0.4
		c-0.5,0-0.8,0.1-1.1,0.4c-0.3,0.3-0.4,0.7-0.4,1.2v2.5h-0.9v-4.8h0.8v0.7c0.2-0.2,0.4-0.4,0.7-0.6c0.3-0.1,0.6-0.2,1-0.2
		C554.3,187.1,554.8,187.3,555.1,187.6z"/>
	<path class="st4" d="M561.9,187.1v4.1c0,0.8-0.2,1.5-0.6,1.8c-0.4,0.4-1,0.6-1.9,0.6c-0.5,0-0.9-0.1-1.3-0.2
		c-0.4-0.1-0.7-0.3-1-0.5l0.4-0.7c0.2,0.2,0.5,0.3,0.8,0.5c0.3,0.1,0.7,0.2,1,0.2c0.6,0,1-0.1,1.2-0.4c0.3-0.3,0.4-0.7,0.4-1.2V191
		c-0.2,0.2-0.5,0.4-0.8,0.6s-0.6,0.2-1,0.2c-0.5,0-0.9-0.1-1.2-0.3c-0.4-0.2-0.7-0.5-0.9-0.8s-0.3-0.8-0.3-1.2
		c0-0.4,0.1-0.9,0.3-1.2s0.5-0.6,0.9-0.8s0.8-0.3,1.2-0.3c0.4,0,0.7,0.1,1,0.2c0.3,0.1,0.6,0.3,0.8,0.6v-0.7H561.9z M560.2,190.7
		c0.2-0.1,0.4-0.3,0.6-0.6c0.1-0.2,0.2-0.5,0.2-0.8c0-0.5-0.2-0.8-0.5-1.1c-0.3-0.3-0.7-0.4-1.2-0.4c-0.5,0-0.9,0.1-1.2,0.4
		c-0.3,0.3-0.5,0.7-0.5,1.1c0,0.3,0.1,0.6,0.2,0.8c0.1,0.2,0.3,0.4,0.6,0.6s0.5,0.2,0.9,0.2C559.7,190.9,560,190.9,560.2,190.7z"/>
	<path class="st4" d="M564.5,186.7v0.4h1.4v0.7h-1.4v4.1h-0.9v-4.1h-0.8v-0.7h0.8v-0.4c0-0.5,0.1-0.8,0.4-1.1
		c0.3-0.3,0.7-0.4,1.2-0.4c0.2,0,0.4,0,0.5,0.1c0.2,0,0.3,0.1,0.4,0.2l-0.3,0.7c-0.2-0.1-0.4-0.2-0.7-0.2
		C564.7,185.9,564.5,186.1,564.5,186.7z"/>
	<path class="st4" d="M571.1,187.1v4.8h-0.8v-0.7c-0.2,0.2-0.4,0.4-0.7,0.6c-0.3,0.1-0.6,0.2-0.9,0.2c-0.6,0-1.1-0.2-1.5-0.5
		s-0.5-0.9-0.5-1.6v-2.7h0.9v2.6c0,0.5,0.1,0.8,0.3,1c0.2,0.2,0.5,0.4,1,0.4c0.5,0,0.8-0.1,1.1-0.4c0.3-0.3,0.4-0.7,0.4-1.2v-2.5
		H571.1z"/>
	<path class="st4" d="M572.8,185.2h0.9v6.7h-0.9V185.2z"/>
	<path class="st4" d="M579.3,187.6c0.4,0.4,0.5,0.9,0.5,1.5v2.7H579v-2.6c0-0.5-0.1-0.8-0.3-1c-0.2-0.2-0.5-0.4-1-0.4
		c-0.5,0-0.8,0.1-1.1,0.4c-0.3,0.3-0.4,0.7-0.4,1.2v2.5h-0.9v-4.8h0.8v0.7c0.2-0.2,0.4-0.4,0.7-0.6c0.3-0.1,0.6-0.2,1-0.2
		C578.4,187.1,578.9,187.3,579.3,187.6z"/>
	<path class="st4" d="M585.7,189.8h-3.9c0.1,0.4,0.2,0.8,0.6,1c0.3,0.3,0.7,0.4,1.2,0.4c0.6,0,1-0.2,1.4-0.6l0.5,0.6
		c-0.2,0.3-0.5,0.4-0.8,0.6c-0.3,0.1-0.7,0.2-1.1,0.2c-0.5,0-1-0.1-1.3-0.3c-0.4-0.2-0.7-0.5-0.9-0.9c-0.2-0.4-0.3-0.8-0.3-1.3
		c0-0.5,0.1-0.9,0.3-1.3c0.2-0.4,0.5-0.7,0.9-0.9c0.4-0.2,0.8-0.3,1.2-0.3s0.9,0.1,1.2,0.3c0.4,0.2,0.6,0.5,0.8,0.9
		c0.2,0.4,0.3,0.8,0.3,1.3C585.8,189.6,585.8,189.7,585.7,189.8z M582.4,188.2c-0.3,0.3-0.4,0.6-0.5,1h3.1c0-0.4-0.2-0.7-0.5-1
		c-0.3-0.3-0.6-0.4-1-0.4S582.6,187.9,582.4,188.2z"/>
	<path class="st4" d="M587.2,191.8c-0.4-0.1-0.6-0.2-0.8-0.4l0.4-0.7c0.2,0.1,0.5,0.3,0.8,0.4c0.3,0.1,0.6,0.1,0.9,0.1
		c0.8,0,1.1-0.2,1.1-0.6c0-0.1-0.1-0.3-0.2-0.3c-0.1-0.1-0.2-0.1-0.4-0.2c-0.2,0-0.4-0.1-0.7-0.1c-0.4-0.1-0.7-0.1-0.9-0.2
		c-0.2-0.1-0.5-0.2-0.6-0.4s-0.3-0.4-0.3-0.8c0-0.4,0.2-0.8,0.5-1c0.4-0.3,0.8-0.4,1.4-0.4c0.3,0,0.6,0,1,0.1
		c0.3,0.1,0.6,0.2,0.8,0.3l-0.4,0.7c-0.4-0.3-0.8-0.4-1.4-0.4c-0.4,0-0.6,0.1-0.8,0.2c-0.2,0.1-0.3,0.3-0.3,0.5
		c0,0.2,0.1,0.3,0.2,0.4c0.1,0.1,0.2,0.2,0.4,0.2c0.2,0,0.4,0.1,0.7,0.1c0.4,0.1,0.7,0.1,0.9,0.2c0.2,0.1,0.4,0.2,0.6,0.4
		c0.2,0.2,0.3,0.4,0.3,0.8c0,0.4-0.2,0.8-0.6,1c-0.4,0.3-0.9,0.4-1.5,0.4C587.9,191.9,587.6,191.9,587.2,191.8z"/>
	<path class="st4" d="M591.7,191.8c-0.4-0.1-0.6-0.2-0.8-0.4l0.4-0.7c0.2,0.1,0.5,0.3,0.8,0.4c0.3,0.1,0.6,0.1,0.9,0.1
		c0.8,0,1.1-0.2,1.1-0.6c0-0.1-0.1-0.3-0.2-0.3c-0.1-0.1-0.2-0.1-0.4-0.2c-0.2,0-0.4-0.1-0.7-0.1c-0.4-0.1-0.7-0.1-0.9-0.2
		c-0.2-0.1-0.5-0.2-0.6-0.4s-0.3-0.4-0.3-0.8c0-0.4,0.2-0.8,0.5-1c0.4-0.3,0.8-0.4,1.4-0.4c0.3,0,0.6,0,1,0.1
		c0.3,0.1,0.6,0.2,0.8,0.3l-0.4,0.7c-0.4-0.3-0.8-0.4-1.4-0.4c-0.4,0-0.6,0.1-0.8,0.2s-0.3,0.3-0.3,0.5c0,0.2,0.1,0.3,0.2,0.4
		c0.1,0.1,0.2,0.2,0.4,0.2s0.4,0.1,0.7,0.1c0.4,0.1,0.7,0.1,0.9,0.2c0.2,0.1,0.4,0.2,0.6,0.4c0.2,0.2,0.3,0.4,0.3,0.8
		c0,0.4-0.2,0.8-0.6,1c-0.4,0.3-0.9,0.4-1.5,0.4C592.4,191.9,592.1,191.9,591.7,191.8z"/>
	<path class="st4" d="M479,196v6.7h-0.8v-0.8c-0.2,0.3-0.4,0.5-0.7,0.6c-0.3,0.1-0.6,0.2-1,0.2c-0.5,0-0.9-0.1-1.2-0.3
		c-0.4-0.2-0.7-0.5-0.9-0.9s-0.3-0.8-0.3-1.3c0-0.5,0.1-0.9,0.3-1.3c0.2-0.4,0.5-0.7,0.9-0.9c0.4-0.2,0.8-0.3,1.2-0.3
		c0.3,0,0.7,0.1,0.9,0.2c0.3,0.1,0.5,0.3,0.7,0.6V196H479z M477.4,201.8c0.2-0.1,0.4-0.3,0.6-0.6c0.1-0.3,0.2-0.5,0.2-0.9
		s-0.1-0.6-0.2-0.9c-0.1-0.3-0.3-0.5-0.6-0.6c-0.2-0.1-0.5-0.2-0.8-0.2c-0.3,0-0.6,0.1-0.8,0.2c-0.2,0.1-0.4,0.3-0.6,0.6
		c-0.1,0.3-0.2,0.5-0.2,0.9s0.1,0.6,0.2,0.9c0.1,0.3,0.3,0.5,0.6,0.6s0.5,0.2,0.8,0.2C476.9,202,477.1,201.9,477.4,201.8z"/>
	<path class="st4" d="M482.2,198.1c0.3-0.1,0.7-0.2,1.1-0.2v0.8c0,0-0.1,0-0.2,0c-0.5,0-0.8,0.1-1.1,0.4c-0.3,0.3-0.4,0.7-0.4,1.2
		v2.4h-0.9v-4.8h0.8v0.8C481.6,198.4,481.9,198.2,482.2,198.1z"/>
	<path class="st4" d="M484.3,196.8c-0.1-0.1-0.2-0.2-0.2-0.4c0-0.2,0.1-0.3,0.2-0.4s0.3-0.2,0.4-0.2s0.3,0.1,0.4,0.2
		c0.1,0.1,0.2,0.2,0.2,0.4c0,0.2-0.1,0.3-0.2,0.4c-0.1,0.1-0.2,0.2-0.4,0.2S484.4,196.9,484.3,196.8z M484.3,197.9h0.9v4.8h-0.9
		V197.9z"/>
	<path class="st4" d="M491,197.9l-2.1,4.8H488l-2.1-4.8h0.9l1.6,3.8l1.7-3.8H491z"/>
	<path class="st4" d="M496,200.6h-3.9c0.1,0.4,0.2,0.8,0.6,1c0.3,0.3,0.7,0.4,1.2,0.4c0.6,0,1-0.2,1.4-0.6l0.5,0.6
		c-0.2,0.3-0.5,0.4-0.8,0.6s-0.7,0.2-1.1,0.2c-0.5,0-1-0.1-1.3-0.3c-0.4-0.2-0.7-0.5-0.9-0.9c-0.2-0.4-0.3-0.8-0.3-1.3
		c0-0.5,0.1-0.9,0.3-1.3c0.2-0.4,0.5-0.7,0.9-0.9c0.4-0.2,0.8-0.3,1.2-0.3s0.9,0.1,1.2,0.3c0.4,0.2,0.6,0.5,0.8,0.9
		c0.2,0.4,0.3,0.8,0.3,1.3C496,200.4,496,200.5,496,200.6z M492.6,199c-0.3,0.3-0.4,0.6-0.5,1h3.1c0-0.4-0.2-0.7-0.5-1
		c-0.3-0.3-0.6-0.4-1-0.4S492.9,198.7,492.6,199z"/>
	<path class="st4" d="M503.4,198.2c0.4,0.2,0.7,0.5,0.9,0.9c0.2,0.4,0.3,0.8,0.3,1.3c0,0.5-0.1,0.9-0.3,1.3s-0.5,0.7-0.9,0.9
		c-0.4,0.2-0.8,0.3-1.2,0.3c-0.4,0-0.7-0.1-1-0.2c-0.3-0.1-0.5-0.3-0.7-0.6v0.8h-0.8V196h0.9v2.6c0.2-0.3,0.4-0.4,0.7-0.6
		c0.3-0.1,0.6-0.2,0.9-0.2C502.6,197.9,503,198,503.4,198.2z M502.9,201.8c0.2-0.1,0.4-0.3,0.6-0.6c0.1-0.3,0.2-0.5,0.2-0.9
		s-0.1-0.6-0.2-0.9c-0.1-0.3-0.3-0.5-0.6-0.6c-0.2-0.1-0.5-0.2-0.8-0.2c-0.3,0-0.6,0.1-0.8,0.2c-0.2,0.1-0.4,0.3-0.6,0.6
		c-0.1,0.3-0.2,0.5-0.2,0.9s0.1,0.6,0.2,0.9c0.1,0.3,0.3,0.5,0.6,0.6s0.5,0.2,0.8,0.2C502.4,202,502.7,201.9,502.9,201.8z"/>
	<path class="st4" d="M507.3,198.1c0.3-0.1,0.7-0.2,1.1-0.2v0.8c0,0-0.1,0-0.2,0c-0.5,0-0.8,0.1-1.1,0.4c-0.3,0.3-0.4,0.7-0.4,1.2
		v2.4h-0.9v-4.8h0.8v0.8C506.7,198.4,507,198.2,507.3,198.1z"/>
	<path class="st4" d="M512.6,198.4c0.4,0.3,0.5,0.8,0.5,1.4v2.9h-0.8v-0.6c-0.1,0.2-0.3,0.4-0.6,0.5c-0.3,0.1-0.6,0.2-1,0.2
		c-0.5,0-1-0.1-1.3-0.4s-0.5-0.6-0.5-1s0.2-0.8,0.5-1s0.8-0.4,1.5-0.4h1.4v-0.2c0-0.4-0.1-0.7-0.3-0.9c-0.2-0.2-0.5-0.3-1-0.3
		c-0.3,0-0.6,0-0.8,0.1c-0.3,0.1-0.5,0.2-0.7,0.4l-0.4-0.6c0.2-0.2,0.5-0.3,0.9-0.5c0.3-0.1,0.7-0.2,1.1-0.2
		C511.8,197.9,512.3,198,512.6,198.4z M511.8,201.9c0.2-0.1,0.4-0.4,0.5-0.6v-0.7H511c-0.7,0-1.1,0.2-1.1,0.7c0,0.2,0.1,0.4,0.3,0.6
		c0.2,0.1,0.4,0.2,0.8,0.2S511.5,202,511.8,201.9z"/>
	<path class="st4" d="M518.7,198.4c0.4,0.4,0.5,0.9,0.5,1.5v2.7h-0.9V200c0-0.5-0.1-0.8-0.3-1c-0.2-0.2-0.5-0.4-1-0.4
		c-0.5,0-0.8,0.1-1.1,0.4c-0.3,0.3-0.4,0.7-0.4,1.2v2.5h-0.9v-4.8h0.8v0.7c0.2-0.2,0.4-0.4,0.7-0.6c0.3-0.1,0.6-0.2,1-0.2
		C517.9,197.9,518.4,198.1,518.7,198.4z"/>
	<path class="st4" d="M525.4,196v6.7h-0.8v-0.8c-0.2,0.3-0.4,0.5-0.7,0.6c-0.3,0.1-0.6,0.2-1,0.2c-0.5,0-0.9-0.1-1.2-0.3
		c-0.4-0.2-0.7-0.5-0.9-0.9s-0.3-0.8-0.3-1.3c0-0.5,0.1-0.9,0.3-1.3c0.2-0.4,0.5-0.7,0.9-0.9c0.4-0.2,0.8-0.3,1.2-0.3
		c0.3,0,0.7,0.1,0.9,0.2c0.3,0.1,0.5,0.3,0.7,0.6V196H525.4z M523.8,201.8c0.2-0.1,0.4-0.3,0.6-0.6c0.1-0.3,0.2-0.5,0.2-0.9
		s-0.1-0.6-0.2-0.9c-0.1-0.3-0.3-0.5-0.6-0.6c-0.2-0.1-0.5-0.2-0.8-0.2c-0.3,0-0.6,0.1-0.8,0.2c-0.2,0.1-0.4,0.3-0.6,0.6
		c-0.1,0.3-0.2,0.5-0.2,0.9s0.1,0.6,0.2,0.9c0.1,0.3,0.3,0.5,0.6,0.6s0.5,0.2,0.8,0.2C523.3,202,523.5,201.9,523.8,201.8z"/>
	<path class="st4" d="M529.7,202.6c-0.4-0.1-0.6-0.2-0.8-0.4l0.4-0.7c0.2,0.1,0.5,0.3,0.8,0.4c0.3,0.1,0.6,0.1,0.9,0.1
		c0.8,0,1.1-0.2,1.1-0.6c0-0.1-0.1-0.3-0.2-0.3c-0.1-0.1-0.2-0.1-0.4-0.2s-0.4-0.1-0.7-0.1c-0.4-0.1-0.7-0.1-0.9-0.2
		c-0.2-0.1-0.5-0.2-0.6-0.4c-0.2-0.2-0.3-0.4-0.3-0.8c0-0.4,0.2-0.8,0.5-1c0.4-0.3,0.8-0.4,1.4-0.4c0.3,0,0.6,0,1,0.1
		c0.3,0.1,0.6,0.2,0.8,0.3l-0.4,0.7c-0.4-0.3-0.8-0.4-1.4-0.4c-0.4,0-0.6,0.1-0.8,0.2c-0.2,0.1-0.3,0.3-0.3,0.5
		c0,0.2,0.1,0.3,0.2,0.4c0.1,0.1,0.2,0.2,0.4,0.2c0.2,0,0.4,0.1,0.7,0.1c0.4,0.1,0.7,0.1,0.9,0.2s0.4,0.2,0.6,0.4
		c0.2,0.2,0.3,0.4,0.3,0.8c0,0.4-0.2,0.8-0.6,1c-0.4,0.3-0.9,0.4-1.5,0.4C530.4,202.7,530.1,202.7,529.7,202.6z"/>
	<path class="st4" d="M538.4,197.9v4.8h-0.8V202c-0.2,0.2-0.4,0.4-0.7,0.6c-0.3,0.1-0.6,0.2-0.9,0.2c-0.6,0-1.1-0.2-1.5-0.5
		c-0.4-0.4-0.5-0.9-0.5-1.6v-2.7h0.9v2.6c0,0.5,0.1,0.8,0.3,1s0.5,0.4,1,0.4c0.5,0,0.8-0.1,1.1-0.4c0.3-0.3,0.4-0.7,0.4-1.2v-2.5
		H538.4z"/>
	<path class="st4" d="M540.9,202.4c-0.4-0.2-0.7-0.5-0.9-0.9c-0.2-0.4-0.3-0.8-0.3-1.3c0-0.5,0.1-0.9,0.3-1.3
		c0.2-0.4,0.5-0.7,0.9-0.9c0.4-0.2,0.8-0.3,1.3-0.3c0.4,0,0.8,0.1,1.2,0.3c0.3,0.2,0.6,0.4,0.8,0.8l-0.7,0.4
		c-0.1-0.2-0.3-0.4-0.6-0.5c-0.2-0.1-0.5-0.2-0.7-0.2c-0.3,0-0.6,0.1-0.8,0.2c-0.2,0.1-0.4,0.3-0.6,0.6c-0.1,0.3-0.2,0.5-0.2,0.9
		c0,0.3,0.1,0.6,0.2,0.9c0.1,0.3,0.3,0.5,0.6,0.6c0.2,0.1,0.5,0.2,0.8,0.2c0.3,0,0.5-0.1,0.7-0.2c0.2-0.1,0.4-0.3,0.6-0.5l0.7,0.4
		c-0.2,0.3-0.4,0.6-0.8,0.8c-0.3,0.2-0.7,0.3-1.2,0.3C541.7,202.7,541.2,202.6,540.9,202.4z"/>
	<path class="st4" d="M545.9,202.4c-0.4-0.2-0.7-0.5-0.9-0.9c-0.2-0.4-0.3-0.8-0.3-1.3c0-0.5,0.1-0.9,0.3-1.3
		c0.2-0.4,0.5-0.7,0.9-0.9s0.8-0.3,1.3-0.3c0.4,0,0.8,0.1,1.2,0.3c0.3,0.2,0.6,0.4,0.8,0.8l-0.7,0.4c-0.2-0.2-0.3-0.4-0.6-0.5
		c-0.2-0.1-0.5-0.2-0.7-0.2c-0.3,0-0.6,0.1-0.8,0.2c-0.2,0.1-0.4,0.3-0.6,0.6c-0.1,0.3-0.2,0.5-0.2,0.9c0,0.3,0.1,0.6,0.2,0.9
		c0.1,0.3,0.3,0.5,0.6,0.6c0.2,0.1,0.5,0.2,0.8,0.2c0.3,0,0.5-0.1,0.7-0.2c0.2-0.1,0.4-0.3,0.6-0.5l0.7,0.4
		c-0.2,0.3-0.4,0.6-0.8,0.8s-0.7,0.3-1.2,0.3C546.7,202.7,546.3,202.6,545.9,202.4z"/>
	<path class="st4" d="M554.5,200.6h-3.9c0.1,0.4,0.2,0.8,0.6,1c0.3,0.3,0.7,0.4,1.2,0.4c0.6,0,1-0.2,1.4-0.6l0.5,0.6
		c-0.2,0.3-0.5,0.4-0.8,0.6c-0.3,0.1-0.7,0.2-1.1,0.2c-0.5,0-1-0.1-1.3-0.3c-0.4-0.2-0.7-0.5-0.9-0.9s-0.3-0.8-0.3-1.3
		c0-0.5,0.1-0.9,0.3-1.3c0.2-0.4,0.5-0.7,0.9-0.9s0.8-0.3,1.2-0.3s0.9,0.1,1.2,0.3s0.6,0.5,0.8,0.9c0.2,0.4,0.3,0.8,0.3,1.3
		C554.5,200.4,554.5,200.5,554.5,200.6z M551.1,199c-0.3,0.3-0.4,0.6-0.5,1h3.1c0-0.4-0.2-0.7-0.5-1c-0.3-0.3-0.6-0.4-1-0.4
		S551.4,198.7,551.1,199z"/>
	<path class="st4" d="M556,202.6c-0.4-0.1-0.6-0.2-0.8-0.4l0.4-0.7c0.2,0.1,0.5,0.3,0.8,0.4c0.3,0.1,0.6,0.1,0.9,0.1
		c0.8,0,1.1-0.2,1.1-0.6c0-0.1-0.1-0.3-0.2-0.3c-0.1-0.1-0.2-0.1-0.4-0.2s-0.4-0.1-0.7-0.1c-0.4-0.1-0.7-0.1-0.9-0.2
		c-0.2-0.1-0.5-0.2-0.6-0.4c-0.2-0.2-0.3-0.4-0.3-0.8c0-0.4,0.2-0.8,0.5-1c0.4-0.3,0.8-0.4,1.4-0.4c0.3,0,0.6,0,1,0.1
		c0.3,0.1,0.6,0.2,0.8,0.3l-0.4,0.7c-0.4-0.3-0.8-0.4-1.4-0.4c-0.4,0-0.6,0.1-0.8,0.2c-0.2,0.1-0.3,0.3-0.3,0.5
		c0,0.2,0.1,0.3,0.2,0.4c0.1,0.1,0.2,0.2,0.4,0.2c0.2,0,0.4,0.1,0.7,0.1c0.4,0.1,0.7,0.1,0.9,0.2s0.4,0.2,0.6,0.4
		c0.2,0.2,0.3,0.4,0.3,0.8c0,0.4-0.2,0.8-0.6,1c-0.4,0.3-0.9,0.4-1.5,0.4C556.7,202.7,556.3,202.7,556,202.6z"/>
	<path class="st4" d="M560.5,202.6c-0.4-0.1-0.6-0.2-0.8-0.4l0.4-0.7c0.2,0.1,0.5,0.3,0.8,0.4c0.3,0.1,0.6,0.1,0.9,0.1
		c0.8,0,1.1-0.2,1.1-0.6c0-0.1-0.1-0.3-0.2-0.3c-0.1-0.1-0.2-0.1-0.4-0.2s-0.4-0.1-0.7-0.1c-0.4-0.1-0.7-0.1-0.9-0.2
		c-0.2-0.1-0.5-0.2-0.6-0.4c-0.2-0.2-0.3-0.4-0.3-0.8c0-0.4,0.2-0.8,0.5-1c0.4-0.3,0.8-0.4,1.4-0.4c0.3,0,0.6,0,1,0.1
		c0.3,0.1,0.6,0.2,0.8,0.3l-0.4,0.7c-0.4-0.3-0.8-0.4-1.4-0.4c-0.4,0-0.6,0.1-0.8,0.2c-0.2,0.1-0.3,0.3-0.3,0.5
		c0,0.2,0.1,0.3,0.2,0.4c0.1,0.1,0.2,0.2,0.4,0.2c0.2,0,0.4,0.1,0.7,0.1c0.4,0.1,0.7,0.1,0.9,0.2s0.4,0.2,0.6,0.4
		c0.2,0.2,0.3,0.4,0.3,0.8c0,0.4-0.2,0.8-0.6,1c-0.4,0.3-0.9,0.4-1.5,0.4C561.2,202.7,560.8,202.7,560.5,202.6z"/>
	<path class="st4" d="M565.9,200.1c0.1-0.2,0.2-0.3,0.3-0.5c0.1-0.1,0.3-0.3,0.5-0.5c0.2-0.2,0.4-0.4,0.5-0.5s0.2-0.3,0.2-0.6
		c0-0.3-0.1-0.5-0.3-0.7c-0.2-0.2-0.5-0.3-0.9-0.3c-0.7,0-1.2,0.2-1.6,0.7l-0.7-0.5c0.3-0.3,0.6-0.6,1-0.7c0.4-0.2,0.8-0.3,1.4-0.3
		c0.7,0,1.2,0.1,1.6,0.4c0.4,0.3,0.6,0.7,0.6,1.2c0,0.2,0,0.5-0.1,0.7s-0.2,0.3-0.3,0.5s-0.3,0.3-0.5,0.5c-0.2,0.2-0.4,0.4-0.5,0.6
		c-0.1,0.2-0.2,0.4-0.2,0.6h-0.9C565.8,200.5,565.9,200.3,565.9,200.1z M565.9,202.6c-0.1-0.1-0.2-0.2-0.2-0.4s0.1-0.3,0.2-0.4
		c0.1-0.1,0.3-0.2,0.4-0.2s0.3,0.1,0.4,0.2c0.1,0.1,0.2,0.2,0.2,0.4s-0.1,0.3-0.2,0.4c-0.1,0.1-0.2,0.2-0.4,0.2
		C566.1,202.7,566,202.7,565.9,202.6z"/>
</g>
<g>
	<path class="st4" d="M341.9,337.6v6.3H341v-2.8h-3.6v2.8h-0.9v-6.3h0.9v2.7h3.6v-2.7H341.9z"/>
	<path class="st4" d="M344.4,343.7c-0.4-0.2-0.7-0.5-0.9-0.9s-0.3-0.8-0.3-1.3c0-0.5,0.1-0.9,0.3-1.3s0.5-0.7,0.9-0.9
		s0.8-0.3,1.3-0.3c0.5,0,0.9,0.1,1.3,0.3c0.4,0.2,0.7,0.5,0.9,0.9s0.3,0.8,0.3,1.3c0,0.5-0.1,0.9-0.3,1.3s-0.5,0.7-0.9,0.9
		c-0.4,0.2-0.8,0.3-1.3,0.3C345.2,344,344.8,343.9,344.4,343.7z M346.5,343c0.2-0.1,0.4-0.3,0.6-0.6s0.2-0.5,0.2-0.9
		c0-0.3-0.1-0.6-0.2-0.9s-0.3-0.5-0.6-0.6c-0.2-0.1-0.5-0.2-0.8-0.2c-0.3,0-0.6,0.1-0.8,0.2c-0.2,0.1-0.4,0.3-0.6,0.6
		c-0.1,0.3-0.2,0.5-0.2,0.9c0,0.3,0.1,0.6,0.2,0.9c0.1,0.3,0.3,0.5,0.6,0.6c0.2,0.1,0.5,0.2,0.8,0.2
		C346,343.2,346.3,343.2,346.5,343z"/>
	<path class="st4" d="M356.4,339.2l-1.8,4.8h-0.8l-1.4-3.6l-1.4,3.6h-0.8l-1.8-4.8h0.8l1.4,3.8l1.4-3.8h0.7l1.4,3.8l1.4-3.8H356.4z"
		/>
	<path class="st4" d="M362.4,343.7c-0.1,0.1-0.3,0.2-0.5,0.2c-0.2,0.1-0.4,0.1-0.6,0.1c-0.5,0-0.9-0.1-1.1-0.4s-0.4-0.6-0.4-1.1
		v-2.6H359v-0.7h0.8v-1h0.9v1h1.4v0.7h-1.4v2.6c0,0.3,0.1,0.5,0.2,0.6c0.1,0.1,0.3,0.2,0.6,0.2c0.3,0,0.5-0.1,0.7-0.2L362.4,343.7z"
		/>
	<path class="st4" d="M364,343.7c-0.4-0.2-0.7-0.5-0.9-0.9c-0.2-0.4-0.3-0.8-0.3-1.3c0-0.5,0.1-0.9,0.3-1.3c0.2-0.4,0.5-0.7,0.9-0.9
		s0.8-0.3,1.3-0.3s0.9,0.1,1.3,0.3s0.7,0.5,0.9,0.9s0.3,0.8,0.3,1.3c0,0.5-0.1,0.9-0.3,1.3s-0.5,0.7-0.9,0.9
		c-0.4,0.2-0.8,0.3-1.3,0.3S364.4,343.9,364,343.7z M366.1,343c0.2-0.1,0.4-0.3,0.6-0.6c0.1-0.3,0.2-0.5,0.2-0.9
		c0-0.3-0.1-0.6-0.2-0.9c-0.1-0.3-0.3-0.5-0.6-0.6c-0.2-0.1-0.5-0.2-0.8-0.2s-0.6,0.1-0.8,0.2c-0.2,0.1-0.4,0.3-0.6,0.6
		c-0.1,0.3-0.2,0.5-0.2,0.9c0,0.3,0.1,0.6,0.2,0.9c0.1,0.3,0.3,0.5,0.6,0.6c0.2,0.1,0.5,0.2,0.8,0.2S365.9,343.2,366.1,343z"/>
	<path class="st4" d="M375.2,339.4c0.4,0.2,0.7,0.5,0.9,0.9s0.3,0.8,0.3,1.3c0,0.5-0.1,0.9-0.3,1.3c-0.2,0.4-0.5,0.7-0.9,0.9
		c-0.4,0.2-0.8,0.3-1.2,0.3c-0.4,0-0.7-0.1-1-0.2s-0.5-0.3-0.7-0.6v0.8h-0.8v-6.7h0.9v2.6c0.2-0.3,0.4-0.4,0.7-0.6
		c0.3-0.1,0.6-0.2,0.9-0.2C374.4,339.1,374.8,339.2,375.2,339.4z M374.7,343c0.2-0.1,0.4-0.3,0.6-0.6s0.2-0.5,0.2-0.9
		c0-0.3-0.1-0.6-0.2-0.9s-0.3-0.5-0.6-0.6c-0.2-0.1-0.5-0.2-0.8-0.2c-0.3,0-0.6,0.1-0.8,0.2c-0.2,0.1-0.4,0.3-0.6,0.6
		c-0.1,0.3-0.2,0.5-0.2,0.9c0,0.3,0.1,0.6,0.2,0.9c0.1,0.3,0.3,0.5,0.6,0.6c0.2,0.1,0.5,0.2,0.8,0.2
		C374.2,343.2,374.5,343.2,374.7,343z"/>
	<path class="st4" d="M381.9,341.8H378c0.1,0.4,0.2,0.8,0.6,1c0.3,0.3,0.7,0.4,1.2,0.4c0.6,0,1-0.2,1.4-0.6l0.5,0.6
		c-0.2,0.3-0.5,0.4-0.8,0.6c-0.3,0.1-0.7,0.2-1.1,0.2c-0.5,0-1-0.1-1.3-0.3c-0.4-0.2-0.7-0.5-0.9-0.9s-0.3-0.8-0.3-1.3
		c0-0.5,0.1-0.9,0.3-1.3c0.2-0.4,0.5-0.7,0.9-0.9s0.8-0.3,1.2-0.3s0.9,0.1,1.2,0.3s0.6,0.5,0.8,0.9c0.2,0.4,0.3,0.8,0.3,1.3
		C381.9,341.6,381.9,341.7,381.9,341.8z M378.5,340.2c-0.3,0.3-0.4,0.6-0.5,1h3.1c0-0.4-0.2-0.7-0.5-1c-0.3-0.3-0.6-0.4-1-0.4
		S378.8,340,378.5,340.2z"/>
	<path class="st4" d="M383.3,343.8c-0.4-0.1-0.6-0.2-0.8-0.4l0.4-0.7c0.2,0.2,0.5,0.3,0.8,0.4s0.6,0.1,0.9,0.1
		c0.8,0,1.1-0.2,1.1-0.6c0-0.1-0.1-0.3-0.2-0.3c-0.1-0.1-0.2-0.1-0.4-0.2c-0.2,0-0.4-0.1-0.7-0.1c-0.4-0.1-0.7-0.1-0.9-0.2
		c-0.2-0.1-0.5-0.2-0.6-0.4c-0.2-0.2-0.3-0.4-0.3-0.8c0-0.4,0.2-0.8,0.5-1c0.4-0.3,0.8-0.4,1.4-0.4c0.3,0,0.6,0,1,0.1
		c0.3,0.1,0.6,0.2,0.8,0.3l-0.4,0.7c-0.4-0.3-0.8-0.4-1.4-0.4c-0.4,0-0.6,0.1-0.8,0.2s-0.3,0.3-0.3,0.5c0,0.2,0.1,0.3,0.2,0.4
		c0.1,0.1,0.2,0.2,0.4,0.2s0.4,0.1,0.7,0.1c0.4,0.1,0.7,0.1,0.9,0.2c0.2,0.1,0.4,0.2,0.6,0.4s0.3,0.4,0.3,0.8c0,0.4-0.2,0.8-0.6,1
		c-0.4,0.3-0.9,0.4-1.5,0.4C384,344,383.7,343.9,383.3,343.8z"/>
	<path class="st4" d="M390.3,343.7c-0.1,0.1-0.3,0.2-0.5,0.2c-0.2,0.1-0.4,0.1-0.6,0.1c-0.5,0-0.9-0.1-1.1-0.4s-0.4-0.6-0.4-1.1
		v-2.6h-0.8v-0.7h0.8v-1h0.9v1h1.4v0.7h-1.4v2.6c0,0.3,0.1,0.5,0.2,0.6c0.1,0.1,0.3,0.2,0.6,0.2c0.3,0,0.5-0.1,0.7-0.2L390.3,343.7z
		"/>
	<path class="st4" d="M395.2,339.3c0.3-0.1,0.7-0.2,1.1-0.2v0.8c0,0-0.1,0-0.2,0c-0.5,0-0.8,0.1-1.1,0.4c-0.3,0.3-0.4,0.7-0.4,1.2
		v2.4h-0.9v-4.8h0.8v0.8C394.7,339.7,394.9,339.5,395.2,339.3z"/>
	<path class="st4" d="M401.6,341.8h-3.9c0.1,0.4,0.2,0.8,0.6,1c0.3,0.3,0.7,0.4,1.2,0.4c0.6,0,1-0.2,1.4-0.6l0.5,0.6
		c-0.2,0.3-0.5,0.4-0.8,0.6c-0.3,0.1-0.7,0.2-1.1,0.2c-0.5,0-1-0.1-1.3-0.3c-0.4-0.2-0.7-0.5-0.9-0.9c-0.2-0.4-0.3-0.8-0.3-1.3
		c0-0.5,0.1-0.9,0.3-1.3c0.2-0.4,0.5-0.7,0.9-0.9c0.4-0.2,0.8-0.3,1.2-0.3s0.9,0.1,1.2,0.3c0.4,0.2,0.6,0.5,0.8,0.9
		c0.2,0.4,0.3,0.8,0.3,1.3C401.6,341.6,401.6,341.7,401.6,341.8z M398.2,340.2c-0.3,0.3-0.4,0.6-0.5,1h3.1c0-0.4-0.2-0.7-0.5-1
		c-0.3-0.3-0.6-0.4-1-0.4S398.5,340,398.2,340.2z"/>
	<path class="st4" d="M405.9,339.6c0.4,0.3,0.5,0.8,0.5,1.4v2.9h-0.8v-0.6c-0.1,0.2-0.3,0.4-0.6,0.5c-0.3,0.1-0.6,0.2-1,0.2
		c-0.5,0-1-0.1-1.3-0.4s-0.5-0.6-0.5-1s0.2-0.8,0.5-1c0.3-0.3,0.8-0.4,1.5-0.4h1.4V341c0-0.4-0.1-0.7-0.3-0.9s-0.5-0.3-1-0.3
		c-0.3,0-0.6,0-0.8,0.1c-0.3,0.1-0.5,0.2-0.7,0.4l-0.4-0.6c0.2-0.2,0.5-0.3,0.9-0.5c0.3-0.1,0.7-0.2,1.1-0.2
		C405.1,339.1,405.6,339.3,405.9,339.6z M405.1,343.1c0.2-0.1,0.4-0.4,0.5-0.6v-0.7h-1.3c-0.7,0-1.1,0.2-1.1,0.7
		c0,0.2,0.1,0.4,0.3,0.6c0.2,0.1,0.4,0.2,0.8,0.2S404.8,343.3,405.1,343.1z"/>
	<path class="st4" d="M408.9,343.7c-0.4-0.2-0.7-0.5-0.9-0.9c-0.2-0.4-0.3-0.8-0.3-1.3c0-0.5,0.1-0.9,0.3-1.3
		c0.2-0.4,0.5-0.7,0.9-0.9c0.4-0.2,0.8-0.3,1.3-0.3c0.4,0,0.8,0.1,1.2,0.3c0.3,0.2,0.6,0.4,0.8,0.8l-0.7,0.4
		c-0.1-0.2-0.3-0.4-0.6-0.5c-0.2-0.1-0.5-0.2-0.7-0.2c-0.3,0-0.6,0.1-0.8,0.2c-0.2,0.1-0.4,0.3-0.6,0.6c-0.1,0.3-0.2,0.5-0.2,0.9
		c0,0.3,0.1,0.6,0.2,0.9c0.1,0.3,0.3,0.5,0.6,0.6s0.5,0.2,0.8,0.2c0.3,0,0.5-0.1,0.7-0.2c0.2-0.1,0.4-0.3,0.6-0.5l0.7,0.4
		c-0.2,0.3-0.4,0.6-0.8,0.8c-0.3,0.2-0.7,0.3-1.2,0.3C409.7,344,409.2,343.9,408.9,343.7z"/>
	<path class="st4" d="M417.2,339.7c0.4,0.4,0.5,0.9,0.5,1.5v2.7h-0.9v-2.6c0-0.5-0.1-0.8-0.3-1c-0.2-0.2-0.5-0.4-1-0.4
		c-0.5,0-0.8,0.1-1.1,0.4c-0.3,0.3-0.4,0.7-0.4,1.2v2.5h-0.9v-6.7h0.9v2.6c0.2-0.2,0.4-0.4,0.7-0.5s0.6-0.2,1-0.2
		C416.3,339.1,416.8,339.3,417.2,339.7z"/>
	<path class="st4" d="M340.5,350l-2.3,5.2c-0.2,0.5-0.4,0.8-0.7,1s-0.6,0.3-1,0.3c-0.2,0-0.5,0-0.7-0.1s-0.4-0.2-0.5-0.3l0.4-0.6
		c0.2,0.2,0.5,0.4,0.9,0.4c0.2,0,0.4-0.1,0.5-0.2c0.1-0.1,0.3-0.3,0.4-0.6l0.2-0.3l-2.1-4.8h0.9l1.7,3.8l1.6-3.8H340.5z"/>
	<path class="st4" d="M342,354.5c-0.4-0.2-0.7-0.5-0.9-0.9s-0.3-0.8-0.3-1.3c0-0.5,0.1-0.9,0.3-1.3s0.5-0.7,0.9-0.9s0.8-0.3,1.3-0.3
		c0.5,0,0.9,0.1,1.3,0.3c0.4,0.2,0.7,0.5,0.9,0.9s0.3,0.8,0.3,1.3c0,0.5-0.1,0.9-0.3,1.3s-0.5,0.7-0.9,0.9c-0.4,0.2-0.8,0.3-1.3,0.3
		C342.8,354.8,342.4,354.7,342,354.5z M344.1,353.8c0.2-0.1,0.4-0.3,0.6-0.6s0.2-0.5,0.2-0.9c0-0.3-0.1-0.6-0.2-0.9
		s-0.3-0.5-0.6-0.6c-0.2-0.1-0.5-0.2-0.8-0.2c-0.3,0-0.6,0.1-0.8,0.2c-0.2,0.1-0.4,0.3-0.6,0.6c-0.1,0.3-0.2,0.5-0.2,0.9
		c0,0.3,0.1,0.6,0.2,0.9c0.1,0.3,0.3,0.5,0.6,0.6c0.2,0.1,0.5,0.2,0.8,0.2C343.6,354,343.8,354,344.1,353.8z"/>
	<path class="st4" d="M351.4,350v4.8h-0.8V354c-0.2,0.2-0.4,0.4-0.7,0.6c-0.3,0.1-0.6,0.2-0.9,0.2c-0.6,0-1.1-0.2-1.5-0.5
		c-0.4-0.4-0.5-0.9-0.5-1.6V350h0.9v2.6c0,0.5,0.1,0.8,0.3,1c0.2,0.2,0.5,0.4,1,0.4c0.5,0,0.8-0.1,1.1-0.4c0.3-0.3,0.4-0.7,0.4-1.2
		V350H351.4z"/>
	<path class="st4" d="M354.5,350.1c0.3-0.1,0.7-0.2,1.1-0.2v0.8c0,0-0.1,0-0.2,0c-0.5,0-0.8,0.1-1.1,0.4c-0.3,0.3-0.4,0.7-0.4,1.2
		v2.4H353V350h0.8v0.8C354,350.5,354.2,350.3,354.5,350.1z"/>
	<path class="st4" d="M361.8,354.5c-0.1,0.1-0.3,0.2-0.5,0.2c-0.2,0.1-0.4,0.1-0.6,0.1c-0.5,0-0.9-0.1-1.1-0.4
		c-0.3-0.3-0.4-0.6-0.4-1.1v-2.6h-0.8V350h0.8v-1h0.9v1h1.4v0.7h-1.4v2.6c0,0.3,0.1,0.5,0.2,0.6c0.1,0.1,0.3,0.2,0.6,0.2
		c0.3,0,0.5-0.1,0.7-0.2L361.8,354.5z"/>
	<path class="st4" d="M366.1,350.4c0.4,0.3,0.5,0.8,0.5,1.4v2.9h-0.8v-0.6c-0.1,0.2-0.3,0.4-0.6,0.5c-0.3,0.1-0.6,0.2-0.9,0.2
		c-0.5,0-1-0.1-1.3-0.4c-0.3-0.3-0.5-0.6-0.5-1s0.2-0.8,0.5-1c0.3-0.3,0.8-0.4,1.5-0.4h1.4v-0.2c0-0.4-0.1-0.7-0.3-0.9
		c-0.2-0.2-0.5-0.3-1-0.3c-0.3,0-0.6,0-0.8,0.1c-0.3,0.1-0.5,0.2-0.7,0.4l-0.4-0.6c0.2-0.2,0.5-0.3,0.9-0.5c0.3-0.1,0.7-0.2,1.1-0.2
		C365.3,349.9,365.8,350.1,366.1,350.4z M365.3,353.9c0.2-0.1,0.4-0.4,0.5-0.6v-0.7h-1.3c-0.7,0-1.1,0.2-1.1,0.7
		c0,0.2,0.1,0.4,0.3,0.6c0.2,0.1,0.4,0.2,0.8,0.2S365,354.1,365.3,353.9z"/>
	<path class="st4" d="M369.7,350.1c0.3-0.1,0.7-0.2,1.1-0.2v0.8c0,0-0.1,0-0.2,0c-0.5,0-0.8,0.1-1.1,0.4c-0.3,0.3-0.4,0.7-0.4,1.2
		v2.4h-0.9V350h0.8v0.8C369.2,350.5,369.4,350.3,369.7,350.1z"/>
	<path class="st4" d="M376.4,350v4.1c0,0.8-0.2,1.5-0.6,1.8s-1,0.6-1.9,0.6c-0.5,0-0.9-0.1-1.3-0.2c-0.4-0.1-0.7-0.3-1-0.5l0.4-0.7
		c0.2,0.2,0.5,0.3,0.8,0.5c0.3,0.1,0.7,0.2,1,0.2c0.6,0,1-0.1,1.2-0.4c0.3-0.3,0.4-0.7,0.4-1.2v-0.4c-0.2,0.2-0.5,0.4-0.8,0.6
		s-0.6,0.2-1,0.2c-0.5,0-0.9-0.1-1.2-0.3c-0.4-0.2-0.7-0.5-0.9-0.8c-0.2-0.4-0.3-0.8-0.3-1.2c0-0.4,0.1-0.8,0.3-1.2
		c0.2-0.4,0.5-0.6,0.9-0.8c0.4-0.2,0.8-0.3,1.2-0.3c0.4,0,0.7,0.1,1,0.2c0.3,0.1,0.6,0.3,0.8,0.6V350H376.4z M374.7,353.6
		c0.2-0.1,0.4-0.3,0.6-0.6c0.1-0.2,0.2-0.5,0.2-0.8c0-0.5-0.2-0.8-0.5-1.1c-0.3-0.3-0.7-0.4-1.2-0.4c-0.5,0-0.9,0.1-1.2,0.4
		c-0.3,0.3-0.5,0.7-0.5,1.1c0,0.3,0.1,0.6,0.2,0.8c0.1,0.2,0.3,0.4,0.6,0.6s0.5,0.2,0.9,0.2C374.2,353.8,374.5,353.7,374.7,353.6z"
		/>
	<path class="st4" d="M382.3,352.6h-3.9c0.1,0.4,0.2,0.8,0.6,1c0.3,0.3,0.7,0.4,1.2,0.4c0.6,0,1-0.2,1.4-0.6l0.5,0.6
		c-0.2,0.3-0.5,0.4-0.8,0.6c-0.3,0.1-0.7,0.2-1.1,0.2c-0.5,0-1-0.1-1.3-0.3c-0.4-0.2-0.7-0.5-0.9-0.9s-0.3-0.8-0.3-1.3
		c0-0.5,0.1-0.9,0.3-1.3c0.2-0.4,0.5-0.7,0.9-0.9s0.8-0.3,1.2-0.3s0.9,0.1,1.2,0.3s0.6,0.5,0.8,0.9c0.2,0.4,0.3,0.8,0.3,1.3
		C382.3,352.4,382.3,352.5,382.3,352.6z M378.9,351c-0.3,0.3-0.4,0.6-0.5,1h3.1c0-0.4-0.2-0.7-0.5-1c-0.3-0.3-0.6-0.4-1-0.4
		S379.2,350.8,378.9,351z"/>
	<path class="st4" d="M386.2,354.5c-0.1,0.1-0.3,0.2-0.5,0.2c-0.2,0.1-0.4,0.1-0.6,0.1c-0.5,0-0.9-0.1-1.1-0.4s-0.4-0.6-0.4-1.1
		v-2.6h-0.8V350h0.8v-1h0.9v1h1.4v0.7h-1.4v2.6c0,0.3,0.1,0.5,0.2,0.6c0.1,0.1,0.3,0.2,0.6,0.2c0.3,0,0.5-0.1,0.7-0.2L386.2,354.5z"
		/>
	<path class="st4" d="M388.5,352.1c0.1-0.2,0.2-0.3,0.3-0.5s0.3-0.3,0.5-0.5c0.2-0.2,0.4-0.4,0.5-0.5c0.1-0.2,0.2-0.3,0.2-0.6
		c0-0.3-0.1-0.5-0.3-0.7c-0.2-0.2-0.5-0.3-0.9-0.3c-0.7,0-1.2,0.2-1.6,0.7l-0.7-0.5c0.3-0.3,0.6-0.6,1-0.7c0.4-0.2,0.8-0.3,1.4-0.3
		c0.7,0,1.2,0.1,1.6,0.4c0.4,0.3,0.6,0.7,0.6,1.2c0,0.2,0,0.5-0.1,0.7c-0.1,0.2-0.2,0.3-0.3,0.5c-0.1,0.1-0.3,0.3-0.5,0.5
		c-0.2,0.2-0.4,0.4-0.5,0.6s-0.2,0.4-0.2,0.6h-0.9C388.3,352.5,388.4,352.3,388.5,352.1z M388.4,354.6c-0.1-0.1-0.2-0.2-0.2-0.4
		s0.1-0.3,0.2-0.4s0.2-0.2,0.4-0.2c0.2,0,0.3,0.1,0.4,0.2c0.1,0.1,0.2,0.2,0.2,0.4s-0.1,0.3-0.2,0.4c-0.1,0.1-0.2,0.2-0.4,0.2
		C388.6,354.8,388.5,354.7,388.4,354.6z"/>
</g>
</svg>
