<?xml version="1.0" encoding="utf-8"?>
<!-- Generator: Adobe Illustrator 22.1.0, SVG Export Plug-In . SVG Version: 6.00 Build 0)  -->
<svg version="1.1" id="Layer_1" xmlns="http://www.w3.org/2000/svg" xmlns:xlink="http://www.w3.org/1999/xlink" x="0px" y="0px"
	 viewBox="0 0 600 400" style="enable-background:new 0 0 600 400;" xml:space="preserve">
<style type="text/css">
	.st0{fill:none;stroke:#FFFFFF;stroke-miterlimit:10;}
	.st1{fill:#231F20;stroke:#FFFFFF;stroke-miterlimit:10;}
	.st2{fill:none;}
	.st3{fill:#FFFFFF;}
	.st4{font-family:'Montserrat-Bold';}
	.st5{font-size:7.6896px;}
	.st6{font-family:'Rokkitt-Thin';}
	.st7{font-size:13.4567px;}
</style>
<circle class="st0" cx="289.9" cy="195" r="134"/>
<circle class="st1" cx="159.3" cy="194.6" r="41"/>
<rect x="132.9" y="214.8" class="st2" width="64.7" height="36.5"/>
<text transform="matrix(1 0 0 1 132.9438 220.5)" class="st3 st4 st5">Experience</text>
<rect x="340.8" y="28.7" class="st2" width="147.7" height="45.2"/>
<text transform="matrix(1 0 0 1 340.7598 36.4136)"><tspan x="0" y="0" class="st3 st6 st7">How do data impact your </tspan><tspan x="0" y="16.1" class="st3 st6 st7">brand &amp; business?</tspan></text>
<rect x="474.2" y="172.8" class="st2" width="121.8" height="60.3"/>
<text transform="matrix(1 0 0 1 474.1787 180.4971)"><tspan x="0" y="0" class="st3 st6 st7">How does</tspan><tspan x="0" y="16.1" class="st3 st6 st7">meaningfulness drive </tspan><tspan x="0" y="32.3" class="st3 st6 st7">brand success?</tspan></text>
<rect x="343.3" y="331.3" class="st2" width="116.8" height="45.9"/>
<text transform="matrix(1 0 0 1 343.2617 339.0566)"><tspan x="0" y="0" class="st3 st6 st7">How to best reach       </tspan><tspan x="0" y="16.1" class="st3 st6 st7">your target?</tspan></text>
<rect x="6.7" y="181.3" class="st2" width="111.6" height="45.9"/>
<text transform="matrix(1 0 0 1 6.7368 189.0117)"><tspan x="0" y="0" class="st3 st6 st7">How does content </tspan><tspan x="0" y="16.1" class="st3 st6 st7">drive experience?</tspan></text>
<g>
	<path class="st3" d="M158.1,176.1c-6.3,0-9.7,4.7-9.7,9.4c0,3,1.4,5.4,2.6,7.6c1,1.7,1.9,3.3,1.9,5l0,0.8c0,0.3,0.3,0.6,0.6,0.6
		h8.6c0.4,0,0.6-0.3,0.6-0.6l0-0.9c0-1.6,1-3.3,2.1-5.1c1.4-2.3,2.8-4.7,2.8-7.6C167.8,181,165.2,176.1,158.1,176.1z M163.8,192.2
		c-1.2,1.9-2.3,3.8-2.3,5.8l0,0.2h-7.3l0-0.2c-0.1-2-1-3.7-2.1-5.5c-1.1-2-2.4-4.3-2.4-6.9c0-4,2.9-8.1,8.4-8.1
		c6.2,0,8.4,4.2,8.4,7.9C166.5,187.8,165.1,190.1,163.8,192.2z"/>
	<path class="st3" d="M164.9,174.8c0.1,0.1,0.2,0.1,0.3,0.1c0.2,0,0.4-0.1,0.6-0.3l2.5-4.3c0.2-0.3,0.1-0.7-0.2-0.9
		c-0.3-0.2-0.7-0.1-0.9,0.2l-2.5,4.3C164.5,174.2,164.6,174.6,164.9,174.8z"/>
	<path class="st3" d="M177.2,182.7c-0.1-0.3-0.4-0.6-0.8-0.5l-4.8,0.9c-0.3,0.1-0.6,0.4-0.5,0.8c0.1,0.3,0.3,0.5,0.6,0.5
		c0,0,0.1,0,0.1,0l4.8-0.9C177,183.4,177.3,183,177.2,182.7z"/>
	<path class="st3" d="M151.4,175.3c0.1,0,0.2,0,0.3-0.1c0.3-0.2,0.4-0.6,0.2-0.9l-2.4-4.3c-0.2-0.3-0.6-0.4-0.9-0.2
		c-0.3,0.2-0.4,0.6-0.2,0.9l2.4,4.3C150.9,175.2,151.1,175.3,151.4,175.3z"/>
	<path class="st3" d="M173.1,197l-3.9-3c-0.3-0.2-0.7-0.2-0.9,0.1c-0.2,0.3-0.2,0.7,0.1,0.9l3.9,3c0.1,0.1,0.3,0.1,0.4,0.1
		c0.2,0,0.4-0.1,0.5-0.2C173.4,197.6,173.4,197.2,173.1,197z"/>
	<path class="st3" d="M147.1,194.5l-3.8,3.1c-0.3,0.2-0.3,0.6-0.1,0.9c0.1,0.2,0.3,0.2,0.5,0.2c0.1,0,0.3,0,0.4-0.1l3.8-3.1
		c0.3-0.2,0.3-0.6,0.1-0.9C147.8,194.3,147.4,194.2,147.1,194.5z"/>
	<path class="st3" d="M144.9,184.8c0.3,0,0.6-0.2,0.6-0.5c0.1-0.3-0.2-0.7-0.5-0.7l-4.9-0.8c-0.3-0.1-0.7,0.2-0.7,0.5
		c-0.1,0.3,0.2,0.7,0.5,0.7L144.9,184.8C144.8,184.8,144.8,184.8,144.9,184.8z"/>
	<path class="st3" d="M155.6,179.8c-1.5,0.6-3,2.4-3.5,4.4c-0.5,2.2,0.1,4.3,1.6,6c0.1,0.1,0.3,0.2,0.5,0.2c0.2,0,0.3-0.1,0.4-0.2
		c0.3-0.2,0.3-0.6,0-0.9c-1.6-1.8-1.6-3.6-1.3-4.8c0.4-1.8,1.7-3.1,2.6-3.5c0.3-0.1,0.5-0.5,0.4-0.8
		C156.3,179.9,155.9,179.7,155.6,179.8z"/>
	<path class="st3" d="M162,200.7h-8.2c-0.4,0-0.6,0.3-0.6,0.6s0.3,0.6,0.6,0.6h8.2c0.4,0,0.6-0.3,0.6-0.6S162.3,200.7,162,200.7z"/>
	<path class="st3" d="M162,203h-8.2c-0.4,0-0.6,0.3-0.6,0.6c0,0.4,0.3,0.6,0.6,0.6h8.2c0.4,0,0.6-0.3,0.6-0.6
		C162.6,203.2,162.3,203,162,203z"/>
	<path class="st3" d="M162,205.2h-8.2c-0.4,0-0.6,0.3-0.6,0.6c0,0.4,0.3,0.6,0.6,0.6h8.2c0.4,0,0.6-0.3,0.6-0.6
		C162.6,205.5,162.3,205.2,162,205.2z"/>
	<path class="st3" d="M160,207.3h-4.8c-0.4,0-0.6,0.3-0.6,0.6c0,0.4,0.3,0.6,0.6,0.6h4.8c0.4,0,0.6-0.3,0.6-0.6
		C160.7,207.6,160.4,207.3,160,207.3z"/>
</g>
<circle class="st1" cx="419" cy="194.6" r="41"/>
<rect x="386.9" y="214.8" class="st2" width="64.7" height="36.5"/>
<text transform="matrix(1 0 0 1 404.2773 220.5)" class="st3 st4 st5">Brand</text>
<circle class="st1" cx="289.8" cy="60.9" r="41"/>
<rect x="257.6" y="83.7" class="st2" width="64.7" height="32.3"/>
<text transform="matrix(1 0 0 1 278.5122 89.3931)" class="st3 st4 st5">Data</text>
<circle class="st1" cx="289.8" cy="321.1" r="41"/>
<rect x="257.6" y="343.9" class="st2" width="64.7" height="32.3"/>
<text transform="matrix(1 0 0 1 264.752 349.5586)" class="st3 st4 st5">Activation</text>
<g>
	<g>
		<path class="st3" d="M282.4,321.2l-0.3,0c-0.4,0-0.8-0.1-1.2-0.2h0c-0.4-0.1-0.8-0.2-1.2-0.3l-0.3-0.1l-0.5-3.3
			c-0.6-0.3-1.1-0.6-1.6-1l-3.2,0.8l-0.2-0.2c-0.5-0.6-1-1.3-1.4-2.1l-0.1-0.3l2-2.7c-0.2-0.6-0.3-1.2-0.4-1.9l-2.9-1.7l0-0.3
			c0-0.4,0.1-0.8,0.2-1.2c0.1-0.4,0.2-0.8,0.3-1.2l0.1-0.3l3.3-0.5c0.3-0.6,0.6-1.1,1-1.6l-0.8-3.2l0.2-0.2c0.6-0.5,1.3-1,2.1-1.4
			l0.3-0.1l2.7,2c0.6-0.2,1.2-0.3,1.8-0.4l1.7-2.9l0.3,0c0.4,0,0.8,0.1,1.2,0.2c0.4,0.1,0.8,0.2,1.2,0.3l0.3,0.1l0.5,3.3
			c0.6,0.3,1.1,0.6,1.6,1l3.2-0.8l0.2,0.2c0.5,0.6,1,1.3,1.4,2.1l0.1,0.3l-2,2.7c0.2,0.6,0.3,1.2,0.4,1.9l2.9,1.7l0,0.3
			c0,0.4-0.1,0.8-0.2,1.2c-0.1,0.4-0.2,0.8-0.3,1.2l-0.1,0.3l-3.3,0.5c-0.3,0.6-0.6,1.1-1,1.6l0.8,3.2l-0.2,0.2
			c-0.6,0.5-1.3,1-2.1,1.4l-0.3,0.1l-2.7-2c-0.6,0.2-1.2,0.3-1.8,0.4L282.4,321.2z M281,320.1c0.3,0.1,0.5,0.1,0.8,0.1l1.6-2.8
			l0.3,0c0.7,0,1.4-0.2,2.1-0.4l0.2-0.1l2.6,1.9c0.5-0.3,1-0.6,1.4-0.9l-0.8-3.1l0.2-0.2c0.5-0.5,0.9-1.1,1.2-1.8l0.1-0.2l3.2-0.5
			c0.1-0.3,0.1-0.5,0.2-0.8c0.1-0.3,0.1-0.6,0.1-0.8l-2.8-1.6l0-0.3c-0.1-0.7-0.2-1.4-0.4-2.1l-0.1-0.2l1.9-2.6
			c-0.3-0.5-0.6-1-0.9-1.4l-3.1,0.8l-0.2-0.2c-0.5-0.5-1.1-0.9-1.8-1.2l-0.2-0.1l-0.5-3.2c-0.3-0.1-0.5-0.1-0.8-0.2
			c-0.3-0.1-0.5-0.1-0.8-0.1l-1.6,2.8l-0.3,0c-0.7,0-1.4,0.2-2.1,0.4l-0.2,0.1l-2.6-1.9c-0.5,0.3-1,0.6-1.4,0.9l0.8,3.1l-0.2,0.2
			c-0.5,0.5-0.9,1.1-1.2,1.8l-0.1,0.2l-3.2,0.5c-0.1,0.3-0.1,0.5-0.2,0.8c-0.1,0.3-0.1,0.6-0.1,0.8l2.8,1.6l0,0.3
			c0.1,0.7,0.2,1.4,0.4,2.1l0.1,0.2l-1.9,2.6c0.3,0.5,0.6,1,0.9,1.4l3.1-0.8l0.2,0.2c0.5,0.5,1.1,0.9,1.8,1.2l0.2,0.1l0.5,3.2
			C280.5,319.9,280.8,320,281,320.1z"/>
	</g>
	<g>
		<path class="st3" d="M283.2,313.7c-0.3,0-0.6,0-0.9-0.1c-1.2-0.2-2.2-0.9-2.9-1.9c-0.7-1-0.9-2.2-0.7-3.4c0.5-2.5,2.9-4.1,5.3-3.6
			c2.5,0.5,4.1,2.9,3.6,5.3l0,0c-0.2,1.2-0.9,2.2-1.9,2.9C285,313.4,284.1,313.7,283.2,313.7z M283.2,305.5c-1.7,0-3.2,1.2-3.5,2.9
			c-0.2,0.9,0,1.9,0.6,2.7c0.5,0.8,1.4,1.3,2.3,1.5c1.9,0.4,3.8-0.9,4.2-2.8l0,0c0.4-1.9-0.9-3.8-2.8-4.2
			C283.6,305.6,283.4,305.5,283.2,305.5z"/>
	</g>
	<g>
		<path class="st3" d="M298,333.6l-0.3,0c-0.3,0-0.7-0.1-1-0.1l0,0c-0.3-0.1-0.7-0.1-1-0.2l-0.3-0.1l-0.4-2.7
			c-0.4-0.2-0.8-0.5-1.2-0.8l-2.6,0.7l-0.2-0.2c-0.4-0.5-0.8-1.1-1.2-1.7l-0.1-0.3l1.6-2.2c-0.1-0.5-0.2-1-0.3-1.5l-2.3-1.4l0-0.3
			c0-0.3,0.1-0.7,0.1-1c0.1-0.3,0.1-0.7,0.2-1l0.1-0.3l2.7-0.4c0.2-0.4,0.5-0.9,0.8-1.2l-0.7-2.6l0.2-0.2c0.5-0.4,1.1-0.8,1.7-1.1
			l0.3-0.1l2.2,1.6c0.5-0.1,0.9-0.2,1.4-0.3l1.4-2.3l0.3,0c0.3,0,0.7,0.1,1,0.1c0.3,0.1,0.7,0.1,1,0.2l0.3,0.1l0.4,2.7
			c0.4,0.2,0.8,0.5,1.2,0.8l2.6-0.7l0.2,0.2c0.4,0.5,0.8,1.1,1.2,1.7l0.1,0.3l-1.6,2.2c0.1,0.5,0.2,1,0.3,1.5l2.3,1.4l0,0.3
			c0,0.3-0.1,0.7-0.1,1c-0.1,0.3-0.1,0.7-0.2,1l-0.1,0.3l-2.7,0.4c-0.2,0.4-0.5,0.9-0.8,1.2l0.7,2.6l-0.2,0.2
			c-0.5,0.4-1.1,0.8-1.7,1.1l-0.3,0.1l-2.2-1.6c-0.5,0.1-0.9,0.2-1.4,0.3L298,333.6z M296.9,332.5c0.2,0,0.4,0.1,0.6,0.1l1.3-2.2
			l0.3,0c0.6,0,1.2-0.2,1.7-0.3l0.2-0.1l2.1,1.5c0.4-0.2,0.7-0.4,1-0.7l-0.7-2.5l0.2-0.2c0.4-0.4,0.7-0.9,1-1.5l0.1-0.2l2.6-0.4
			c0.1-0.2,0.1-0.4,0.1-0.6c0-0.2,0.1-0.4,0.1-0.6l-2.3-1.3l0-0.3c0-0.6-0.2-1.2-0.3-1.7l-0.1-0.2l1.5-2.1c-0.2-0.4-0.4-0.7-0.7-1
			l-2.5,0.7l-0.2-0.2c-0.4-0.4-0.9-0.7-1.4-0.9l-0.2-0.1l-0.4-2.6c-0.2-0.1-0.4-0.1-0.6-0.1c-0.2,0-0.4-0.1-0.6-0.1l-1.3,2.2l-0.3,0
			c-0.6,0-1.2,0.2-1.7,0.3l-0.2,0.1l-2.1-1.5c-0.4,0.2-0.7,0.4-1,0.7l0.7,2.5l-0.2,0.2c-0.4,0.4-0.7,0.9-1,1.5l-0.1,0.2l-2.6,0.4
			c-0.1,0.2-0.1,0.4-0.1,0.6s-0.1,0.4-0.1,0.6l2.3,1.3l0,0.3c0,0.6,0.2,1.2,0.3,1.7l0.1,0.2l-1.5,2.1c0.2,0.4,0.4,0.7,0.7,1l2.5-0.7
			l0.2,0.2c0.4,0.4,0.9,0.7,1.4,0.9l0.2,0.1l0.4,2.6C296.5,332.4,296.7,332.5,296.9,332.5L296.9,332.5z"/>
	</g>
	<g>
		<path class="st3" d="M298.6,327.5c-0.2,0-0.5,0-0.7-0.1c-2.1-0.4-3.4-2.4-3-4.5c0.4-2.1,2.4-3.4,4.5-3c2.1,0.4,3.4,2.4,3,4.5
			C302,326.2,300.4,327.5,298.6,327.5z M298.6,320.8c-1.3,0-2.5,0.9-2.8,2.3c-0.3,1.5,0.7,3,2.3,3.3c1.5,0.3,3-0.7,3.3-2.3
			c0.3-1.5-0.7-3-2.3-3.3C299,320.8,298.8,320.8,298.6,320.8z"/>
	</g>
</g>
<polygon class="st0" points="421.6,167.3 426.1,181 440.5,181 428.8,189.4 433.3,203.1 421.6,194.7 410,203.1 414.4,189.4 
	402.8,181 417.2,181 "/>
<g>
	<g>
		<path class="st3" d="M271.7,68.9c-2.1,0-3.9-1.7-3.9-3.9c0-2.1,1.7-3.9,3.9-3.9c2.1,0,3.9,1.7,3.9,3.9
			C275.6,67.2,273.8,68.9,271.7,68.9z M271.7,63.1c-1,0-1.9,0.9-1.9,1.9c0,1,0.9,1.9,1.9,1.9c1.1,0,1.9-0.9,1.9-1.9
			C273.6,64,272.7,63.1,271.7,63.1z"/>
	</g>
	<g>
		<path class="st3" d="M280.3,55.9c-2.1,0-3.9-1.7-3.9-3.9c0-2.1,1.7-3.9,3.9-3.9c2.1,0,3.9,1.7,3.9,3.9
			C284.2,54.1,282.5,55.9,280.3,55.9z M280.3,50.1c-1,0-1.9,0.9-1.9,1.9c0,1,0.9,1.9,1.9,1.9c1.1,0,1.9-0.9,1.9-1.9
			C282.2,50.9,281.4,50.1,280.3,50.1z"/>
	</g>
	<g>
		<path class="st3" d="M294.8,57.8c-2.1,0-3.9-1.7-3.9-3.9c0-2.1,1.7-3.9,3.9-3.9c2.1,0,3.9,1.7,3.9,3.9
			C298.7,56,297,57.8,294.8,57.8z M294.8,52c-1,0-1.9,0.9-1.9,1.9c0,1,0.9,1.9,1.9,1.9c1.1,0,1.9-0.9,1.9-1.9
			C296.7,52.8,295.9,52,294.8,52z"/>
	</g>
	<g>
		<path class="st3" d="M306,49.7c-2.1,0-3.9-1.7-3.9-3.9c0-2.1,1.7-3.9,3.9-3.9c2.1,0,3.9,1.7,3.9,3.9C309.9,48,308.2,49.7,306,49.7
			z M306,43.9c-1.1,0-1.9,0.9-1.9,1.9c0,1,0.9,1.9,1.9,1.9c1.1,0,1.9-0.9,1.9-1.9C307.9,44.8,307.1,43.9,306,43.9z"/>
	</g>
	<g>
		<path class="st3" d="M297.4,53.3c-0.3,0-0.6-0.1-0.8-0.4c-0.3-0.4-0.2-1.1,0.2-1.4l5.9-4.3c0.4-0.3,1.1-0.2,1.4,0.2
			c0.3,0.4,0.2,1.1-0.2,1.4l-5.9,4.3C297.8,53.2,297.6,53.3,297.4,53.3z"/>
	</g>
	<g>
		<path class="st3" d="M291.6,54.8c-0.1,0-0.1,0-0.2,0l-8.4-1.4c-0.5-0.1-0.9-0.6-0.8-1.1c0.1-0.5,0.6-0.9,1.1-0.8l8.4,1.4
			c0.5,0.1,0.9,0.6,0.8,1.1C292.5,54.5,292,54.8,291.6,54.8z"/>
	</g>
	<g>
		<path class="st3" d="M273.7,62.9c-0.2,0-0.4-0.1-0.6-0.2c-0.4-0.3-0.6-0.9-0.2-1.4l5.1-7.3c0.3-0.4,0.9-0.6,1.4-0.2
			c0.4,0.3,0.6,0.9,0.2,1.4l-5.1,7.3C274.3,62.7,274,62.9,273.7,62.9z"/>
	</g>
</g>
</svg>
