<?xml version="1.0" encoding="utf-8"?>
<!-- Generator: Adobe Illustrator 22.1.0, SVG Export Plug-In . SVG Version: 6.00 Build 0)  -->
<svg version="1.1" id="Layer_1" xmlns="http://www.w3.org/2000/svg" xmlns:xlink="http://www.w3.org/1999/xlink" x="0px" y="0px"
	 viewBox="0 0 400 100" style="enable-background:new 0 0 400 100;" xml:space="preserve">
<style type="text/css">
	.st0{fill:#FFFFFF;}
</style>
<g>
	<path class="st0" d="M88.5,15h1.2v10.2h6.3v1h-7.5V15z"/>
	<path class="st0" d="M104.9,22.4h-7c0.1,0.9,0.4,1.6,1,2.1s1.4,0.8,2.3,0.8c0.5,0,1-0.1,1.4-0.3c0.4-0.2,0.8-0.5,1.1-0.8l0.6,0.7
		c-0.4,0.4-0.8,0.8-1.4,1c-0.6,0.2-1.2,0.4-1.8,0.4c-0.9,0-1.6-0.2-2.3-0.6c-0.7-0.4-1.2-0.9-1.6-1.5c-0.4-0.7-0.6-1.4-0.6-2.2
		s0.2-1.6,0.5-2.2c0.4-0.7,0.8-1.2,1.5-1.5c0.6-0.4,1.3-0.5,2.1-0.5c0.8,0,1.5,0.2,2.1,0.5c0.6,0.4,1.1,0.9,1.5,1.5s0.5,1.4,0.5,2.2
		L104.9,22.4z M98.7,19.5c-0.5,0.5-0.9,1.2-0.9,2h6c-0.1-0.8-0.4-1.5-0.9-2c-0.5-0.5-1.2-0.8-2.1-0.8C100,18.7,99.3,19,98.7,19.5z"
		/>
	<path class="st0" d="M114.1,17.8l-3.7,8.4h-1.2l-3.7-8.4h1.2l3.2,7.2l3.2-7.2H114.1z"/>
	<path class="st0" d="M122.8,22.4h-7c0.1,0.9,0.4,1.6,1,2.1s1.4,0.8,2.3,0.8c0.5,0,1-0.1,1.4-0.3c0.4-0.2,0.8-0.5,1.1-0.8l0.6,0.7
		c-0.4,0.4-0.8,0.8-1.4,1c-0.6,0.2-1.2,0.4-1.8,0.4c-0.9,0-1.6-0.2-2.3-0.6c-0.7-0.4-1.2-0.9-1.6-1.5c-0.4-0.7-0.6-1.4-0.6-2.2
		s0.2-1.6,0.5-2.2c0.4-0.7,0.8-1.2,1.5-1.5c0.6-0.4,1.3-0.5,2.1-0.5c0.8,0,1.5,0.2,2.1,0.5c0.6,0.4,1.1,0.9,1.5,1.5s0.5,1.4,0.5,2.2
		L122.8,22.4z M116.7,19.5c-0.5,0.5-0.9,1.2-0.9,2h6c-0.1-0.8-0.4-1.5-0.9-2c-0.5-0.5-1.2-0.8-2.1-0.8
		C117.9,18.7,117.2,19,116.7,19.5z"/>
	<path class="st0" d="M127.4,18.2c0.5-0.3,1.2-0.4,2-0.4v1.1l-0.3,0c-0.9,0-1.6,0.3-2.1,0.8c-0.5,0.5-0.8,1.3-0.8,2.3v4.3h-1.1v-8.4
		h1.1v1.6C126.5,18.9,126.9,18.5,127.4,18.2z"/>
	<path class="st0" d="M136.9,18.6c0.6,0.5,0.9,1.4,0.9,2.4v5.2h-1.1v-1.3c-0.3,0.4-0.6,0.8-1.1,1c-0.5,0.2-1.1,0.4-1.8,0.4
		c-0.9,0-1.7-0.2-2.2-0.7c-0.6-0.4-0.8-1-0.8-1.8c0-0.7,0.3-1.3,0.8-1.7c0.5-0.4,1.3-0.7,2.5-0.7h2.7V21c0-0.7-0.2-1.3-0.6-1.7
		c-0.4-0.4-1-0.6-1.8-0.6c-0.5,0-1,0.1-1.5,0.3c-0.5,0.2-0.9,0.4-1.3,0.7l-0.5-0.8c0.4-0.4,0.9-0.6,1.5-0.8c0.6-0.2,1.2-0.3,1.9-0.3
		C135.4,17.7,136.3,18,136.9,18.6z M135.6,25c0.5-0.3,0.8-0.7,1-1.3v-1.4H134c-1.4,0-2.2,0.5-2.2,1.5c0,0.5,0.2,0.9,0.6,1.2
		c0.4,0.3,0.9,0.4,1.6,0.4C134.6,25.4,135.1,25.3,135.6,25z"/>
	<path class="st0" d="M148.7,17.8v7.4c0,1.4-0.3,2.5-1,3.2c-0.7,0.7-1.8,1-3.2,1c-0.8,0-1.5-0.1-2.2-0.3c-0.7-0.2-1.3-0.5-1.7-1
		l0.6-0.9c0.4,0.4,0.9,0.6,1.5,0.8c0.6,0.2,1.2,0.3,1.8,0.3c1.1,0,1.9-0.2,2.4-0.7s0.8-1.3,0.8-2.3v-1.1c-0.4,0.5-0.8,0.9-1.4,1.2
		c-0.6,0.3-1.2,0.4-1.9,0.4c-0.8,0-1.5-0.2-2.2-0.5c-0.6-0.3-1.2-0.8-1.5-1.5c-0.4-0.6-0.6-1.3-0.6-2.1c0-0.8,0.2-1.5,0.6-2.1
		c0.4-0.6,0.9-1.1,1.5-1.4c0.6-0.3,1.4-0.5,2.2-0.5c0.7,0,1.4,0.1,1.9,0.4s1,0.7,1.4,1.2v-1.6H148.7z M146,24.5
		c0.5-0.3,0.9-0.6,1.1-1.1c0.3-0.5,0.4-1,0.4-1.6c0-0.6-0.1-1.1-0.4-1.6c-0.3-0.5-0.7-0.8-1.1-1.1c-0.5-0.3-1-0.4-1.7-0.4
		c-0.6,0-1.2,0.1-1.6,0.4c-0.5,0.3-0.9,0.6-1.1,1.1c-0.3,0.5-0.4,1-0.4,1.6c0,0.6,0.1,1.1,0.4,1.6s0.7,0.8,1.1,1.1
		c0.5,0.3,1,0.4,1.6,0.4C145,24.9,145.5,24.8,146,24.5z"/>
	<path class="st0" d="M151.8,15.7c-0.2-0.2-0.2-0.4-0.2-0.6c0-0.2,0.1-0.4,0.2-0.6c0.2-0.2,0.4-0.2,0.6-0.2c0.2,0,0.4,0.1,0.6,0.2
		c0.2,0.2,0.2,0.3,0.2,0.6c0,0.2-0.1,0.4-0.2,0.6c-0.2,0.2-0.4,0.2-0.6,0.2C152.2,16,152,15.9,151.8,15.7z M151.8,17.8h1.1v8.4h-1.1
		V17.8z"/>
	<path class="st0" d="M163,18.7c0.6,0.6,0.9,1.5,0.9,2.7v4.9h-1.1v-4.8c0-0.9-0.2-1.5-0.7-2c-0.4-0.5-1.1-0.7-1.9-0.7
		c-0.9,0-1.6,0.3-2.2,0.8c-0.5,0.5-0.8,1.3-0.8,2.2v4.4h-1.1v-8.4h1.1v1.6c0.3-0.5,0.7-0.9,1.3-1.2c0.5-0.3,1.2-0.4,1.9-0.4
		C161.5,17.7,162.3,18.1,163,18.7z"/>
	<path class="st0" d="M174.8,17.8v7.4c0,1.4-0.3,2.5-1,3.2c-0.7,0.7-1.8,1-3.2,1c-0.8,0-1.5-0.1-2.2-0.3c-0.7-0.2-1.3-0.5-1.7-1
		l0.6-0.9c0.4,0.4,0.9,0.6,1.5,0.8s1.2,0.3,1.8,0.3c1.1,0,1.9-0.2,2.4-0.7c0.5-0.5,0.8-1.3,0.8-2.3v-1.1c-0.4,0.5-0.8,0.9-1.4,1.2
		c-0.6,0.3-1.2,0.4-1.9,0.4c-0.8,0-1.5-0.2-2.2-0.5s-1.2-0.8-1.5-1.5s-0.6-1.3-0.6-2.1c0-0.8,0.2-1.5,0.6-2.1s0.9-1.1,1.5-1.4
		c0.6-0.3,1.4-0.5,2.2-0.5c0.7,0,1.4,0.1,1.9,0.4c0.6,0.3,1,0.7,1.4,1.2v-1.6H174.8z M172.1,24.5c0.5-0.3,0.9-0.6,1.1-1.1
		c0.3-0.5,0.4-1,0.4-1.6c0-0.6-0.1-1.1-0.4-1.6c-0.3-0.5-0.7-0.8-1.1-1.1c-0.5-0.3-1-0.4-1.7-0.4c-0.6,0-1.2,0.1-1.6,0.4
		s-0.9,0.6-1.1,1.1c-0.3,0.5-0.4,1-0.4,1.6c0,0.6,0.1,1.1,0.4,1.6c0.3,0.5,0.7,0.8,1.1,1.1c0.5,0.3,1,0.4,1.6,0.4
		C171.1,24.9,171.7,24.8,172.1,24.5z"/>
	<path class="st0" d="M195.2,18.7c0.6,0.6,0.9,1.5,0.9,2.7v4.9h-1.1v-4.8c0-0.9-0.2-1.5-0.6-2c-0.4-0.5-1-0.7-1.8-0.7
		c-0.9,0-1.6,0.3-2.1,0.8c-0.5,0.5-0.8,1.3-0.8,2.2v4.4h-1.1v-4.8c0-0.9-0.2-1.5-0.6-2c-0.4-0.5-1-0.7-1.8-0.7
		c-0.9,0-1.5,0.3-2.1,0.8c-0.5,0.5-0.8,1.3-0.8,2.2v4.4h-1.1v-8.4h1.1v1.5c0.3-0.5,0.7-0.9,1.2-1.2s1.1-0.4,1.8-0.4
		c0.7,0,1.3,0.1,1.8,0.4c0.5,0.3,0.9,0.7,1.2,1.3c0.3-0.6,0.8-1,1.3-1.3s1.2-0.5,2-0.5C193.7,17.7,194.6,18,195.2,18.7z"/>
	<path class="st0" d="M206.5,22.4h-7c0.1,0.9,0.4,1.6,1,2.1c0.6,0.5,1.4,0.8,2.3,0.8c0.5,0,1-0.1,1.4-0.3s0.8-0.5,1.1-0.8l0.6,0.7
		c-0.4,0.4-0.8,0.8-1.4,1c-0.6,0.2-1.2,0.4-1.8,0.4c-0.9,0-1.6-0.2-2.3-0.6c-0.7-0.4-1.2-0.9-1.6-1.5c-0.4-0.7-0.6-1.4-0.6-2.2
		s0.2-1.6,0.5-2.2c0.4-0.7,0.8-1.2,1.5-1.5c0.6-0.4,1.3-0.5,2.1-0.5c0.8,0,1.5,0.2,2.1,0.5c0.6,0.4,1.1,0.9,1.5,1.5
		c0.4,0.6,0.5,1.4,0.5,2.2L206.5,22.4z M200.4,19.5c-0.5,0.5-0.9,1.2-0.9,2h6c-0.1-0.8-0.4-1.5-0.9-2c-0.5-0.5-1.2-0.8-2.1-0.8
		C201.6,18.7,201,19,200.4,19.5z"/>
	<path class="st0" d="M214.1,18.6c0.6,0.5,0.9,1.4,0.9,2.4v5.2h-1.1v-1.3c-0.3,0.4-0.6,0.8-1.1,1c-0.5,0.2-1.1,0.4-1.8,0.4
		c-0.9,0-1.7-0.2-2.2-0.7c-0.6-0.4-0.8-1-0.8-1.8c0-0.7,0.3-1.3,0.8-1.7c0.5-0.4,1.3-0.7,2.5-0.7h2.7V21c0-0.7-0.2-1.3-0.6-1.7
		c-0.4-0.4-1-0.6-1.8-0.6c-0.5,0-1,0.1-1.5,0.3c-0.5,0.2-0.9,0.4-1.3,0.7l-0.5-0.8c0.4-0.4,0.9-0.6,1.5-0.8c0.6-0.2,1.2-0.3,1.9-0.3
		C212.7,17.7,213.5,18,214.1,18.6z M212.8,25c0.5-0.3,0.8-0.7,1-1.3v-1.4h-2.6c-1.4,0-2.2,0.5-2.2,1.5c0,0.5,0.2,0.9,0.6,1.2
		c0.4,0.3,0.9,0.4,1.6,0.4C211.8,25.4,212.3,25.3,212.8,25z"/>
	<path class="st0" d="M224.9,18.7c0.6,0.6,0.9,1.5,0.9,2.7v4.9h-1.1v-4.8c0-0.9-0.2-1.5-0.7-2c-0.4-0.5-1.1-0.7-1.9-0.7
		c-0.9,0-1.6,0.3-2.2,0.8c-0.5,0.5-0.8,1.3-0.8,2.2v4.4h-1.1v-8.4h1.1v1.6c0.3-0.5,0.7-0.9,1.3-1.2c0.5-0.3,1.2-0.4,1.9-0.4
		C223.4,17.7,224.2,18.1,224.9,18.7z"/>
	<path class="st0" d="M228.9,15.7c-0.2-0.2-0.2-0.4-0.2-0.6c0-0.2,0.1-0.4,0.2-0.6c0.2-0.2,0.4-0.2,0.6-0.2c0.2,0,0.4,0.1,0.6,0.2
		c0.2,0.2,0.2,0.3,0.2,0.6c0,0.2-0.1,0.4-0.2,0.6c-0.2,0.2-0.4,0.2-0.6,0.2C229.2,16,229,15.9,228.9,15.7z M228.9,17.8h1.1v8.4h-1.1
		V17.8z"/>
	<path class="st0" d="M240,18.7c0.6,0.6,0.9,1.5,0.9,2.7v4.9h-1.1v-4.8c0-0.9-0.2-1.5-0.7-2c-0.4-0.5-1.1-0.7-1.9-0.7
		c-0.9,0-1.6,0.3-2.2,0.8c-0.5,0.5-0.8,1.3-0.8,2.2v4.4h-1.1v-8.4h1.1v1.6c0.3-0.5,0.7-0.9,1.3-1.2c0.5-0.3,1.2-0.4,1.9-0.4
		C238.5,17.7,239.4,18.1,240,18.7z"/>
	<path class="st0" d="M251.8,17.8v7.4c0,1.4-0.3,2.5-1,3.2c-0.7,0.7-1.8,1-3.2,1c-0.8,0-1.5-0.1-2.2-0.3c-0.7-0.2-1.3-0.5-1.7-1
		l0.6-0.9c0.4,0.4,0.9,0.6,1.5,0.8s1.2,0.3,1.8,0.3c1.1,0,1.9-0.2,2.4-0.7c0.5-0.5,0.8-1.3,0.8-2.3v-1.1c-0.4,0.5-0.8,0.9-1.4,1.2
		c-0.6,0.3-1.2,0.4-1.9,0.4c-0.8,0-1.5-0.2-2.2-0.5s-1.2-0.8-1.5-1.5s-0.6-1.3-0.6-2.1c0-0.8,0.2-1.5,0.6-2.1s0.9-1.1,1.5-1.4
		c0.6-0.3,1.4-0.5,2.2-0.5c0.7,0,1.4,0.1,1.9,0.4c0.6,0.3,1,0.7,1.4,1.2v-1.6H251.8z M249.2,24.5c0.5-0.3,0.9-0.6,1.1-1.1
		c0.3-0.5,0.4-1,0.4-1.6c0-0.6-0.1-1.1-0.4-1.6c-0.3-0.5-0.7-0.8-1.1-1.1c-0.5-0.3-1-0.4-1.7-0.4c-0.6,0-1.2,0.1-1.6,0.4
		s-0.9,0.6-1.1,1.1c-0.3,0.5-0.4,1-0.4,1.6c0,0.6,0.1,1.1,0.4,1.6c0.3,0.5,0.7,0.8,1.1,1.1c0.5,0.3,1,0.4,1.6,0.4
		C248.1,24.9,248.7,24.8,249.2,24.5z"/>
	<path class="st0" d="M256.7,15.6c-0.3,0.3-0.4,0.7-0.4,1.2v1h2.6v1h-2.6v7.5h-1.1v-7.5h-1.5v-1h1.5v-1c0-0.8,0.2-1.4,0.7-1.8
		c0.4-0.4,1.1-0.7,1.9-0.7c0.3,0,0.6,0,0.9,0.1s0.5,0.2,0.8,0.4l-0.4,0.8c-0.3-0.3-0.7-0.4-1.2-0.4C257.3,15.2,257,15.4,256.7,15.6z
		"/>
	<path class="st0" d="M268,17.8v8.4h-1.1v-1.5c-0.3,0.5-0.7,0.9-1.2,1.2c-0.5,0.3-1.1,0.4-1.8,0.4c-1.1,0-2-0.3-2.6-0.9
		s-1-1.5-1-2.7v-4.9h1.1v4.8c0,0.9,0.2,1.6,0.7,2s1.1,0.7,1.9,0.7c0.9,0,1.6-0.3,2.1-0.8c0.5-0.5,0.8-1.3,0.8-2.2v-4.4H268z"/>
	<path class="st0" d="M271.2,14.4h1.1v11.9h-1.1V14.4z"/>
	<path class="st0" d="M287.4,14.4v11.9h-1.1v-1.7c-0.3,0.6-0.8,1-1.4,1.3c-0.6,0.3-1.2,0.4-1.9,0.4c-0.8,0-1.5-0.2-2.1-0.5
		c-0.6-0.4-1.1-0.9-1.5-1.5c-0.4-0.7-0.5-1.4-0.5-2.2s0.2-1.6,0.5-2.2c0.4-0.7,0.9-1.2,1.5-1.5c0.6-0.4,1.4-0.5,2.1-0.5
		c0.7,0,1.3,0.1,1.8,0.4c0.5,0.3,1,0.7,1.4,1.2v-5.1H287.4z M284.7,24.9c0.5-0.3,0.8-0.7,1.1-1.2c0.3-0.5,0.4-1.1,0.4-1.7
		s-0.1-1.2-0.4-1.7c-0.3-0.5-0.6-0.9-1.1-1.2s-1-0.4-1.6-0.4c-0.6,0-1.1,0.1-1.6,0.4s-0.8,0.7-1.1,1.2c-0.3,0.5-0.4,1.1-0.4,1.7
		s0.1,1.2,0.4,1.7c0.3,0.5,0.6,0.9,1.1,1.2s1,0.4,1.6,0.4C283.7,25.3,284.3,25.2,284.7,24.9z"/>
	<path class="st0" d="M296,18.6c0.6,0.5,0.9,1.4,0.9,2.4v5.2h-1.1v-1.3c-0.3,0.4-0.6,0.8-1.1,1c-0.5,0.2-1.1,0.4-1.8,0.4
		c-0.9,0-1.7-0.2-2.2-0.7c-0.6-0.4-0.8-1-0.8-1.8c0-0.7,0.3-1.3,0.8-1.7c0.5-0.4,1.3-0.7,2.5-0.7h2.7V21c0-0.7-0.2-1.3-0.6-1.7
		c-0.4-0.4-1-0.6-1.8-0.6c-0.5,0-1,0.1-1.5,0.3c-0.5,0.2-0.9,0.4-1.3,0.7l-0.5-0.8c0.4-0.4,0.9-0.6,1.5-0.8c0.6-0.2,1.2-0.3,1.9-0.3
		C294.6,17.7,295.5,18,296,18.6z M294.8,25c0.5-0.3,0.8-0.7,1-1.3v-1.4h-2.6c-1.4,0-2.2,0.5-2.2,1.5c0,0.5,0.2,0.9,0.6,1.2
		c0.4,0.3,0.9,0.4,1.6,0.4C293.7,25.4,294.3,25.3,294.8,25z"/>
	<path class="st0" d="M304.4,25.7c-0.2,0.2-0.5,0.3-0.8,0.4c-0.3,0.1-0.6,0.2-1,0.2c-0.8,0-1.4-0.2-1.8-0.6c-0.4-0.4-0.6-1-0.6-1.8
		v-5.1h-1.5v-1h1.5V16h1.1v1.8h2.6v1h-2.6v5c0,0.5,0.1,0.9,0.4,1.1c0.2,0.3,0.6,0.4,1.1,0.4c0.2,0,0.5,0,0.7-0.1s0.4-0.2,0.6-0.3
		L304.4,25.7z"/>
	<path class="st0" d="M312,18.6c0.6,0.5,0.9,1.4,0.9,2.4v5.2h-1.1v-1.3c-0.3,0.4-0.6,0.8-1.1,1c-0.5,0.2-1.1,0.4-1.8,0.4
		c-0.9,0-1.7-0.2-2.2-0.7c-0.6-0.4-0.8-1-0.8-1.8c0-0.7,0.3-1.3,0.8-1.7c0.5-0.4,1.3-0.7,2.5-0.7h2.7V21c0-0.7-0.2-1.3-0.6-1.7
		c-0.4-0.4-1-0.6-1.8-0.6c-0.5,0-1,0.1-1.5,0.3c-0.5,0.2-0.9,0.4-1.3,0.7l-0.5-0.8c0.4-0.4,0.9-0.6,1.5-0.8c0.6-0.2,1.2-0.3,1.9-0.3
		C310.5,17.7,311.4,18,312,18.6z M310.7,25c0.5-0.3,0.8-0.7,1-1.3v-1.4h-2.6c-1.4,0-2.2,0.5-2.2,1.5c0,0.5,0.2,0.9,0.6,1.2
		c0.4,0.3,0.9,0.4,1.6,0.4C309.7,25.4,310.2,25.3,310.7,25z"/>
	<path class="st0" d="M70.6,33.6v11.9h-1.1v-1.7c-0.3,0.6-0.8,1-1.4,1.3c-0.6,0.3-1.2,0.4-1.9,0.4c-0.8,0-1.5-0.2-2.1-0.5
		c-0.6-0.4-1.1-0.9-1.5-1.5c-0.4-0.7-0.5-1.4-0.5-2.2s0.2-1.6,0.5-2.2c0.4-0.7,0.9-1.2,1.5-1.5c0.6-0.4,1.4-0.5,2.1-0.5
		c0.7,0,1.3,0.1,1.8,0.4c0.5,0.3,1,0.7,1.4,1.2v-5.1H70.6z M68,44.1c0.5-0.3,0.8-0.7,1.1-1.2c0.3-0.5,0.4-1.1,0.4-1.7
		s-0.1-1.2-0.4-1.7s-0.6-0.9-1.1-1.2c-0.5-0.3-1-0.4-1.6-0.4c-0.6,0-1.1,0.1-1.6,0.4s-0.8,0.7-1.1,1.2s-0.4,1.1-0.4,1.7
		s0.1,1.2,0.4,1.7c0.3,0.5,0.6,0.9,1.1,1.2s1,0.4,1.6,0.4C67,44.5,67.5,44.4,68,44.1z"/>
	<path class="st0" d="M81.1,41.6h-7c0.1,0.9,0.4,1.6,1,2.1s1.4,0.8,2.3,0.8c0.5,0,1-0.1,1.4-0.3c0.4-0.2,0.8-0.5,1.1-0.8l0.6,0.7
		c-0.4,0.4-0.8,0.8-1.4,1c-0.6,0.2-1.2,0.4-1.8,0.4c-0.9,0-1.6-0.2-2.3-0.6c-0.7-0.4-1.2-0.9-1.6-1.5c-0.4-0.7-0.6-1.4-0.6-2.2
		s0.2-1.6,0.5-2.2c0.4-0.7,0.8-1.2,1.5-1.5c0.6-0.4,1.3-0.5,2.1-0.5c0.8,0,1.5,0.2,2.1,0.5c0.6,0.4,1.1,0.9,1.5,1.5s0.5,1.4,0.5,2.2
		L81.1,41.6z M75,38.7c-0.5,0.5-0.9,1.2-0.9,2h6c-0.1-0.8-0.4-1.5-0.9-2c-0.5-0.5-1.2-0.8-2.1-0.8C76.3,37.9,75.6,38.2,75,38.7z"/>
	<path class="st0" d="M83.8,45.2c-0.6-0.2-1.1-0.4-1.5-0.7l0.5-0.9c0.4,0.3,0.8,0.5,1.3,0.7c0.5,0.2,1.1,0.3,1.7,0.3
		c0.8,0,1.3-0.1,1.7-0.4c0.4-0.2,0.6-0.6,0.6-1c0-0.3-0.1-0.6-0.3-0.7c-0.2-0.2-0.5-0.3-0.8-0.4c-0.3-0.1-0.7-0.2-1.2-0.3
		c-0.7-0.1-1.2-0.3-1.6-0.4S83.3,41,83,40.7c-0.3-0.3-0.4-0.8-0.4-1.3c0-0.7,0.3-1.3,0.9-1.7c0.6-0.4,1.4-0.7,2.4-0.7
		c0.5,0,1.1,0.1,1.6,0.2s1,0.3,1.3,0.6l-0.5,0.9c-0.7-0.5-1.5-0.7-2.5-0.7c-0.7,0-1.3,0.1-1.6,0.4c-0.4,0.3-0.6,0.6-0.6,1
		c0,0.3,0.1,0.6,0.3,0.8c0.2,0.2,0.5,0.3,0.8,0.4s0.7,0.2,1.3,0.3c0.7,0.1,1.2,0.3,1.6,0.4s0.8,0.3,1,0.7c0.3,0.3,0.4,0.7,0.4,1.3
		c0,0.7-0.3,1.3-0.9,1.8c-0.6,0.4-1.5,0.6-2.6,0.6C85,45.5,84.4,45.4,83.8,45.2z"/>
	<path class="st0" d="M91.3,34.9c-0.2-0.2-0.2-0.4-0.2-0.6c0-0.2,0.1-0.4,0.2-0.6c0.2-0.2,0.4-0.2,0.6-0.2c0.2,0,0.4,0.1,0.6,0.2
		c0.2,0.2,0.2,0.3,0.2,0.6c0,0.2-0.1,0.4-0.2,0.6c-0.2,0.2-0.4,0.2-0.6,0.2C91.6,35.2,91.4,35.1,91.3,34.9z M91.3,37h1.1v8.4h-1.1
		V37z"/>
	<path class="st0" d="M103.4,37v7.4c0,1.4-0.3,2.5-1,3.2c-0.7,0.7-1.8,1-3.2,1c-0.8,0-1.5-0.1-2.2-0.3c-0.7-0.2-1.3-0.5-1.7-1
		l0.6-0.9c0.4,0.4,0.9,0.6,1.5,0.8c0.6,0.2,1.2,0.3,1.8,0.3c1.1,0,1.9-0.2,2.4-0.7s0.8-1.3,0.8-2.3v-1.1c-0.4,0.5-0.8,0.9-1.4,1.2
		c-0.6,0.3-1.2,0.4-1.9,0.4c-0.8,0-1.5-0.2-2.2-0.5c-0.6-0.3-1.2-0.8-1.5-1.5c-0.4-0.6-0.6-1.3-0.6-2.1c0-0.8,0.2-1.5,0.6-2.1
		c0.4-0.6,0.9-1.1,1.5-1.4c0.6-0.3,1.4-0.5,2.2-0.5c0.7,0,1.4,0.1,1.9,0.4s1,0.7,1.4,1.2V37H103.4z M100.7,43.7
		c0.5-0.3,0.9-0.6,1.1-1.1c0.3-0.5,0.4-1,0.4-1.6c0-0.6-0.1-1.1-0.4-1.6c-0.3-0.5-0.7-0.8-1.1-1.1c-0.5-0.3-1-0.4-1.7-0.4
		c-0.6,0-1.2,0.1-1.6,0.4c-0.5,0.3-0.9,0.6-1.1,1.1c-0.3,0.5-0.4,1-0.4,1.6c0,0.6,0.1,1.1,0.4,1.6s0.7,0.8,1.1,1.1
		c0.5,0.3,1,0.4,1.6,0.4C99.7,44.1,100.2,44,100.7,43.7z"/>
	<path class="st0" d="M113.4,37.9c0.6,0.6,0.9,1.5,0.9,2.7v4.9h-1.1v-4.8c0-0.9-0.2-1.5-0.7-2c-0.4-0.5-1.1-0.7-1.9-0.7
		c-0.9,0-1.6,0.3-2.2,0.8c-0.5,0.5-0.8,1.3-0.8,2.2v4.4h-1.1V37h1.1v1.6c0.3-0.5,0.7-0.9,1.3-1.2c0.5-0.3,1.2-0.4,1.9-0.4
		C111.9,36.9,112.7,37.3,113.4,37.9z"/>
	<path class="st0" d="M117.4,34.9c-0.2-0.2-0.2-0.4-0.2-0.6c0-0.2,0.1-0.4,0.2-0.6c0.2-0.2,0.4-0.2,0.6-0.2c0.2,0,0.4,0.1,0.6,0.2
		c0.2,0.2,0.2,0.3,0.2,0.6c0,0.2-0.1,0.4-0.2,0.6c-0.2,0.2-0.4,0.2-0.6,0.2C117.7,35.2,117.5,35.1,117.4,34.9z M117.4,37h1.1v8.4
		h-1.1V37z"/>
	<path class="st0" d="M128.5,37.9c0.6,0.6,0.9,1.5,0.9,2.7v4.9h-1.1v-4.8c0-0.9-0.2-1.5-0.7-2c-0.4-0.5-1.1-0.7-1.9-0.7
		c-0.9,0-1.6,0.3-2.2,0.8c-0.5,0.5-0.8,1.3-0.8,2.2v4.4h-1.1V37h1.1v1.6c0.3-0.5,0.7-0.9,1.3-1.2c0.5-0.3,1.2-0.4,1.9-0.4
		C127,36.9,127.9,37.3,128.5,37.9z"/>
	<path class="st0" d="M140.4,37v7.4c0,1.4-0.3,2.5-1,3.2c-0.7,0.7-1.8,1-3.2,1c-0.8,0-1.5-0.1-2.2-0.3c-0.7-0.2-1.3-0.5-1.7-1
		l0.6-0.9c0.4,0.4,0.9,0.6,1.5,0.8c0.6,0.2,1.2,0.3,1.8,0.3c1.1,0,1.9-0.2,2.4-0.7s0.8-1.3,0.8-2.3v-1.1c-0.4,0.5-0.8,0.9-1.4,1.2
		c-0.6,0.3-1.2,0.4-1.9,0.4c-0.8,0-1.5-0.2-2.2-0.5c-0.6-0.3-1.2-0.8-1.5-1.5c-0.4-0.6-0.6-1.3-0.6-2.1c0-0.8,0.2-1.5,0.6-2.1
		c0.4-0.6,0.9-1.1,1.5-1.4c0.6-0.3,1.4-0.5,2.2-0.5c0.7,0,1.4,0.1,1.9,0.4s1,0.7,1.4,1.2V37H140.4z M137.7,43.7
		c0.5-0.3,0.9-0.6,1.1-1.1c0.3-0.5,0.4-1,0.4-1.6c0-0.6-0.1-1.1-0.4-1.6c-0.3-0.5-0.7-0.8-1.1-1.1c-0.5-0.3-1-0.4-1.7-0.4
		c-0.6,0-1.2,0.1-1.6,0.4c-0.5,0.3-0.9,0.6-1.1,1.1c-0.3,0.5-0.4,1-0.4,1.6c0,0.6,0.1,1.1,0.4,1.6s0.7,0.8,1.1,1.1
		c0.5,0.3,1,0.4,1.6,0.4C136.7,44.1,137.2,44,137.7,43.7z"/>
	<path class="st0" d="M160.7,37.9c0.6,0.6,0.9,1.5,0.9,2.7v4.9h-1.1v-4.8c0-0.9-0.2-1.5-0.6-2c-0.4-0.5-1-0.7-1.8-0.7
		c-0.9,0-1.6,0.3-2.1,0.8c-0.5,0.5-0.8,1.3-0.8,2.2v4.4h-1.1v-4.8c0-0.9-0.2-1.5-0.6-2c-0.4-0.5-1-0.7-1.8-0.7
		c-0.9,0-1.5,0.3-2.1,0.8c-0.5,0.5-0.8,1.3-0.8,2.2v4.4h-1.1V37h1.1v1.5c0.3-0.5,0.7-0.9,1.2-1.2s1.1-0.4,1.8-0.4
		c0.7,0,1.3,0.1,1.8,0.4c0.5,0.3,0.9,0.7,1.2,1.3c0.3-0.6,0.8-1,1.3-1.3s1.2-0.5,2-0.5C159.3,36.9,160.1,37.2,160.7,37.9z"/>
	<path class="st0" d="M172.1,41.6h-7c0.1,0.9,0.4,1.6,1,2.1c0.6,0.5,1.4,0.8,2.3,0.8c0.5,0,1-0.1,1.4-0.3s0.8-0.5,1.1-0.8l0.6,0.7
		c-0.4,0.4-0.8,0.8-1.4,1c-0.6,0.2-1.2,0.4-1.8,0.4c-0.9,0-1.6-0.2-2.3-0.6c-0.7-0.4-1.2-0.9-1.6-1.5c-0.4-0.7-0.6-1.4-0.6-2.2
		s0.2-1.6,0.5-2.2c0.4-0.7,0.8-1.2,1.5-1.5c0.6-0.4,1.3-0.5,2.1-0.5c0.8,0,1.5,0.2,2.1,0.5c0.6,0.4,1.1,0.9,1.5,1.5
		c0.4,0.6,0.5,1.4,0.5,2.2L172.1,41.6z M166,38.7c-0.5,0.5-0.9,1.2-0.9,2h6c-0.1-0.8-0.4-1.5-0.9-2c-0.5-0.5-1.2-0.8-2.1-0.8
		C167.2,37.9,166.5,38.2,166,38.7z"/>
	<path class="st0" d="M179.6,37.8c0.6,0.5,0.9,1.4,0.9,2.4v5.2h-1.1v-1.3c-0.3,0.4-0.6,0.8-1.1,1c-0.5,0.2-1.1,0.4-1.8,0.4
		c-0.9,0-1.7-0.2-2.2-0.7c-0.6-0.4-0.8-1-0.8-1.8c0-0.7,0.3-1.3,0.8-1.7c0.5-0.4,1.3-0.7,2.5-0.7h2.7v-0.5c0-0.7-0.2-1.3-0.6-1.7
		c-0.4-0.4-1-0.6-1.8-0.6c-0.5,0-1,0.1-1.5,0.3c-0.5,0.2-0.9,0.4-1.3,0.7l-0.5-0.8c0.4-0.4,0.9-0.6,1.5-0.8c0.6-0.2,1.2-0.3,1.9-0.3
		C178.2,36.9,179.1,37.2,179.6,37.8z M178.4,44.2c0.5-0.3,0.8-0.7,1-1.3v-1.4h-2.6c-1.4,0-2.2,0.5-2.2,1.5c0,0.5,0.2,0.9,0.6,1.2
		c0.4,0.3,0.9,0.4,1.6,0.4C177.3,44.6,177.9,44.5,178.4,44.2z"/>
	<path class="st0" d="M190.4,37.9c0.6,0.6,0.9,1.5,0.9,2.7v4.9h-1.1v-4.8c0-0.9-0.2-1.5-0.7-2c-0.4-0.5-1.1-0.7-1.9-0.7
		c-0.9,0-1.6,0.3-2.2,0.8c-0.5,0.5-0.8,1.3-0.8,2.2v4.4h-1.1V37h1.1v1.6c0.3-0.5,0.7-0.9,1.3-1.2c0.5-0.3,1.2-0.4,1.9-0.4
		C188.9,36.9,189.8,37.3,190.4,37.9z"/>
	<path class="st0" d="M194.4,34.9c-0.2-0.2-0.2-0.4-0.2-0.6c0-0.2,0.1-0.4,0.2-0.6c0.2-0.2,0.4-0.2,0.6-0.2c0.2,0,0.4,0.1,0.6,0.2
		c0.2,0.2,0.2,0.3,0.2,0.6c0,0.2-0.1,0.4-0.2,0.6c-0.2,0.2-0.4,0.2-0.6,0.2C194.8,35.2,194.6,35.1,194.4,34.9z M194.4,37h1.1v8.4
		h-1.1V37z"/>
	<path class="st0" d="M205.5,37.9c0.6,0.6,0.9,1.5,0.9,2.7v4.9h-1.1v-4.8c0-0.9-0.2-1.5-0.7-2c-0.4-0.5-1.1-0.7-1.9-0.7
		c-0.9,0-1.6,0.3-2.2,0.8c-0.5,0.5-0.8,1.3-0.8,2.2v4.4h-1.1V37h1.1v1.6c0.3-0.5,0.7-0.9,1.3-1.2c0.5-0.3,1.2-0.4,1.9-0.4
		C204.1,36.9,204.9,37.3,205.5,37.9z"/>
	<path class="st0" d="M217.4,37v7.4c0,1.4-0.3,2.5-1,3.2c-0.7,0.7-1.8,1-3.2,1c-0.8,0-1.5-0.1-2.2-0.3c-0.7-0.2-1.3-0.5-1.7-1
		l0.6-0.9c0.4,0.4,0.9,0.6,1.5,0.8s1.2,0.3,1.8,0.3c1.1,0,1.9-0.2,2.4-0.7c0.5-0.5,0.8-1.3,0.8-2.3v-1.1c-0.4,0.5-0.8,0.9-1.4,1.2
		c-0.6,0.3-1.2,0.4-1.9,0.4c-0.8,0-1.5-0.2-2.2-0.5s-1.2-0.8-1.5-1.5s-0.6-1.3-0.6-2.1c0-0.8,0.2-1.5,0.6-2.1s0.9-1.1,1.5-1.4
		c0.6-0.3,1.4-0.5,2.2-0.5c0.7,0,1.4,0.1,1.9,0.4c0.6,0.3,1,0.7,1.4,1.2V37H217.4z M214.7,43.7c0.5-0.3,0.9-0.6,1.1-1.1
		c0.3-0.5,0.4-1,0.4-1.6c0-0.6-0.1-1.1-0.4-1.6c-0.3-0.5-0.7-0.8-1.1-1.1c-0.5-0.3-1-0.4-1.7-0.4c-0.6,0-1.2,0.1-1.6,0.4
		s-0.9,0.6-1.1,1.1c-0.3,0.5-0.4,1-0.4,1.6c0,0.6,0.1,1.1,0.4,1.6c0.3,0.5,0.7,0.8,1.1,1.1c0.5,0.3,1,0.4,1.6,0.4
		C213.7,44.1,214.3,44,214.7,43.7z"/>
	<path class="st0" d="M222.3,34.8c-0.3,0.3-0.4,0.7-0.4,1.2v1h2.6v1h-2.6v7.5h-1.1V38h-1.5v-1h1.5v-1c0-0.8,0.2-1.4,0.7-1.8
		c0.4-0.4,1.1-0.7,1.9-0.7c0.3,0,0.6,0,0.9,0.1s0.5,0.2,0.8,0.4l-0.4,0.8c-0.3-0.3-0.7-0.4-1.2-0.4
		C222.9,34.4,222.5,34.6,222.3,34.8z"/>
	<path class="st0" d="M233.6,37v8.4h-1.1v-1.5c-0.3,0.5-0.7,0.9-1.2,1.2c-0.5,0.3-1.1,0.4-1.8,0.4c-1.1,0-2-0.3-2.6-0.9
		s-1-1.5-1-2.7V37h1.1v4.8c0,0.9,0.2,1.6,0.7,2s1.1,0.7,1.9,0.7c0.9,0,1.6-0.3,2.1-0.8c0.5-0.5,0.8-1.3,0.8-2.2V37H233.6z"/>
	<path class="st0" d="M236.8,33.6h1.1v11.9h-1.1V33.6z"/>
	<path class="st0" d="M252.6,41.6h-7c0.1,0.9,0.4,1.6,1,2.1c0.6,0.5,1.4,0.8,2.3,0.8c0.5,0,1-0.1,1.4-0.3s0.8-0.5,1.1-0.8l0.6,0.7
		c-0.4,0.4-0.8,0.8-1.4,1c-0.6,0.2-1.2,0.4-1.8,0.4c-0.9,0-1.6-0.2-2.3-0.6c-0.7-0.4-1.2-0.9-1.6-1.5c-0.4-0.7-0.6-1.4-0.6-2.2
		s0.2-1.6,0.5-2.2c0.4-0.7,0.8-1.2,1.5-1.5c0.6-0.4,1.3-0.5,2.1-0.5c0.8,0,1.5,0.2,2.1,0.5c0.6,0.4,1.1,0.9,1.5,1.5
		c0.4,0.6,0.5,1.4,0.5,2.2L252.6,41.6z M246.5,38.7c-0.5,0.5-0.9,1.2-0.9,2h6c-0.1-0.8-0.4-1.5-0.9-2c-0.5-0.5-1.2-0.8-2.1-0.8
		C247.7,37.9,247,38.2,246.5,38.7z"/>
	<path class="st0" d="M260.1,45.4l-2.7-3.5l-2.7,3.5h-1.3l3.3-4.3l-3.2-4.1h1.3l2.5,3.3l2.5-3.3h1.2l-3.2,4.1l3.4,4.3H260.1z"/>
	<path class="st0" d="M269.7,37.5c0.6,0.4,1.1,0.9,1.5,1.5c0.4,0.7,0.5,1.4,0.5,2.2c0,0.8-0.2,1.6-0.5,2.2c-0.4,0.7-0.9,1.2-1.5,1.5
		c-0.6,0.4-1.4,0.5-2.2,0.5c-0.7,0-1.3-0.1-1.8-0.4c-0.5-0.3-1-0.7-1.4-1.2v4.7h-1.1V37h1.1v1.7c0.3-0.6,0.8-1,1.4-1.3
		c0.6-0.3,1.2-0.4,1.9-0.4C268.4,36.9,269.1,37.1,269.7,37.5z M269.1,44.1c0.5-0.3,0.9-0.7,1.1-1.2c0.3-0.5,0.4-1.1,0.4-1.7
		s-0.1-1.2-0.4-1.7c-0.3-0.5-0.6-0.9-1.1-1.2c-0.5-0.3-1-0.4-1.6-0.4c-0.6,0-1.1,0.1-1.6,0.4c-0.5,0.3-0.8,0.7-1.1,1.2
		c-0.3,0.5-0.4,1.1-0.4,1.7s0.1,1.2,0.4,1.7c0.3,0.5,0.6,0.9,1.1,1.2c0.5,0.3,1,0.4,1.6,0.4C268.1,44.5,268.6,44.4,269.1,44.1z"/>
	<path class="st0" d="M281.4,41.6h-7c0.1,0.9,0.4,1.6,1,2.1c0.6,0.5,1.4,0.8,2.3,0.8c0.5,0,1-0.1,1.4-0.3s0.8-0.5,1.1-0.8l0.6,0.7
		c-0.4,0.4-0.8,0.8-1.4,1c-0.6,0.2-1.2,0.4-1.8,0.4c-0.9,0-1.6-0.2-2.3-0.6c-0.7-0.4-1.2-0.9-1.6-1.5c-0.4-0.7-0.6-1.4-0.6-2.2
		s0.2-1.6,0.5-2.2c0.4-0.7,0.8-1.2,1.5-1.5c0.6-0.4,1.3-0.5,2.1-0.5c0.8,0,1.5,0.2,2.1,0.5c0.6,0.4,1.1,0.9,1.5,1.5
		c0.4,0.6,0.5,1.4,0.5,2.2L281.4,41.6z M275.3,38.7c-0.5,0.5-0.9,1.2-0.9,2h6c-0.1-0.8-0.4-1.5-0.9-2c-0.5-0.5-1.2-0.8-2.1-0.8
		C276.5,37.9,275.9,38.2,275.3,38.7z"/>
	<path class="st0" d="M286,37.4c0.5-0.3,1.2-0.4,2-0.4V38l-0.3,0c-0.9,0-1.6,0.3-2.1,0.8c-0.5,0.5-0.8,1.3-0.8,2.3v4.3h-1.1V37h1.1
		v1.6C285.1,38.1,285.5,37.7,286,37.4z"/>
	<path class="st0" d="M290,34.9c-0.2-0.2-0.2-0.4-0.2-0.6c0-0.2,0.1-0.4,0.2-0.6c0.2-0.2,0.4-0.2,0.6-0.2c0.2,0,0.4,0.1,0.6,0.2
		c0.2,0.2,0.2,0.3,0.2,0.6c0,0.2-0.1,0.4-0.2,0.6c-0.2,0.2-0.4,0.2-0.6,0.2C290.4,35.2,290.2,35.1,290,34.9z M290,37h1.1v8.4H290V37
		z"/>
	<path class="st0" d="M301.7,41.6h-7c0.1,0.9,0.4,1.6,1,2.1c0.6,0.5,1.4,0.8,2.3,0.8c0.5,0,1-0.1,1.4-0.3s0.8-0.5,1.1-0.8l0.6,0.7
		c-0.4,0.4-0.8,0.8-1.4,1c-0.6,0.2-1.2,0.4-1.8,0.4c-0.9,0-1.6-0.2-2.3-0.6c-0.7-0.4-1.2-0.9-1.6-1.5c-0.4-0.7-0.6-1.4-0.6-2.2
		s0.2-1.6,0.5-2.2c0.4-0.7,0.8-1.2,1.5-1.5c0.6-0.4,1.3-0.5,2.1-0.5c0.8,0,1.5,0.2,2.1,0.5c0.6,0.4,1.1,0.9,1.5,1.5
		c0.4,0.6,0.5,1.4,0.5,2.2L301.7,41.6z M295.6,38.7c-0.5,0.5-0.9,1.2-0.9,2h6c-0.1-0.8-0.4-1.5-0.9-2c-0.5-0.5-1.2-0.8-2.1-0.8
		C296.8,37.9,296.1,38.2,295.6,38.7z"/>
	<path class="st0" d="M310.8,37.9c0.6,0.6,0.9,1.5,0.9,2.7v4.9h-1.1v-4.8c0-0.9-0.2-1.5-0.7-2c-0.4-0.5-1.1-0.7-1.9-0.7
		c-0.9,0-1.6,0.3-2.2,0.8c-0.5,0.5-0.8,1.3-0.8,2.2v4.4H304V37h1.1v1.6c0.3-0.5,0.7-0.9,1.3-1.2c0.5-0.3,1.2-0.4,1.9-0.4
		C309.3,36.9,310.2,37.3,310.8,37.9z"/>
	<path class="st0" d="M316.1,45c-0.7-0.4-1.2-0.9-1.5-1.5c-0.4-0.7-0.6-1.4-0.6-2.2s0.2-1.6,0.6-2.2c0.4-0.7,0.9-1.2,1.5-1.5
		c0.7-0.4,1.4-0.5,2.2-0.5c0.7,0,1.4,0.1,1.9,0.4c0.6,0.3,1,0.7,1.4,1.2l-0.8,0.6c-0.3-0.4-0.6-0.7-1.1-0.9s-0.9-0.3-1.4-0.3
		c-0.6,0-1.2,0.1-1.6,0.4s-0.9,0.7-1.1,1.2c-0.3,0.5-0.4,1.1-0.4,1.7c0,0.7,0.1,1.2,0.4,1.7c0.3,0.5,0.7,0.9,1.1,1.2s1,0.4,1.6,0.4
		c0.5,0,1-0.1,1.4-0.3s0.8-0.5,1.1-0.9l0.8,0.6c-0.3,0.5-0.8,1-1.4,1.2c-0.6,0.3-1.2,0.4-1.9,0.4C317.5,45.5,316.8,45.3,316.1,45z"
		/>
	<path class="st0" d="M331.1,41.6h-7c0.1,0.9,0.4,1.6,1,2.1c0.6,0.5,1.4,0.8,2.3,0.8c0.5,0,1-0.1,1.4-0.3s0.8-0.5,1.1-0.8l0.6,0.7
		c-0.4,0.4-0.8,0.8-1.4,1c-0.6,0.2-1.2,0.4-1.8,0.4c-0.9,0-1.6-0.2-2.3-0.6c-0.7-0.4-1.2-0.9-1.6-1.5c-0.4-0.7-0.6-1.4-0.6-2.2
		s0.2-1.6,0.5-2.2c0.4-0.7,0.8-1.2,1.5-1.5c0.6-0.4,1.3-0.5,2.1-0.5c0.8,0,1.5,0.2,2.1,0.5c0.6,0.4,1.1,0.9,1.5,1.5
		c0.4,0.6,0.5,1.4,0.5,2.2L331.1,41.6z M325,38.7c-0.5,0.5-0.9,1.2-0.9,2h6c-0.1-0.8-0.4-1.5-0.9-2c-0.5-0.5-1.2-0.8-2.1-0.8
		C326.2,37.9,325.5,38.2,325,38.7z"/>
	<path class="st0" d="M333.7,45.2c-0.6-0.2-1.1-0.4-1.5-0.7l0.5-0.9c0.4,0.3,0.8,0.5,1.3,0.7c0.5,0.2,1.1,0.3,1.7,0.3
		c0.8,0,1.3-0.1,1.7-0.4c0.4-0.2,0.6-0.6,0.6-1c0-0.3-0.1-0.6-0.3-0.7c-0.2-0.2-0.5-0.3-0.8-0.4c-0.3-0.1-0.7-0.2-1.2-0.3
		c-0.7-0.1-1.2-0.3-1.6-0.4s-0.8-0.4-1.1-0.7c-0.3-0.3-0.4-0.8-0.4-1.3c0-0.7,0.3-1.3,0.9-1.7c0.6-0.4,1.4-0.7,2.4-0.7
		c0.5,0,1.1,0.1,1.6,0.2s1,0.3,1.3,0.6l-0.5,0.9c-0.7-0.5-1.5-0.7-2.5-0.7c-0.7,0-1.3,0.1-1.6,0.4c-0.4,0.3-0.6,0.6-0.6,1
		c0,0.3,0.1,0.6,0.3,0.8c0.2,0.2,0.5,0.3,0.8,0.4c0.3,0.1,0.7,0.2,1.3,0.3c0.7,0.1,1.2,0.3,1.6,0.4s0.8,0.3,1,0.7
		c0.3,0.3,0.4,0.7,0.4,1.3c0,0.7-0.3,1.3-0.9,1.8c-0.6,0.4-1.5,0.6-2.6,0.6C335,45.5,334.3,45.4,333.7,45.2z"/>
	<path class="st0" d="M10.5,57c0.6,0.5,0.9,1.4,0.9,2.4v5.2h-1.1v-1.3c-0.3,0.4-0.6,0.8-1.1,1c-0.5,0.2-1.1,0.4-1.8,0.4
		c-0.9,0-1.7-0.2-2.2-0.7c-0.6-0.4-0.8-1-0.8-1.8c0-0.7,0.3-1.3,0.8-1.7c0.5-0.4,1.3-0.7,2.5-0.7h2.7v-0.5c0-0.7-0.2-1.3-0.6-1.7
		c-0.4-0.4-1-0.6-1.8-0.6c-0.5,0-1,0.1-1.5,0.3c-0.5,0.2-0.9,0.4-1.3,0.7l-0.5-0.8c0.4-0.4,0.9-0.6,1.5-0.8c0.6-0.2,1.2-0.3,1.9-0.3
		C9.1,56.1,9.9,56.4,10.5,57z M9.2,63.4c0.5-0.3,0.8-0.7,1-1.3v-1.4H7.6c-1.4,0-2.2,0.5-2.2,1.5c0,0.5,0.2,0.9,0.6,1.2
		c0.4,0.3,0.9,0.4,1.6,0.4C8.2,63.8,8.8,63.7,9.2,63.4z"/>
	<path class="st0" d="M15.8,64.2c-0.7-0.4-1.2-0.9-1.5-1.5c-0.4-0.7-0.6-1.4-0.6-2.2s0.2-1.6,0.6-2.2c0.4-0.7,0.9-1.2,1.5-1.5
		c0.7-0.4,1.4-0.5,2.2-0.5c0.7,0,1.4,0.1,1.9,0.4c0.6,0.3,1,0.7,1.4,1.2l-0.8,0.6c-0.3-0.4-0.6-0.7-1.1-0.9s-0.9-0.3-1.4-0.3
		c-0.6,0-1.2,0.1-1.6,0.4c-0.5,0.3-0.9,0.7-1.1,1.2s-0.4,1.1-0.4,1.7c0,0.7,0.1,1.2,0.4,1.7c0.3,0.5,0.7,0.9,1.1,1.2
		c0.5,0.3,1,0.4,1.6,0.4c0.5,0,1-0.1,1.4-0.3s0.8-0.5,1.1-0.9l0.8,0.6c-0.3,0.5-0.8,1-1.4,1.2c-0.6,0.3-1.2,0.4-1.9,0.4
		C17.2,64.7,16.4,64.5,15.8,64.2z"/>
	<path class="st0" d="M28,64.1c-0.2,0.2-0.5,0.3-0.8,0.4c-0.3,0.1-0.6,0.2-1,0.2c-0.8,0-1.4-0.2-1.8-0.6c-0.4-0.4-0.6-1-0.6-1.8
		v-5.1h-1.5v-1h1.5v-1.8h1.1v1.8h2.6v1h-2.6v5c0,0.5,0.1,0.9,0.4,1.1c0.3,0.3,0.6,0.4,1.1,0.4c0.2,0,0.5,0,0.7-0.1s0.4-0.2,0.6-0.3
		L28,64.1z"/>
	<path class="st0" d="M30.1,54.1c-0.2-0.2-0.2-0.4-0.2-0.6c0-0.2,0.1-0.4,0.2-0.6c0.2-0.2,0.4-0.2,0.6-0.2c0.2,0,0.4,0.1,0.6,0.2
		c0.2,0.2,0.2,0.3,0.2,0.6c0,0.2-0.1,0.4-0.2,0.6c-0.2,0.2-0.4,0.2-0.6,0.2C30.5,54.4,30.3,54.3,30.1,54.1z M30.1,56.2h1.1v8.4h-1.1
		V56.2z"/>
	<path class="st0" d="M41.5,56.2l-3.7,8.4h-1.2l-3.7-8.4H34l3.2,7.2l3.2-7.2H41.5z"/>
	<path class="st0" d="M48.3,57c0.6,0.5,0.9,1.4,0.9,2.4v5.2h-1.1v-1.3c-0.3,0.4-0.6,0.8-1.1,1c-0.5,0.2-1.1,0.4-1.8,0.4
		c-0.9,0-1.7-0.2-2.2-0.7c-0.6-0.4-0.8-1-0.8-1.8c0-0.7,0.3-1.3,0.8-1.7c0.5-0.4,1.3-0.7,2.5-0.7H48v-0.5c0-0.7-0.2-1.3-0.6-1.7
		c-0.4-0.4-1-0.6-1.8-0.6c-0.5,0-1,0.1-1.5,0.3c-0.5,0.2-0.9,0.4-1.3,0.7l-0.5-0.8c0.4-0.4,0.9-0.6,1.5-0.8c0.6-0.2,1.2-0.3,1.9-0.3
		C46.9,56.1,47.7,56.4,48.3,57z M47,63.4c0.5-0.3,0.8-0.7,1-1.3v-1.4h-2.6c-1.4,0-2.2,0.5-2.2,1.5c0,0.5,0.2,0.9,0.6,1.2
		c0.4,0.3,0.9,0.4,1.6,0.4C46,63.8,46.6,63.7,47,63.4z"/>
	<path class="st0" d="M56.7,64.1c-0.2,0.2-0.5,0.3-0.8,0.4c-0.3,0.1-0.6,0.2-1,0.2c-0.8,0-1.4-0.2-1.8-0.6c-0.4-0.4-0.6-1-0.6-1.8
		v-5.1H51v-1h1.5v-1.8h1.1v1.8h2.6v1h-2.6v5c0,0.5,0.1,0.9,0.4,1.1c0.3,0.3,0.6,0.4,1.1,0.4c0.2,0,0.5,0,0.7-0.1s0.4-0.2,0.6-0.3
		L56.7,64.1z"/>
	<path class="st0" d="M58.7,54.1c-0.2-0.2-0.2-0.4-0.2-0.6c0-0.2,0.1-0.4,0.2-0.6c0.2-0.2,0.4-0.2,0.6-0.2c0.2,0,0.4,0.1,0.6,0.2
		c0.2,0.2,0.2,0.3,0.2,0.6c0,0.2-0.1,0.4-0.2,0.6c-0.2,0.2-0.4,0.2-0.6,0.2C59.1,54.4,58.9,54.3,58.7,54.1z M58.8,56.2h1.1v8.4h-1.1
		V56.2z"/>
	<path class="st0" d="M69.9,57.1c0.6,0.6,0.9,1.5,0.9,2.7v4.9h-1.1v-4.8c0-0.9-0.2-1.5-0.7-2c-0.4-0.5-1.1-0.7-1.9-0.7
		c-0.9,0-1.6,0.3-2.2,0.8c-0.5,0.5-0.8,1.3-0.8,2.2v4.4h-1.1v-8.4h1.1v1.6c0.3-0.5,0.7-0.9,1.3-1.2c0.5-0.3,1.2-0.4,1.9-0.4
		C68.4,56.1,69.3,56.5,69.9,57.1z"/>
	<path class="st0" d="M81.7,56.2v7.4c0,1.4-0.3,2.5-1,3.2c-0.7,0.7-1.8,1-3.2,1c-0.8,0-1.5-0.1-2.2-0.3c-0.7-0.2-1.3-0.5-1.7-1
		l0.6-0.9c0.4,0.4,0.9,0.6,1.5,0.8c0.6,0.2,1.2,0.3,1.8,0.3c1.1,0,1.9-0.2,2.4-0.7s0.8-1.3,0.8-2.3v-1.1c-0.4,0.5-0.8,0.9-1.4,1.2
		c-0.6,0.3-1.2,0.4-1.9,0.4c-0.8,0-1.5-0.2-2.2-0.5c-0.6-0.3-1.2-0.8-1.5-1.5c-0.4-0.6-0.6-1.3-0.6-2.1c0-0.8,0.2-1.5,0.6-2.1
		c0.4-0.6,0.9-1.1,1.5-1.4c0.6-0.3,1.4-0.5,2.2-0.5c0.7,0,1.4,0.1,1.9,0.4s1,0.7,1.4,1.2v-1.6H81.7z M79.1,62.9
		c0.5-0.3,0.9-0.6,1.1-1.1c0.3-0.5,0.4-1,0.4-1.6c0-0.6-0.1-1.1-0.4-1.6c-0.3-0.5-0.7-0.8-1.1-1.1c-0.5-0.3-1-0.4-1.7-0.4
		c-0.6,0-1.2,0.1-1.6,0.4c-0.5,0.3-0.9,0.6-1.1,1.1c-0.3,0.5-0.4,1-0.4,1.6c0,0.6,0.1,1.1,0.4,1.6s0.7,0.8,1.1,1.1
		c0.5,0.3,1,0.4,1.6,0.4C78,63.3,78.6,63.2,79.1,62.9z"/>
	<path class="st0" d="M102.1,57.1c0.6,0.6,0.9,1.5,0.9,2.7v4.9h-1.1v-4.8c0-0.9-0.2-1.5-0.6-2c-0.4-0.5-1-0.7-1.8-0.7
		c-0.9,0-1.6,0.3-2.1,0.8s-0.8,1.3-0.8,2.2v4.4h-1.1v-4.8c0-0.9-0.2-1.5-0.6-2c-0.4-0.5-1-0.7-1.8-0.7c-0.9,0-1.5,0.3-2.1,0.8
		c-0.5,0.5-0.8,1.3-0.8,2.2v4.4h-1.1v-8.4h1.1v1.5c0.3-0.5,0.7-0.9,1.2-1.2s1.1-0.4,1.8-0.4c0.7,0,1.3,0.1,1.8,0.4
		c0.5,0.3,0.9,0.7,1.2,1.3c0.3-0.6,0.8-1,1.3-1.3s1.2-0.5,2-0.5C100.7,56.1,101.5,56.4,102.1,57.1z"/>
	<path class="st0" d="M113.4,60.8h-7c0.1,0.9,0.4,1.6,1,2.1s1.4,0.8,2.3,0.8c0.5,0,1-0.1,1.4-0.3c0.4-0.2,0.8-0.5,1.1-0.8l0.6,0.7
		c-0.4,0.4-0.8,0.8-1.4,1c-0.6,0.2-1.2,0.4-1.8,0.4c-0.9,0-1.6-0.2-2.3-0.6c-0.7-0.4-1.2-0.9-1.6-1.5c-0.4-0.7-0.6-1.4-0.6-2.2
		s0.2-1.6,0.5-2.2c0.4-0.7,0.8-1.2,1.5-1.5c0.6-0.4,1.3-0.5,2.1-0.5c0.8,0,1.5,0.2,2.1,0.5c0.6,0.4,1.1,0.9,1.5,1.5s0.5,1.4,0.5,2.2
		L113.4,60.8z M107.3,57.9c-0.5,0.5-0.9,1.2-0.9,2h6c-0.1-0.8-0.4-1.5-0.9-2c-0.5-0.5-1.2-0.8-2.1-0.8
		C108.6,57.1,107.9,57.4,107.3,57.9z"/>
	<path class="st0" d="M121,57c0.6,0.5,0.9,1.4,0.9,2.4v5.2h-1.1v-1.3c-0.3,0.4-0.6,0.8-1.1,1c-0.5,0.2-1.1,0.4-1.8,0.4
		c-0.9,0-1.7-0.2-2.2-0.7c-0.6-0.4-0.8-1-0.8-1.8c0-0.7,0.3-1.3,0.8-1.7c0.5-0.4,1.3-0.7,2.5-0.7h2.7v-0.5c0-0.7-0.2-1.3-0.6-1.7
		c-0.4-0.4-1-0.6-1.8-0.6c-0.5,0-1,0.1-1.5,0.3c-0.5,0.2-0.9,0.4-1.3,0.7l-0.5-0.8c0.4-0.4,0.9-0.6,1.5-0.8c0.6-0.2,1.2-0.3,1.9-0.3
		C119.6,56.1,120.4,56.4,121,57z M119.7,63.4c0.5-0.3,0.8-0.7,1-1.3v-1.4h-2.6c-1.4,0-2.2,0.5-2.2,1.5c0,0.5,0.2,0.9,0.6,1.2
		c0.4,0.3,0.9,0.4,1.6,0.4C118.7,63.8,119.3,63.7,119.7,63.4z"/>
	<path class="st0" d="M131.8,57.1c0.6,0.6,0.9,1.5,0.9,2.7v4.9h-1.1v-4.8c0-0.9-0.2-1.5-0.7-2c-0.4-0.5-1.1-0.7-1.9-0.7
		c-0.9,0-1.6,0.3-2.2,0.8c-0.5,0.5-0.8,1.3-0.8,2.2v4.4H125v-8.4h1.1v1.6c0.3-0.5,0.7-0.9,1.3-1.2c0.5-0.3,1.2-0.4,1.9-0.4
		C130.3,56.1,131.2,56.5,131.8,57.1z"/>
	<path class="st0" d="M135.8,54.1c-0.2-0.2-0.2-0.4-0.2-0.6c0-0.2,0.1-0.4,0.2-0.6c0.2-0.2,0.4-0.2,0.6-0.2c0.2,0,0.4,0.1,0.6,0.2
		c0.2,0.2,0.2,0.3,0.2,0.6c0,0.2-0.1,0.4-0.2,0.6c-0.2,0.2-0.4,0.2-0.6,0.2C136.1,54.4,135.9,54.3,135.8,54.1z M135.8,56.2h1.1v8.4
		h-1.1V56.2z"/>
	<path class="st0" d="M146.9,57.1c0.6,0.6,0.9,1.5,0.9,2.7v4.9h-1.1v-4.8c0-0.9-0.2-1.5-0.7-2c-0.4-0.5-1.1-0.7-1.9-0.7
		c-0.9,0-1.6,0.3-2.2,0.8c-0.5,0.5-0.8,1.3-0.8,2.2v4.4h-1.1v-8.4h1.1v1.6c0.3-0.5,0.7-0.9,1.3-1.2c0.5-0.3,1.2-0.4,1.9-0.4
		C145.5,56.1,146.3,56.5,146.9,57.1z"/>
	<path class="st0" d="M158.8,56.2v7.4c0,1.4-0.3,2.5-1,3.2c-0.7,0.7-1.8,1-3.2,1c-0.8,0-1.5-0.1-2.2-0.3c-0.7-0.2-1.3-0.5-1.7-1
		l0.6-0.9c0.4,0.4,0.9,0.6,1.5,0.8s1.2,0.3,1.8,0.3c1.1,0,1.9-0.2,2.4-0.7c0.5-0.5,0.8-1.3,0.8-2.3v-1.1c-0.4,0.5-0.8,0.9-1.4,1.2
		c-0.6,0.3-1.2,0.4-1.9,0.4c-0.8,0-1.5-0.2-2.2-0.5s-1.2-0.8-1.5-1.5s-0.6-1.3-0.6-2.1c0-0.8,0.2-1.5,0.6-2.1s0.9-1.1,1.5-1.4
		c0.6-0.3,1.4-0.5,2.2-0.5c0.7,0,1.4,0.1,1.9,0.4c0.6,0.3,1,0.7,1.4,1.2v-1.6H158.8z M156.1,62.9c0.5-0.3,0.9-0.6,1.1-1.1
		c0.3-0.5,0.4-1,0.4-1.6c0-0.6-0.1-1.1-0.4-1.6c-0.3-0.5-0.7-0.8-1.1-1.1c-0.5-0.3-1-0.4-1.7-0.4c-0.6,0-1.2,0.1-1.6,0.4
		s-0.9,0.6-1.1,1.1c-0.3,0.5-0.4,1-0.4,1.6c0,0.6,0.1,1.1,0.4,1.6c0.3,0.5,0.7,0.8,1.1,1.1c0.5,0.3,1,0.4,1.6,0.4
		C155.1,63.3,155.6,63.2,156.1,62.9z"/>
	<path class="st0" d="M163.6,54c-0.3,0.3-0.4,0.7-0.4,1.2v1h2.6v1h-2.6v7.5h-1.1v-7.5h-1.5v-1h1.5v-1c0-0.8,0.2-1.4,0.7-1.8
		c0.4-0.4,1.1-0.7,1.9-0.7c0.3,0,0.6,0,0.9,0.1s0.5,0.2,0.8,0.4L166,54c-0.3-0.3-0.7-0.4-1.2-0.4C164.2,53.6,163.9,53.8,163.6,54z"
		/>
	<path class="st0" d="M175,56.2v8.4h-1.1v-1.5c-0.3,0.5-0.7,0.9-1.2,1.2c-0.5,0.3-1.1,0.4-1.8,0.4c-1.1,0-2-0.3-2.6-0.9
		s-1-1.5-1-2.7v-4.9h1.1V61c0,0.9,0.2,1.6,0.7,2s1.1,0.7,1.9,0.7c0.9,0,1.6-0.3,2.1-0.8c0.5-0.5,0.8-1.3,0.8-2.2v-4.4H175z"/>
	<path class="st0" d="M178.1,52.8h1.1v11.9h-1.1V52.8z"/>
	<path class="st0" d="M186.6,54.1c-0.2-0.2-0.2-0.4-0.2-0.6c0-0.2,0.1-0.4,0.2-0.6c0.2-0.2,0.4-0.2,0.6-0.2c0.2,0,0.4,0.1,0.6,0.2
		c0.2,0.2,0.2,0.3,0.2,0.6c0,0.2-0.1,0.4-0.2,0.6c-0.2,0.2-0.4,0.2-0.6,0.2C187,54.4,186.8,54.3,186.6,54.1z M186.6,56.2h1.1v8.4
		h-1.1V56.2z"/>
	<path class="st0" d="M197.7,57.1c0.6,0.6,0.9,1.5,0.9,2.7v4.9h-1.1v-4.8c0-0.9-0.2-1.5-0.7-2c-0.4-0.5-1.1-0.7-1.9-0.7
		c-0.9,0-1.6,0.3-2.2,0.8c-0.5,0.5-0.8,1.3-0.8,2.2v4.4h-1.1v-8.4h1.1v1.6c0.3-0.5,0.7-0.9,1.3-1.2c0.5-0.3,1.2-0.4,1.9-0.4
		C196.3,56.1,197.1,56.5,197.7,57.1z"/>
	<path class="st0" d="M208.7,56.2l-3.7,8.4h-1.2l-3.7-8.4h1.2l3.2,7.2l3.2-7.2H208.7z"/>
	<path class="st0" d="M217.4,60.8h-7c0.1,0.9,0.4,1.6,1,2.1c0.6,0.5,1.4,0.8,2.3,0.8c0.5,0,1-0.1,1.4-0.3s0.8-0.5,1.1-0.8l0.6,0.7
		c-0.4,0.4-0.8,0.8-1.4,1c-0.6,0.2-1.2,0.4-1.8,0.4c-0.9,0-1.6-0.2-2.3-0.6c-0.7-0.4-1.2-0.9-1.6-1.5c-0.4-0.7-0.6-1.4-0.6-2.2
		s0.2-1.6,0.5-2.2c0.4-0.7,0.8-1.2,1.5-1.5c0.6-0.4,1.3-0.5,2.1-0.5c0.8,0,1.5,0.2,2.1,0.5c0.6,0.4,1.1,0.9,1.5,1.5
		c0.4,0.6,0.5,1.4,0.5,2.2L217.4,60.8z M211.3,57.9c-0.5,0.5-0.9,1.2-0.9,2h6c-0.1-0.8-0.4-1.5-0.9-2c-0.5-0.5-1.2-0.8-2.1-0.8
		C212.5,57.1,211.8,57.4,211.3,57.9z"/>
	<path class="st0" d="M220,64.4c-0.6-0.2-1.1-0.4-1.5-0.7l0.5-0.9c0.4,0.3,0.8,0.5,1.3,0.7c0.5,0.2,1.1,0.3,1.7,0.3
		c0.8,0,1.3-0.1,1.7-0.4c0.4-0.2,0.6-0.6,0.6-1c0-0.3-0.1-0.6-0.3-0.7c-0.2-0.2-0.5-0.3-0.8-0.4c-0.3-0.1-0.7-0.2-1.2-0.3
		c-0.7-0.1-1.2-0.3-1.6-0.4s-0.8-0.4-1.1-0.7c-0.3-0.3-0.4-0.8-0.4-1.3c0-0.7,0.3-1.3,0.9-1.7c0.6-0.4,1.4-0.7,2.4-0.7
		c0.5,0,1.1,0.1,1.6,0.2s1,0.3,1.3,0.6l-0.5,0.9c-0.7-0.5-1.5-0.7-2.5-0.7c-0.7,0-1.3,0.1-1.6,0.4c-0.4,0.3-0.6,0.6-0.6,1
		c0,0.3,0.1,0.6,0.3,0.8c0.2,0.2,0.5,0.3,0.8,0.4c0.3,0.1,0.7,0.2,1.3,0.3c0.7,0.1,1.2,0.3,1.6,0.4s0.8,0.3,1,0.7
		c0.3,0.3,0.4,0.7,0.4,1.3c0,0.7-0.3,1.3-0.9,1.8c-0.6,0.4-1.5,0.6-2.6,0.6C221.3,64.7,220.6,64.6,220,64.4z"/>
	<path class="st0" d="M232,64.1c-0.2,0.2-0.5,0.3-0.8,0.4c-0.3,0.1-0.6,0.2-1,0.2c-0.8,0-1.4-0.2-1.8-0.6c-0.4-0.4-0.6-1-0.6-1.8
		v-5.1h-1.5v-1h1.5v-1.8h1.1v1.8h2.6v1h-2.6v5c0,0.5,0.1,0.9,0.4,1.1c0.2,0.3,0.6,0.4,1.1,0.4c0.2,0,0.5,0,0.7-0.1s0.4-0.2,0.6-0.3
		L232,64.1z"/>
	<path class="st0" d="M247,57.1c0.6,0.6,0.9,1.5,0.9,2.7v4.9h-1.1v-4.8c0-0.9-0.2-1.5-0.6-2c-0.4-0.5-1-0.7-1.8-0.7
		c-0.9,0-1.6,0.3-2.1,0.8c-0.5,0.5-0.8,1.3-0.8,2.2v4.4h-1.1v-4.8c0-0.9-0.2-1.5-0.6-2c-0.4-0.5-1-0.7-1.8-0.7
		c-0.9,0-1.5,0.3-2.1,0.8c-0.5,0.5-0.8,1.3-0.8,2.2v4.4H234v-8.4h1.1v1.5c0.3-0.5,0.7-0.9,1.2-1.2s1.1-0.4,1.8-0.4
		c0.7,0,1.3,0.1,1.8,0.4c0.5,0.3,0.9,0.7,1.2,1.3c0.3-0.6,0.8-1,1.3-1.3s1.2-0.5,2-0.5C245.6,56.1,246.4,56.4,247,57.1z"/>
	<path class="st0" d="M258.4,60.8h-7c0.1,0.9,0.4,1.6,1,2.1c0.6,0.5,1.4,0.8,2.3,0.8c0.5,0,1-0.1,1.4-0.3s0.8-0.5,1.1-0.8l0.6,0.7
		c-0.4,0.4-0.8,0.8-1.4,1c-0.6,0.2-1.2,0.4-1.8,0.4c-0.9,0-1.6-0.2-2.3-0.6c-0.7-0.4-1.2-0.9-1.6-1.5c-0.4-0.7-0.6-1.4-0.6-2.2
		s0.2-1.6,0.5-2.2c0.4-0.7,0.8-1.2,1.5-1.5c0.6-0.4,1.3-0.5,2.1-0.5c0.8,0,1.5,0.2,2.1,0.5c0.6,0.4,1.1,0.9,1.5,1.5
		c0.4,0.6,0.5,1.4,0.5,2.2L258.4,60.8z M252.3,57.9c-0.5,0.5-0.9,1.2-0.9,2h6c-0.1-0.8-0.4-1.5-0.9-2c-0.5-0.5-1.2-0.8-2.1-0.8
		C253.5,57.1,252.8,57.4,252.3,57.9z"/>
	<path class="st0" d="M267.5,57.1c0.6,0.6,0.9,1.5,0.9,2.7v4.9h-1.1v-4.8c0-0.9-0.2-1.5-0.7-2c-0.4-0.5-1.1-0.7-1.9-0.7
		c-0.9,0-1.6,0.3-2.2,0.8c-0.5,0.5-0.8,1.3-0.8,2.2v4.4h-1.1v-8.4h1.1v1.6c0.3-0.5,0.7-0.9,1.3-1.2c0.5-0.3,1.2-0.4,1.9-0.4
		C266,56.1,266.9,56.5,267.5,57.1z"/>
	<path class="st0" d="M276,64.1c-0.2,0.2-0.5,0.3-0.8,0.4c-0.3,0.1-0.6,0.2-1,0.2c-0.8,0-1.4-0.2-1.8-0.6c-0.4-0.4-0.6-1-0.6-1.8
		v-5.1h-1.5v-1h1.5v-1.8h1.1v1.8h2.6v1h-2.6v5c0,0.5,0.1,0.9,0.4,1.1c0.2,0.3,0.6,0.4,1.1,0.4c0.2,0,0.5,0,0.7-0.1s0.4-0.2,0.6-0.3
		L276,64.1z"/>
	<path class="st0" d="M278.3,64.4c-0.6-0.2-1.1-0.4-1.5-0.7l0.5-0.9c0.4,0.3,0.8,0.5,1.3,0.7c0.5,0.2,1.1,0.3,1.7,0.3
		c0.8,0,1.3-0.1,1.7-0.4c0.4-0.2,0.6-0.6,0.6-1c0-0.3-0.1-0.6-0.3-0.7c-0.2-0.2-0.5-0.3-0.8-0.4c-0.3-0.1-0.7-0.2-1.2-0.3
		c-0.7-0.1-1.2-0.3-1.6-0.4s-0.8-0.4-1.1-0.7c-0.3-0.3-0.4-0.8-0.4-1.3c0-0.7,0.3-1.3,0.9-1.7c0.6-0.4,1.4-0.7,2.4-0.7
		c0.5,0,1.1,0.1,1.6,0.2s1,0.3,1.3,0.6l-0.5,0.9c-0.7-0.5-1.5-0.7-2.5-0.7c-0.7,0-1.3,0.1-1.6,0.4c-0.4,0.3-0.6,0.6-0.6,1
		c0,0.3,0.1,0.6,0.3,0.8c0.2,0.2,0.5,0.3,0.8,0.4c0.3,0.1,0.7,0.2,1.3,0.3c0.7,0.1,1.2,0.3,1.6,0.4s0.8,0.3,1,0.7
		c0.3,0.3,0.4,0.7,0.4,1.3c0,0.7-0.3,1.3-0.9,1.8c-0.6,0.4-1.5,0.6-2.6,0.6C279.6,64.7,278.9,64.6,278.3,64.4z"/>
	<path class="st0" d="M295.5,57c0.6,0.5,0.9,1.4,0.9,2.4v5.2h-1.1v-1.3c-0.3,0.4-0.6,0.8-1.1,1c-0.5,0.2-1.1,0.4-1.8,0.4
		c-0.9,0-1.7-0.2-2.2-0.7c-0.6-0.4-0.8-1-0.8-1.8c0-0.7,0.3-1.3,0.8-1.7c0.5-0.4,1.3-0.7,2.5-0.7h2.7v-0.5c0-0.7-0.2-1.3-0.6-1.7
		c-0.4-0.4-1-0.6-1.8-0.6c-0.5,0-1,0.1-1.5,0.3c-0.5,0.2-0.9,0.4-1.3,0.7l-0.5-0.8c0.4-0.4,0.9-0.6,1.5-0.8c0.6-0.2,1.2-0.3,1.9-0.3
		C294.1,56.1,294.9,56.4,295.5,57z M294.2,63.4c0.5-0.3,0.8-0.7,1-1.3v-1.4h-2.6c-1.4,0-2.2,0.5-2.2,1.5c0,0.5,0.2,0.9,0.6,1.2
		c0.4,0.3,0.9,0.4,1.6,0.4C293.2,63.8,293.8,63.7,294.2,63.4z"/>
	<path class="st0" d="M306.3,57.1c0.6,0.6,0.9,1.5,0.9,2.7v4.9h-1.1v-4.8c0-0.9-0.2-1.5-0.7-2c-0.4-0.5-1.1-0.7-1.9-0.7
		c-0.9,0-1.6,0.3-2.2,0.8c-0.5,0.5-0.8,1.3-0.8,2.2v4.4h-1.1v-8.4h1.1v1.6c0.3-0.5,0.7-0.9,1.3-1.2c0.5-0.3,1.2-0.4,1.9-0.4
		C304.8,56.1,305.7,56.5,306.3,57.1z"/>
	<path class="st0" d="M318,52.8v11.9h-1.1V63c-0.3,0.6-0.8,1-1.4,1.3c-0.6,0.3-1.2,0.4-1.9,0.4c-0.8,0-1.5-0.2-2.1-0.5
		c-0.6-0.4-1.1-0.9-1.5-1.5c-0.4-0.7-0.5-1.4-0.5-2.2s0.2-1.6,0.5-2.2c0.4-0.7,0.9-1.2,1.5-1.5c0.6-0.4,1.4-0.5,2.1-0.5
		c0.7,0,1.3,0.1,1.8,0.4c0.5,0.3,1,0.7,1.4,1.2v-5.1H318z M315.4,63.3c0.5-0.3,0.8-0.7,1.1-1.2c0.3-0.5,0.4-1.1,0.4-1.7
		s-0.1-1.2-0.4-1.7c-0.3-0.5-0.6-0.9-1.1-1.2s-1-0.4-1.6-0.4c-0.6,0-1.1,0.1-1.6,0.4s-0.8,0.7-1.1,1.2c-0.3,0.5-0.4,1.1-0.4,1.7
		s0.1,1.2,0.4,1.7c0.3,0.5,0.6,0.9,1.1,1.2s1,0.4,1.6,0.4C314.4,63.7,314.9,63.6,315.4,63.3z"/>
	<path class="st0" d="M325.7,64.4c-0.6-0.2-1.1-0.4-1.5-0.7l0.5-0.9c0.4,0.3,0.8,0.5,1.3,0.7c0.5,0.2,1.1,0.3,1.7,0.3
		c0.8,0,1.3-0.1,1.7-0.4c0.4-0.2,0.6-0.6,0.6-1c0-0.3-0.1-0.6-0.3-0.7c-0.2-0.2-0.5-0.3-0.8-0.4c-0.3-0.1-0.7-0.2-1.2-0.3
		c-0.7-0.1-1.2-0.3-1.6-0.4s-0.8-0.4-1.1-0.7c-0.3-0.3-0.4-0.8-0.4-1.3c0-0.7,0.3-1.3,0.9-1.7c0.6-0.4,1.4-0.7,2.4-0.7
		c0.5,0,1.1,0.1,1.6,0.2s1,0.3,1.3,0.6l-0.5,0.9c-0.7-0.5-1.5-0.7-2.5-0.7c-0.7,0-1.3,0.1-1.6,0.4c-0.4,0.3-0.6,0.6-0.6,1
		c0,0.3,0.1,0.6,0.3,0.8c0.2,0.2,0.5,0.3,0.8,0.4c0.3,0.1,0.7,0.2,1.3,0.3c0.7,0.1,1.2,0.3,1.6,0.4s0.8,0.3,1,0.7
		c0.3,0.3,0.4,0.7,0.4,1.3c0,0.7-0.3,1.3-0.9,1.8c-0.6,0.4-1.5,0.6-2.6,0.6C327,64.7,326.3,64.6,325.7,64.4z"/>
	<path class="st0" d="M337.6,64.1c-0.2,0.2-0.5,0.3-0.8,0.4c-0.3,0.1-0.6,0.2-1,0.2c-0.8,0-1.4-0.2-1.8-0.6c-0.4-0.4-0.6-1-0.6-1.8
		v-5.1h-1.5v-1h1.5v-1.8h1.1v1.8h2.6v1h-2.6v5c0,0.5,0.1,0.9,0.4,1.1c0.2,0.3,0.6,0.4,1.1,0.4c0.2,0,0.5,0,0.7-0.1s0.4-0.2,0.6-0.3
		L337.6,64.1z"/>
	<path class="st0" d="M342,56.6c0.5-0.3,1.2-0.4,2-0.4v1.1l-0.3,0c-0.9,0-1.6,0.3-2.1,0.8c-0.5,0.5-0.8,1.3-0.8,2.3v4.3h-1.1v-8.4
		h1.1v1.6C341.1,57.3,341.5,56.9,342,56.6z"/>
	<path class="st0" d="M353.7,56.2v8.4h-1.1v-1.5c-0.3,0.5-0.7,0.9-1.2,1.2c-0.5,0.3-1.1,0.4-1.8,0.4c-1.1,0-2-0.3-2.6-0.9
		s-1-1.5-1-2.7v-4.9h1.1V61c0,0.9,0.2,1.6,0.7,2s1.1,0.7,1.9,0.7c0.9,0,1.6-0.3,2.1-0.8c0.5-0.5,0.8-1.3,0.8-2.2v-4.4H353.7z"/>
	<path class="st0" d="M358.1,64.2c-0.7-0.4-1.2-0.9-1.5-1.5c-0.4-0.7-0.6-1.4-0.6-2.2s0.2-1.6,0.6-2.2c0.4-0.7,0.9-1.2,1.5-1.5
		c0.7-0.4,1.4-0.5,2.2-0.5c0.7,0,1.4,0.1,1.9,0.4c0.6,0.3,1,0.7,1.4,1.2l-0.8,0.6c-0.3-0.4-0.6-0.7-1.1-0.9s-0.9-0.3-1.4-0.3
		c-0.6,0-1.2,0.1-1.6,0.4s-0.9,0.7-1.1,1.2c-0.3,0.5-0.4,1.1-0.4,1.7c0,0.7,0.1,1.2,0.4,1.7c0.3,0.5,0.7,0.9,1.1,1.2s1,0.4,1.6,0.4
		c0.5,0,1-0.1,1.4-0.3s0.8-0.5,1.1-0.9l0.8,0.6c-0.3,0.5-0.8,1-1.4,1.2c-0.6,0.3-1.2,0.4-1.9,0.4C359.5,64.7,358.8,64.5,358.1,64.2z
		"/>
	<path class="st0" d="M370.4,64.1c-0.2,0.2-0.5,0.3-0.8,0.4c-0.3,0.1-0.6,0.2-1,0.2c-0.8,0-1.4-0.2-1.8-0.6c-0.4-0.4-0.6-1-0.6-1.8
		v-5.1h-1.5v-1h1.5v-1.8h1.1v1.8h2.6v1h-2.6v5c0,0.5,0.1,0.9,0.4,1.1c0.2,0.3,0.6,0.4,1.1,0.4c0.2,0,0.5,0,0.7-0.1s0.4-0.2,0.6-0.3
		L370.4,64.1z"/>
	<path class="st0" d="M380.1,56.2v8.4H379v-1.5c-0.3,0.5-0.7,0.9-1.2,1.2c-0.5,0.3-1.1,0.4-1.8,0.4c-1.1,0-2-0.3-2.6-0.9
		s-1-1.5-1-2.7v-4.9h1.1V61c0,0.9,0.2,1.6,0.7,2s1.1,0.7,1.9,0.7c0.9,0,1.6-0.3,2.1-0.8c0.5-0.5,0.8-1.3,0.8-2.2v-4.4H380.1z"/>
	<path class="st0" d="M385.5,56.6c0.5-0.3,1.2-0.4,2-0.4v1.1l-0.3,0c-0.9,0-1.6,0.3-2.1,0.8c-0.5,0.5-0.8,1.3-0.8,2.3v4.3h-1.1v-8.4
		h1.1v1.6C384.6,57.3,385,56.9,385.5,56.6z"/>
	<path class="st0" d="M396.8,60.8h-7c0.1,0.9,0.4,1.6,1,2.1c0.6,0.5,1.4,0.8,2.3,0.8c0.5,0,1-0.1,1.4-0.3s0.8-0.5,1.1-0.8l0.6,0.7
		c-0.4,0.4-0.8,0.8-1.4,1c-0.6,0.2-1.2,0.4-1.8,0.4c-0.9,0-1.6-0.2-2.3-0.6c-0.7-0.4-1.2-0.9-1.6-1.5c-0.4-0.7-0.6-1.4-0.6-2.2
		s0.2-1.6,0.5-2.2c0.4-0.7,0.8-1.2,1.5-1.5c0.6-0.4,1.3-0.5,2.1-0.5c0.8,0,1.5,0.2,2.1,0.5c0.6,0.4,1.1,0.9,1.5,1.5
		c0.4,0.6,0.5,1.4,0.5,2.2L396.8,60.8z M390.7,57.9c-0.5,0.5-0.9,1.2-0.9,2h6c-0.1-0.8-0.4-1.5-0.9-2c-0.5-0.5-1.2-0.8-2.1-0.8
		C391.9,57.1,391.2,57.4,390.7,57.9z"/>
	<path class="st0" d="M65,73.2c-0.3,0.3-0.4,0.7-0.4,1.2v1h2.6v1h-2.6v7.5h-1.1v-7.5h-1.5v-1h1.5v-1c0-0.8,0.2-1.4,0.7-1.8
		c0.4-0.4,1.1-0.7,1.9-0.7c0.3,0,0.6,0,0.9,0.1c0.3,0.1,0.5,0.2,0.8,0.4l-0.4,0.8c-0.3-0.3-0.7-0.4-1.2-0.4
		C65.7,72.8,65.3,73,65,73.2z"/>
	<path class="st0" d="M69.9,83.4c-0.7-0.4-1.2-0.9-1.5-1.5c-0.4-0.7-0.6-1.4-0.6-2.2s0.2-1.6,0.6-2.2c0.4-0.7,0.9-1.2,1.5-1.5
		c0.7-0.4,1.4-0.5,2.2-0.5s1.5,0.2,2.2,0.5c0.7,0.4,1.2,0.9,1.5,1.5c0.4,0.7,0.6,1.4,0.6,2.2s-0.2,1.6-0.6,2.2
		c-0.4,0.7-0.9,1.2-1.5,1.5c-0.7,0.4-1.4,0.6-2.2,0.6S70.6,83.7,69.9,83.4z M73.7,82.5c0.5-0.3,0.8-0.7,1.1-1.2
		c0.3-0.5,0.4-1.1,0.4-1.7s-0.1-1.2-0.4-1.7c-0.3-0.5-0.6-0.9-1.1-1.2s-1-0.4-1.6-0.4c-0.6,0-1.1,0.1-1.6,0.4s-0.8,0.7-1.1,1.2
		S69,79,69,79.6s0.1,1.2,0.4,1.7c0.3,0.5,0.6,0.9,1.1,1.2s1,0.4,1.6,0.4C72.7,82.9,73.2,82.8,73.7,82.5z"/>
	<path class="st0" d="M81,75.8c0.5-0.3,1.2-0.4,2-0.4v1.1l-0.3,0c-0.9,0-1.6,0.3-2.1,0.8c-0.5,0.5-0.8,1.3-0.8,2.3v4.3h-1.1v-8.4
		h1.1v1.6C80,76.5,80.4,76.1,81,75.8z"/>
	<path class="st0" d="M102.3,76.3c0.6,0.6,0.9,1.5,0.9,2.7v4.9H102v-4.8c0-0.9-0.2-1.5-0.6-2c-0.4-0.5-1-0.7-1.8-0.7
		c-0.9,0-1.6,0.3-2.1,0.8s-0.8,1.3-0.8,2.2v4.4h-1.1v-4.8c0-0.9-0.2-1.5-0.6-2c-0.4-0.5-1-0.7-1.8-0.7c-0.9,0-1.5,0.3-2.1,0.8
		c-0.5,0.5-0.8,1.3-0.8,2.2v4.4h-1.1v-8.4h1.1v1.5c0.3-0.5,0.7-0.9,1.2-1.2s1.1-0.4,1.8-0.4c0.7,0,1.3,0.1,1.8,0.4
		c0.5,0.3,0.9,0.7,1.2,1.3c0.3-0.6,0.8-1,1.3-1.3s1.2-0.5,2-0.5C100.8,75.3,101.7,75.6,102.3,76.3z"/>
	<path class="st0" d="M113.6,80h-7c0.1,0.9,0.4,1.6,1,2.1s1.4,0.8,2.3,0.8c0.5,0,1-0.1,1.4-0.3c0.4-0.2,0.8-0.5,1.1-0.8l0.6,0.7
		c-0.4,0.4-0.8,0.8-1.4,1c-0.6,0.2-1.2,0.4-1.8,0.4c-0.9,0-1.6-0.2-2.3-0.6c-0.7-0.4-1.2-0.9-1.6-1.5c-0.4-0.7-0.6-1.4-0.6-2.2
		s0.2-1.6,0.5-2.2c0.4-0.7,0.8-1.2,1.5-1.5c0.6-0.4,1.3-0.5,2.1-0.5c0.8,0,1.5,0.2,2.1,0.5c0.6,0.4,1.1,0.9,1.5,1.5s0.5,1.4,0.5,2.2
		L113.6,80z M107.5,77.1c-0.5,0.5-0.9,1.2-0.9,2h6c-0.1-0.8-0.4-1.5-0.9-2c-0.5-0.5-1.2-0.8-2.1-0.8
		C108.8,76.3,108.1,76.6,107.5,77.1z"/>
	<path class="st0" d="M121.2,76.2c0.6,0.5,0.9,1.4,0.9,2.4v5.2H121v-1.3c-0.3,0.4-0.6,0.8-1.1,1c-0.5,0.2-1.1,0.4-1.8,0.4
		c-0.9,0-1.7-0.2-2.2-0.7c-0.6-0.4-0.8-1-0.8-1.8c0-0.7,0.3-1.3,0.8-1.7c0.5-0.4,1.3-0.7,2.5-0.7h2.7v-0.5c0-0.7-0.2-1.3-0.6-1.7
		c-0.4-0.4-1-0.6-1.8-0.6c-0.5,0-1,0.1-1.5,0.3c-0.5,0.2-0.9,0.4-1.3,0.7l-0.5-0.8c0.4-0.4,0.9-0.6,1.5-0.8c0.6-0.2,1.2-0.3,1.9-0.3
		C119.8,75.3,120.6,75.6,121.2,76.2z M119.9,82.6c0.5-0.3,0.8-0.7,1-1.3v-1.4h-2.6c-1.4,0-2.2,0.5-2.2,1.5c0,0.5,0.2,0.9,0.6,1.2
		c0.4,0.3,0.9,0.4,1.6,0.4C118.9,83,119.5,82.9,119.9,82.6z"/>
	<path class="st0" d="M132,76.3c0.6,0.6,0.9,1.5,0.9,2.7v4.9h-1.1v-4.8c0-0.9-0.2-1.5-0.7-2c-0.4-0.5-1.1-0.7-1.9-0.7
		c-0.9,0-1.6,0.3-2.2,0.8c-0.5,0.5-0.8,1.3-0.8,2.2v4.4h-1.1v-8.4h1.1V77c0.3-0.5,0.7-0.9,1.3-1.2c0.5-0.3,1.2-0.4,1.9-0.4
		C130.5,75.3,131.4,75.7,132,76.3z"/>
	<path class="st0" d="M136,73.3c-0.2-0.2-0.2-0.4-0.2-0.6c0-0.2,0.1-0.4,0.2-0.6c0.2-0.2,0.4-0.2,0.6-0.2c0.2,0,0.4,0.1,0.6,0.2
		c0.2,0.2,0.2,0.3,0.2,0.6c0,0.2-0.1,0.4-0.2,0.6c-0.2,0.2-0.4,0.2-0.6,0.2C136.3,73.6,136.1,73.5,136,73.3z M136,75.4h1.1v8.4H136
		V75.4z"/>
	<path class="st0" d="M147.1,76.3c0.6,0.6,0.9,1.5,0.9,2.7v4.9h-1.1v-4.8c0-0.9-0.2-1.5-0.7-2c-0.4-0.5-1.1-0.7-1.9-0.7
		c-0.9,0-1.6,0.3-2.2,0.8c-0.5,0.5-0.8,1.3-0.8,2.2v4.4h-1.1v-8.4h1.1V77c0.3-0.5,0.7-0.9,1.3-1.2c0.5-0.3,1.2-0.4,1.9-0.4
		C145.6,75.3,146.5,75.7,147.1,76.3z"/>
	<path class="st0" d="M159,75.4v7.4c0,1.4-0.3,2.5-1,3.2c-0.7,0.7-1.8,1-3.2,1c-0.8,0-1.5-0.1-2.2-0.3c-0.7-0.2-1.3-0.5-1.7-1
		l0.6-0.9c0.4,0.4,0.9,0.6,1.5,0.8s1.2,0.3,1.8,0.3c1.1,0,1.9-0.2,2.4-0.7c0.5-0.5,0.8-1.3,0.8-2.3v-1.1c-0.4,0.5-0.8,0.9-1.4,1.2
		c-0.6,0.3-1.2,0.4-1.9,0.4c-0.8,0-1.5-0.2-2.2-0.5s-1.2-0.8-1.5-1.5s-0.6-1.3-0.6-2.1c0-0.8,0.2-1.5,0.6-2.1s0.9-1.1,1.5-1.4
		c0.6-0.3,1.4-0.5,2.2-0.5c0.7,0,1.4,0.1,1.9,0.4c0.6,0.3,1,0.7,1.4,1.2v-1.6H159z M156.3,82.1c0.5-0.3,0.9-0.6,1.1-1.1
		c0.3-0.5,0.4-1,0.4-1.6c0-0.6-0.1-1.1-0.4-1.6c-0.3-0.5-0.7-0.8-1.1-1.1c-0.5-0.3-1-0.4-1.7-0.4c-0.6,0-1.2,0.1-1.6,0.4
		s-0.9,0.6-1.1,1.1c-0.3,0.5-0.4,1-0.4,1.6c0,0.6,0.1,1.1,0.4,1.6c0.3,0.5,0.7,0.8,1.1,1.1c0.5,0.3,1,0.4,1.6,0.4
		C155.3,82.5,155.8,82.4,156.3,82.1z"/>
	<path class="st0" d="M163.8,73.2c-0.3,0.3-0.4,0.7-0.4,1.2v1h2.6v1h-2.6v7.5h-1.1v-7.5h-1.5v-1h1.5v-1c0-0.8,0.2-1.4,0.7-1.8
		c0.4-0.4,1.1-0.7,1.9-0.7c0.3,0,0.6,0,0.9,0.1s0.5,0.2,0.8,0.4l-0.4,0.8c-0.3-0.3-0.7-0.4-1.2-0.4C164.4,72.8,164.1,73,163.8,73.2z
		"/>
	<path class="st0" d="M175.1,75.4v8.4h-1.1v-1.5c-0.3,0.5-0.7,0.9-1.2,1.2c-0.5,0.3-1.1,0.4-1.8,0.4c-1.1,0-2-0.3-2.6-0.9
		s-1-1.5-1-2.7v-4.9h1.1v4.8c0,0.9,0.2,1.6,0.7,2s1.1,0.7,1.9,0.7c0.9,0,1.6-0.3,2.1-0.8c0.5-0.5,0.8-1.3,0.8-2.2v-4.4H175.1z"/>
	<path class="st0" d="M178.3,72h1.1v11.9h-1.1V72z"/>
	<path class="st0" d="M188.1,83.4c-0.7-0.4-1.2-0.9-1.5-1.5c-0.4-0.7-0.6-1.4-0.6-2.2s0.2-1.6,0.6-2.2c0.4-0.7,0.9-1.2,1.5-1.5
		c0.7-0.4,1.4-0.5,2.2-0.5c0.7,0,1.4,0.1,1.9,0.4c0.6,0.3,1,0.7,1.4,1.2l-0.8,0.6c-0.3-0.4-0.6-0.7-1.1-0.9s-0.9-0.3-1.4-0.3
		c-0.6,0-1.2,0.1-1.6,0.4s-0.9,0.7-1.1,1.2c-0.3,0.5-0.4,1.1-0.4,1.7c0,0.7,0.1,1.2,0.4,1.7c0.3,0.5,0.7,0.9,1.1,1.2s1,0.4,1.6,0.4
		c0.5,0,1-0.1,1.4-0.3s0.8-0.5,1.1-0.9l0.8,0.6c-0.3,0.5-0.8,1-1.4,1.2c-0.6,0.3-1.2,0.4-1.9,0.4C189.5,83.9,188.7,83.7,188.1,83.4z
		"/>
	<path class="st0" d="M195.7,72h1.1v11.9h-1.1V72z"/>
	<path class="st0" d="M200,73.3c-0.2-0.2-0.2-0.4-0.2-0.6c0-0.2,0.1-0.4,0.2-0.6c0.2-0.2,0.4-0.2,0.6-0.2c0.2,0,0.4,0.1,0.6,0.2
		c0.2,0.2,0.2,0.3,0.2,0.6c0,0.2-0.1,0.4-0.2,0.6c-0.2,0.2-0.4,0.2-0.6,0.2C200.4,73.6,200.2,73.5,200,73.3z M200,75.4h1.1v8.4H200
		V75.4z"/>
	<path class="st0" d="M211.6,80h-7c0.1,0.9,0.4,1.6,1,2.1c0.6,0.5,1.4,0.8,2.3,0.8c0.5,0,1-0.1,1.4-0.3s0.8-0.5,1.1-0.8l0.6,0.7
		c-0.4,0.4-0.8,0.8-1.4,1c-0.6,0.2-1.2,0.4-1.8,0.4c-0.9,0-1.6-0.2-2.3-0.6c-0.7-0.4-1.2-0.9-1.6-1.5c-0.4-0.7-0.6-1.4-0.6-2.2
		s0.2-1.6,0.5-2.2c0.4-0.7,0.8-1.2,1.5-1.5c0.6-0.4,1.3-0.5,2.1-0.5c0.8,0,1.5,0.2,2.1,0.5c0.6,0.4,1.1,0.9,1.5,1.5
		c0.4,0.6,0.5,1.4,0.5,2.2L211.6,80z M205.5,77.1c-0.5,0.5-0.9,1.2-0.9,2h6c-0.1-0.8-0.4-1.5-0.9-2c-0.5-0.5-1.2-0.8-2.1-0.8
		C206.8,76.3,206.1,76.6,205.5,77.1z"/>
	<path class="st0" d="M220.8,76.3c0.6,0.6,0.9,1.5,0.9,2.7v4.9h-1.1v-4.8c0-0.9-0.2-1.5-0.7-2c-0.4-0.5-1.1-0.7-1.9-0.7
		c-0.9,0-1.6,0.3-2.2,0.8c-0.5,0.5-0.8,1.3-0.8,2.2v4.4H214v-8.4h1.1V77c0.3-0.5,0.7-0.9,1.3-1.2c0.5-0.3,1.2-0.4,1.9-0.4
		C219.3,75.3,220.2,75.7,220.8,76.3z"/>
	<path class="st0" d="M229.2,83.3c-0.2,0.2-0.5,0.3-0.8,0.4c-0.3,0.1-0.6,0.2-1,0.2c-0.8,0-1.4-0.2-1.8-0.6c-0.4-0.4-0.6-1-0.6-1.8
		v-5.1h-1.5v-1h1.5v-1.8h1.1v1.8h2.6v1h-2.6v5c0,0.5,0.1,0.9,0.4,1.1c0.2,0.3,0.6,0.4,1.1,0.4c0.2,0,0.5,0,0.7-0.1s0.4-0.2,0.6-0.3
		L229.2,83.3z"/>
	<path class="st0" d="M242,75.9c0.6,0.4,1.1,0.9,1.5,1.5c0.4,0.7,0.5,1.4,0.5,2.2c0,0.8-0.2,1.6-0.5,2.2c-0.4,0.7-0.9,1.2-1.5,1.5
		c-0.6,0.4-1.4,0.5-2.2,0.5c-0.7,0-1.3-0.1-1.8-0.4c-0.5-0.3-1-0.7-1.4-1.2v4.7h-1.1V75.4h1.1v1.7c0.3-0.6,0.8-1,1.4-1.3
		c0.6-0.3,1.2-0.4,1.9-0.4C240.6,75.3,241.3,75.5,242,75.9z M241.4,82.5c0.5-0.3,0.9-0.7,1.1-1.2c0.3-0.5,0.4-1.1,0.4-1.7
		s-0.1-1.2-0.4-1.7c-0.3-0.5-0.6-0.9-1.1-1.2c-0.5-0.3-1-0.4-1.6-0.4c-0.6,0-1.1,0.1-1.6,0.4c-0.5,0.3-0.8,0.7-1.1,1.2
		c-0.3,0.5-0.4,1.1-0.4,1.7s0.1,1.2,0.4,1.7c0.3,0.5,0.6,0.9,1.1,1.2c0.5,0.3,1,0.4,1.6,0.4C240.3,82.9,240.9,82.8,241.4,82.5z"/>
	<path class="st0" d="M251.8,76.2c0.6,0.5,0.9,1.4,0.9,2.4v5.2h-1.1v-1.3c-0.3,0.4-0.6,0.8-1.1,1c-0.5,0.2-1.1,0.4-1.8,0.4
		c-0.9,0-1.7-0.2-2.2-0.7c-0.6-0.4-0.8-1-0.8-1.8c0-0.7,0.3-1.3,0.8-1.7c0.5-0.4,1.3-0.7,2.5-0.7h2.7v-0.5c0-0.7-0.2-1.3-0.6-1.7
		c-0.4-0.4-1-0.6-1.8-0.6c-0.5,0-1,0.1-1.5,0.3c-0.5,0.2-0.9,0.4-1.3,0.7l-0.5-0.8c0.4-0.4,0.9-0.6,1.5-0.8c0.6-0.2,1.2-0.3,1.9-0.3
		C250.3,75.3,251.2,75.6,251.8,76.2z M250.5,82.6c0.5-0.3,0.8-0.7,1-1.3v-1.4h-2.6c-1.4,0-2.2,0.5-2.2,1.5c0,0.5,0.2,0.9,0.6,1.2
		c0.4,0.3,0.9,0.4,1.6,0.4C249.5,83,250,82.9,250.5,82.6z"/>
	<path class="st0" d="M258,75.8c0.5-0.3,1.2-0.4,2-0.4v1.1l-0.3,0c-0.9,0-1.6,0.3-2.1,0.8c-0.5,0.5-0.8,1.3-0.8,2.3v4.3h-1.1v-8.4
		h1.1v1.6C257.1,76.5,257.5,76.1,258,75.8z"/>
	<path class="st0" d="M266.8,83.3c-0.2,0.2-0.5,0.3-0.8,0.4c-0.3,0.1-0.6,0.2-1,0.2c-0.8,0-1.4-0.2-1.8-0.6c-0.4-0.4-0.6-1-0.6-1.8
		v-5.1h-1.5v-1h1.5v-1.8h1.1v1.8h2.6v1h-2.6v5c0,0.5,0.1,0.9,0.4,1.1c0.2,0.3,0.6,0.4,1.1,0.4c0.2,0,0.5,0,0.7-0.1s0.4-0.2,0.6-0.3
		L266.8,83.3z"/>
	<path class="st0" d="M275.7,76.3c0.6,0.6,0.9,1.5,0.9,2.7v4.9h-1.1v-4.8c0-0.9-0.2-1.5-0.7-2c-0.4-0.5-1.1-0.7-1.9-0.7
		c-0.9,0-1.6,0.3-2.2,0.8c-0.5,0.5-0.8,1.3-0.8,2.2v4.4h-1.1v-8.4h1.1V77c0.3-0.5,0.7-0.9,1.3-1.2c0.5-0.3,1.2-0.4,1.9-0.4
		C274.2,75.3,275.1,75.7,275.7,76.3z"/>
	<path class="st0" d="M287.1,80h-7c0.1,0.9,0.4,1.6,1,2.1c0.6,0.5,1.4,0.8,2.3,0.8c0.5,0,1-0.1,1.4-0.3s0.8-0.5,1.1-0.8l0.6,0.7
		c-0.4,0.4-0.8,0.8-1.4,1c-0.6,0.2-1.2,0.4-1.8,0.4c-0.9,0-1.6-0.2-2.3-0.6c-0.7-0.4-1.2-0.9-1.6-1.5c-0.4-0.7-0.6-1.4-0.6-2.2
		s0.2-1.6,0.5-2.2c0.4-0.7,0.8-1.2,1.5-1.5c0.6-0.4,1.3-0.5,2.1-0.5c0.8,0,1.5,0.2,2.1,0.5c0.6,0.4,1.1,0.9,1.5,1.5
		c0.4,0.6,0.5,1.4,0.5,2.2L287.1,80z M281,77.1c-0.5,0.5-0.9,1.2-0.9,2h6c-0.1-0.8-0.4-1.5-0.9-2c-0.5-0.5-1.2-0.8-2.1-0.8
		C282.2,76.3,281.5,76.6,281,77.1z"/>
	<path class="st0" d="M291.7,75.8c0.5-0.3,1.2-0.4,2-0.4v1.1l-0.3,0c-0.9,0-1.6,0.3-2.1,0.8c-0.5,0.5-0.8,1.3-0.8,2.3v4.3h-1.1v-8.4
		h1.1v1.6C290.8,76.5,291.2,76.1,291.7,75.8z"/>
	<path class="st0" d="M296.1,83.6c-0.6-0.2-1.1-0.4-1.5-0.7l0.5-0.9c0.4,0.3,0.8,0.5,1.3,0.7c0.5,0.2,1.1,0.3,1.7,0.3
		c0.8,0,1.3-0.1,1.7-0.4c0.4-0.2,0.6-0.6,0.6-1c0-0.3-0.1-0.6-0.3-0.7c-0.2-0.2-0.5-0.3-0.8-0.4c-0.3-0.1-0.7-0.2-1.2-0.3
		c-0.7-0.1-1.2-0.3-1.6-0.4s-0.8-0.4-1.1-0.7c-0.3-0.3-0.4-0.8-0.4-1.3c0-0.7,0.3-1.3,0.9-1.7c0.6-0.4,1.4-0.7,2.4-0.7
		c0.5,0,1.1,0.1,1.6,0.2s1,0.3,1.3,0.6l-0.5,0.9c-0.7-0.5-1.5-0.7-2.5-0.7c-0.7,0-1.3,0.1-1.6,0.4c-0.4,0.3-0.6,0.6-0.6,1
		c0,0.3,0.1,0.6,0.3,0.8c0.2,0.2,0.5,0.3,0.8,0.4c0.3,0.1,0.7,0.2,1.3,0.3c0.7,0.1,1.2,0.3,1.6,0.4s0.8,0.3,1,0.7
		c0.3,0.3,0.4,0.7,0.4,1.3c0,0.7-0.3,1.3-0.9,1.8c-0.6,0.4-1.5,0.6-2.6,0.6C297.3,83.9,296.7,83.8,296.1,83.6z"/>
	<path class="st0" d="M310.4,76.3c0.6,0.6,0.9,1.5,0.9,2.7v4.9h-1.1v-4.8c0-0.9-0.2-1.5-0.7-2c-0.4-0.5-1.1-0.7-1.9-0.7
		c-0.9,0-1.6,0.3-2.2,0.8c-0.5,0.5-0.8,1.3-0.8,2.2v4.4h-1.1V72h1.1v4.9c0.3-0.5,0.7-0.9,1.3-1.1s1.2-0.4,1.9-0.4
		C308.9,75.3,309.8,75.7,310.4,76.3z"/>
	<path class="st0" d="M314.4,73.3c-0.2-0.2-0.2-0.4-0.2-0.6c0-0.2,0.1-0.4,0.2-0.6c0.2-0.2,0.4-0.2,0.6-0.2c0.2,0,0.4,0.1,0.6,0.2
		c0.2,0.2,0.2,0.3,0.2,0.6c0,0.2-0.1,0.4-0.2,0.6c-0.2,0.2-0.4,0.2-0.6,0.2C314.8,73.6,314.6,73.5,314.4,73.3z M314.4,75.4h1.1v8.4
		h-1.1V75.4z"/>
	<path class="st0" d="M325.2,75.9c0.6,0.4,1.1,0.9,1.5,1.5c0.4,0.7,0.5,1.4,0.5,2.2c0,0.8-0.2,1.6-0.5,2.2c-0.4,0.7-0.9,1.2-1.5,1.5
		c-0.6,0.4-1.4,0.5-2.2,0.5c-0.7,0-1.3-0.1-1.8-0.4c-0.5-0.3-1-0.7-1.4-1.2v4.7h-1.1V75.4h1.1v1.7c0.3-0.6,0.8-1,1.4-1.3
		c0.6-0.3,1.2-0.4,1.9-0.4C323.9,75.3,324.6,75.5,325.2,75.9z M324.6,82.5c0.5-0.3,0.9-0.7,1.1-1.2c0.3-0.5,0.4-1.1,0.4-1.7
		s-0.1-1.2-0.4-1.7c-0.3-0.5-0.6-0.9-1.1-1.2c-0.5-0.3-1-0.4-1.6-0.4c-0.6,0-1.1,0.1-1.6,0.4c-0.5,0.3-0.8,0.7-1.1,1.2
		c-0.3,0.5-0.4,1.1-0.4,1.7s0.1,1.2,0.4,1.7c0.3,0.5,0.6,0.9,1.1,1.2c0.5,0.3,1,0.4,1.6,0.4C323.6,82.9,324.1,82.8,324.6,82.5z"/>
	<path class="st0" d="M329.9,83.6c-0.6-0.2-1.1-0.4-1.5-0.7l0.5-0.9c0.4,0.3,0.8,0.5,1.3,0.7c0.5,0.2,1.1,0.3,1.7,0.3
		c0.8,0,1.3-0.1,1.7-0.4c0.4-0.2,0.6-0.6,0.6-1c0-0.3-0.1-0.6-0.3-0.7c-0.2-0.2-0.5-0.3-0.8-0.4c-0.3-0.1-0.7-0.2-1.2-0.3
		c-0.7-0.1-1.2-0.3-1.6-0.4s-0.8-0.4-1.1-0.7c-0.3-0.3-0.4-0.8-0.4-1.3c0-0.7,0.3-1.3,0.9-1.7c0.6-0.4,1.4-0.7,2.4-0.7
		c0.5,0,1.1,0.1,1.6,0.2s1,0.3,1.3,0.6l-0.5,0.9c-0.7-0.5-1.5-0.7-2.5-0.7c-0.7,0-1.3,0.1-1.6,0.4c-0.4,0.3-0.6,0.6-0.6,1
		c0,0.3,0.1,0.6,0.3,0.8c0.2,0.2,0.5,0.3,0.8,0.4c0.3,0.1,0.7,0.2,1.3,0.3c0.7,0.1,1.2,0.3,1.6,0.4s0.8,0.3,1,0.7
		c0.3,0.3,0.4,0.7,0.4,1.3c0,0.7-0.3,1.3-0.9,1.8c-0.6,0.4-1.5,0.6-2.6,0.6C331.2,83.9,330.5,83.8,329.9,83.6z"/>
</g>
</svg>
