<?xml version="1.0" encoding="utf-8"?>
<!-- Generator: Adobe Illustrator 22.1.0, SVG Export Plug-In . SVG Version: 6.00 Build 0)  -->
<svg version="1.1" id="Layer_1" xmlns="http://www.w3.org/2000/svg" xmlns:xlink="http://www.w3.org/1999/xlink" x="0px" y="0px"
	 viewBox="0 0 400 139.8" style="enable-background:new 0 0 400 139.8;" xml:space="preserve">
<style type="text/css">
	.st0{fill:#FFFFFF;}
</style>
<g>
	<path class="st0" d="M95.9,24.7H97v9.5h5.9v1h-7V24.7z"/>
	<path class="st0" d="M111.3,31.6h-6.6c0.1,0.8,0.4,1.5,0.9,2c0.6,0.5,1.3,0.8,2.2,0.8c0.5,0,0.9-0.1,1.4-0.3s0.8-0.4,1.1-0.8
		l0.6,0.7c-0.4,0.4-0.8,0.7-1.3,1s-1.1,0.3-1.7,0.3c-0.8,0-1.5-0.2-2.2-0.5c-0.6-0.3-1.1-0.8-1.5-1.4s-0.5-1.3-0.5-2.1
		s0.2-1.5,0.5-2.1c0.3-0.6,0.8-1.1,1.4-1.4c0.6-0.3,1.2-0.5,2-0.5s1.4,0.2,2,0.5s1,0.8,1.4,1.4s0.5,1.3,0.5,2.1L111.3,31.6z
		 M105.6,28.9c-0.5,0.5-0.8,1.1-0.9,1.9h5.6c-0.1-0.8-0.4-1.4-0.9-1.9c-0.5-0.5-1.2-0.7-1.9-0.7C106.7,28.2,106.1,28.4,105.6,28.9z"
		/>
	<path class="st0" d="M120,27.3l-3.5,7.9h-1.1l-3.5-7.9h1.1l3,6.7l3-6.7H120z"/>
	<path class="st0" d="M128.1,31.6h-6.6c0.1,0.8,0.4,1.5,0.9,2c0.6,0.5,1.3,0.8,2.2,0.8c0.5,0,0.9-0.1,1.4-0.3s0.8-0.4,1.1-0.8
		l0.6,0.7c-0.4,0.4-0.8,0.7-1.3,1s-1.1,0.3-1.7,0.3c-0.8,0-1.5-0.2-2.2-0.5c-0.6-0.3-1.1-0.8-1.5-1.4s-0.5-1.3-0.5-2.1
		s0.2-1.5,0.5-2.1c0.3-0.6,0.8-1.1,1.4-1.4c0.6-0.3,1.2-0.5,2-0.5s1.4,0.2,2,0.5s1,0.8,1.4,1.4s0.5,1.3,0.5,2.1L128.1,31.6z
		 M122.4,28.9c-0.5,0.5-0.8,1.1-0.9,1.9h5.6c-0.1-0.8-0.4-1.4-0.9-1.9c-0.5-0.5-1.2-0.7-1.9-0.7C123.5,28.2,122.9,28.4,122.4,28.9z"
		/>
	<path class="st0" d="M132.4,27.7c0.5-0.3,1.1-0.4,1.8-0.4v1l-0.3,0c-0.8,0-1.5,0.3-2,0.8c-0.5,0.5-0.7,1.2-0.7,2.1v4h-1.1v-7.9h1
		v1.5C131.6,28.3,131.9,28,132.4,27.7z"/>
	<path class="st0" d="M141.3,28c0.5,0.5,0.8,1.3,0.8,2.3v4.9h-1V34c-0.2,0.4-0.6,0.7-1.1,1c-0.5,0.2-1,0.3-1.7,0.3
		c-0.9,0-1.6-0.2-2.1-0.6c-0.5-0.4-0.8-1-0.8-1.7c0-0.7,0.2-1.2,0.7-1.6c0.5-0.4,1.3-0.6,2.3-0.6h2.5v-0.5c0-0.7-0.2-1.2-0.6-1.6
		c-0.4-0.4-0.9-0.5-1.7-0.5c-0.5,0-1,0.1-1.4,0.2c-0.5,0.2-0.9,0.4-1.2,0.7l-0.5-0.8c0.4-0.3,0.9-0.6,1.4-0.8s1.1-0.3,1.8-0.3
		C140,27.3,140.8,27.5,141.3,28z M140.1,34c0.4-0.3,0.8-0.7,1-1.2v-1.3h-2.5c-1.4,0-2,0.5-2,1.4c0,0.5,0.2,0.8,0.5,1.1
		c0.4,0.3,0.8,0.4,1.5,0.4C139.2,34.5,139.7,34.3,140.1,34z"/>
	<path class="st0" d="M152.4,27.3v6.9c0,1.3-0.3,2.3-1,3c-0.7,0.6-1.6,1-3,1c-0.7,0-1.4-0.1-2.1-0.3c-0.7-0.2-1.2-0.5-1.6-0.9
		l0.5-0.8c0.4,0.3,0.8,0.6,1.4,0.8c0.5,0.2,1.1,0.3,1.7,0.3c1,0,1.7-0.2,2.2-0.7c0.5-0.5,0.7-1.2,0.7-2.2v-1
		c-0.3,0.5-0.8,0.9-1.3,1.1c-0.5,0.3-1.1,0.4-1.8,0.4c-0.7,0-1.4-0.2-2-0.5c-0.6-0.3-1.1-0.8-1.4-1.4s-0.5-1.2-0.5-2
		c0-0.7,0.2-1.4,0.5-2c0.3-0.6,0.8-1,1.4-1.4c0.6-0.3,1.3-0.5,2-0.5c0.7,0,1.3,0.1,1.8,0.4c0.5,0.3,1,0.7,1.3,1.2v-1.5H152.4z
		 M149.9,33.6c0.5-0.2,0.8-0.6,1.1-1c0.3-0.4,0.4-0.9,0.4-1.5c0-0.6-0.1-1.1-0.4-1.5s-0.6-0.8-1.1-1c-0.5-0.2-1-0.4-1.6-0.4
		c-0.6,0-1.1,0.1-1.5,0.4c-0.5,0.2-0.8,0.6-1.1,1c-0.3,0.4-0.4,0.9-0.4,1.5c0,0.6,0.1,1.1,0.4,1.5c0.3,0.4,0.6,0.8,1.1,1
		s1,0.4,1.5,0.4C148.9,34,149.4,33.9,149.9,33.6z"/>
	<path class="st0" d="M155.3,25.4c-0.1-0.2-0.2-0.3-0.2-0.5c0-0.2,0.1-0.4,0.2-0.5c0.2-0.2,0.3-0.2,0.6-0.2c0.2,0,0.4,0.1,0.6,0.2
		c0.2,0.1,0.2,0.3,0.2,0.5c0,0.2-0.1,0.4-0.2,0.6c-0.2,0.1-0.3,0.2-0.6,0.2C155.7,25.6,155.5,25.5,155.3,25.4z M155.4,27.3h1.1v7.9
		h-1.1V27.3z"/>
	<path class="st0" d="M165.8,28.1c0.6,0.6,0.9,1.4,0.9,2.5v4.6h-1.1v-4.5c0-0.8-0.2-1.4-0.6-1.9c-0.4-0.4-1-0.6-1.8-0.6
		c-0.8,0-1.5,0.3-2,0.8c-0.5,0.5-0.7,1.2-0.7,2.1v4.1h-1.1v-7.9h1v1.5c0.3-0.5,0.7-0.9,1.2-1.1c0.5-0.3,1.1-0.4,1.8-0.4
		C164.4,27.3,165.2,27.6,165.8,28.1z"/>
	<path class="st0" d="M176.9,27.3v6.9c0,1.3-0.3,2.3-1,3c-0.7,0.6-1.6,1-3,1c-0.7,0-1.4-0.1-2.1-0.3c-0.7-0.2-1.2-0.5-1.6-0.9
		l0.5-0.8c0.4,0.3,0.8,0.6,1.4,0.8s1.1,0.3,1.7,0.3c1,0,1.7-0.2,2.2-0.7c0.5-0.5,0.7-1.2,0.7-2.2v-1c-0.3,0.5-0.8,0.9-1.3,1.1
		c-0.5,0.3-1.1,0.4-1.8,0.4c-0.7,0-1.4-0.2-2-0.5c-0.6-0.3-1.1-0.8-1.4-1.4c-0.3-0.6-0.5-1.2-0.5-2c0-0.7,0.2-1.4,0.5-2
		c0.3-0.6,0.8-1,1.4-1.4c0.6-0.3,1.3-0.5,2-0.5c0.7,0,1.3,0.1,1.8,0.4s1,0.7,1.3,1.2v-1.5H176.9z M174.4,33.6c0.5-0.2,0.8-0.6,1.1-1
		c0.3-0.4,0.4-0.9,0.4-1.5c0-0.6-0.1-1.1-0.4-1.5c-0.3-0.4-0.6-0.8-1.1-1s-1-0.4-1.6-0.4c-0.6,0-1.1,0.1-1.5,0.4
		c-0.5,0.2-0.8,0.6-1.1,1c-0.3,0.4-0.4,0.9-0.4,1.5c0,0.6,0.1,1.1,0.4,1.5c0.3,0.4,0.6,0.8,1.1,1s1,0.4,1.5,0.4
		S173.9,33.9,174.4,33.6z"/>
	<path class="st0" d="M196,28.1c0.6,0.6,0.8,1.4,0.8,2.5v4.6h-1.1v-4.5c0-0.8-0.2-1.4-0.6-1.9c-0.4-0.4-1-0.6-1.7-0.6
		c-0.8,0-1.5,0.3-1.9,0.8c-0.5,0.5-0.7,1.2-0.7,2.1v4.1h-1.1v-4.5c0-0.8-0.2-1.4-0.6-1.9c-0.4-0.4-1-0.6-1.7-0.6
		c-0.8,0-1.5,0.3-1.9,0.8c-0.5,0.5-0.7,1.2-0.7,2.1v4.1h-1.1v-7.9h1v1.4c0.3-0.5,0.7-0.8,1.2-1.1c0.5-0.3,1.1-0.4,1.7-0.4
		c0.7,0,1.2,0.1,1.7,0.4c0.5,0.3,0.8,0.7,1.1,1.2c0.3-0.5,0.7-0.9,1.3-1.2s1.2-0.4,1.9-0.4C194.6,27.3,195.4,27.6,196,28.1z"/>
	<path class="st0" d="M206.6,31.6H200c0.1,0.8,0.4,1.5,0.9,2c0.6,0.5,1.3,0.8,2.2,0.8c0.5,0,0.9-0.1,1.3-0.3s0.8-0.4,1.1-0.8
		l0.6,0.7c-0.4,0.4-0.8,0.7-1.3,1s-1.1,0.3-1.7,0.3c-0.8,0-1.5-0.2-2.2-0.5c-0.6-0.3-1.1-0.8-1.5-1.4s-0.5-1.3-0.5-2.1
		s0.2-1.5,0.5-2.1c0.3-0.6,0.8-1.1,1.4-1.4s1.2-0.5,2-0.5c0.7,0,1.4,0.2,2,0.5s1,0.8,1.4,1.4s0.5,1.3,0.5,2.1L206.6,31.6z
		 M200.9,28.9c-0.5,0.5-0.8,1.1-0.9,1.9h5.6c-0.1-0.8-0.4-1.4-0.9-1.9c-0.5-0.5-1.2-0.7-1.9-0.7C202,28.2,201.4,28.4,200.9,28.9z"/>
	<path class="st0" d="M213.7,28c0.5,0.5,0.8,1.3,0.8,2.3v4.9h-1V34c-0.2,0.4-0.6,0.7-1.1,1s-1,0.3-1.7,0.3c-0.9,0-1.6-0.2-2.1-0.6
		c-0.5-0.4-0.8-1-0.8-1.7c0-0.7,0.2-1.2,0.7-1.6c0.5-0.4,1.3-0.6,2.3-0.6h2.5v-0.5c0-0.7-0.2-1.2-0.6-1.6s-0.9-0.5-1.7-0.5
		c-0.5,0-1,0.1-1.4,0.2s-0.9,0.4-1.2,0.7l-0.5-0.8c0.4-0.3,0.9-0.6,1.4-0.8c0.6-0.2,1.2-0.3,1.8-0.3C212.4,27.3,213.1,27.5,213.7,28
		z M212.5,34c0.4-0.3,0.8-0.7,1-1.2v-1.3H211c-1.4,0-2,0.5-2,1.4c0,0.5,0.2,0.8,0.5,1.1c0.3,0.3,0.8,0.4,1.5,0.4
		C211.6,34.5,212.1,34.3,212.5,34z"/>
	<path class="st0" d="M223.8,28.1c0.6,0.6,0.9,1.4,0.9,2.5v4.6h-1.1v-4.5c0-0.8-0.2-1.4-0.6-1.9c-0.4-0.4-1-0.6-1.8-0.6
		c-0.8,0-1.5,0.3-2,0.8c-0.5,0.5-0.7,1.2-0.7,2.1v4.1h-1.1v-7.9h1v1.5c0.3-0.5,0.7-0.9,1.2-1.1c0.5-0.3,1.1-0.4,1.8-0.4
		C222.4,27.3,223.2,27.6,223.8,28.1z"/>
	<path class="st0" d="M227.6,25.4c-0.1-0.2-0.2-0.3-0.2-0.5c0-0.2,0.1-0.4,0.2-0.5c0.2-0.2,0.3-0.2,0.6-0.2c0.2,0,0.4,0.1,0.6,0.2
		c0.2,0.1,0.2,0.3,0.2,0.5c0,0.2-0.1,0.4-0.2,0.6c-0.2,0.1-0.3,0.2-0.6,0.2C227.9,25.6,227.7,25.5,227.6,25.4z M227.6,27.3h1.1v7.9
		h-1.1V27.3z"/>
	<path class="st0" d="M238,28.1c0.6,0.6,0.9,1.4,0.9,2.5v4.6h-1.1v-4.5c0-0.8-0.2-1.4-0.6-1.9c-0.4-0.4-1-0.6-1.8-0.6
		c-0.8,0-1.5,0.3-2,0.8c-0.5,0.5-0.7,1.2-0.7,2.1v4.1h-1.1v-7.9h1v1.5c0.3-0.5,0.7-0.9,1.2-1.1c0.5-0.3,1.1-0.4,1.8-0.4
		C236.6,27.3,237.4,27.6,238,28.1z"/>
	<path class="st0" d="M249.1,27.3v6.9c0,1.3-0.3,2.3-1,3c-0.7,0.6-1.6,1-3,1c-0.7,0-1.4-0.1-2.1-0.3c-0.7-0.2-1.2-0.5-1.6-0.9
		l0.5-0.8c0.4,0.3,0.8,0.6,1.4,0.8s1.1,0.3,1.7,0.3c1,0,1.7-0.2,2.2-0.7c0.5-0.5,0.7-1.2,0.7-2.2v-1c-0.3,0.5-0.8,0.9-1.3,1.1
		c-0.5,0.3-1.1,0.4-1.8,0.4c-0.7,0-1.4-0.2-2-0.5c-0.6-0.3-1.1-0.8-1.4-1.4c-0.3-0.6-0.5-1.2-0.5-2c0-0.7,0.2-1.4,0.5-2
		c0.3-0.6,0.8-1,1.4-1.4c0.6-0.3,1.3-0.5,2-0.5c0.7,0,1.3,0.1,1.8,0.4s1,0.7,1.3,1.2v-1.5H249.1z M246.6,33.6c0.5-0.2,0.8-0.6,1.1-1
		c0.3-0.4,0.4-0.9,0.4-1.5c0-0.6-0.1-1.1-0.4-1.5c-0.3-0.4-0.6-0.8-1.1-1s-1-0.4-1.6-0.4c-0.6,0-1.1,0.1-1.5,0.4
		c-0.5,0.2-0.8,0.6-1.1,1c-0.3,0.4-0.4,0.9-0.4,1.5c0,0.6,0.1,1.1,0.4,1.5c0.3,0.4,0.6,0.8,1.1,1s1,0.4,1.5,0.4
		S246.1,33.9,246.6,33.6z"/>
	<path class="st0" d="M253.7,25.3c-0.2,0.3-0.4,0.6-0.4,1.1v0.9h2.4v0.9h-2.4v7h-1.1v-7h-1.4v-0.9h1.4v-1c0-0.7,0.2-1.3,0.6-1.7
		c0.4-0.4,1-0.6,1.8-0.6c0.3,0,0.6,0,0.9,0.1c0.3,0.1,0.5,0.2,0.7,0.4l-0.4,0.8c-0.3-0.3-0.7-0.4-1.2-0.4
		C254.2,24.9,253.9,25,253.7,25.3z"/>
	<path class="st0" d="M264.3,27.3v7.9h-1v-1.4c-0.3,0.5-0.7,0.9-1.2,1.1c-0.5,0.3-1,0.4-1.7,0.4c-1,0-1.8-0.3-2.4-0.9
		c-0.6-0.6-0.9-1.4-0.9-2.5v-4.6h1.1v4.5c0,0.8,0.2,1.5,0.6,1.9c0.4,0.4,1,0.6,1.8,0.6c0.8,0,1.5-0.3,2-0.8c0.5-0.5,0.7-1.2,0.7-2.1
		v-4.1H264.3z"/>
	<path class="st0" d="M267.3,24.1h1.1v11.1h-1.1V24.1z"/>
	<path class="st0" d="M282.4,24.1v11.1h-1v-1.6c-0.3,0.5-0.7,0.9-1.3,1.2c-0.5,0.3-1.1,0.4-1.8,0.4c-0.7,0-1.4-0.2-2-0.5
		c-0.6-0.3-1.1-0.8-1.4-1.4s-0.5-1.3-0.5-2.1c0-0.8,0.2-1.5,0.5-2.1s0.8-1.1,1.4-1.4c0.6-0.3,1.3-0.5,2-0.5c0.6,0,1.2,0.1,1.7,0.4
		c0.5,0.3,0.9,0.7,1.3,1.2v-4.7H282.4z M279.9,34c0.4-0.3,0.8-0.6,1.1-1.1c0.3-0.5,0.4-1,0.4-1.6c0-0.6-0.1-1.1-0.4-1.6
		c-0.3-0.5-0.6-0.8-1.1-1.1c-0.4-0.3-0.9-0.4-1.5-0.4c-0.6,0-1.1,0.1-1.5,0.4c-0.4,0.3-0.8,0.6-1,1.1c-0.3,0.5-0.4,1-0.4,1.6
		c0,0.6,0.1,1.1,0.4,1.6s0.6,0.8,1,1.1c0.4,0.3,0.9,0.4,1.5,0.4C279,34.4,279.5,34.2,279.9,34z"/>
	<path class="st0" d="M290.5,28c0.5,0.5,0.8,1.3,0.8,2.3v4.9h-1V34c-0.2,0.4-0.6,0.7-1.1,1s-1,0.3-1.7,0.3c-0.9,0-1.6-0.2-2.1-0.6
		c-0.5-0.4-0.8-1-0.8-1.7c0-0.7,0.2-1.2,0.7-1.6c0.5-0.4,1.3-0.6,2.3-0.6h2.5v-0.5c0-0.7-0.2-1.2-0.6-1.6s-0.9-0.5-1.7-0.5
		c-0.5,0-1,0.1-1.4,0.2s-0.9,0.4-1.2,0.7l-0.5-0.8c0.4-0.3,0.9-0.6,1.4-0.8c0.6-0.2,1.2-0.3,1.8-0.3C289.2,27.3,290,27.5,290.5,28z
		 M289.3,34c0.4-0.3,0.8-0.7,1-1.2v-1.3h-2.5c-1.4,0-2,0.5-2,1.4c0,0.5,0.2,0.8,0.5,1.1c0.3,0.3,0.8,0.4,1.5,0.4
		C288.4,34.5,288.9,34.3,289.3,34z"/>
	<path class="st0" d="M298.4,34.7c-0.2,0.2-0.4,0.3-0.7,0.4c-0.3,0.1-0.6,0.1-0.9,0.1c-0.7,0-1.3-0.2-1.7-0.6
		c-0.4-0.4-0.6-1-0.6-1.7v-4.8H293v-0.9h1.4v-1.7h1.1v1.7h2.4v0.9h-2.4v4.7c0,0.5,0.1,0.8,0.4,1.1c0.2,0.2,0.6,0.4,1,0.4
		c0.2,0,0.4,0,0.6-0.1s0.4-0.2,0.5-0.3L298.4,34.7z"/>
	<path class="st0" d="M305.5,28c0.5,0.5,0.8,1.3,0.8,2.3v4.9h-1V34c-0.2,0.4-0.6,0.7-1.1,1s-1,0.3-1.7,0.3c-0.9,0-1.6-0.2-2.1-0.6
		c-0.5-0.4-0.8-1-0.8-1.7c0-0.7,0.2-1.2,0.7-1.6c0.5-0.4,1.3-0.6,2.3-0.6h2.5v-0.5c0-0.7-0.2-1.2-0.6-1.6s-0.9-0.5-1.7-0.5
		c-0.5,0-1,0.1-1.4,0.2s-0.9,0.4-1.2,0.7l-0.5-0.8c0.4-0.3,0.9-0.6,1.4-0.8c0.6-0.2,1.2-0.3,1.8-0.3C304.1,27.3,304.9,27.5,305.5,28
		z M304.3,34c0.4-0.3,0.8-0.7,1-1.2v-1.3h-2.5c-1.4,0-2,0.5-2,1.4c0,0.5,0.2,0.8,0.5,1.1c0.3,0.3,0.8,0.4,1.5,0.4
		C303.3,34.5,303.8,34.3,304.3,34z"/>
	<path class="st0" d="M71.1,49.7h4.3c1.1,0,2.1,0.2,2.9,0.7c0.9,0.4,1.5,1.1,2,1.9C80.8,53,81,54,81,55c0,1-0.2,1.9-0.7,2.7
		c-0.5,0.8-1.1,1.4-2,1.9c-0.9,0.4-1.8,0.7-2.9,0.7h-4.3V49.7z M75.3,59.3c0.9,0,1.7-0.2,2.4-0.5c0.7-0.4,1.2-0.9,1.6-1.5
		c0.4-0.6,0.6-1.4,0.6-2.2s-0.2-1.6-0.6-2.2c-0.4-0.6-0.9-1.1-1.6-1.5s-1.5-0.5-2.4-0.5h-3.1v8.6H75.3z"/>
	<path class="st0" d="M90.2,56.6h-6.6c0.1,0.8,0.4,1.5,0.9,2c0.6,0.5,1.3,0.8,2.2,0.8c0.5,0,0.9-0.1,1.4-0.3s0.8-0.4,1.1-0.8
		l0.6,0.7c-0.4,0.4-0.8,0.7-1.3,1s-1.1,0.3-1.7,0.3c-0.8,0-1.5-0.2-2.2-0.5c-0.6-0.3-1.1-0.8-1.5-1.4c-0.4-0.6-0.5-1.3-0.5-2.1
		c0-0.8,0.2-1.5,0.5-2.1s0.8-1.1,1.4-1.4c0.6-0.3,1.2-0.5,2-0.5s1.4,0.2,2,0.5s1,0.8,1.4,1.4c0.3,0.6,0.5,1.3,0.5,2.1L90.2,56.6z
		 M84.4,53.9c-0.5,0.5-0.8,1.1-0.9,1.9h5.6c-0.1-0.8-0.4-1.4-0.9-1.9c-0.5-0.5-1.2-0.7-1.9-0.7C85.6,53.2,85,53.4,84.4,53.9z"/>
	<path class="st0" d="M92.6,60c-0.6-0.2-1-0.4-1.4-0.7l0.5-0.8c0.3,0.3,0.7,0.5,1.2,0.6c0.5,0.2,1,0.2,1.6,0.2
		c0.7,0,1.3-0.1,1.6-0.3c0.3-0.2,0.5-0.5,0.5-1c0-0.3-0.1-0.5-0.3-0.7s-0.4-0.3-0.7-0.4c-0.3-0.1-0.7-0.2-1.2-0.2
		c-0.6-0.1-1.2-0.2-1.5-0.4s-0.7-0.3-1-0.6c-0.3-0.3-0.4-0.7-0.4-1.2c0-0.7,0.3-1.2,0.8-1.6c0.5-0.4,1.3-0.6,2.3-0.6
		c0.5,0,1,0.1,1.5,0.2c0.5,0.1,0.9,0.3,1.3,0.5L97,53.9c-0.7-0.5-1.4-0.7-2.3-0.7c-0.7,0-1.2,0.1-1.5,0.4c-0.3,0.2-0.5,0.6-0.5,0.9
		c0,0.3,0.1,0.5,0.3,0.7c0.2,0.2,0.4,0.3,0.7,0.4s0.7,0.2,1.2,0.3c0.6,0.1,1.1,0.2,1.5,0.4c0.4,0.1,0.7,0.3,1,0.6s0.4,0.7,0.4,1.2
		c0,0.7-0.3,1.2-0.9,1.6c-0.6,0.4-1.4,0.6-2.4,0.6C93.8,60.3,93.2,60.2,92.6,60z"/>
	<path class="st0" d="M99.7,50.4c-0.2-0.2-0.2-0.3-0.2-0.5c0-0.2,0.1-0.4,0.2-0.5c0.1-0.2,0.3-0.2,0.6-0.2c0.2,0,0.4,0.1,0.6,0.2
		c0.1,0.1,0.2,0.3,0.2,0.5c0,0.2-0.1,0.4-0.2,0.6c-0.1,0.1-0.3,0.2-0.6,0.2C100,50.6,99.8,50.5,99.7,50.4z M99.7,52.3h1.1v7.9h-1.1
		V52.3z"/>
	<path class="st0" d="M111,52.3v6.9c0,1.3-0.3,2.3-1,3c-0.7,0.6-1.6,1-3,1c-0.7,0-1.4-0.1-2.1-0.3c-0.7-0.2-1.2-0.5-1.6-0.9l0.5-0.8
		c0.4,0.3,0.8,0.6,1.4,0.8c0.5,0.2,1.1,0.3,1.7,0.3c1,0,1.7-0.2,2.2-0.7c0.5-0.5,0.7-1.2,0.7-2.2v-1c-0.3,0.5-0.8,0.9-1.3,1.1
		c-0.5,0.3-1.1,0.4-1.8,0.4c-0.7,0-1.4-0.2-2-0.5s-1.1-0.8-1.4-1.4s-0.5-1.2-0.5-2s0.2-1.4,0.5-2c0.3-0.6,0.8-1,1.4-1.3
		s1.3-0.5,2-0.5c0.7,0,1.3,0.1,1.8,0.4c0.5,0.3,1,0.7,1.3,1.2v-1.5H111z M108.5,58.6c0.5-0.2,0.8-0.6,1.1-1s0.4-0.9,0.4-1.5
		s-0.1-1.1-0.4-1.5c-0.3-0.4-0.6-0.8-1.1-1c-0.5-0.2-1-0.4-1.6-0.4c-0.6,0-1.1,0.1-1.5,0.4c-0.5,0.2-0.8,0.6-1.1,1
		c-0.3,0.4-0.4,0.9-0.4,1.5s0.1,1.1,0.4,1.5c0.3,0.4,0.6,0.8,1.1,1s1,0.4,1.5,0.4C107.6,59,108.1,58.9,108.5,58.6z"/>
	<path class="st0" d="M120.4,53.1c0.6,0.6,0.9,1.4,0.9,2.5v4.6h-1.1v-4.5c0-0.8-0.2-1.4-0.6-1.9s-1-0.6-1.8-0.6
		c-0.9,0-1.5,0.3-2,0.8s-0.7,1.2-0.7,2.1v4.1H114v-7.9h1v1.5c0.3-0.5,0.7-0.9,1.2-1.1c0.5-0.3,1.1-0.4,1.8-0.4
		C119,52.3,119.8,52.6,120.4,53.1z"/>
	<path class="st0" d="M124.2,50.4c-0.2-0.2-0.2-0.3-0.2-0.5c0-0.2,0.1-0.4,0.2-0.5c0.1-0.2,0.3-0.2,0.6-0.2c0.2,0,0.4,0.1,0.6,0.2
		c0.1,0.1,0.2,0.3,0.2,0.5c0,0.2-0.1,0.4-0.2,0.6c-0.1,0.1-0.3,0.2-0.6,0.2C124.5,50.6,124.3,50.5,124.2,50.4z M124.2,52.3h1.1v7.9
		h-1.1V52.3z"/>
	<path class="st0" d="M134.6,53.1c0.6,0.6,0.9,1.4,0.9,2.5v4.6h-1.1v-4.5c0-0.8-0.2-1.4-0.6-1.9s-1-0.6-1.8-0.6
		c-0.9,0-1.5,0.3-2,0.8s-0.7,1.2-0.7,2.1v4.1h-1.1v-7.9h1v1.5c0.3-0.5,0.7-0.9,1.2-1.1c0.5-0.3,1.1-0.4,1.8-0.4
		C133.2,52.3,134,52.6,134.6,53.1z"/>
	<path class="st0" d="M145.7,52.3v6.9c0,1.3-0.3,2.3-1,3c-0.7,0.6-1.6,1-3,1c-0.7,0-1.4-0.1-2.1-0.3c-0.7-0.2-1.2-0.5-1.6-0.9
		l0.5-0.8c0.4,0.3,0.8,0.6,1.4,0.8c0.5,0.2,1.1,0.3,1.7,0.3c1,0,1.7-0.2,2.2-0.7c0.5-0.5,0.7-1.2,0.7-2.2v-1
		c-0.3,0.5-0.8,0.9-1.3,1.1c-0.5,0.3-1.1,0.4-1.8,0.4c-0.7,0-1.4-0.2-2-0.5s-1.1-0.8-1.4-1.4s-0.5-1.2-0.5-2s0.2-1.4,0.5-2
		c0.3-0.6,0.8-1,1.4-1.3s1.3-0.5,2-0.5c0.7,0,1.3,0.1,1.8,0.4c0.5,0.3,1,0.7,1.3,1.2v-1.5H145.7z M143.2,58.6c0.5-0.2,0.8-0.6,1.1-1
		s0.4-0.9,0.4-1.5s-0.1-1.1-0.4-1.5c-0.3-0.4-0.6-0.8-1.1-1c-0.5-0.2-1-0.4-1.6-0.4c-0.6,0-1.1,0.1-1.5,0.4c-0.5,0.2-0.8,0.6-1.1,1
		c-0.3,0.4-0.4,0.9-0.4,1.5s0.1,1.1,0.4,1.5c0.3,0.4,0.6,0.8,1.1,1s1,0.4,1.5,0.4C142.2,59,142.7,58.9,143.2,58.6z"/>
	<path class="st0" d="M164.8,53.1c0.6,0.6,0.8,1.4,0.8,2.5v4.6h-1.1v-4.5c0-0.8-0.2-1.4-0.6-1.9c-0.4-0.4-1-0.6-1.7-0.6
		c-0.8,0-1.5,0.3-1.9,0.8c-0.5,0.5-0.7,1.2-0.7,2.1v4.1h-1.1v-4.5c0-0.8-0.2-1.4-0.6-1.9c-0.4-0.4-1-0.6-1.7-0.6
		c-0.8,0-1.5,0.3-1.9,0.8c-0.5,0.5-0.7,1.2-0.7,2.1v4.1h-1.1v-7.9h1v1.4c0.3-0.5,0.7-0.8,1.2-1.1s1.1-0.4,1.7-0.4
		c0.7,0,1.2,0.1,1.7,0.4c0.5,0.3,0.8,0.7,1.1,1.2c0.3-0.5,0.7-0.9,1.3-1.2s1.2-0.4,1.9-0.4C163.4,52.3,164.2,52.6,164.8,53.1z"/>
	<path class="st0" d="M175.4,56.6h-6.6c0.1,0.8,0.4,1.5,0.9,2c0.6,0.5,1.3,0.8,2.2,0.8c0.5,0,0.9-0.1,1.3-0.3s0.8-0.4,1.1-0.8
		l0.6,0.7c-0.4,0.4-0.8,0.7-1.3,1s-1.1,0.3-1.7,0.3c-0.8,0-1.5-0.2-2.2-0.5s-1.1-0.8-1.5-1.4c-0.3-0.6-0.5-1.3-0.5-2.1
		c0-0.8,0.2-1.5,0.5-2.1s0.8-1.1,1.4-1.4s1.2-0.5,2-0.5c0.7,0,1.4,0.2,2,0.5s1,0.8,1.4,1.4c0.3,0.6,0.5,1.3,0.5,2.1L175.4,56.6z
		 M169.7,53.9c-0.5,0.5-0.8,1.1-0.9,1.9h5.6c-0.1-0.8-0.4-1.4-0.9-1.9c-0.5-0.5-1.2-0.7-1.9-0.7C170.9,53.2,170.2,53.4,169.7,53.9z"
		/>
	<path class="st0" d="M182.5,53c0.5,0.5,0.8,1.3,0.8,2.3v4.9h-1V59c-0.2,0.4-0.6,0.7-1.1,1c-0.5,0.2-1,0.3-1.7,0.3
		c-0.9,0-1.6-0.2-2.1-0.6c-0.5-0.4-0.8-1-0.8-1.7c0-0.7,0.2-1.2,0.7-1.6c0.5-0.4,1.3-0.6,2.3-0.6h2.5v-0.5c0-0.7-0.2-1.2-0.6-1.6
		c-0.4-0.4-0.9-0.5-1.7-0.5c-0.5,0-1,0.1-1.4,0.2s-0.9,0.4-1.2,0.7l-0.5-0.8c0.4-0.3,0.9-0.6,1.4-0.8c0.6-0.2,1.2-0.3,1.8-0.3
		C181.2,52.3,182,52.5,182.5,53z M181.3,59c0.4-0.3,0.8-0.7,1-1.2v-1.3h-2.5c-1.4,0-2,0.5-2,1.4c0,0.5,0.2,0.8,0.5,1.1
		c0.3,0.3,0.8,0.4,1.5,0.4C180.4,59.5,180.9,59.3,181.3,59z"/>
	<path class="st0" d="M192.6,53.1c0.6,0.6,0.9,1.4,0.9,2.5v4.6h-1.1v-4.5c0-0.8-0.2-1.4-0.6-1.9c-0.4-0.4-1-0.6-1.8-0.6
		c-0.8,0-1.5,0.3-2,0.8c-0.5,0.5-0.7,1.2-0.7,2.1v4.1h-1.1v-7.9h1v1.5c0.3-0.5,0.7-0.9,1.2-1.1c0.5-0.3,1.1-0.4,1.8-0.4
		C191.2,52.3,192,52.6,192.6,53.1z"/>
	<path class="st0" d="M196.4,50.4c-0.1-0.2-0.2-0.3-0.2-0.5c0-0.2,0.1-0.4,0.2-0.5c0.2-0.2,0.3-0.2,0.6-0.2c0.2,0,0.4,0.1,0.6,0.2
		c0.2,0.1,0.2,0.3,0.2,0.5c0,0.2-0.1,0.4-0.2,0.6c-0.2,0.1-0.3,0.2-0.6,0.2C196.7,50.6,196.5,50.5,196.4,50.4z M196.4,52.3h1.1v7.9
		h-1.1V52.3z"/>
	<path class="st0" d="M206.8,53.1c0.6,0.6,0.9,1.4,0.9,2.5v4.6h-1.1v-4.5c0-0.8-0.2-1.4-0.6-1.9c-0.4-0.4-1-0.6-1.8-0.6
		c-0.8,0-1.5,0.3-2,0.8c-0.5,0.5-0.7,1.2-0.7,2.1v4.1h-1.1v-7.9h1v1.5c0.3-0.5,0.7-0.9,1.2-1.1c0.5-0.3,1.1-0.4,1.8-0.4
		C205.4,52.3,206.2,52.6,206.8,53.1z"/>
	<path class="st0" d="M217.9,52.3v6.9c0,1.3-0.3,2.3-1,3c-0.7,0.6-1.6,1-3,1c-0.7,0-1.4-0.1-2.1-0.3c-0.7-0.2-1.2-0.5-1.6-0.9
		l0.5-0.8c0.4,0.3,0.8,0.6,1.4,0.8c0.5,0.2,1.1,0.3,1.7,0.3c1,0,1.7-0.2,2.2-0.7c0.5-0.5,0.7-1.2,0.7-2.2v-1
		c-0.3,0.5-0.8,0.9-1.3,1.1c-0.5,0.3-1.1,0.4-1.8,0.4c-0.7,0-1.4-0.2-2-0.5c-0.6-0.3-1.1-0.8-1.4-1.4c-0.3-0.6-0.5-1.2-0.5-2
		s0.2-1.4,0.5-2c0.3-0.6,0.8-1,1.4-1.3s1.3-0.5,2-0.5c0.7,0,1.3,0.1,1.8,0.4c0.5,0.3,1,0.7,1.3,1.2v-1.5H217.9z M215.4,58.6
		c0.5-0.2,0.8-0.6,1.1-1c0.3-0.4,0.4-0.9,0.4-1.5s-0.1-1.1-0.4-1.5c-0.3-0.4-0.6-0.8-1.1-1s-1-0.4-1.6-0.4c-0.6,0-1.1,0.1-1.5,0.4
		c-0.5,0.2-0.8,0.6-1.1,1s-0.4,0.9-0.4,1.5s0.1,1.1,0.4,1.5s0.6,0.8,1.1,1s1,0.4,1.5,0.4S215,58.9,215.4,58.6z"/>
	<path class="st0" d="M222.5,50.3c-0.2,0.3-0.4,0.6-0.4,1.1v0.9h2.4v0.9h-2.4v7h-1.1v-7h-1.4v-0.9h1.4v-1c0-0.7,0.2-1.3,0.6-1.7
		c0.4-0.4,1-0.6,1.8-0.6c0.3,0,0.6,0,0.9,0.1c0.3,0.1,0.5,0.2,0.7,0.4l-0.4,0.8c-0.3-0.3-0.7-0.4-1.2-0.4
		C223.1,49.9,222.7,50,222.5,50.3z"/>
	<path class="st0" d="M233.1,52.3v7.9h-1v-1.4c-0.3,0.5-0.7,0.9-1.2,1.1s-1,0.4-1.7,0.4c-1,0-1.8-0.3-2.4-0.9
		c-0.6-0.6-0.9-1.4-0.9-2.5v-4.6h1.1v4.5c0,0.8,0.2,1.5,0.6,1.9c0.4,0.4,1,0.6,1.8,0.6c0.8,0,1.5-0.3,2-0.8c0.5-0.5,0.7-1.2,0.7-2.1
		v-4.1H233.1z"/>
	<path class="st0" d="M236.1,49.1h1.1v11.1h-1.1V49.1z"/>
	<path class="st0" d="M250.9,56.6h-6.6c0.1,0.8,0.4,1.5,0.9,2c0.6,0.5,1.3,0.8,2.2,0.8c0.5,0,0.9-0.1,1.3-0.3s0.8-0.4,1.1-0.8
		l0.6,0.7c-0.4,0.4-0.8,0.7-1.3,1s-1.1,0.3-1.7,0.3c-0.8,0-1.5-0.2-2.2-0.5s-1.1-0.8-1.5-1.4c-0.3-0.6-0.5-1.3-0.5-2.1
		c0-0.8,0.2-1.5,0.5-2.1s0.8-1.1,1.4-1.4s1.2-0.5,2-0.5c0.7,0,1.4,0.2,2,0.5s1,0.8,1.4,1.4c0.3,0.6,0.5,1.3,0.5,2.1L250.9,56.6z
		 M245.2,53.9c-0.5,0.5-0.8,1.1-0.9,1.9h5.6c-0.1-0.8-0.4-1.4-0.9-1.9c-0.5-0.5-1.2-0.7-1.9-0.7C246.3,53.2,245.7,53.4,245.2,53.9z"
		/>
	<path class="st0" d="M257.9,60.2l-2.5-3.3l-2.5,3.3h-1.2l3.1-4l-3-3.8h1.2l2.4,3.1l2.4-3.1h1.2l-3,3.8l3.1,4H257.9z"/>
	<path class="st0" d="M267,52.8c0.6,0.3,1.1,0.8,1.4,1.4c0.3,0.6,0.5,1.3,0.5,2.1c0,0.8-0.2,1.5-0.5,2.1s-0.8,1.1-1.4,1.4
		c-0.6,0.3-1.3,0.5-2,0.5c-0.6,0-1.2-0.1-1.7-0.4s-0.9-0.7-1.3-1.2v4.4h-1.1V52.3h1v1.6c0.3-0.5,0.7-0.9,1.3-1.2
		c0.5-0.3,1.1-0.4,1.8-0.4C265.7,52.3,266.4,52.4,267,52.8z M266.4,59c0.5-0.3,0.8-0.6,1.1-1.1c0.3-0.5,0.4-1,0.4-1.6
		c0-0.6-0.1-1.1-0.4-1.6s-0.6-0.8-1.1-1.1c-0.4-0.3-1-0.4-1.5-0.4c-0.6,0-1.1,0.1-1.5,0.4c-0.4,0.3-0.8,0.6-1,1.1
		c-0.3,0.5-0.4,1-0.4,1.6c0,0.6,0.1,1.1,0.4,1.6c0.3,0.5,0.6,0.8,1,1.1c0.4,0.3,0.9,0.4,1.5,0.4C265.4,59.4,265.9,59.2,266.4,59z"/>
	<path class="st0" d="M277.9,56.6h-6.6c0.1,0.8,0.4,1.5,0.9,2c0.6,0.5,1.3,0.8,2.2,0.8c0.5,0,0.9-0.1,1.3-0.3s0.8-0.4,1.1-0.8
		l0.6,0.7c-0.4,0.4-0.8,0.7-1.3,1s-1.1,0.3-1.7,0.3c-0.8,0-1.5-0.2-2.2-0.5s-1.1-0.8-1.5-1.4c-0.3-0.6-0.5-1.3-0.5-2.1
		c0-0.8,0.2-1.5,0.5-2.1s0.8-1.1,1.4-1.4s1.2-0.5,2-0.5c0.7,0,1.4,0.2,2,0.5s1,0.8,1.4,1.4c0.3,0.6,0.5,1.3,0.5,2.1L277.9,56.6z
		 M272.2,53.9c-0.5,0.5-0.8,1.1-0.9,1.9h5.6c-0.1-0.8-0.4-1.4-0.9-1.9c-0.5-0.5-1.2-0.7-1.9-0.7C273.4,53.2,272.7,53.4,272.2,53.9z"
		/>
	<path class="st0" d="M282.3,52.7c0.5-0.3,1.1-0.4,1.8-0.4v1l-0.3,0c-0.8,0-1.5,0.3-2,0.8c-0.5,0.5-0.7,1.2-0.7,2.1v4h-1.1v-7.9h1
		v1.5C281.4,53.3,281.8,53,282.3,52.7z"/>
	<path class="st0" d="M286,50.4c-0.1-0.2-0.2-0.3-0.2-0.5c0-0.2,0.1-0.4,0.2-0.5c0.2-0.2,0.3-0.2,0.6-0.2c0.2,0,0.4,0.1,0.6,0.2
		c0.2,0.1,0.2,0.3,0.2,0.5c0,0.2-0.1,0.4-0.2,0.6c-0.2,0.1-0.3,0.2-0.6,0.2C286.3,50.6,286.1,50.5,286,50.4z M286,52.3h1.1v7.9H286
		V52.3z"/>
	<path class="st0" d="M296.9,56.6h-6.6c0.1,0.8,0.4,1.5,0.9,2c0.6,0.5,1.3,0.8,2.2,0.8c0.5,0,0.9-0.1,1.3-0.3s0.8-0.4,1.1-0.8
		l0.6,0.7c-0.4,0.4-0.8,0.7-1.3,1s-1.1,0.3-1.7,0.3c-0.8,0-1.5-0.2-2.2-0.5s-1.1-0.8-1.5-1.4c-0.3-0.6-0.5-1.3-0.5-2.1
		c0-0.8,0.2-1.5,0.5-2.1s0.8-1.1,1.4-1.4s1.2-0.5,2-0.5c0.7,0,1.4,0.2,2,0.5s1,0.8,1.4,1.4c0.3,0.6,0.5,1.3,0.5,2.1L296.9,56.6z
		 M291.2,53.9c-0.5,0.5-0.8,1.1-0.9,1.9h5.6c-0.1-0.8-0.4-1.4-0.9-1.9c-0.5-0.5-1.2-0.7-1.9-0.7C292.3,53.2,291.7,53.4,291.2,53.9z"
		/>
	<path class="st0" d="M305.5,53.1c0.6,0.6,0.9,1.4,0.9,2.5v4.6h-1.1v-4.5c0-0.8-0.2-1.4-0.6-1.9c-0.4-0.4-1-0.6-1.8-0.6
		c-0.8,0-1.5,0.3-2,0.8c-0.5,0.5-0.7,1.2-0.7,2.1v4.1h-1.1v-7.9h1v1.5c0.3-0.5,0.7-0.9,1.2-1.1c0.5-0.3,1.1-0.4,1.8-0.4
		C304.1,52.3,304.9,52.6,305.5,53.1z"/>
	<path class="st0" d="M310.5,59.8c-0.6-0.3-1.1-0.8-1.4-1.4s-0.5-1.3-0.5-2.1c0-0.8,0.2-1.5,0.5-2.1s0.8-1.1,1.4-1.4
		c0.6-0.3,1.3-0.5,2.1-0.5c0.7,0,1.3,0.1,1.8,0.4c0.5,0.3,1,0.7,1.3,1.2l-0.8,0.5c-0.3-0.4-0.6-0.7-1-0.9c-0.4-0.2-0.8-0.3-1.3-0.3
		c-0.6,0-1.1,0.1-1.5,0.4c-0.5,0.3-0.8,0.6-1.1,1.1s-0.4,1-0.4,1.6c0,0.6,0.1,1.1,0.4,1.6s0.6,0.8,1.1,1.1s1,0.4,1.5,0.4
		c0.5,0,0.9-0.1,1.3-0.3c0.4-0.2,0.7-0.5,1-0.9l0.8,0.5c-0.3,0.5-0.7,0.9-1.3,1.2s-1.1,0.4-1.8,0.4
		C311.8,60.3,311.1,60.1,310.5,59.8z"/>
	<path class="st0" d="M324.5,56.6h-6.6c0.1,0.8,0.4,1.5,0.9,2c0.6,0.5,1.3,0.8,2.2,0.8c0.5,0,0.9-0.1,1.3-0.3s0.8-0.4,1.1-0.8
		L324,59c-0.4,0.4-0.8,0.7-1.3,1s-1.1,0.3-1.7,0.3c-0.8,0-1.5-0.2-2.2-0.5s-1.1-0.8-1.5-1.4c-0.3-0.6-0.5-1.3-0.5-2.1
		c0-0.8,0.2-1.5,0.5-2.1s0.8-1.1,1.4-1.4s1.2-0.5,2-0.5c0.7,0,1.4,0.2,2,0.5s1,0.8,1.4,1.4c0.3,0.6,0.5,1.3,0.5,2.1L324.5,56.6z
		 M318.8,53.9c-0.5,0.5-0.8,1.1-0.9,1.9h5.6c-0.1-0.8-0.4-1.4-0.9-1.9c-0.5-0.5-1.2-0.7-1.9-0.7C319.9,53.2,319.3,53.4,318.8,53.9z"
		/>
	<path class="st0" d="M326.9,60c-0.6-0.2-1-0.4-1.4-0.7l0.5-0.8c0.3,0.3,0.7,0.5,1.2,0.6s1,0.2,1.6,0.2c0.7,0,1.3-0.1,1.6-0.3
		c0.3-0.2,0.5-0.5,0.5-1c0-0.3-0.1-0.5-0.3-0.7s-0.4-0.3-0.7-0.4s-0.7-0.2-1.2-0.2c-0.6-0.1-1.2-0.2-1.5-0.4s-0.7-0.3-1-0.6
		c-0.3-0.3-0.4-0.7-0.4-1.2c0-0.7,0.3-1.2,0.8-1.6c0.5-0.4,1.3-0.6,2.3-0.6c0.5,0,1,0.1,1.5,0.2s0.9,0.3,1.3,0.5l-0.5,0.9
		c-0.7-0.5-1.4-0.7-2.3-0.7c-0.7,0-1.2,0.1-1.5,0.4c-0.3,0.2-0.5,0.6-0.5,0.9c0,0.3,0.1,0.5,0.3,0.7c0.2,0.2,0.4,0.3,0.7,0.4
		s0.7,0.2,1.2,0.3c0.6,0.1,1.1,0.2,1.5,0.4c0.4,0.1,0.7,0.3,1,0.6c0.3,0.3,0.4,0.7,0.4,1.2c0,0.7-0.3,1.2-0.9,1.6s-1.4,0.6-2.4,0.6
		C328.1,60.3,327.5,60.2,326.9,60z"/>
	<path class="st0" d="M23.6,82.4h-5.9l-1.3,2.8h-1.2l4.8-10.5h1.1l4.8,10.5h-1.2L23.6,82.4z M23.2,81.5l-2.5-5.6l-2.5,5.6H23.2z"/>
	<path class="st0" d="M28.7,84.8c-0.6-0.3-1.1-0.8-1.4-1.4s-0.5-1.3-0.5-2.1c0-0.8,0.2-1.5,0.5-2.1s0.8-1.1,1.4-1.4
		c0.6-0.3,1.3-0.5,2.1-0.5c0.7,0,1.3,0.1,1.8,0.4c0.5,0.3,1,0.7,1.3,1.2l-0.8,0.5c-0.3-0.4-0.6-0.7-1-0.9c-0.4-0.2-0.8-0.3-1.3-0.3
		c-0.6,0-1.1,0.1-1.5,0.4c-0.5,0.3-0.8,0.6-1.1,1.1c-0.3,0.5-0.4,1-0.4,1.6c0,0.6,0.1,1.1,0.4,1.6c0.3,0.5,0.6,0.8,1.1,1.1
		s1,0.4,1.5,0.4c0.5,0,0.9-0.1,1.3-0.3c0.4-0.2,0.7-0.5,1-0.9l0.8,0.5c-0.3,0.5-0.7,0.9-1.3,1.2s-1.1,0.4-1.8,0.4
		C30,85.3,29.3,85.1,28.7,84.8z"/>
	<path class="st0" d="M40.2,84.7c-0.2,0.2-0.4,0.3-0.7,0.4s-0.6,0.1-0.9,0.1c-0.7,0-1.3-0.2-1.7-0.6c-0.4-0.4-0.6-1-0.6-1.7v-4.8
		h-1.4v-0.9h1.4v-1.7h1.1v1.7h2.4v0.9h-2.4v4.7c0,0.5,0.1,0.8,0.4,1.1s0.6,0.4,1,0.4c0.2,0,0.4,0,0.6-0.1c0.2-0.1,0.4-0.2,0.5-0.3
		L40.2,84.7z"/>
	<path class="st0" d="M42.1,75.4c-0.2-0.2-0.2-0.3-0.2-0.5c0-0.2,0.1-0.4,0.2-0.5c0.1-0.2,0.3-0.2,0.6-0.2c0.2,0,0.4,0.1,0.6,0.2
		s0.2,0.3,0.2,0.5c0,0.2-0.1,0.4-0.2,0.6s-0.3,0.2-0.6,0.2C42.4,75.6,42.3,75.5,42.1,75.4z M42.1,77.3h1.1v7.9h-1.1V77.3z"/>
	<path class="st0" d="M52.8,77.3l-3.5,7.9h-1.1l-3.5-7.9h1.1l3,6.7l3-6.7H52.8z"/>
	<path class="st0" d="M59.2,78c0.5,0.5,0.8,1.3,0.8,2.3v4.9h-1V84c-0.2,0.4-0.6,0.7-1.1,1c-0.5,0.2-1,0.3-1.7,0.3
		c-0.9,0-1.6-0.2-2.1-0.6s-0.8-1-0.8-1.7c0-0.7,0.2-1.2,0.7-1.6c0.5-0.4,1.3-0.6,2.3-0.6h2.5v-0.5c0-0.7-0.2-1.2-0.6-1.6
		c-0.4-0.4-0.9-0.5-1.7-0.5c-0.5,0-1,0.1-1.4,0.2c-0.5,0.2-0.9,0.4-1.2,0.7l-0.5-0.8c0.4-0.3,0.9-0.6,1.4-0.8
		c0.6-0.2,1.1-0.3,1.8-0.3C57.8,77.3,58.6,77.5,59.2,78z M58,84c0.4-0.3,0.8-0.7,1-1.2v-1.3h-2.5c-1.4,0-2,0.5-2,1.4
		c0,0.5,0.2,0.8,0.5,1.1s0.8,0.4,1.5,0.4C57,84.5,57.5,84.3,58,84z"/>
	<path class="st0" d="M67.1,84.7c-0.2,0.2-0.4,0.3-0.7,0.4s-0.6,0.1-0.9,0.1c-0.7,0-1.3-0.2-1.7-0.6c-0.4-0.4-0.6-1-0.6-1.7v-4.8
		h-1.4v-0.9h1.4v-1.7h1.1v1.7h2.4v0.9h-2.4v4.7c0,0.5,0.1,0.8,0.4,1.1s0.6,0.4,1,0.4c0.2,0,0.4,0,0.6-0.1c0.2-0.1,0.4-0.2,0.5-0.3
		L67.1,84.7z"/>
	<path class="st0" d="M69,75.4c-0.2-0.2-0.2-0.3-0.2-0.5c0-0.2,0.1-0.4,0.2-0.5c0.1-0.2,0.3-0.2,0.6-0.2c0.2,0,0.4,0.1,0.6,0.2
		s0.2,0.3,0.2,0.5c0,0.2-0.1,0.4-0.2,0.6s-0.3,0.2-0.6,0.2C69.3,75.6,69.1,75.5,69,75.4z M69,77.3h1.1v7.9H69V77.3z"/>
	<path class="st0" d="M79.4,78.1c0.6,0.6,0.9,1.4,0.9,2.5v4.6h-1.1v-4.5c0-0.8-0.2-1.4-0.6-1.9s-1-0.6-1.8-0.6c-0.9,0-1.5,0.3-2,0.8
		s-0.7,1.2-0.7,2.1v4.1H73v-7.9h1v1.5c0.3-0.5,0.7-0.9,1.2-1.1c0.5-0.3,1.1-0.4,1.8-0.4C78,77.3,78.8,77.6,79.4,78.1z"/>
	<path class="st0" d="M90.5,77.3v6.9c0,1.3-0.3,2.3-1,3c-0.7,0.6-1.6,1-3,1c-0.7,0-1.4-0.1-2.1-0.3c-0.7-0.2-1.2-0.5-1.6-0.9
		l0.5-0.8c0.4,0.3,0.8,0.6,1.4,0.8c0.5,0.2,1.1,0.3,1.7,0.3c1,0,1.7-0.2,2.2-0.7c0.5-0.5,0.7-1.2,0.7-2.2v-1
		c-0.3,0.5-0.8,0.9-1.3,1.1c-0.5,0.3-1.1,0.4-1.8,0.4c-0.7,0-1.4-0.2-2-0.5s-1.1-0.8-1.4-1.4s-0.5-1.2-0.5-2s0.2-1.4,0.5-2
		c0.3-0.6,0.8-1,1.4-1.3s1.3-0.5,2-0.5c0.7,0,1.3,0.1,1.8,0.4c0.5,0.3,1,0.7,1.3,1.2v-1.5H90.5z M88,83.6c0.5-0.2,0.8-0.6,1.1-1
		s0.4-0.9,0.4-1.5s-0.1-1.1-0.4-1.5c-0.3-0.4-0.6-0.8-1.1-1c-0.5-0.2-1-0.4-1.6-0.4c-0.6,0-1.1,0.1-1.5,0.4c-0.5,0.2-0.8,0.6-1.1,1
		c-0.3,0.4-0.4,0.9-0.4,1.5s0.1,1.1,0.4,1.5c0.3,0.4,0.6,0.8,1.1,1s1,0.4,1.5,0.4C87,84,87.6,83.9,88,83.6z"/>
	<path class="st0" d="M109.6,78.1c0.6,0.6,0.8,1.4,0.8,2.5v4.6h-1.1v-4.5c0-0.8-0.2-1.4-0.6-1.9c-0.4-0.4-1-0.6-1.7-0.6
		c-0.8,0-1.5,0.3-1.9,0.8c-0.5,0.5-0.7,1.2-0.7,2.1v4.1h-1.1v-4.5c0-0.8-0.2-1.4-0.6-1.9s-1-0.6-1.7-0.6c-0.8,0-1.5,0.3-1.9,0.8
		c-0.5,0.5-0.7,1.2-0.7,2.1v4.1h-1.1v-7.9h1v1.4c0.3-0.5,0.7-0.8,1.2-1.1s1.1-0.4,1.7-0.4c0.7,0,1.2,0.1,1.7,0.4
		c0.5,0.3,0.8,0.7,1.1,1.2c0.3-0.5,0.7-0.9,1.3-1.2c0.5-0.3,1.2-0.4,1.9-0.4C108.3,77.3,109,77.6,109.6,78.1z"/>
	<path class="st0" d="M120.2,81.6h-6.6c0.1,0.8,0.4,1.5,0.9,2c0.6,0.5,1.3,0.8,2.2,0.8c0.5,0,0.9-0.1,1.4-0.3s0.8-0.4,1.1-0.8
		l0.6,0.7c-0.4,0.4-0.8,0.7-1.3,1s-1.1,0.3-1.7,0.3c-0.8,0-1.5-0.2-2.2-0.5c-0.6-0.3-1.1-0.8-1.5-1.4c-0.4-0.6-0.5-1.3-0.5-2.1
		c0-0.8,0.2-1.5,0.5-2.1s0.8-1.1,1.4-1.4c0.6-0.3,1.2-0.5,2-0.5s1.4,0.2,2,0.5s1,0.8,1.4,1.4c0.3,0.6,0.5,1.3,0.5,2.1L120.2,81.6z
		 M114.5,78.9c-0.5,0.5-0.8,1.1-0.9,1.9h5.6c-0.1-0.8-0.4-1.4-0.9-1.9c-0.5-0.5-1.2-0.7-1.9-0.7C115.7,78.2,115,78.4,114.5,78.9z"/>
	<path class="st0" d="M127.3,78c0.5,0.5,0.8,1.3,0.8,2.3v4.9h-1V84c-0.2,0.4-0.6,0.7-1.1,1c-0.5,0.2-1,0.3-1.7,0.3
		c-0.9,0-1.6-0.2-2.1-0.6s-0.8-1-0.8-1.7c0-0.7,0.2-1.2,0.7-1.6c0.5-0.4,1.3-0.6,2.3-0.6h2.5v-0.5c0-0.7-0.2-1.2-0.6-1.6
		c-0.4-0.4-0.9-0.5-1.7-0.5c-0.5,0-1,0.1-1.4,0.2c-0.5,0.2-0.9,0.4-1.2,0.7l-0.5-0.8c0.4-0.3,0.9-0.6,1.4-0.8
		c0.6-0.2,1.1-0.3,1.8-0.3C126,77.3,126.8,77.5,127.3,78z M126.1,84c0.4-0.3,0.8-0.7,1-1.2v-1.3h-2.5c-1.4,0-2,0.5-2,1.4
		c0,0.5,0.2,0.8,0.5,1.1s0.8,0.4,1.5,0.4C125.2,84.5,125.7,84.3,126.1,84z"/>
	<path class="st0" d="M137.4,78.1c0.6,0.6,0.9,1.4,0.9,2.5v4.6h-1.1v-4.5c0-0.8-0.2-1.4-0.6-1.9s-1-0.6-1.8-0.6
		c-0.9,0-1.5,0.3-2,0.8s-0.7,1.2-0.7,2.1v4.1h-1.1v-7.9h1v1.5c0.3-0.5,0.7-0.9,1.2-1.1c0.5-0.3,1.1-0.4,1.8-0.4
		C136.1,77.3,136.9,77.6,137.4,78.1z"/>
	<path class="st0" d="M141.2,75.4c-0.2-0.2-0.2-0.3-0.2-0.5c0-0.2,0.1-0.4,0.2-0.5c0.1-0.2,0.3-0.2,0.6-0.2c0.2,0,0.4,0.1,0.6,0.2
		s0.2,0.3,0.2,0.5c0,0.2-0.1,0.4-0.2,0.6s-0.3,0.2-0.6,0.2C141.5,75.6,141.3,75.5,141.2,75.4z M141.2,77.3h1.1v7.9h-1.1V77.3z"/>
	<path class="st0" d="M151.6,78.1c0.6,0.6,0.9,1.4,0.9,2.5v4.6h-1.1v-4.5c0-0.8-0.2-1.4-0.6-1.9c-0.4-0.4-1-0.6-1.8-0.6
		c-0.9,0-1.5,0.3-2,0.8s-0.7,1.2-0.7,2.1v4.1h-1.1v-7.9h1v1.5c0.3-0.5,0.7-0.9,1.2-1.1c0.5-0.3,1.1-0.4,1.8-0.4
		C150.3,77.3,151,77.6,151.6,78.1z"/>
	<path class="st0" d="M162.7,77.3v6.9c0,1.3-0.3,2.3-1,3c-0.7,0.6-1.6,1-3,1c-0.7,0-1.4-0.1-2.1-0.3c-0.7-0.2-1.2-0.5-1.6-0.9
		l0.5-0.8c0.4,0.3,0.8,0.6,1.4,0.8c0.5,0.2,1.1,0.3,1.7,0.3c1,0,1.7-0.2,2.2-0.7c0.5-0.5,0.7-1.2,0.7-2.2v-1
		c-0.3,0.5-0.8,0.9-1.3,1.1c-0.5,0.3-1.1,0.4-1.8,0.4c-0.7,0-1.4-0.2-2-0.5c-0.6-0.3-1.1-0.8-1.4-1.4c-0.3-0.6-0.5-1.2-0.5-2
		s0.2-1.4,0.5-2c0.3-0.6,0.8-1,1.4-1.3s1.3-0.5,2-0.5c0.7,0,1.3,0.1,1.8,0.4c0.5,0.3,1,0.7,1.3,1.2v-1.5H162.7z M160.2,83.6
		c0.5-0.2,0.8-0.6,1.1-1c0.3-0.4,0.4-0.9,0.4-1.5s-0.1-1.1-0.4-1.5c-0.3-0.4-0.6-0.8-1.1-1s-1-0.4-1.6-0.4c-0.6,0-1.1,0.1-1.5,0.4
		c-0.5,0.2-0.8,0.6-1.1,1s-0.4,0.9-0.4,1.5s0.1,1.1,0.4,1.5s0.6,0.8,1.1,1s1,0.4,1.5,0.4S159.8,83.9,160.2,83.6z"/>
	<path class="st0" d="M167.3,75.3c-0.2,0.2-0.4,0.6-0.4,1.1v0.9h2.4v0.9H167v7h-1.1v-7h-1.4v-0.9h1.4v-1c0-0.7,0.2-1.3,0.6-1.7
		c0.4-0.4,1-0.6,1.8-0.6c0.3,0,0.6,0,0.9,0.1s0.5,0.2,0.7,0.4l-0.4,0.8c-0.3-0.3-0.7-0.4-1.2-0.4C167.9,74.9,167.5,75,167.3,75.3z"
		/>
	<path class="st0" d="M177.9,77.3v7.9h-1v-1.4c-0.3,0.5-0.7,0.9-1.2,1.1s-1,0.4-1.7,0.4c-1,0-1.8-0.3-2.4-0.9
		c-0.6-0.6-0.9-1.4-0.9-2.5v-4.6h1.1v4.5c0,0.8,0.2,1.5,0.6,1.9c0.4,0.4,1,0.6,1.8,0.6c0.8,0,1.5-0.3,2-0.8c0.5-0.5,0.7-1.2,0.7-2.1
		v-4.1H177.9z"/>
	<path class="st0" d="M180.9,74.1h1.1v11.1h-1.1V74.1z"/>
	<path class="st0" d="M188.9,75.4c-0.1-0.2-0.2-0.3-0.2-0.5c0-0.2,0.1-0.4,0.2-0.5c0.2-0.2,0.3-0.2,0.6-0.2c0.2,0,0.4,0.1,0.6,0.2
		s0.2,0.3,0.2,0.5c0,0.2-0.1,0.4-0.2,0.6s-0.3,0.2-0.6,0.2C189.2,75.6,189,75.5,188.9,75.4z M188.9,77.3h1.1v7.9h-1.1V77.3z"/>
	<path class="st0" d="M199.3,78.1c0.6,0.6,0.9,1.4,0.9,2.5v4.6h-1.1v-4.5c0-0.8-0.2-1.4-0.6-1.9c-0.4-0.4-1-0.6-1.8-0.6
		c-0.8,0-1.5,0.3-2,0.8c-0.5,0.5-0.7,1.2-0.7,2.1v4.1h-1.1v-7.9h1v1.5c0.3-0.5,0.7-0.9,1.2-1.1c0.5-0.3,1.1-0.4,1.8-0.4
		C197.9,77.3,198.7,77.6,199.3,78.1z"/>
	<path class="st0" d="M209.5,77.3l-3.5,7.9h-1.1l-3.5-7.9h1.1l3,6.7l3-6.7H209.5z"/>
	<path class="st0" d="M217.7,81.6h-6.6c0.1,0.8,0.4,1.5,0.9,2c0.6,0.5,1.3,0.8,2.2,0.8c0.5,0,0.9-0.1,1.3-0.3s0.8-0.4,1.1-0.8
		l0.6,0.7c-0.4,0.4-0.8,0.7-1.3,1s-1.1,0.3-1.7,0.3c-0.8,0-1.5-0.2-2.2-0.5s-1.1-0.8-1.5-1.4c-0.3-0.6-0.5-1.3-0.5-2.1
		c0-0.8,0.2-1.5,0.5-2.1s0.8-1.1,1.4-1.4s1.2-0.5,2-0.5c0.7,0,1.4,0.2,2,0.5s1,0.8,1.4,1.4c0.3,0.6,0.5,1.3,0.5,2.1L217.7,81.6z
		 M212,78.9c-0.5,0.5-0.8,1.1-0.9,1.9h5.6c-0.1-0.8-0.4-1.4-0.9-1.9c-0.5-0.5-1.2-0.7-1.9-0.7C213.1,78.2,212.5,78.4,212,78.9z"/>
	<path class="st0" d="M220.2,85c-0.6-0.2-1-0.4-1.4-0.7l0.5-0.8c0.3,0.3,0.7,0.5,1.2,0.6s1,0.2,1.6,0.2c0.7,0,1.3-0.1,1.6-0.3
		c0.3-0.2,0.5-0.5,0.5-1c0-0.3-0.1-0.5-0.3-0.7s-0.4-0.3-0.7-0.4s-0.7-0.2-1.2-0.2c-0.6-0.1-1.2-0.2-1.5-0.4s-0.7-0.3-1-0.6
		c-0.3-0.3-0.4-0.7-0.4-1.2c0-0.7,0.3-1.2,0.8-1.6c0.5-0.4,1.3-0.6,2.3-0.6c0.5,0,1,0.1,1.5,0.2s0.9,0.3,1.3,0.5l-0.5,0.9
		c-0.7-0.5-1.4-0.7-2.3-0.7c-0.7,0-1.2,0.1-1.5,0.4c-0.3,0.2-0.5,0.6-0.5,0.9c0,0.3,0.1,0.5,0.3,0.7c0.2,0.2,0.4,0.3,0.7,0.4
		s0.7,0.2,1.2,0.3c0.6,0.1,1.1,0.2,1.5,0.4c0.4,0.1,0.7,0.3,1,0.6c0.3,0.3,0.4,0.7,0.4,1.2c0,0.7-0.3,1.2-0.9,1.6s-1.4,0.6-2.4,0.6
		C221.3,85.3,220.7,85.2,220.2,85z"/>
	<path class="st0" d="M231.4,84.7c-0.2,0.2-0.4,0.3-0.7,0.4s-0.6,0.1-0.9,0.1c-0.7,0-1.3-0.2-1.7-0.6c-0.4-0.4-0.6-1-0.6-1.7v-4.8
		H226v-0.9h1.4v-1.7h1.1v1.7h2.4v0.9h-2.4v4.7c0,0.5,0.1,0.8,0.4,1.1c0.2,0.2,0.6,0.4,1,0.4c0.2,0,0.4,0,0.6-0.1
		c0.2-0.1,0.4-0.2,0.5-0.3L231.4,84.7z"/>
	<path class="st0" d="M245.5,78.1c0.6,0.6,0.8,1.4,0.8,2.5v4.6h-1.1v-4.5c0-0.8-0.2-1.4-0.6-1.9c-0.4-0.4-1-0.6-1.7-0.6
		c-0.8,0-1.5,0.3-1.9,0.8c-0.5,0.5-0.7,1.2-0.7,2.1v4.1h-1.1v-4.5c0-0.8-0.2-1.4-0.6-1.9c-0.4-0.4-1-0.6-1.7-0.6
		c-0.8,0-1.5,0.3-1.9,0.8c-0.5,0.5-0.7,1.2-0.7,2.1v4.1h-1.1v-7.9h1v1.4c0.3-0.5,0.7-0.8,1.2-1.1s1.1-0.4,1.7-0.4
		c0.7,0,1.2,0.1,1.7,0.4c0.5,0.3,0.8,0.7,1.1,1.2c0.3-0.5,0.7-0.9,1.3-1.2s1.2-0.4,1.9-0.4C244.1,77.3,244.9,77.6,245.5,78.1z"/>
	<path class="st0" d="M256.1,81.6h-6.6c0.1,0.8,0.4,1.5,0.9,2c0.6,0.5,1.3,0.8,2.2,0.8c0.5,0,0.9-0.1,1.3-0.3s0.8-0.4,1.1-0.8
		l0.6,0.7c-0.4,0.4-0.8,0.7-1.3,1s-1.1,0.3-1.7,0.3c-0.8,0-1.5-0.2-2.2-0.5s-1.1-0.8-1.5-1.4c-0.3-0.6-0.5-1.3-0.5-2.1
		c0-0.8,0.2-1.5,0.5-2.1s0.8-1.1,1.4-1.4s1.2-0.5,2-0.5c0.7,0,1.4,0.2,2,0.5s1,0.8,1.4,1.4c0.3,0.6,0.5,1.3,0.5,2.1L256.1,81.6z
		 M250.4,78.9c-0.5,0.5-0.8,1.1-0.9,1.9h5.6c-0.1-0.8-0.4-1.4-0.9-1.9c-0.5-0.5-1.2-0.7-1.9-0.7C251.5,78.2,250.9,78.4,250.4,78.9z"
		/>
	<path class="st0" d="M264.7,78.1c0.6,0.6,0.9,1.4,0.9,2.5v4.6h-1.1v-4.5c0-0.8-0.2-1.4-0.6-1.9c-0.4-0.4-1-0.6-1.8-0.6
		c-0.8,0-1.5,0.3-2,0.8c-0.5,0.5-0.7,1.2-0.7,2.1v4.1h-1.1v-7.9h1v1.5c0.3-0.5,0.7-0.9,1.2-1.1c0.5-0.3,1.1-0.4,1.8-0.4
		C263.3,77.3,264.1,77.6,264.7,78.1z"/>
	<path class="st0" d="M272.6,84.7c-0.2,0.2-0.4,0.3-0.7,0.4s-0.6,0.1-0.9,0.1c-0.7,0-1.3-0.2-1.7-0.6c-0.4-0.4-0.6-1-0.6-1.7v-4.8
		h-1.4v-0.9h1.4v-1.7h1.1v1.7h2.4v0.9h-2.4v4.7c0,0.5,0.1,0.8,0.4,1.1c0.2,0.2,0.6,0.4,1,0.4c0.2,0,0.4,0,0.6-0.1
		c0.2-0.1,0.4-0.2,0.5-0.3L272.6,84.7z"/>
	<path class="st0" d="M274.8,85c-0.6-0.2-1-0.4-1.4-0.7l0.5-0.8c0.3,0.3,0.7,0.5,1.2,0.6s1,0.2,1.6,0.2c0.7,0,1.3-0.1,1.6-0.3
		c0.3-0.2,0.5-0.5,0.5-1c0-0.3-0.1-0.5-0.3-0.7s-0.4-0.3-0.7-0.4s-0.7-0.2-1.2-0.2c-0.6-0.1-1.2-0.2-1.5-0.4s-0.7-0.3-1-0.6
		c-0.3-0.3-0.4-0.7-0.4-1.2c0-0.7,0.3-1.2,0.8-1.6c0.5-0.4,1.3-0.6,2.3-0.6c0.5,0,1,0.1,1.5,0.2s0.9,0.3,1.3,0.5l-0.5,0.9
		c-0.7-0.5-1.4-0.7-2.3-0.7c-0.7,0-1.2,0.1-1.5,0.4c-0.3,0.2-0.5,0.6-0.5,0.9c0,0.3,0.1,0.5,0.3,0.7c0.2,0.2,0.4,0.3,0.7,0.4
		s0.7,0.2,1.2,0.3c0.6,0.1,1.1,0.2,1.5,0.4c0.4,0.1,0.7,0.3,1,0.6c0.3,0.3,0.4,0.7,0.4,1.2c0,0.7-0.3,1.2-0.9,1.6s-1.4,0.6-2.4,0.6
		C276,85.3,275.4,85.2,274.8,85z"/>
	<path class="st0" d="M290.9,78c0.5,0.5,0.8,1.3,0.8,2.3v4.9h-1V84c-0.2,0.4-0.6,0.7-1.1,1c-0.5,0.2-1,0.3-1.7,0.3
		c-0.9,0-1.6-0.2-2.1-0.6c-0.5-0.4-0.8-1-0.8-1.7c0-0.7,0.2-1.2,0.7-1.6c0.5-0.4,1.3-0.6,2.3-0.6h2.5v-0.5c0-0.7-0.2-1.2-0.6-1.6
		c-0.4-0.4-0.9-0.5-1.7-0.5c-0.5,0-1,0.1-1.4,0.2s-0.9,0.4-1.2,0.7l-0.5-0.8c0.4-0.3,0.9-0.6,1.4-0.8c0.6-0.2,1.2-0.3,1.8-0.3
		C289.6,77.3,290.4,77.5,290.9,78z M289.7,84c0.4-0.3,0.8-0.7,1-1.2v-1.3h-2.5c-1.4,0-2,0.5-2,1.4c0,0.5,0.2,0.8,0.5,1.1
		c0.3,0.3,0.8,0.4,1.5,0.4C288.8,84.5,289.3,84.3,289.7,84z"/>
	<path class="st0" d="M301,78.1c0.6,0.6,0.9,1.4,0.9,2.5v4.6h-1.1v-4.5c0-0.8-0.2-1.4-0.6-1.9c-0.4-0.4-1-0.6-1.8-0.6
		c-0.8,0-1.5,0.3-2,0.8c-0.5,0.5-0.7,1.2-0.7,2.1v4.1h-1.1v-7.9h1v1.5c0.3-0.5,0.7-0.9,1.2-1.1c0.5-0.3,1.1-0.4,1.8-0.4
		C299.7,77.3,300.5,77.6,301,78.1z"/>
	<path class="st0" d="M312,74.1v11.1h-1v-1.6c-0.3,0.5-0.7,0.9-1.3,1.2s-1.1,0.4-1.8,0.4c-0.7,0-1.4-0.2-2-0.5
		c-0.6-0.3-1.1-0.8-1.4-1.4c-0.3-0.6-0.5-1.3-0.5-2.1c0-0.8,0.2-1.5,0.5-2.1c0.3-0.6,0.8-1.1,1.4-1.4c0.6-0.3,1.3-0.5,2-0.5
		c0.6,0,1.2,0.1,1.7,0.4c0.5,0.3,0.9,0.7,1.3,1.2v-4.7H312z M309.6,84c0.4-0.3,0.8-0.6,1.1-1.1c0.3-0.5,0.4-1,0.4-1.6
		c0-0.6-0.1-1.1-0.4-1.6c-0.3-0.5-0.6-0.8-1.1-1.1c-0.4-0.3-0.9-0.4-1.5-0.4c-0.6,0-1.1,0.1-1.5,0.4c-0.4,0.3-0.8,0.6-1,1.1
		s-0.4,1-0.4,1.6c0,0.6,0.1,1.1,0.4,1.6c0.3,0.5,0.6,0.8,1,1.1c0.4,0.3,0.9,0.4,1.5,0.4C308.6,84.4,309.1,84.2,309.6,84z"/>
	<path class="st0" d="M319.2,85c-0.6-0.2-1-0.4-1.4-0.7l0.5-0.8c0.3,0.3,0.7,0.5,1.2,0.6s1,0.2,1.6,0.2c0.7,0,1.3-0.1,1.6-0.3
		c0.3-0.2,0.5-0.5,0.5-1c0-0.3-0.1-0.5-0.3-0.7s-0.4-0.3-0.7-0.4s-0.7-0.2-1.2-0.2c-0.6-0.1-1.2-0.2-1.5-0.4s-0.7-0.3-1-0.6
		c-0.3-0.3-0.4-0.7-0.4-1.2c0-0.7,0.3-1.2,0.8-1.6c0.5-0.4,1.3-0.6,2.3-0.6c0.5,0,1,0.1,1.5,0.2s0.9,0.3,1.3,0.5l-0.5,0.9
		c-0.7-0.5-1.4-0.7-2.3-0.7c-0.7,0-1.2,0.1-1.5,0.4c-0.3,0.2-0.5,0.6-0.5,0.9c0,0.3,0.1,0.5,0.3,0.7c0.2,0.2,0.4,0.3,0.7,0.4
		s0.7,0.2,1.2,0.3c0.6,0.1,1.1,0.2,1.5,0.4c0.4,0.1,0.7,0.3,1,0.6c0.3,0.3,0.4,0.7,0.4,1.2c0,0.7-0.3,1.2-0.9,1.6s-1.4,0.6-2.4,0.6
		C320.4,85.3,319.8,85.2,319.2,85z"/>
	<path class="st0" d="M330.4,84.7c-0.2,0.2-0.4,0.3-0.7,0.4s-0.6,0.1-0.9,0.1c-0.7,0-1.3-0.2-1.7-0.6c-0.4-0.4-0.6-1-0.6-1.7v-4.8
		h-1.4v-0.9h1.4v-1.7h1.1v1.7h2.4v0.9h-2.4v4.7c0,0.5,0.1,0.8,0.4,1.1c0.2,0.2,0.6,0.4,1,0.4c0.2,0,0.4,0,0.6-0.1
		c0.2-0.1,0.4-0.2,0.5-0.3L330.4,84.7z"/>
	<path class="st0" d="M334.5,77.7c0.5-0.3,1.1-0.4,1.8-0.4v1l-0.3,0c-0.8,0-1.5,0.3-2,0.8c-0.5,0.5-0.7,1.2-0.7,2.1v4h-1.1v-7.9h1
		v1.5C333.6,78.3,334,78,334.5,77.7z"/>
	<path class="st0" d="M345.5,77.3v7.9h-1v-1.4c-0.3,0.5-0.7,0.9-1.2,1.1s-1,0.4-1.7,0.4c-1,0-1.8-0.3-2.4-0.9
		c-0.6-0.6-0.9-1.4-0.9-2.5v-4.6h1.1v4.5c0,0.8,0.2,1.5,0.6,1.9c0.4,0.4,1,0.6,1.8,0.6c0.8,0,1.5-0.3,2-0.8c0.5-0.5,0.7-1.2,0.7-2.1
		v-4.1H345.5z"/>
	<path class="st0" d="M349.7,84.8c-0.6-0.3-1.1-0.8-1.4-1.4s-0.5-1.3-0.5-2.1c0-0.8,0.2-1.5,0.5-2.1s0.8-1.1,1.4-1.4
		c0.6-0.3,1.3-0.5,2.1-0.5c0.7,0,1.3,0.1,1.8,0.4c0.5,0.3,1,0.7,1.3,1.2l-0.8,0.5c-0.3-0.4-0.6-0.7-1-0.9c-0.4-0.2-0.8-0.3-1.3-0.3
		c-0.6,0-1.1,0.1-1.5,0.4c-0.5,0.3-0.8,0.6-1.1,1.1s-0.4,1-0.4,1.6c0,0.6,0.1,1.1,0.4,1.6s0.6,0.8,1.1,1.1s1,0.4,1.5,0.4
		c0.5,0,0.9-0.1,1.3-0.3c0.4-0.2,0.7-0.5,1-0.9l0.8,0.5c-0.3,0.5-0.7,0.9-1.3,1.2s-1.1,0.4-1.8,0.4C351,85.3,350.3,85.1,349.7,84.8z
		"/>
	<path class="st0" d="M361.2,84.7c-0.2,0.2-0.4,0.3-0.7,0.4s-0.6,0.1-0.9,0.1c-0.7,0-1.3-0.2-1.7-0.6c-0.4-0.4-0.6-1-0.6-1.7v-4.8
		h-1.4v-0.9h1.4v-1.7h1.1v1.7h2.4v0.9h-2.4v4.7c0,0.5,0.1,0.8,0.4,1.1c0.2,0.2,0.6,0.4,1,0.4c0.2,0,0.4,0,0.6-0.1
		c0.2-0.1,0.4-0.2,0.5-0.3L361.2,84.7z"/>
	<path class="st0" d="M370.2,77.3v7.9h-1v-1.4c-0.3,0.5-0.7,0.9-1.2,1.1s-1,0.4-1.7,0.4c-1,0-1.8-0.3-2.4-0.9
		c-0.6-0.6-0.9-1.4-0.9-2.5v-4.6h1.1v4.5c0,0.8,0.2,1.5,0.6,1.9c0.4,0.4,1,0.6,1.8,0.6c0.8,0,1.5-0.3,2-0.8c0.5-0.5,0.7-1.2,0.7-2.1
		v-4.1H370.2z"/>
	<path class="st0" d="M375.3,77.7c0.5-0.3,1.1-0.4,1.8-0.4v1l-0.3,0c-0.8,0-1.5,0.3-2,0.8c-0.5,0.5-0.7,1.2-0.7,2.1v4h-1.1v-7.9h1
		v1.5C374.5,78.3,374.8,78,375.3,77.7z"/>
	<path class="st0" d="M385.9,81.6h-6.6c0.1,0.8,0.4,1.5,0.9,2c0.6,0.5,1.3,0.8,2.2,0.8c0.5,0,0.9-0.1,1.3-0.3s0.8-0.4,1.1-0.8
		l0.6,0.7c-0.4,0.4-0.8,0.7-1.3,1s-1.1,0.3-1.7,0.3c-0.8,0-1.5-0.2-2.2-0.5s-1.1-0.8-1.5-1.4c-0.3-0.6-0.5-1.3-0.5-2.1
		c0-0.8,0.2-1.5,0.5-2.1s0.8-1.1,1.4-1.4s1.2-0.5,2-0.5c0.7,0,1.4,0.2,2,0.5s1,0.8,1.4,1.4c0.3,0.6,0.5,1.3,0.5,2.1L385.9,81.6z
		 M380.2,78.9c-0.5,0.5-0.8,1.1-0.9,1.9h5.6c-0.1-0.8-0.4-1.4-0.9-1.9c-0.5-0.5-1.2-0.7-1.9-0.7C381.3,78.2,380.7,78.4,380.2,78.9z"
		/>
	<path class="st0" d="M71.6,100.7v4.1H77v1h-5.4v4.5h-1.1V99.7h7.2v1H71.6z"/>
	<path class="st0" d="M80.7,109.8c-0.6-0.3-1.1-0.8-1.4-1.4c-0.4-0.6-0.5-1.3-0.5-2.1c0-0.8,0.2-1.5,0.5-2.1s0.8-1.1,1.4-1.4
		s1.3-0.5,2.1-0.5c0.8,0,1.4,0.2,2.1,0.5c0.6,0.3,1.1,0.8,1.4,1.4c0.3,0.6,0.5,1.3,0.5,2.1c0,0.8-0.2,1.5-0.5,2.1
		c-0.3,0.6-0.8,1.1-1.4,1.4c-0.6,0.3-1.3,0.5-2.1,0.5C82,110.3,81.3,110.1,80.7,109.8z M84.2,109c0.4-0.3,0.8-0.6,1-1.1
		c0.2-0.5,0.4-1,0.4-1.6c0-0.6-0.1-1.1-0.4-1.6s-0.6-0.8-1-1.1c-0.4-0.3-0.9-0.4-1.5-0.4s-1.1,0.1-1.5,0.4c-0.4,0.3-0.8,0.6-1.1,1.1
		c-0.3,0.5-0.4,1-0.4,1.6c0,0.6,0.1,1.1,0.4,1.6c0.3,0.5,0.6,0.8,1.1,1.1c0.4,0.3,0.9,0.4,1.5,0.4S83.8,109.2,84.2,109z"/>
	<path class="st0" d="M91,102.7c0.5-0.3,1.1-0.4,1.8-0.4v1l-0.3,0c-0.8,0-1.5,0.3-2,0.8c-0.5,0.5-0.7,1.2-0.7,2.1v4h-1.1v-7.9h1v1.5
		C90.2,103.3,90.5,103,91,102.7z"/>
	<path class="st0" d="M111,103.1c0.6,0.6,0.8,1.4,0.8,2.5v4.6h-1.1v-4.5c0-0.8-0.2-1.4-0.6-1.9c-0.4-0.4-1-0.6-1.7-0.6
		c-0.8,0-1.5,0.3-1.9,0.8c-0.5,0.5-0.7,1.2-0.7,2.1v4.1h-1.1v-4.5c0-0.8-0.2-1.4-0.6-1.9s-1-0.6-1.7-0.6c-0.8,0-1.5,0.3-1.9,0.8
		c-0.5,0.5-0.7,1.2-0.7,2.1v4.1h-1.1v-7.9h1v1.4c0.3-0.5,0.7-0.8,1.2-1.1s1.1-0.4,1.7-0.4c0.7,0,1.2,0.1,1.7,0.4
		c0.5,0.3,0.8,0.7,1.1,1.2c0.3-0.5,0.7-0.9,1.3-1.2c0.5-0.3,1.2-0.4,1.9-0.4C109.7,102.3,110.5,102.6,111,103.1z"/>
	<path class="st0" d="M121.7,106.6h-6.6c0.1,0.8,0.4,1.5,0.9,2c0.6,0.5,1.3,0.8,2.2,0.8c0.5,0,0.9-0.1,1.4-0.3s0.8-0.4,1.1-0.8
		l0.6,0.7c-0.4,0.4-0.8,0.7-1.3,1s-1.1,0.3-1.7,0.3c-0.8,0-1.5-0.2-2.2-0.5c-0.6-0.3-1.1-0.8-1.5-1.4c-0.4-0.6-0.5-1.3-0.5-2.1
		c0-0.8,0.2-1.5,0.5-2.1s0.8-1.1,1.4-1.4c0.6-0.3,1.2-0.5,2-0.5s1.4,0.2,2,0.5s1,0.8,1.4,1.4c0.3,0.6,0.5,1.3,0.5,2.1L121.7,106.6z
		 M115.9,103.9c-0.5,0.5-0.8,1.1-0.9,1.9h5.6c-0.1-0.8-0.4-1.4-0.9-1.9c-0.5-0.5-1.2-0.7-1.9-0.7
		C117.1,103.2,116.5,103.4,115.9,103.9z"/>
	<path class="st0" d="M128.8,103c0.5,0.5,0.8,1.3,0.8,2.3v4.9h-1V109c-0.2,0.4-0.6,0.7-1.1,1c-0.5,0.2-1,0.3-1.7,0.3
		c-0.9,0-1.6-0.2-2.1-0.6s-0.8-1-0.8-1.7c0-0.7,0.2-1.2,0.7-1.6c0.5-0.4,1.3-0.6,2.3-0.6h2.5v-0.5c0-0.7-0.2-1.2-0.6-1.6
		c-0.4-0.4-0.9-0.5-1.7-0.5c-0.5,0-1,0.1-1.4,0.2c-0.5,0.2-0.9,0.4-1.2,0.7l-0.5-0.8c0.4-0.3,0.9-0.6,1.4-0.8
		c0.6-0.2,1.1-0.3,1.8-0.3C127.4,102.3,128.2,102.5,128.8,103z M127.6,109c0.4-0.3,0.8-0.7,1-1.2v-1.3H126c-1.4,0-2,0.5-2,1.4
		c0,0.5,0.2,0.8,0.5,1.1s0.8,0.4,1.5,0.4C126.6,109.5,127.1,109.3,127.6,109z"/>
	<path class="st0" d="M138.9,103.1c0.6,0.6,0.9,1.4,0.9,2.5v4.6h-1.1v-4.5c0-0.8-0.2-1.4-0.6-1.9s-1-0.6-1.8-0.6
		c-0.9,0-1.5,0.3-2,0.8s-0.7,1.2-0.7,2.1v4.1h-1.1v-7.9h1v1.5c0.3-0.5,0.7-0.9,1.2-1.1c0.5-0.3,1.1-0.4,1.8-0.4
		C137.5,102.3,138.3,102.6,138.9,103.1z"/>
	<path class="st0" d="M142.6,100.4c-0.2-0.2-0.2-0.3-0.2-0.5c0-0.2,0.1-0.4,0.2-0.5c0.1-0.2,0.3-0.2,0.6-0.2c0.2,0,0.4,0.1,0.6,0.2
		s0.2,0.3,0.2,0.5c0,0.2-0.1,0.4-0.2,0.6s-0.3,0.2-0.6,0.2C142.9,100.6,142.8,100.5,142.6,100.4z M142.6,102.3h1.1v7.9h-1.1V102.3z"
		/>
	<path class="st0" d="M153,103.1c0.6,0.6,0.9,1.4,0.9,2.5v4.6h-1.1v-4.5c0-0.8-0.2-1.4-0.6-1.9s-1-0.6-1.8-0.6c-0.8,0-1.5,0.3-2,0.8
		s-0.7,1.2-0.7,2.1v4.1h-1.1v-7.9h1v1.5c0.3-0.5,0.7-0.9,1.2-1.1c0.5-0.3,1.1-0.4,1.8-0.4C151.7,102.3,152.5,102.6,153,103.1z"/>
	<path class="st0" d="M164.2,102.3v6.9c0,1.3-0.3,2.3-1,3c-0.7,0.6-1.6,1-3,1c-0.7,0-1.4-0.1-2.1-0.3c-0.7-0.2-1.2-0.5-1.6-0.9
		l0.5-0.8c0.4,0.3,0.8,0.6,1.4,0.8c0.5,0.2,1.1,0.3,1.7,0.3c1,0,1.7-0.2,2.2-0.7c0.5-0.5,0.7-1.2,0.7-2.2v-1
		c-0.3,0.5-0.8,0.9-1.3,1.1c-0.5,0.3-1.1,0.4-1.8,0.4c-0.7,0-1.4-0.2-2-0.5c-0.6-0.3-1.1-0.8-1.4-1.4c-0.3-0.6-0.5-1.2-0.5-2
		s0.2-1.4,0.5-2c0.3-0.6,0.8-1,1.4-1.3s1.3-0.5,2-0.5c0.7,0,1.3,0.1,1.8,0.4c0.5,0.3,1,0.7,1.3,1.2v-1.5H164.2z M161.7,108.6
		c0.5-0.2,0.8-0.6,1.1-1c0.3-0.4,0.4-0.9,0.4-1.5s-0.1-1.1-0.4-1.5c-0.3-0.4-0.6-0.8-1.1-1s-1-0.4-1.6-0.4c-0.6,0-1.1,0.1-1.5,0.4
		c-0.5,0.2-0.8,0.6-1.1,1s-0.4,0.9-0.4,1.5s0.1,1.1,0.4,1.5s0.6,0.8,1.1,1s1,0.4,1.5,0.4S161.2,108.9,161.7,108.6z"/>
	<path class="st0" d="M168.7,100.3c-0.2,0.2-0.4,0.6-0.4,1.1v0.9h2.4v0.9h-2.4v7h-1.1v-7h-1.4v-0.9h1.4v-1c0-0.7,0.2-1.3,0.6-1.7
		c0.4-0.4,1-0.6,1.8-0.6c0.3,0,0.6,0,0.9,0.1s0.5,0.2,0.7,0.4l-0.4,0.8c-0.3-0.3-0.7-0.4-1.2-0.4C169.3,99.9,168.9,100,168.7,100.3z
		"/>
	<path class="st0" d="M179.3,102.3v7.9h-1v-1.4c-0.3,0.5-0.7,0.9-1.2,1.1s-1,0.4-1.7,0.4c-1,0-1.8-0.3-2.4-0.9
		c-0.6-0.6-0.9-1.4-0.9-2.5v-4.6h1.1v4.5c0,0.8,0.2,1.5,0.6,1.9c0.4,0.4,1,0.6,1.8,0.6c0.8,0,1.5-0.3,2-0.8c0.5-0.5,0.7-1.2,0.7-2.1
		v-4.1H179.3z"/>
	<path class="st0" d="M182.3,99.1h1.1v11.1h-1.1V99.1z"/>
	<path class="st0" d="M191.5,109.8c-0.6-0.3-1.1-0.8-1.4-1.4s-0.5-1.3-0.5-2.1c0-0.8,0.2-1.5,0.5-2.1s0.8-1.1,1.4-1.4
		c0.6-0.3,1.3-0.5,2.1-0.5c0.7,0,1.3,0.1,1.8,0.4c0.5,0.3,1,0.7,1.3,1.2l-0.8,0.5c-0.3-0.4-0.6-0.7-1-0.9c-0.4-0.2-0.8-0.3-1.3-0.3
		c-0.6,0-1.1,0.1-1.5,0.4c-0.5,0.3-0.8,0.6-1.1,1.1s-0.4,1-0.4,1.6c0,0.6,0.1,1.1,0.4,1.6s0.6,0.8,1.1,1.1s1,0.4,1.5,0.4
		c0.5,0,0.9-0.1,1.3-0.3c0.4-0.2,0.7-0.5,1-0.9l0.8,0.5c-0.3,0.5-0.7,0.9-1.3,1.2s-1.1,0.4-1.8,0.4
		C192.8,110.3,192.1,110.1,191.5,109.8z"/>
	<path class="st0" d="M198.6,99.1h1.1v11.1h-1.1V99.1z"/>
	<path class="st0" d="M202.6,100.4c-0.1-0.2-0.2-0.3-0.2-0.5c0-0.2,0.1-0.4,0.2-0.5c0.2-0.2,0.3-0.2,0.6-0.2c0.2,0,0.4,0.1,0.6,0.2
		s0.2,0.3,0.2,0.5c0,0.2-0.1,0.4-0.2,0.6s-0.3,0.2-0.6,0.2C203,100.6,202.8,100.5,202.6,100.4z M202.6,102.3h1.1v7.9h-1.1V102.3z"/>
	<path class="st0" d="M213.5,106.6h-6.6c0.1,0.8,0.4,1.5,0.9,2c0.6,0.5,1.3,0.8,2.2,0.8c0.5,0,0.9-0.1,1.3-0.3s0.8-0.4,1.1-0.8
		l0.6,0.7c-0.4,0.4-0.8,0.7-1.3,1s-1.1,0.3-1.7,0.3c-0.8,0-1.5-0.2-2.2-0.5s-1.1-0.8-1.5-1.4c-0.3-0.6-0.5-1.3-0.5-2.1
		c0-0.8,0.2-1.5,0.5-2.1s0.8-1.1,1.4-1.4s1.2-0.5,2-0.5c0.7,0,1.4,0.2,2,0.5s1,0.8,1.4,1.4c0.3,0.6,0.5,1.3,0.5,2.1L213.5,106.6z
		 M207.8,103.9c-0.5,0.5-0.8,1.1-0.9,1.9h5.6c-0.1-0.8-0.4-1.4-0.9-1.9c-0.5-0.5-1.2-0.7-1.9-0.7C209,103.2,208.3,103.4,207.8,103.9
		z"/>
	<path class="st0" d="M222.1,103.1c0.6,0.6,0.9,1.4,0.9,2.5v4.6h-1.1v-4.5c0-0.8-0.2-1.4-0.6-1.9c-0.4-0.4-1-0.6-1.8-0.6
		c-0.8,0-1.5,0.3-2,0.8c-0.5,0.5-0.7,1.2-0.7,2.1v4.1h-1.1v-7.9h1v1.5c0.3-0.5,0.7-0.9,1.2-1.1c0.5-0.3,1.1-0.4,1.8-0.4
		C220.7,102.3,221.5,102.6,222.1,103.1z"/>
	<path class="st0" d="M230,109.7c-0.2,0.2-0.4,0.3-0.7,0.4s-0.6,0.1-0.9,0.1c-0.7,0-1.3-0.2-1.7-0.6c-0.4-0.4-0.6-1-0.6-1.7v-4.8
		h-1.4v-0.9h1.4v-1.7h1.1v1.7h2.4v0.9h-2.4v4.7c0,0.5,0.1,0.8,0.4,1.1c0.2,0.2,0.6,0.4,1,0.4c0.2,0,0.4,0,0.6-0.1
		c0.2-0.1,0.4-0.2,0.5-0.3L230,109.7z"/>
	<path class="st0" d="M242,102.8c0.6,0.3,1.1,0.8,1.4,1.4c0.3,0.6,0.5,1.3,0.5,2.1c0,0.8-0.2,1.5-0.5,2.1s-0.8,1.1-1.4,1.4
		c-0.6,0.3-1.3,0.5-2,0.5c-0.6,0-1.2-0.1-1.7-0.4s-0.9-0.7-1.3-1.2v4.4h-1.1v-10.8h1v1.6c0.3-0.5,0.7-0.9,1.3-1.2
		c0.5-0.3,1.1-0.4,1.8-0.4C240.7,102.3,241.4,102.4,242,102.8z M241.4,109c0.5-0.3,0.8-0.6,1.1-1.1c0.3-0.5,0.4-1,0.4-1.6
		c0-0.6-0.1-1.1-0.4-1.6s-0.6-0.8-1.1-1.1c-0.4-0.3-1-0.4-1.5-0.4c-0.6,0-1.1,0.1-1.5,0.4c-0.4,0.3-0.8,0.6-1,1.1
		c-0.3,0.5-0.4,1-0.4,1.6c0,0.6,0.1,1.1,0.4,1.6c0.3,0.5,0.6,0.8,1,1.1c0.4,0.3,0.9,0.4,1.5,0.4C240.5,109.4,241,109.2,241.4,109z"
		/>
	<path class="st0" d="M251.2,103c0.5,0.5,0.8,1.3,0.8,2.3v4.9h-1V109c-0.2,0.4-0.6,0.7-1.1,1c-0.5,0.2-1,0.3-1.7,0.3
		c-0.9,0-1.6-0.2-2.1-0.6c-0.5-0.4-0.8-1-0.8-1.7c0-0.7,0.2-1.2,0.7-1.6c0.5-0.4,1.3-0.6,2.3-0.6h2.5v-0.5c0-0.7-0.2-1.2-0.6-1.6
		c-0.4-0.4-0.9-0.5-1.7-0.5c-0.5,0-1,0.1-1.4,0.2s-0.9,0.4-1.2,0.7l-0.5-0.8c0.4-0.3,0.9-0.6,1.4-0.8c0.6-0.2,1.2-0.3,1.8-0.3
		C249.8,102.3,250.6,102.5,251.2,103z M250,109c0.4-0.3,0.8-0.7,1-1.2v-1.3h-2.5c-1.4,0-2,0.5-2,1.4c0,0.5,0.2,0.8,0.5,1.1
		c0.3,0.3,0.8,0.4,1.5,0.4C249,109.5,249.5,109.3,250,109z"/>
	<path class="st0" d="M257,102.7c0.5-0.3,1.1-0.4,1.8-0.4v1l-0.3,0c-0.8,0-1.5,0.3-2,0.8c-0.5,0.5-0.7,1.2-0.7,2.1v4h-1.1v-7.9h1
		v1.5C256.2,103.3,256.5,103,257,102.7z"/>
	<path class="st0" d="M265.3,109.7c-0.2,0.2-0.4,0.3-0.7,0.4s-0.6,0.1-0.9,0.1c-0.7,0-1.3-0.2-1.7-0.6c-0.4-0.4-0.6-1-0.6-1.7v-4.8
		h-1.4v-0.9h1.4v-1.7h1.1v1.7h2.4v0.9h-2.4v4.7c0,0.5,0.1,0.8,0.4,1.1c0.2,0.2,0.6,0.4,1,0.4c0.2,0,0.4,0,0.6-0.1
		c0.2-0.1,0.4-0.2,0.5-0.3L265.3,109.7z"/>
	<path class="st0" d="M273.6,103.1c0.6,0.6,0.9,1.4,0.9,2.5v4.6h-1.1v-4.5c0-0.8-0.2-1.4-0.6-1.9c-0.4-0.4-1-0.6-1.8-0.6
		c-0.8,0-1.5,0.3-2,0.8c-0.5,0.5-0.7,1.2-0.7,2.1v4.1h-1.1v-7.9h1v1.5c0.3-0.5,0.7-0.9,1.2-1.1c0.5-0.3,1.1-0.4,1.8-0.4
		C272.2,102.3,273,102.6,273.6,103.1z"/>
	<path class="st0" d="M284.3,106.6h-6.6c0.1,0.8,0.4,1.5,0.9,2c0.6,0.5,1.3,0.8,2.2,0.8c0.5,0,0.9-0.1,1.3-0.3s0.8-0.4,1.1-0.8
		l0.6,0.7c-0.4,0.4-0.8,0.7-1.3,1s-1.1,0.3-1.7,0.3c-0.8,0-1.5-0.2-2.2-0.5s-1.1-0.8-1.5-1.4c-0.3-0.6-0.5-1.3-0.5-2.1
		c0-0.8,0.2-1.5,0.5-2.1s0.8-1.1,1.4-1.4s1.2-0.5,2-0.5c0.7,0,1.4,0.2,2,0.5s1,0.8,1.4,1.4c0.3,0.6,0.5,1.3,0.5,2.1L284.3,106.6z
		 M278.6,103.9c-0.5,0.5-0.8,1.1-0.9,1.9h5.6c-0.1-0.8-0.4-1.4-0.9-1.9c-0.5-0.5-1.2-0.7-1.9-0.7
		C279.7,103.2,279.1,103.4,278.6,103.9z"/>
	<path class="st0" d="M288.6,102.7c0.5-0.3,1.1-0.4,1.8-0.4v1l-0.3,0c-0.8,0-1.5,0.3-2,0.8c-0.5,0.5-0.7,1.2-0.7,2.1v4h-1.1v-7.9h1
		v1.5C287.7,103.3,288.1,103,288.6,102.7z"/>
	<path class="st0" d="M292.7,110c-0.6-0.2-1-0.4-1.4-0.7l0.5-0.8c0.3,0.3,0.7,0.5,1.2,0.6s1,0.2,1.6,0.2c0.7,0,1.3-0.1,1.6-0.3
		c0.3-0.2,0.5-0.5,0.5-1c0-0.3-0.1-0.5-0.3-0.7s-0.4-0.3-0.7-0.4s-0.7-0.2-1.2-0.2c-0.6-0.1-1.2-0.2-1.5-0.4s-0.7-0.3-1-0.6
		c-0.3-0.3-0.4-0.7-0.4-1.2c0-0.7,0.3-1.2,0.8-1.6c0.5-0.4,1.3-0.6,2.3-0.6c0.5,0,1,0.1,1.5,0.2s0.9,0.3,1.3,0.5l-0.5,0.9
		c-0.7-0.5-1.4-0.7-2.3-0.7c-0.7,0-1.2,0.1-1.5,0.4c-0.3,0.2-0.5,0.6-0.5,0.9c0,0.3,0.1,0.5,0.3,0.7c0.2,0.2,0.4,0.3,0.7,0.4
		s0.7,0.2,1.2,0.3c0.6,0.1,1.1,0.2,1.5,0.4c0.4,0.1,0.7,0.3,1,0.6c0.3,0.3,0.4,0.7,0.4,1.2c0,0.7-0.3,1.2-0.9,1.6s-1.4,0.6-2.4,0.6
		C293.9,110.3,293.3,110.2,292.7,110z"/>
	<path class="st0" d="M306.1,103.1c0.6,0.6,0.9,1.4,0.9,2.5v4.6h-1.1v-4.5c0-0.8-0.2-1.4-0.6-1.9c-0.4-0.4-1-0.6-1.8-0.6
		c-0.8,0-1.5,0.3-2,0.8c-0.5,0.5-0.7,1.2-0.7,2.1v4.1h-1.1V99.1h1.1v4.6c0.3-0.5,0.7-0.8,1.2-1.1c0.5-0.2,1.1-0.4,1.8-0.4
		C304.8,102.3,305.5,102.6,306.1,103.1z"/>
	<path class="st0" d="M309.9,100.4c-0.1-0.2-0.2-0.3-0.2-0.5c0-0.2,0.1-0.4,0.2-0.5c0.2-0.2,0.3-0.2,0.6-0.2c0.2,0,0.4,0.1,0.6,0.2
		s0.2,0.3,0.2,0.5c0,0.2-0.1,0.4-0.2,0.6s-0.3,0.2-0.6,0.2C310.2,100.6,310,100.5,309.9,100.4z M309.9,102.3h1.1v7.9h-1.1V102.3z"/>
	<path class="st0" d="M320,102.8c0.6,0.3,1.1,0.8,1.4,1.4c0.3,0.6,0.5,1.3,0.5,2.1c0,0.8-0.2,1.5-0.5,2.1s-0.8,1.1-1.4,1.4
		c-0.6,0.3-1.3,0.5-2,0.5c-0.6,0-1.2-0.1-1.7-0.4s-0.9-0.7-1.3-1.2v4.4h-1.1v-10.8h1v1.6c0.3-0.5,0.7-0.9,1.3-1.2
		c0.5-0.3,1.1-0.4,1.8-0.4C318.7,102.3,319.4,102.4,320,102.8z M319.4,109c0.5-0.3,0.8-0.6,1.1-1.1c0.3-0.5,0.4-1,0.4-1.6
		c0-0.6-0.1-1.1-0.4-1.6s-0.6-0.8-1.1-1.1c-0.4-0.3-1-0.4-1.5-0.4c-0.6,0-1.1,0.1-1.5,0.4c-0.4,0.3-0.8,0.6-1,1.1
		c-0.3,0.5-0.4,1-0.4,1.6c0,0.6,0.1,1.1,0.4,1.6c0.3,0.5,0.6,0.8,1,1.1c0.4,0.3,0.9,0.4,1.5,0.4C318.5,109.4,319,109.2,319.4,109z"
		/>
	<path class="st0" d="M324.4,110c-0.6-0.2-1-0.4-1.4-0.7l0.5-0.8c0.3,0.3,0.7,0.5,1.2,0.6s1,0.2,1.6,0.2c0.7,0,1.3-0.1,1.6-0.3
		c0.3-0.2,0.5-0.5,0.5-1c0-0.3-0.1-0.5-0.3-0.7s-0.4-0.3-0.7-0.4s-0.7-0.2-1.2-0.2c-0.6-0.1-1.2-0.2-1.5-0.4s-0.7-0.3-1-0.6
		c-0.3-0.3-0.4-0.7-0.4-1.2c0-0.7,0.3-1.2,0.8-1.6c0.5-0.4,1.3-0.6,2.3-0.6c0.5,0,1,0.1,1.5,0.2s0.9,0.3,1.3,0.5l-0.5,0.9
		c-0.7-0.5-1.4-0.7-2.3-0.7c-0.7,0-1.2,0.1-1.5,0.4c-0.3,0.2-0.5,0.6-0.5,0.9c0,0.3,0.1,0.5,0.3,0.7c0.2,0.2,0.4,0.3,0.7,0.4
		s0.7,0.2,1.2,0.3c0.6,0.1,1.1,0.2,1.5,0.4c0.4,0.1,0.7,0.3,1,0.6c0.3,0.3,0.4,0.7,0.4,1.2c0,0.7-0.3,1.2-0.9,1.6s-1.4,0.6-2.4,0.6
		C325.6,110.3,325,110.2,324.4,110z"/>
</g>
</svg>
