<?xml version="1.0" encoding="utf-8"?>
<!-- Generator: Adobe Illustrator 22.1.0, SVG Export Plug-In . SVG Version: 6.00 Build 0)  -->
<svg version="1.1" id="Layer_1" xmlns="http://www.w3.org/2000/svg" xmlns:xlink="http://www.w3.org/1999/xlink" x="0px" y="0px"
	 viewBox="0 0 300 100" style="enable-background:new 0 0 300 100;" xml:space="preserve">
<style type="text/css">
	.st0{fill:#FFFFFF;}
</style>
<g>
	<path class="st0" d="M84.7,32.4c0,0.4-0.1,0.8-0.3,1.1c-0.2,0.4-0.4,0.7-0.7,1c-0.3,0.3-0.6,0.6-0.9,0.9c-0.3,0.3-0.6,0.5-0.8,0.7
		c-0.3,0.2-0.6,0.4-0.9,0.7c-0.4,0.2-0.7,0.5-1,0.7s-0.6,0.4-0.9,0.6c-0.2,0.2-0.4,0.3-0.5,0.3l-0.6,0.5c0,0.1-0.1,0.1-0.2,0.1
		s-0.2,0-0.2,0c-0.1,0-0.2-0.1-0.2-0.2s-0.1-0.2-0.1-0.3s0.1-0.2,0.3-0.5c0.2-0.2,0.4-0.4,0.6-0.6c0.2-0.2,0.5-0.3,0.8-0.5
		s0.8-0.4,1.3-0.8c0.3-0.2,0.6-0.4,1-0.7s0.8-0.6,1.1-0.9s0.7-0.7,0.9-1s0.4-0.7,0.4-1c0-0.1-0.2-0.3-0.5-0.4
		C83,32,82.5,31.9,82,31.9c-0.6,0-1.2,0.1-1.8,0.3c-0.6,0.2-1.2,0.4-1.8,0.6c-0.5,0.2-1,0.4-1.4,0.6c-0.4,0.2-0.6,0.3-0.7,0.3
		c0,0.3,0.1,0.8,0.2,1.2s0.1,1,0.2,1.4c0.1,0.5,0.2,1.1,0.2,1.6H77c0,0.1,0.1,0.4,0.2,0.6c0.1,0.3,0.1,0.5,0.1,0.7s-0.1,0.4-0.3,0.4
		c-0.1,0-0.2-0.1-0.3-0.2c-0.1-0.2-0.2-0.4-0.3-0.6c-0.1-0.2-0.2-0.4-0.3-0.6C76,38,76,37.8,75.9,37.7c-0.1-0.5-0.3-1-0.4-1.7
		c-0.1-0.6-0.2-1.3-0.3-1.9c-0.1-0.6-0.2-1.2-0.2-1.8c-0.1-0.6-0.1-1-0.1-1.4c0-0.1,0-0.2,0.1-0.3c0.1-0.1,0.1-0.1,0.1-0.2
		s0-0.1-0.1-0.2s-0.1-0.1-0.1-0.2v-0.1c0-0.1,0.1-0.1,0.2-0.1s0.2,0,0.3,0c0.1,0,0.2,0,0.3,0.1c0.1,0,0.1,0.1,0.2,0.2
		s0.1,0.2,0.1,0.4v0.1v0.1v0.1c0,0.2,0,0.4,0,0.6s0,0.2,0.1,0.2c0,0,0.2-0.1,0.5-0.3c0.3-0.2,0.6-0.5,1-0.8s0.8-0.7,1.2-1.1
		c0.4-0.4,0.9-0.8,1.3-1.1c0.2-0.1,0.4-0.4,0.7-0.6s0.6-0.6,0.8-0.9c0.3-0.3,0.5-0.6,0.7-0.9s0.3-0.5,0.3-0.6s0-0.2-0.1-0.2
		s-0.4,0.1-0.7,0.2c-0.4,0.1-0.8,0.2-1.3,0.4c-0.5,0.2-1,0.4-1.5,0.6s-1,0.4-1.4,0.7c-0.4,0.3-0.8,0.6-1.2,0.9
		c-0.4,0.3-0.8,0.7-1.1,1c-0.3,0.3-0.6,0.6-0.8,0.8c-0.2,0.2-0.3,0.3-0.3,0.4v0.1v0.1v0.1c0,0,0,0.1-0.1,0.1s-0.1,0-0.2,0
		s-0.3,0-0.4-0.1c-0.2-0.1-0.3-0.2-0.3-0.4c0-0.2,0.1-0.5,0.4-0.8s0.5-0.6,0.9-1s0.8-0.7,1.2-1c0.5-0.3,0.9-0.7,1.3-1
		s0.9-0.5,1.4-0.8s1-0.5,1.5-0.7s1-0.3,1.4-0.5c0.5-0.1,0.8-0.2,1.1-0.2c0.1,0,0.2,0,0.4,0c0.1,0,0.3,0.1,0.4,0.1
		c0.1,0.1,0.2,0.1,0.3,0.2c0.1,0.1,0.1,0.2,0.1,0.3c0,0.4-0.1,0.8-0.4,1.2c-0.2,0.4-0.5,0.8-0.9,1.3c-0.4,0.4-0.8,0.9-1.3,1.3
		s-1,0.9-1.4,1.3c-0.5,0.4-0.9,0.8-1.4,1.2s-0.8,0.7-1.1,1c0.2-0.1,0.4-0.2,0.8-0.3c0.4-0.1,0.8-0.3,1.2-0.4
		c0.4-0.1,0.9-0.3,1.3-0.4s0.8-0.2,1.2-0.2c0.1,0,0.3,0,0.7,0c0.3,0,0.7,0.1,1.1,0.2s0.7,0.3,1,0.5C84.6,31.7,84.7,32,84.7,32.4z"/>
	<path class="st0" d="M91.3,28.8c-0.2,1-0.4,2-0.5,2.9c-0.1,0.4-0.1,0.8-0.2,1.2c-0.1,0.4-0.1,0.9-0.2,1.3s-0.1,0.8-0.2,1.2
		s-0.1,0.7-0.1,1C90,36.9,90,37.4,90,38s-0.1,1.2-0.1,1.7c0,0.6,0,1.3,0,1.9c0,0.1,0,0.3,0,0.4c0,0.2,0,0.3,0,0.5
		c0,0.1,0,0.3-0.1,0.4c-0.1,0.1-0.2,0.2-0.3,0.2c-0.1,0-0.2-0.1-0.3-0.3c-0.1-0.2-0.1-0.4-0.2-0.6c0-0.2-0.1-0.5-0.1-0.7
		s0-0.4,0-0.5s0-0.3,0-0.4s0-0.4,0-0.7s0.1-0.8,0.1-1.3s0.1-1.2,0.2-2.1c0,0-0.1-0.1-0.3-0.2c-0.2-0.1-0.4-0.3-0.7-0.5
		c-0.3-0.2-0.6-0.4-0.9-0.6c-0.3-0.2-0.6-0.5-0.8-0.7c0,0-0.1-0.1-0.1-0.2c-0.1-0.1-0.1-0.2-0.1-0.4c0-0.1,0-0.2,0.1-0.2
		c0.1-0.1,0.2-0.1,0.2-0.1c0.1,0,0.1,0,0.2,0.1c0.3,0.3,0.7,0.6,1.2,1s0.9,0.7,1.3,1c0-0.3,0.1-0.7,0.2-1.2s0.2-1.1,0.3-1.7
		c0.1-0.6,0.2-1.2,0.3-1.8c0.1-0.6,0.2-1.1,0.2-1.4c0-0.1,0-0.2,0-0.3c0-0.1,0.1-0.3,0.1-0.4c0.1-0.1,0.1-0.2,0.2-0.3
		c0.1-0.1,0.2-0.1,0.2-0.1s0.1,0,0.3,0.1S91.3,28.5,91.3,28.8z"/>
	<path class="st0" d="M107.8,29.1c-0.2,0.2-0.5,0.4-0.8,0.6c-0.4,0.2-0.7,0.4-1.1,0.6s-0.7,0.3-0.9,0.5c-0.3,0.1-0.4,0.2-0.4,0.3
		s0,0.2,0.1,0.4c0.1,0.2,0.1,0.5,0.2,0.8s0.2,0.6,0.3,0.9c0.1,0.3,0.2,0.6,0.2,0.9c0,0.1,0.1,0.3,0.1,0.6s0.1,0.5,0.1,0.7
		s0.1,0.4,0.1,0.6c0,0.2,0,0.3,0,0.3c0,0.2,0,0.4-0.1,0.7c-0.1,0.2-0.2,0.4-0.4,0.4c-0.1,0-0.2,0-0.2-0.1c-0.1-0.1-0.1-0.2-0.2-0.3
		s-0.1-0.2-0.1-0.3s0-0.2,0-0.2v-0.1c0-0.1,0-0.1,0-0.2c0-0.3,0-0.7-0.1-1.2c0-0.2-0.1-0.4-0.2-0.7s-0.2-0.7-0.3-1
		c-0.1-0.4-0.2-0.9-0.4-1.3c-0.1-0.2-0.1-0.3-0.1-0.3c-0.1,0-0.3,0.1-0.5,0.2c-0.2,0.1-0.5,0.3-0.8,0.5s-0.6,0.4-1,0.6
		c-0.3,0.2-0.7,0.4-0.9,0.6c-0.3,0.2-0.5,0.3-0.8,0.5c-0.2,0.1-0.3,0.2-0.4,0.2c-0.2,0-0.3-0.1-0.5-0.2c-0.1-0.1-0.2-0.3-0.2-0.4
		c0-0.1,0.1-0.2,0.4-0.4c0.2-0.2,0.5-0.4,0.9-0.6c0.4-0.2,0.7-0.4,1.2-0.6c0.4-0.2,0.8-0.4,1.2-0.6c0.4-0.2,0.8-0.4,1.3-0.6
		c-0.1-0.7-0.2-1.3-0.3-1.8c-0.1-0.5-0.1-0.9-0.2-1.3s-0.1-0.6-0.1-0.6c0-0.2,0-0.3,0.1-0.4s0.2-0.1,0.3-0.1c0.2,0,0.3,0.1,0.3,0.3
		c0.2,0.8,0.3,1.5,0.5,2.1c0.1,0.6,0.3,1.1,0.4,1.5c0.1,0,0.4-0.1,0.7-0.3c0.3-0.1,0.7-0.3,1-0.5s0.7-0.3,1-0.4s0.5-0.2,0.5-0.2
		c0.1,0,0.1,0,0.2,0.1C107.8,29,107.8,29.1,107.8,29.1z"/>
	<path class="st0" d="M116,35C116.1,35.1,116.1,35.1,116,35c0.1,0.1,0.1,0.2,0,0.4c-0.1,0.1-0.2,0.3-0.3,0.5
		c-0.1,0.2-0.3,0.3-0.4,0.4c-0.2,0.1-0.3,0.2-0.5,0.2c-0.3,0-0.6-0.1-0.7-0.2c-0.2-0.1-0.3-0.3-0.5-0.5s-0.2-0.4-0.3-0.6
		s-0.1-0.4-0.2-0.6c0-0.1-0.1-0.2-0.1-0.2s-0.1,0.2-0.3,0.5s-0.3,0.7-0.4,1c-0.2,0.4-0.3,0.7-0.4,1s-0.2,0.5-0.3,0.5
		c-0.3,0-0.5-0.1-0.7-0.3s-0.3-0.5-0.4-0.8s-0.2-0.6-0.3-0.9c-0.1-0.3-0.1-0.6-0.1-0.7c0-0.4-0.1-1.1-0.3-2c-0.1-0.9-0.3-2-0.4-3.4
		c0-0.3-0.1-0.5-0.1-0.8c0-0.2-0.1-0.5-0.1-0.8s-0.1-0.6-0.1-0.9c0-0.4,0-0.8,0-1.3c0,0,0-0.1,0-0.3c0-0.2,0-0.3,0.1-0.5
		c0-0.2,0.1-0.4,0.1-0.5c0.1-0.1,0.1-0.2,0.2-0.2s0.2,0.1,0.3,0.2c0.1,0.1,0.2,0.3,0.2,0.4c0.1,0.2,0.1,0.3,0.1,0.5
		c0,0.1,0,0.2,0,0.3c0,0.2,0,0.4,0,0.6s0,0.4,0,0.5c0,0.2,0,0.5,0.1,0.8s0.1,0.7,0.1,1c0.1,0.4,0.1,0.7,0.2,1s0.1,0.6,0.1,0.8
		c0,0,0,0.1,0,0.3c0,0.2,0.1,0.4,0.1,0.7c0,0.3,0.1,0.6,0.1,0.9c0,0.3,0.1,0.7,0.1,1s0.1,0.6,0.1,0.8s0.1,0.4,0.1,0.5
		c0,0,0,0.1,0,0.2c0,0.1,0,0.2,0.1,0.3c0,0.1,0,0.2,0.1,0.3s0.1,0.2,0.1,0.2c0.1-0.2,0.2-0.4,0.3-0.8c0.1-0.4,0.3-0.7,0.4-1.1
		c0.2-0.4,0.3-0.7,0.4-1s0.3-0.4,0.4-0.4s0.2,0,0.3,0.1s0.2,0.1,0.3,0.1c0.1,0.1,0.2,0.1,0.2,0.2s0,0.2,0,0.3c0,0.2,0.1,0.4,0.1,0.7
		c0.1,0.3,0.1,0.6,0.2,0.8c0.1,0.3,0.2,0.5,0.3,0.7c0.1,0.2,0.2,0.3,0.4,0.3c0.1,0,0.1-0.1,0.2-0.2c0.1-0.2,0.2-0.2,0.4-0.3
		c0,0,0.1,0,0.2,0.1C115.9,34.9,116,34.9,116,35z"/>
	<path class="st0" d="M123.6,36.7L123.6,36.7c0,0.2-0.1,0.3-0.2,0.5c0,0.1-0.1,0.2-0.3,0.3c-0.1,0.1-0.3,0.3-0.6,0.4
		c-0.2,0.1-0.6,0.2-0.9,0.4c-0.4,0.1-0.8,0.2-1.3,0.2c-0.3,0-0.7-0.1-1-0.2c-0.3-0.2-0.6-0.4-0.9-0.7c-0.2-0.3-0.5-0.7-0.6-1.1
		c-0.2-0.4-0.2-1-0.2-1.6s0.1-1.1,0.2-1.6s0.3-0.9,0.6-1.3s0.5-0.7,0.8-0.9c0.3-0.2,0.5-0.3,0.8-0.3c0.2,0,0.5,0,0.7,0.1
		s0.5,0.2,0.7,0.4c0.2,0.1,0.4,0.3,0.5,0.5c0.1,0.2,0.2,0.4,0.2,0.6s-0.1,0.4-0.3,0.7c-0.2,0.2-0.4,0.5-0.7,0.6
		c-0.3,0.2-0.6,0.4-0.8,0.5c-0.3,0.1-0.5,0.2-0.7,0.2c-0.1,0-0.2,0-0.2-0.1c-0.1-0.1-0.1-0.2-0.1-0.3c0-0.2,0.1-0.4,0.3-0.5
		c0.2-0.1,0.4-0.2,0.6-0.3s0.4-0.2,0.6-0.3s0.3-0.3,0.3-0.6c0,0,0-0.1-0.1-0.2c-0.1-0.1-0.3-0.2-0.6-0.2c-0.1,0-0.3,0.1-0.5,0.3
		s-0.4,0.4-0.5,0.7c-0.2,0.3-0.3,0.6-0.4,1s-0.2,0.8-0.2,1.3c0,0.4,0.1,0.7,0.2,1s0.3,0.6,0.5,0.8s0.5,0.4,0.8,0.5s0.6,0.2,0.9,0.2
		c0.2,0,0.5,0,0.7-0.1c0.3-0.1,0.5-0.2,0.7-0.3s0.4-0.2,0.6-0.3s0.3-0.1,0.3-0.1s0.1,0,0.1,0.1C123.5,36.7,123.6,36.7,123.6,36.7z"
		/>
	<path class="st0" d="M140.9,29.4c0.1,0,0.1,0.1,0.1,0.1c0,0.1-0.1,0.2-0.2,0.3s-0.2,0.2-0.2,0.4c0,0,0,0.1,0,0.3c0,0.2,0,0.4,0,0.6
		s0,0.5,0,0.7s0,0.3,0,0.4v2.2c0,0,0,0.1,0,0.3s0,0.4-0.1,0.7c0,0.3-0.1,0.5-0.1,0.8s-0.1,0.5-0.1,0.7c0,0.1-0.1,0.1-0.1,0.1
		c-0.1,0-0.1,0.1-0.2,0.1c-0.1,0-0.2,0-0.2,0c-0.1,0-0.1,0-0.1,0c-0.2,0-0.3-0.1-0.5-0.3s-0.4-0.4-0.5-0.6c-0.2-0.2-0.3-0.5-0.4-0.7
		c-0.1-0.2-0.2-0.3-0.2-0.4c-0.1,0.2-0.1,0.4-0.2,0.6c-0.1,0.2-0.2,0.4-0.2,0.6c-0.1,0.2-0.2,0.3-0.3,0.4c-0.1,0.1-0.2,0.2-0.4,0.2
		s-0.4-0.1-0.5-0.3c-0.2-0.2-0.4-0.4-0.6-0.7c-0.2-0.3-0.4-0.6-0.6-0.9s-0.3-0.7-0.5-1s-0.2-0.6-0.3-0.9c-0.1-0.3-0.1-0.5-0.1-0.7
		c0-0.1,0-0.1,0.1-0.2s0.1-0.1,0.2-0.1c0.2,0,0.4,0.1,0.4,0.2c0,0,0.1,0.1,0.1,0.4c0.1,0.2,0.2,0.5,0.3,0.9c0.1,0.3,0.3,0.7,0.5,1
		c0.2,0.4,0.4,0.7,0.7,0.9c0.1-0.2,0.2-0.4,0.3-0.6c0.1-0.2,0.1-0.5,0.2-0.7c0-0.2,0.1-0.4,0.1-0.6c0-0.2,0-0.3,0-0.5
		c0-0.1-0.1-0.2-0.1-0.4c0-0.1,0-0.2,0-0.3s0-0.2,0-0.3c0-0.4,0.1-0.5,0.4-0.5c0.2,0,0.4,0.1,0.5,0.2s0.2,0.3,0.3,0.5
		s0.1,0.4,0.1,0.5c0,0.2,0,0.3,0.1,0.4c0.1,0.3,0.2,0.7,0.3,0.9c0.1,0.3,0.3,0.6,0.5,0.9c0.1,0,0.1-0.1,0.1-0.2
		c0-0.1,0.1-0.2,0.1-0.3s0-0.2,0-0.3s0-0.2,0-0.2v-4.4c0-0.1,0-0.2,0.1-0.2c0.1-0.1,0.2-0.1,0.3-0.2s0.2-0.1,0.3-0.1
		s0.2-0.1,0.2-0.1c0.1,0,0.1,0,0.2,0.1S140.8,29.3,140.9,29.4z"/>
	<path class="st0" d="M153.2,34.5c0,0.3-0.1,0.6-0.4,1c-0.2,0.4-0.6,0.8-1,1.1c-0.4,0.4-0.9,0.7-1.4,0.9c-0.5,0.3-1.1,0.4-1.7,0.4
		c-0.3,0-0.5,0-0.8-0.1s-0.6-0.2-0.9-0.4c-0.3-0.2-0.5-0.4-0.7-0.6c-0.2-0.2-0.4-0.5-0.5-0.8c-0.1,0.1-0.2,0.2-0.3,0.4
		s-0.3,0.4-0.4,0.6c-0.1,0.2-0.3,0.4-0.5,0.6c-0.2,0.2-0.4,0.2-0.5,0.2s-0.3-0.1-0.5-0.3c-0.1-0.2-0.2-0.4-0.3-0.7
		c-0.1-0.2-0.1-0.5-0.2-0.7c0-0.2,0-0.3,0-0.4c0-0.2,0.1-0.5,0.2-1c0.1-0.5,0.3-1,0.5-1.5s0.5-1,0.8-1.4s0.7-0.6,1.1-0.6
		c0.2,0,0.3,0.1,0.3,0.2c0.1,0.1,0.1,0.3,0.1,0.4v0.7c0.1,0.1,0.2,0.1,0.2,0.1c0.1,0,0.2,0.1,0.2,0.1c0.1,0,0.1,0.1,0.2,0.2
		c0,0.1,0.1,0.2,0.1,0.4c0,0.1,0,0.2,0,0.3s0,0.2,0,0.2c0,0.4,0,0.8,0.1,1.1c0.1,0.4,0.2,0.7,0.4,1s0.4,0.5,0.7,0.7s0.7,0.3,1.2,0.3
		c0.6,0,1.2-0.1,1.6-0.4s0.8-0.6,1.1-0.9c0.3-0.3,0.5-0.6,0.7-0.9c0.2-0.3,0.3-0.4,0.4-0.4C153.1,34.2,153.2,34.3,153.2,34.5z
		 M145.5,33.5c0-0.1,0-0.1,0-0.2c0-0.1,0-0.1,0-0.1c0-0.1,0-0.1,0-0.2c0,0,0-0.1,0-0.2v-0.1c0,0,0,0,0-0.1c-0.1,0-0.3,0.2-0.4,0.4
		c-0.1,0.2-0.3,0.5-0.4,0.8s-0.2,0.6-0.3,0.9c-0.1,0.3-0.1,0.5-0.1,0.7c0,0.1,0,0.3,0.1,0.5s0.1,0.4,0.2,0.5c0.2-0.5,0.5-1,0.7-1.5
		C145.4,34.5,145.5,34,145.5,33.5z"/>
	<path class="st0" d="M158.1,28.8c-0.2,1-0.4,2-0.5,2.9c-0.1,0.4-0.1,0.8-0.2,1.2c-0.1,0.4-0.1,0.9-0.2,1.3
		c-0.1,0.4-0.1,0.8-0.2,1.2s-0.1,0.7-0.1,1c-0.1,0.5-0.1,1-0.1,1.6s-0.1,1.2-0.1,1.7c0,0.6,0,1.3,0,1.9c0,0.1,0,0.3,0,0.4
		c0,0.2,0,0.3,0,0.5c0,0.1,0,0.3-0.1,0.4c-0.1,0.1-0.2,0.2-0.3,0.2s-0.2-0.1-0.3-0.3s-0.1-0.4-0.2-0.6c0-0.2-0.1-0.5-0.1-0.7
		s0-0.4,0-0.5s0-0.3,0-0.4s0-0.4,0-0.7s0.1-0.8,0.1-1.3s0.1-1.2,0.2-2.1c0,0-0.1-0.1-0.3-0.2c-0.2-0.1-0.4-0.3-0.7-0.5
		s-0.6-0.4-0.9-0.6c-0.3-0.2-0.6-0.5-0.8-0.7c0,0-0.1-0.1-0.1-0.2c-0.1-0.1-0.1-0.2-0.1-0.4c0-0.1,0-0.2,0.1-0.2
		c0.1-0.1,0.2-0.1,0.2-0.1c0.1,0,0.1,0,0.2,0.1c0.3,0.3,0.7,0.6,1.2,1c0.4,0.4,0.9,0.7,1.3,1c0-0.3,0.1-0.7,0.2-1.2s0.2-1.1,0.3-1.7
		s0.2-1.2,0.3-1.8c0.1-0.6,0.2-1.1,0.2-1.4c0-0.1,0-0.2,0-0.3c0-0.1,0.1-0.3,0.1-0.4c0.1-0.1,0.1-0.2,0.2-0.3
		c0.1-0.1,0.2-0.1,0.2-0.1s0.1,0,0.3,0.1S158.1,28.5,158.1,28.8z"/>
	<path class="st0" d="M161.7,38.4c0,0.2-0.1,0.4-0.2,0.7s-0.3,0.6-0.5,0.9c-0.2,0.3-0.4,0.6-0.6,0.8c-0.2,0.2-0.5,0.3-0.7,0.3
		c-0.1,0-0.2,0-0.3-0.1s-0.1-0.2-0.1-0.2s0.1-0.1,0.2-0.3c0.1-0.2,0.3-0.4,0.5-0.6c0.2-0.2,0.3-0.5,0.5-0.8s0.2-0.5,0.2-0.8
		s0-0.5-0.1-0.6s-0.1-0.3-0.2-0.4c-0.1-0.1-0.1-0.2-0.2-0.3c-0.1-0.1-0.1-0.2-0.1-0.4s0.1-0.3,0.4-0.3s0.4,0.1,0.6,0.2
		c0.2,0.2,0.3,0.3,0.4,0.6s0.2,0.4,0.2,0.6C161.7,38,161.7,38.2,161.7,38.4z"/>
	<path class="st0" d="M183.1,34.5c0,0.3-0.1,0.6-0.4,1c-0.2,0.4-0.6,0.8-1,1.1c-0.4,0.4-0.9,0.7-1.4,0.9c-0.5,0.3-1.1,0.4-1.7,0.4
		c-0.3,0-0.5,0-0.8-0.1s-0.6-0.2-0.9-0.4c-0.3-0.2-0.5-0.4-0.7-0.6c-0.2-0.2-0.4-0.5-0.5-0.8c-0.1,0.1-0.2,0.2-0.3,0.4
		s-0.3,0.4-0.4,0.6c-0.1,0.2-0.3,0.4-0.5,0.6c-0.2,0.2-0.4,0.2-0.5,0.2s-0.3-0.1-0.5-0.3c-0.1-0.2-0.2-0.4-0.3-0.7
		c-0.1-0.2-0.1-0.5-0.2-0.7c0-0.2,0-0.3,0-0.4c0-0.2,0.1-0.5,0.2-1c0.1-0.5,0.3-1,0.5-1.5s0.5-1,0.8-1.4s0.7-0.6,1.1-0.6
		c0.2,0,0.3,0.1,0.3,0.2c0.1,0.1,0.1,0.3,0.1,0.4v0.7c0.1,0.1,0.2,0.1,0.2,0.1c0.1,0,0.2,0.1,0.2,0.1c0.1,0,0.1,0.1,0.2,0.2
		c0,0.1,0.1,0.2,0.1,0.4c0,0.1,0,0.2,0,0.3s0,0.2,0,0.2c0,0.4,0,0.8,0.1,1.1c0.1,0.4,0.2,0.7,0.4,1s0.4,0.5,0.7,0.7s0.7,0.3,1.2,0.3
		c0.6,0,1.2-0.1,1.6-0.4s0.8-0.6,1.1-0.9c0.3-0.3,0.5-0.6,0.7-0.9c0.2-0.3,0.3-0.4,0.4-0.4C183,34.2,183.1,34.3,183.1,34.5z
		 M175.4,33.5c0-0.1,0-0.1,0-0.2c0-0.1,0-0.1,0-0.1c0-0.1,0-0.1,0-0.2c0,0,0-0.1,0-0.2v-0.1c0,0,0,0,0-0.1c-0.1,0-0.3,0.2-0.4,0.4
		c-0.1,0.2-0.3,0.5-0.4,0.8s-0.2,0.6-0.3,0.9c-0.1,0.3-0.1,0.5-0.1,0.7c0,0.1,0,0.3,0.1,0.5s0.1,0.4,0.2,0.5c0.2-0.5,0.5-1,0.7-1.5
		C175.3,34.5,175.4,34,175.4,33.5z"/>
	<path class="st0" d="M186.2,38.7c-0.1,0.1-0.2,0.1-0.3,0.1s-0.3-0.1-0.4-0.4c-0.1-0.2-0.3-0.6-0.4-0.9s-0.3-0.8-0.4-1.2
		c-0.1-0.4-0.2-0.9-0.3-1.3c-0.1-0.4-0.2-0.7-0.2-1c-0.1-0.3-0.1-0.4-0.1-0.4c0-0.1,0-0.2-0.1-0.5s-0.1-0.6-0.2-1.2
		c-0.1-0.5-0.2-1.2-0.3-2.1c-0.1-0.8-0.2-1.9-0.3-3.1c0-0.1,0-0.3,0.1-0.5c0-0.2,0.1-0.3,0.3-0.3s0.4,0.1,0.5,0.4s0.2,0.6,0.3,1
		s0.1,0.8,0.1,1.3c0,0.4,0.1,0.8,0.1,1.2c0.1,0.5,0.1,0.9,0.2,1.3c0.1,0.4,0.1,0.8,0.2,1.1c0.1,0.4,0.1,0.8,0.2,1.2
		c0.1,0.4,0.2,0.9,0.3,1.4l0.9,3.7C186.3,38.5,186.3,38.6,186.2,38.7z"/>
	<path class="st0" d="M190.8,38.7c-0.1,0.1-0.2,0.1-0.3,0.1s-0.3-0.1-0.4-0.4c-0.1-0.2-0.3-0.6-0.4-0.9s-0.3-0.8-0.4-1.2
		c-0.1-0.4-0.2-0.9-0.3-1.3c-0.1-0.4-0.2-0.7-0.2-1c-0.1-0.3-0.1-0.4-0.1-0.4c0-0.1,0-0.2-0.1-0.5s-0.1-0.6-0.2-1.2
		c-0.1-0.5-0.2-1.2-0.3-2.1c-0.1-0.8-0.2-1.9-0.3-3.1c0-0.1,0-0.3,0.1-0.5c0-0.2,0.1-0.3,0.3-0.3s0.4,0.1,0.5,0.4s0.2,0.6,0.3,1
		s0.1,0.8,0.1,1.3c0,0.4,0.1,0.8,0.1,1.2c0.1,0.5,0.1,0.9,0.2,1.3c0.1,0.4,0.1,0.8,0.2,1.1c0.1,0.4,0.1,0.8,0.2,1.2
		c0.1,0.4,0.2,0.9,0.3,1.4l0.9,3.7C191,38.5,190.9,38.6,190.8,38.7z"/>
	<path class="st0" d="M207.9,31.6c0,0.2-0.1,0.5-0.4,0.7c-0.3,0.2-0.5,0.5-0.8,0.6c-0.3,0.2-0.6,0.4-0.9,0.5
		c-0.3,0.1-0.4,0.2-0.5,0.2c-0.2,0.1-0.3,0.2-0.3,0.2c0,0.1,0.1,0.1,0.2,0.1c0.1,0,0.3,0.1,0.6,0.2c0.2,0.1,0.4,0.1,0.6,0.2
		s0.4,0.2,0.6,0.4c0.2,0.2,0.3,0.3,0.4,0.6c0.1,0.2,0.2,0.5,0.2,0.8s-0.1,0.7-0.4,1c-0.2,0.3-0.6,0.6-0.9,0.8
		c-0.4,0.2-0.7,0.4-1.2,0.6c-0.4,0.1-0.8,0.2-1.1,0.2c-0.2,0-0.4,0-0.6-0.1c-0.2,0-0.4-0.1-0.6-0.2s-0.3-0.2-0.5-0.3
		c-0.1-0.1-0.2-0.3-0.2-0.4c0-0.1,0-0.2,0.1-0.3s0.1-0.2,0.2-0.3c0.2,0.2,0.4,0.3,0.6,0.4s0.5,0.1,0.9,0.1c0.2,0,0.5,0,0.8-0.1
		s0.6-0.2,0.8-0.4c0.3-0.2,0.5-0.3,0.7-0.5s0.3-0.4,0.3-0.6c0-0.3-0.2-0.5-0.5-0.7c-0.3-0.1-0.6-0.2-1-0.3s-0.7-0.2-1-0.3
		s-0.5-0.3-0.5-0.6c0-0.2,0.2-0.4,0.5-0.6c0.3-0.2,0.6-0.4,1-0.6c0.4-0.2,0.7-0.4,1-0.5c0.3-0.2,0.5-0.3,0.5-0.5
		c0-0.1-0.1-0.2-0.3-0.2s-0.5,0-0.8,0.1s-0.5,0.2-0.8,0.2s-0.5,0.2-0.7,0.2s-0.4,0.1-0.5,0.1c-0.2,0-0.3,0-0.4-0.1s0-0.2,0-0.4
		c0-0.1,0.1-0.2,0.2-0.3c0.1-0.1,0.3-0.2,0.6-0.3s0.5-0.2,0.7-0.2s0.5-0.1,0.8-0.2s0.5-0.1,0.7-0.1s0.3,0,0.4,0c0.1,0,0.2,0,0.4,0
		s0.3,0.1,0.5,0.1c0.2,0.1,0.3,0.2,0.4,0.3C207.8,31.2,207.9,31.4,207.9,31.6z"/>
	<path class="st0" d="M222.9,34.3c0,0.3,0,0.6-0.1,0.9c-0.1,0.3-0.2,0.6-0.4,0.8c-0.1,0.2-0.3,0.4-0.5,0.5s-0.4,0.2-0.6,0.2
		c-0.4,0-0.7-0.1-1-0.4c-0.2-0.2-0.4-0.5-0.5-0.8s-0.2-0.6-0.2-0.9c0-0.3-0.1-0.6-0.1-0.7c0-0.3,0-0.6,0.1-0.9
		c0.1-0.3,0.2-0.6,0.3-0.9c0.1-0.3,0.3-0.5,0.5-0.7s0.4-0.3,0.5-0.3c0,0,0.1,0,0.2,0s0.2,0.1,0.3,0.1c0.1,0.1,0.2,0.1,0.3,0.2
		s0.1,0.2,0.2,0.3c0.2,0,0.3,0.1,0.5,0.2s0.2,0.2,0.3,0.2c0.1,0.4,0.2,0.8,0.2,1.1C222.9,33.7,222.9,34.1,222.9,34.3z M221.9,33.9
		c0-0.2,0-0.5-0.1-0.7c0-0.2-0.1-0.5-0.3-0.7h-0.1c-0.1,0-0.1,0-0.1,0h-0.1c-0.2,0-0.3,0-0.4,0.1c-0.1,0.1-0.2,0.2-0.2,0.4
		c-0.1,0.2-0.1,0.3-0.1,0.5s0,0.3,0,0.5s0,0.3,0,0.5s0,0.4,0.1,0.6c0.1,0.2,0.1,0.3,0.2,0.5s0.2,0.2,0.4,0.2s0.3-0.1,0.4-0.2
		c0.1-0.2,0.2-0.3,0.2-0.5s0.1-0.4,0.1-0.6C221.9,34.1,221.9,34,221.9,33.9z"/>
	<path class="st0" d="M232.3,23.3c0,0,0,0.1,0,0.2s0,0.2,0,0.2c0,0.1,0,0.2-0.1,0.2h-0.1H232c-0.3-0.1-0.6-0.3-1-0.5
		s-0.8-0.3-1.3-0.3s-1,0.2-1.3,0.6s-0.6,0.9-0.7,1.4c-0.2,0.5-0.3,1-0.3,1.5c-0.1,0.5-0.1,0.9-0.1,1.1s0,0.4,0.1,0.8
		c0.1,0.3,0.1,0.7,0.2,1.1s0.2,0.7,0.3,1s0.2,0.5,0.4,0.6c0.1,0,0.2,0,0.5,0c0.2,0,0.4,0,0.6,0c0.2,0,0.5,0,0.7,0.1
		c0.2,0,0.4,0.1,0.7,0.1c0.1,0,0.1,0,0.3,0s0.2,0,0.4,0c0.1,0,0.2,0,0.3,0.1c0.1,0,0.1,0.1,0.1,0.1c0,0.1-0.1,0.1-0.2,0.2
		s-0.2,0.1-0.4,0.1c-0.1,0-0.3,0.1-0.4,0.1c-0.1,0-0.2,0-0.3,0s-0.2,0-0.3,0s-0.2,0-0.4,0c-0.1,0-0.3,0-0.4,0c-0.1,0-0.2,0-0.3,0
		c-0.2,0-0.4,0-0.4,0.1c-0.1,0.1-0.1,0.2-0.1,0.3c0,0.2,0.1,0.5,0.3,0.9s0.4,0.8,0.6,1.2c0.2,0.4,0.5,0.9,0.6,1.3
		c0.2,0.5,0.3,0.9,0.3,1.3c0,0.1,0,0.2-0.1,0.4c0,0.2-0.1,0.4-0.2,0.6c-0.1,0.2-0.2,0.4-0.3,0.5c-0.1,0.2-0.2,0.2-0.4,0.2
		c-0.1,0-0.2,0-0.3-0.1s-0.1-0.2-0.1-0.3c0-0.2,0.1-0.5,0.2-0.7c0.1-0.2,0.2-0.4,0.2-0.7c0-0.1-0.1-0.3-0.2-0.6
		c-0.1-0.3-0.2-0.6-0.4-0.9c-0.2-0.3-0.3-0.7-0.5-1.1s-0.4-0.7-0.5-1c-0.2-0.3-0.3-0.6-0.4-0.8c-0.1-0.2-0.2-0.3-0.2-0.3
		c-0.3,0.1-0.6,0.2-0.9,0.3c-0.3,0.1-0.6,0.3-0.8,0.5c-0.1,0.1-0.2,0.2-0.3,0.2s-0.3-0.1-0.4-0.2c-0.1-0.1-0.2-0.2-0.2-0.4
		s0-0.3,0.1-0.4c0.1-0.1,0.2-0.2,0.3-0.2c0.1-0.1,0.3-0.2,0.6-0.2c0.3-0.1,0.6-0.2,0.8-0.2c0.1,0,0.2-0.1,0.3-0.1s0.1-0.1,0.1-0.1
		c0-0.1-0.1-0.3-0.2-0.6c-0.1-0.2-0.2-0.5-0.2-0.9c-0.1-0.3-0.2-0.7-0.2-1.1s-0.1-0.9-0.1-1.4s0.1-1.1,0.2-1.7
		c0.1-0.6,0.3-1.1,0.6-1.6s0.6-0.9,1-1.2c0.4-0.3,0.9-0.5,1.5-0.5c0.3,0,0.6,0,0.9,0.1c0.3,0.1,0.6,0.1,0.9,0.2
		c0.3,0.1,0.5,0.2,0.7,0.4C232.2,23,232.3,23.1,232.3,23.3z"/>
	<path class="st0" d="M248.7,29.1c-0.2,0.2-0.5,0.4-0.8,0.6c-0.4,0.2-0.7,0.4-1.1,0.6c-0.4,0.2-0.7,0.3-0.9,0.5
		c-0.3,0.1-0.4,0.2-0.4,0.3s0,0.2,0.1,0.4c0.1,0.2,0.1,0.5,0.2,0.8c0.1,0.3,0.2,0.6,0.3,0.9c0.1,0.3,0.2,0.6,0.2,0.9
		c0,0.1,0.1,0.3,0.1,0.6s0.1,0.5,0.1,0.7s0.1,0.4,0.1,0.6c0,0.2,0,0.3,0,0.3c0,0.2,0,0.4-0.1,0.7c-0.1,0.2-0.2,0.4-0.4,0.4
		c-0.1,0-0.2,0-0.2-0.1c-0.1-0.1-0.1-0.2-0.2-0.3c-0.1-0.1-0.1-0.2-0.1-0.3s0-0.2,0-0.2v-0.1c0-0.1,0-0.1,0-0.2c0-0.3,0-0.7-0.1-1.2
		c0-0.2-0.1-0.4-0.2-0.7c-0.1-0.3-0.2-0.7-0.3-1c-0.1-0.4-0.2-0.9-0.4-1.3c-0.1-0.2-0.1-0.3-0.1-0.3c-0.1,0-0.3,0.1-0.5,0.2
		c-0.2,0.1-0.5,0.3-0.8,0.5s-0.6,0.4-1,0.6c-0.3,0.2-0.7,0.4-0.9,0.6c-0.3,0.2-0.5,0.3-0.8,0.5c-0.2,0.1-0.3,0.2-0.4,0.2
		c-0.2,0-0.3-0.1-0.5-0.2c-0.1-0.1-0.2-0.3-0.2-0.4c0-0.1,0.1-0.2,0.4-0.4c0.2-0.2,0.5-0.4,0.9-0.6c0.4-0.2,0.7-0.4,1.2-0.6
		c0.4-0.2,0.8-0.4,1.2-0.6s0.8-0.4,1.3-0.6c-0.1-0.7-0.2-1.3-0.3-1.8s-0.1-0.9-0.2-1.3c-0.1-0.4-0.1-0.6-0.1-0.6
		c0-0.2,0-0.3,0.1-0.4s0.2-0.1,0.3-0.1c0.2,0,0.3,0.1,0.3,0.3c0.2,0.8,0.3,1.5,0.5,2.1c0.1,0.6,0.3,1.1,0.4,1.5
		c0.1,0,0.4-0.1,0.7-0.3c0.3-0.1,0.7-0.3,1-0.5c0.4-0.2,0.7-0.3,1-0.4s0.5-0.2,0.5-0.2c0.1,0,0.1,0,0.2,0.1
		C248.6,29,248.6,29.1,248.7,29.1z"/>
	<path class="st0" d="M256.9,35c0.1,0.1,0.1,0.1,0.1,0.1s0,0.1-0.1,0.3c-0.1,0.1-0.2,0.3-0.3,0.5c-0.1,0.2-0.3,0.3-0.4,0.4
		c-0.2,0.1-0.3,0.2-0.5,0.2c-0.3,0-0.6-0.1-0.7-0.2c-0.2-0.1-0.3-0.3-0.5-0.5c-0.1-0.2-0.2-0.4-0.3-0.6c-0.1-0.2-0.1-0.4-0.2-0.6
		c0-0.1-0.1-0.2-0.1-0.2s-0.1,0.2-0.3,0.5c-0.1,0.3-0.3,0.7-0.4,1s-0.3,0.7-0.4,1c-0.1,0.3-0.2,0.5-0.3,0.5c-0.3,0-0.5-0.1-0.7-0.3
		s-0.3-0.5-0.4-0.8c-0.1-0.3-0.2-0.6-0.3-0.9s-0.1-0.6-0.1-0.7c0-0.4-0.1-1.1-0.3-2c-0.1-0.9-0.3-2-0.4-3.4c0-0.3-0.1-0.5-0.1-0.8
		c0-0.2-0.1-0.5-0.1-0.8s-0.1-0.6-0.1-0.9s0-0.8,0-1.3c0,0,0-0.1,0-0.3c0-0.2,0-0.3,0.1-0.5c0-0.2,0.1-0.4,0.1-0.5
		c0.1-0.1,0.1-0.2,0.2-0.2c0.1,0,0.2,0.1,0.3,0.2s0.2,0.3,0.2,0.4c0.1,0.2,0.1,0.3,0.1,0.5c0,0.1,0,0.2,0,0.3c0,0.2,0,0.4,0,0.6
		s0,0.4,0,0.5c0,0.2,0,0.5,0.1,0.8c0,0.3,0.1,0.7,0.1,1s0.1,0.7,0.2,1s0.1,0.6,0.1,0.8c0,0,0,0.1,0,0.3c0,0.2,0.1,0.4,0.1,0.7
		c0,0.3,0.1,0.6,0.1,0.9c0,0.3,0.1,0.7,0.1,1s0.1,0.6,0.1,0.8s0.1,0.4,0.1,0.5c0,0,0,0.1,0,0.2c0,0.1,0,0.2,0.1,0.3
		c0,0.1,0,0.2,0.1,0.3c0,0.1,0.1,0.2,0.1,0.2c0.1-0.2,0.2-0.4,0.3-0.8c0.1-0.4,0.3-0.7,0.4-1.1s0.3-0.7,0.4-1
		c0.1-0.3,0.3-0.4,0.4-0.4c0.1,0,0.2,0,0.3,0.1s0.2,0.1,0.3,0.1c0.1,0.1,0.2,0.1,0.2,0.2s0,0.2,0,0.3c0,0.2,0.1,0.4,0.1,0.7
		c0.1,0.3,0.1,0.6,0.2,0.8c0.1,0.3,0.2,0.5,0.3,0.7s0.2,0.3,0.4,0.3c0.1,0,0.1-0.1,0.2-0.2c0.1-0.2,0.2-0.2,0.4-0.3
		c0,0,0.1,0,0.2,0.1C256.8,34.9,256.8,34.9,256.9,35z"/>
	<path class="st0" d="M264.4,36.7L264.4,36.7c0,0.2-0.1,0.3-0.2,0.5c0,0.1-0.1,0.2-0.3,0.3c-0.1,0.1-0.3,0.3-0.6,0.4
		c-0.2,0.1-0.6,0.2-0.9,0.4c-0.4,0.1-0.8,0.2-1.3,0.2c-0.3,0-0.7-0.1-1-0.2c-0.3-0.2-0.6-0.4-0.9-0.7c-0.2-0.3-0.5-0.7-0.6-1.1
		s-0.2-1-0.2-1.6s0.1-1.1,0.2-1.6s0.3-0.9,0.6-1.3s0.5-0.7,0.8-0.9c0.3-0.2,0.6-0.3,0.8-0.3c0.2,0,0.5,0,0.7,0.1s0.5,0.2,0.7,0.4
		c0.2,0.1,0.4,0.3,0.5,0.5c0.1,0.2,0.2,0.4,0.2,0.6s-0.1,0.4-0.3,0.7c-0.2,0.2-0.4,0.5-0.7,0.6c-0.3,0.2-0.6,0.4-0.8,0.5
		s-0.5,0.2-0.7,0.2c-0.1,0-0.2,0-0.2-0.1c-0.1-0.1-0.1-0.2-0.1-0.3c0-0.2,0.1-0.4,0.3-0.5c0.2-0.1,0.4-0.2,0.6-0.3s0.4-0.2,0.6-0.3
		s0.3-0.3,0.3-0.6c0,0,0-0.1-0.1-0.2c-0.1-0.1-0.3-0.2-0.6-0.2c-0.1,0-0.3,0.1-0.5,0.3s-0.4,0.4-0.6,0.7s-0.3,0.6-0.4,1
		s-0.2,0.8-0.2,1.3c0,0.4,0.1,0.7,0.2,1s0.3,0.6,0.5,0.8s0.5,0.4,0.8,0.5s0.6,0.2,0.9,0.2c0.2,0,0.5,0,0.7-0.1
		c0.3-0.1,0.5-0.2,0.7-0.3s0.4-0.2,0.6-0.3s0.3-0.1,0.3-0.1s0.1,0,0.1,0.1C264.4,36.7,264.4,36.7,264.4,36.7z"/>
	<path class="st0" d="M270.9,36.2c0,0.2-0.1,0.5-0.3,0.6c-0.2,0.2-0.4,0.3-0.6,0.5c-0.3,0.1-0.5,0.2-0.8,0.3s-0.6,0.1-0.9,0.2
		s-0.5,0.1-0.7,0.1s-0.3,0-0.4,0c-0.3,0-0.6-0.1-0.7-0.2c-0.2-0.1-0.3-0.3-0.3-0.5c0-0.1,0-0.2,0-0.2s0.1-0.1,0.2-0.1
		c0,0,0.1,0,0.2,0s0.2,0,0.2,0s0.2,0,0.6,0c0.3,0,0.7-0.1,1-0.1s0.7-0.1,1-0.3s0.4-0.3,0.4-0.4c0,0-0.2-0.1-0.5-0.3
		s-0.8-0.4-1.4-0.8c-0.5-0.3-0.8-0.6-1-0.9s-0.3-0.7-0.3-1.2c0-0.3,0.1-0.6,0.2-0.8s0.3-0.4,0.6-0.5c0.2-0.1,0.5-0.2,0.8-0.3
		s0.6-0.1,1-0.1c0,0,0.1,0,0.3,0c0.2,0,0.3,0.1,0.5,0.1s0.3,0.1,0.5,0.2s0.2,0.2,0.2,0.3c0,0,0,0.1-0.1,0.1
		c-0.1,0.1-0.1,0.2-0.3,0.3c0,0-0.1,0-0.2-0.1c-0.1,0-0.2-0.1-0.4-0.1c-0.1,0-0.3-0.1-0.4-0.1s-0.3,0-0.4,0c-0.4,0-0.7,0.1-0.9,0.2
		c-0.2,0.1-0.4,0.4-0.4,0.8c0,0.2,0.1,0.4,0.2,0.5c0.2,0.2,0.3,0.3,0.6,0.5c0.2,0.1,0.5,0.3,0.8,0.4c0.3,0.1,0.5,0.3,0.8,0.5
		c0.2,0.2,0.4,0.3,0.6,0.5C270.9,35.7,270.9,35.9,270.9,36.2z"/>
	<path class="st0" d="M278.9,36.7L278.9,36.7c0,0.2-0.1,0.3-0.2,0.5c0,0.1-0.1,0.2-0.3,0.3c-0.1,0.1-0.3,0.3-0.6,0.4
		c-0.2,0.1-0.6,0.2-0.9,0.4c-0.4,0.1-0.8,0.2-1.3,0.2c-0.3,0-0.7-0.1-1-0.2c-0.3-0.2-0.6-0.4-0.9-0.7c-0.2-0.3-0.5-0.7-0.6-1.1
		s-0.2-1-0.2-1.6s0.1-1.1,0.2-1.6s0.3-0.9,0.6-1.3s0.5-0.7,0.8-0.9c0.3-0.2,0.6-0.3,0.8-0.3c0.2,0,0.5,0,0.7,0.1s0.5,0.2,0.7,0.4
		c0.2,0.1,0.4,0.3,0.5,0.5c0.1,0.2,0.2,0.4,0.2,0.6s-0.1,0.4-0.3,0.7c-0.2,0.2-0.4,0.5-0.7,0.6c-0.3,0.2-0.6,0.4-0.8,0.5
		s-0.5,0.2-0.7,0.2c-0.1,0-0.2,0-0.2-0.1c-0.1-0.1-0.1-0.2-0.1-0.3c0-0.2,0.1-0.4,0.3-0.5c0.2-0.1,0.4-0.2,0.6-0.3s0.4-0.2,0.6-0.3
		s0.3-0.3,0.3-0.6c0,0,0-0.1-0.1-0.2c-0.1-0.1-0.3-0.2-0.6-0.2c-0.1,0-0.3,0.1-0.5,0.3s-0.4,0.4-0.6,0.7s-0.3,0.6-0.4,1
		s-0.2,0.8-0.2,1.3c0,0.4,0.1,0.7,0.2,1s0.3,0.6,0.5,0.8s0.5,0.4,0.8,0.5s0.6,0.2,0.9,0.2c0.2,0,0.5,0,0.7-0.1
		c0.3-0.1,0.5-0.2,0.7-0.3s0.4-0.2,0.6-0.3s0.3-0.1,0.3-0.1s0.1,0,0.1,0.1C278.9,36.7,278.9,36.7,278.9,36.7z"/>
	<path class="st0" d="M73.4,61.5c0,0.1,0,0.3-0.1,0.5c0,0.2-0.1,0.3-0.1,0.4c0,0-0.2,0.2-0.4,0.5c-0.2,0.3-0.5,0.5-0.9,0.8
		s-0.8,0.5-1.2,0.8c-0.4,0.2-0.9,0.3-1.3,0.3c-0.2,0-0.5,0-0.8-0.1s-0.5-0.2-0.7-0.4c-0.2-0.2-0.4-0.4-0.5-0.7s-0.2-0.7-0.2-1.1
		c0-0.7,0.1-1.3,0.4-1.9c0.2-0.6,0.5-1,0.7-1.4c0.1-0.2,0.2-0.3,0.4-0.5c0.2-0.2,0.3-0.3,0.5-0.5c0.2-0.1,0.3-0.3,0.5-0.3
		c0.1-0.1,0.2-0.1,0.3-0.1c0.1,0,0.3,0,0.4,0.1s0.2,0.1,0.2,0.2c0,0.1,0,0.2-0.1,0.3s-0.2,0.2-0.3,0.3c-0.1,0.1-0.3,0.2-0.4,0.4
		c-0.2,0.2-0.3,0.4-0.5,0.6c-0.4,0.5-0.6,1-0.8,1.5c-0.2,0.5-0.3,1-0.3,1.3s0.1,0.7,0.4,0.9s0.6,0.3,0.9,0.3c0.6,0,1.1-0.1,1.5-0.4
		s0.8-0.5,1.1-0.8s0.6-0.6,0.7-0.8c0.2-0.2,0.3-0.4,0.4-0.4C73.4,61.1,73.4,61.2,73.4,61.5z"/>
	<path class="st0" d="M85.7,60.9c0,0.3-0.1,0.6-0.4,1c-0.2,0.4-0.6,0.8-1,1.1s-0.9,0.7-1.4,0.9c-0.5,0.3-1.1,0.4-1.7,0.4
		c-0.3,0-0.5,0-0.8-0.1s-0.6-0.2-0.9-0.4c-0.3-0.2-0.5-0.4-0.7-0.6c-0.2-0.2-0.4-0.5-0.5-0.8c-0.1,0.1-0.2,0.2-0.3,0.4
		c-0.1,0.2-0.3,0.4-0.4,0.6c-0.1,0.2-0.3,0.4-0.5,0.5c-0.2,0.2-0.4,0.2-0.5,0.2c-0.2,0-0.3-0.1-0.5-0.3c-0.1-0.2-0.2-0.4-0.3-0.7
		c-0.1-0.2-0.1-0.5-0.2-0.7c0-0.2,0-0.3,0-0.4c0-0.2,0.1-0.5,0.2-1s0.3-1,0.5-1.5s0.5-1,0.8-1.4s0.7-0.6,1.1-0.6
		c0.2,0,0.3,0.1,0.3,0.2c0.1,0.1,0.1,0.3,0.1,0.4v0.7c0.1,0.1,0.2,0.1,0.2,0.1c0.1,0,0.2,0.1,0.2,0.1s0.1,0.1,0.2,0.2
		c0,0.1,0.1,0.2,0.1,0.4c0,0.1,0,0.2,0,0.3s0,0.2,0,0.2c0,0.4,0,0.8,0.1,1.1c0.1,0.4,0.2,0.7,0.4,1c0.2,0.3,0.4,0.5,0.7,0.7
		s0.7,0.3,1.2,0.3c0.6,0,1.2-0.1,1.6-0.4c0.4-0.3,0.8-0.6,1.1-0.9c0.3-0.3,0.5-0.6,0.7-0.9c0.2-0.3,0.3-0.4,0.4-0.4
		C85.6,60.6,85.7,60.7,85.7,60.9z M77.9,59.9c0-0.1,0-0.1,0-0.2s0-0.1,0-0.1c0-0.1,0-0.1,0-0.2s0-0.1,0-0.2v-0.1c0,0,0,0,0-0.1
		c-0.1,0-0.3,0.2-0.4,0.4s-0.3,0.5-0.4,0.8s-0.2,0.6-0.3,0.9s-0.1,0.5-0.1,0.7c0,0.1,0,0.3,0.1,0.5s0.1,0.4,0.2,0.5
		c0.2-0.5,0.5-1,0.7-1.5C77.8,60.9,77.9,60.4,77.9,59.9z"/>
	<path class="st0" d="M92.5,62.8c0,0.1,0,0.2-0.1,0.3s-0.1,0.2-0.2,0.2c-0.1,0.1-0.2,0.1-0.3,0.2c-0.1,0.1-0.2,0.1-0.3,0.1
		c-0.2,0-0.6-0.1-1-0.2c-0.4-0.1-0.7-0.3-0.9-0.5c-0.2-0.2-0.5-0.5-0.7-0.9s-0.4-0.9-0.6-1.5c-0.2,0.6-0.3,1.3-0.6,1.9
		c-0.2,0.6-0.6,1.2-1,1.7h-0.1c-0.1,0-0.2-0.1-0.3-0.2c-0.1-0.1-0.2-0.2-0.2-0.3s0-0.3,0-0.7s0-0.8-0.1-1.3c0-0.5-0.1-0.9-0.1-1.4
		s0-0.9,0-1.2c0-0.1,0-0.3,0-0.6c0-0.2,0.1-0.5,0.1-0.6c0,0,0.1-0.1,0.2-0.2c0.1-0.1,0.2-0.1,0.3-0.1c0.1,0,0.2,0.1,0.2,0.2
		c0,0.1,0,0.3,0,0.4v3.5c0,0.1,0,0.2,0,0.3s0.1,0.2,0.1,0.3c0.2-0.4,0.3-0.8,0.5-1.2c0.1-0.5,0.3-0.9,0.4-1.4
		c0.1-0.4,0.3-0.8,0.4-1.1s0.3-0.5,0.4-0.5s0.3,0,0.4,0.1s0.2,0.2,0.2,0.4c0.1,0.4,0.1,0.8,0.2,1.1s0.1,0.6,0.2,0.9s0.2,0.5,0.3,0.7
		c0.1,0.2,0.3,0.4,0.5,0.6c0.2,0.2,0.4,0.3,0.7,0.4c0.3,0.1,0.5,0.1,0.7,0.1c0.1,0,0.2,0,0.3-0.1c0.1,0,0.2-0.1,0.2-0.1
		c0.1,0,0.1,0.1,0.2,0.2C92.5,62.7,92.5,62.7,92.5,62.8z"/>
	<path class="st0" d="M108,61.1c0,0.7-0.1,1.2-0.2,1.7c-0.2,0.5-0.3,0.9-0.6,1.2c-0.2,0.3-0.4,0.6-0.7,0.7S106.1,65,106,65
		c-0.2,0-0.4-0.1-0.6-0.3c-0.2-0.2-0.3-0.4-0.3-0.5c0-0.2,0.1-0.4,0.3-0.4c0.1,0,0.1,0,0.2,0.1s0.1,0.1,0.2,0.1
		c0.2-0.2,0.5-0.5,0.7-1s0.3-1.1,0.3-2c0-0.4,0-0.7-0.1-0.9s-0.2-0.5-0.3-0.7c-0.1-0.2-0.2-0.3-0.3-0.4c-0.1-0.1-0.2-0.2-0.2-0.2
		c-0.1,0-0.3,0.1-0.4,0.4c-0.1,0.3-0.3,0.6-0.4,1s-0.2,0.7-0.3,1.1s-0.1,0.6-0.1,0.7c0,0.1,0,0.2,0,0.2c0,0.1,0,0.1,0,0.2
		c0,0.1,0,0.1,0,0.2c0,0.3-0.1,0.5-0.3,0.7c-0.2,0.2-0.4,0.3-0.5,0.3s-0.2-0.1-0.2-0.2c-0.1-0.1-0.1-0.3-0.1-0.5s-0.1-0.4-0.1-0.6
		s0-0.4-0.1-0.5c-0.1-0.3-0.3-0.7-0.5-1.3s-0.4-1.2-0.6-1.8c-0.2-0.7-0.4-1.3-0.6-1.9c-0.2-0.6-0.3-1.1-0.4-1.5
		c-0.2-0.8-0.4-1.5-0.5-2.1s-0.2-1.1-0.3-1.6c-0.1-0.4-0.1-0.8-0.1-1.2s0-0.6,0-0.8c0-0.1,0.1-0.2,0.2-0.3s0.2-0.1,0.3-0.1
		c0.1,0,0.2,0,0.3,0.1c0.1,0.1,0.1,0.2,0.1,0.3c0,0.2,0,0.4,0.1,0.7c0,0.3,0.1,0.7,0.1,1.2c0,0.2,0.1,0.6,0.2,1s0.2,0.9,0.3,1.5
		s0.3,1.1,0.4,1.7c0.2,0.6,0.3,1.2,0.5,1.7s0.3,1,0.5,1.5s0.3,0.8,0.5,1.1c0.1-0.5,0.3-1,0.5-1.4s0.4-0.7,0.6-1s0.5-0.5,0.9-0.5
		c0.1,0,0.3,0.1,0.5,0.2c0.2,0.1,0.4,0.3,0.6,0.6s0.4,0.6,0.5,1.1C107.9,59.9,108,60.4,108,61.1z"/>
	<path class="st0" d="M116.2,63.2L116.2,63.2c0,0.2-0.1,0.3-0.2,0.5c0,0.1-0.1,0.2-0.3,0.3c-0.1,0.1-0.3,0.3-0.6,0.4
		c-0.2,0.1-0.6,0.2-0.9,0.4s-0.8,0.2-1.3,0.2c-0.3,0-0.7-0.1-1-0.2c-0.3-0.2-0.6-0.4-0.9-0.7c-0.2-0.3-0.5-0.7-0.6-1.1
		c-0.2-0.4-0.2-1-0.2-1.6s0.1-1.1,0.2-1.6s0.3-0.9,0.6-1.3s0.5-0.7,0.8-0.9s0.5-0.3,0.8-0.3c0.2,0,0.5,0,0.7,0.1s0.5,0.2,0.7,0.4
		c0.2,0.1,0.4,0.3,0.5,0.5s0.2,0.4,0.2,0.6c0,0.2-0.1,0.4-0.3,0.7c-0.2,0.2-0.4,0.5-0.7,0.6c-0.3,0.2-0.6,0.4-0.8,0.5
		c-0.3,0.1-0.5,0.2-0.7,0.2c-0.1,0-0.2,0-0.2-0.1c-0.1-0.1-0.1-0.2-0.1-0.3c0-0.2,0.1-0.4,0.3-0.5c0.2-0.1,0.4-0.2,0.6-0.3
		s0.4-0.2,0.6-0.3s0.3-0.3,0.3-0.5c0,0,0-0.1-0.1-0.2c-0.1-0.1-0.3-0.2-0.6-0.2c-0.1,0-0.3,0.1-0.5,0.3s-0.4,0.4-0.5,0.7
		c-0.2,0.3-0.3,0.6-0.4,1s-0.2,0.8-0.2,1.3c0,0.4,0.1,0.7,0.2,1s0.3,0.6,0.5,0.8s0.5,0.4,0.8,0.5s0.6,0.2,0.9,0.2
		c0.2,0,0.5,0,0.7-0.1c0.3-0.1,0.5-0.2,0.7-0.3c0.2-0.1,0.4-0.2,0.6-0.3s0.3-0.1,0.3-0.1s0.1,0,0.1,0.1
		C116.1,63.1,116.2,63.1,116.2,63.2z"/>
	<path class="st0" d="M133.2,61.5c0,0.1,0,0.3-0.1,0.5c0,0.2-0.1,0.3-0.1,0.4c0,0-0.2,0.2-0.4,0.5s-0.5,0.5-0.9,0.8
		s-0.8,0.5-1.2,0.8c-0.4,0.2-0.9,0.3-1.3,0.3c-0.2,0-0.5,0-0.8-0.1s-0.5-0.2-0.7-0.4c-0.2-0.2-0.4-0.4-0.5-0.7s-0.2-0.7-0.2-1.1
		c0-0.7,0.1-1.3,0.4-1.9c0.2-0.6,0.5-1,0.7-1.4c0.1-0.2,0.2-0.3,0.4-0.5s0.3-0.3,0.5-0.5c0.2-0.1,0.3-0.3,0.5-0.3
		c0.1-0.1,0.2-0.1,0.3-0.1s0.3,0,0.4,0.1c0.1,0.1,0.2,0.1,0.2,0.2c0,0.1,0,0.2-0.1,0.3s-0.2,0.2-0.3,0.3s-0.3,0.2-0.4,0.4
		c-0.2,0.2-0.3,0.4-0.5,0.6c-0.4,0.5-0.6,1-0.8,1.5s-0.3,1-0.3,1.3s0.1,0.7,0.4,0.9s0.6,0.3,0.9,0.3c0.6,0,1.1-0.1,1.5-0.4
		s0.8-0.5,1.1-0.8s0.6-0.6,0.7-0.8s0.3-0.4,0.4-0.4C133.1,61.1,133.2,61.2,133.2,61.5z"/>
	<path class="st0" d="M138.9,60.7c0,0.3,0,0.6-0.1,0.9c-0.1,0.3-0.2,0.5-0.4,0.8c-0.1,0.2-0.3,0.4-0.5,0.5s-0.4,0.2-0.6,0.2
		c-0.4,0-0.7-0.1-1-0.4c-0.2-0.2-0.4-0.5-0.5-0.8s-0.2-0.6-0.2-0.9c0-0.3-0.1-0.6-0.1-0.7c0-0.3,0-0.6,0.1-0.9
		c0.1-0.3,0.2-0.6,0.3-0.9c0.1-0.3,0.3-0.5,0.5-0.7s0.4-0.3,0.5-0.3c0,0,0.1,0,0.2,0s0.2,0.1,0.3,0.1s0.2,0.1,0.3,0.2
		c0.1,0.1,0.1,0.2,0.2,0.3c0.2,0,0.3,0.1,0.5,0.2c0.2,0.1,0.2,0.2,0.3,0.2c0.1,0.4,0.2,0.8,0.2,1.1
		C138.9,60.1,138.9,60.5,138.9,60.7z M137.9,60.3c0-0.2,0-0.5-0.1-0.7s-0.1-0.5-0.3-0.7h-0.1c-0.1,0-0.1,0-0.1,0h-0.1
		c-0.2,0-0.3,0-0.4,0.1c-0.1,0.1-0.2,0.2-0.2,0.4c-0.1,0.2-0.1,0.3-0.1,0.5s0,0.3,0,0.5s0,0.3,0,0.5s0,0.4,0.1,0.6
		c0.1,0.2,0.1,0.3,0.2,0.5c0.1,0.1,0.2,0.2,0.4,0.2s0.3-0.1,0.4-0.2s0.2-0.3,0.2-0.5c0.1-0.2,0.1-0.4,0.1-0.6
		C137.9,60.5,137.9,60.4,137.9,60.3z"/>
	<path class="st0" d="M150.9,63.4c0,0.1,0,0.2-0.1,0.3s-0.2,0.2-0.3,0.2c-0.1,0.1-0.2,0.1-0.3,0.1s-0.2,0-0.3,0
		c-0.3,0-0.6-0.2-0.8-0.5s-0.4-0.7-0.5-1.1c-0.1-0.4-0.3-0.8-0.3-1.1c-0.1-0.4-0.1-0.5-0.1-0.6c-0.1,0.2-0.2,0.4-0.3,0.8
		c-0.1,0.4-0.2,0.8-0.3,1.2s-0.3,0.7-0.5,1c-0.2,0.3-0.5,0.5-0.8,0.5c-0.1,0-0.3-0.1-0.4-0.3c-0.1-0.2-0.3-0.4-0.4-0.7
		c-0.1-0.3-0.2-0.6-0.3-0.9s-0.2-0.7-0.3-1s-0.2-0.7-0.3-1s-0.2-0.5-0.3-0.7c-0.1,0.2-0.2,0.5-0.2,0.9c-0.1,0.4-0.1,0.8-0.2,1.2
		c0,0.4-0.1,0.8-0.1,1.2s0,0.8,0,1.1c0,0.2-0.1,0.4-0.2,0.4s-0.2,0.1-0.3,0.1c-0.2,0-0.3-0.1-0.5-0.3s-0.3-0.5-0.5-0.8
		s-0.3-0.7-0.5-1.1c-0.1-0.4-0.3-0.9-0.4-1.3c-0.1-0.4-0.2-0.8-0.3-1.2s-0.1-0.7-0.1-1c0-0.2,0-0.4,0-0.5s0-0.3,0-0.4
		c0-0.1,0-0.2,0-0.2v-0.1v-0.1c0,0,0.1-0.1,0.2-0.2c0.1-0.1,0.2-0.1,0.3-0.1c0.2,0,0.3,0,0.4,0.1c0.1,0.1,0.1,0.2,0.1,0.3
		c0,0,0,0.1,0,0.2c0,0.1,0,0.3,0,0.6c0,0.2,0,0.5,0.1,0.9s0.2,0.8,0.3,1.3s0.2,0.8,0.3,1.2s0.2,0.6,0.3,0.7c0-0.1,0-0.1,0.1-0.2
		c0-0.1,0-0.1,0-0.2l0.2-1.8c0.1-0.5,0.2-0.9,0.4-1.4s0.4-0.9,0.6-1.2c0.1-0.1,0.2-0.2,0.2-0.2s0.2,0.1,0.2,0.2
		c0.2,0.4,0.4,0.8,0.6,1.2c0.1,0.4,0.2,0.8,0.3,1.2s0.2,0.8,0.3,1.2s0.3,0.8,0.6,1.2c0.1-0.2,0.3-0.5,0.4-0.9
		c0.2-0.4,0.4-0.9,0.5-1.3c0.2-0.4,0.4-0.8,0.5-1.2c0.2-0.3,0.3-0.5,0.4-0.5c0,0,0.1,0,0.2,0s0.2,0,0.2,0c0.1,0,0.2,0.2,0.3,0.5
		s0.2,0.7,0.2,1.1c0.1,0.4,0.1,0.8,0.2,1.2c0.1,0.4,0.1,0.7,0.2,0.9c0.1,0.1,0.1,0.3,0.3,0.4c0.1,0.1,0.2,0.3,0.4,0.4
		C150.6,63.1,150.7,63.3,150.9,63.4z"/>
	<path class="st0" d="M159.7,59.1c0,0.4-0.1,0.7-0.3,1.1c-0.2,0.4-0.5,0.7-0.8,1s-0.6,0.6-1,0.8c-0.4,0.3-0.7,0.5-1,0.7
		s-0.5,0.4-0.7,0.5s-0.3,0.2-0.3,0.3c0,0.2,0,0.5,0.1,0.8c0,0.3,0.1,0.7,0.2,1.1c0.1,0.4,0.1,0.8,0.2,1.2c0.1,0.4,0.1,0.8,0.1,1.2
		c0,0,0,0.1,0,0.2s0.1,0.2,0.1,0.4c0,0.1,0.1,0.3,0.1,0.4s0,0.2,0,0.2c0,0.1,0,0.2,0,0.3c0,0.1,0,0.2-0.1,0.4c0,0.1-0.1,0.2-0.2,0.3
		s-0.2,0.1-0.3,0.1c-0.2,0-0.3-0.1-0.4-0.2c-0.1-0.1-0.1-0.3-0.1-0.4v-0.1v-0.1c0-0.2-0.1-0.6-0.2-1.3s-0.2-1.5-0.4-2.5
		c-0.1-1-0.3-2-0.4-3.1c-0.1-1.1-0.2-2.2-0.2-3.2c0-0.1,0-0.2,0-0.3s0-0.2,0-0.3c-0.1,0-0.4,0.1-0.6,0.2c-0.3,0.1-0.6,0.3-0.8,0.4
		c-0.3,0.2-0.5,0.3-0.7,0.5s-0.3,0.3-0.3,0.5h-0.2c0,0-0.1,0-0.2-0.1c-0.1-0.1-0.1-0.1-0.2-0.2c-0.1-0.1-0.1-0.1-0.1-0.2
		s-0.1-0.1-0.1-0.2c0-0.3,0.2-0.6,0.5-0.9c0.4-0.3,0.8-0.5,1.4-0.7c0.6-0.2,1.2-0.4,1.8-0.5c0.7-0.1,1.3-0.2,1.9-0.2
		c0.6,0,1.1,0.1,1.4,0.2s0.7,0.3,0.9,0.5s0.4,0.4,0.5,0.6S159.7,59,159.7,59.1z M158.6,59c0-0.1-0.2-0.3-0.5-0.5
		c-0.4-0.2-0.8-0.2-1.3-0.2c-0.4,0-0.8,0-1,0s-0.3,0.1-0.4,0.1c0,0.2-0.1,0.5-0.1,0.8s0,0.7,0,1c0,0.4,0,0.7,0,1s0,0.6,0.1,0.8
		c0.2-0.1,0.5-0.3,0.8-0.5s0.7-0.5,1.1-0.8c0.4-0.3,0.7-0.6,0.9-0.9C158.5,59.6,158.6,59.3,158.6,59z"/>
	<path class="st0" d="M163.7,65.1c-0.1,0.1-0.2,0.1-0.3,0.1s-0.3-0.1-0.4-0.4s-0.3-0.6-0.4-0.9c-0.1-0.4-0.3-0.8-0.4-1.2
		s-0.2-0.9-0.3-1.3s-0.2-0.7-0.2-1c-0.1-0.3-0.1-0.4-0.1-0.4c0-0.1,0-0.2-0.1-0.5c-0.1-0.2-0.1-0.6-0.2-1.2
		c-0.1-0.5-0.2-1.2-0.3-2.1c-0.1-0.8-0.2-1.9-0.3-3.1c0-0.1,0-0.3,0.1-0.5c0-0.2,0.1-0.3,0.3-0.3s0.4,0.1,0.5,0.4
		c0.1,0.3,0.2,0.6,0.3,1s0.1,0.8,0.1,1.3s0.1,0.8,0.1,1.2c0.1,0.5,0.1,0.9,0.2,1.3c0.1,0.4,0.1,0.8,0.2,1.1c0.1,0.4,0.1,0.8,0.2,1.2
		c0.1,0.4,0.2,0.9,0.3,1.4l0.9,3.7C163.8,64.9,163.8,65,163.7,65.1z"/>
	<path class="st0" d="M171.7,63.2L171.7,63.2c0,0.2-0.1,0.3-0.2,0.5c0,0.1-0.1,0.2-0.3,0.3s-0.3,0.3-0.6,0.4
		c-0.2,0.1-0.6,0.2-0.9,0.4c-0.4,0.1-0.8,0.2-1.3,0.2c-0.3,0-0.7-0.1-1-0.2c-0.3-0.2-0.6-0.4-0.9-0.7c-0.2-0.3-0.5-0.7-0.6-1.1
		s-0.2-1-0.2-1.6s0.1-1.1,0.2-1.6c0.1-0.5,0.3-0.9,0.6-1.3s0.5-0.7,0.8-0.9s0.6-0.3,0.8-0.3s0.5,0,0.7,0.1s0.5,0.2,0.7,0.4
		c0.2,0.1,0.4,0.3,0.5,0.5s0.2,0.4,0.2,0.6c0,0.2-0.1,0.4-0.3,0.7c-0.2,0.2-0.4,0.5-0.7,0.6s-0.6,0.4-0.8,0.5
		c-0.3,0.1-0.5,0.2-0.7,0.2c-0.1,0-0.2,0-0.2-0.1c-0.1-0.1-0.1-0.2-0.1-0.3c0-0.2,0.1-0.4,0.3-0.5s0.4-0.2,0.6-0.3
		c0.2-0.1,0.4-0.2,0.6-0.3c0.2-0.1,0.3-0.3,0.3-0.5c0,0,0-0.1-0.1-0.2s-0.3-0.2-0.6-0.2c-0.1,0-0.3,0.1-0.5,0.3s-0.4,0.4-0.6,0.7
		c-0.2,0.3-0.3,0.6-0.4,1c-0.1,0.4-0.2,0.8-0.2,1.3c0,0.4,0.1,0.7,0.2,1c0.1,0.3,0.3,0.6,0.5,0.8s0.5,0.4,0.8,0.5s0.6,0.2,0.9,0.2
		c0.2,0,0.5,0,0.7-0.1c0.3-0.1,0.5-0.2,0.7-0.3c0.2-0.1,0.4-0.2,0.6-0.3c0.2-0.1,0.3-0.1,0.3-0.1s0.1,0,0.1,0.1
		C171.6,63.1,171.7,63.1,171.7,63.2z"/>
	<path class="st0" d="M179.1,55.5c-0.2,0.2-0.5,0.4-0.8,0.6c-0.4,0.2-0.7,0.4-1.1,0.6c-0.4,0.2-0.7,0.3-0.9,0.5s-0.4,0.2-0.4,0.3
		s0,0.2,0.1,0.4s0.1,0.5,0.2,0.8c0.1,0.3,0.2,0.6,0.3,0.9s0.2,0.6,0.2,0.9c0,0.1,0.1,0.3,0.1,0.6s0.1,0.5,0.1,0.7s0.1,0.4,0.1,0.6
		c0,0.2,0,0.3,0,0.3c0,0.2,0,0.4-0.1,0.7c-0.1,0.2-0.2,0.4-0.4,0.4c-0.1,0-0.2,0-0.2-0.1s-0.1-0.2-0.2-0.3S176,63.1,176,63
		s0-0.2,0-0.2v-0.1c0-0.1,0-0.1,0-0.2c0-0.3,0-0.7-0.1-1.2c0-0.2-0.1-0.4-0.2-0.7c-0.1-0.3-0.2-0.7-0.3-1c-0.1-0.4-0.2-0.9-0.4-1.3
		c-0.1-0.2-0.1-0.3-0.1-0.3c-0.1,0-0.3,0.1-0.5,0.2c-0.2,0.1-0.5,0.3-0.8,0.5s-0.6,0.4-1,0.6c-0.3,0.2-0.7,0.4-0.9,0.6
		c-0.3,0.2-0.5,0.3-0.8,0.5c-0.2,0.1-0.3,0.2-0.4,0.2c-0.2,0-0.3-0.1-0.5-0.2s-0.2-0.3-0.2-0.4c0-0.1,0.1-0.2,0.4-0.4
		c0.2-0.2,0.5-0.4,0.9-0.6s0.7-0.4,1.2-0.6c0.4-0.2,0.8-0.4,1.2-0.6s0.8-0.4,1.3-0.6c-0.1-0.7-0.2-1.3-0.3-1.8s-0.1-0.9-0.2-1.3
		c-0.1-0.4-0.1-0.6-0.1-0.6c0-0.2,0-0.3,0.1-0.4c0.1-0.1,0.2-0.1,0.3-0.1c0.2,0,0.3,0.1,0.3,0.3c0.2,0.8,0.3,1.5,0.5,2.1
		c0.1,0.6,0.3,1.1,0.4,1.5c0.1,0,0.4-0.1,0.7-0.3s0.7-0.3,1-0.5c0.4-0.2,0.7-0.3,1-0.4s0.5-0.2,0.5-0.2
		C179.1,55.5,179.1,55.5,179.1,55.5C179,55.4,179,55.5,179.1,55.5z"/>
	<path class="st0" d="M186.4,63.2L186.4,63.2c0,0.2-0.1,0.3-0.2,0.5c0,0.1-0.1,0.2-0.3,0.3s-0.3,0.3-0.6,0.4
		c-0.2,0.1-0.6,0.2-0.9,0.4c-0.4,0.1-0.8,0.2-1.3,0.2c-0.3,0-0.7-0.1-1-0.2c-0.3-0.2-0.6-0.4-0.9-0.7c-0.2-0.3-0.5-0.7-0.6-1.1
		s-0.2-1-0.2-1.6s0.1-1.1,0.2-1.6c0.1-0.5,0.3-0.9,0.6-1.3s0.5-0.7,0.8-0.9s0.6-0.3,0.8-0.3s0.5,0,0.7,0.1s0.5,0.2,0.7,0.4
		c0.2,0.1,0.4,0.3,0.5,0.5s0.2,0.4,0.2,0.6c0,0.2-0.1,0.4-0.3,0.7c-0.2,0.2-0.4,0.5-0.7,0.6s-0.6,0.4-0.8,0.5
		c-0.3,0.1-0.5,0.2-0.7,0.2c-0.1,0-0.2,0-0.2-0.1c-0.1-0.1-0.1-0.2-0.1-0.3c0-0.2,0.1-0.4,0.3-0.5s0.4-0.2,0.6-0.3
		c0.2-0.1,0.4-0.2,0.6-0.3c0.2-0.1,0.3-0.3,0.3-0.5c0,0,0-0.1-0.1-0.2s-0.3-0.2-0.6-0.2c-0.1,0-0.3,0.1-0.5,0.3s-0.4,0.4-0.6,0.7
		c-0.2,0.3-0.3,0.6-0.4,1c-0.1,0.4-0.2,0.8-0.2,1.3c0,0.4,0.1,0.7,0.2,1c0.1,0.3,0.3,0.6,0.5,0.8s0.5,0.4,0.8,0.5s0.6,0.2,0.9,0.2
		c0.2,0,0.5,0,0.7-0.1c0.3-0.1,0.5-0.2,0.7-0.3c0.2-0.1,0.4-0.2,0.6-0.3c0.2-0.1,0.3-0.1,0.3-0.1s0.1,0,0.1,0.1
		C186.3,63.1,186.4,63.1,186.4,63.2z"/>
	<path class="st0" d="M194.2,61.9c0,0.1,0,0.1-0.1,0.2c-0.1,0.1-0.1,0.1-0.1,0.2c0,0.2,0,0.3,0.1,0.5c0.1,0.1,0.1,0.3,0.1,0.5
		s-0.1,0.3-0.2,0.3c-0.1,0-0.3,0-0.3,0.1c-0.1,0-0.2,0.1-0.3,0.1s-0.2-0.1-0.3-0.2c-0.1-0.1-0.1-0.2-0.2-0.3c0,0,0,0-0.1,0.1
		s-0.2,0.2-0.4,0.3s-0.4,0.2-0.7,0.3c-0.3,0.1-0.7,0.1-1.2,0.1c-0.4,0-0.8-0.1-1.1-0.3s-0.6-0.4-0.8-0.7s-0.3-0.6-0.4-1
		c-0.1-0.4-0.1-0.8-0.1-1.1c0-0.4,0-0.7,0.1-1s0.2-0.6,0.3-0.8s0.3-0.4,0.5-0.6c0.2-0.1,0.5-0.2,0.8-0.2s0.6,0.1,0.8,0.3
		s0.5,0.4,0.7,0.6c0.2,0.2,0.5,0.5,0.7,0.8c-0.2-1.1-0.4-2.2-0.5-3.1c-0.1-0.4-0.1-0.8-0.2-1.2c-0.1-0.4-0.1-0.7-0.2-1
		s-0.1-0.8-0.1-1s-0.1-0.3-0.1-0.4c0-0.1,0-0.2,0-0.5s0-0.5,0-0.7s0-0.5,0-0.7s0-0.3,0-0.4c0-0.1-0.1-0.3-0.2-0.5
		c-0.1-0.2-0.1-0.3-0.1-0.4c0-0.1,0-0.2,0.1-0.3s0.2-0.2,0.3-0.2s0.2,0,0.2,0c0.1,0,0.1,0.1,0.2,0.1c0.1,0.1,0.1,0.2,0.2,0.3
		c0.1,0.2,0.1,0.4,0.1,0.6c0,0.1,0.1,0.4,0.1,0.8c0.1,0.4,0.1,0.9,0.2,1.3c0.1,0.5,0.1,0.9,0.2,1.4s0.1,0.8,0.2,1
		c0.1,0.6,0.2,1.2,0.3,1.8c0.1,0.7,0.3,1.3,0.4,1.9c0.1,0.6,0.3,1.1,0.4,1.6c0.1,0.5,0.2,0.8,0.4,0.9c0,0.1,0.1,0.1,0.2,0.1
		C194.1,61.8,194.1,61.8,194.2,61.9z M192.5,62.4c0,0-0.1-0.2-0.3-0.6c-0.2-0.3-0.4-0.7-0.6-1.1c-0.3-0.4-0.5-0.7-0.9-1
		s-0.6-0.5-0.9-0.5c-0.2,0-0.5,0.2-0.6,0.6c-0.2,0.4-0.2,0.8-0.2,1.3c0,0.6,0.2,1,0.5,1.3s0.7,0.5,1.1,0.5c0.4,0,0.7-0.1,1.1-0.2
		C192.1,62.7,192.4,62.5,192.5,62.4z"/>
	<path class="st0" d="M206.3,55.3c0,0-0.1,0.1-0.2,0.2c-0.1,0.1-0.2,0.2-0.4,0.3c-0.1,0.1-0.3,0.2-0.4,0.3c-0.1,0.1-0.3,0.1-0.4,0.1
		c-0.1,0-0.1,0-0.2,0c-0.1,0-0.2,0-0.3-0.1c-0.1,0-0.2-0.1-0.3-0.2c-0.1-0.1-0.1-0.2-0.1-0.3c0-0.2,0.1-0.4,0.2-0.6
		c0.1-0.2,0.3-0.3,0.6-0.3c0,0,0.1,0,0.3,0.1c0.2,0,0.3,0.1,0.5,0.1c0.2,0.1,0.3,0.1,0.4,0.2C206.2,55.2,206.3,55.3,206.3,55.3z
		 M207,63.6c0,0.1-0.1,0.2-0.2,0.3c-0.2,0.1-0.3,0.1-0.3,0.1c-0.1,0-0.3-0.1-0.4-0.3c-0.1-0.2-0.2-0.4-0.3-0.7s-0.2-0.5-0.2-0.7
		c-0.1-0.2-0.1-0.4-0.1-0.5s-0.1-0.3-0.2-0.5c-0.1-0.2-0.1-0.4-0.2-0.6c-0.1-0.2-0.1-0.4-0.2-0.5s-0.1-0.2-0.1-0.2
		c0-0.2,0-0.4,0.1-0.6c0.1-0.2,0.2-0.3,0.3-0.3s0.3,0.1,0.4,0.3s0.3,0.5,0.4,0.8c0.1,0.3,0.3,0.7,0.4,1c0.1,0.4,0.2,0.7,0.3,1.1
		s0.2,0.6,0.2,0.9C207,63.4,207,63.5,207,63.6z"/>
	<path class="st0" d="M215,62.8c0,0.1,0,0.2-0.1,0.3s-0.1,0.2-0.2,0.2c-0.1,0.1-0.2,0.1-0.3,0.2c-0.1,0.1-0.2,0.1-0.3,0.1
		c-0.2,0-0.6-0.1-1-0.2c-0.4-0.1-0.7-0.3-0.9-0.5s-0.5-0.5-0.7-0.9c-0.2-0.3-0.4-0.9-0.6-1.5c-0.2,0.6-0.3,1.3-0.6,1.9
		c-0.2,0.6-0.6,1.2-1,1.7h-0.1c-0.1,0-0.2-0.1-0.3-0.2s-0.2-0.2-0.2-0.3s0-0.3,0-0.7s0-0.8-0.1-1.3c0-0.5-0.1-0.9-0.1-1.4
		s0-0.9,0-1.2c0-0.1,0-0.3,0-0.6c0-0.2,0.1-0.5,0.1-0.6c0,0,0.1-0.1,0.2-0.2c0.1-0.1,0.2-0.1,0.3-0.1s0.2,0.1,0.2,0.2
		c0,0.1,0,0.3,0,0.4v3.5c0,0.1,0,0.2,0,0.3s0.1,0.2,0.1,0.3c0.2-0.4,0.3-0.8,0.5-1.2c0.1-0.5,0.3-0.9,0.4-1.4
		c0.1-0.4,0.3-0.8,0.4-1.1c0.1-0.3,0.3-0.5,0.4-0.5c0.1,0,0.3,0,0.4,0.1s0.2,0.2,0.2,0.4c0.1,0.4,0.1,0.8,0.2,1.1s0.1,0.6,0.2,0.9
		c0.1,0.3,0.2,0.5,0.3,0.7s0.3,0.4,0.5,0.6c0.2,0.2,0.4,0.3,0.7,0.4c0.3,0.1,0.5,0.1,0.7,0.1c0.1,0,0.2,0,0.3-0.1s0.2-0.1,0.2-0.1
		c0.1,0,0.1,0.1,0.2,0.2C214.9,62.7,215,62.7,215,62.8z"/>
	<path class="st0" d="M231.9,58c0,0.2-0.1,0.4-0.2,0.7c-0.1,0.3-0.3,0.7-0.4,1.3c-0.2,0.5-0.3,1.2-0.5,1.9c-0.2,0.8-0.3,1.6-0.4,2.7
		c0,0.2,0,0.3,0,0.5c0,0.1,0,0.2,0,0.3c0,0.1,0,0.2,0,0.3s0,0.2,0,0.3c0,0.1,0,0.2,0,0.2c0,0.1,0,0.1,0,0.2c0,0.3-0.2,0.5-0.5,0.5
		c-0.2,0-0.3-0.1-0.5-0.2s-0.2-0.3-0.2-0.5s0-0.5,0.1-1.1s0.1-1.1,0.2-1.7c0.1-0.6,0.2-1.2,0.3-1.8s0.2-1.1,0.3-1.5
		c-0.2,0.1-0.3,0.2-0.5,0.3s-0.4,0.2-0.7,0.2c-0.2,0.1-0.5,0.1-0.7,0.2c-0.2,0-0.4,0.1-0.6,0.1c-0.6,0-1.1-0.2-1.5-0.6
		c-0.4-0.4-0.6-1-0.6-1.6c0-0.4,0.1-0.7,0.3-1s0.4-0.5,0.6-0.7c0.3-0.2,0.5-0.3,0.8-0.5c0.3-0.1,0.6-0.2,0.8-0.2
		c0.6,0,1.1,0.1,1.5,0.3s0.7,0.7,0.9,1.4v0.1c0,0.1,0,0.1,0,0.1c0,0.1,0,0.1,0,0.2c0,0.1,0,0.1,0,0.2c0,0,0,0.1,0,0.2
		c0.2-0.1,0.3-0.2,0.4-0.5c0.1-0.2,0.2-0.4,0.4-0.6c0,0,0.1,0,0.2,0.1c0.1,0,0.2,0.1,0.2,0.2c0.1,0.1,0.1,0.1,0.2,0.2
		C231.9,57.9,231.9,57.9,231.9,58z M229.9,58.9c0-0.1,0-0.3-0.1-0.5s-0.1-0.4-0.3-0.6c-0.1-0.2-0.3-0.3-0.5-0.5
		c-0.2-0.1-0.5-0.2-0.8-0.2c-0.2,0-0.4,0-0.7,0.1s-0.4,0.2-0.6,0.3s-0.3,0.3-0.4,0.4c-0.1,0.2-0.2,0.3-0.2,0.5
		c0,0.4,0.1,0.7,0.4,0.8c0.3,0.1,0.6,0.2,1,0.2c0.2,0,0.4,0,0.6-0.1s0.5-0.1,0.7-0.2s0.4-0.1,0.5-0.2
		C229.8,59.1,229.9,59,229.9,58.9z"/>
	<path class="st0" d="M240.3,60.2c0,0.6-0.1,1.1-0.2,1.6c-0.2,0.4-0.3,0.8-0.6,1.1c-0.2,0.3-0.5,0.6-0.8,0.8s-0.6,0.4-0.8,0.5
		c-0.3,0.1-0.5,0.2-0.7,0.2s-0.4,0.1-0.5,0.1c-0.3,0-0.7-0.1-1-0.2c-0.3-0.2-0.6-0.4-0.8-0.6c-0.2-0.3-0.4-0.6-0.6-0.9
		s-0.2-0.7-0.2-1.2c0-0.4,0-0.7,0.1-1s0.2-0.7,0.3-1s0.2-0.6,0.3-0.8s0.1-0.4,0.1-0.6v-0.1V58c0-0.1,0-0.2,0.1-0.2
		c0.1-0.1,0.2-0.2,0.3-0.2s0.1-0.1,0.2-0.1c0.1,0,0.2,0,0.4,0.1s0.3,0.1,0.4,0.1c0.1,0,0.2,0,0.3,0s0.2,0,0.3,0s0.2,0,0.4,0
		s0.5,0,0.8,0.1s0.7,0.2,1,0.4s0.6,0.5,0.8,0.8C240.2,59.2,240.3,59.7,240.3,60.2z M236.9,63.5c0.4,0,0.7-0.1,1.1-0.3
		c0.3-0.2,0.6-0.4,0.8-0.7s0.4-0.6,0.5-1s0.2-0.8,0.2-1.2c0-0.3-0.1-0.6-0.2-0.8s-0.3-0.4-0.5-0.6c-0.2-0.1-0.4-0.3-0.6-0.3
		s-0.5-0.1-0.7-0.1c-0.3,0-0.5,0-0.8,0.1c-0.2,0-0.5,0.1-0.7,0.1c0,0.1-0.1,0.3-0.2,0.5c-0.1,0.2-0.1,0.5-0.2,0.7s-0.1,0.5-0.2,0.7
		c-0.1,0.2-0.1,0.4-0.1,0.6c0,0.2,0,0.5,0.1,0.7c0,0.3,0.1,0.5,0.2,0.8c0.1,0.2,0.3,0.4,0.5,0.6C236.2,63.4,236.5,63.5,236.9,63.5z"
		/>
	<path class="st0" d="M257.2,61.9c0,0.1,0,0.1-0.1,0.2c-0.1,0.1-0.1,0.1-0.1,0.2c0,0.2,0,0.3,0.1,0.5c0.1,0.1,0.1,0.3,0.1,0.5
		s-0.1,0.3-0.2,0.3s-0.3,0-0.3,0.1c-0.1,0-0.2,0.1-0.3,0.1c-0.1,0-0.2-0.1-0.3-0.2c-0.1-0.1-0.1-0.2-0.2-0.3c0,0,0,0-0.1,0.1
		s-0.2,0.2-0.4,0.3s-0.4,0.2-0.7,0.3c-0.3,0.1-0.7,0.1-1.2,0.1c-0.4,0-0.8-0.1-1.1-0.3s-0.6-0.4-0.8-0.7s-0.3-0.6-0.4-1
		c-0.1-0.4-0.1-0.8-0.1-1.1c0-0.4,0-0.7,0.1-1s0.2-0.6,0.3-0.8s0.3-0.4,0.5-0.6c0.2-0.1,0.5-0.2,0.8-0.2s0.6,0.1,0.8,0.3
		s0.5,0.4,0.7,0.6c0.2,0.2,0.5,0.5,0.7,0.8c-0.2-1.1-0.4-2.2-0.5-3.1c-0.1-0.4-0.1-0.8-0.2-1.2c-0.1-0.4-0.1-0.7-0.2-1
		S254,54.2,254,54s-0.1-0.3-0.1-0.4c0-0.1,0-0.2,0-0.5s0-0.5,0-0.7s0-0.5,0-0.7s0-0.3,0-0.4c0-0.1-0.1-0.3-0.2-0.5
		c-0.1-0.2-0.1-0.3-0.1-0.4c0-0.1,0-0.2,0.1-0.3s0.2-0.2,0.3-0.2s0.2,0,0.2,0c0.1,0,0.1,0.1,0.2,0.1c0.1,0.1,0.1,0.2,0.2,0.3
		c0.1,0.2,0.1,0.4,0.1,0.6c0,0.1,0.1,0.4,0.1,0.8c0.1,0.4,0.1,0.9,0.2,1.3c0.1,0.5,0.1,0.9,0.2,1.4s0.1,0.8,0.2,1
		c0.1,0.6,0.2,1.2,0.3,1.8c0.1,0.7,0.3,1.3,0.4,1.9c0.1,0.6,0.3,1.1,0.4,1.6s0.2,0.8,0.4,0.9c0,0.1,0.1,0.1,0.2,0.1
		C257.1,61.8,257.2,61.8,257.2,61.9z M255.6,62.4c0,0-0.1-0.2-0.3-0.6c-0.2-0.3-0.4-0.7-0.6-1.1c-0.3-0.4-0.5-0.7-0.9-1
		s-0.6-0.5-0.9-0.5c-0.2,0-0.5,0.2-0.6,0.6c-0.2,0.4-0.2,0.8-0.2,1.3c0,0.6,0.2,1,0.5,1.3s0.7,0.5,1.1,0.5c0.4,0,0.7-0.1,1.1-0.2
		C255.1,62.7,255.4,62.5,255.6,62.4z"/>
	<path class="st0" d="M269.3,60.9c0,0.3-0.1,0.6-0.4,1s-0.6,0.8-1,1.1c-0.4,0.4-0.9,0.7-1.4,0.9c-0.5,0.3-1.1,0.4-1.7,0.4
		c-0.3,0-0.5,0-0.8-0.1s-0.6-0.2-0.9-0.4c-0.3-0.2-0.5-0.4-0.7-0.6c-0.2-0.2-0.4-0.5-0.5-0.8c-0.1,0.1-0.2,0.2-0.3,0.4
		c-0.1,0.2-0.3,0.4-0.4,0.6c-0.1,0.2-0.3,0.4-0.5,0.5c-0.2,0.2-0.4,0.2-0.5,0.2s-0.3-0.1-0.5-0.3c-0.1-0.2-0.2-0.4-0.3-0.7
		c-0.1-0.2-0.1-0.5-0.2-0.7c0-0.2,0-0.3,0-0.4c0-0.2,0.1-0.5,0.2-1s0.3-1,0.5-1.5s0.5-1,0.8-1.4s0.7-0.6,1.1-0.6
		c0.2,0,0.3,0.1,0.3,0.2c0.1,0.1,0.1,0.3,0.1,0.4v0.7c0.1,0.1,0.2,0.1,0.2,0.1c0.1,0,0.2,0.1,0.2,0.1c0.1,0,0.1,0.1,0.2,0.2
		c0,0.1,0.1,0.2,0.1,0.4c0,0.1,0,0.2,0,0.3s0,0.2,0,0.2c0,0.4,0,0.8,0.1,1.1c0.1,0.4,0.2,0.7,0.4,1c0.2,0.3,0.4,0.5,0.7,0.7
		c0.3,0.2,0.7,0.3,1.2,0.3c0.6,0,1.2-0.1,1.6-0.4s0.8-0.6,1.1-0.9c0.3-0.3,0.5-0.6,0.7-0.9c0.2-0.3,0.3-0.4,0.4-0.4
		C269.3,60.6,269.3,60.7,269.3,60.9z M261.6,59.9c0-0.1,0-0.1,0-0.2c0-0.1,0-0.1,0-0.1c0-0.1,0-0.1,0-0.2c0,0,0-0.1,0-0.2v-0.1
		c0,0,0,0,0-0.1c-0.1,0-0.3,0.2-0.4,0.4s-0.3,0.5-0.4,0.8s-0.2,0.6-0.3,0.9s-0.1,0.5-0.1,0.7c0,0.1,0,0.3,0.1,0.5s0.1,0.4,0.2,0.5
		c0.2-0.5,0.5-1,0.7-1.5C261.5,60.9,261.6,60.4,261.6,59.9z"/>
	<path class="st0" d="M274.2,55.2c-0.2,1-0.4,2-0.5,2.9c-0.1,0.4-0.1,0.8-0.2,1.2s-0.1,0.9-0.2,1.3c-0.1,0.4-0.1,0.8-0.2,1.2
		s-0.1,0.7-0.1,1c-0.1,0.5-0.1,1-0.1,1.6s-0.1,1.2-0.1,1.7c0,0.6,0,1.3,0,1.9c0,0.1,0,0.3,0,0.4c0,0.2,0,0.3,0,0.5
		c0,0.1,0,0.3-0.1,0.4s-0.2,0.2-0.3,0.2c-0.1,0-0.2-0.1-0.3-0.3c-0.1-0.2-0.1-0.4-0.2-0.6c0-0.2-0.1-0.5-0.1-0.7s0-0.4,0-0.5
		s0-0.3,0-0.4s0-0.4,0-0.7s0.1-0.8,0.1-1.3s0.1-1.2,0.2-2.1c0,0-0.1-0.1-0.3-0.2c-0.2-0.1-0.4-0.3-0.7-0.5c-0.3-0.2-0.6-0.4-0.9-0.6
		s-0.6-0.5-0.8-0.7c0,0-0.1-0.1-0.1-0.2c-0.1-0.1-0.1-0.2-0.1-0.4c0-0.1,0-0.2,0.1-0.2c0.1-0.1,0.2-0.1,0.2-0.1c0.1,0,0.1,0,0.2,0.1
		c0.3,0.3,0.7,0.6,1.2,1c0.4,0.4,0.9,0.7,1.3,1c0-0.3,0.1-0.7,0.2-1.2s0.2-1.1,0.3-1.8c0.1-0.6,0.2-1.2,0.3-1.8
		c0.1-0.6,0.2-1.1,0.2-1.4c0-0.1,0-0.2,0-0.3s0.1-0.3,0.1-0.4c0.1-0.1,0.1-0.2,0.2-0.3s0.2-0.1,0.2-0.1s0.1,0,0.3,0.1
		S274.2,54.9,274.2,55.2z"/>
	<path class="st0" d="M280.8,62.6c0,0.2-0.1,0.5-0.3,0.6c-0.2,0.2-0.4,0.3-0.6,0.5c-0.3,0.1-0.5,0.2-0.8,0.3
		c-0.3,0.1-0.6,0.1-0.9,0.2s-0.5,0.1-0.7,0.1s-0.3,0-0.4,0c-0.3,0-0.6-0.1-0.7-0.2c-0.2-0.1-0.3-0.3-0.3-0.5c0-0.1,0-0.2,0-0.2
		c0-0.1,0.1-0.1,0.2-0.1c0,0,0.1,0,0.2,0s0.2,0,0.2,0s0.2,0,0.6,0c0.3,0,0.7-0.1,1-0.1s0.7-0.1,1-0.3s0.4-0.3,0.4-0.4
		c0,0-0.2-0.1-0.5-0.3s-0.8-0.4-1.4-0.8c-0.5-0.3-0.8-0.6-1-0.9s-0.3-0.7-0.3-1.2c0-0.3,0.1-0.6,0.2-0.8s0.3-0.4,0.6-0.5
		c0.2-0.1,0.5-0.2,0.8-0.3s0.6-0.1,1-0.1c0,0,0.1,0,0.3,0s0.3,0.1,0.5,0.1c0.2,0.1,0.3,0.1,0.5,0.2c0.1,0.1,0.2,0.2,0.2,0.3
		c0,0,0,0.1-0.1,0.1c-0.1,0.1-0.1,0.2-0.3,0.3c0,0-0.1,0-0.2-0.1c-0.1,0-0.2-0.1-0.4-0.1c-0.1,0-0.3-0.1-0.4-0.1s-0.3,0-0.4,0
		c-0.4,0-0.7,0.1-0.9,0.2c-0.2,0.1-0.4,0.4-0.4,0.8c0,0.2,0.1,0.4,0.2,0.5c0.2,0.2,0.3,0.3,0.6,0.5c0.2,0.1,0.5,0.3,0.8,0.4
		c0.3,0.1,0.5,0.3,0.8,0.5c0.2,0.2,0.4,0.3,0.6,0.5C280.7,62.1,280.8,62.3,280.8,62.6z"/>
	<path class="st0" d="M285.1,54.8c0,0.1-0.1,0.4-0.2,0.9c-0.1,0.4-0.3,0.9-0.4,1.5c-0.2,0.5-0.3,1.1-0.4,1.6s-0.2,0.9-0.2,1.2
		s0,0.6,0,0.8s0.1,0.4,0.1,0.5s0.1,0.2,0.1,0.3s0,0.2,0,0.3c0,0.3-0.1,0.4-0.4,0.4c0,0-0.1,0-0.1-0.1c-0.3-0.5-0.5-0.9-0.6-1.4
		s-0.1-0.8-0.1-1.1s0-0.7,0.1-1.2s0.2-1,0.3-1.6c0.1-0.6,0.3-1.1,0.5-1.7c0.2-0.6,0.3-1,0.5-1.4l0.1-0.1c0,0,0.1,0,0.2,0
		s0.2,0,0.2,0.1s0.1,0.2,0.1,0.3s0.1,0.2,0.1,0.3C285.1,54.7,285.1,54.8,285.1,54.8z M285.8,64.7c0,0.2,0,0.3-0.1,0.5
		s-0.2,0.3-0.4,0.3c-0.2,0-0.4-0.1-0.5-0.3c-0.2-0.2-0.3-0.4-0.3-0.7c0-0.1,0-0.2,0.1-0.3c0-0.1,0.1-0.2,0.3-0.2c0.1,0,0.1,0,0.2,0
		s0.2,0,0.3,0.1c0.1,0.1,0.2,0.1,0.3,0.2C285.8,64.4,285.8,64.6,285.8,64.7z"/>
	<path class="st0" d="M110,81.3c0,0,0.2,0,0.3,0c0.2,0,0.3,0.1,0.3,0.2c0,0,0,0.1-0.1,0.2s-0.1,0.1-0.2,0.2
		c-0.3,0.3-0.6,0.7-0.8,1.2s-0.5,1-0.7,1.5s-0.4,1-0.5,1.5s-0.2,0.9-0.2,1.3s0,0.8,0.1,1.2c0.1,0.4,0.2,0.8,0.3,1.1
		c0.1,0.3,0.3,0.6,0.5,0.8c0.2,0.2,0.4,0.3,0.6,0.3c0,0,0.1,0,0.2-0.1s0.1-0.1,0.2-0.1s0.1,0.1,0.2,0.2c0,0.1,0.1,0.2,0.1,0.3
		c0,0.1,0,0.1-0.1,0.2s-0.2,0.1-0.3,0.2c-0.1,0-0.2,0.1-0.3,0.1c-0.1,0-0.2,0-0.2,0c-0.2,0-0.4-0.1-0.6-0.3
		c-0.2-0.2-0.4-0.4-0.6-0.7c-0.2-0.3-0.3-0.7-0.5-1.2c-0.1-0.5-0.2-1.1-0.2-1.7c0-0.8,0.1-1.5,0.3-2.3c0.2-0.7,0.4-1.4,0.7-2
		c0.3-0.6,0.6-1,0.9-1.4S109.7,81.3,110,81.3z"/>
	<path class="st0" d="M118.9,82.2C119,82.2,119,82.3,118.9,82.2c0.1,0.2,0,0.3-0.1,0.4c-0.1,0.1-0.2,0.2-0.2,0.4c0,0,0,0.1,0,0.3
		c0,0.2,0,0.4,0,0.6s0,0.5,0,0.7s0,0.3,0,0.4v2.2c0,0,0,0.1,0,0.3s0,0.4-0.1,0.7c0,0.3-0.1,0.5-0.1,0.8s-0.1,0.5-0.1,0.7
		c0,0.1-0.1,0.1-0.1,0.1s-0.1,0.1-0.2,0.1s-0.2,0-0.2,0h-0.1c-0.2,0-0.3-0.1-0.5-0.3c-0.2-0.2-0.4-0.4-0.5-0.6
		c-0.2-0.2-0.3-0.5-0.4-0.7s-0.2-0.3-0.2-0.4c-0.1,0.2-0.1,0.4-0.2,0.6s-0.2,0.4-0.2,0.6c-0.1,0.2-0.2,0.3-0.3,0.4
		c-0.1,0.1-0.2,0.2-0.4,0.2c-0.2,0-0.4-0.1-0.6-0.3s-0.4-0.4-0.6-0.7c-0.2-0.3-0.4-0.6-0.6-0.9s-0.3-0.7-0.5-1
		c-0.1-0.3-0.2-0.6-0.3-0.9c-0.1-0.3-0.1-0.5-0.1-0.7c0-0.1,0-0.1,0.1-0.2s0.1-0.1,0.2-0.1c0.2,0,0.4,0.1,0.4,0.2
		c0,0,0.1,0.1,0.1,0.4c0.1,0.2,0.2,0.5,0.3,0.9c0.1,0.3,0.3,0.7,0.5,1c0.2,0.4,0.4,0.7,0.7,0.9c0.1-0.2,0.2-0.4,0.3-0.6
		c0.1-0.2,0.1-0.5,0.2-0.7c0-0.2,0.1-0.4,0.1-0.6s0-0.3,0-0.5c0-0.1-0.1-0.2-0.1-0.4c0-0.1,0-0.2,0-0.3s0-0.2,0-0.3
		c0-0.4,0.1-0.5,0.4-0.5c0.2,0,0.4,0.1,0.5,0.2s0.2,0.3,0.3,0.5c0.1,0.2,0.1,0.4,0.1,0.5c0,0.2,0,0.3,0.1,0.4
		c0.1,0.3,0.2,0.7,0.3,0.9c0.1,0.3,0.3,0.6,0.5,0.9c0.1,0,0.1-0.1,0.1-0.2s0.1-0.2,0.1-0.3c0-0.1,0-0.2,0-0.3s0-0.2,0-0.2v-4.4
		c0-0.1,0-0.2,0.1-0.2c0.1-0.1,0.2-0.1,0.3-0.2c0.1-0.1,0.2-0.1,0.3-0.1c0.1,0,0.2-0.1,0.2-0.1c0.1,0,0.1,0,0.2,0.1
		S118.8,82.1,118.9,82.2z"/>
	<path class="st0" d="M126.8,89.5L126.8,89.5c0,0.2-0.1,0.3-0.2,0.5c0,0.1-0.1,0.2-0.3,0.3c-0.1,0.1-0.3,0.3-0.6,0.4
		c-0.2,0.1-0.6,0.2-0.9,0.4c-0.4,0.1-0.8,0.2-1.3,0.2c-0.3,0-0.7-0.1-1-0.2c-0.3-0.2-0.6-0.4-0.9-0.7c-0.2-0.3-0.5-0.7-0.6-1.1
		c-0.2-0.4-0.2-1-0.2-1.6s0.1-1.1,0.2-1.6s0.3-0.9,0.6-1.3c0.2-0.4,0.5-0.7,0.8-0.9c0.3-0.2,0.5-0.3,0.8-0.3c0.2,0,0.5,0,0.7,0.1
		s0.5,0.2,0.7,0.4c0.2,0.1,0.4,0.3,0.5,0.5s0.2,0.4,0.2,0.6s-0.1,0.4-0.3,0.7c-0.2,0.2-0.4,0.5-0.7,0.6c-0.3,0.2-0.6,0.4-0.8,0.5
		c-0.3,0.1-0.5,0.2-0.7,0.2c-0.1,0-0.2,0-0.2-0.1c-0.1-0.1-0.1-0.2-0.1-0.3c0-0.2,0.1-0.4,0.3-0.5c0.2-0.1,0.4-0.2,0.6-0.3
		c0.2-0.1,0.4-0.2,0.6-0.3c0.2-0.1,0.3-0.3,0.3-0.6c0,0,0-0.1-0.1-0.2s-0.3-0.2-0.6-0.2c-0.1,0-0.3,0.1-0.5,0.3
		c-0.2,0.2-0.4,0.4-0.5,0.7c-0.2,0.3-0.3,0.6-0.4,1S122,87.5,122,88c0,0.4,0.1,0.7,0.2,1s0.3,0.6,0.5,0.8s0.5,0.4,0.8,0.5
		s0.6,0.2,0.9,0.2c0.2,0,0.5,0,0.7-0.1c0.3-0.1,0.5-0.2,0.7-0.3c0.2-0.1,0.4-0.2,0.6-0.3c0.2-0.1,0.3-0.1,0.3-0.1s0.1,0,0.1,0.1
		C126.8,89.5,126.8,89.5,126.8,89.5z"/>
	<path class="st0" d="M130.1,85.3c0,0.3-0.1,0.5-0.2,0.7c-0.1,0.2-0.2,0.4-0.4,0.6c-0.1,0.2-0.3,0.3-0.4,0.4
		c-0.1,0.1-0.2,0.1-0.3,0.1c0,0-0.1,0-0.2-0.1c-0.1-0.1-0.1-0.1-0.1-0.2c0,0,0-0.1,0.1-0.2s0.1-0.2,0.2-0.3c0.1-0.1,0.2-0.3,0.2-0.4
		c0.1-0.2,0.1-0.3,0.1-0.5c0-0.4,0-0.7-0.1-1s-0.2-0.6-0.3-0.9c0,0,0-0.1-0.1-0.2c0-0.1,0-0.1,0-0.1c0-0.1,0-0.2,0.1-0.2
		s0.1,0,0.2,0c0.1,0,0.2,0.1,0.4,0.3c0.1,0.2,0.3,0.4,0.4,0.6c0.1,0.2,0.2,0.5,0.3,0.8S130.1,85.1,130.1,85.3z"/>
	<path class="st0" d="M137,85.2c0,0.1,0,0.2-0.1,0.3c-0.1,0.1-0.2,0.1-0.3,0.2c-0.1,0-0.2,0.1-0.4,0.1c-0.1,0-0.2,0-0.3,0
		c-0.2,0-0.4,0-0.4,0s-0.1,0-0.2,0c-0.4,0-0.7,0-0.9,0.1s-0.4,0.2-0.5,0.3c-0.1,0.1-0.2,0.3-0.2,0.5s-0.1,0.4-0.1,0.7
		c0,0.5,0,0.8,0.1,1.1c0,0.3,0.1,0.5,0.1,0.7s0.1,0.3,0.1,0.4s0.1,0.2,0.1,0.3c0,0.1-0.1,0.2-0.2,0.4c-0.1,0.1-0.2,0.2-0.3,0.2
		c-0.2,0-0.3-0.2-0.5-0.5c-0.1-0.3-0.3-0.7-0.4-1.1c-0.1-0.4-0.2-0.9-0.2-1.3s-0.1-0.7-0.1-1c0-0.2,0-0.5,0.1-0.7
		c0-0.2,0.1-0.4,0.2-0.6s0.2-0.3,0.2-0.4c0.1-0.1,0.2-0.2,0.3-0.2s0.1,0,0.2,0.1c0,0.1,0.1,0.1,0.1,0.2s0.1,0.1,0.1,0.2
		s0.1,0.1,0.1,0.1c0.1,0,0.3-0.1,0.6-0.2s0.7-0.2,1.1-0.2c0.4,0,0.7,0,0.9,0s0.4,0.1,0.6,0.1c0,0,0.1,0,0.2,0.1
		C136.9,85,137,85,137,85.2z"/>
	<path class="st0" d="M144.8,89.5L144.8,89.5c0,0.2-0.1,0.3-0.2,0.5c0,0.1-0.1,0.2-0.3,0.3c-0.1,0.1-0.3,0.3-0.6,0.4
		c-0.2,0.1-0.6,0.2-0.9,0.4c-0.4,0.1-0.8,0.2-1.3,0.2c-0.3,0-0.7-0.1-1-0.2c-0.3-0.2-0.6-0.4-0.9-0.7c-0.2-0.3-0.5-0.7-0.6-1.1
		s-0.2-1-0.2-1.6s0.1-1.1,0.2-1.6c0.1-0.5,0.3-0.9,0.6-1.3c0.2-0.4,0.5-0.7,0.8-0.9c0.3-0.2,0.6-0.3,0.8-0.3s0.5,0,0.7,0.1
		s0.5,0.2,0.7,0.4s0.4,0.3,0.5,0.5s0.2,0.4,0.2,0.6s-0.1,0.4-0.3,0.7c-0.2,0.2-0.4,0.5-0.7,0.6c-0.3,0.2-0.6,0.4-0.8,0.5
		s-0.5,0.2-0.7,0.2c-0.1,0-0.2,0-0.2-0.1c-0.1-0.1-0.1-0.2-0.1-0.3c0-0.2,0.1-0.4,0.3-0.5s0.4-0.2,0.6-0.3c0.2-0.1,0.4-0.2,0.6-0.3
		c0.2-0.1,0.3-0.3,0.3-0.6c0,0,0-0.1-0.1-0.2s-0.3-0.2-0.6-0.2c-0.1,0-0.3,0.1-0.5,0.3c-0.2,0.2-0.4,0.4-0.6,0.7
		c-0.2,0.3-0.3,0.6-0.4,1c-0.1,0.4-0.2,0.8-0.2,1.3c0,0.4,0.1,0.7,0.2,1c0.1,0.3,0.3,0.6,0.5,0.8c0.2,0.2,0.5,0.4,0.8,0.5
		s0.6,0.2,0.9,0.2c0.2,0,0.5,0,0.7-0.1c0.3-0.1,0.5-0.2,0.7-0.3c0.2-0.1,0.4-0.2,0.6-0.3c0.2-0.1,0.3-0.1,0.3-0.1s0.1,0,0.1,0.1
		C144.8,89.5,144.8,89.5,144.8,89.5z"/>
	<path class="st0" d="M162.6,85.5c0,0.4-0.1,0.7-0.3,1.1s-0.5,0.7-0.8,1s-0.6,0.6-1,0.8c-0.4,0.3-0.7,0.5-1,0.7s-0.5,0.4-0.7,0.5
		s-0.3,0.2-0.3,0.3c0,0.2,0,0.5,0.1,0.8s0.1,0.7,0.2,1.1c0.1,0.4,0.1,0.8,0.2,1.2c0.1,0.4,0.1,0.8,0.1,1.2c0,0,0,0.1,0,0.2
		s0.1,0.2,0.1,0.4c0,0.1,0.1,0.3,0.1,0.4s0,0.2,0,0.2c0,0.1,0,0.2,0,0.3c0,0.1,0,0.2-0.1,0.4c0,0.1-0.1,0.2-0.2,0.3
		c-0.1,0.1-0.2,0.1-0.3,0.1c-0.2,0-0.3-0.1-0.4-0.2c-0.1-0.1-0.1-0.3-0.1-0.4v-0.1v-0.1c0-0.2-0.1-0.6-0.2-1.3
		c-0.1-0.7-0.2-1.5-0.4-2.5s-0.3-2-0.4-3.1c-0.1-1.1-0.2-2.2-0.2-3.2c0-0.1,0-0.2,0-0.3c0-0.1,0-0.2,0-0.3c-0.1,0-0.4,0.1-0.6,0.2
		c-0.3,0.1-0.6,0.3-0.8,0.4c-0.3,0.2-0.5,0.3-0.7,0.5s-0.3,0.3-0.3,0.5h-0.2c0,0-0.1,0-0.2-0.1c-0.1-0.1-0.1-0.1-0.2-0.2
		c-0.1-0.1-0.1-0.1-0.1-0.2s-0.1-0.1-0.1-0.2c0-0.3,0.2-0.6,0.5-0.9c0.4-0.3,0.8-0.5,1.4-0.7c0.6-0.2,1.2-0.4,1.8-0.5
		c0.7-0.1,1.3-0.2,1.9-0.2c0.6,0,1.1,0.1,1.4,0.2c0.4,0.1,0.7,0.3,0.9,0.5s0.4,0.4,0.5,0.6C162.5,85.2,162.6,85.4,162.6,85.5z
		 M161.5,85.4c0-0.1-0.2-0.3-0.5-0.5c-0.4-0.2-0.8-0.2-1.3-0.2c-0.4,0-0.8,0-1,0s-0.3,0.1-0.4,0.1c0,0.2-0.1,0.5-0.1,0.8s0,0.7,0,1
		c0,0.4,0,0.7,0,1s0,0.6,0.1,0.8c0.2-0.1,0.5-0.3,0.8-0.5c0.4-0.2,0.7-0.5,1.1-0.8c0.4-0.3,0.7-0.6,0.9-0.9
		C161.4,86,161.5,85.7,161.5,85.4z"/>
	<path class="st0" d="M169,85.2c0,0.1,0,0.2-0.1,0.3c-0.1,0.1-0.2,0.1-0.3,0.2c-0.1,0-0.2,0.1-0.4,0.1c-0.1,0-0.2,0-0.3,0
		c-0.2,0-0.4,0-0.4,0s-0.1,0-0.2,0c-0.4,0-0.7,0-0.9,0.1s-0.4,0.2-0.5,0.3c-0.1,0.1-0.2,0.3-0.2,0.5s-0.1,0.4-0.1,0.7
		c0,0.5,0,0.8,0.1,1.1c0,0.3,0.1,0.5,0.1,0.7s0.1,0.3,0.1,0.4s0.1,0.2,0.1,0.3c0,0.1-0.1,0.2-0.2,0.4c-0.1,0.1-0.2,0.2-0.3,0.2
		c-0.2,0-0.3-0.2-0.5-0.5c-0.1-0.3-0.3-0.7-0.4-1.1c-0.1-0.4-0.2-0.9-0.2-1.3s-0.1-0.7-0.1-1c0-0.2,0-0.5,0.1-0.7
		c0-0.2,0.1-0.4,0.2-0.6s0.2-0.3,0.2-0.4c0.1-0.1,0.2-0.2,0.3-0.2s0.1,0,0.2,0.1c0,0.1,0.1,0.1,0.1,0.2s0.1,0.1,0.1,0.2
		s0.1,0.1,0.1,0.1c0.1,0,0.3-0.1,0.6-0.2s0.7-0.2,1.1-0.2c0.4,0,0.7,0,0.9,0s0.4,0.1,0.6,0.1c0,0,0.1,0,0.2,0.1
		C169,85,169,85,169,85.2z"/>
	<path class="st0" d="M176.9,89.5L176.9,89.5c0,0.2-0.1,0.3-0.2,0.5c0,0.1-0.1,0.2-0.3,0.3c-0.1,0.1-0.3,0.3-0.6,0.4
		c-0.2,0.1-0.6,0.2-0.9,0.4c-0.4,0.1-0.8,0.2-1.3,0.2c-0.3,0-0.7-0.1-1-0.2c-0.3-0.2-0.6-0.4-0.9-0.7c-0.2-0.3-0.5-0.7-0.6-1.1
		s-0.2-1-0.2-1.6s0.1-1.1,0.2-1.6c0.1-0.5,0.3-0.9,0.6-1.3c0.2-0.4,0.5-0.7,0.8-0.9c0.3-0.2,0.6-0.3,0.8-0.3s0.5,0,0.7,0.1
		s0.5,0.2,0.7,0.4s0.4,0.3,0.5,0.5s0.2,0.4,0.2,0.6s-0.1,0.4-0.3,0.7c-0.2,0.2-0.4,0.5-0.7,0.6c-0.3,0.2-0.6,0.4-0.8,0.5
		s-0.5,0.2-0.7,0.2c-0.1,0-0.2,0-0.2-0.1c-0.1-0.1-0.1-0.2-0.1-0.3c0-0.2,0.1-0.4,0.3-0.5s0.4-0.2,0.6-0.3c0.2-0.1,0.4-0.2,0.6-0.3
		c0.2-0.1,0.3-0.3,0.3-0.6c0,0,0-0.1-0.1-0.2s-0.3-0.2-0.6-0.2c-0.1,0-0.3,0.1-0.5,0.3c-0.2,0.2-0.4,0.4-0.6,0.7
		c-0.2,0.3-0.3,0.6-0.4,1c-0.1,0.4-0.2,0.8-0.2,1.3c0,0.4,0.1,0.7,0.2,1c0.1,0.3,0.3,0.6,0.5,0.8c0.2,0.2,0.5,0.4,0.8,0.5
		s0.6,0.2,0.9,0.2c0.2,0,0.5,0,0.7-0.1c0.3-0.1,0.5-0.2,0.7-0.3c0.2-0.1,0.4-0.2,0.6-0.3c0.2-0.1,0.3-0.1,0.3-0.1s0.1,0,0.1,0.1
		C176.8,89.5,176.8,89.5,176.9,89.5z"/>
	<path class="st0" d="M184.3,81.9c-0.2,0.2-0.5,0.4-0.8,0.6c-0.4,0.2-0.7,0.4-1.1,0.6c-0.4,0.2-0.7,0.3-0.9,0.5
		c-0.3,0.1-0.4,0.2-0.4,0.3c0,0,0,0.2,0.1,0.4c0.1,0.2,0.1,0.5,0.2,0.8c0.1,0.3,0.2,0.6,0.3,0.9s0.2,0.6,0.2,0.9
		c0,0.1,0.1,0.3,0.1,0.6s0.1,0.5,0.1,0.7s0.1,0.4,0.1,0.6s0,0.3,0,0.3c0,0.2,0,0.4-0.1,0.7c-0.1,0.2-0.2,0.4-0.4,0.4
		c-0.1,0-0.2,0-0.2-0.1c-0.1-0.1-0.1-0.2-0.2-0.3s-0.1-0.2-0.1-0.3s0-0.2,0-0.2v-0.1c0-0.1,0-0.1,0-0.2c0-0.3,0-0.7-0.1-1.2
		c0-0.2-0.1-0.4-0.2-0.7c-0.1-0.3-0.2-0.7-0.3-1c-0.1-0.4-0.2-0.9-0.4-1.3c-0.1-0.2-0.1-0.3-0.1-0.3c-0.1,0-0.3,0.1-0.5,0.2
		s-0.5,0.3-0.8,0.5s-0.6,0.4-1,0.6c-0.3,0.2-0.7,0.4-0.9,0.6c-0.3,0.2-0.5,0.3-0.8,0.5c-0.2,0.1-0.3,0.2-0.4,0.2
		c-0.2,0-0.3-0.1-0.5-0.2c-0.1-0.1-0.2-0.3-0.2-0.4s0.1-0.2,0.4-0.4c0.2-0.2,0.5-0.4,0.9-0.6s0.7-0.4,1.2-0.6
		c0.4-0.2,0.8-0.4,1.2-0.6s0.8-0.4,1.3-0.6c-0.1-0.7-0.2-1.3-0.3-1.8s-0.1-0.9-0.2-1.3c-0.1-0.4-0.1-0.6-0.1-0.6
		c0-0.2,0-0.3,0.1-0.4s0.2-0.1,0.3-0.1c0.2,0,0.3,0.1,0.3,0.3c0.2,0.8,0.3,1.5,0.5,2.1c0.1,0.6,0.3,1.1,0.4,1.5
		c0.1,0,0.4-0.1,0.7-0.3c0.3-0.1,0.7-0.3,1-0.5c0.4-0.2,0.7-0.3,1-0.4S184.2,82,184.3,81.9c0,0.1,0,0.1,0.1,0.2
		C184.2,81.8,184.2,81.9,184.3,81.9z"/>
	<path class="st0" d="M191.3,81.9c-0.2,0.2-0.5,0.4-0.8,0.6c-0.4,0.2-0.7,0.4-1.1,0.6c-0.4,0.2-0.7,0.3-0.9,0.5
		c-0.3,0.1-0.4,0.2-0.4,0.3c0,0,0,0.2,0.1,0.4c0.1,0.2,0.1,0.5,0.2,0.8c0.1,0.3,0.2,0.6,0.3,0.9s0.2,0.6,0.2,0.9
		c0,0.1,0.1,0.3,0.1,0.6s0.1,0.5,0.1,0.7s0.1,0.4,0.1,0.6s0,0.3,0,0.3c0,0.2,0,0.4-0.1,0.7c-0.1,0.2-0.2,0.4-0.4,0.4
		c-0.1,0-0.2,0-0.2-0.1c-0.1-0.1-0.1-0.2-0.2-0.3s-0.1-0.2-0.1-0.3s0-0.2,0-0.2v-0.1c0-0.1,0-0.1,0-0.2c0-0.3,0-0.7-0.1-1.2
		c0-0.2-0.1-0.4-0.2-0.7c-0.1-0.3-0.2-0.7-0.3-1c-0.1-0.4-0.2-0.9-0.4-1.3c-0.1-0.2-0.1-0.3-0.1-0.3c-0.1,0-0.3,0.1-0.5,0.2
		s-0.5,0.3-0.8,0.5s-0.6,0.4-1,0.6c-0.3,0.2-0.7,0.4-0.9,0.6c-0.3,0.2-0.5,0.3-0.8,0.5c-0.2,0.1-0.3,0.2-0.4,0.2
		c-0.2,0-0.3-0.1-0.5-0.2c-0.1-0.1-0.2-0.3-0.2-0.4s0.1-0.2,0.4-0.4c0.2-0.2,0.5-0.4,0.9-0.6s0.7-0.4,1.2-0.6
		c0.4-0.2,0.8-0.4,1.2-0.6s0.8-0.4,1.3-0.6c-0.1-0.7-0.2-1.3-0.3-1.8s-0.1-0.9-0.2-1.3c-0.1-0.4-0.1-0.6-0.1-0.6
		c0-0.2,0-0.3,0.1-0.4s0.2-0.1,0.3-0.1c0.2,0,0.3,0.1,0.3,0.3c0.2,0.8,0.3,1.5,0.5,2.1c0.1,0.6,0.3,1.1,0.4,1.5
		c0.1,0,0.4-0.1,0.7-0.3c0.3-0.1,0.7-0.3,1-0.5c0.4-0.2,0.7-0.3,1-0.4S191.2,82,191.3,81.9c0,0.1,0,0.1,0.1,0.2
		C191.2,81.8,191.2,81.9,191.3,81.9z"/>
	<path class="st0" d="M197.1,81.6c-0.2,1-0.4,2-0.5,2.9c-0.1,0.4-0.1,0.8-0.2,1.2c-0.1,0.4-0.1,0.9-0.2,1.3
		c-0.1,0.4-0.1,0.8-0.2,1.2c-0.1,0.4-0.1,0.7-0.1,1c-0.1,0.5-0.1,1-0.1,1.6s-0.1,1.2-0.1,1.7c0,0.6,0,1.3,0,1.9c0,0.1,0,0.3,0,0.4
		c0,0.2,0,0.3,0,0.5c0,0.1,0,0.3-0.1,0.4s-0.2,0.2-0.3,0.2s-0.2-0.1-0.3-0.3c-0.1-0.2-0.1-0.4-0.2-0.6c0-0.2-0.1-0.5-0.1-0.7
		s0-0.4,0-0.5s0-0.3,0-0.4c0-0.2,0-0.4,0-0.7s0.1-0.8,0.1-1.3s0.1-1.2,0.2-2.1c0,0-0.1-0.1-0.3-0.2s-0.4-0.3-0.7-0.5
		s-0.6-0.4-0.9-0.6s-0.6-0.5-0.8-0.7c0,0-0.1-0.1-0.1-0.2c-0.1-0.1-0.1-0.2-0.1-0.4c0-0.1,0-0.2,0.1-0.2c0.1-0.1,0.2-0.1,0.2-0.1
		c0.1,0,0.1,0,0.2,0.1c0.3,0.3,0.7,0.6,1.2,1c0.4,0.4,0.9,0.7,1.3,1c0-0.3,0.1-0.7,0.2-1.2s0.2-1.1,0.3-1.7s0.2-1.2,0.3-1.8
		c0.1-0.6,0.2-1.1,0.2-1.4c0-0.1,0-0.2,0-0.3c0-0.1,0.1-0.3,0.1-0.4s0.1-0.2,0.2-0.3c0.1-0.1,0.2-0.1,0.2-0.1s0.1,0,0.3,0.1
		C197,81.1,197.1,81.3,197.1,81.6z"/>
	<path class="st0" d="M218.2,87.3c0,0.3-0.1,0.6-0.4,1c-0.2,0.4-0.6,0.8-1,1.1c-0.4,0.4-0.9,0.7-1.4,0.9c-0.5,0.3-1.1,0.4-1.7,0.4
		c-0.3,0-0.5,0-0.8-0.1s-0.6-0.2-0.9-0.4c-0.3-0.2-0.5-0.4-0.7-0.6s-0.4-0.5-0.5-0.8c-0.1,0.1-0.2,0.2-0.3,0.4
		c-0.1,0.2-0.3,0.4-0.4,0.6c-0.1,0.2-0.3,0.4-0.5,0.6s-0.4,0.2-0.5,0.2s-0.3-0.1-0.5-0.3c-0.1-0.2-0.2-0.4-0.3-0.7
		c-0.1-0.2-0.1-0.5-0.2-0.7s0-0.3,0-0.4c0-0.2,0.1-0.5,0.2-1c0.1-0.5,0.3-1,0.5-1.5s0.5-1,0.8-1.4s0.7-0.6,1.1-0.6
		c0.2,0,0.3,0.1,0.3,0.2c0.1,0.1,0.1,0.3,0.1,0.4v0.7c0.1,0.1,0.2,0.1,0.2,0.1c0.1,0,0.2,0.1,0.2,0.1c0.1,0,0.1,0.1,0.2,0.2
		c0,0.1,0.1,0.2,0.1,0.4c0,0.1,0,0.2,0,0.3c0,0.1,0,0.2,0,0.2c0,0.4,0,0.8,0.1,1.1c0.1,0.4,0.2,0.7,0.4,1s0.4,0.5,0.7,0.7
		s0.7,0.3,1.2,0.3c0.6,0,1.2-0.1,1.6-0.4s0.8-0.6,1.1-0.9s0.5-0.6,0.7-0.9s0.3-0.4,0.4-0.4C218.1,87,218.2,87.1,218.2,87.3z
		 M210.5,86.3c0-0.1,0-0.1,0-0.2s0-0.1,0-0.1c0-0.1,0-0.1,0-0.2c0,0,0-0.1,0-0.2v-0.1c0,0,0,0,0-0.1c-0.1,0-0.3,0.2-0.4,0.4
		c-0.1,0.2-0.3,0.5-0.4,0.8c-0.1,0.3-0.2,0.6-0.3,0.9s-0.1,0.5-0.1,0.7c0,0.1,0,0.3,0.1,0.5s0.1,0.4,0.2,0.5c0.2-0.5,0.5-1,0.7-1.5
		C210.4,87.3,210.5,86.8,210.5,86.3z"/>
	<path class="st0" d="M223.9,89.9c0,0.2-0.1,0.3-0.2,0.3c-0.1,0.1-0.2,0.1-0.2,0.2c0,0,0,0.1,0.1,0.2c0.1,0.2,0.1,0.4,0.2,0.5
		c0.1,0.4,0.2,0.7,0.3,1s0.1,0.6,0.2,0.8c0.1,0.2,0.1,0.5,0.1,0.7s0,0.5,0,0.8s-0.1,0.6-0.2,0.9s-0.2,0.6-0.4,0.9
		c-0.2,0.2-0.4,0.5-0.7,0.6c-0.3,0.2-0.6,0.2-0.9,0.2c-0.5,0-1-0.1-1.3-0.3s-0.6-0.5-0.7-0.7c-0.2-0.3-0.3-0.6-0.3-0.8
		c0-0.3-0.1-0.5-0.1-0.5c0-0.5,0.1-1.1,0.4-1.6c0.3-0.5,0.6-1,0.9-1.5c0.3-0.4,0.6-0.8,0.9-1.1s0.4-0.5,0.4-0.5l-0.2-0.7
		c-0.1,0.2-0.3,0.4-0.4,0.6c-0.1,0.2-0.2,0.4-0.4,0.6c-0.1,0.2-0.3,0.3-0.4,0.5c-0.2,0.1-0.4,0.2-0.6,0.2c-0.3,0-0.5-0.1-0.8-0.2
		c-0.3-0.2-0.5-0.4-0.7-0.7c-0.2-0.3-0.4-0.7-0.5-1.2s-0.2-1-0.2-1.6c0-0.3,0.1-0.8,0.2-1.3c0.1-0.5,0.3-1,0.5-1.5s0.5-0.9,0.8-1.2
		s0.7-0.5,1.2-0.5c0.2,0,0.5,0,0.7,0.1s0.3,0.2,0.3,0.3c0,0.1,0,0.2-0.1,0.3c0,0.1-0.1,0.1-0.2,0.2l-0.1-0.1c-0.1,0-0.1,0-0.2,0
		c-0.3,0-0.6,0.1-0.9,0.4c-0.3,0.3-0.5,0.6-0.6,1.1c-0.2,0.4-0.3,0.9-0.4,1.3c-0.1,0.5-0.1,0.9-0.1,1.2c0,0.7,0.1,1.3,0.4,1.7
		s0.5,0.6,0.8,0.6c0.1,0,0.3-0.1,0.4-0.3c0.2-0.2,0.3-0.4,0.4-0.7s0.3-0.5,0.4-0.7c0.1-0.2,0.2-0.4,0.2-0.4c0-0.1,0-0.3,0-0.5
		s0-0.3,0-0.5s0-0.4,0-0.6c0-0.4,0-0.7,0.1-1s0.2-0.4,0.4-0.4s0.4,0.1,0.5,0.2s0.2,0.3,0.2,0.5c0,0.1,0,0.3,0,0.5s0,0.4,0,0.5
		c0,0.2,0,0.3,0,0.4s0,0.2,0,0.2c0,0.1,0,0.2,0,0.4c0,0.2,0,0.3,0.1,0.5c0,0.2,0,0.3,0.1,0.5c0,0.1,0,0.2,0.1,0.3c0,0,0,0.1,0.1,0.2
		s0.1,0.2,0.1,0.2s0-0.1,0.1-0.1l0.1-0.1c0.1,0,0.1,0.1,0.2,0.3C223.9,89.8,223.9,89.9,223.9,89.9z M223.2,92.7
		c-0.1-0.2-0.1-0.5-0.2-0.7s-0.1-0.5-0.2-0.7c-0.2,0.3-0.5,0.6-0.7,0.9s-0.4,0.6-0.6,0.8c-0.2,0.3-0.3,0.6-0.4,0.9
		c-0.1,0.3-0.2,0.6-0.2,1c0,0.5,0.1,0.8,0.4,1.1c0.3,0.3,0.5,0.4,0.8,0.4s0.7-0.1,1-0.4s0.5-0.6,0.5-1.1c0-0.3,0-0.6,0-0.8
		s0-0.4-0.1-0.5c0-0.2-0.1-0.3-0.1-0.4C223.3,93.1,223.2,92.9,223.2,92.7z"/>
	<path class="st0" d="M227.1,81.7c0,0-0.1,0.1-0.2,0.2c-0.1,0.1-0.2,0.2-0.4,0.3c-0.1,0.1-0.3,0.2-0.4,0.3c-0.1,0.1-0.3,0.1-0.4,0.1
		c-0.1,0-0.1,0-0.2,0c-0.1,0-0.2,0-0.3-0.1c-0.1,0-0.2-0.1-0.3-0.2s-0.1-0.2-0.1-0.3c0-0.2,0.1-0.4,0.2-0.6s0.3-0.3,0.6-0.3
		c0,0,0.1,0,0.3,0.1c0.2,0,0.3,0.1,0.5,0.1c0.2,0.1,0.3,0.1,0.4,0.2C227,81.6,227.1,81.7,227.1,81.7z M227.8,90
		c0,0.1-0.1,0.2-0.2,0.3c-0.2,0.1-0.3,0.1-0.3,0.1c-0.1,0-0.3-0.1-0.4-0.3s-0.2-0.4-0.3-0.7c-0.1-0.2-0.2-0.5-0.2-0.7
		s-0.1-0.4-0.1-0.5s-0.1-0.3-0.2-0.5s-0.1-0.4-0.2-0.6c-0.1-0.2-0.1-0.4-0.2-0.5s-0.1-0.2-0.1-0.2c0-0.2,0-0.4,0.1-0.6
		s0.2-0.3,0.3-0.3s0.3,0.1,0.4,0.3c0.1,0.2,0.3,0.5,0.4,0.8s0.3,0.7,0.4,1s0.2,0.7,0.3,1.1c0.1,0.3,0.2,0.6,0.2,0.9
		C227.8,89.8,227.8,89.9,227.8,90z"/>
	<path class="st0" d="M232,91.5c-0.1,0.1-0.2,0.1-0.3,0.1s-0.3-0.1-0.4-0.4c-0.1-0.2-0.3-0.6-0.4-0.9s-0.3-0.8-0.4-1.2
		c-0.1-0.4-0.2-0.9-0.3-1.3s-0.2-0.7-0.2-1c-0.1-0.3-0.1-0.4-0.1-0.4c0-0.1,0-0.2-0.1-0.5s-0.1-0.6-0.2-1.2
		c-0.1-0.5-0.2-1.2-0.3-2.1c-0.1-0.8-0.2-1.9-0.3-3.1c0-0.1,0-0.3,0.1-0.5c0-0.2,0.1-0.3,0.3-0.3s0.4,0.1,0.5,0.4s0.2,0.6,0.3,1
		s0.1,0.8,0.1,1.3s0.1,0.8,0.1,1.2c0.1,0.5,0.1,0.9,0.2,1.3c0.1,0.4,0.1,0.8,0.2,1.1c0.1,0.4,0.1,0.8,0.2,1.2
		c0.1,0.4,0.2,0.9,0.3,1.4l0.9,3.7C232.1,91.3,232.1,91.4,232,91.5z"/>
	<path class="st0" d="M239.9,89.5L239.9,89.5c0,0.2-0.1,0.3-0.2,0.5c0,0.1-0.1,0.2-0.3,0.3c-0.1,0.1-0.3,0.3-0.6,0.4
		c-0.2,0.1-0.6,0.2-0.9,0.4c-0.4,0.1-0.8,0.2-1.3,0.2c-0.3,0-0.7-0.1-1-0.2c-0.3-0.2-0.6-0.4-0.9-0.7c-0.2-0.3-0.5-0.7-0.6-1.1
		s-0.2-1-0.2-1.6s0.1-1.1,0.2-1.6c0.1-0.5,0.3-0.9,0.6-1.3c0.2-0.4,0.5-0.7,0.8-0.9c0.3-0.2,0.6-0.3,0.8-0.3s0.5,0,0.7,0.1
		s0.5,0.2,0.7,0.4s0.4,0.3,0.5,0.5s0.2,0.4,0.2,0.6s-0.1,0.4-0.3,0.7c-0.2,0.2-0.4,0.5-0.7,0.6c-0.3,0.2-0.6,0.4-0.8,0.5
		s-0.5,0.2-0.7,0.2c-0.1,0-0.2,0-0.2-0.1c-0.1-0.1-0.1-0.2-0.1-0.3c0-0.2,0.1-0.4,0.3-0.5s0.4-0.2,0.6-0.3c0.2-0.1,0.4-0.2,0.6-0.3
		c0.2-0.1,0.3-0.3,0.3-0.6c0,0,0-0.1-0.1-0.2s-0.3-0.2-0.6-0.2c-0.1,0-0.3,0.1-0.5,0.3c-0.2,0.2-0.4,0.4-0.6,0.7
		c-0.2,0.3-0.3,0.6-0.4,1c-0.1,0.4-0.2,0.8-0.2,1.3c0,0.4,0.1,0.7,0.2,1c0.1,0.3,0.3,0.6,0.5,0.8c0.2,0.2,0.5,0.4,0.8,0.5
		s0.6,0.2,0.9,0.2c0.2,0,0.5,0,0.7-0.1c0.3-0.1,0.5-0.2,0.7-0.3c0.2-0.1,0.4-0.2,0.6-0.3c0.2-0.1,0.3-0.1,0.3-0.1s0.1,0,0.1,0.1
		C239.9,89.5,239.9,89.5,239.9,89.5z"/>
	<path class="st0" d="M245.8,86.8c0,0.7-0.1,1.4-0.4,2s-0.6,1.1-1,1.5s-0.8,0.7-1.2,1c-0.4,0.2-0.8,0.3-1.2,0.3c-0.1,0-0.2,0-0.3,0
		s-0.2-0.1-0.2-0.3c0,0,0-0.1,0-0.2s0.1-0.2,0.1-0.2s0.1,0,0.2,0c0.2,0,0.5-0.1,0.8-0.3c0.3-0.2,0.6-0.5,0.9-0.9
		c0.3-0.4,0.6-0.9,0.8-1.5s0.3-1.3,0.3-2.1c0-0.3,0-0.6-0.1-1s-0.2-0.7-0.3-1s-0.2-0.6-0.3-0.9c-0.1-0.2-0.2-0.4-0.3-0.5
		c0,0-0.1-0.1-0.1-0.2s0.1-0.2,0.2-0.3c0.1-0.1,0.2-0.2,0.3-0.2s0.2,0.1,0.4,0.3c0.2,0.2,0.4,0.5,0.6,0.8s0.3,0.8,0.5,1.4
		C245.8,85.3,245.8,86,245.8,86.8z"/>
</g>
<path class="st0" d="M53.7,64.2c0,1.5,0.9,3.1,2.5,3.6c1.9,0.6,3.9-0.5,4.6-2.3c0.6-1.8-0.5-3.7-2.4-4.4c-1.7-0.5-3.5,0.2-4.3,1.7
	c-22.8-12-30.3-24.2-20.4-54.6c0.3-1.1,0.8-2.3,1.2-3.3l4.3,7.9c0.2,0.3,0.5,0.4,0.9,0.2c0.3-0.2,0.4-0.5,0.2-0.8L35.2,3
	c-0.2-0.3-0.5-0.4-0.9-0.2l-9.6,4.9c-0.3,0.2-0.4,0.5-0.2,0.8c0.1,0.2,0.3,0.3,0.4,0.3s0.3,0,0.5-0.1l8.2-4.1
	c-0.5,1.2-0.9,2.1-1.2,3.2C22.2,38.7,30.1,51.9,53.7,64.2z M55.3,63.9c0.3-1,1.6-1.8,2.7-1.4c1.1,0.3,1.8,1.6,1.4,2.6
	c-0.3,1-1.6,1.8-2.7,1.4C55.6,66.2,54.9,65,55.3,63.9z"/>
</svg>
