<?xml version="1.0" encoding="utf-8"?>
<!-- Generator: Adobe Illustrator 22.1.0, SVG Export Plug-In . SVG Version: 6.00 Build 0)  -->
<svg version="1.1" id="Layer_1" xmlns="http://www.w3.org/2000/svg" xmlns:xlink="http://www.w3.org/1999/xlink" x="0px" y="0px"
	 viewBox="0 0 217 121" style="enable-background:new 0 0 217 121;" xml:space="preserve">
<style type="text/css">
	.st0{fill:#828282;}
</style>
<path class="st0" d="M204,51.4c1-1.1,1.3-2.9,0.4-4.4c-1.1-1.7-3.3-2.1-5-1.2c-1.6,1-2,3.1-1,4.9c1,1.5,2.8,2.1,4.4,1.5
	c9.6,23.9,7.4,38.1-19.8,54.8c-0.9,0.6-2.1,1.2-3.1,1.7l1.8-8.8c0-0.4-0.1-0.6-0.6-0.7c-0.4,0-0.6,0.1-0.7,0.5l-2.1,10.3
	c0,0.4,0.1,0.6,0.6,0.7l10.5,2.5c0.4,0,0.6-0.1,0.7-0.5c0.1-0.2,0-0.4-0.1-0.5s-0.2-0.2-0.4-0.2l-8.9-2.2c1.2-0.6,2-1,3-1.7
	C211.5,91.2,214,76,204,51.4z M202.6,50.6c-0.9,0.6-2.4,0.3-3-0.7c-0.6-0.9-0.3-2.4,0.6-2.9c0.9-0.6,2.4-0.3,3,0.7
	C203.8,48.6,203.6,50,202.6,50.6z"/>
<g>
	<g>
		<path class="st0" d="M83.8,14.2c-0.2,0.2-0.5,0.4-0.8,0.6c-0.4,0.2-0.7,0.4-1.1,0.6c-0.4,0.2-0.7,0.3-0.9,0.5
			c-0.3,0.1-0.4,0.2-0.4,0.3s0,0.2,0.1,0.4c0.1,0.2,0.1,0.5,0.2,0.8c0.1,0.3,0.2,0.6,0.3,0.9c0.1,0.3,0.2,0.6,0.2,0.9
			c0,0.1,0.1,0.3,0.1,0.6c0,0.3,0.1,0.5,0.1,0.7s0.1,0.4,0.1,0.6s0,0.3,0,0.3c0,0.2,0,0.4-0.1,0.7c-0.1,0.2-0.2,0.4-0.4,0.4
			c-0.1,0-0.2,0-0.2-0.1c-0.1-0.1-0.1-0.2-0.2-0.3c-0.1-0.2-0.1-0.3-0.1-0.4s0-0.2,0-0.2v-0.1c0-0.1,0-0.1,0-0.2
			c0-0.3,0-0.7-0.1-1.2c0-0.2-0.1-0.4-0.2-0.7c-0.1-0.3-0.2-0.7-0.3-1c-0.1-0.4-0.2-0.9-0.4-1.3c-0.1-0.2-0.1-0.3-0.1-0.3
			c-0.1,0-0.3,0.1-0.5,0.2c-0.2,0.1-0.5,0.3-0.8,0.5c-0.3,0.2-0.6,0.4-1,0.6c-0.3,0.2-0.7,0.4-0.9,0.6c-0.3,0.2-0.5,0.3-0.8,0.5
			c-0.2,0.1-0.3,0.2-0.4,0.2c-0.2,0-0.3-0.1-0.5-0.2c-0.1-0.1-0.2-0.3-0.2-0.4s0.1-0.2,0.4-0.4c0.2-0.2,0.5-0.4,0.9-0.6
			c0.4-0.2,0.7-0.4,1.2-0.6c0.4-0.2,0.8-0.4,1.2-0.6c0.4-0.2,0.8-0.4,1.3-0.6c-0.1-0.7-0.2-1.3-0.3-1.8s-0.1-0.9-0.2-1.3
			c-0.1-0.4-0.1-0.6-0.1-0.6c0-0.2,0-0.3,0.1-0.4c0.1-0.1,0.2-0.1,0.3-0.1c0.2,0,0.3,0.1,0.3,0.3c0.2,0.8,0.3,1.5,0.5,2.1
			c0.1,0.6,0.3,1.1,0.4,1.5c0.1,0,0.4-0.1,0.7-0.3c0.3-0.1,0.7-0.3,1-0.5c0.4-0.2,0.7-0.3,1-0.4C83.4,14.3,83.6,14.2,83.8,14.2
			L83.8,14.2C83.6,14.1,83.6,14.2,83.8,14.2z"/>
		<path class="st0" d="M88.8,19.4c0,0.3,0,0.6-0.1,0.9c-0.1,0.3-0.2,0.6-0.4,0.8c-0.1,0.2-0.3,0.4-0.5,0.5s-0.4,0.2-0.6,0.2
			c-0.4,0-0.7-0.1-1-0.4c-0.2-0.2-0.4-0.5-0.5-0.8c-0.1-0.3-0.2-0.6-0.2-0.9c0-0.3-0.1-0.6-0.1-0.7c0-0.3,0-0.6,0.1-0.9
			c0.1-0.3,0.2-0.6,0.3-0.9c0.1-0.3,0.3-0.5,0.5-0.7c0.2-0.2,0.4-0.3,0.5-0.3c0,0,0.1,0,0.2,0c0.1,0,0.2,0.1,0.3,0.1
			c0.1,0.1,0.2,0.1,0.3,0.2c0.1,0.1,0.1,0.2,0.2,0.3c0.2,0,0.3,0.1,0.5,0.2s0.2,0.2,0.3,0.2c0.1,0.4,0.2,0.8,0.2,1.1
			C88.8,18.8,88.8,19.2,88.8,19.4z M87.8,19c0-0.2,0-0.5-0.1-0.7c0-0.2-0.1-0.5-0.3-0.7h-0.1c-0.1,0-0.1,0-0.1,0h-0.1
			c-0.2,0-0.3,0-0.4,0.1c-0.1,0.1-0.2,0.2-0.2,0.4c-0.1,0.2-0.1,0.3-0.1,0.5c0,0.2,0,0.3,0,0.5c0,0.2,0,0.3,0,0.5
			c0,0.2,0,0.4,0.1,0.6c0.1,0.2,0.1,0.3,0.2,0.5c0.1,0.2,0.2,0.2,0.4,0.2c0.2,0,0.3-0.1,0.4-0.2c0.1-0.2,0.2-0.3,0.2-0.5
			s0.1-0.4,0.1-0.6C87.8,19.2,87.8,19.1,87.8,19z"/>
		<path class="st0" d="M105.1,21.4c0,0.2-0.1,0.5-0.3,0.6c-0.2,0.2-0.4,0.3-0.6,0.5c-0.3,0.1-0.5,0.2-0.8,0.3
			c-0.3,0.1-0.6,0.1-0.9,0.2s-0.5,0.1-0.7,0.1s-0.3,0-0.4,0c-0.3,0-0.6-0.1-0.7-0.2c-0.2-0.1-0.3-0.3-0.3-0.5c0-0.1,0-0.2,0-0.2
			s0.1-0.1,0.2-0.1c0,0,0.1,0,0.2,0c0.1,0,0.2,0,0.2,0s0.2,0,0.6,0c0.3,0,0.7-0.1,1-0.1s0.7-0.1,1-0.3s0.4-0.3,0.4-0.4
			c0,0-0.2-0.1-0.5-0.3c-0.3-0.2-0.8-0.4-1.4-0.8c-0.5-0.3-0.8-0.6-1-0.9s-0.3-0.7-0.3-1.2c0-0.3,0.1-0.6,0.2-0.8
			c0.1-0.2,0.3-0.4,0.6-0.5c0.2-0.1,0.5-0.2,0.8-0.3s0.6-0.1,1-0.1c0,0,0.1,0,0.3,0c0.2,0,0.3,0.1,0.5,0.1s0.3,0.1,0.5,0.2
			c0.2,0.1,0.2,0.2,0.2,0.3c0,0,0,0.1-0.1,0.1c-0.1,0.1-0.1,0.2-0.3,0.3c0,0-0.1,0-0.2-0.1c-0.1,0-0.2-0.1-0.4-0.1
			c-0.1,0-0.3-0.1-0.4-0.1c-0.1,0-0.3,0-0.4,0c-0.4,0-0.7,0.1-0.9,0.2c-0.2,0.1-0.4,0.4-0.4,0.8c0,0.2,0.1,0.4,0.2,0.5
			c0.2,0.2,0.3,0.3,0.6,0.5c0.2,0.1,0.5,0.3,0.8,0.4s0.5,0.3,0.8,0.5c0.2,0.2,0.4,0.3,0.6,0.5C105.1,20.9,105.1,21,105.1,21.4z"/>
		<path class="st0" d="M113.1,21.9V22c0,0.1-0.1,0.2-0.2,0.4c0,0.1-0.1,0.2-0.3,0.3c-0.1,0.1-0.3,0.3-0.6,0.4
			c-0.2,0.1-0.6,0.2-0.9,0.4c-0.4,0.1-0.8,0.2-1.3,0.2c-0.3,0-0.7-0.1-1-0.2c-0.3-0.2-0.6-0.4-0.9-0.7c-0.2-0.3-0.5-0.7-0.6-1.1
			c-0.1-0.4-0.2-1-0.2-1.6s0.1-1.1,0.2-1.6c0.1-0.5,0.3-0.9,0.6-1.3c0.3-0.4,0.5-0.7,0.8-0.9c0.3-0.2,0.6-0.3,0.8-0.3
			c0.2,0,0.5,0,0.7,0.1s0.5,0.2,0.7,0.4c0.2,0.1,0.4,0.3,0.5,0.5c0.1,0.2,0.2,0.4,0.2,0.6c0,0.2-0.1,0.4-0.3,0.7
			c-0.2,0.2-0.4,0.5-0.7,0.6c-0.3,0.2-0.6,0.4-0.8,0.5c-0.2,0.1-0.5,0.2-0.7,0.2c-0.1,0-0.2,0-0.2-0.1c-0.1-0.1-0.1-0.2-0.1-0.3
			c0-0.2,0.1-0.4,0.3-0.5s0.4-0.2,0.6-0.3s0.4-0.2,0.6-0.3s0.3-0.3,0.3-0.6c0,0,0-0.1-0.1-0.2c-0.1-0.1-0.3-0.2-0.6-0.2
			c-0.1,0-0.3,0.1-0.5,0.3c-0.2,0.2-0.4,0.4-0.6,0.7c-0.2,0.3-0.3,0.6-0.4,1c-0.1,0.4-0.2,0.8-0.2,1.3c0,0.4,0.1,0.7,0.2,1
			c0.1,0.3,0.3,0.6,0.5,0.8c0.2,0.2,0.5,0.4,0.8,0.5s0.6,0.2,0.9,0.2c0.2,0,0.5,0,0.7-0.1c0.3-0.1,0.5-0.2,0.7-0.3
			c0.2-0.1,0.4-0.2,0.6-0.3c0.2-0.1,0.3-0.1,0.3-0.1s0.1,0,0.1,0.1C113.1,21.9,113.1,21.9,113.1,21.9z"/>
		<path class="st0" d="M120.8,21.9V22c0,0.1-0.1,0.2-0.2,0.4c0,0.1-0.1,0.2-0.3,0.3c-0.1,0.1-0.3,0.3-0.6,0.4
			c-0.2,0.1-0.6,0.2-0.9,0.4c-0.4,0.1-0.8,0.2-1.3,0.2c-0.3,0-0.7-0.1-1-0.2c-0.3-0.2-0.6-0.4-0.9-0.7c-0.2-0.3-0.5-0.7-0.6-1.1
			s-0.2-1-0.2-1.6s0.1-1.1,0.2-1.6c0.1-0.5,0.3-0.9,0.6-1.3c0.3-0.4,0.5-0.7,0.8-0.9c0.3-0.2,0.6-0.3,0.8-0.3s0.5,0,0.7,0.1
			s0.5,0.2,0.7,0.4c0.2,0.1,0.4,0.3,0.5,0.5c0.1,0.2,0.2,0.4,0.2,0.6c0,0.2-0.1,0.4-0.3,0.7c-0.2,0.2-0.4,0.5-0.7,0.6
			c-0.3,0.2-0.6,0.4-0.8,0.5s-0.5,0.2-0.7,0.2c-0.1,0-0.2,0-0.2-0.1c-0.1-0.1-0.1-0.2-0.1-0.3c0-0.2,0.1-0.4,0.3-0.5
			s0.4-0.2,0.6-0.3c0.2-0.1,0.4-0.2,0.6-0.3c0.2-0.1,0.3-0.3,0.3-0.6c0,0,0-0.1-0.1-0.2c-0.1-0.1-0.3-0.2-0.6-0.2
			c-0.1,0-0.3,0.1-0.5,0.3c-0.2,0.2-0.4,0.4-0.6,0.7c-0.2,0.3-0.3,0.6-0.4,1c-0.1,0.4-0.2,0.8-0.2,1.3c0,0.4,0.1,0.7,0.2,1
			c0.1,0.3,0.3,0.6,0.5,0.8c0.2,0.2,0.5,0.4,0.8,0.5s0.6,0.2,0.9,0.2c0.2,0,0.5,0,0.7-0.1c0.3-0.1,0.5-0.2,0.7-0.3
			c0.2-0.1,0.4-0.2,0.6-0.3c0.2-0.1,0.3-0.1,0.3-0.1s0.1,0,0.1,0.1C120.8,21.9,120.8,21.9,120.8,21.9z"/>
		<path class="st0" d="M141.3,19.5c0,0.3-0.1,0.6-0.4,1c-0.2,0.4-0.6,0.8-1,1.1c-0.4,0.4-0.9,0.7-1.4,0.9c-0.5,0.3-1.1,0.4-1.7,0.4
			c-0.3,0-0.5,0-0.8-0.1s-0.6-0.2-0.9-0.4c-0.3-0.2-0.5-0.4-0.7-0.6s-0.4-0.5-0.5-0.8c-0.1,0.1-0.2,0.2-0.3,0.4
			c-0.1,0.2-0.3,0.4-0.4,0.6c-0.1,0.2-0.3,0.4-0.5,0.6s-0.4,0.2-0.5,0.2s-0.3-0.1-0.5-0.3c-0.1-0.2-0.2-0.4-0.3-0.7
			c-0.1-0.2-0.1-0.5-0.2-0.7c0-0.2,0-0.3,0-0.4c0-0.2,0.1-0.5,0.2-1c0.1-0.5,0.3-1,0.5-1.5s0.5-1,0.8-1.4s0.7-0.6,1.1-0.6
			c0.2,0,0.3,0.1,0.3,0.2c0.1,0.1,0.1,0.3,0.1,0.4v0.7c0.1,0.1,0.2,0.1,0.2,0.1c0.1,0,0.2,0.1,0.2,0.1c0.1,0,0.1,0.1,0.2,0.2
			c0,0.1,0.1,0.2,0.1,0.4c0,0.1,0,0.2,0,0.3s0,0.2,0,0.2c0,0.4,0,0.8,0.1,1.1c0.1,0.4,0.2,0.7,0.4,1s0.4,0.5,0.7,0.7
			s0.7,0.3,1.2,0.3c0.6,0,1.2-0.1,1.6-0.4s0.8-0.6,1.1-0.9s0.5-0.6,0.7-0.9c0.2-0.3,0.3-0.4,0.4-0.4
			C141.2,19.2,141.3,19.3,141.3,19.5z M133.5,18.5c0-0.1,0-0.1,0-0.2s0-0.1,0-0.1c0-0.1,0-0.1,0-0.2c0,0,0-0.1,0-0.2v-0.1
			c0,0,0,0,0-0.1c-0.1,0-0.3,0.2-0.4,0.4c-0.1,0.2-0.3,0.5-0.4,0.8c-0.1,0.3-0.2,0.6-0.3,0.9s-0.1,0.5-0.1,0.7c0,0.1,0,0.3,0.1,0.5
			s0.1,0.4,0.2,0.5c0.2-0.5,0.5-1,0.7-1.5C133.4,19.5,133.5,19,133.5,18.5z"/>
		<path class="st0" d="M155.9,19.8c0,0.7-0.1,1.2-0.2,1.7c-0.2,0.5-0.3,0.9-0.6,1.2c-0.2,0.3-0.4,0.6-0.7,0.7
			c-0.2,0.2-0.4,0.2-0.6,0.2c-0.2,0-0.4-0.1-0.6-0.3c-0.2-0.2-0.3-0.4-0.3-0.5c0-0.2,0.1-0.4,0.3-0.4c0.1,0,0.1,0,0.2,0.1
			s0.1,0.1,0.2,0.1c0.2-0.2,0.5-0.5,0.7-1s0.3-1.1,0.3-2c0-0.4,0-0.7-0.1-0.9c-0.1-0.3-0.2-0.5-0.3-0.7c-0.1-0.2-0.2-0.3-0.3-0.4
			c-0.1-0.1-0.2-0.2-0.2-0.2c-0.1,0-0.3,0.1-0.4,0.4c-0.1,0.3-0.3,0.6-0.4,1s-0.2,0.7-0.3,1.1c-0.1,0.4-0.1,0.6-0.1,0.7s0,0.2,0,0.2
			c0,0.1,0,0.1,0,0.2s0,0.1,0,0.2c0,0.3-0.1,0.5-0.3,0.7s-0.4,0.3-0.6,0.3c-0.1,0-0.2-0.1-0.2-0.2c-0.1-0.1-0.1-0.3-0.1-0.5
			s-0.1-0.4-0.1-0.6s0-0.4-0.1-0.6c-0.1-0.3-0.3-0.7-0.5-1.3s-0.4-1.2-0.6-1.8c-0.2-0.7-0.4-1.3-0.6-1.9c-0.2-0.6-0.3-1.1-0.4-1.5
			c-0.2-0.8-0.4-1.5-0.5-2.1s-0.2-1.1-0.3-1.6c-0.1-0.4-0.1-0.8-0.1-1.2c0-0.3,0-0.6,0-0.8c0-0.1,0.1-0.2,0.2-0.3
			c0.1-0.1,0.2-0.1,0.3-0.1s0.2,0,0.3,0.1S149,7.9,149,8c0,0.2,0,0.4,0.1,0.7c0,0.3,0.1,0.7,0.1,1.2c0,0.2,0.1,0.6,0.2,1
			c0.1,0.4,0.2,0.9,0.3,1.5c0.1,0.5,0.3,1.1,0.4,1.7c0.2,0.6,0.3,1.2,0.5,1.7s0.3,1,0.5,1.5s0.3,0.8,0.5,1.1c0.1-0.5,0.3-1,0.5-1.4
			s0.4-0.7,0.6-1c0.2-0.3,0.5-0.5,0.9-0.5c0.1,0,0.3,0.1,0.5,0.2c0.2,0.1,0.4,0.3,0.6,0.6c0.2,0.3,0.4,0.6,0.5,1.1
			C155.8,18.5,155.9,19,155.9,19.8z"/>
		<path class="st0" d="M159.2,13.9c0,0-0.1,0.1-0.2,0.2c-0.1,0.1-0.2,0.2-0.4,0.3c-0.1,0.1-0.3,0.2-0.4,0.3
			c-0.1,0.1-0.3,0.1-0.4,0.1c-0.1,0-0.1,0-0.2,0c-0.1,0-0.2,0-0.3-0.1c-0.1,0-0.2-0.1-0.3-0.2s-0.1-0.2-0.1-0.3
			c0-0.2,0.1-0.4,0.2-0.6c0.1-0.2,0.3-0.3,0.6-0.3c0,0,0.1,0,0.3,0.1c0.2,0,0.3,0.1,0.5,0.1c0.2,0.1,0.3,0.1,0.4,0.2
			C159.2,13.8,159.2,13.9,159.2,13.9z M159.9,22.2c0,0.1-0.1,0.2-0.2,0.3c-0.2,0.1-0.3,0.1-0.3,0.1c-0.1,0-0.3-0.1-0.4-0.3
			c-0.1-0.2-0.2-0.4-0.3-0.7s-0.2-0.5-0.2-0.7c-0.1-0.2-0.1-0.4-0.1-0.5s-0.1-0.3-0.2-0.5c-0.1-0.2-0.1-0.4-0.2-0.6
			c-0.1-0.2-0.1-0.4-0.2-0.5s-0.1-0.2-0.1-0.2c0-0.2,0-0.4,0.1-0.6c0.1-0.2,0.2-0.3,0.3-0.3s0.3,0.1,0.4,0.3
			c0.1,0.2,0.3,0.5,0.4,0.8c0.1,0.3,0.3,0.7,0.4,1c0.1,0.3,0.2,0.7,0.3,1.1c0.1,0.3,0.2,0.6,0.2,0.9C159.9,22,159.9,22.1,159.9,22.2
			z"/>
		<path class="st0" d="M167.2,14.1c-0.2,0.2-0.5,0.4-0.8,0.6c-0.4,0.2-0.7,0.4-1.1,0.6c-0.4,0.2-0.7,0.3-0.9,0.5
			c-0.3,0.1-0.4,0.2-0.4,0.3s0,0.2,0.1,0.4c0.1,0.2,0.1,0.5,0.2,0.8c0.1,0.3,0.2,0.6,0.3,0.9s0.2,0.6,0.2,0.9c0,0.1,0.1,0.3,0.1,0.6
			c0,0.3,0.1,0.5,0.1,0.7s0.1,0.4,0.1,0.6s0,0.3,0,0.3c0,0.2,0,0.4-0.1,0.7c-0.1,0.2-0.2,0.4-0.4,0.4c-0.1,0-0.2,0-0.2-0.1
			c-0.1-0.1-0.1-0.2-0.2-0.3c-0.1-0.1-0.1-0.2-0.1-0.3s0-0.2,0-0.2v-0.1c0-0.1,0-0.1,0-0.2c0-0.3,0-0.7-0.1-1.2
			c0-0.2-0.1-0.4-0.2-0.7c-0.1-0.3-0.2-0.7-0.3-1c-0.1-0.4-0.2-0.9-0.4-1.3c-0.1-0.2-0.1-0.3-0.1-0.3c-0.1,0-0.3,0.1-0.5,0.2
			c-0.2,0.1-0.5,0.3-0.8,0.5c-0.3,0.2-0.6,0.4-1,0.6c-0.3,0.2-0.7,0.4-0.9,0.6c-0.3,0.2-0.5,0.3-0.8,0.5c-0.2,0.1-0.3,0.2-0.4,0.2
			c-0.2,0-0.3-0.1-0.5-0.2c-0.1-0.1-0.2-0.3-0.2-0.4s0.1-0.2,0.4-0.4c0.2-0.2,0.5-0.4,0.9-0.6c0.4-0.2,0.7-0.4,1.2-0.6
			c0.4-0.2,0.8-0.4,1.2-0.6c0.4-0.2,0.8-0.4,1.3-0.6c-0.1-0.7-0.2-1.3-0.3-1.8s-0.1-0.9-0.2-1.3c-0.1-0.4-0.1-0.6-0.1-0.6
			c0-0.2,0-0.3,0.1-0.4s0.2-0.1,0.3-0.1c0.2,0,0.3,0.1,0.3,0.3c0.2,0.8,0.3,1.5,0.5,2.1c0.1,0.6,0.3,1.1,0.4,1.5
			c0.1,0,0.4-0.1,0.7-0.3c0.3-0.1,0.7-0.3,1-0.5c0.4-0.2,0.7-0.3,1-0.4C167,14.3,167.2,14.2,167.2,14.1c0,0.1,0,0.1,0.1,0.2
			C167.1,14,167.1,14.1,167.2,14.1z"/>
		<path class="st0" d="M23.6,44.4c0,0.1,0,0.2-0.1,0.3s-0.2,0.2-0.3,0.2S23.1,45,22.9,45c-0.1,0-0.2,0-0.3,0c-0.3,0-0.6-0.2-0.8-0.5
			c-0.2-0.3-0.4-0.7-0.6-1.1s-0.3-0.8-0.3-1.1c-0.1-0.4-0.1-0.5-0.1-0.6c-0.1,0.2-0.2,0.4-0.3,0.8c-0.1,0.4-0.2,0.8-0.3,1.2
			c-0.1,0.4-0.3,0.7-0.5,1s-0.5,0.5-0.8,0.5c-0.1,0-0.3-0.1-0.4-0.3s-0.3-0.4-0.4-0.7s-0.2-0.6-0.3-0.9s-0.2-0.7-0.3-1
			c-0.1-0.3-0.2-0.7-0.3-1c-0.1-0.3-0.2-0.5-0.3-0.7c-0.1,0.2-0.2,0.5-0.2,0.9c-0.1,0.4-0.1,0.8-0.2,1.2s-0.1,0.8-0.1,1.2
			s0,0.8,0,1.1c0,0.2-0.1,0.4-0.2,0.4c-0.1,0.1-0.2,0.1-0.3,0.1c-0.2,0-0.3-0.1-0.5-0.3s-0.3-0.5-0.5-0.8s-0.3-0.7-0.5-1.1
			c-0.1-0.4-0.3-0.9-0.4-1.3c-0.1-0.4-0.2-0.8-0.3-1.2s-0.1-0.7-0.1-1c0-0.2,0-0.4,0-0.5s0-0.3,0-0.4c0-0.1,0-0.2,0-0.2v-0.1v-0.1
			c0,0,0.1-0.1,0.2-0.2c0.1-0.1,0.2-0.1,0.3-0.1c0.2,0,0.3,0,0.4,0.1c0.1,0.1,0.1,0.2,0.1,0.3c0,0,0,0.1,0,0.2c0,0.1,0,0.3,0,0.6
			c0,0.2,0,0.5,0.1,0.9s0.2,0.8,0.3,1.3s0.2,0.8,0.3,1.2s0.2,0.6,0.3,0.7c0-0.1,0-0.1,0.1-0.2c0-0.1,0-0.1,0-0.2l0.2-1.8
			c0.1-0.5,0.2-0.9,0.4-1.4c0.2-0.5,0.4-0.9,0.6-1.2c0.1-0.1,0.2-0.2,0.2-0.2s0.2,0.1,0.2,0.2c0.2,0.4,0.4,0.8,0.6,1.2
			s0.2,0.8,0.3,1.2c0.1,0.4,0.2,0.8,0.3,1.2c0.1,0.4,0.3,0.8,0.6,1.2c0.1-0.2,0.3-0.5,0.4-0.9c0.2-0.4,0.4-0.9,0.5-1.3
			c0.2-0.4,0.4-0.8,0.5-1.2c0.2-0.3,0.3-0.5,0.4-0.5c0,0,0.1,0,0.2,0s0.2,0,0.2,0c0.1,0,0.2,0.2,0.3,0.5c0.1,0.3,0.2,0.7,0.2,1.1
			s0.1,0.8,0.2,1.2s0.1,0.7,0.2,0.9c0.1,0.1,0.1,0.3,0.3,0.4c0.1,0.1,0.2,0.3,0.4,0.4C23.3,44.1,23.5,44.3,23.6,44.4z"/>
		<path class="st0" d="M29.3,41.7c0,0.3,0,0.6-0.1,0.9c-0.1,0.3-0.2,0.6-0.4,0.8c-0.1,0.2-0.3,0.4-0.5,0.5s-0.4,0.2-0.6,0.2
			c-0.4,0-0.7-0.1-1-0.4c-0.2-0.2-0.4-0.5-0.5-0.8S26,42.3,26,42s-0.1-0.6-0.1-0.7c0-0.3,0-0.6,0.1-0.9s0.2-0.6,0.3-0.9
			c0.1-0.3,0.3-0.5,0.5-0.7s0.4-0.3,0.5-0.3c0,0,0.1,0,0.2,0s0.2,0.1,0.3,0.1c0.1,0.1,0.2,0.1,0.3,0.2c0.1,0.1,0.1,0.2,0.2,0.3
			c0.2,0,0.3,0.1,0.5,0.2c0.2,0.1,0.2,0.2,0.3,0.2c0.1,0.4,0.2,0.8,0.2,1.1C29.3,41.1,29.3,41.5,29.3,41.7z M28.3,41.3
			c0-0.2,0-0.5-0.1-0.7c0-0.2-0.1-0.5-0.3-0.7h-0.1c-0.1,0-0.1,0-0.1,0h-0.1c-0.2,0-0.3,0-0.4,0.1S27,40.2,27,40.4
			c-0.1,0.2-0.1,0.3-0.1,0.5s0,0.3,0,0.5s0,0.3,0,0.5s0,0.4,0.1,0.6c0.1,0.2,0.1,0.3,0.2,0.5s0.2,0.2,0.4,0.2c0.1,0,0.3-0.1,0.4-0.2
			c0.1-0.2,0.2-0.3,0.2-0.5s0.1-0.4,0.1-0.6C28.3,41.5,28.3,41.4,28.3,41.3z"/>
		<path class="st0" d="M36.8,39.8c0,0.1,0,0.2-0.1,0.3s-0.2,0.1-0.3,0.2s-0.2,0.1-0.4,0.1c-0.1,0-0.2,0-0.3,0c-0.2,0-0.4,0-0.4,0
			c-0.1,0-0.1,0-0.2,0c-0.4,0-0.7,0-0.9,0.1s-0.4,0.2-0.5,0.3s-0.2,0.3-0.2,0.5s-0.1,0.4-0.1,0.7c0,0.5,0,0.8,0.1,1.1
			c0,0.3,0.1,0.5,0.1,0.7s0.1,0.3,0.1,0.4c0,0.1,0.1,0.2,0.1,0.3s-0.1,0.2-0.2,0.4c-0.1,0.1-0.2,0.2-0.3,0.2c-0.2,0-0.3-0.2-0.5-0.5
			c-0.1-0.3-0.3-0.7-0.4-1.1c-0.1-0.4-0.2-0.9-0.2-1.3c-0.1-0.4-0.1-0.7-0.1-1c0-0.2,0-0.5,0.1-0.7c0-0.2,0.1-0.4,0.2-0.6
			c0.1-0.2,0.2-0.3,0.2-0.4c0.1-0.1,0.2-0.2,0.3-0.2s0.1,0,0.2,0.1c0,0.1,0.1,0.1,0.1,0.2c0,0.1,0.1,0.1,0.1,0.2
			c0,0.1,0.1,0.1,0.1,0.1c0.1,0,0.3-0.1,0.6-0.2s0.7-0.2,1.1-0.2c0.4,0,0.7,0,0.9,0s0.4,0.1,0.6,0.1c0,0,0.1,0,0.2,0.1
			S36.8,39.6,36.8,39.8z"/>
		<path class="st0" d="M44.6,44.1L44.6,44.1c0,0.2-0.1,0.3-0.2,0.5c0,0.1-0.1,0.2-0.3,0.3c-0.1,0.1-0.3,0.3-0.6,0.4
			c-0.2,0.1-0.6,0.2-0.9,0.4c-0.4,0.1-0.8,0.2-1.3,0.2c-0.3,0-0.7-0.1-1-0.2c-0.3-0.2-0.6-0.4-0.9-0.7c-0.2-0.3-0.5-0.7-0.6-1.1
			c-0.2-0.4-0.2-1-0.2-1.6s0.1-1.1,0.2-1.6c0.1-0.5,0.3-0.9,0.6-1.3s0.5-0.7,0.8-0.9s0.5-0.3,0.8-0.3c0.2,0,0.5,0,0.7,0.1
			s0.5,0.2,0.7,0.4c0.2,0.1,0.4,0.3,0.5,0.5s0.2,0.4,0.2,0.6c0,0.2-0.1,0.4-0.3,0.7c-0.2,0.2-0.4,0.5-0.7,0.6
			c-0.3,0.2-0.6,0.4-0.8,0.5c-0.3,0.1-0.5,0.2-0.7,0.2c-0.1,0-0.2,0-0.2-0.1c-0.1-0.1-0.1-0.2-0.1-0.3c0-0.2,0.1-0.4,0.3-0.5
			s0.4-0.2,0.6-0.3c0.2-0.1,0.4-0.2,0.6-0.3c0.2-0.1,0.3-0.3,0.3-0.6c0,0,0-0.1-0.1-0.2c-0.1-0.1-0.3-0.2-0.6-0.2
			c-0.1,0-0.3,0.1-0.5,0.3s-0.4,0.4-0.5,0.7c-0.2,0.3-0.3,0.6-0.4,1c-0.1,0.4-0.2,0.8-0.2,1.3c0,0.4,0.1,0.7,0.2,1
			c0.1,0.3,0.3,0.6,0.5,0.8s0.5,0.4,0.8,0.5s0.6,0.2,0.9,0.2c0.2,0,0.5,0,0.7-0.1c0.3-0.1,0.5-0.2,0.7-0.3s0.4-0.2,0.6-0.3
			c0.2-0.1,0.3-0.1,0.3-0.1s0.1,0,0.1,0.1C44.6,44.1,44.6,44.1,44.6,44.1z"/>
		<path class="st0" d="M59.2,41.7c0,0.3,0,0.6-0.1,0.9c-0.1,0.3-0.2,0.6-0.4,0.8c-0.1,0.2-0.3,0.4-0.5,0.5s-0.4,0.2-0.6,0.2
			c-0.4,0-0.7-0.1-1-0.4c-0.2-0.2-0.4-0.5-0.5-0.8s-0.2-0.6-0.2-0.9c0-0.3-0.1-0.6-0.1-0.7c0-0.3,0-0.6,0.1-0.9
			c0.1-0.3,0.2-0.6,0.3-0.9c0.1-0.3,0.3-0.5,0.5-0.7s0.4-0.3,0.5-0.3c0,0,0.1,0,0.2,0s0.2,0.1,0.3,0.1c0.1,0.1,0.2,0.1,0.3,0.2
			c0.1,0.1,0.1,0.2,0.2,0.3c0.2,0,0.3,0.1,0.5,0.2c0.2,0.1,0.2,0.2,0.3,0.2c0.1,0.4,0.2,0.8,0.2,1.1C59.2,41.1,59.2,41.5,59.2,41.7z
			 M58.2,41.3c0-0.2,0-0.5-0.1-0.7c0-0.2-0.1-0.5-0.3-0.7h-0.1c-0.1,0-0.1,0-0.1,0h-0.1c-0.2,0-0.3,0-0.4,0.1
			c-0.1,0.1-0.2,0.2-0.2,0.4c-0.1,0.2-0.1,0.3-0.1,0.5s0,0.3,0,0.5s0,0.3,0,0.5s0,0.4,0.1,0.6c0.1,0.2,0.1,0.3,0.2,0.5
			s0.2,0.2,0.4,0.2s0.3-0.1,0.4-0.2c0.1-0.2,0.2-0.3,0.2-0.5s0.1-0.4,0.1-0.6C58.2,41.5,58.2,41.4,58.2,41.3z"/>
		<path class="st0" d="M68.7,30.7c0,0,0,0.1,0,0.2s0,0.2,0,0.2c0,0.1,0,0.2-0.1,0.2h-0.1h-0.1c-0.3-0.1-0.6-0.3-1-0.5
			s-0.8-0.3-1.3-0.3s-1,0.2-1.3,0.6s-0.6,0.9-0.7,1.4c-0.2,0.5-0.3,1-0.3,1.5c-0.1,0.5-0.1,0.9-0.1,1.1c0,0.2,0,0.4,0.1,0.8
			c0.1,0.3,0.1,0.7,0.2,1.1c0.1,0.4,0.2,0.7,0.3,1s0.2,0.5,0.4,0.6c0.1,0,0.2,0,0.5,0c0.2,0,0.4,0,0.6,0s0.5,0,0.7,0.1
			c0.2,0,0.4,0.1,0.7,0.1c0.1,0,0.1,0,0.3,0s0.2,0,0.4,0c0.1,0,0.2,0,0.3,0.1c0.1,0,0.1,0.1,0.1,0.1c0,0.1-0.1,0.1-0.2,0.2
			s-0.2,0.1-0.4,0.1c-0.1,0-0.3,0.1-0.4,0.1s-0.2,0-0.3,0c-0.1,0-0.2,0-0.3,0c-0.1,0-0.2,0-0.4,0c-0.1,0-0.3,0-0.4,0s-0.2,0-0.3,0
			c-0.2,0-0.4,0-0.4,0.1c-0.1,0.1-0.1,0.2-0.1,0.3c0,0.2,0.1,0.5,0.3,0.9c0.2,0.4,0.4,0.8,0.6,1.2s0.5,0.9,0.6,1.3
			c0.2,0.5,0.3,0.9,0.3,1.3c0,0.1,0,0.2-0.1,0.4c0,0.2-0.1,0.4-0.2,0.6c-0.1,0.2-0.2,0.4-0.3,0.5c-0.1,0.2-0.2,0.2-0.4,0.2
			c-0.1,0-0.2,0-0.3-0.1c-0.1-0.1-0.1-0.2-0.1-0.3c0-0.2,0.1-0.5,0.2-0.7s0.2-0.4,0.2-0.7c0-0.1-0.1-0.3-0.2-0.6s-0.2-0.6-0.4-0.9
			c-0.2-0.3-0.3-0.7-0.5-1.1s-0.4-0.7-0.5-1c-0.2-0.3-0.3-0.6-0.4-0.8c-0.1-0.2-0.2-0.3-0.2-0.3c-0.3,0.1-0.6,0.2-0.9,0.3
			c-0.3,0.1-0.6,0.3-0.8,0.5c-0.1,0.1-0.2,0.2-0.3,0.2s-0.3-0.1-0.4-0.2c-0.1-0.1-0.2-0.2-0.2-0.4s0-0.3,0.1-0.4
			c0.1-0.1,0.2-0.2,0.3-0.2c0.1-0.1,0.3-0.2,0.6-0.2c0.3-0.1,0.6-0.2,0.8-0.2c0.1,0,0.2-0.1,0.3-0.1s0.1-0.1,0.1-0.1
			c0-0.1-0.1-0.3-0.2-0.6c-0.1-0.2-0.2-0.5-0.2-0.9c-0.1-0.3-0.2-0.7-0.2-1.1s-0.1-0.9-0.1-1.4s0.1-1.1,0.2-1.7
			c0.1-0.6,0.3-1.1,0.6-1.6s0.6-0.9,1-1.2c0.4-0.3,0.9-0.5,1.5-0.5c0.3,0,0.6,0,0.9,0.1s0.6,0.1,0.9,0.2s0.5,0.2,0.7,0.4
			C68.6,30.4,68.7,30.5,68.7,30.7z"/>
		<path class="st0" d="M83.1,41.7c0,0.3,0,0.6-0.1,0.9c-0.1,0.3-0.2,0.6-0.4,0.8c-0.1,0.2-0.3,0.4-0.5,0.5s-0.4,0.2-0.6,0.2
			c-0.4,0-0.7-0.1-1-0.4c-0.2-0.2-0.4-0.5-0.5-0.8s-0.2-0.6-0.2-0.9c0-0.3-0.1-0.6-0.1-0.7c0-0.3,0-0.6,0.1-0.9
			c0.1-0.3,0.2-0.6,0.3-0.9c0.1-0.3,0.3-0.5,0.5-0.7s0.4-0.3,0.5-0.3c0,0,0.1,0,0.2,0s0.2,0.1,0.3,0.1c0.1,0.1,0.2,0.1,0.3,0.2
			c0.1,0.1,0.1,0.2,0.2,0.3c0.2,0,0.3,0.1,0.5,0.2c0.2,0.1,0.2,0.2,0.3,0.2c0.1,0.4,0.2,0.8,0.2,1.1C83.1,41.1,83.1,41.5,83.1,41.7z
			 M82.1,41.3c0-0.2,0-0.5-0.1-0.7c0-0.2-0.1-0.5-0.3-0.7h-0.1c-0.1,0-0.1,0-0.1,0h-0.1c-0.2,0-0.3,0-0.4,0.1s-0.2,0.2-0.2,0.4
			c-0.1,0.2-0.1,0.3-0.1,0.5s0,0.3,0,0.5s0,0.3,0,0.5s0,0.4,0.1,0.6c0.1,0.2,0.1,0.3,0.2,0.5s0.2,0.2,0.4,0.2s0.3-0.1,0.4-0.2
			c0.1-0.2,0.2-0.3,0.2-0.5s0.1-0.4,0.1-0.6C82.1,41.5,82.1,41.4,82.1,41.3z"/>
		<path class="st0" d="M92.6,42.8c0,0.1-0.1,0.3-0.3,0.4c-0.2,0.1-0.4,0.3-0.6,0.4c-0.2,0.1-0.5,0.2-0.7,0.3S90.6,44,90.5,44
			s-0.3,0-0.4-0.1c-0.2-0.1-0.3-0.2-0.4-0.3s-0.3-0.2-0.4-0.3s-0.3,0-0.3-0.1c0,0-0.1,0.1-0.2,0.3c-0.1,0.1-0.2,0.3-0.3,0.4
			c-0.1,0.2-0.3,0.3-0.4,0.4s-0.3,0.2-0.4,0.2c-0.4,0-0.7-0.2-1-0.6S86.2,43,86,42.5s-0.3-1-0.4-1.5s-0.1-0.8-0.1-1
			c0-0.1,0.1-0.2,0.2-0.3s0.2-0.1,0.3-0.1c0.2,0,0.3,0.1,0.4,0.2c0.1,0.1,0.1,0.3,0.1,0.5c0,0.1,0,0.4,0.1,0.7s0.2,0.7,0.3,1
			s0.2,0.7,0.4,0.9s0.2,0.4,0.4,0.4c0.2,0,0.4-0.1,0.5-0.4c0.1-0.2,0.3-0.5,0.3-0.8c0.1-0.3,0.2-0.6,0.2-0.9c0-0.3,0.1-0.5,0.1-0.6
			v-0.1c0-0.1,0-0.2,0-0.3s0-0.2,0-0.2c0-0.1,0-0.1,0-0.2c0-0.1,0-0.2-0.1-0.2c0,0-0.1-0.1-0.1-0.2c0-0.1,0-0.2,0.1-0.3
			S89,39,89.3,39c0.1,0,0.2,0,0.3,0.1c0.1,0.1,0.1,0.1,0.1,0.2c0,0.1,0,0.2,0.1,0.3c0,0.1,0,0.1,0,0.2c0,0,0,0.1,0,0.3s0,0.4,0,0.6
			c0,0.2,0,0.4,0,0.6c0,0.2,0,0.3,0,0.4s0,0.1,0.1,0.3c0,0.1,0.1,0.3,0.2,0.4c0.1,0.1,0.1,0.3,0.2,0.4c0.1,0.1,0.2,0.2,0.3,0.2
			c0.2,0,0.3,0,0.5-0.1s0.3-0.1,0.4-0.2s0.3-0.1,0.4-0.2s0.2-0.1,0.3-0.1c0.1,0,0.3,0,0.4,0.1C92.5,42.6,92.6,42.7,92.6,42.8z"/>
		<path class="st0" d="M98.6,39.8c0,0.1,0,0.2-0.1,0.3s-0.2,0.1-0.3,0.2s-0.2,0.1-0.4,0.1c-0.1,0-0.2,0-0.3,0c-0.2,0-0.4,0-0.4,0
			c-0.1,0-0.1,0-0.2,0c-0.4,0-0.7,0-0.9,0.1c-0.2,0.1-0.4,0.2-0.5,0.3s-0.2,0.3-0.2,0.5s-0.1,0.4-0.1,0.7c0,0.5,0,0.8,0.1,1.1
			c0,0.3,0.1,0.5,0.1,0.7s0.1,0.3,0.1,0.4c0,0.1,0.1,0.2,0.1,0.3s-0.1,0.2-0.2,0.4c-0.1,0.1-0.2,0.2-0.3,0.2c-0.2,0-0.3-0.2-0.5-0.5
			c-0.1-0.3-0.3-0.7-0.4-1.1c-0.1-0.4-0.2-0.9-0.2-1.3s-0.1-0.7-0.1-1c0-0.2,0-0.5,0.1-0.7s0.1-0.4,0.2-0.6c0.1-0.2,0.2-0.3,0.2-0.4
			s0.2-0.2,0.3-0.2c0.1,0,0.1,0,0.2,0.1c0,0.1,0.1,0.1,0.1,0.2c0,0.1,0.1,0.1,0.1,0.2c0,0.1,0.1,0.1,0.1,0.1c0.1,0,0.3-0.1,0.6-0.2
			s0.7-0.2,1.1-0.2s0.7,0,0.9,0c0.2,0,0.4,0.1,0.6,0.1c0,0,0.1,0,0.2,0.1C98.6,39.6,98.6,39.6,98.6,39.8z"/>
		<path class="st0" d="M116.6,40.1c0,0.4-0.1,0.7-0.3,1.1c-0.2,0.4-0.5,0.7-0.8,1s-0.6,0.6-1,0.8c-0.4,0.3-0.7,0.5-1,0.7
			s-0.5,0.4-0.7,0.5s-0.3,0.2-0.3,0.3c0,0.2,0,0.5,0.1,0.8s0.1,0.7,0.2,1.1c0.1,0.4,0.1,0.8,0.2,1.2s0.1,0.8,0.1,1.2
			c0,0,0,0.1,0,0.2c0,0.1,0.1,0.2,0.1,0.4c0,0.1,0.1,0.3,0.1,0.4c0,0.1,0,0.2,0,0.2c0,0.1,0,0.2,0,0.3s0,0.2-0.1,0.4
			c0,0.1-0.1,0.2-0.2,0.3s-0.2,0.1-0.3,0.1c-0.2,0-0.3-0.1-0.4-0.2c-0.1-0.1-0.1-0.3-0.1-0.4v-0.1v-0.1c0-0.2-0.1-0.6-0.2-1.3
			s-0.2-1.5-0.4-2.5c-0.1-1-0.3-2-0.4-3.1s-0.2-2.2-0.2-3.2c0-0.1,0-0.2,0-0.3s0-0.2,0-0.3c-0.1,0-0.4,0.1-0.6,0.2
			c-0.3,0.1-0.6,0.3-0.8,0.4c-0.3,0.2-0.5,0.3-0.7,0.5s-0.3,0.3-0.3,0.5h-0.2c0,0-0.1,0-0.2-0.1s-0.1-0.1-0.2-0.2
			c-0.1-0.1-0.1-0.1-0.1-0.2s-0.1-0.1-0.1-0.2c0-0.3,0.2-0.6,0.5-0.9c0.4-0.3,0.8-0.5,1.4-0.7s1.2-0.4,1.8-0.5
			c0.7-0.1,1.3-0.2,1.9-0.2s1.1,0.1,1.4,0.2s0.7,0.3,0.9,0.5c0.2,0.2,0.4,0.4,0.5,0.6S116.6,40,116.6,40.1z M115.5,40
			c0-0.1-0.2-0.3-0.5-0.5c-0.4-0.2-0.8-0.2-1.3-0.2c-0.4,0-0.8,0-1,0s-0.3,0.1-0.4,0.1c0,0.2-0.1,0.5-0.1,0.8s0,0.7,0,1
			c0,0.4,0,0.7,0,1s0,0.6,0.1,0.8c0.2-0.1,0.5-0.3,0.8-0.5s0.7-0.5,1.1-0.8s0.7-0.6,0.9-0.9C115.4,40.6,115.5,40.3,115.5,40z"/>
		<path class="st0" d="M123.9,44.1L123.9,44.1c0,0.2-0.1,0.3-0.2,0.5c0,0.1-0.1,0.2-0.3,0.3c-0.1,0.1-0.3,0.3-0.6,0.4
			c-0.2,0.1-0.6,0.2-0.9,0.4c-0.4,0.1-0.8,0.2-1.3,0.2c-0.3,0-0.7-0.1-1-0.2c-0.3-0.2-0.6-0.4-0.9-0.7c-0.2-0.3-0.5-0.7-0.6-1.1
			s-0.2-1-0.2-1.6s0.1-1.1,0.2-1.6s0.3-0.9,0.6-1.3s0.5-0.7,0.8-0.9s0.6-0.3,0.8-0.3c0.2,0,0.5,0,0.7,0.1s0.5,0.2,0.7,0.4
			c0.2,0.1,0.4,0.3,0.5,0.5s0.2,0.4,0.2,0.6c0,0.2-0.1,0.4-0.3,0.7c-0.2,0.2-0.4,0.5-0.7,0.6c-0.3,0.2-0.6,0.4-0.8,0.5
			s-0.5,0.2-0.7,0.2c-0.1,0-0.2,0-0.2-0.1c-0.1-0.1-0.1-0.2-0.1-0.3c0-0.2,0.1-0.4,0.3-0.5c0.2-0.1,0.4-0.2,0.6-0.3s0.4-0.2,0.6-0.3
			s0.3-0.3,0.3-0.6c0,0,0-0.1-0.1-0.2c-0.1-0.1-0.3-0.2-0.6-0.2c-0.1,0-0.3,0.1-0.5,0.3s-0.4,0.4-0.6,0.7s-0.3,0.6-0.4,1
			s-0.2,0.8-0.2,1.3c0,0.4,0.1,0.7,0.2,1s0.3,0.6,0.5,0.8s0.5,0.4,0.8,0.5s0.6,0.2,0.9,0.2c0.2,0,0.5,0,0.7-0.1
			c0.3-0.1,0.5-0.2,0.7-0.3s0.4-0.2,0.6-0.3s0.3-0.1,0.3-0.1s0.1,0,0.1,0.1C123.9,44.1,123.9,44.1,123.9,44.1z"/>
		<path class="st0" d="M130.7,39.8c0,0.1,0,0.2-0.1,0.3s-0.2,0.1-0.3,0.2s-0.2,0.1-0.4,0.1c-0.1,0-0.2,0-0.3,0c-0.2,0-0.4,0-0.4,0
			c-0.1,0-0.1,0-0.2,0c-0.4,0-0.7,0-0.9,0.1s-0.4,0.2-0.5,0.3s-0.2,0.3-0.2,0.5s-0.1,0.4-0.1,0.7c0,0.5,0,0.8,0.1,1.1
			c0,0.3,0.1,0.5,0.1,0.7s0.1,0.3,0.1,0.4c0,0.1,0.1,0.2,0.1,0.3s-0.1,0.2-0.2,0.4c-0.1,0.1-0.2,0.2-0.3,0.2c-0.2,0-0.3-0.2-0.5-0.5
			c-0.1-0.3-0.3-0.7-0.4-1.1c-0.1-0.4-0.2-0.9-0.2-1.3s-0.1-0.7-0.1-1c0-0.2,0-0.5,0.1-0.7s0.1-0.4,0.2-0.6c0.1-0.2,0.2-0.3,0.2-0.4
			s0.2-0.2,0.3-0.2c0.1,0,0.1,0,0.2,0.1c0,0.1,0.1,0.1,0.1,0.2c0,0.1,0.1,0.1,0.1,0.2c0,0.1,0.1,0.1,0.1,0.1c0.1,0,0.3-0.1,0.6-0.2
			c0.3-0.1,0.7-0.2,1.1-0.2c0.4,0,0.7,0,0.9,0s0.4,0.1,0.6,0.1c0,0,0.1,0,0.2,0.1C130.6,39.6,130.7,39.6,130.7,39.8z"/>
		<path class="st0" d="M137.4,43.6c0,0.2-0.1,0.5-0.3,0.6c-0.2,0.2-0.4,0.3-0.6,0.5c-0.3,0.1-0.5,0.2-0.8,0.3s-0.6,0.1-0.9,0.2
			s-0.5,0.1-0.7,0.1s-0.3,0-0.4,0c-0.3,0-0.6-0.1-0.7-0.2c-0.2-0.1-0.3-0.3-0.3-0.5c0-0.1,0-0.2,0-0.2s0.1-0.1,0.2-0.1
			c0,0,0.1,0,0.2,0s0.2,0,0.2,0s0.2,0,0.6,0c0.3,0,0.7-0.1,1-0.1s0.7-0.1,1-0.3s0.4-0.3,0.4-0.4c0,0-0.2-0.1-0.5-0.3
			s-0.8-0.4-1.4-0.8c-0.5-0.3-0.8-0.6-1-0.9s-0.3-0.7-0.3-1.2c0-0.3,0.1-0.6,0.2-0.8c0.1-0.2,0.3-0.4,0.6-0.5
			c0.2-0.1,0.5-0.2,0.8-0.3s0.6-0.1,1-0.1c0,0,0.1,0,0.3,0s0.3,0.1,0.5,0.1s0.3,0.1,0.5,0.2s0.2,0.2,0.2,0.3c0,0,0,0.1-0.1,0.1
			c-0.1,0.1-0.1,0.2-0.3,0.3c0,0-0.1,0-0.2-0.1c-0.1,0-0.2-0.1-0.4-0.1c-0.1,0-0.3-0.1-0.4-0.1s-0.3,0-0.4,0c-0.4,0-0.7,0.1-0.9,0.2
			c-0.2,0.1-0.4,0.4-0.4,0.8c0,0.2,0.1,0.4,0.2,0.5c0.2,0.2,0.3,0.3,0.6,0.5c0.2,0.1,0.5,0.3,0.8,0.4c0.3,0.1,0.5,0.3,0.8,0.5
			c0.2,0.2,0.4,0.3,0.6,0.5C137.3,43.1,137.4,43.3,137.4,43.6z"/>
		<path class="st0" d="M143.2,41.7c0,0.3,0,0.6-0.1,0.9c-0.1,0.3-0.2,0.6-0.4,0.8c-0.1,0.2-0.3,0.4-0.5,0.5s-0.4,0.2-0.6,0.2
			c-0.4,0-0.7-0.1-1-0.4c-0.2-0.2-0.4-0.5-0.5-0.8s-0.2-0.6-0.2-0.9c0-0.3-0.1-0.6-0.1-0.7c0-0.3,0-0.6,0.1-0.9
			c0.1-0.3,0.2-0.6,0.3-0.9c0.1-0.3,0.3-0.5,0.5-0.7s0.4-0.3,0.5-0.3c0,0,0.1,0,0.2,0s0.2,0.1,0.3,0.1c0.1,0.1,0.2,0.1,0.3,0.2
			c0.1,0.1,0.1,0.2,0.2,0.3c0.2,0,0.3,0.1,0.5,0.2c0.2,0.1,0.2,0.2,0.3,0.2c0.1,0.4,0.2,0.8,0.2,1.1
			C143.2,41.1,143.2,41.5,143.2,41.7z M142.2,41.3c0-0.2,0-0.5-0.1-0.7c0-0.2-0.1-0.5-0.3-0.7h-0.1c-0.1,0-0.1,0-0.1,0h-0.1
			c-0.2,0-0.3,0-0.4,0.1c-0.1,0.1-0.2,0.2-0.2,0.4c-0.1,0.2-0.1,0.3-0.1,0.5s0,0.3,0,0.5s0,0.3,0,0.5s0,0.4,0.1,0.6
			c0.1,0.2,0.1,0.3,0.2,0.5s0.2,0.2,0.4,0.2s0.3-0.1,0.4-0.2c0.1-0.2,0.2-0.3,0.2-0.5s0.1-0.4,0.1-0.6
			C142.2,41.5,142.2,41.4,142.2,41.3z"/>
		<path class="st0" d="M152,43.8c0,0.1,0,0.2-0.1,0.3s-0.1,0.2-0.2,0.2c-0.1,0.1-0.2,0.1-0.3,0.2c-0.1,0.1-0.2,0.1-0.3,0.1
			c-0.2,0-0.6-0.1-1-0.2s-0.7-0.3-0.9-0.5s-0.5-0.5-0.7-0.9c-0.2-0.3-0.4-0.9-0.6-1.5c-0.2,0.6-0.3,1.3-0.6,1.9
			c-0.2,0.6-0.6,1.2-1,1.7h-0.1c-0.1,0-0.2-0.1-0.3-0.2c-0.1-0.1-0.2-0.2-0.2-0.3s0-0.3,0-0.7s0-0.8-0.1-1.3s-0.1-0.9-0.1-1.4
			s0-0.9,0-1.2c0-0.1,0-0.3,0-0.6c0-0.2,0.1-0.5,0.1-0.6c0,0,0.1-0.1,0.2-0.2c0.1-0.1,0.2-0.1,0.3-0.1s0.2,0.1,0.2,0.2
			c0,0.1,0,0.3,0,0.4v3.5c0,0.1,0,0.2,0,0.3s0.1,0.2,0.1,0.3c0.2-0.4,0.3-0.8,0.5-1.2c0.1-0.5,0.3-0.9,0.4-1.4
			c0.1-0.4,0.3-0.8,0.4-1.1c0.1-0.3,0.3-0.5,0.4-0.5c0.1,0,0.3,0,0.4,0.1s0.2,0.2,0.2,0.4c0.1,0.4,0.1,0.8,0.2,1.1s0.1,0.6,0.2,0.9
			c0.1,0.3,0.2,0.5,0.3,0.7s0.3,0.4,0.5,0.6c0.2,0.2,0.4,0.3,0.7,0.4c0.3,0.1,0.5,0.1,0.7,0.1c0.1,0,0.2,0,0.3-0.1s0.2-0.1,0.2-0.1
			c0.1,0,0.1,0.1,0.2,0.2C152,43.7,152,43.7,152,43.8z"/>
		<path class="st0" d="M163.6,41.9c0,0.3-0.1,0.6-0.4,1c-0.2,0.4-0.6,0.8-1,1.1c-0.4,0.4-0.9,0.7-1.4,0.9c-0.5,0.3-1.1,0.4-1.7,0.4
			c-0.3,0-0.5,0-0.8-0.1s-0.6-0.2-0.9-0.4c-0.3-0.2-0.5-0.4-0.7-0.6c-0.2-0.2-0.4-0.5-0.5-0.8c-0.1,0.1-0.2,0.2-0.3,0.4
			s-0.3,0.4-0.4,0.6c-0.1,0.2-0.3,0.4-0.5,0.6c-0.2,0.2-0.4,0.2-0.5,0.2s-0.3-0.1-0.5-0.3c-0.1-0.2-0.2-0.4-0.3-0.7
			c-0.1-0.2-0.1-0.5-0.2-0.7c0-0.2,0-0.3,0-0.4c0-0.2,0.1-0.5,0.2-1c0.1-0.5,0.3-1,0.5-1.5s0.5-1,0.8-1.4s0.7-0.6,1.1-0.6
			c0.2,0,0.3,0.1,0.3,0.2c0.1,0.1,0.1,0.3,0.1,0.4v0.7c0.1,0.1,0.2,0.1,0.2,0.1c0.1,0,0.2,0.1,0.2,0.1c0.1,0,0.1,0.1,0.2,0.2
			c0,0.1,0.1,0.2,0.1,0.4c0,0.1,0,0.2,0,0.3s0,0.2,0,0.2c0,0.4,0,0.8,0.1,1.1c0.1,0.4,0.2,0.7,0.4,1s0.4,0.5,0.7,0.7
			s0.7,0.3,1.2,0.3c0.6,0,1.2-0.1,1.6-0.4s0.8-0.6,1.1-0.9c0.3-0.3,0.5-0.6,0.7-0.9c0.2-0.3,0.3-0.4,0.4-0.4
			C163.5,41.6,163.6,41.7,163.6,41.9z M155.9,40.9c0-0.1,0-0.1,0-0.2c0-0.1,0-0.1,0-0.1c0-0.1,0-0.1,0-0.2c0,0,0-0.1,0-0.2v-0.1
			c0,0,0,0,0-0.1c-0.1,0-0.3,0.2-0.4,0.4c-0.1,0.2-0.3,0.5-0.4,0.8s-0.2,0.6-0.3,0.9c-0.1,0.3-0.1,0.5-0.1,0.7c0,0.1,0,0.3,0.1,0.5
			s0.1,0.4,0.2,0.5c0.2-0.5,0.5-1,0.7-1.5C155.8,41.9,155.9,41.4,155.9,40.9z"/>
		<path class="st0" d="M166.7,46.1c-0.1,0.1-0.2,0.1-0.3,0.1s-0.3-0.1-0.4-0.4c-0.1-0.2-0.3-0.6-0.4-0.9s-0.3-0.8-0.4-1.2
			c-0.1-0.4-0.2-0.9-0.3-1.3c-0.1-0.4-0.2-0.7-0.2-1c-0.1-0.3-0.1-0.4-0.1-0.4c0-0.1,0-0.2-0.1-0.5s-0.1-0.6-0.2-1.2
			c-0.1-0.5-0.2-1.2-0.3-2.1c-0.1-0.8-0.2-1.9-0.3-3.1c0-0.1,0-0.3,0.1-0.5c0-0.2,0.1-0.3,0.3-0.3s0.4,0.1,0.5,0.4
			c0.1,0.3,0.2,0.6,0.3,1s0.1,0.8,0.1,1.3c0,0.4,0.1,0.8,0.1,1.2c0.1,0.5,0.1,0.9,0.2,1.3c0.1,0.4,0.1,0.8,0.2,1.1
			c0.1,0.4,0.1,0.8,0.2,1.2c0.1,0.4,0.2,0.9,0.3,1.4l0.9,3.7C166.8,45.9,166.8,46,166.7,46.1z"/>
		<path class="st0" d="M169.8,36.3c0,0-0.1,0.1-0.2,0.2c-0.1,0.1-0.2,0.2-0.4,0.3c-0.1,0.1-0.3,0.2-0.4,0.3
			c-0.1,0.1-0.3,0.1-0.4,0.1c-0.1,0-0.1,0-0.2,0c-0.1,0-0.2,0-0.3-0.1c-0.1,0-0.2-0.1-0.3-0.2c-0.1-0.1-0.1-0.2-0.1-0.3
			c0-0.2,0.1-0.4,0.2-0.6c0.1-0.2,0.3-0.3,0.6-0.3c0,0,0.1,0,0.3,0.1c0.2,0,0.3,0.1,0.5,0.1c0.2,0.1,0.3,0.1,0.4,0.2
			C169.8,36.2,169.8,36.3,169.8,36.3z M170.6,44.6c0,0.1-0.1,0.2-0.2,0.3c-0.2,0.1-0.3,0.1-0.3,0.1c-0.1,0-0.3-0.1-0.4-0.3
			c-0.1-0.2-0.2-0.4-0.3-0.7s-0.2-0.5-0.2-0.7c-0.1-0.2-0.1-0.4-0.1-0.5s-0.1-0.3-0.2-0.5c-0.1-0.2-0.1-0.4-0.2-0.6
			c-0.1-0.2-0.1-0.4-0.2-0.5s-0.1-0.2-0.1-0.2c0-0.2,0-0.4,0.1-0.6c0.1-0.2,0.2-0.3,0.3-0.3s0.3,0.1,0.4,0.3s0.3,0.5,0.4,0.8
			c0.1,0.3,0.3,0.7,0.4,1s0.2,0.7,0.3,1.1c0.1,0.3,0.2,0.6,0.2,0.9C170.5,44.4,170.6,44.5,170.6,44.6z"/>
		<path class="st0" d="M177.8,36.5c-0.2,0.2-0.5,0.4-0.8,0.6c-0.4,0.2-0.7,0.4-1.1,0.6c-0.4,0.2-0.7,0.3-0.9,0.5
			c-0.3,0.1-0.4,0.2-0.4,0.3s0,0.2,0.1,0.4s0.1,0.5,0.2,0.8c0.1,0.3,0.2,0.6,0.3,0.9c0.1,0.3,0.2,0.6,0.2,0.9c0,0.1,0.1,0.3,0.1,0.6
			s0.1,0.5,0.1,0.7s0.1,0.4,0.1,0.6c0,0.2,0,0.3,0,0.3c0,0.2,0,0.4-0.1,0.7c-0.1,0.2-0.2,0.4-0.4,0.4c-0.1,0-0.2,0-0.2-0.1
			c-0.1-0.1-0.1-0.2-0.2-0.3c-0.1-0.1-0.1-0.2-0.1-0.3s0-0.2,0-0.2v-0.1c0-0.1,0-0.1,0-0.2c0-0.3,0-0.7-0.1-1.2
			c0-0.2-0.1-0.4-0.2-0.7c-0.1-0.3-0.2-0.7-0.3-1c-0.1-0.4-0.2-0.9-0.4-1.3c-0.1-0.2-0.1-0.3-0.1-0.3c-0.1,0-0.3,0.1-0.5,0.2
			c-0.2,0.1-0.5,0.3-0.8,0.5s-0.6,0.4-1,0.6c-0.3,0.2-0.7,0.4-0.9,0.6c-0.3,0.2-0.5,0.3-0.8,0.5c-0.2,0.1-0.3,0.2-0.4,0.2
			c-0.2,0-0.3-0.1-0.5-0.2c-0.1-0.1-0.2-0.3-0.2-0.4c0-0.1,0.1-0.2,0.4-0.4c0.2-0.2,0.5-0.4,0.9-0.6c0.4-0.2,0.7-0.4,1.2-0.6
			c0.4-0.2,0.8-0.4,1.2-0.6c0.4-0.2,0.8-0.4,1.3-0.6c-0.1-0.7-0.2-1.3-0.3-1.8s-0.1-0.9-0.2-1.3c-0.1-0.4-0.1-0.6-0.1-0.6
			c0-0.2,0-0.3,0.1-0.4c0.1-0.1,0.2-0.1,0.3-0.1c0.2,0,0.3,0.1,0.3,0.3c0.2,0.8,0.3,1.5,0.5,2.1c0.1,0.6,0.3,1.1,0.4,1.5
			c0.1,0,0.4-0.1,0.7-0.3c0.3-0.1,0.7-0.3,1-0.5c0.4-0.2,0.7-0.3,1-0.4c0.3-0.1,0.5-0.2,0.5-0.2c0.1,0,0.1,0,0.2,0.1
			C177.7,36.4,177.7,36.5,177.8,36.5z"/>
		<path class="st0" d="M180.3,36.3c0,0-0.1,0.1-0.2,0.2c-0.1,0.1-0.2,0.2-0.4,0.3c-0.1,0.1-0.3,0.2-0.4,0.3
			c-0.1,0.1-0.3,0.1-0.4,0.1c-0.1,0-0.1,0-0.2,0c-0.1,0-0.2,0-0.3-0.1c-0.1,0-0.2-0.1-0.3-0.2c-0.1-0.1-0.1-0.2-0.1-0.3
			c0-0.2,0.1-0.4,0.2-0.6c0.1-0.2,0.3-0.3,0.6-0.3c0,0,0.1,0,0.3,0.1c0.2,0,0.3,0.1,0.5,0.1c0.2,0.1,0.3,0.1,0.4,0.2
			C180.2,36.2,180.3,36.3,180.3,36.3z M181,44.6c0,0.1-0.1,0.2-0.2,0.3c-0.2,0.1-0.3,0.1-0.3,0.1c-0.1,0-0.3-0.1-0.4-0.3
			c-0.1-0.2-0.2-0.4-0.3-0.7s-0.2-0.5-0.2-0.7c-0.1-0.2-0.1-0.4-0.1-0.5s-0.1-0.3-0.2-0.5c-0.1-0.2-0.1-0.4-0.2-0.6
			c-0.1-0.2-0.1-0.4-0.2-0.5s-0.1-0.2-0.1-0.2c0-0.2,0-0.4,0.1-0.6c0.1-0.2,0.2-0.3,0.3-0.3s0.3,0.1,0.4,0.3s0.3,0.5,0.4,0.8
			c0.1,0.3,0.3,0.7,0.4,1s0.2,0.7,0.3,1.1c0.1,0.3,0.2,0.6,0.2,0.9C181,44.4,181,44.5,181,44.6z"/>
		<path class="st0" d="M188.5,44.1L188.5,44.1c0,0.2-0.1,0.3-0.2,0.5c0,0.1-0.1,0.2-0.3,0.3c-0.1,0.1-0.3,0.3-0.6,0.4
			c-0.2,0.1-0.6,0.2-0.9,0.4c-0.4,0.1-0.8,0.2-1.3,0.2c-0.3,0-0.7-0.1-1-0.2c-0.3-0.2-0.6-0.4-0.9-0.7c-0.2-0.3-0.5-0.7-0.6-1.1
			s-0.2-1-0.2-1.6s0.1-1.1,0.2-1.6c0.1-0.5,0.3-0.9,0.6-1.3s0.5-0.7,0.8-0.9s0.6-0.3,0.8-0.3s0.5,0,0.7,0.1s0.5,0.2,0.7,0.4
			c0.2,0.1,0.4,0.3,0.5,0.5s0.2,0.4,0.2,0.6c0,0.2-0.1,0.4-0.3,0.7c-0.2,0.2-0.4,0.5-0.7,0.6c-0.3,0.2-0.6,0.4-0.8,0.5
			s-0.5,0.2-0.7,0.2c-0.1,0-0.2,0-0.2-0.1c-0.1-0.1-0.1-0.2-0.1-0.3c0-0.2,0.1-0.4,0.3-0.5s0.4-0.2,0.6-0.3c0.2-0.1,0.4-0.2,0.6-0.3
			c0.2-0.1,0.3-0.3,0.3-0.6c0,0,0-0.1-0.1-0.2c-0.1-0.1-0.3-0.2-0.6-0.2c-0.1,0-0.3,0.1-0.5,0.3s-0.4,0.4-0.6,0.7
			c-0.2,0.3-0.3,0.6-0.4,1c-0.1,0.4-0.2,0.8-0.2,1.3c0,0.4,0.1,0.7,0.2,1c0.1,0.3,0.3,0.6,0.5,0.8s0.5,0.4,0.8,0.5s0.6,0.2,0.9,0.2
			c0.2,0,0.5,0,0.7-0.1c0.3-0.1,0.5-0.2,0.7-0.3s0.4-0.2,0.6-0.3c0.2-0.1,0.3-0.1,0.3-0.1s0.1,0,0.1,0.1
			C188.4,44.1,188.5,44.1,188.5,44.1z"/>
		<path class="st0" d="M195,43.6c0,0.2-0.1,0.5-0.3,0.6c-0.2,0.2-0.4,0.3-0.6,0.5c-0.3,0.1-0.5,0.2-0.8,0.3s-0.6,0.1-0.9,0.2
			s-0.5,0.1-0.7,0.1s-0.3,0-0.4,0c-0.3,0-0.6-0.1-0.7-0.2c-0.2-0.1-0.3-0.3-0.3-0.5c0-0.1,0-0.2,0-0.2s0.1-0.1,0.2-0.1
			c0,0,0.1,0,0.2,0s0.2,0,0.2,0s0.2,0,0.6,0c0.3,0,0.7-0.1,1-0.1s0.7-0.1,1-0.3s0.4-0.3,0.4-0.4c0,0-0.2-0.1-0.5-0.3
			s-0.8-0.4-1.4-0.8c-0.5-0.3-0.8-0.6-1-0.9s-0.3-0.7-0.3-1.2c0-0.3,0.1-0.6,0.2-0.8c0.1-0.2,0.3-0.4,0.6-0.5
			c0.2-0.1,0.5-0.2,0.8-0.3s0.6-0.1,1-0.1c0,0,0.1,0,0.3,0s0.3,0.1,0.5,0.1s0.3,0.1,0.5,0.2s0.2,0.2,0.2,0.3c0,0,0,0.1-0.1,0.1
			c-0.1,0.1-0.1,0.2-0.3,0.3c0,0-0.1,0-0.2-0.1c-0.1,0-0.2-0.1-0.4-0.1c-0.1,0-0.3-0.1-0.4-0.1s-0.3,0-0.4,0c-0.4,0-0.7,0.1-0.9,0.2
			c-0.2,0.1-0.4,0.4-0.4,0.8c0,0.2,0.1,0.4,0.2,0.5c0.2,0.2,0.3,0.3,0.6,0.5c0.2,0.1,0.5,0.3,0.8,0.4c0.3,0.1,0.5,0.3,0.8,0.5
			c0.2,0.2,0.4,0.3,0.6,0.5C194.9,43.1,195,43.3,195,43.6z"/>
	</g>
	<g>
		<path class="st0" d="M55.5,13.1c0,0.1,0,0.2-0.1,0.2s-0.1,0.1-0.2,0.1c-0.1,0-0.3,0-0.6,0c-0.3,0-0.5,0.1-0.8,0.1
			c-0.3,0-0.6,0.1-0.9,0.1s-0.5,0.1-0.7,0.1c-0.1,0-0.2,0-0.3,0c-0.2,0-0.4,0-0.6,0.1c-0.2,0-0.4,0-0.6,0.1c-0.2,0-0.4,0-0.5,0.1
			c-0.1,0-0.4,0.1-0.6,0.1c-0.3,0.1-0.5,0.1-0.8,0.2c-0.1,0-0.2,0-0.2,0.1c-0.1,0-0.1,0-0.2,0c-0.1,0-0.1,0-0.1,0l1.1,3.8
			c0,0.1,0.1,0.3,0.2,0.6s0.2,0.6,0.3,0.9c0.1,0.3,0.3,0.7,0.4,1c0.1,0.3,0.3,0.7,0.4,1c0.1,0.2,0.1,0.4,0.2,0.6
			c0.1,0.3,0.2,0.5,0.2,0.8c0.1,0.3,0.1,0.5,0.2,0.7s0.1,0.4,0.1,0.4c0,0.2-0.1,0.4-0.2,0.6c-0.1,0.2-0.2,0.3-0.4,0.3
			c-0.2,0-0.2-0.1-0.2-0.3v-0.1c0,0,0-0.1,0-0.1c0-0.1,0-0.1,0-0.2c0-0.1,0-0.3-0.1-0.5c-0.1-0.3-0.2-0.6-0.3-0.9
			c-0.1-0.3-0.2-0.7-0.4-1c-0.1-0.4-0.3-0.7-0.4-1c-0.1-0.3-0.2-0.6-0.3-0.8c-0.1-0.2-0.2-0.4-0.2-0.5c0-0.1-0.1-0.3-0.2-0.5
			c-0.1-0.2-0.1-0.4-0.2-0.7c-0.1-0.3-0.2-0.5-0.2-0.8c-0.1-0.3-0.2-0.6-0.2-0.8c-0.2-0.7-0.4-1.4-0.7-2.1c-0.1,0-0.3,0-0.6,0.1
			c-0.4,0-0.8,0.1-1.2,0.1c-0.5,0.1-0.9,0.1-1.3,0.2c-0.4,0-0.7,0.1-0.8,0.1c-0.3,0-0.5-0.1-0.6-0.2s-0.1-0.2-0.2-0.4
			c0-0.1,0-0.2,0.1-0.3c0.1-0.1,0.1-0.2,0.2-0.2c0.1,0,0.2,0,0.2,0c0.1,0,0.1,0.1,0.2,0.1c0,0,0.2,0,0.4,0c0.2,0,0.5-0.1,0.9-0.1
			c0.3,0,0.7-0.1,1.1-0.1c0.4,0,0.7-0.1,1-0.1c0.1,0,0.1,0,0.2,0s0.1,0,0.2,0s0.1,0,0.2,0c0,0,0-0.1,0.1-0.3s0.1-0.2,0.1-0.2
			c0.1,0,0.2,0,0.3,0.2c0.1,0.1,0.2,0.2,0.2,0.2c0.1,0,0.2,0,0.4-0.1c0.2,0,0.4-0.1,0.6-0.1c0.2,0,0.4-0.1,0.6-0.1
			c0.2,0,0.4-0.1,0.5-0.1l2.3-0.1c0.2,0,0.4,0,0.7-0.1c0.3,0,0.5,0,0.8-0.1s0.5,0,0.7-0.1c0.2,0,0.3,0,0.4,0c0.1,0,0.2,0.1,0.3,0.1
			C55.5,12.9,55.5,13,55.5,13.1z"/>
		<path class="st0" d="M62.5,19.9c0,0.2-0.1,0.5-0.3,0.9c-0.2,0.4-0.5,0.7-0.9,1c-0.4,0.3-0.8,0.6-1.3,0.9S59,23,58.5,23
			c-0.2,0-0.5,0-0.8-0.1c-0.3-0.1-0.5-0.2-0.8-0.3c-0.3-0.2-0.5-0.3-0.7-0.6c-0.2-0.2-0.3-0.5-0.4-0.8c-0.1,0.1-0.2,0.2-0.3,0.4
			s-0.2,0.4-0.4,0.6s-0.3,0.4-0.4,0.5c-0.2,0.1-0.3,0.2-0.5,0.2s-0.3-0.1-0.4-0.3s-0.2-0.4-0.3-0.6c-0.1-0.2-0.1-0.4-0.1-0.6
			c0-0.2,0-0.3,0-0.3c0-0.2,0-0.5,0.1-0.9c0.1-0.4,0.2-0.9,0.4-1.4c0.2-0.5,0.4-0.9,0.7-1.3c0.3-0.4,0.6-0.6,1-0.6
			c0.1,0,0.2,0.1,0.3,0.2s0.1,0.2,0.1,0.4v0.6c0.1,0.1,0.1,0.1,0.2,0.1c0.1,0,0.1,0,0.2,0.1s0.1,0.1,0.1,0.1c0,0.1,0,0.2,0,0.3
			c0,0.1,0,0.2,0,0.2s0,0.1,0,0.2c0,0.3,0,0.7,0.1,1c0.1,0.3,0.2,0.6,0.3,0.9c0.2,0.3,0.4,0.5,0.7,0.6c0.3,0.2,0.7,0.2,1.1,0.2
			c0.6,0,1.1-0.1,1.5-0.4c0.4-0.2,0.7-0.5,1-0.8c0.3-0.3,0.5-0.6,0.6-0.8c0.2-0.2,0.3-0.4,0.4-0.4C62.5,19.7,62.5,19.7,62.5,19.9z
			 M55.5,19c0-0.1,0-0.1,0-0.2c0,0,0-0.1,0-0.1c0-0.1,0-0.1,0-0.1c0,0,0-0.1,0-0.2c0,0,0-0.1,0-0.1c0,0,0,0,0-0.1
			c-0.1,0-0.2,0.1-0.4,0.3c-0.1,0.2-0.2,0.4-0.4,0.7c-0.1,0.3-0.2,0.5-0.3,0.8c-0.1,0.3-0.1,0.5-0.1,0.7c0,0.1,0,0.2,0.1,0.5
			c0.1,0.2,0.1,0.4,0.2,0.4c0.2-0.5,0.4-0.9,0.6-1.4C55.4,19.9,55.5,19.5,55.5,19z"/>
		<path class="st0" d="M69.2,18.3c0,0.3-0.1,0.7-0.3,1c-0.2,0.3-0.4,0.6-0.7,0.9c-0.3,0.3-0.6,0.5-0.9,0.8c-0.3,0.2-0.6,0.4-0.9,0.6
			c-0.3,0.2-0.5,0.3-0.7,0.5c-0.2,0.1-0.3,0.2-0.3,0.3c0,0.2,0,0.4,0.1,0.7s0.1,0.7,0.1,1c0.1,0.4,0.1,0.7,0.2,1.1s0.1,0.7,0.1,1.1
			c0,0,0,0.1,0,0.2c0,0.1,0,0.2,0.1,0.4c0,0.1,0.1,0.3,0.1,0.4s0,0.2,0,0.2c0,0.1,0,0.2,0,0.3s0,0.2-0.1,0.3c0,0.1-0.1,0.2-0.1,0.2
			c-0.1,0.1-0.2,0.1-0.3,0.1c-0.1,0-0.3-0.1-0.3-0.2c-0.1-0.1-0.1-0.2-0.1-0.4c0,0,0-0.1,0-0.1c0,0,0-0.1,0-0.1
			c0-0.1-0.1-0.5-0.2-1.2c-0.1-0.6-0.2-1.4-0.4-2.3s-0.3-1.8-0.4-2.9c-0.1-1-0.2-2-0.2-2.9c0-0.1,0-0.1,0-0.2s0-0.2,0-0.2
			c-0.1,0-0.3,0.1-0.6,0.2c-0.3,0.1-0.5,0.2-0.8,0.4c-0.3,0.2-0.5,0.3-0.7,0.5c-0.2,0.2-0.3,0.3-0.3,0.5h-0.1c0,0-0.1,0-0.1-0.1
			c-0.1-0.1-0.1-0.1-0.2-0.2c0-0.1-0.1-0.1-0.1-0.2c0-0.1-0.1-0.1-0.1-0.1c0-0.3,0.2-0.5,0.5-0.8c0.3-0.2,0.8-0.5,1.2-0.7
			s1.1-0.3,1.6-0.5c0.6-0.1,1.2-0.2,1.7-0.2c0.5,0,1,0.1,1.3,0.2c0.4,0.1,0.6,0.3,0.9,0.4c0.2,0.2,0.4,0.3,0.5,0.5
			C69.2,18,69.2,18.2,69.2,18.3z M68.2,18.2c0-0.1-0.2-0.3-0.5-0.4c-0.3-0.1-0.7-0.2-1.2-0.2c-0.4,0-0.7,0-0.9,0
			c-0.2,0-0.3,0.1-0.4,0.1c0,0.2,0,0.5-0.1,0.8c0,0.3,0,0.6,0,0.9c0,0.3,0,0.6,0,0.9s0,0.5,0.1,0.8c0.2-0.1,0.4-0.3,0.8-0.5
			c0.3-0.2,0.7-0.4,1-0.7c0.3-0.3,0.6-0.5,0.8-0.8C68.1,18.8,68.2,18.5,68.2,18.2z"/>
	</g>
</g>
</svg>
