<?xml version="1.0" encoding="utf-8"?>
<!-- Generator: Adobe Illustrator 22.1.0, SVG Export Plug-In . SVG Version: 6.00 Build 0)  -->
<svg version="1.1" id="Layer_1" xmlns="http://www.w3.org/2000/svg" xmlns:xlink="http://www.w3.org/1999/xlink" x="0px" y="0px"
	 viewBox="0 0 618.7 166" style="enable-background:new 0 0 618.7 166;" xml:space="preserve">
<style type="text/css">
	.st0{fill:#EB1D39;}
	.st1{fill:#231F20;}
	.st2{fill:#FFFFFF;}
</style>
<g>
	<path class="st0" d="M114,16.2v20L64.4,149.7H30.9L78.7,41.3H34.5v21.7H7V16.2H114z"/>
	<path class="st0" d="M218.5,121.6h-21.7v28h-30.1v-28H94.8v-20.8l62.9-84.7h32.4l-58.4,80.3h35.9v-25h29.2v25h21.7V121.6z"/>
</g>
<g>
	<g>
		<path class="st1" d="M203.9,23.5c0-6.5,4.1-10.4,9.6-10.4c5.6,0,9.6,3.9,9.6,10.4c0,6.5-4.1,10.4-9.6,10.4
			C208,33.9,203.9,30,203.9,23.5z M235.7,13.6h7.7l-25.6,37.5h-7.7L235.7,13.6z M230.4,41.2c0-6.5,4-10.4,9.6-10.4
			c5.6,0,9.6,3.9,9.6,10.4c0,6.5-4.1,10.4-9.6,10.4C234.4,51.6,230.4,47.7,230.4,41.2z"/>
	</g>
</g>
<g>
	<path class="st1" d="M277.7,52.2c-3.4-1.8-6-4.3-7.9-7.5s-2.9-6.8-2.9-10.8c0-4,1-7.6,2.9-10.8s4.6-5.7,7.9-7.5
		c3.4-1.8,7.2-2.7,11.4-2.7s8,0.9,11.4,2.7c3.4,1.8,6,4.3,7.9,7.5s2.9,6.8,2.9,10.8c0,4-1,7.6-2.9,10.8s-4.6,5.7-7.9,7.5
		c-3.4,1.8-7.2,2.7-11.4,2.7S281.1,54.1,277.7,52.2z M295.6,45.3c1.9-1.1,3.5-2.6,4.6-4.6c1.1-2,1.7-4.2,1.7-6.7
		c0-2.5-0.6-4.8-1.7-6.7c-1.1-2-2.6-3.5-4.6-4.6s-4.1-1.7-6.5-1.7s-4.6,0.6-6.5,1.7c-1.9,1.1-3.5,2.6-4.6,4.6
		c-1.1,2-1.7,4.2-1.7,6.7c0,2.5,0.6,4.8,1.7,6.7c1.1,2,2.6,3.5,4.6,4.6c1.9,1.1,4.1,1.7,6.5,1.7S293.7,46.4,295.6,45.3z"/>
	<path class="st1" d="M324.9,21.2v10.7h18.8v7.5h-18.8v14.8h-9.4V13.7h30.7v7.5H324.9z"/>
	<path class="st1" d="M398.4,36.8c1.3,1.7,2,3.8,2,6.4c0,3.6-1.4,6.3-4.1,8.2c-2.8,1.9-6.8,2.9-12.1,2.9h-21V13.7H383
		c4.9,0,8.7,0.9,11.4,2.8c2.6,1.9,4,4.5,4,7.7c0,2-0.5,3.7-1.4,5.3c-0.9,1.5-2.3,2.8-4,3.7C395.3,33.9,397.1,35.1,398.4,36.8z
		 M372.5,20.8v9.6h9.3c2.3,0,4.1-0.4,5.3-1.2c1.2-0.8,1.8-2,1.8-3.6c0-1.6-0.6-2.8-1.8-3.6c-1.2-0.8-3-1.2-5.3-1.2H372.5z M389.1,46
		c1.3-0.8,1.9-2.1,1.9-3.8c0-3.4-2.5-5-7.5-5h-11v10h11C385.9,47.2,387.8,46.8,389.1,46z"/>
	<path class="st1" d="M430.5,54.3L422.7,43h-0.5H414v11.3h-9.4V13.7h17.6c3.6,0,6.7,0.6,9.4,1.8c2.6,1.2,4.7,2.9,6.1,5.1
		c1.4,2.2,2.1,4.8,2.1,7.8c0,3-0.7,5.6-2.2,7.8c-1.5,2.2-3.5,3.9-6.2,5l9.1,13H430.5z M428.1,23.2c-1.5-1.2-3.6-1.8-6.4-1.8H414
		v14.2h7.7c2.8,0,5-0.6,6.4-1.9c1.5-1.2,2.2-3,2.2-5.2C430.3,26.1,429.6,24.4,428.1,23.2z"/>
	<path class="st1" d="M471.1,45.6h-18.8l-3.6,8.7H439l18.1-40.6h9.3l18.2,40.6h-9.9L471.1,45.6z M468.1,38.4l-6.4-15.5l-6.4,15.5
		H468.1z"/>
	<path class="st1" d="M523.1,13.7v40.6h-7.7l-20.2-24.6v24.6h-9.3V13.7h7.8l20.2,24.6V13.7H523.1z"/>
	<path class="st1" d="M529.8,13.7h18.4c4.4,0,8.3,0.8,11.7,2.5c3.4,1.7,6,4.1,7.9,7.1c1.9,3.1,2.8,6.6,2.8,10.7
		c0,4.1-0.9,7.6-2.8,10.7c-1.9,3.1-4.5,5.4-7.9,7.1s-7.3,2.5-11.7,2.5h-18.4V13.7z M547.8,46.6c4.1,0,7.3-1.1,9.7-3.4
		c2.4-2.3,3.6-5.3,3.6-9.2c0-3.9-1.2-6.9-3.6-9.2c-2.4-2.3-5.7-3.4-9.7-3.4h-8.6v25.2H547.8z"/>
	<path class="st1" d="M578.9,53.7c-3-0.9-5.4-2-7.2-3.4l3.2-7.1c1.7,1.3,3.8,2.3,6.2,3.1c2.4,0.8,4.8,1.2,7.2,1.2
		c2.7,0,4.6-0.4,5.9-1.2c1.3-0.8,1.9-1.8,1.9-3.2c0-1-0.4-1.8-1.1-2.4c-0.8-0.6-1.7-1.1-2.9-1.5c-1.2-0.4-2.8-0.8-4.8-1.3
		c-3.1-0.7-5.6-1.5-7.6-2.2c-2-0.7-3.7-1.9-5.1-3.5c-1.4-1.6-2.1-3.8-2.1-6.5c0-2.4,0.6-4.5,1.9-6.4s3.2-3.4,5.8-4.6
		c2.6-1.1,5.7-1.7,9.4-1.7c2.6,0,5.1,0.3,7.6,0.9c2.5,0.6,4.6,1.5,6.5,2.7l-2.9,7.1c-3.8-2.1-7.5-3.2-11.3-3.2
		c-2.6,0-4.6,0.4-5.8,1.3c-1.3,0.9-1.9,2-1.9,3.4c0,1.4,0.7,2.4,2.2,3.1c1.4,0.7,3.7,1.3,6.6,2c3.1,0.7,5.6,1.5,7.6,2.2
		c2,0.7,3.7,1.9,5.1,3.5c1.4,1.6,2.1,3.7,2.1,6.4c0,2.3-0.6,4.4-1.9,6.4c-1.3,1.9-3.2,3.4-5.8,4.6c-2.6,1.1-5.7,1.7-9.5,1.7
		C585,55,581.9,54.5,578.9,53.7z"/>
</g>
<g>
	<path class="st1" d="M269.3,81.1c-1.2-0.7-2.2-1.6-2.9-2.7c-0.7-1.2-1-2.5-1-3.9c0-1.5,0.3-2.8,1-3.9c0.7-1.2,1.6-2.1,2.9-2.7
		c1.2-0.7,2.6-1,4.1-1c1.3,0,2.4,0.2,3.5,0.7c1,0.4,1.9,1.1,2.6,1.9l-2.2,2c-1-1.1-2.2-1.7-3.7-1.7c-0.9,0-1.7,0.2-2.4,0.6
		s-1.3,1-1.7,1.7c-0.4,0.7-0.6,1.5-0.6,2.4c0,0.9,0.2,1.7,0.6,2.4c0.4,0.7,1,1.3,1.7,1.7c0.7,0.4,1.5,0.6,2.4,0.6
		c1.5,0,2.7-0.6,3.7-1.7l2.2,2c-0.7,0.9-1.6,1.5-2.6,2c-1,0.4-2.2,0.7-3.5,0.7C271.9,82.1,270.5,81.7,269.3,81.1z"/>
	<path class="st1" d="M283.4,81.1c-1.2-0.7-2.2-1.6-2.9-2.7s-1-2.5-1-3.9c0-1.4,0.3-2.7,1-3.9c0.7-1.2,1.7-2.1,2.9-2.7s2.6-1,4.1-1
		c1.5,0,2.9,0.3,4.1,1c1.2,0.7,2.2,1.6,2.9,2.7c0.7,1.2,1,2.5,1,3.9c0,1.4-0.4,2.7-1,3.9c-0.7,1.2-1.7,2.1-2.9,2.7
		c-1.2,0.7-2.6,1-4.1,1C286,82.1,284.6,81.7,283.4,81.1z M289.9,78.6c0.7-0.4,1.2-1,1.6-1.7c0.4-0.7,0.6-1.5,0.6-2.4
		c0-0.9-0.2-1.7-0.6-2.4c-0.4-0.7-0.9-1.3-1.6-1.7s-1.5-0.6-2.4-0.6c-0.9,0-1.7,0.2-2.4,0.6s-1.2,1-1.6,1.7
		c-0.4,0.7-0.6,1.5-0.6,2.4c0,0.9,0.2,1.7,0.6,2.4c0.4,0.7,0.9,1.3,1.6,1.7c0.7,0.4,1.5,0.6,2.4,0.6C288.4,79.2,289.2,79,289.9,78.6
		z"/>
	<path class="st1" d="M298.7,80.3c-1.2-1.2-1.8-2.8-1.8-5v-8.2h3.4v8.1c0,2.6,1.1,3.9,3.3,3.9c1.1,0,1.9-0.3,2.4-1
		c0.6-0.6,0.8-1.6,0.8-3v-8.1h3.4v8.2c0,2.2-0.6,3.8-1.8,5c-1.2,1.2-2.8,1.7-4.9,1.7S299.9,81.5,298.7,80.3z"/>
	<path class="st1" d="M312.6,67.1h3.4v11.9h7.4v2.8h-10.8V67.1z"/>
	<path class="st1" d="M324.2,67.1h6.7c1.6,0,3,0.3,4.2,0.9s2.2,1.5,2.9,2.6s1,2.4,1,3.9c0,1.5-0.3,2.8-1,3.9c-0.7,1.1-1.6,2-2.9,2.6
		c-1.2,0.6-2.6,0.9-4.2,0.9h-6.7V67.1z M330.7,79c1.5,0,2.6-0.4,3.5-1.2c0.9-0.8,1.3-1.9,1.3-3.3c0-1.4-0.4-2.5-1.3-3.3
		c-0.9-0.8-2-1.2-3.5-1.2h-3.1V79H330.7z"/>
	<path class="st1" d="M345.4,67.1h6.7c1.6,0,3,0.3,4.2,0.9s2.2,1.5,2.9,2.6c0.7,1.1,1,2.4,1,3.9c0,1.5-0.3,2.8-1,3.9
		c-0.7,1.1-1.6,2-2.9,2.6c-1.2,0.6-2.6,0.9-4.2,0.9h-6.7V67.1z M351.9,79c1.5,0,2.6-0.4,3.5-1.2c0.9-0.8,1.3-1.9,1.3-3.3
		c0-1.4-0.4-2.5-1.3-3.3c-0.9-0.8-2-1.2-3.5-1.2h-3.1V79H351.9z"/>
	<path class="st1" d="M361.7,67.1h3.4v14.7h-3.4V67.1z"/>
	<path class="st1" d="M369,81.6c-1.1-0.3-2-0.7-2.6-1.2l1.2-2.6c0.6,0.5,1.4,0.8,2.2,1.1s1.7,0.4,2.6,0.4c1,0,1.7-0.1,2.1-0.4
		c0.5-0.3,0.7-0.7,0.7-1.1c0-0.3-0.1-0.6-0.4-0.9c-0.3-0.2-0.6-0.4-1-0.6c-0.4-0.1-1-0.3-1.7-0.5c-1.1-0.3-2-0.5-2.8-0.8
		c-0.7-0.3-1.3-0.7-1.8-1.3c-0.5-0.6-0.8-1.4-0.8-2.4c0-0.9,0.2-1.6,0.7-2.3c0.5-0.7,1.2-1.2,2.1-1.6c0.9-0.4,2.1-0.6,3.4-0.6
		c0.9,0,1.9,0.1,2.8,0.3c0.9,0.2,1.7,0.5,2.4,1l-1,2.6c-1.4-0.8-2.7-1.2-4.1-1.2c-1,0-1.7,0.2-2.1,0.5s-0.7,0.7-0.7,1.2
		s0.3,0.9,0.8,1.1c0.5,0.2,1.3,0.5,2.4,0.7c1.1,0.3,2,0.5,2.8,0.8c0.7,0.3,1.3,0.7,1.8,1.3c0.5,0.6,0.8,1.4,0.8,2.3
		c0,0.8-0.2,1.6-0.7,2.3c-0.5,0.7-1.2,1.2-2.1,1.6c-0.9,0.4-2.1,0.6-3.4,0.6C371.2,82.1,370.1,81.9,369,81.6z"/>
	<path class="st1" d="M389.5,78.7h-6.8l-1.3,3.1h-3.5l6.6-14.7h3.4l6.6,14.7h-3.6L389.5,78.7z M388.5,76.1l-2.3-5.6l-2.3,5.6H388.5z
		"/>
	<path class="st1" d="M404.6,67.8c1,0.4,1.7,1,2.2,1.8c0.5,0.8,0.8,1.7,0.8,2.8c0,1.1-0.3,2-0.8,2.8c-0.5,0.8-1.3,1.4-2.2,1.8
		c-1,0.4-2.1,0.6-3.4,0.6h-3v4.1h-3.4V67.1h6.4C402.6,67.1,403.7,67.3,404.6,67.8z M403.4,74.3c0.5-0.4,0.8-1.1,0.8-1.9
		c0-0.8-0.3-1.5-0.8-1.9c-0.5-0.4-1.3-0.7-2.3-0.7h-2.8V75h2.8C402.1,75,402.9,74.8,403.4,74.3z"/>
	<path class="st1" d="M418.8,67.8c1,0.4,1.7,1,2.2,1.8c0.5,0.8,0.8,1.7,0.8,2.8c0,1.1-0.3,2-0.8,2.8c-0.5,0.8-1.3,1.4-2.2,1.8
		c-1,0.4-2.1,0.6-3.4,0.6h-3v4.1H409V67.1h6.4C416.7,67.1,417.8,67.3,418.8,67.8z M417.5,74.3c0.5-0.4,0.8-1.1,0.8-1.9
		c0-0.8-0.3-1.5-0.8-1.9c-0.5-0.4-1.3-0.7-2.3-0.7h-2.8V75h2.8C416.2,75,417,74.8,417.5,74.3z"/>
	<path class="st1" d="M434.5,79.1v2.7h-11.4V67.1h11.1v2.7h-7.7V73h6.8v2.6h-6.8v3.4H434.5z"/>
	<path class="st1" d="M445.8,78.7H439l-1.3,3.1h-3.5l6.6-14.7h3.4l6.6,14.7h-3.6L445.8,78.7z M444.8,76.1l-2.3-5.6l-2.3,5.6H444.8z"
		/>
	<path class="st1" d="M460.6,81.8l-2.8-4.1h-0.2h-3v4.1h-3.4V67.1h6.4c1.3,0,2.4,0.2,3.4,0.7s1.7,1,2.2,1.8c0.5,0.8,0.8,1.7,0.8,2.8
		c0,1.1-0.3,2-0.8,2.8c-0.5,0.8-1.3,1.4-2.2,1.8l3.3,4.7H460.6z M459.7,70.6c-0.5-0.4-1.3-0.7-2.3-0.7h-2.8V75h2.8
		c1,0,1.8-0.2,2.3-0.7c0.5-0.4,0.8-1.1,0.8-1.9C460.5,71.6,460.2,71,459.7,70.6z"/>
	<path class="st1" d="M473.5,69.9h-4.7v-2.8h12.8v2.8h-4.7v11.9h-3.4V69.9z"/>
	<path class="st1" d="M485.2,81.1c-1.2-0.7-2.2-1.6-2.9-2.7s-1-2.5-1-3.9c0-1.4,0.3-2.7,1-3.9c0.7-1.2,1.7-2.1,2.9-2.7s2.6-1,4.1-1
		s2.9,0.3,4.1,1c1.2,0.7,2.2,1.6,2.9,2.7c0.7,1.2,1,2.5,1,3.9c0,1.4-0.3,2.7-1,3.9c-0.7,1.2-1.7,2.1-2.9,2.7c-1.2,0.7-2.6,1-4.1,1
		S486.4,81.7,485.2,81.1z M491.7,78.6c0.7-0.4,1.2-1,1.6-1.7c0.4-0.7,0.6-1.5,0.6-2.4c0-0.9-0.2-1.7-0.6-2.4
		c-0.4-0.7-0.9-1.3-1.6-1.7c-0.7-0.4-1.5-0.6-2.4-0.6s-1.7,0.2-2.4,0.6c-0.7,0.4-1.2,1-1.6,1.7c-0.4,0.7-0.6,1.5-0.6,2.4
		c0,0.9,0.2,1.7,0.6,2.4s0.9,1.3,1.6,1.7c0.7,0.4,1.5,0.6,2.4,0.6S491,79,491.7,78.6z"/>
	<path class="st1" d="M512.2,81.8l0-8.8l-4.3,7.3h-1.5l-4.3-7.1v8.6h-3.2V67.1h2.8l5.5,9.1l5.4-9.1h2.8l0,14.7H512.2z"/>
	<path class="st1" d="M520.9,81.1c-1.2-0.7-2.2-1.6-2.9-2.7s-1-2.5-1-3.9c0-1.4,0.3-2.7,1-3.9c0.7-1.2,1.7-2.1,2.9-2.7s2.6-1,4.1-1
		s2.9,0.3,4.1,1c1.2,0.7,2.2,1.6,2.9,2.7c0.7,1.2,1,2.5,1,3.9c0,1.4-0.3,2.7-1,3.9c-0.7,1.2-1.7,2.1-2.9,2.7c-1.2,0.7-2.6,1-4.1,1
		S522.1,81.7,520.9,81.1z M527.3,78.6c0.7-0.4,1.2-1,1.6-1.7c0.4-0.7,0.6-1.5,0.6-2.4c0-0.9-0.2-1.7-0.6-2.4
		c-0.4-0.7-0.9-1.3-1.6-1.7c-0.7-0.4-1.5-0.6-2.4-0.6s-1.7,0.2-2.4,0.6c-0.7,0.4-1.2,1-1.6,1.7c-0.4,0.7-0.6,1.5-0.6,2.4
		c0,0.9,0.2,1.7,0.6,2.4s0.9,1.3,1.6,1.7c0.7,0.4,1.5,0.6,2.4,0.6S526.6,79,527.3,78.6z"/>
	<path class="st1" d="M543.9,81.8l-2.8-4.1h-0.2h-3v4.1h-3.4V67.1h6.4c1.3,0,2.4,0.2,3.4,0.7s1.7,1,2.2,1.8c0.5,0.8,0.8,1.7,0.8,2.8
		c0,1.1-0.3,2-0.8,2.8c-0.5,0.8-1.3,1.4-2.2,1.8l3.3,4.7H543.9z M543,70.6c-0.5-0.4-1.3-0.7-2.3-0.7h-2.8V75h2.8
		c1,0,1.8-0.2,2.3-0.7c0.5-0.4,0.8-1.1,0.8-1.9C543.8,71.6,543.6,71,543,70.6z"/>
	<path class="st1" d="M558.3,81.8l-2.8-4.1h-0.2h-3v4.1h-3.4V67.1h6.4c1.3,0,2.4,0.2,3.4,0.7s1.7,1,2.2,1.8c0.5,0.8,0.8,1.7,0.8,2.8
		c0,1.1-0.3,2-0.8,2.8c-0.5,0.8-1.3,1.4-2.2,1.8l3.3,4.7H558.3z M557.4,70.6c-0.5-0.4-1.3-0.7-2.3-0.7h-2.8V75h2.8
		c1,0,1.8-0.2,2.3-0.7c0.5-0.4,0.8-1.1,0.8-1.9C558.2,71.6,558,71,557.4,70.6z"/>
	<path class="st1" d="M566.3,81.1c-1.2-0.7-2.2-1.6-2.9-2.7s-1-2.5-1-3.9c0-1.4,0.3-2.7,1-3.9c0.7-1.2,1.7-2.1,2.9-2.7s2.6-1,4.1-1
		s2.9,0.3,4.1,1c1.2,0.7,2.2,1.6,2.9,2.7c0.7,1.2,1,2.5,1,3.9c0,1.4-0.3,2.7-1,3.9c-0.7,1.2-1.7,2.1-2.9,2.7c-1.2,0.7-2.6,1-4.1,1
		S567.5,81.7,566.3,81.1z M572.8,78.6c0.7-0.4,1.2-1,1.6-1.7c0.4-0.7,0.6-1.5,0.6-2.4c0-0.9-0.2-1.7-0.6-2.4
		c-0.4-0.7-0.9-1.3-1.6-1.7c-0.7-0.4-1.5-0.6-2.4-0.6s-1.7,0.2-2.4,0.6c-0.7,0.4-1.2,1-1.6,1.7c-0.4,0.7-0.6,1.5-0.6,2.4
		c0,0.9,0.2,1.7,0.6,2.4s0.9,1.3,1.6,1.7c0.7,0.4,1.5,0.6,2.4,0.6S572.1,79,572.8,78.6z"/>
	<path class="st1" d="M601.7,67.1l-4.8,14.7h-3.7l-3.2-10l-3.3,10h-3.6l-4.8-14.7h3.5l3.3,10.3l3.5-10.3h3.1l3.4,10.4l3.4-10.4
		H601.7z"/>
</g>
<rect x="261.6" y="92.2" class="st0" width="345" height="55.1"/>
<g>
	<path class="st2" d="M289.6,124.3h-7.1l-1.4,3.3h-3.7l6.9-15.4h3.5l6.9,15.4h-3.7L289.6,124.3z M288.5,121.6l-2.4-5.9l-2.4,5.9
		H288.5z"/>
	<path class="st2" d="M309.3,112.2v15.4h-2.9l-7.7-9.3v9.3h-3.5v-15.4h2.9l7.7,9.3v-9.3H309.3z"/>
	<path class="st2" d="M311.9,112.2h7c1.7,0,3.1,0.3,4.4,1c1.3,0.6,2.3,1.5,3,2.7c0.7,1.2,1.1,2.5,1.1,4s-0.4,2.9-1.1,4
		c-0.7,1.2-1.7,2.1-3,2.7c-1.3,0.6-2.8,1-4.4,1h-7V112.2z M318.7,124.6c1.5,0,2.8-0.4,3.7-1.3c0.9-0.9,1.4-2,1.4-3.5
		c0-1.5-0.5-2.6-1.4-3.5c-0.9-0.9-2.1-1.3-3.7-1.3h-3.3v9.5H318.7z"/>
	<path class="st2" d="M348.2,112.2v15.4h-2.9l-7.7-9.3v9.3h-3.5v-15.4h2.9l7.7,9.3v-9.3H348.2z"/>
	<path class="st2" d="M353.9,126.8c-1.3-0.7-2.3-1.6-3-2.8s-1.1-2.6-1.1-4.1c0-1.5,0.4-2.9,1.1-4.1c0.7-1.2,1.7-2.2,3-2.8
		s2.7-1,4.3-1c1.6,0,3,0.3,4.3,1c1.3,0.7,2.3,1.6,3,2.8c0.7,1.2,1.1,2.6,1.1,4.1c0,1.5-0.4,2.9-1.1,4.1c-0.7,1.2-1.7,2.2-3,2.8
		c-1.3,0.7-2.7,1-4.3,1C356.6,127.8,355.2,127.5,353.9,126.8z M360.7,124.2c0.7-0.4,1.3-1,1.7-1.7s0.6-1.6,0.6-2.6
		c0-1-0.2-1.8-0.6-2.6s-1-1.3-1.7-1.7c-0.7-0.4-1.6-0.6-2.5-0.6c-0.9,0-1.7,0.2-2.5,0.6s-1.3,1-1.7,1.7s-0.6,1.6-0.6,2.6
		c0,1,0.2,1.8,0.6,2.6s1,1.3,1.7,1.7s1.6,0.6,2.5,0.6C359.1,124.8,359.9,124.6,360.7,124.2z"/>
	<path class="st2" d="M381.6,121c0.5,0.7,0.7,1.5,0.7,2.4c0,1.3-0.5,2.4-1.6,3.1c-1,0.7-2.6,1.1-4.6,1.1h-8v-15.4h7.5
		c1.9,0,3.3,0.4,4.3,1.1c1,0.7,1.5,1.7,1.5,2.9c0,0.7-0.2,1.4-0.5,2s-0.9,1-1.5,1.4C380.4,119.8,381.1,120.3,381.6,121z
		 M371.8,114.8v3.6h3.5c0.9,0,1.5-0.2,2-0.5c0.5-0.3,0.7-0.8,0.7-1.4c0-0.6-0.2-1.1-0.7-1.4c-0.5-0.3-1.1-0.5-2-0.5H371.8z
		 M378,124.4c0.5-0.3,0.7-0.8,0.7-1.4c0-1.3-0.9-1.9-2.8-1.9h-4.2v3.8h4.2C376.8,124.9,377.6,124.7,378,124.4z"/>
	<path class="st2" d="M387.1,126.8c-1.3-0.7-2.3-1.6-3-2.8s-1.1-2.6-1.1-4.1c0-1.5,0.4-2.9,1.1-4.1c0.7-1.2,1.7-2.2,3-2.8
		s2.7-1,4.3-1c1.6,0,3,0.3,4.3,1c1.3,0.7,2.3,1.6,3,2.8c0.7,1.2,1.1,2.6,1.1,4.1c0,1.5-0.4,2.9-1.1,4.1c-0.7,1.2-1.7,2.2-3,2.8
		c-1.3,0.7-2.7,1-4.3,1C389.8,127.8,388.4,127.5,387.1,126.8z M393.9,124.2c0.7-0.4,1.3-1,1.7-1.7s0.6-1.6,0.6-2.6
		c0-1-0.2-1.8-0.6-2.6s-1-1.3-1.7-1.7c-0.7-0.4-1.6-0.6-2.5-0.6c-0.9,0-1.7,0.2-2.5,0.6s-1.3,1-1.7,1.7s-0.6,1.6-0.6,2.6
		c0,1,0.2,1.8,0.6,2.6s1,1.3,1.7,1.7s1.6,0.6,2.5,0.6C392.3,124.8,393.1,124.6,393.9,124.2z"/>
	<path class="st2" d="M401.4,112.2h7c1.7,0,3.2,0.3,4.4,1c1.3,0.6,2.3,1.5,3,2.7c0.7,1.2,1.1,2.5,1.1,4s-0.4,2.9-1.1,4
		c-0.7,1.2-1.7,2.1-3,2.7c-1.3,0.6-2.8,1-4.4,1h-7V112.2z M408.2,124.6c1.5,0,2.8-0.4,3.7-1.3c0.9-0.9,1.4-2,1.4-3.5
		c0-1.5-0.5-2.6-1.4-3.5c-0.9-0.9-2.1-1.3-3.7-1.3H405v9.5H408.2z"/>
	<path class="st2" d="M425.2,122.1v5.5h-3.6v-5.5l-6-9.9h3.8l4.1,6.8l4.1-6.8h3.5L425.2,122.1z"/>
	<path class="st2" d="M460,112.2l-5,15.4h-3.8l-3.4-10.4l-3.5,10.4h-3.8l-5.1-15.4h3.7l3.5,10.8l3.6-10.8h3.3l3.5,10.9l3.6-10.9H460
		z"/>
	<path class="st2" d="M463.8,126.8c-1.3-0.7-2.3-1.6-3-2.8s-1.1-2.6-1.1-4.1c0-1.5,0.4-2.9,1.1-4.1c0.7-1.2,1.7-2.2,3-2.8
		s2.7-1,4.3-1c1.6,0,3,0.3,4.3,1c1.3,0.7,2.3,1.6,3,2.8c0.7,1.2,1.1,2.6,1.1,4.1c0,1.5-0.4,2.9-1.1,4.1c-0.7,1.2-1.7,2.2-3,2.8
		c-1.3,0.7-2.7,1-4.3,1C466.6,127.8,465.1,127.5,463.8,126.8z M470.6,124.2c0.7-0.4,1.3-1,1.7-1.7s0.6-1.6,0.6-2.6
		c0-1-0.2-1.8-0.6-2.6s-1-1.3-1.7-1.7c-0.7-0.4-1.6-0.6-2.5-0.6c-0.9,0-1.7,0.2-2.5,0.6s-1.3,1-1.7,1.7s-0.6,1.6-0.6,2.6
		c0,1,0.2,1.8,0.6,2.6s1,1.3,1.7,1.7s1.6,0.6,2.5,0.6C469.1,124.8,469.9,124.6,470.6,124.2z"/>
	<path class="st2" d="M479.9,126c-1.2-1.2-1.8-3-1.8-5.2v-8.6h3.6v8.5c0,2.8,1.1,4.1,3.4,4.1c1.1,0,2-0.3,2.6-1
		c0.6-0.7,0.9-1.7,0.9-3.1v-8.5h3.5v8.6c0,2.3-0.6,4-1.8,5.2s-2.9,1.8-5.1,1.8C482.8,127.8,481.1,127.2,479.9,126z"/>
	<path class="st2" d="M494.4,112.2h3.6v12.5h7.7v2.9h-11.3V112.2z"/>
	<path class="st2" d="M506.6,112.2h7c1.7,0,3.2,0.3,4.4,1c1.3,0.6,2.3,1.5,3,2.7c0.7,1.2,1.1,2.5,1.1,4s-0.4,2.9-1.1,4
		c-0.7,1.2-1.7,2.1-3,2.7c-1.3,0.6-2.8,1-4.4,1h-7V112.2z M513.4,124.6c1.5,0,2.8-0.4,3.7-1.3c0.9-0.9,1.4-2,1.4-3.5
		c0-1.5-0.5-2.6-1.4-3.5c-0.9-0.9-2.1-1.3-3.7-1.3h-3.3v9.5H513.4z"/>
	<path class="st2" d="M531.9,126.8c-1.3-0.7-2.3-1.6-3-2.8s-1.1-2.6-1.1-4.1c0-1.5,0.4-2.9,1.1-4.1s1.7-2.2,3-2.8
		c1.3-0.7,2.7-1,4.3-1c1.3,0,2.5,0.2,3.6,0.7c1.1,0.5,2,1.1,2.7,2l-2.3,2.1c-1-1.2-2.3-1.8-3.9-1.8c-1,0-1.8,0.2-2.6,0.6
		s-1.3,1-1.7,1.7s-0.6,1.6-0.6,2.6c0,1,0.2,1.8,0.6,2.6s1,1.3,1.7,1.7s1.6,0.6,2.6,0.6c1.5,0,2.8-0.6,3.9-1.8l2.3,2.1
		c-0.7,0.9-1.6,1.6-2.7,2c-1.1,0.5-2.3,0.7-3.6,0.7C534.6,127.8,533.2,127.5,531.9,126.8z"/>
	<path class="st2" d="M553.6,124.3h-7.2l-1.4,3.3h-3.7l6.9-15.4h3.5l6.9,15.4H555L553.6,124.3z M552.5,121.6l-2.4-5.9l-2.4,5.9
		H552.5z"/>
	<path class="st2" d="M569.1,127.6l-3-4.3h-0.2h-3.1v4.3h-3.6v-15.4h6.7c1.4,0,2.5,0.2,3.6,0.7c1,0.5,1.8,1.1,2.3,1.9
		c0.5,0.8,0.8,1.8,0.8,3c0,1.1-0.3,2.1-0.8,3c-0.6,0.8-1.3,1.5-2.3,1.9l3.5,5H569.1z M568.2,115.8c-0.6-0.5-1.4-0.7-2.4-0.7h-2.9
		v5.4h2.9c1.1,0,1.9-0.2,2.4-0.7c0.6-0.5,0.8-1.1,0.8-2C569,116.9,568.7,116.2,568.2,115.8z"/>
	<path class="st2" d="M586.3,124.7v2.9h-11.9v-15.4H586v2.9h-8.1v3.3h7.2v2.8h-7.2v3.6H586.3z"/>
</g>
</svg>
