<?xml version="1.0" encoding="utf-8"?>
<!-- Generator: Adobe Illustrator 22.1.0, SVG Export Plug-In . SVG Version: 6.00 Build 0)  -->
<svg version="1.1" id="Layer_1" xmlns="http://www.w3.org/2000/svg" xmlns:xlink="http://www.w3.org/1999/xlink" x="0px" y="0px"
	 viewBox="0 0 600 150" style="enable-background:new 0 0 600 150;" xml:space="preserve">
<style type="text/css">
	.st0{fill:#EB1D39;}
	.st1{fill:#231F20;}
	.st2{fill:#FFFFFF;}
</style>
<g>
	<path class="st0" d="M115,84.2c3.5,5.3,5.2,11.5,5.2,18.5c0,8.3-2.4,15.5-7.1,21.6c-4.7,6.2-11.3,10.9-19.8,14.3
		c-8.5,3.4-18.4,5.1-29.6,5.1c-11.2,0-21-1.7-29.5-5.1c-8.5-3.4-15-8.1-19.6-14.3c-4.6-6.2-7-13.4-7-21.6c0-7,1.7-13.2,5.2-18.5
		c3.5-5.3,8.5-9.7,15-13c-5-3.1-8.8-6.9-11.4-11.5c-2.7-4.6-4-9.9-4-15.9c0-7.8,2.2-14.5,6.5-20.2c4.3-5.7,10.4-10.1,18.1-13.3
		c7.8-3.1,16.7-4.7,26.7-4.7c10.2,0,19.2,1.6,27,4.7c7.8,3.1,13.9,7.5,18.2,13.3c4.3,5.7,6.5,12.5,6.5,20.2c0,6-1.3,11.3-4,15.9
		c-2.7,4.6-6.5,8.5-11.6,11.5C106.4,74.6,111.5,78.9,115,84.2z M82.2,115.8c4.5-3.5,6.8-8.2,6.8-14c0-5.8-2.3-10.5-6.8-13.9
		c-4.5-3.4-10.7-5.1-18.4-5.1c-7.6,0-13.7,1.7-18.1,5.1c-4.5,3.4-6.7,8.1-6.7,13.9c0,6,2.2,10.7,6.7,14.1c4.4,3.4,10.5,5.1,18.1,5.1
		C71.5,121,77.6,119.3,82.2,115.8z M48.8,32.8c-3.8,3-5.6,7.1-5.6,12.3c0,5.1,1.8,9.1,5.5,12c3.7,2.9,8.7,4.4,15.1,4.4
		c6.4,0,11.4-1.5,15.3-4.4c3.8-2.9,5.7-6.9,5.7-12c0-5.2-1.9-9.3-5.7-12.3c-3.8-3-8.9-4.5-15.3-4.5C57.5,28.3,52.5,29.8,48.8,32.8z"
		/>
	<path class="st0" d="M176.3,7.9v133.5h-30.9V32.7h-26.7V7.9H176.3z"/>
</g>
<g>
	<g>
		<path class="st1" d="M189.3,15.3c0-6.5,4.1-10.4,9.6-10.4c5.6,0,9.6,3.9,9.6,10.4c0,6.5-4.1,10.4-9.6,10.4
			C193.4,25.7,189.3,21.8,189.3,15.3z M221.1,5.4h7.7l-25.6,37.5h-7.7L221.1,5.4z M215.8,32.9c0-6.5,4-10.4,9.6-10.4
			c5.6,0,9.6,3.9,9.6,10.4c0,6.5-4.1,10.4-9.6,10.4C219.8,43.3,215.8,39.5,215.8,32.9z"/>
	</g>
</g>
<g>
	<path class="st1" d="M263.1,44c-3.4-1.8-6-4.3-7.9-7.5s-2.9-6.8-2.9-10.8c0-4,1-7.6,2.9-10.8s4.6-5.7,7.9-7.5
		c3.4-1.8,7.2-2.7,11.4-2.7s8,0.9,11.4,2.7c3.4,1.8,6,4.3,7.9,7.5c1.9,3.2,2.9,6.8,2.9,10.8c0,4-1,7.6-2.9,10.8
		c-1.9,3.2-4.6,5.7-7.9,7.5c-3.4,1.8-7.2,2.7-11.4,2.7S266.5,45.8,263.1,44z M281,37.1c1.9-1.1,3.5-2.6,4.6-4.6
		c1.1-2,1.7-4.2,1.7-6.7c0-2.5-0.6-4.8-1.7-6.7c-1.1-2-2.6-3.5-4.6-4.6s-4.1-1.7-6.5-1.7s-4.6,0.6-6.5,1.7c-1.9,1.1-3.5,2.6-4.6,4.6
		c-1.1,2-1.7,4.2-1.7,6.7c0,2.5,0.6,4.8,1.7,6.7c1.1,2,2.6,3.5,4.6,4.6c1.9,1.1,4.1,1.7,6.5,1.7S279,38.2,281,37.1z"/>
	<path class="st1" d="M310.3,13v10.7h18.8v7.5h-18.8V46h-9.4V5.4h30.7V13H310.3z"/>
	<path class="st1" d="M383.8,28.6c1.3,1.7,2,3.8,2,6.4c0,3.6-1.4,6.3-4.1,8.2c-2.8,1.9-6.8,2.9-12.1,2.9h-21V5.4h19.8
		c4.9,0,8.7,0.9,11.4,2.8c2.6,1.9,4,4.5,4,7.7c0,2-0.5,3.7-1.4,5.3c-0.9,1.5-2.3,2.8-4,3.7C380.7,25.7,382.5,26.9,383.8,28.6z
		 M357.9,12.5v9.6h9.3c2.3,0,4.1-0.4,5.3-1.2s1.8-2,1.8-3.6c0-1.6-0.6-2.8-1.8-3.6c-1.2-0.8-3-1.2-5.3-1.2H357.9z M374.4,37.7
		c1.3-0.8,1.9-2.1,1.9-3.8c0-3.4-2.5-5-7.5-5h-11v10h11C371.3,39,373.2,38.6,374.4,37.7z"/>
	<path class="st1" d="M415.9,46L408,34.7h-0.5h-8.2V46H390V5.4h17.6c3.6,0,6.7,0.6,9.4,1.8c2.6,1.2,4.7,2.9,6.1,5.1
		c1.4,2.2,2.1,4.8,2.1,7.8c0,3-0.7,5.6-2.2,7.8c-1.5,2.2-3.5,3.9-6.2,5l9.1,13H415.9z M413.5,14.9c-1.5-1.2-3.6-1.8-6.4-1.8h-7.7
		v14.2h7.7c2.8,0,5-0.6,6.4-1.9c1.5-1.2,2.2-3,2.2-5.2C415.7,17.9,415,16.1,413.5,14.9z"/>
	<path class="st1" d="M456.5,37.3h-18.8L434,46h-9.6l18.1-40.6h9.3L469.9,46h-9.9L456.5,37.3z M453.5,30.2l-6.4-15.5l-6.4,15.5
		H453.5z"/>
	<path class="st1" d="M508.5,5.4V46h-7.7l-20.2-24.6V46h-9.3V5.4h7.8l20.2,24.6V5.4H508.5z"/>
	<path class="st1" d="M515.2,5.4h18.4c4.4,0,8.3,0.8,11.7,2.5c3.4,1.7,6,4.1,7.9,7.1c1.9,3.1,2.8,6.6,2.8,10.7
		c0,4.1-0.9,7.6-2.8,10.7c-1.9,3.1-4.5,5.4-7.9,7.1c-3.4,1.7-7.3,2.5-11.7,2.5h-18.4V5.4z M533.2,38.3c4.1,0,7.3-1.1,9.7-3.4
		c2.4-2.3,3.6-5.3,3.6-9.2c0-3.9-1.2-6.9-3.6-9.2c-2.4-2.3-5.7-3.4-9.7-3.4h-8.6v25.2H533.2z"/>
	<path class="st1" d="M564.3,45.4c-3-0.9-5.4-2-7.2-3.4l3.2-7.1c1.7,1.3,3.8,2.3,6.2,3.1c2.4,0.8,4.8,1.2,7.2,1.2
		c2.7,0,4.6-0.4,5.9-1.2c1.3-0.8,1.9-1.8,1.9-3.2c0-1-0.4-1.8-1.1-2.4c-0.8-0.6-1.7-1.1-2.9-1.5c-1.2-0.4-2.8-0.8-4.8-1.3
		c-3.1-0.7-5.6-1.5-7.6-2.2c-2-0.7-3.7-1.9-5.1-3.5c-1.4-1.6-2.1-3.8-2.1-6.5c0-2.4,0.6-4.5,1.9-6.4c1.3-1.9,3.2-3.4,5.8-4.6
		c2.6-1.1,5.7-1.7,9.4-1.7c2.6,0,5.1,0.3,7.6,0.9c2.5,0.6,4.6,1.5,6.5,2.7l-2.9,7.1c-3.8-2.1-7.5-3.2-11.3-3.2
		c-2.6,0-4.6,0.4-5.8,1.3c-1.3,0.9-1.9,2-1.9,3.4c0,1.4,0.7,2.4,2.2,3.1c1.5,0.7,3.7,1.3,6.6,2c3.1,0.7,5.6,1.5,7.6,2.2
		c2,0.7,3.7,1.9,5.1,3.5c1.4,1.6,2.1,3.7,2.1,6.4c0,2.3-0.6,4.4-1.9,6.4s-3.2,3.4-5.8,4.6c-2.6,1.1-5.7,1.7-9.5,1.7
		C570.4,46.7,567.3,46.3,564.3,45.4z"/>
</g>
<g>
	<path class="st1" d="M254.7,72.9c-1.2-0.7-2.2-1.6-2.9-2.7c-0.7-1.2-1-2.5-1-3.9c0-1.5,0.3-2.8,1-3.9c0.7-1.2,1.6-2.1,2.9-2.7
		c1.2-0.7,2.6-1,4.1-1c1.3,0,2.4,0.2,3.5,0.7c1,0.4,1.9,1.1,2.6,1.9l-2.2,2c-1-1.1-2.2-1.7-3.7-1.7c-0.9,0-1.7,0.2-2.4,0.6
		s-1.3,1-1.7,1.7c-0.4,0.7-0.6,1.5-0.6,2.4c0,0.9,0.2,1.7,0.6,2.4c0.4,0.7,1,1.3,1.7,1.7s1.5,0.6,2.4,0.6c1.5,0,2.7-0.6,3.7-1.7
		l2.2,2c-0.7,0.9-1.6,1.5-2.6,2s-2.2,0.7-3.5,0.7C257.3,73.8,255.9,73.5,254.7,72.9z"/>
	<path class="st1" d="M268.8,72.8c-1.2-0.7-2.2-1.6-2.9-2.7c-0.7-1.2-1-2.5-1-3.9c0-1.4,0.3-2.7,1-3.9c0.7-1.2,1.7-2.1,2.9-2.7
		s2.6-1,4.1-1c1.5,0,2.9,0.3,4.1,1c1.2,0.7,2.2,1.6,2.9,2.7c0.7,1.2,1,2.5,1,3.9c0,1.4-0.4,2.7-1,3.9c-0.7,1.2-1.7,2.1-2.9,2.7
		c-1.2,0.7-2.6,1-4.1,1C271.4,73.8,270,73.5,268.8,72.8z M275.2,70.3c0.7-0.4,1.2-1,1.6-1.7c0.4-0.7,0.6-1.5,0.6-2.4
		c0-0.9-0.2-1.7-0.6-2.4c-0.4-0.7-0.9-1.3-1.6-1.7s-1.5-0.6-2.4-0.6c-0.9,0-1.7,0.2-2.4,0.6s-1.2,1-1.6,1.7
		c-0.4,0.7-0.6,1.5-0.6,2.4c0,0.9,0.2,1.7,0.6,2.4c0.4,0.7,0.9,1.3,1.6,1.7s1.5,0.6,2.4,0.6C273.8,70.9,274.5,70.7,275.2,70.3z"/>
	<path class="st1" d="M284.1,72.1c-1.2-1.2-1.8-2.8-1.8-5v-8.2h3.4V67c0,2.6,1.1,3.9,3.3,3.9c1.1,0,1.9-0.3,2.4-1
		c0.6-0.6,0.8-1.6,0.8-3v-8.1h3.4v8.2c0,2.2-0.6,3.8-1.8,5c-1.2,1.2-2.8,1.7-4.9,1.7C286.9,73.8,285.2,73.3,284.1,72.1z"/>
	<path class="st1" d="M297.9,58.9h3.4v11.9h7.4v2.8h-10.8V58.9z"/>
	<path class="st1" d="M309.6,58.9h6.7c1.6,0,3,0.3,4.2,0.9s2.2,1.5,2.9,2.6c0.7,1.1,1,2.4,1,3.9c0,1.5-0.3,2.8-1,3.9
		c-0.7,1.1-1.6,2-2.9,2.6s-2.6,0.9-4.2,0.9h-6.7V58.9z M316.1,70.8c1.5,0,2.6-0.4,3.5-1.2s1.3-1.9,1.3-3.3c0-1.4-0.4-2.5-1.3-3.3
		c-0.9-0.8-2-1.2-3.5-1.2H313v9.1H316.1z"/>
	<path class="st1" d="M330.8,58.9h6.7c1.6,0,3,0.3,4.2,0.9s2.2,1.5,2.9,2.6c0.7,1.1,1,2.4,1,3.9c0,1.5-0.3,2.8-1,3.9
		c-0.7,1.1-1.6,2-2.9,2.6s-2.6,0.9-4.2,0.9h-6.7V58.9z M337.3,70.8c1.5,0,2.6-0.4,3.5-1.2s1.3-1.9,1.3-3.3c0-1.4-0.4-2.5-1.3-3.3
		c-0.9-0.8-2-1.2-3.5-1.2h-3.1v9.1H337.3z"/>
	<path class="st1" d="M347.1,58.9h3.4v14.7h-3.4V58.9z"/>
	<path class="st1" d="M354.4,73.4c-1.1-0.3-2-0.7-2.6-1.2l1.2-2.6c0.6,0.5,1.4,0.8,2.2,1.1c0.9,0.3,1.7,0.4,2.6,0.4
		c1,0,1.7-0.1,2.1-0.4c0.5-0.3,0.7-0.7,0.7-1.1c0-0.3-0.1-0.6-0.4-0.9s-0.6-0.4-1-0.6c-0.4-0.1-1-0.3-1.7-0.5
		c-1.1-0.3-2-0.5-2.8-0.8c-0.7-0.3-1.3-0.7-1.8-1.3s-0.8-1.4-0.8-2.4c0-0.9,0.2-1.6,0.7-2.3c0.5-0.7,1.2-1.2,2.1-1.6
		c0.9-0.4,2.1-0.6,3.4-0.6c0.9,0,1.9,0.1,2.8,0.3c0.9,0.2,1.7,0.5,2.4,1l-1,2.6c-1.4-0.8-2.7-1.2-4.1-1.2c-1,0-1.7,0.2-2.1,0.5
		s-0.7,0.7-0.7,1.2s0.3,0.9,0.8,1.1c0.5,0.2,1.3,0.5,2.4,0.7c1.1,0.3,2,0.5,2.8,0.8c0.7,0.3,1.3,0.7,1.8,1.3
		c0.5,0.6,0.8,1.4,0.8,2.3c0,0.8-0.2,1.6-0.7,2.3c-0.5,0.7-1.2,1.2-2.1,1.6c-0.9,0.4-2.1,0.6-3.4,0.6
		C356.6,73.8,355.4,73.7,354.4,73.4z"/>
	<path class="st1" d="M374.9,70.4h-6.8l-1.3,3.1h-3.5l6.6-14.7h3.4l6.6,14.7h-3.6L374.9,70.4z M373.9,67.8l-2.3-5.6l-2.3,5.6H373.9z
		"/>
	<path class="st1" d="M390,59.5c1,0.4,1.7,1,2.2,1.8c0.5,0.8,0.8,1.7,0.8,2.8c0,1.1-0.3,2-0.8,2.8c-0.5,0.8-1.3,1.4-2.2,1.8
		s-2.1,0.6-3.4,0.6h-3v4.1h-3.4V58.9h6.4C387.9,58.9,389.1,59.1,390,59.5z M388.8,66.1c0.5-0.4,0.8-1.1,0.8-1.9
		c0-0.8-0.3-1.5-0.8-1.9s-1.3-0.7-2.3-0.7h-2.8v5.1h2.8C387.5,66.8,388.3,66.5,388.8,66.1z"/>
	<path class="st1" d="M404.1,59.5c1,0.4,1.7,1,2.2,1.8c0.5,0.8,0.8,1.7,0.8,2.8c0,1.1-0.3,2-0.8,2.8c-0.5,0.8-1.3,1.4-2.2,1.8
		s-2.1,0.6-3.4,0.6h-3v4.1h-3.4V58.9h6.4C402.1,58.9,403.2,59.1,404.1,59.5z M402.9,66.1c0.5-0.4,0.8-1.1,0.8-1.9
		c0-0.8-0.3-1.5-0.8-1.9s-1.3-0.7-2.3-0.7h-2.8v5.1h2.8C401.6,66.8,402.4,66.5,402.9,66.1z"/>
	<path class="st1" d="M419.9,70.9v2.7h-11.4V58.9h11.1v2.7h-7.7v3.2h6.8v2.6h-6.8v3.4H419.9z"/>
	<path class="st1" d="M431.2,70.4h-6.8l-1.3,3.1h-3.5l6.6-14.7h3.4l6.6,14.7h-3.6L431.2,70.4z M430.2,67.8l-2.3-5.6l-2.3,5.6H430.2z
		"/>
	<path class="st1" d="M445.9,73.6l-2.8-4.1h-0.2h-3v4.1h-3.4V58.9h6.4c1.3,0,2.4,0.2,3.4,0.7s1.7,1,2.2,1.8c0.5,0.8,0.8,1.7,0.8,2.8
		c0,1.1-0.3,2-0.8,2.8c-0.5,0.8-1.3,1.4-2.2,1.8l3.3,4.7H445.9z M445.1,62.3c-0.5-0.4-1.3-0.7-2.3-0.7H440v5.1h2.8
		c1,0,1.8-0.2,2.3-0.7c0.5-0.4,0.8-1.1,0.8-1.9C445.9,63.4,445.6,62.8,445.1,62.3z"/>
	<path class="st1" d="M458.9,61.7h-4.7v-2.8H467v2.8h-4.7v11.9h-3.4V61.7z"/>
	<path class="st1" d="M470.6,72.8c-1.2-0.7-2.2-1.6-2.9-2.7c-0.7-1.2-1-2.5-1-3.9c0-1.4,0.3-2.7,1-3.9c0.7-1.2,1.7-2.1,2.9-2.7
		s2.6-1,4.1-1c1.5,0,2.9,0.3,4.1,1c1.2,0.7,2.2,1.6,2.9,2.7c0.7,1.2,1,2.5,1,3.9c0,1.4-0.4,2.7-1,3.9c-0.7,1.2-1.7,2.1-2.9,2.7
		c-1.2,0.7-2.6,1-4.1,1C473.2,73.8,471.8,73.5,470.6,72.8z M477,70.3c0.7-0.4,1.2-1,1.6-1.7c0.4-0.7,0.6-1.5,0.6-2.4
		c0-0.9-0.2-1.7-0.6-2.4c-0.4-0.7-0.9-1.3-1.6-1.7s-1.5-0.6-2.4-0.6c-0.9,0-1.7,0.2-2.4,0.6s-1.2,1-1.6,1.7
		c-0.4,0.7-0.6,1.5-0.6,2.4c0,0.9,0.2,1.7,0.6,2.4c0.4,0.7,0.9,1.3,1.6,1.7s1.5,0.6,2.4,0.6C475.6,70.9,476.3,70.7,477,70.3z"/>
	<path class="st1" d="M497.6,73.6l0-8.8l-4.3,7.3h-1.5l-4.3-7.1v8.6h-3.2V58.9h2.8l5.5,9.1l5.4-9.1h2.8l0,14.7H497.6z"/>
	<path class="st1" d="M506.2,72.8c-1.2-0.7-2.2-1.6-2.9-2.7c-0.7-1.2-1-2.5-1-3.9c0-1.4,0.3-2.7,1-3.9c0.7-1.2,1.7-2.1,2.9-2.7
		s2.6-1,4.1-1c1.5,0,2.9,0.3,4.1,1c1.2,0.7,2.2,1.6,2.9,2.7c0.7,1.2,1,2.5,1,3.9c0,1.4-0.4,2.7-1,3.9c-0.7,1.2-1.7,2.1-2.9,2.7
		c-1.2,0.7-2.6,1-4.1,1C508.8,73.8,507.5,73.5,506.2,72.8z M512.7,70.3c0.7-0.4,1.2-1,1.6-1.7c0.4-0.7,0.6-1.5,0.6-2.4
		c0-0.9-0.2-1.7-0.6-2.4c-0.4-0.7-0.9-1.3-1.6-1.7s-1.5-0.6-2.4-0.6c-0.9,0-1.7,0.2-2.4,0.6s-1.2,1-1.6,1.7
		c-0.4,0.7-0.6,1.5-0.6,2.4c0,0.9,0.2,1.7,0.6,2.4c0.4,0.7,0.9,1.3,1.6,1.7s1.5,0.6,2.4,0.6C511.2,70.9,512,70.7,512.7,70.3z"/>
	<path class="st1" d="M529.3,73.6l-2.8-4.1h-0.2h-3v4.1h-3.4V58.9h6.4c1.3,0,2.4,0.2,3.4,0.7s1.7,1,2.2,1.8c0.5,0.8,0.8,1.7,0.8,2.8
		c0,1.1-0.3,2-0.8,2.8c-0.5,0.8-1.3,1.4-2.2,1.8l3.3,4.7H529.3z M528.4,62.3c-0.5-0.4-1.3-0.7-2.3-0.7h-2.8v5.1h2.8
		c1,0,1.8-0.2,2.3-0.7c0.5-0.4,0.8-1.1,0.8-1.9C529.2,63.4,529,62.8,528.4,62.3z"/>
	<path class="st1" d="M543.7,73.6l-2.8-4.1h-0.2h-3v4.1h-3.4V58.9h6.4c1.3,0,2.4,0.2,3.4,0.7s1.7,1,2.2,1.8c0.5,0.8,0.8,1.7,0.8,2.8
		c0,1.1-0.3,2-0.8,2.8c-0.5,0.8-1.3,1.4-2.2,1.8l3.3,4.7H543.7z M542.8,62.3c-0.5-0.4-1.3-0.7-2.3-0.7h-2.8v5.1h2.8
		c1,0,1.8-0.2,2.3-0.7c0.5-0.4,0.8-1.1,0.8-1.9C543.6,63.4,543.4,62.8,542.8,62.3z"/>
	<path class="st1" d="M551.7,72.8c-1.2-0.7-2.2-1.6-2.9-2.7c-0.7-1.2-1-2.5-1-3.9c0-1.4,0.3-2.7,1-3.9c0.7-1.2,1.7-2.1,2.9-2.7
		s2.6-1,4.1-1c1.5,0,2.9,0.3,4.1,1c1.2,0.7,2.2,1.6,2.9,2.7c0.7,1.2,1,2.5,1,3.9c0,1.4-0.4,2.7-1,3.9c-0.7,1.2-1.7,2.1-2.9,2.7
		c-1.2,0.7-2.6,1-4.1,1C554.3,73.8,552.9,73.5,551.7,72.8z M558.2,70.3c0.7-0.4,1.2-1,1.6-1.7c0.4-0.7,0.6-1.5,0.6-2.4
		c0-0.9-0.2-1.7-0.6-2.4c-0.4-0.7-0.9-1.3-1.6-1.7s-1.5-0.6-2.4-0.6c-0.9,0-1.7,0.2-2.4,0.6s-1.2,1-1.6,1.7
		c-0.4,0.7-0.6,1.5-0.6,2.4c0,0.9,0.2,1.7,0.6,2.4c0.4,0.7,0.9,1.3,1.6,1.7s1.5,0.6,2.4,0.6C556.7,70.9,557.5,70.7,558.2,70.3z"/>
	<path class="st1" d="M587.1,58.9l-4.8,14.7h-3.7l-3.2-10l-3.3,10h-3.6l-4.8-14.7h3.5l3.3,10.3l3.5-10.3h3.1l3.4,10.4l3.4-10.4
		H587.1z"/>
</g>
<rect x="247" y="84" class="st0" width="345" height="55.1"/>
<g>
	<path class="st2" d="M275,116h-7.1l-1.4,3.3h-3.7l6.9-15.4h3.5l6.9,15.4h-3.7L275,116z M273.8,113.3l-2.4-5.9l-2.4,5.9H273.8z"/>
	<path class="st2" d="M294.7,103.9v15.4h-2.9l-7.7-9.4v9.4h-3.5v-15.4h2.9l7.7,9.4v-9.4H294.7z"/>
	<path class="st2" d="M297.3,103.9h7c1.7,0,3.1,0.3,4.4,1c1.3,0.6,2.3,1.5,3,2.7c0.7,1.2,1.1,2.5,1.1,4s-0.4,2.9-1.1,4
		c-0.7,1.2-1.7,2.1-3,2.7s-2.8,1-4.4,1h-7V103.9z M304.1,116.4c1.5,0,2.8-0.4,3.7-1.3c0.9-0.9,1.4-2,1.4-3.5c0-1.5-0.5-2.6-1.4-3.5
		c-0.9-0.9-2.1-1.3-3.7-1.3h-3.3v9.5H304.1z"/>
	<path class="st2" d="M333.6,103.9v15.4h-2.9L323,110v9.4h-3.5v-15.4h2.9l7.7,9.4v-9.4H333.6z"/>
	<path class="st2" d="M339.3,118.6c-1.3-0.7-2.3-1.6-3-2.8c-0.7-1.2-1.1-2.6-1.1-4.1c0-1.5,0.4-2.9,1.1-4.1c0.7-1.2,1.7-2.2,3-2.8
		s2.7-1,4.3-1s3,0.3,4.3,1c1.3,0.7,2.3,1.6,3,2.8c0.7,1.2,1.1,2.6,1.1,4.1c0,1.5-0.4,2.9-1.1,4.1c-0.7,1.2-1.7,2.2-3,2.8
		c-1.3,0.7-2.7,1-4.3,1S340.5,119.2,339.3,118.6z M346,115.9c0.7-0.4,1.3-1,1.7-1.7s0.6-1.6,0.6-2.6c0-1-0.2-1.8-0.6-2.6
		s-1-1.3-1.7-1.7s-1.6-0.6-2.5-0.6c-0.9,0-1.7,0.2-2.5,0.6c-0.7,0.4-1.3,1-1.7,1.7s-0.6,1.6-0.6,2.6c0,1,0.2,1.8,0.6,2.6
		s1,1.3,1.7,1.7c0.7,0.4,1.6,0.6,2.5,0.6C344.5,116.6,345.3,116.3,346,115.9z"/>
	<path class="st2" d="M367,112.7c0.5,0.7,0.7,1.5,0.7,2.4c0,1.3-0.5,2.4-1.6,3.1s-2.6,1.1-4.6,1.1h-8v-15.4h7.5
		c1.9,0,3.3,0.4,4.3,1.1s1.5,1.7,1.5,2.9c0,0.7-0.2,1.4-0.5,2c-0.4,0.6-0.9,1-1.5,1.4C365.8,111.6,366.5,112.1,367,112.7z
		 M357.1,106.6v3.6h3.5c0.9,0,1.5-0.2,2-0.5c0.5-0.3,0.7-0.8,0.7-1.4c0-0.6-0.2-1.1-0.7-1.4c-0.5-0.3-1.1-0.5-2-0.5H357.1z
		 M363.4,116.2c0.5-0.3,0.7-0.8,0.7-1.4c0-1.3-0.9-1.9-2.8-1.9h-4.2v3.8h4.2C362.2,116.6,362.9,116.5,363.4,116.2z"/>
	<path class="st2" d="M372.5,118.6c-1.3-0.7-2.3-1.6-3-2.8c-0.7-1.2-1.1-2.6-1.1-4.1c0-1.5,0.4-2.9,1.1-4.1c0.7-1.2,1.7-2.2,3-2.8
		s2.7-1,4.3-1s3,0.3,4.3,1c1.3,0.7,2.3,1.6,3,2.8c0.7,1.2,1.1,2.6,1.1,4.1c0,1.5-0.4,2.9-1.1,4.1c-0.7,1.2-1.7,2.2-3,2.8
		c-1.3,0.7-2.7,1-4.3,1S373.7,119.2,372.5,118.6z M379.2,115.9c0.7-0.4,1.3-1,1.7-1.7s0.6-1.6,0.6-2.6c0-1-0.2-1.8-0.6-2.6
		s-1-1.3-1.7-1.7s-1.6-0.6-2.5-0.6c-0.9,0-1.7,0.2-2.5,0.6c-0.7,0.4-1.3,1-1.7,1.7s-0.6,1.6-0.6,2.6c0,1,0.2,1.8,0.6,2.6
		s1,1.3,1.7,1.7c0.7,0.4,1.6,0.6,2.5,0.6C377.7,116.6,378.5,116.3,379.2,115.9z"/>
	<path class="st2" d="M386.8,103.9h7c1.7,0,3.1,0.3,4.4,1c1.3,0.6,2.3,1.5,3,2.7c0.7,1.2,1.1,2.5,1.1,4s-0.4,2.9-1.1,4
		c-0.7,1.2-1.7,2.1-3,2.7s-2.8,1-4.4,1h-7V103.9z M393.6,116.4c1.5,0,2.8-0.4,3.7-1.3c0.9-0.9,1.4-2,1.4-3.5c0-1.5-0.5-2.6-1.4-3.5
		c-0.9-0.9-2.1-1.3-3.7-1.3h-3.3v9.5H393.6z"/>
	<path class="st2" d="M410.6,113.9v5.5H407v-5.5l-6-9.9h3.8l4.1,6.8l4.1-6.8h3.5L410.6,113.9z"/>
	<path class="st2" d="M445.4,103.9l-5,15.4h-3.8l-3.4-10.4l-3.5,10.4h-3.8l-5.1-15.4h3.7l3.5,10.8l3.6-10.8h3.3l3.5,10.9l3.6-10.9
		H445.4z"/>
	<path class="st2" d="M449.2,118.6c-1.3-0.7-2.3-1.6-3-2.8c-0.7-1.2-1.1-2.6-1.1-4.1c0-1.5,0.4-2.9,1.1-4.1c0.7-1.2,1.7-2.2,3-2.8
		s2.7-1,4.3-1s3,0.3,4.3,1c1.3,0.7,2.3,1.6,3,2.8c0.7,1.2,1.1,2.6,1.1,4.1c0,1.5-0.4,2.9-1.1,4.1c-0.7,1.2-1.7,2.2-3,2.8
		c-1.3,0.7-2.7,1-4.3,1S450.5,119.2,449.2,118.6z M456,115.9c0.7-0.4,1.3-1,1.7-1.7s0.6-1.6,0.6-2.6c0-1-0.2-1.8-0.6-2.6
		s-1-1.3-1.7-1.7s-1.6-0.6-2.5-0.6c-0.9,0-1.7,0.2-2.5,0.6c-0.7,0.4-1.3,1-1.7,1.7s-0.6,1.6-0.6,2.6c0,1,0.2,1.8,0.6,2.6
		s1,1.3,1.7,1.7c0.7,0.4,1.6,0.6,2.5,0.6C454.5,116.6,455.3,116.3,456,115.9z"/>
	<path class="st2" d="M465.3,117.8c-1.2-1.2-1.8-3-1.8-5.2v-8.6h3.6v8.5c0,2.8,1.1,4.1,3.4,4.1c1.1,0,2-0.3,2.6-1
		c0.6-0.7,0.9-1.7,0.9-3.1v-8.5h3.5v8.6c0,2.3-0.6,4-1.8,5.2c-1.2,1.2-2.9,1.8-5.1,1.8S466.5,119,465.3,117.8z"/>
	<path class="st2" d="M479.8,103.9h3.6v12.5h7.7v2.9h-11.3V103.9z"/>
	<path class="st2" d="M492,103.9h7c1.7,0,3.1,0.3,4.4,1c1.3,0.6,2.3,1.5,3,2.7c0.7,1.2,1.1,2.5,1.1,4s-0.4,2.9-1.1,4
		c-0.7,1.2-1.7,2.1-3,2.7s-2.8,1-4.4,1h-7V103.9z M498.8,116.4c1.5,0,2.8-0.4,3.7-1.3c0.9-0.9,1.4-2,1.4-3.5c0-1.5-0.5-2.6-1.4-3.5
		c-0.9-0.9-2.1-1.3-3.7-1.3h-3.3v9.5H498.8z"/>
	<path class="st2" d="M517.3,118.6c-1.3-0.7-2.3-1.6-3-2.8c-0.7-1.2-1.1-2.6-1.1-4.1c0-1.5,0.4-2.9,1.1-4.1c0.7-1.2,1.7-2.2,3-2.8
		c1.3-0.7,2.7-1,4.3-1c1.3,0,2.5,0.2,3.6,0.7c1.1,0.5,2,1.1,2.7,2l-2.3,2.1c-1-1.2-2.3-1.8-3.9-1.8c-1,0-1.8,0.2-2.6,0.6
		s-1.3,1-1.7,1.7s-0.6,1.6-0.6,2.6c0,1,0.2,1.8,0.6,2.6s1,1.3,1.7,1.7s1.6,0.6,2.6,0.6c1.5,0,2.8-0.6,3.9-1.8l2.3,2.1
		c-0.7,0.9-1.6,1.6-2.7,2c-1.1,0.5-2.3,0.7-3.6,0.7C520,119.6,518.6,119.2,517.3,118.6z"/>
	<path class="st2" d="M539,116h-7.1l-1.4,3.3h-3.7l6.9-15.4h3.5l6.9,15.4h-3.7L539,116z M537.9,113.3l-2.4-5.9l-2.4,5.9H537.9z"/>
	<path class="st2" d="M554.5,119.3l-3-4.3h-0.2h-3.1v4.3h-3.6v-15.4h6.7c1.4,0,2.5,0.2,3.6,0.7s1.8,1.1,2.3,1.9
		c0.5,0.8,0.8,1.8,0.8,3s-0.3,2.1-0.8,3c-0.6,0.8-1.3,1.5-2.3,1.9l3.5,5H554.5z M553.6,107.5c-0.6-0.5-1.4-0.7-2.4-0.7h-2.9v5.4h2.9
		c1.1,0,1.9-0.2,2.4-0.7c0.6-0.5,0.8-1.1,0.8-2C554.4,108.6,554.1,108,553.6,107.5z"/>
	<path class="st2" d="M571.6,116.5v2.9h-11.9v-15.4h11.6v2.9h-8.1v3.3h7.1v2.8h-7.1v3.6H571.6z"/>
</g>
</svg>
