<?xml version="1.0" encoding="UTF-8"?>
<svg width="150px" height="150px" viewBox="0 0 150 150" version="1.1" xmlns="http://www.w3.org/2000/svg" xmlns:xlink="http://www.w3.org/1999/xlink">
    <!-- Generator: Sketch 51.2 (57519) - http://www.bohemiancoding.com/sketch -->
    <title>profitable-connections 2</title>
    <desc>Created with Sketch.</desc>
    <defs></defs>
    <g id="Page-1" stroke="none" stroke-width="1" fill="none" fill-rule="evenodd">
        <g id="profitable-connections">
            <g id="Layer_1" fill-rule="nonzero">
                <g id="Group">
                    <circle id="Oval" fill="#EB1D39" cx="75" cy="75" r="75"></circle>
                    <g transform="translate(41.000000, 30.000000)" fill="#FFFFFF">
                        <g transform="translate(0.000000, 21.000000)">
                            <g transform="translate(37.000000, 0.000000)">
                                <path d="M24.3,44.8 C24.1,44.8 23.8,44.7 23.6,44.5 C23.2,44.1 23.2,43.5 23.6,43.1 L25.4,41.2 C30,36.5 32.5,30.2 32.5,23.6 L32.5,16.3 C30.1,16.8 28.3,18.9 28.3,21.4 C28.3,21.9 27.9,22.4 27.3,22.4 C26.7,22.4 26.3,22 26.3,21.4 C26.3,17.5 29.5,14.3 33.4,14.3 L34.4,14.3 L34.4,23.6 C34.4,30.7 31.7,37.4 26.7,42.5 L24.9,44.4 C24.8,44.7 24.5,44.8 24.3,44.8 Z" id="Shape"></path>
                                <path d="M28.3,29.6 L26.4,29.6 L26.4,4.8 C26.4,3.6 25.4,2.7 24.3,2.7 C23.2,2.7 22.2,3.7 22.2,4.8 L22.2,22.3 L20.3,22.3 L20.3,4.8 C20.3,2.6 22.1,0.7 24.4,0.7 C26.6,0.7 28.5,2.5 28.5,4.8 L28.5,29.6 L28.3,29.6 Z" id="Shape"></path>
                                <path d="M15.9,22.3 L14,22.3 L14,4.8 C14,2.6 15.8,0.7 18.1,0.7 C20.3,0.7 22.2,2.5 22.2,4.8 L22.2,22.3 L20.3,22.3 L20.3,4.8 C20.3,3.6 19.3,2.7 18.2,2.7 C17,2.7 16.1,3.7 16.1,4.8 L15.9,22.3 Z" id="Shape"></path>
                                <rect id="Rectangle-path" transform="translate(8.747520, 17.397265) rotate(-89.891138) translate(-8.747520, -17.397265) " x="3.8475109" y="16.4472631" width="9.80001769" height="1.90000343"></rect>
                                <rect id="Rectangle-path" transform="translate(14.957705, 13.597545) rotate(-89.891138) translate(-14.957705, -13.597545) " x="6.20768893" y="12.6475431" width="17.5000316" height="1.90000343"></rect>
                                <rect id="Rectangle-path" x="3.8" y="43.8" width="1.9" height="19.5"></rect>
                                <rect id="Rectangle-path" x="23.3" y="43.8" width="1.9" height="19.5"></rect>
                                <path d="M4.8,44.8 C4.4,44.8 4,44.5 3.9,44.1 L3.8,43.8 C1.6,37.3 0.6,30.5 0.9,23.6 L1.1,18.9 C1.1,18.4 1.6,17.9 2.1,18 C2.6,18 3,18.5 3,19 L2.8,23.7 C2.5,30.3 3.4,36.9 5.6,43.2 L5.7,43.5 C5.9,44 5.6,44.6 5.1,44.7 C5,44.8 4.9,44.8 4.8,44.8 Z" id="Shape"></path>
                                <path d="M13.5,38.9 L11.6,38.9 L11.6,36.4 C11.6,32 15.1,28.3 19.7,27.7 L27.4,27.7 L27.4,29.6 L19.9,29.6 C16.4,30 13.7,32.9 13.7,36.4 L13.7,38.9 L13.5,38.9 Z" id="Shape"></path>
                            </g>
                            <g>
                                <path d="M10.9,44.8 C10.6,44.8 10.4,44.7 10.2,44.5 L8.4,42.6 C3.4,37.5 0.7,30.8 0.7,23.7 L0.7,14.4 L1.7,14.4 C5.6,14.4 8.8,17.6 8.8,21.5 C8.8,22 8.4,22.5 7.8,22.5 C7.3,22.5 6.8,22.1 6.8,21.5 C6.8,19 5,16.9 2.6,16.4 L2.6,23.7 C2.6,30.3 5.1,36.6 9.7,41.3 L11.5,43.2 C11.9,43.6 11.9,44.2 11.5,44.6 C11.4,44.7 11.2,44.8 10.9,44.8 Z" id="Shape"></path>
                                <path d="M8.8,29.6 L6.9,29.6 L6.9,4.8 C6.9,2.6 8.7,0.7 11,0.7 C13.2,0.7 15.1,2.5 15.1,4.8 L15.1,22.3 L13.2,22.3 L13.2,4.8 C13.2,3.6 12.2,2.7 11.1,2.7 C9.9,2.7 9,3.7 9,4.8 L9,29.6 L8.8,29.6 Z" id="Shape"></path>
                                <path d="M19.2,22.3 L19.2,4.8 C19.2,3.6 18.2,2.7 17.1,2.7 C15.9,2.7 15,3.7 15,4.8 L15,22.3 L13.1,22.3 L13.1,4.8 C13.1,2.6 14.9,0.7 17.2,0.7 C19.4,0.7 21.3,2.5 21.3,4.8 L21.3,22.3 L19.2,22.3 Z" id="Shape"></path>
                                <rect id="Rectangle-path" transform="translate(26.357553, 17.405058) rotate(-89.661965) translate(-26.357553, -17.405058) " x="21.4574678" y="16.4550414" width="9.80017056" height="1.90003307"></rect>
                                <path d="M19.2,22.3 L19.2,4.8 C19.2,3.7 19.6,2.7 20.4,1.9 L21.8,3.3 C21.4,3.7 21.2,4.2 21.2,4.8 L21.2,22.3 L19.2,22.3 Z" id="Shape"></path>
                                <rect id="Rectangle-path" x="29.4" y="43.8" width="1.9" height="19.5"></rect>
                                <rect id="Rectangle-path" x="9.9" y="43.8" width="1.9" height="19.5"></rect>
                                <path d="M30.4,44.8 C30.3,44.8 30.2,44.8 30.1,44.7 C29.6,44.5 29.3,44 29.5,43.5 L29.6,43.2 C31.7,36.9 32.7,30.4 32.4,23.7 L32.2,19 C32.2,18.5 32.6,18 33.1,18 C33.6,18 34.1,18.4 34.1,18.9 L34.3,23.6 C34.6,30.5 33.6,37.3 31.4,43.8 L31.3,44.1 C31.2,44.5 30.8,44.8 30.4,44.8 Z" id="Shape"></path>
                                <path d="M23.6,38.9 L21.7,38.9 L21.7,36.4 C21.7,33 19,30.1 15.3,29.6 L7.9,29.6 L7.9,27.7 L15.4,27.7 C20.1,28.3 23.6,32 23.6,36.4 L23.6,38.9 Z" id="Shape"></path>
                            </g>
                        </g>
                        <g transform="translate(20.000000, 15.000000)" id="Shape">
                            <g transform="translate(14.000000, 0.000000)">
                                <path d="M13.4,17.6 C13.1,17.6 12.9,17.5 12.7,17.3 C12.4,16.9 12.4,16.3 12.8,15.9 C15,14 16.1,11.9 16.1,9.6 C16.1,5.4 12.7,2 8.5,2 C6.3,2 4.2,3 2.7,4.6 C2.4,5 1.7,5 1.3,4.7 C0.9,4.4 0.9,3.7 1.2,3.3 C3,1.2 5.6,1.42108547e-14 8.4,1.42108547e-14 C13.7,1.42108547e-14 17.9,4.3 17.9,9.5 C17.9,12.3 16.5,15 14,17.2 C13.9,17.5 13.7,17.6 13.4,17.6 Z"></path>
                                <path d="M2,28.7 C1.7,28.7 1.5,28.6 1.3,28.4 C0.9,28 0.9,27.4 1.3,27 L13.8,15 C14.2,14.6 14.8,14.6 15.2,15 C15.6,15.4 15.6,16 15.2,16.4 L2.7,28.4 C2.5,28.6 2.2,28.7 2,28.7 Z"></path>
                            </g>
                            <g>
                                <path d="M4.5,17.6 C4.3,17.6 4.1,17.5 3.9,17.4 C1.3,15.2 7.10542736e-15,12.5 7.10542736e-15,9.7 C7.10542736e-15,4.4 4.3,0.2 9.5,0.2 C12.3,0.2 14.9,1.4 16.7,3.5 C17,3.9 17,4.5 16.6,4.9 C16.2,5.2 15.6,5.2 15.2,4.8 C13.8,3 11.7,2 9.5,2 C5.3,2 1.9,5.4 1.9,9.6 C1.9,11.9 3,14 5.2,15.9 C5.6,16.2 5.7,16.9 5.3,17.3 C5.1,17.5 4.8,17.6 4.5,17.6 Z"></path>
                                <path d="M16,28.7 C15.8,28.7 15.5,28.6 15.3,28.4 L2.9,16.4 C2.5,16 2.5,15.4 2.9,15 C3.3,14.6 3.9,14.6 4.3,15 L16.7,27.1 C17.1,27.5 17.1,28.1 16.7,28.5 C16.5,28.6 16.2,28.7 16,28.7 Z"></path>
                            </g>
                        </g>
                        <g transform="translate(13.000000, 0.000000)" id="Shape">
                            <path d="M5.2,17 C5,17 4.8,16.9 4.7,16.8 L1.3,14.6 C0.9,14.3 0.7,13.7 1,13.3 C1.3,12.9 1.9,12.7 2.3,13 L5.7,15.2 C6.1,15.5 6.3,16.1 6,16.5 C5.8,16.9 5.5,17 5.2,17 Z"></path>
                            <path d="M13.8,9 C13.5,9 13.2,8.9 13,8.6 L10.5,5.4 C10.2,5 10.2,4.4 10.7,4 C11.1,3.7 11.7,3.7 12.1,4.2 L14.6,7.4 C14.9,7.8 14.9,8.4 14.4,8.8 C14.2,9 14,9 13.8,9 Z"></path>
                            <path d="M23,6.4 C22.5,6.4 22,6 22,5.4 L22,1.4 C22,0.9 22.4,0.4 23,0.4 C23.5,0.4 24,0.8 24,1.4 L24,5.4 C24,6 23.5,6.4 23,6.4 C23,6.4 23,6.4 23,6.4 Z"></path>
                            <path d="M32.5,9 C32.3,9 32.1,8.9 31.9,8.8 C31.5,8.5 31.4,7.9 31.7,7.4 L34.2,4.2 C34.5,3.8 35.1,3.7 35.6,4 C36,4.3 36.1,4.9 35.8,5.4 L33.3,8.6 C33.1,8.9 32.8,9 32.5,9 Z"></path>
                            <path d="M40.8,17 C40.5,17 40.2,16.8 40,16.6 C39.7,16.2 39.8,15.6 40.3,15.3 L43.7,13.1 C44.1,12.8 44.7,12.9 45,13.4 C45.3,13.8 45.2,14.4 44.7,14.7 L41.3,16.9 C41.1,17 40.9,17 40.8,17 Z"></path>
                        </g>
                    </g>
                </g>
            </g>
            <g id="Layer_3" fill-rule="nonzero">
                <g id="Group">
                    <circle id="Oval" fill="#EB1D39" cx="75" cy="75" r="75"></circle>
                    <path d="M74.1,53 C61.8,53 51.9,63 51.9,75.2 C51.9,87.5 61.9,97.4 74.1,97.4 C86.4,97.4 96.3,87.4 96.3,75.2 C96.3,63 86.3,53 74.1,53 Z M88.4,87.8 C84.9,91.8 79.8,94.3 74.1,94.3 C68.4,94.3 63.3,91.8 59.8,87.8 L59.8,86.4 C59.8,84.1 61.7,83.2 62.5,83 C63.2,82.8 64.7,82.2 65.7,81.9 L72.9,89.1 C73.2,89.4 73.6,89.6 74,89.6 C74.4,89.6 74.8,89.4 75.1,89.1 L82.3,81.9 C83.3,82.2 84.8,82.8 85.5,83 C86.3,83.3 88.2,84.2 88.2,86.4 L88.2,87.8 L88.4,87.8 Z M91,83.9 C90.3,82.1 88.7,80.7 86.6,79.9 C85.6,79.6 82.5,78.5 82.5,78.5 C81.9,78.3 81.3,78.4 80.9,78.9 L74.1,85.7 L67.3,78.9 C66.9,78.5 66.2,78.3 65.7,78.5 C65.7,78.5 62.6,79.6 61.6,79.9 C59.5,80.6 57.9,82.1 57.2,83.9 C55.9,81.3 55.1,78.4 55.1,75.3 C55.1,64.8 63.7,56.2 74.2,56.2 C84.7,56.2 93.3,64.8 93.3,75.3 C93.1,78.3 92.4,81.3 91,83.9 Z M74.1,59.3 C68.8,59.3 64.6,63.6 64.6,68.8 C64.6,74.1 68.9,78.3 74.1,78.3 C79.4,78.3 83.6,74 83.6,68.8 C83.6,63.6 79.3,59.3 74.1,59.3 Z M74.1,75.2 C70.6,75.2 67.7,72.3 67.7,68.8 C67.7,65.3 70.6,62.4 74.1,62.4 C77.6,62.4 80.5,65.3 80.5,68.8 C80.4,72.4 77.6,75.2 74.1,75.2 Z M95.7,40.1 C89,36 81.5,33.9 74,33.9 C66.5,33.9 59,36 52.3,40.1 C50.5,38.5 48.3,37.6 45.9,37.6 C43.4,37.6 41,38.6 39.2,40.4 C37.4,42.2 36.4,44.6 36.4,47.1 C36.4,49.5 37.3,51.8 38.9,53.5 C34.8,60.2 32.7,67.7 32.7,75.2 C32.7,82.7 34.8,90.2 38.9,96.9 C37.3,98.7 36.4,100.9 36.4,103.3 C36.4,105.8 37.4,108.2 39.2,110 C41,111.8 43.4,112.8 45.9,112.8 C48.3,112.8 50.6,111.9 52.3,110.3 C59,114.4 66.5,116.5 74,116.5 C81.5,116.5 89,114.4 95.7,110.3 C97.5,111.9 99.7,112.8 102.1,112.8 C104.6,112.8 107,111.8 108.8,110 C110.6,108.2 111.6,105.8 111.6,103.3 C111.6,100.9 110.7,98.6 109.1,96.9 C113.2,90.2 115.3,82.7 115.3,75.2 C115.3,67.7 113.2,60.2 109.1,53.5 C110.7,51.7 111.6,49.5 111.6,47.1 C111.6,44.6 110.6,42.2 108.8,40.4 C107,38.6 104.6,37.6 102.1,37.6 C99.7,37.6 97.5,38.5 95.7,40.1 Z M97.7,42.7 C98.9,41.5 100.6,40.8 102.2,40.8 C103.8,40.8 105.5,41.4 106.7,42.7 C109.2,45.2 109.2,49.2 106.7,51.7 C104.2,54.2 100.2,54.2 97.7,51.7 C95.2,49.2 95.2,45.1 97.7,42.7 Z M41.5,42.7 C42.7,41.5 44.4,40.8 46,40.8 C47.6,40.8 49.3,41.4 50.5,42.7 C53,45.2 53,49.2 50.5,51.7 C48,54.2 44,54.2 41.5,51.7 C39,49.2 39,45.1 41.5,42.7 Z M50.5,107.8 C48,110.3 44,110.3 41.5,107.8 C39,105.3 39,101.3 41.5,98.8 C42.7,97.6 44.4,96.9 46,96.9 C47.6,96.9 49.3,97.5 50.5,98.8 C52.9,101.3 52.9,105.3 50.5,107.8 Z M106.6,107.8 C104.1,110.3 100.1,110.3 97.6,107.8 C95.1,105.3 95.1,101.3 97.6,98.8 C98.8,97.6 100.5,96.9 102.1,96.9 C103.7,96.9 105.4,97.5 106.6,98.8 C109.1,101.3 109.1,105.3 106.6,107.8 Z M93.7,107.8 C87.6,111.5 80.8,113.3 74,113.3 C67.2,113.3 60.4,111.4 54.3,107.8 C55,106.4 55.4,104.9 55.4,103.3 C55.4,100.8 54.4,98.4 52.6,96.6 C50.8,94.8 48.4,93.8 45.9,93.8 C44.3,93.8 42.8,94.2 41.4,94.9 C37.7,88.8 35.9,82 35.9,75.2 C35.9,68.4 37.8,61.6 41.4,55.5 C42.8,56.2 44.3,56.6 45.9,56.6 C48.4,56.6 50.8,55.6 52.6,53.8 C54.4,52 55.4,49.6 55.4,47.1 C55.4,45.5 55,44 54.3,42.6 C60.4,38.9 67.2,37.1 74,37.1 C80.8,37.1 87.6,39 93.7,42.6 C93,44 92.6,45.5 92.6,47.1 C92.6,49.6 93.6,52 95.4,53.8 C97.2,55.6 99.6,56.6 102.1,56.6 C103.7,56.6 105.2,56.2 106.6,55.5 C110.3,61.6 112.1,68.4 112.1,75.2 C112.1,82 110.2,88.8 106.6,94.9 C105.2,94.2 103.7,93.8 102.1,93.8 C99.6,93.8 97.2,94.8 95.4,96.6 C93.6,98.4 92.6,100.8 92.6,103.3 C92.6,104.9 93,106.5 93.7,107.8 Z" id="Shape" stroke="#EB1D39" stroke-width="0.5" fill="#FFFFFF"></path>
                </g>
            </g>
            <g id="Layer_2">
                <g id="Group">
                    <circle id="Oval" fill="#EB1D39" fill-rule="nonzero" cx="75" cy="75" r="75"></circle>
                    <g transform="translate(37.000000, 34.000000)" id="Shape" stroke="#FFFFFF" stroke-width="2">
                        <path d="M30,56 C30,52.1449275 33.1,49 37,49 C40.9,49 44,52.1449275 44,56 C44,59.8550725 40.9,63 37,63 C33.1,63 30,59.9565217 30,56 Z"></path>
                        <path d="M50,81 L50,76.0588235 C50,71.4201681 41.8699187,69 37.5,69 C33.0284553,69 25,71.4201681 25,76.0588235 L25,81"></path>
                        <path d="M51,56 C51,52.1449275 54.1,49 58,49 C61.9,49 65,52.1449275 65,56 C65,59.8550725 61.9,63 58,63 C54.1,63 51,59.9565217 51,56 Z"></path>
                        <path d="M71,81 L71,76.0588235 C71,71.4201681 62.8181818,69 58.4204545,69 C56.8863636,69 54.9431818,69.302521 53,69.8067227"></path>
                        <path d="M23,55.9988067 C23,52.1443914 19.9,49 16,49 C12.1,49 9,52.1443914 9,55.9988067 C9,59.8532219 12.1,62.9976133 16,62.9976133 C19.8,63.0990453 23,59.9546539 23,55.9988067 Z"></path>
                        <path d="M3,81 L3,76.0588235 C3,71.4201681 11.1818182,69 15.6818182,69 C17.2159091,69 19.1590909,69.302521 21,69.8067227"></path>
                        <path d="M37.1957672,0 L68.962963,0 C72.8835979,0 76,3.12128146 76,7.04805492 L76,24.7688787 C76,28.6956522 72.8835979,31.8169336 68.962963,31.8169336 L61.9259259,31.8169336 L61.9259259,40.6773455 C61.9259259,42.389016 59.7142857,43.0938215 58.7089947,41.784897 L51.2698413,31.9176201 L42.4232804,31.9176201 L38.8042328,42.791762 C38.3015873,44.402746 35.989418,44.402746 35.4867725,42.791762 L31.8677249,31.9176201 L23.021164,31.9176201 L15.5820106,41.784897 C14.5767196,43.194508 12.3650794,42.389016 12.3650794,40.6773455 L12.3650794,31.8169336 L7.03703704,31.8169336 C3.11640212,31.8169336 0,28.6956522 0,24.7688787 L0,7.04805492 C0,3.12128146 3.11640212,0 7.03703704,0 L37.1957672,0 Z"></path>
                    </g>
                </g>
            </g>
            <g id="Group" transform="translate(69.000000, 39.000000)" stroke="#FFFFFF" stroke-width="2">
                <path d="M0.7,15.5 C0.7,17.9 2.9,19.9 5.7,19.9 C8.5,19.9 10.7,17.9 10.7,15.5 C10.7,13.1 8.5,11.1 5.7,11.1 C2.9,11.1 0.7,9.1 0.7,6.7 C0.7,4.3 2.9,2.3 5.7,2.3 C8.5,2.3 10.7,4.3 10.7,6.7" id="Shape"></path>
                <path d="M5.6,0.1 L5.6,22.1" id="Shape"></path>
            </g>
        </g>
    </g>
</svg>