<?xml version="1.0" encoding="utf-8"?>
<!-- Generator: Adobe Illustrator 22.1.0, SVG Export Plug-In . SVG Version: 6.00 Build 0)  -->
<svg version="1.1" xmlns="http://www.w3.org/2000/svg" xmlns:xlink="http://www.w3.org/1999/xlink" x="0px" y="0px"
	 viewBox="0 0 100 100" style="enable-background:new 0 0 100 100;" xml:space="preserve">
<style type="text/css">
	.st0{display:none;}
	.st1{display:inline;}
	.st2{fill:none;stroke:#EB1D39;stroke-miterlimit:10;}
	.st3{fill:none;stroke:#EB1D39;stroke-width:1.5;stroke-miterlimit:10;}
</style>
<g id="Layer_1" class="st0">
	<g class="st1">
		<circle class="st2" cx="49.9" cy="51.3" r="42.7"/>
		
			<image style="overflow:visible;" width="426" height="223" xlink:href="98856E353FE0D621.jpg"  transform="matrix(0.1112 0 0 0.1112 25.488 38.0209)">
		</image>
	</g>
</g>
<g id="Layer_2">
	<g>
		<circle class="st2" cx="49.6" cy="51.3" r="42.7"/>
		<g>
			<path class="st3" d="M48.9,49.6h-12c-1.1,0-2-0.9-2-2v-17c0-1.1,0.9-2,2-2h28c1.1,0,2,0.9,2,2v17c0,1.1-0.9,2-2,2h-1v4
				c0,1-1.2,1.4-1.8,0.6l-4.2-4.6h-2"/>
			<path class="st3" d="M40.9,71.6h1c2.2,0,0.8,1,4,1c0.6,0,9,0,9,0"/>
			<path class="st3" d="M60.9,57.6h-3c-1.1,0-2,0.9-2,2c0,1.1,0.9,2,2,2h3c1.1,0,2-0.9,2-2C62.9,58.5,62,57.6,60.9,57.6z"/>
			<path class="st3" d="M62.9,65.6v2c0,1.1-0.9,2-2,2h-3c-1.1,0-2-0.9-2-2c0-1.1,0.9-2,2-2h1"/>
			<path class="st3" d="M60.9,69.6v2c0,1.1-0.9,2-2,2h-2c-1.1,0-2-0.9-2-2c0-1.1,0.9-2,2-2h1"/>
			<rect x="34.9" y="55.6" class="st3" width="6" height="17"/>
			<path class="st3" d="M57.9,61.6h1c-1.1,0-2,0.9-2,2l0,0c0,1.1,0.9,2,2,2h3c1.1,0,2-0.9,2-2l0,0c0-1.1-0.9-2-2-2h-1"/>
			<path class="st3" d="M47.2,66c3.3-1.2,4.7-4.1,5.7-7.4c0,0,0-2.6,0-3c0-0.5,0.5-1.5,0.5-3.8c0-2.3-0.5-3.2-1.5-4.4
				c-1-1.3-2.9-1-2.9,0.2v1c0,2.8-1,4.8-2.9,6.9l-3.1,2.1h-2"/>
		</g>
	</g>
</g>
</svg>
