<?xml version="1.0" encoding="utf-8"?>
<!-- Generator: Adobe Illustrator 22.1.0, SVG Export Plug-In . SVG Version: 6.00 Build 0)  -->
<svg version="1.1" id="Layer_1" xmlns="http://www.w3.org/2000/svg" xmlns:xlink="http://www.w3.org/1999/xlink" x="0px" y="0px"
	 viewBox="0 0 500 400" style="enable-background:new 0 0 500 400;" xml:space="preserve">
<style type="text/css">
	.st0{fill:none;stroke:#FFFFFF;stroke-miterlimit:10;}
	.st1{fill:#FFFFFF;}
	.st2{fill:#EB1D39;}
	.st3{fill:#020202;}
	.st4{fill:none;stroke:#EB1D39;stroke-width:2;stroke-miterlimit:10;}
	.st5{fill:none;stroke:#EB1D39;stroke-width:2;stroke-linejoin:round;stroke-miterlimit:10;}
	.st6{fill:none;stroke:#EB1D39;stroke-width:1.6454;stroke-linejoin:round;stroke-miterlimit:10;}
</style>
<circle class="st0" cx="252.1" cy="185.3" r="139.4"/>
<circle class="st1" cx="113.9" cy="162.4" r="42.7"/>
<circle class="st1" cx="149.6" cy="279.4" r="42.7"/>
<circle class="st1" cx="185.6" cy="63.4" r="42.7"/>
<circle class="st1" cx="309.6" cy="60" r="42.7"/>
<circle class="st1" cx="386" cy="144.7" r="42.7"/>
<circle class="st1" cx="367.6" cy="265" r="42.7"/>
<circle class="st1" cx="261.2" cy="324" r="42.7"/>
<path class="st2" d="M102.7,142.5c2.6,0,4.7-2.1,4.7-4.7s-2.1-4.7-4.7-4.7c-2.6,0-4.7,2.1-4.7,4.7S100.1,142.5,102.7,142.5z
	 M102.7,134.7c1.7,0,3.1,1.4,3.1,3.1s-1.4,3.1-3.1,3.1c-1.7,0-3.1-1.4-3.1-3.1S101,134.7,102.7,134.7z M133.2,159.7h-2.4
	c0.5-0.7,0.8-1.5,0.8-2.3V148c0-3-2.5-5.5-5.5-5.5H123c2.6,0,4.7-2.1,4.7-4.7s-2.1-4.7-4.7-4.7c-2.6,0-4.7,2.1-4.7,4.7
	s2.1,4.7,4.7,4.7h-3.1c-2.2,0-4.2,1.3-5.1,3.4l-1.8,4.5l-2.1-4.7c-0.4-0.9-0.8-1.7-1.9-2.3c-0.5-0.2-1.9-0.8-2.1-0.8
	c-0.3-0.1-0.6,0-0.8,0.2l-3.4,3.4l-3.4-3.4c-0.2-0.2-0.5-0.3-0.8-0.2l-2,0.7c-1.4,0.5-2.4,1.8-2.4,3.4v10.8c0,1.9,1.3,3.5,3.1,3.8
	v11c0,0.9,0.7,1.6,1.6,1.6h7.8c0.9,0,1.6-0.7,1.6-1.6v-21.4l2.4,5.6c-0.1,0.4,0,0.9,0.1,1.3c0.2,0.6,0.7,1,1.3,1.2
	c1.2,0.4,2.6-0.1,3.1-1.3l2.5-6.4v21c0,0.9,0.7,1.6,1.6,1.6h7.8c0.9,0,1.6-0.7,1.6-1.6v-4.7h4.7c0.9,0,1.6-0.7,1.6-1.6v-4.7
	C134.8,160.4,134.1,159.7,133.2,159.7z M119.9,137.8c0-1.7,1.4-3.1,3.1-3.1c1.7,0,3.1,1.4,3.1,3.1s-1.4,3.1-3.1,3.1
	C121.3,140.9,119.9,139.5,119.9,137.8z M111.4,154.3l-2.7-6.2c-0.2-0.5-0.7-0.8-1.2-0.6c-0.5,0.1-0.9,0.5-0.9,1.1v23.7h-3.1v-13.3
	c0-0.4-0.3-0.8-0.8-0.8c-0.4,0-0.8,0.3-0.8,0.8v13.3h-3.1v-22.7c0-0.4-0.3-0.8-0.8-0.8c-0.4,0-0.8,0.3-0.8,0.8v10
	c-0.9-0.3-1.6-1.2-1.6-2.2v-10.8c0-0.9,0.5-1.6,1.4-1.9l1.6-0.5l3.6,3.6c0.3,0.3,0.8,0.3,1.1,0l3.6-3.6c0.5,0.2,1.2,0.5,1.5,0.6
	c0.6,0.3,0.9,0.7,1.2,1.5l2.7,6.1L111.4,154.3z M127.7,148c-0.4,0-0.8,0.3-0.8,0.8v23.5h-3.1v-13.3c0-0.4-0.3-0.8-0.8-0.8
	c-0.4,0-0.8,0.3-0.8,0.8v13.3h-3.1v-23.5c0-0.5-0.4-1-0.9-1.1c-0.1,0-0.2,0-0.2,0c-0.4,0-0.8,0.3-1,0.7l-3.4,8.7
	c-0.2,0.4-0.7,0.6-1.1,0.5c-0.2-0.1-0.3-0.2-0.4-0.4c-0.1-0.2-0.1-0.4,0-0.6l4.1-10.1c0.6-1.5,2.1-2.4,3.7-2.4h6.2
	c2.2,0,3.9,1.8,3.9,3.9v9.4c0,1-0.7,1.9-1.6,2.2v-10.8C128.5,148.3,128.2,148,127.7,148z M133.2,165.9h-4.7v-4.7h4.7V165.9z"/>
<g>
	<path class="st3" d="M97.4,184.7h-2.6l-0.5,1.2h-1.3l2.5-5.6h1.3l2.5,5.6h-1.4L97.4,184.7z M96.9,183.8l-0.9-2.1l-0.9,2.1H96.9z"/>
	<path class="st3" d="M100.8,185.7c-0.5-0.2-0.8-0.6-1.1-1s-0.4-0.9-0.4-1.5s0.1-1.1,0.4-1.5s0.6-0.8,1.1-1c0.5-0.2,1-0.4,1.6-0.4
		c0.5,0,0.9,0.1,1.3,0.3s0.7,0.4,1,0.7l-0.8,0.8c-0.4-0.4-0.8-0.7-1.4-0.7c-0.3,0-0.7,0.1-0.9,0.2c-0.3,0.2-0.5,0.4-0.6,0.6
		c-0.2,0.3-0.2,0.6-0.2,0.9s0.1,0.7,0.2,0.9c0.2,0.3,0.4,0.5,0.6,0.6c0.3,0.2,0.6,0.2,0.9,0.2c0.6,0,1-0.2,1.4-0.7l0.8,0.8
		c-0.3,0.3-0.6,0.6-1,0.7c-0.4,0.2-0.8,0.3-1.3,0.3C101.8,186,101.3,185.9,100.8,185.7z"/>
	<path class="st3" d="M106.6,185.7c-0.5-0.2-0.8-0.6-1.1-1s-0.4-0.9-0.4-1.5s0.1-1.1,0.4-1.5s0.6-0.8,1.1-1c0.5-0.2,1-0.4,1.6-0.4
		c0.5,0,0.9,0.1,1.3,0.3s0.7,0.4,1,0.7l-0.8,0.8c-0.4-0.4-0.8-0.7-1.4-0.7c-0.3,0-0.7,0.1-0.9,0.2c-0.3,0.2-0.5,0.4-0.6,0.6
		c-0.2,0.3-0.2,0.6-0.2,0.9s0.1,0.7,0.2,0.9c0.2,0.3,0.4,0.5,0.6,0.6c0.3,0.2,0.6,0.2,0.9,0.2c0.6,0,1-0.2,1.4-0.7l0.8,0.8
		c-0.3,0.3-0.6,0.6-1,0.7c-0.4,0.2-0.8,0.3-1.3,0.3C107.6,186,107,185.9,106.6,185.7z"/>
	<path class="st3" d="M112.3,185.7c-0.5-0.3-0.8-0.6-1.1-1s-0.4-0.9-0.4-1.5s0.1-1,0.4-1.5s0.6-0.8,1.1-1c0.5-0.3,1-0.4,1.6-0.4
		s1.1,0.1,1.6,0.4c0.5,0.3,0.8,0.6,1.1,1s0.4,0.9,0.4,1.5s-0.1,1-0.4,1.5s-0.6,0.8-1.1,1c-0.5,0.3-1,0.4-1.6,0.4
		S112.8,185.9,112.3,185.7z M114.8,184.7c0.3-0.2,0.5-0.4,0.6-0.6c0.2-0.3,0.2-0.6,0.2-0.9s-0.1-0.7-0.2-0.9
		c-0.2-0.3-0.4-0.5-0.6-0.6c-0.3-0.2-0.6-0.2-0.9-0.2s-0.6,0.1-0.9,0.2c-0.3,0.2-0.5,0.4-0.6,0.6c-0.2,0.3-0.2,0.6-0.2,0.9
		s0.1,0.7,0.2,0.9c0.2,0.3,0.4,0.5,0.6,0.6c0.3,0.2,0.6,0.2,0.9,0.2S114.5,184.9,114.8,184.7z"/>
	<path class="st3" d="M118.6,185.4c-0.4-0.4-0.7-1.1-0.7-1.9v-3.1h1.3v3.1c0,1,0.4,1.5,1.2,1.5c0.4,0,0.7-0.1,0.9-0.4
		s0.3-0.6,0.3-1.1v-3.1h1.3v3.1c0,0.8-0.2,1.5-0.7,1.9c-0.4,0.4-1.1,0.7-1.9,0.7C119.6,186,119,185.8,118.6,185.4z"/>
	<path class="st3" d="M129.4,180.3v5.6h-1.1l-2.8-3.4v3.4h-1.3v-5.6h1.1l2.8,3.4v-3.4H129.4z"/>
	<path class="st3" d="M131.9,181.4h-1.8v-1.1h4.9v1.1h-1.8v4.5h-1.3V181.4z"/>
	<path class="st3" d="M97.2,193.9c-0.4-0.1-0.7-0.3-1-0.5l0.4-1c0.2,0.2,0.5,0.3,0.9,0.4c0.3,0.1,0.7,0.2,1,0.2
		c0.4,0,0.6-0.1,0.8-0.2s0.3-0.3,0.3-0.4c0-0.1-0.1-0.2-0.2-0.3c-0.1-0.1-0.2-0.2-0.4-0.2c-0.2-0.1-0.4-0.1-0.7-0.2
		c-0.4-0.1-0.8-0.2-1-0.3c-0.3-0.1-0.5-0.3-0.7-0.5c-0.2-0.2-0.3-0.5-0.3-0.9c0-0.3,0.1-0.6,0.3-0.9c0.2-0.3,0.4-0.5,0.8-0.6
		c0.4-0.2,0.8-0.2,1.3-0.2c0.4,0,0.7,0,1,0.1c0.3,0.1,0.6,0.2,0.9,0.4l-0.4,1c-0.5-0.3-1-0.4-1.6-0.4c-0.4,0-0.6,0.1-0.8,0.2
		c-0.2,0.1-0.3,0.3-0.3,0.5s0.1,0.3,0.3,0.4s0.5,0.2,0.9,0.3c0.4,0.1,0.8,0.2,1,0.3c0.3,0.1,0.5,0.3,0.7,0.5s0.3,0.5,0.3,0.9
		c0,0.3-0.1,0.6-0.3,0.9c-0.2,0.3-0.4,0.5-0.8,0.6c-0.4,0.2-0.8,0.2-1.3,0.2C98,194,97.6,194,97.2,193.9z"/>
	<path class="st3" d="M106.1,192.9v1h-4.3v-5.6h4.2v1H103v1.2h2.6v1H103v1.3H106.1z"/>
	<path class="st3" d="M110.7,193.9l-1.1-1.6h-0.1h-1.1v1.6h-1.3v-5.6h2.4c0.5,0,0.9,0.1,1.3,0.2c0.4,0.2,0.6,0.4,0.8,0.7
		c0.2,0.3,0.3,0.7,0.3,1.1s-0.1,0.8-0.3,1.1c-0.2,0.3-0.5,0.5-0.9,0.7l1.3,1.8H110.7z M110.3,189.6c-0.2-0.2-0.5-0.3-0.9-0.3h-1.1v2
		h1.1c0.4,0,0.7-0.1,0.9-0.3c0.2-0.2,0.3-0.4,0.3-0.7C110.7,190.1,110.6,189.8,110.3,189.6z"/>
	<path class="st3" d="M118.4,188.3l-2.4,5.6h-1.3l-2.4-5.6h1.4l1.7,4l1.7-4H118.4z"/>
	<path class="st3" d="M118.8,188.3h1.3v5.6h-1.3V188.3z"/>
	<path class="st3" d="M122.6,193.7c-0.5-0.2-0.8-0.6-1.1-1s-0.4-0.9-0.4-1.5s0.1-1.1,0.4-1.5s0.6-0.8,1.1-1c0.5-0.2,1-0.4,1.6-0.4
		c0.5,0,0.9,0.1,1.3,0.3s0.7,0.4,1,0.7l-0.8,0.8c-0.4-0.4-0.8-0.7-1.4-0.7c-0.3,0-0.7,0.1-0.9,0.2c-0.3,0.2-0.5,0.4-0.6,0.6
		c-0.2,0.3-0.2,0.6-0.2,0.9s0.1,0.7,0.2,0.9c0.2,0.3,0.4,0.5,0.6,0.6c0.3,0.2,0.6,0.2,0.9,0.2c0.6,0,1-0.2,1.4-0.7l0.8,0.8
		c-0.3,0.3-0.6,0.6-1,0.7c-0.4,0.2-0.8,0.3-1.3,0.3C123.6,194,123.1,193.9,122.6,193.7z"/>
	<path class="st3" d="M131.7,192.9v1h-4.3v-5.6h4.2v1h-2.9v1.2h2.6v1h-2.6v1.3H131.7z"/>
</g>
<g>
	<path class="st3" d="M237.7,349.3l0-3.4l-1.6,2.8h-0.6l-1.6-2.7v3.3h-1.2v-5.6h1.1l2.1,3.5l2.1-3.5h1.1l0,5.6H237.7z"/>
	<path class="st3" d="M241.3,349c-0.5-0.3-0.8-0.6-1.1-1c-0.3-0.4-0.4-0.9-0.4-1.5s0.1-1,0.4-1.5s0.6-0.8,1.1-1
		c0.5-0.2,1-0.4,1.6-0.4s1.1,0.1,1.6,0.4c0.5,0.3,0.8,0.6,1.1,1s0.4,0.9,0.4,1.5s-0.1,1-0.4,1.5c-0.3,0.4-0.6,0.8-1.1,1
		c-0.5,0.2-1,0.4-1.6,0.4S241.8,349.2,241.3,349z M243.8,348c0.3-0.2,0.5-0.4,0.6-0.6c0.2-0.3,0.2-0.6,0.2-0.9s-0.1-0.7-0.2-0.9
		c-0.2-0.3-0.4-0.5-0.6-0.6c-0.3-0.2-0.6-0.2-0.9-0.2s-0.6,0.1-0.9,0.2c-0.3,0.2-0.5,0.4-0.6,0.6c-0.2,0.3-0.2,0.6-0.2,0.9
		s0.1,0.7,0.2,0.9c0.2,0.3,0.4,0.5,0.6,0.6c0.3,0.2,0.6,0.2,0.9,0.2S243.5,348.2,243.8,348z"/>
	<path class="st3" d="M246.9,343.7h2.5c0.6,0,1.1,0.1,1.6,0.3c0.5,0.2,0.8,0.6,1.1,1c0.3,0.4,0.4,0.9,0.4,1.5s-0.1,1.1-0.4,1.5
		c-0.3,0.4-0.6,0.7-1.1,1c-0.5,0.2-1,0.3-1.6,0.3h-2.5V343.7z M249.4,348.2c0.6,0,1-0.2,1.3-0.5c0.3-0.3,0.5-0.7,0.5-1.3
		s-0.2-1-0.5-1.3c-0.3-0.3-0.8-0.5-1.3-0.5h-1.2v3.5H249.4z"/>
	<path class="st3" d="M257.9,348.2v1h-4.3v-5.6h4.2v1h-2.9v1.2h2.6v1h-2.6v1.3H257.9z"/>
	<path class="st3" d="M262.5,349.3l-1.1-1.6h-0.1h-1.1v1.6h-1.3v-5.6h2.4c0.5,0,0.9,0.1,1.3,0.2c0.4,0.2,0.6,0.4,0.8,0.7
		c0.2,0.3,0.3,0.7,0.3,1.1s-0.1,0.8-0.3,1.1c-0.2,0.3-0.5,0.5-0.9,0.7l1.3,1.8H262.5z M262.2,345c-0.2-0.2-0.5-0.3-0.9-0.3h-1.1v2
		h1.1c0.4,0,0.7-0.1,0.9-0.3c0.2-0.2,0.3-0.4,0.3-0.7C262.5,345.4,262.4,345.1,262.2,345z"/>
	<path class="st3" d="M268.5,348.1h-2.6l-0.5,1.2h-1.3l2.5-5.6h1.3l2.5,5.6H269L268.5,348.1z M268.1,347.1l-0.9-2.1l-0.9,2.1H268.1z
		"/>
	<path class="st3" d="M271.8,344.7H270v-1.1h4.9v1.1h-1.8v4.5h-1.3V344.7z"/>
	<path class="st3" d="M275.6,343.7h1.3v5.6h-1.3V343.7z"/>
	<path class="st3" d="M279.4,349c-0.5-0.3-0.8-0.6-1.1-1c-0.3-0.4-0.4-0.9-0.4-1.5s0.1-1,0.4-1.5s0.6-0.8,1.1-1
		c0.5-0.2,1-0.4,1.6-0.4s1.1,0.1,1.6,0.4c0.5,0.3,0.8,0.6,1.1,1s0.4,0.9,0.4,1.5s-0.1,1-0.4,1.5c-0.3,0.4-0.6,0.8-1.1,1
		c-0.5,0.2-1,0.4-1.6,0.4S279.8,349.2,279.4,349z M281.8,348c0.3-0.2,0.5-0.4,0.6-0.6c0.2-0.3,0.2-0.6,0.2-0.9s-0.1-0.7-0.2-0.9
		c-0.2-0.3-0.4-0.5-0.6-0.6c-0.3-0.2-0.6-0.2-0.9-0.2s-0.6,0.1-0.9,0.2c-0.3,0.2-0.5,0.4-0.6,0.6c-0.2,0.3-0.2,0.6-0.2,0.9
		s0.1,0.7,0.2,0.9c0.2,0.3,0.4,0.5,0.6,0.6c0.3,0.2,0.6,0.2,0.9,0.2S281.6,348.2,281.8,348z"/>
	<path class="st3" d="M290.1,343.7v5.6H289l-2.8-3.4v3.4H285v-5.6h1.1l2.8,3.4v-3.4H290.1z"/>
</g>
<g>
	<path class="st3" d="M136,293.4h-1.8v-1.1h4.9v1.1h-1.8v4.5H136V293.4z"/>
	<path class="st3" d="M144.1,296.9v1h-4.3v-5.6h4.2v1H141v1.2h2.6v1H141v1.3H144.1z"/>
	<path class="st3" d="M145.7,297.9c-0.4-0.1-0.7-0.3-1-0.5l0.4-1c0.2,0.2,0.5,0.3,0.9,0.4c0.3,0.1,0.7,0.2,1,0.2
		c0.4,0,0.6-0.1,0.8-0.2s0.3-0.3,0.3-0.4c0-0.1-0.1-0.2-0.2-0.3c-0.1-0.1-0.2-0.2-0.4-0.2c-0.2-0.1-0.4-0.1-0.7-0.2
		c-0.4-0.1-0.8-0.2-1-0.3c-0.3-0.1-0.5-0.3-0.7-0.5c-0.2-0.2-0.3-0.5-0.3-0.9c0-0.3,0.1-0.6,0.3-0.9c0.2-0.3,0.4-0.5,0.8-0.6
		c0.4-0.2,0.8-0.2,1.3-0.2c0.4,0,0.7,0,1,0.1c0.3,0.1,0.6,0.2,0.9,0.4l-0.4,1c-0.5-0.3-1-0.4-1.6-0.4c-0.4,0-0.6,0.1-0.8,0.2
		c-0.2,0.1-0.3,0.3-0.3,0.5c0,0.2,0.1,0.3,0.3,0.4c0.2,0.1,0.5,0.2,0.9,0.3c0.4,0.1,0.8,0.2,1,0.3c0.3,0.1,0.5,0.3,0.7,0.5
		s0.3,0.5,0.3,0.9c0,0.3-0.1,0.6-0.3,0.9c-0.2,0.3-0.4,0.5-0.8,0.6c-0.4,0.2-0.8,0.2-1.3,0.2C146.5,298,146.1,298,145.7,297.9z"/>
	<path class="st3" d="M151.3,293.4h-1.8v-1.1h4.9v1.1h-1.8v4.5h-1.3V293.4z"/>
	<path class="st3" d="M161.7,298l-0.7-0.6c-0.5,0.4-1.2,0.6-1.9,0.6c-0.4,0-0.8-0.1-1.1-0.2c-0.3-0.1-0.6-0.3-0.8-0.5
		c-0.2-0.2-0.3-0.5-0.3-0.8c0-0.3,0.1-0.7,0.3-0.9c0.2-0.3,0.5-0.5,0.9-0.8c-0.2-0.2-0.3-0.4-0.4-0.6s-0.1-0.4-0.1-0.6
		c0-0.3,0.1-0.5,0.2-0.7c0.1-0.2,0.3-0.4,0.6-0.5c0.3-0.1,0.6-0.2,0.9-0.2c0.5,0,0.9,0.1,1.2,0.3c0.3,0.2,0.4,0.5,0.4,0.9
		c0,0.3-0.1,0.5-0.3,0.8c-0.2,0.2-0.5,0.4-0.8,0.6l1,1c0.1-0.3,0.2-0.5,0.3-0.9l1,0.3c-0.1,0.5-0.3,0.9-0.5,1.3l0.7,0.6L161.7,298z
		 M160.3,296.7l-1.4-1.3c-0.3,0.1-0.4,0.3-0.5,0.4s-0.2,0.3-0.2,0.5c0,0.2,0.1,0.4,0.3,0.5c0.2,0.1,0.4,0.2,0.7,0.2
		C159.6,297.1,159.9,296.9,160.3,296.7z M158.9,293.3c-0.1,0.1-0.2,0.2-0.2,0.4c0,0.1,0,0.2,0.1,0.3s0.2,0.2,0.3,0.4
		c0.3-0.1,0.5-0.3,0.6-0.4c0.1-0.1,0.2-0.2,0.2-0.4c0-0.1,0-0.3-0.1-0.3c-0.1-0.1-0.2-0.1-0.4-0.1
		C159.2,293.1,159,293.2,158.9,293.3z"/>
	<path class="st3" d="M134.7,300.3h1.3v4.5h2.8v1.1h-4.1V300.3z"/>
	<path class="st3" d="M143.8,304.9v1h-4.3v-5.6h4.2v1h-2.9v1.2h2.6v1h-2.6v1.3H143.8z"/>
	<path class="st3" d="M148.5,304.7h-2.6l-0.5,1.2h-1.3l2.5-5.6h1.3l2.5,5.6H149L148.5,304.7z M148.1,303.8l-0.9-2.1l-0.9,2.1H148.1z
		"/>
	<path class="st3" d="M154.6,305.9l-1.1-1.6h-0.1h-1.1v1.6H151v-5.6h2.4c0.5,0,0.9,0.1,1.3,0.2c0.4,0.2,0.6,0.4,0.8,0.7
		s0.3,0.7,0.3,1.1s-0.1,0.8-0.3,1.1s-0.5,0.5-0.9,0.7l1.3,1.8H154.6z M154.2,301.6c-0.2-0.2-0.5-0.3-0.9-0.3h-1.1v2h1.1
		c0.4,0,0.7-0.1,0.9-0.3c0.2-0.2,0.3-0.4,0.3-0.7C154.5,302.1,154.4,301.8,154.2,301.6z"/>
	<path class="st3" d="M162,300.3v5.6h-1.1l-2.8-3.4v3.4h-1.3v-5.6h1.1l2.8,3.4v-3.4H162z"/>
</g>
<g>
	<path class="st3" d="M167,84.4h-2.6l-0.5,1.2h-1.3L165,80h1.3l2.5,5.6h-1.4L167,84.4z M166.6,83.4l-0.9-2.1l-0.9,2.1H166.6z"/>
	<path class="st3" d="M174.5,80v5.6h-1.1l-2.8-3.4v3.4h-1.3V80h1.1l2.8,3.4V80H174.5z"/>
	<path class="st3" d="M179.6,84.4H177l-0.5,1.2h-1.3l2.5-5.6h1.3l2.5,5.6h-1.4L179.6,84.4z M179.2,83.4l-0.9-2.1l-0.9,2.1H179.2z"/>
	<path class="st3" d="M182,80h1.3v4.5h2.8v1.1H182V80z"/>
	<path class="st3" d="M188.9,83.6v2h-1.3v-2l-2.2-3.6h1.4l1.5,2.5l1.5-2.5h1.3L188.9,83.6z"/>
	<path class="st3" d="M192.7,81.1h-1.8V80h4.9v1.1H194v4.5h-1.3V81.1z"/>
	<path class="st3" d="M196.5,80h1.3v5.6h-1.3V80z"/>
	<path class="st3" d="M200.3,85.3c-0.5-0.2-0.8-0.6-1.1-1s-0.4-0.9-0.4-1.5s0.1-1.1,0.4-1.5s0.6-0.8,1.1-1c0.5-0.2,1-0.4,1.6-0.4
		c0.5,0,0.9,0.1,1.3,0.3s0.7,0.4,1,0.7l-0.8,0.8c-0.4-0.4-0.8-0.7-1.4-0.7c-0.3,0-0.7,0.1-0.9,0.2c-0.3,0.2-0.5,0.4-0.6,0.6
		c-0.2,0.3-0.2,0.6-0.2,0.9s0.1,0.7,0.2,0.9c0.2,0.3,0.4,0.5,0.6,0.6c0.3,0.2,0.6,0.2,0.9,0.2c0.6,0,1-0.2,1.4-0.7l0.8,0.8
		c-0.3,0.3-0.6,0.6-1,0.7c-0.4,0.2-0.8,0.3-1.3,0.3C201.2,85.7,200.7,85.6,200.3,85.3z"/>
	<path class="st3" d="M205.5,85.5c-0.4-0.1-0.7-0.3-1-0.5l0.4-1c0.2,0.2,0.5,0.3,0.9,0.4c0.3,0.1,0.7,0.2,1,0.2
		c0.4,0,0.6-0.1,0.8-0.2s0.3-0.3,0.3-0.4c0-0.1-0.1-0.2-0.2-0.3c-0.1-0.1-0.2-0.2-0.4-0.2c-0.2-0.1-0.4-0.1-0.7-0.2
		c-0.4-0.1-0.8-0.2-1-0.3c-0.3-0.1-0.5-0.3-0.7-0.5c-0.2-0.2-0.3-0.5-0.3-0.9c0-0.3,0.1-0.6,0.3-0.9c0.2-0.3,0.4-0.5,0.8-0.6
		c0.4-0.2,0.8-0.2,1.3-0.2c0.4,0,0.7,0,1,0.1c0.3,0.1,0.6,0.2,0.9,0.4l-0.4,1c-0.5-0.3-1-0.4-1.6-0.4c-0.4,0-0.6,0.1-0.8,0.2
		c-0.2,0.1-0.3,0.3-0.3,0.5s0.1,0.3,0.3,0.4s0.5,0.2,0.9,0.3c0.4,0.1,0.8,0.2,1,0.3c0.3,0.1,0.5,0.3,0.7,0.5s0.3,0.5,0.3,0.9
		c0,0.3-0.1,0.6-0.3,0.9c-0.2,0.3-0.4,0.5-0.8,0.6c-0.4,0.2-0.8,0.2-1.3,0.2C206.3,85.7,205.9,85.6,205.5,85.5z"/>
</g>
<g>
	<path class="st3" d="M296.4,87.5c-0.4-0.1-0.7-0.3-1-0.5l0.4-1c0.2,0.2,0.5,0.3,0.9,0.4c0.3,0.1,0.7,0.2,1,0.2
		c0.4,0,0.6-0.1,0.8-0.2s0.3-0.3,0.3-0.4c0-0.1-0.1-0.2-0.2-0.3c-0.1-0.1-0.2-0.2-0.4-0.2c-0.2-0.1-0.4-0.1-0.7-0.2
		c-0.4-0.1-0.8-0.2-1-0.3c-0.3-0.1-0.5-0.3-0.7-0.5c-0.2-0.2-0.3-0.5-0.3-0.9c0-0.3,0.1-0.6,0.3-0.9c0.2-0.3,0.4-0.5,0.8-0.6
		c0.4-0.2,0.8-0.2,1.3-0.2c0.4,0,0.7,0,1,0.1c0.3,0.1,0.6,0.2,0.9,0.4l-0.4,1c-0.5-0.3-1-0.4-1.6-0.4c-0.4,0-0.6,0.1-0.8,0.2
		c-0.2,0.1-0.3,0.3-0.3,0.5s0.1,0.3,0.3,0.4s0.5,0.2,0.9,0.3c0.4,0.1,0.8,0.2,1,0.3c0.3,0.1,0.5,0.3,0.7,0.5s0.3,0.5,0.3,0.9
		c0,0.3-0.1,0.6-0.3,0.9c-0.2,0.3-0.4,0.5-0.8,0.6c-0.4,0.2-0.8,0.2-1.3,0.2C297.2,87.7,296.8,87.6,296.4,87.5z"/>
	<path class="st3" d="M302.1,87.3c-0.5-0.3-0.8-0.6-1.1-1s-0.4-0.9-0.4-1.5s0.1-1,0.4-1.5s0.6-0.8,1.1-1c0.5-0.3,1-0.4,1.6-0.4
		s1.1,0.1,1.6,0.4c0.5,0.3,0.8,0.6,1.1,1s0.4,0.9,0.4,1.5s-0.1,1-0.4,1.5s-0.6,0.8-1.1,1c-0.5,0.3-1,0.4-1.6,0.4
		S302.6,87.6,302.1,87.3z M304.6,86.4c0.3-0.2,0.5-0.4,0.6-0.6c0.2-0.3,0.2-0.6,0.2-0.9s-0.1-0.7-0.2-0.9c-0.2-0.3-0.4-0.5-0.6-0.6
		c-0.3-0.2-0.6-0.2-0.9-0.2s-0.6,0.1-0.9,0.2c-0.3,0.2-0.5,0.4-0.6,0.6c-0.2,0.3-0.2,0.6-0.2,0.9s0.1,0.7,0.2,0.9
		c0.2,0.3,0.4,0.5,0.6,0.6c0.3,0.2,0.6,0.2,0.9,0.2S304.3,86.5,304.6,86.4z"/>
	<path class="st3" d="M308.8,87.3c-0.5-0.2-0.8-0.6-1.1-1s-0.4-0.9-0.4-1.5s0.1-1.1,0.4-1.5s0.6-0.8,1.1-1c0.5-0.2,1-0.4,1.6-0.4
		c0.5,0,0.9,0.1,1.3,0.3s0.7,0.4,1,0.7l-0.8,0.8c-0.4-0.4-0.8-0.7-1.4-0.7c-0.3,0-0.7,0.1-0.9,0.2c-0.3,0.2-0.5,0.4-0.6,0.6
		c-0.2,0.3-0.2,0.6-0.2,0.9s0.1,0.7,0.2,0.9c0.2,0.3,0.4,0.5,0.6,0.6c0.3,0.2,0.6,0.2,0.9,0.2c0.6,0,1-0.2,1.4-0.7l0.8,0.8
		c-0.3,0.3-0.6,0.6-1,0.7c-0.4,0.2-0.8,0.3-1.3,0.3C309.8,87.7,309.3,87.6,308.8,87.3z"/>
	<path class="st3" d="M313.6,82h1.3v5.6h-1.3V82z"/>
	<path class="st3" d="M319.9,86.4h-2.6l-0.5,1.2h-1.3L318,82h1.3l2.5,5.6h-1.4L319.9,86.4z M319.5,85.4l-0.9-2.1l-0.9,2.1H319.5z"/>
	<path class="st3" d="M322.3,82h1.3v4.5h2.8v1.1h-4.1V82z"/>
</g>
<g>
	<path class="st3" d="M373,167.3l0-3.4l-1.6,2.8h-0.6l-1.6-2.7v3.3h-1.2v-5.6h1.1l2.1,3.5l2.1-3.5h1.1l0,5.6H373z"/>
	<path class="st3" d="M379.2,166.1h-2.6l-0.5,1.2h-1.3l2.5-5.6h1.3l2.5,5.6h-1.4L379.2,166.1z M378.8,165.1l-0.9-2.1l-0.9,2.1H378.8
		z"/>
	<path class="st3" d="M386.8,161.7v5.6h-1.1l-2.8-3.4v3.4h-1.3v-5.6h1.1l2.8,3.4v-3.4H386.8z"/>
	<path class="st3" d="M391.8,166.1h-2.6l-0.5,1.2h-1.3l2.5-5.6h1.3l2.5,5.6h-1.4L391.8,166.1z M391.4,165.1l-0.9-2.1l-0.9,2.1H391.4
		z"/>
	<path class="st3" d="M398,164.4h1.2v2.3c-0.3,0.2-0.7,0.4-1.1,0.5c-0.4,0.1-0.8,0.2-1.2,0.2c-0.6,0-1.1-0.1-1.6-0.4s-0.8-0.6-1.1-1
		s-0.4-0.9-0.4-1.5s0.1-1.1,0.4-1.5s0.6-0.8,1.1-1c0.5-0.2,1-0.4,1.6-0.4c0.5,0,0.9,0.1,1.3,0.2c0.4,0.2,0.7,0.4,1,0.7l-0.8,0.8
		c-0.4-0.4-0.9-0.6-1.4-0.6c-0.4,0-0.7,0.1-1,0.2c-0.3,0.1-0.5,0.4-0.6,0.6c-0.2,0.3-0.2,0.6-0.2,0.9c0,0.3,0.1,0.7,0.2,0.9
		c0.2,0.3,0.4,0.5,0.6,0.6c0.3,0.2,0.6,0.2,0.9,0.2c0.4,0,0.7-0.1,1-0.2V164.4z"/>
	<path class="st3" d="M404.7,166.2v1h-4.3v-5.6h4.2v1h-2.9v1.2h2.6v1h-2.6v1.3H404.7z"/>
	<path class="st3" d="M370,169.7h2.5c0.6,0,1.1,0.1,1.6,0.3s0.8,0.6,1.1,1s0.4,0.9,0.4,1.5c0,0.6-0.1,1.1-0.4,1.5
		c-0.3,0.4-0.6,0.7-1.1,1s-1,0.3-1.6,0.3H370V169.7z M372.5,174.2c0.6,0,1-0.2,1.3-0.5c0.3-0.3,0.5-0.7,0.5-1.3s-0.2-1-0.5-1.3
		c-0.3-0.3-0.8-0.5-1.3-0.5h-1.2v3.5H372.5z"/>
	<path class="st3" d="M376.6,169.7h1.3v5.6h-1.3V169.7z"/>
	<path class="st3" d="M383,172.4h1.2v2.3c-0.3,0.2-0.7,0.4-1.1,0.5c-0.4,0.1-0.8,0.2-1.2,0.2c-0.6,0-1.1-0.1-1.6-0.4s-0.8-0.6-1.1-1
		s-0.4-0.9-0.4-1.5s0.1-1.1,0.4-1.5s0.6-0.8,1.1-1c0.5-0.2,1-0.4,1.6-0.4c0.5,0,0.9,0.1,1.3,0.2c0.4,0.2,0.7,0.4,1,0.7l-0.8,0.8
		c-0.4-0.4-0.9-0.6-1.4-0.6c-0.4,0-0.7,0.1-1,0.2c-0.3,0.1-0.5,0.4-0.6,0.6c-0.2,0.3-0.2,0.6-0.2,0.9c0,0.3,0.1,0.7,0.2,0.9
		c0.2,0.3,0.4,0.5,0.6,0.6c0.3,0.2,0.6,0.2,0.9,0.2c0.4,0,0.7-0.1,1-0.2V172.4z"/>
	<path class="st3" d="M385.4,169.7h1.3v5.6h-1.3V169.7z"/>
	<path class="st3" d="M389.2,170.7h-1.8v-1.1h4.9v1.1h-1.8v4.5h-1.3V170.7z"/>
	<path class="st3" d="M396.4,174.1h-2.6l-0.5,1.2H392l2.5-5.6h1.3l2.5,5.6h-1.4L396.4,174.1z M396,173.1l-0.9-2.1l-0.9,2.1H396z"/>
	<path class="st3" d="M398.8,169.7h1.3v4.5h2.8v1.1h-4.1V169.7z"/>
</g>
<g>
	<path class="st3" d="M353.7,286.7c-0.5-0.3-0.8-0.6-1.1-1c-0.3-0.4-0.4-0.9-0.4-1.5c0-0.5,0.1-1,0.4-1.5c0.3-0.4,0.6-0.8,1.1-1
		s1-0.4,1.6-0.4s1.1,0.1,1.6,0.4s0.8,0.6,1.1,1c0.3,0.4,0.4,0.9,0.4,1.5c0,0.5-0.1,1-0.4,1.5c-0.3,0.4-0.6,0.8-1.1,1s-1,0.4-1.6,0.4
		S354.2,286.9,353.7,286.7z M356.2,285.7c0.3-0.2,0.5-0.4,0.6-0.6c0.2-0.3,0.2-0.6,0.2-0.9s-0.1-0.7-0.2-0.9
		c-0.2-0.3-0.4-0.5-0.6-0.6c-0.3-0.2-0.6-0.2-0.9-0.2s-0.6,0.1-0.9,0.2c-0.3,0.2-0.5,0.4-0.6,0.6c-0.2,0.3-0.2,0.6-0.2,0.9
		s0.1,0.7,0.2,0.9c0.2,0.3,0.4,0.5,0.6,0.6c0.3,0.2,0.6,0.2,0.9,0.2S355.9,285.9,356.2,285.7z"/>
	<path class="st3" d="M364.5,281.3v5.6h-1.1l-2.8-3.4v3.4h-1.3v-5.6h1.1l2.8,3.4v-3.4H364.5z"/>
	<path class="st3" d="M365.8,281.3h1.3v4.5h2.8v1.1h-4.1V281.3z"/>
	<path class="st3" d="M370.6,281.3h1.3v5.6h-1.3V281.3z"/>
	<path class="st3" d="M378.4,281.3v5.6h-1.1l-2.8-3.4v3.4h-1.3v-5.6h1.1l2.8,3.4v-3.4H378.4z"/>
	<path class="st3" d="M384.1,285.9v1h-4.3v-5.6h4.2v1H381v1.2h2.6v1H381v1.3H384.1z"/>
	<path class="st3" d="M363.6,293.7H361l-0.5,1.2h-1.3l2.5-5.6h1.3l2.5,5.6h-1.4L363.6,293.7z M363.2,292.8l-0.9-2.1l-0.9,2.1H363.2z
		"/>
	<path class="st3" d="M366,289.3h2.5c0.6,0,1.1,0.1,1.6,0.3c0.5,0.2,0.8,0.6,1.1,1c0.3,0.4,0.4,0.9,0.4,1.5c0,0.6-0.1,1.1-0.4,1.5
		s-0.6,0.7-1.1,1c-0.5,0.2-1,0.3-1.6,0.3H366V289.3z M368.5,293.9c0.6,0,1-0.2,1.3-0.5c0.3-0.3,0.5-0.7,0.5-1.3s-0.2-1-0.5-1.3
		c-0.3-0.3-0.8-0.5-1.3-0.5h-1.2v3.5H368.5z"/>
	<path class="st3" d="M373.2,294.9c-0.4-0.1-0.7-0.3-1-0.5l0.4-1c0.2,0.2,0.5,0.3,0.9,0.4c0.3,0.1,0.7,0.2,1,0.2
		c0.4,0,0.6-0.1,0.8-0.2s0.3-0.3,0.3-0.4c0-0.1-0.1-0.2-0.2-0.3c-0.1-0.1-0.2-0.2-0.4-0.2c-0.2-0.1-0.4-0.1-0.7-0.2
		c-0.4-0.1-0.8-0.2-1-0.3c-0.3-0.1-0.5-0.3-0.7-0.5c-0.2-0.2-0.3-0.5-0.3-0.9c0-0.3,0.1-0.6,0.3-0.9c0.2-0.3,0.4-0.5,0.8-0.6
		c0.4-0.2,0.8-0.2,1.3-0.2c0.4,0,0.7,0,1,0.1c0.3,0.1,0.6,0.2,0.9,0.4l-0.4,1c-0.5-0.3-1-0.4-1.6-0.4c-0.4,0-0.6,0.1-0.8,0.2
		c-0.2,0.1-0.3,0.3-0.3,0.5c0,0.2,0.1,0.3,0.3,0.4c0.2,0.1,0.5,0.2,0.9,0.3c0.4,0.1,0.8,0.2,1,0.3c0.3,0.1,0.5,0.3,0.7,0.5
		s0.3,0.5,0.3,0.9c0,0.3-0.1,0.6-0.3,0.9c-0.2,0.3-0.4,0.5-0.8,0.6c-0.4,0.2-0.8,0.2-1.3,0.2C374,295,373.6,295,373.2,294.9z"/>
</g>
<g>
	<g>
		<path class="st2" d="M178.4,63c-1.8,0-3.7-0.5-5.3-1.5c-2.2-1.4-3.8-3.6-4.3-6.2c-1.2-5.3,2.2-10.6,7.5-11.8
			c5.3-1.2,10.6,2.2,11.8,7.5v0c0.6,2.6,0.1,5.2-1.3,7.4c-1.4,2.2-3.6,3.8-6.2,4.3C179.9,62.9,179.2,63,178.4,63z M178.5,45.8
			c-0.5,0-1.1,0.1-1.6,0.2c-4,0.9-6.4,4.8-5.6,8.8c0.4,1.9,1.6,3.5,3.2,4.6c1.7,1.1,3.6,1.4,5.5,1c1.9-0.4,3.5-1.6,4.6-3.2
			c1.1-1.7,1.4-3.6,1-5.5v0C184.9,48.1,181.8,45.8,178.5,45.8z"/>
	</g>
	<g>
		<path class="st2" d="M198.8,67.7c-0.2,0-0.5-0.1-0.7-0.2L185,58.9c-0.6-0.4-0.7-1.2-0.4-1.7c0.4-0.6,1.2-0.7,1.7-0.4l13.2,8.6
			c0.6,0.4,0.7,1.2,0.4,1.7C199.6,67.5,199.2,67.7,198.8,67.7z"/>
	</g>
</g>
<g>
	<path class="st4" d="M291.6,43.4h17.1c1.4,0,2.6,1.1,2.6,2.6v14.5c0,1.4-1.1,2.6-2.6,2.6h-10.5l-4.3,4.4c-0.5,0.6-1.5,0.2-1.5-0.6
		v-3.9h-0.9c-1.4,0-2.6-1.1-2.6-2.6V46C289,44.6,290.1,43.4,291.6,43.4z"/>
	<path class="st4" d="M297.6,45.1v9.4c0,1.4,1.1,2.6,2.6,2.6h9.4"/>
	<path class="st4" d="M324.1,49.4V40c0-1.4-1.1-2.6-2.6-2.6h-21.4c-1.4,0-2.6,1.1-2.6,2.6v3.4"/>
	<path class="st4" d="M311.2,57.1h2.5l4.6,4.5c0.5,0.5,1.5,0.2,1.5-0.6v-3.9h1.7c1.4,0,2.6-1.1,2.6-2.6v-3.4"/>
	<path class="st4" d="M302.7,63.1v3.4c0,1.4,1.1,2.6,2.6,2.6h9.7l6,4.9c0.6,0.5,1.4,0.1,1.4-0.7v-4.2h3.4c1.4,0,2.6-1.1,2.6-2.6V52
		c0-1.4-1.1-2.6-2.6-2.6h-14.5"/>
	<line class="st4" x1="302.7" y1="57.1" x2="302.7" y2="61.4"/>
	<path class="st4" d="M309.5,49.4h-4.3c-1.4,0-2.6,1.1-2.6,2.6v3.4"/>
</g>
<g>
	<polyline class="st5" points="402.4,127.3 402.4,120.2 370.8,120.2 370.8,153.4 402.4,153.4 402.4,147.1 	"/>
	<line class="st5" x1="370.8" y1="124.9" x2="402.4" y2="124.9"/>
	<line class="st5" x1="373.1" y1="122.5" x2="374.7" y2="122.5"/>
	<line class="st5" x1="376.3" y1="122.5" x2="377.9" y2="122.5"/>
	<line class="st5" x1="379.5" y1="122.5" x2="381" y2="122.5"/>
	<path class="st5" d="M385.8,128.9H404c1.7,0,3.2,1.4,3.2,3.2v10.3c0,1.7-1.4,3.2-3.2,3.2h-11.9l-4.2,4.2c-0.5,0.5-1.4,0.1-1.4-0.6
		v-3.6h-0.8c-1.7,0-3.2-1.4-3.2-3.2V132C382.6,130.3,384,128.9,385.8,128.9z"/>
	<polygon class="st5" points="395.3,131.7 396.9,135.3 400.8,135.7 397.9,138.6 398.7,142.3 395.3,140.7 391.9,142.4 392.6,138.6 
		389.8,135.7 393.6,135.3 	"/>
</g>
<path class="st2" d="M386.9,269.5C386.9,269.4,386.9,269.4,386.9,269.5L386.9,269.5c0-0.1,0-0.1,0-0.1l0,0c0,0,0,0,0-0.1
	c0,0,0,0,0,0l-3.2-6.3v-16.6c0-1.6-1.3-2.9-2.9-2.9h-26c-1.6,0-2.9,1.3-2.9,2.9v16.6l-3.2,6.3c0,0,0,0,0,0s0,0,0,0c0,0,0,0,0,0.1
	l0,0c0,0,0,0,0,0.1l0,0c0,0,0,0,0,0.1c0,0,0,0,0,0.1v0.9c0,0.1,0,0.3,0,0.4c0.2,1.4,1.5,2.5,2.9,2.5h32.5c1.4,0,2.7-1.1,2.9-2.5
	c0-0.1,0-0.3,0-0.4L386.9,269.5C386.9,269.5,386.9,269.5,386.9,269.5z M382.4,262.4H353l0-16.2c0-1,0.8-1.7,1.7-1.7h26
	c0.9,0,1.7,0.8,1.7,1.7L382.4,262.4z M382.6,263.6l2.7,5.3h-35.2l2.7-5.3H382.6z M385.7,270.1v0.3c0,0.9-0.8,1.7-1.7,1.7h-32.5
	c-0.9,0-1.7-0.8-1.7-1.7v-0.3H385.7z"/>
<path class="st2" d="M276.2,295.5h-21.8c-1.7,0-3.1,1.4-3.1,3.1v3.1h-6.2c-1.7,0-3.1,1.4-3.1,3.1v10.9c0,1.7,1.4,3.1,3.1,3.1H256
	v3.9c0,0.3,0.2,0.6,0.5,0.7c0.1,0,0.2,0.1,0.3,0.1c0.2,0,0.4-0.1,0.5-0.2l4.4-4.4h2c1.7,0,3.1-1.4,3.1-3.1v-1.6h2l4.4,4.4
	c0.1,0.1,0.3,0.2,0.5,0.2c0.1,0,0.2,0,0.3-0.1c0.3-0.1,0.5-0.4,0.5-0.7v-3.9h1.6c1.7,0,3.1-1.4,3.1-3.1v-12.4
	C279.3,296.9,277.9,295.5,276.2,295.5z M265.3,315.7c0,0.9-0.7,1.6-1.6,1.6h-2.3c-0.2,0-0.4,0.1-0.5,0.2l-3.3,3.3v-2.8
	c0-0.4-0.3-0.8-0.8-0.8h-11.7c-0.9,0-1.6-0.7-1.6-1.6v-10.9c0-0.9,0.7-1.6,1.6-1.6h6.2v7.8c0,1.7,1.4,3.1,3.1,3.1h10.9V315.7z
	 M277.8,311.1c0,0.9-0.7,1.6-1.6,1.6h-2.3c-0.4,0-0.8,0.3-0.8,0.8v2.8l-3.3-3.3c-0.1-0.1-0.3-0.2-0.5-0.2h-14.8
	c-0.9,0-1.6-0.7-1.6-1.6v-12.4c0-0.9,0.7-1.6,1.6-1.6h21.8c0.9,0,1.6,0.7,1.6,1.6V311.1z M249.8,329.7c2.6,0,4.7-2.1,4.7-4.7
	c0-2.6-2.1-4.7-4.7-4.7c-2.6,0-4.7,2.1-4.7,4.7C245.1,327.7,247.2,329.7,249.8,329.7z M249.8,322c1.7,0,3.1,1.4,3.1,3.1
	c0,1.7-1.4,3.1-3.1,3.1c-1.7,0-3.1-1.4-3.1-3.1C246.7,323.4,248.1,322,249.8,322z M255.1,330.6l-1.9-0.8c-0.3-0.1-0.6,0-0.8,0.2
	l-2.6,2.6l-2.6-2.6c-0.2-0.2-0.6-0.3-0.8-0.2l-1.9,0.8c-1.5,0.6-2.4,2-2.4,3.6v1c0,0.4,0.3,0.8,0.8,0.8s0.8-0.3,0.8-0.8v-1
	c0-1,0.6-1.8,1.5-2.2l1.5-0.6l2.7,2.7c0.3,0.3,0.8,0.3,1.1,0l2.7-2.7l1.5,0.6c0.9,0.4,1.5,1.2,1.5,2.2v1c0,0.4,0.3,0.8,0.8,0.8
	c0.4,0,0.8-0.3,0.8-0.8v-1C257.6,332.6,256.6,331.2,255.1,330.6z M270,329.7c2.6,0,4.7-2.1,4.7-4.7c0-2.6-2.1-4.7-4.7-4.7
	s-4.7,2.1-4.7,4.7C265.3,327.7,267.4,329.7,270,329.7z M270,322c1.7,0,3.1,1.4,3.1,3.1c0,1.7-1.4,3.1-3.1,3.1s-3.1-1.4-3.1-3.1
	C266.9,323.4,268.3,322,270,322z M275.3,330.6l-1.9-0.8c-0.3-0.1-0.6,0-0.8,0.2l-2.6,2.6l-2.6-2.6c-0.2-0.2-0.5-0.3-0.8-0.2
	l-1.9,0.8c-1.5,0.6-2.4,2-2.4,3.6v1c0,0.4,0.3,0.8,0.8,0.8s0.8-0.3,0.8-0.8v-1c0-1,0.6-1.8,1.5-2.2l1.5-0.6l2.7,2.7
	c0.3,0.3,0.8,0.3,1.1,0l2.7-2.7l1.5,0.6c0.9,0.4,1.5,1.2,1.5,2.2v1c0,0.4,0.3,0.8,0.8,0.8s0.8-0.3,0.8-0.8v-1
	C277.8,332.6,276.8,331.2,275.3,330.6z M274.4,306.6l-2.3-2.3c-0.3-0.3-0.8-0.3-1.1,0c-0.3,0.3-0.3,0.8,0,1.1l1,1h-9
	c-0.4,0-0.8,0.3-0.8,0.8c0,0.4,0.3,0.8,0.8,0.8h9l-1,1c-0.3,0.3-0.3,0.8,0,1.1c0.2,0.2,0.4,0.2,0.5,0.2c0.2,0,0.4-0.1,0.5-0.2
	l2.3-2.3c0.1-0.1,0.1-0.2,0.2-0.3c0.1-0.2,0.1-0.4,0-0.6C274.6,306.8,274.5,306.7,274.4,306.6z M258.7,303.3h9
	c0.4,0,0.8-0.3,0.8-0.8s-0.3-0.8-0.8-0.8h-9l1-1c0.3-0.3,0.3-0.8,0-1.1c-0.3-0.3-0.8-0.3-1.1,0l-2.3,2.3c-0.1,0.1-0.1,0.2-0.2,0.3
	c-0.1,0.2-0.1,0.4,0,0.6c0,0.1,0.1,0.2,0.2,0.3l2.3,2.3c0.2,0.2,0.4,0.2,0.5,0.2s0.4-0.1,0.5-0.2c0.3-0.3,0.3-0.8,0-1.1L258.7,303.3
	z"/>
<polygon class="st6" points="367.7,248.5 369,251.5 372.2,251.8 369.8,254.2 370.5,257.2 367.7,255.9 364.9,257.3 365.5,254.2 
	363.2,251.8 366.3,251.5 "/>
<g>
	<path class="st2" d="M163.6,279.1c-0.3-0.3-0.9-0.3-1.2,0s-0.3,0.9,0,1.2l1.9,1.9H158c-1.1,0.7-2.2,1.3-3.5,1.7h9.6l-1.7,1.7
		c-0.3,0.3-0.3,0.9,0,1.2c0.2,0.2,0.4,0.2,0.6,0.2c0.2,0,0.4-0.1,0.6-0.2l3.8-3.8L163.6,279.1z"/>
	<path class="st2" d="M163.3,269c0-7.8-6.1-14.2-13.7-14.8l1.8-1.8c0.3-0.3,0.3-0.9,0-1.2c-0.3-0.3-0.9-0.3-1.2,0l-3.8,3.8l3.8,3.8
		c0.2,0.2,0.4,0.2,0.6,0.2s0.4-0.1,0.6-0.2c0.3-0.3,0.3-0.9,0-1.2l-1.7-1.7c6.7,0.6,12,6.2,12,13.1c0,6.9-5.4,12.6-12.2,13.2H132
		c-0.5,0-0.8,0.4-0.8,0.8s0.4,0.8,0.8,0.8h16.6c0,0,0,0,0,0C156.8,283.9,163.3,277.2,163.3,269z"/>
	<path class="st2" d="M139.3,280.6h3c-4.1-2.2-7-6.6-7-11.6c0-5.8,3.8-10.8,9.1-12.5l-0.6-1.6c-5.9,1.9-10.2,7.5-10.2,14.1
		C133.7,273.7,135.8,277.9,139.3,280.6z"/>
</g>
</svg>
