<?xml version="1.0" encoding="utf-8"?>
<!-- Generator: Adobe Illustrator 22.1.0, SVG Export Plug-In . SVG Version: 6.00 Build 0)  -->
<svg version="1.1" id="Layer_1" xmlns="http://www.w3.org/2000/svg" xmlns:xlink="http://www.w3.org/1999/xlink" x="0px" y="0px"
	 viewBox="0 0 500 500" style="enable-background:new 0 0 500 500;" xml:space="preserve">
<style type="text/css">
	.st0{fill:none;stroke:#FFFFFF;stroke-miterlimit:10;}
	.st1{fill:#FFFFFF;}
	.st2{fill:#EB1D39;}
	.st3{fill:#020202;}
	.st4{fill:none;stroke:#EB1D39;stroke-width:2;stroke-miterlimit:10;}
	.st5{fill:none;stroke:#EB1D39;stroke-width:2;stroke-linejoin:round;stroke-miterlimit:10;}
	.st6{fill:none;stroke:#EB1D39;stroke-width:1.6454;stroke-linejoin:round;stroke-miterlimit:10;}
</style>
<circle class="st0" cx="252.9" cy="240.7" r="193.4"/>
<circle class="st1" cx="61.2" cy="208.9" r="59.3"/>
<circle class="st1" cx="110.7" cy="371.3" r="59.3"/>
<circle class="st1" cx="160.7" cy="71.5" r="59.3"/>
<circle class="st1" cx="332.7" cy="66.8" r="59.3"/>
<circle class="st1" cx="438.7" cy="184.4" r="59.3"/>
<circle class="st1" cx="413.2" cy="351.3" r="59.3"/>
<circle class="st1" cx="265.6" cy="433.2" r="59.3"/>
<path class="st2" d="M45.6,181.3c3.6,0,6.5-2.9,6.5-6.5s-2.9-6.5-6.5-6.5s-6.5,2.9-6.5,6.5S42,181.3,45.6,181.3z M45.6,170.5
	c2.4,0,4.3,1.9,4.3,4.3c0,2.4-1.9,4.3-4.3,4.3c-2.4,0-4.3-1.9-4.3-4.3S43.3,170.5,45.6,170.5z M87.9,205.2h-3.3
	c0.7-1,1.1-2.1,1.1-3.2v-13c0-4.2-3.5-7.6-7.6-7.6h-4.3c3.6,0,6.5-2.9,6.5-6.5s-2.9-6.5-6.5-6.5s-6.5,2.9-6.5,6.5s2.9,6.5,6.5,6.5
	h-4.3c-3.1,0-5.8,1.8-7.1,4.7l-2.5,6.2l-2.9-6.5c-0.6-1.2-1.1-2.4-2.6-3.2c-0.7-0.3-2.6-1.1-2.9-1.1c-0.4-0.1-0.8,0-1.1,0.3
	l-4.7,4.7l-4.7-4.7c-0.3-0.3-0.7-0.4-1.1-0.3l-2.8,1c-1.9,0.7-3.3,2.5-3.3,4.7v15c0,2.6,1.8,4.9,4.3,5.3v15.3c0,1.2,1,2.2,2.2,2.2
	H51c1.2,0,2.2-1,2.2-2.2V193l3.3,7.8c-0.1,0.6,0,1.2,0.1,1.8c0.3,0.8,1,1.4,1.8,1.7c1.7,0.6,3.6-0.1,4.3-1.8l3.5-8.9v29.1
	c0,1.2,1,2.2,2.2,2.2h10.8c1.2,0,2.2-1,2.2-2.2v-6.5h6.5c1.2,0,2.2-1,2.2-2.2v-6.5C90.2,206.1,89.2,205.2,87.9,205.2z M69.5,174.8
	c0-2.4,1.9-4.3,4.3-4.3s4.3,1.9,4.3,4.3c0,2.4-1.9,4.3-4.3,4.3S69.5,177.1,69.5,174.8z M57.7,197.7l-3.7-8.6c-0.3-0.7-1-1.1-1.7-0.8
	c-0.7,0.1-1.2,0.7-1.2,1.5v32.9h-4.3v-18.5c0-0.6-0.4-1.1-1.1-1.1c-0.6,0-1.1,0.4-1.1,1.1v18.5h-4.3v-31.5c0-0.6-0.4-1.1-1.1-1.1
	c-0.6,0-1.1,0.4-1.1,1.1V205c-1.2-0.4-2.2-1.7-2.2-3.1v-15c0-1.2,0.7-2.2,1.9-2.6l2.2-0.7l5,5c0.4,0.4,1.1,0.4,1.5,0l5-5
	c0.7,0.3,1.7,0.7,2.1,0.8c0.8,0.4,1.2,1,1.7,2.1L59,195L57.7,197.7z M80.3,188.9c-0.6,0-1.1,0.4-1.1,1.1v32.6h-4.3v-18.5
	c0-0.6-0.4-1.1-1.1-1.1c-0.6,0-1.1,0.4-1.1,1.1v18.5h-4.3V190c0-0.7-0.6-1.4-1.2-1.5c-0.1,0-0.3,0-0.3,0c-0.6,0-1.1,0.4-1.4,1
	l-4.7,12.1c-0.3,0.6-1,0.8-1.5,0.7c-0.3-0.1-0.4-0.3-0.6-0.6c-0.1-0.3-0.1-0.6,0-0.8l5.7-14c0.8-2.1,2.9-3.3,5.1-3.3h8.6
	c3.1,0,5.4,2.5,5.4,5.4v13c0,1.4-1,2.6-2.2,3.1v-15C81.4,189.4,81,188.9,80.3,188.9z M87.9,213.8h-6.5v-6.5h6.5V213.8z"/>
<g>
	<path class="st3" d="M38.3,239.9h-3.6l-0.7,1.7h-1.8l3.5-7.8h1.8l3.5,7.8h-2L38.3,239.9z M37.6,238.6l-1.2-2.9l-1.2,2.9H37.6z"/>
	<path class="st3" d="M43,241.3c-0.7-0.3-1.1-0.8-1.5-1.4s-0.6-1.2-0.6-2.1s0.1-1.5,0.6-2.1c0.4-0.6,0.8-1.1,1.5-1.4
		c0.7-0.3,1.4-0.6,2.2-0.6c0.7,0,1.2,0.1,1.8,0.4c0.6,0.3,1,0.6,1.4,1l-1.1,1.1c-0.6-0.6-1.1-1-1.9-1c-0.4,0-1,0.1-1.2,0.3
		c-0.4,0.3-0.7,0.6-0.8,0.8c-0.3,0.4-0.3,0.8-0.3,1.2s0.1,1,0.3,1.2c0.3,0.4,0.6,0.7,0.8,0.8c0.4,0.3,0.8,0.3,1.2,0.3
		c0.8,0,1.4-0.3,1.9-1l1.1,1.1c-0.4,0.4-0.8,0.8-1.4,1c-0.6,0.3-1.1,0.4-1.8,0.4C44.4,241.7,43.7,241.5,43,241.3z"/>
	<path class="st3" d="M51,241.3c-0.7-0.3-1.1-0.8-1.5-1.4s-0.6-1.2-0.6-2.1s0.1-1.5,0.6-2.1s0.8-1.1,1.5-1.4
		c0.7-0.3,1.4-0.6,2.2-0.6c0.7,0,1.2,0.1,1.8,0.4c0.6,0.3,1,0.6,1.4,1l-1.1,1.1c-0.6-0.6-1.1-1-1.9-1c-0.4,0-1,0.1-1.2,0.3
		c-0.4,0.3-0.7,0.6-0.8,0.8c-0.3,0.4-0.3,0.8-0.3,1.2s0.1,1,0.3,1.2c0.3,0.4,0.6,0.7,0.8,0.8c0.4,0.3,0.8,0.3,1.2,0.3
		c0.8,0,1.4-0.3,1.9-1l1.1,1.1c-0.4,0.4-0.8,0.8-1.4,1c-0.6,0.3-1.1,0.4-1.8,0.4C52.4,241.7,51.6,241.5,51,241.3z"/>
	<path class="st3" d="M58.9,241.3c-0.7-0.4-1.1-0.8-1.5-1.4s-0.6-1.2-0.6-2.1s0.1-1.4,0.6-2.1c0.4-0.7,0.8-1.1,1.5-1.4
		c0.7-0.4,1.4-0.6,2.2-0.6s1.5,0.1,2.2,0.6c0.7,0.4,1.1,0.8,1.5,1.4c0.4,0.6,0.6,1.2,0.6,2.1s-0.1,1.4-0.6,2.1s-0.8,1.1-1.5,1.4
		c-0.7,0.4-1.4,0.6-2.2,0.6C60.3,241.8,59.6,241.5,58.9,241.3z M62.4,239.9c0.4-0.3,0.7-0.6,0.8-0.8c0.3-0.4,0.3-0.8,0.3-1.2
		s-0.1-1-0.3-1.2c-0.3-0.4-0.6-0.7-0.8-0.8c-0.4-0.3-0.8-0.3-1.2-0.3s-0.8,0.1-1.2,0.3c-0.4,0.3-0.7,0.6-0.8,0.8
		c-0.3,0.4-0.3,0.8-0.3,1.2s0.1,1,0.3,1.2c0.3,0.4,0.6,0.7,0.8,0.8c0.4,0.3,0.8,0.3,1.2,0.3C61.6,240.1,62,240.1,62.4,239.9z"/>
	<path class="st3" d="M67.7,240.8c-0.6-0.6-1-1.5-1-2.6v-4.3h1.8v4.3c0,1.4,0.6,2.1,1.7,2.1c0.6,0,1-0.1,1.2-0.6
		c0.3-0.4,0.4-0.8,0.4-1.5v-4.3h1.8v4.3c0,1.1-0.3,2.1-1,2.6c-0.6,0.6-1.5,1-2.6,1C69.1,241.7,68.2,241.4,67.7,240.8z"/>
	<path class="st3" d="M82.7,233.8v7.8h-1.5l-3.9-4.7v4.7h-1.8v-7.8H77l3.9,4.7v-4.7H82.7z"/>
	<path class="st3" d="M86.1,235.3h-2.5v-1.5h6.8v1.5h-2.5v6.2h-1.8V235.3L86.1,235.3z"/>
	<path class="st3" d="M34.1,252.6c-0.6-0.1-1-0.4-1.4-0.7l0.6-1.4c0.3,0.3,0.7,0.4,1.2,0.6c0.4,0.1,1,0.3,1.4,0.3
		c0.6,0,0.8-0.1,1.1-0.3c0.3-0.1,0.4-0.4,0.4-0.6c0-0.1-0.1-0.3-0.3-0.4s-0.3-0.3-0.6-0.3c-0.3-0.1-0.6-0.1-1-0.3
		c-0.6-0.1-1.1-0.3-1.4-0.4c-0.4-0.1-0.7-0.4-1-0.7s-0.4-0.7-0.4-1.2c0-0.4,0.1-0.8,0.4-1.2c0.3-0.4,0.6-0.7,1.1-0.8
		c0.6-0.3,1.1-0.3,1.8-0.3c0.6,0,1,0,1.4,0.1s0.8,0.3,1.2,0.6L38,247c-0.7-0.4-1.4-0.6-2.2-0.6c-0.6,0-0.8,0.1-1.1,0.3
		c-0.3,0.1-0.4,0.4-0.4,0.7s0.1,0.4,0.4,0.6c0.3,0.1,0.7,0.3,1.2,0.4s1.1,0.3,1.4,0.4c0.4,0.1,0.7,0.4,1,0.7s0.4,0.7,0.4,1.2
		c0,0.4-0.1,0.8-0.4,1.2c-0.3,0.4-0.6,0.7-1.1,0.8c-0.6,0.3-1.1,0.3-1.8,0.3C35.2,252.8,34.6,252.8,34.1,252.6z"/>
	<path class="st3" d="M46.4,251.2v1.4h-6v-7.8h5.8v1.4h-4.1v1.7h3.6v1.4h-3.6v1.8h4.3V251.2z"/>
	<path class="st3" d="M52.8,252.6l-1.5-2.2h-0.2h-1.5v2.2h-1.8v-7.8h3.3c0.7,0,1.2,0.1,1.8,0.3c0.6,0.3,0.8,0.6,1.1,1s0.4,1,0.4,1.5
		c0,0.6-0.1,1.1-0.4,1.5c-0.3,0.4-0.7,0.7-1.2,1l1.8,2.5H52.8z M52.3,246.7c-0.3-0.3-0.7-0.4-1.2-0.4h-1.5v2.8h1.5
		c0.6,0,1-0.1,1.2-0.4c0.3-0.3,0.4-0.6,0.4-1C52.8,247.4,52.7,246.9,52.3,246.7z"/>
	<path class="st3" d="M63.5,244.9l-3.3,7.8h-1.8l-3.3-7.8H57l2.4,5.6l2.4-5.6H63.5z"/>
	<path class="st3" d="M64.1,244.9h1.8v7.8h-1.8V244.9z"/>
	<path class="st3" d="M69.3,252.4c-0.7-0.3-1.1-0.8-1.5-1.4c-0.4-0.6-0.6-1.2-0.6-2.1c0-0.8,0.1-1.5,0.6-2.1
		c0.4-0.6,0.8-1.1,1.5-1.4c0.7-0.3,1.4-0.6,2.2-0.6c0.7,0,1.2,0.1,1.8,0.4c0.6,0.3,1,0.6,1.4,1l-1.1,1.1c-0.6-0.6-1.1-1-1.9-1
		c-0.4,0-1,0.1-1.2,0.3c-0.4,0.3-0.7,0.6-0.8,0.8c-0.3,0.4-0.3,0.8-0.3,1.2s0.1,1,0.3,1.2c0.3,0.4,0.6,0.7,0.8,0.8
		c0.4,0.3,0.8,0.3,1.2,0.3c0.8,0,1.4-0.3,1.9-1l1.1,1.1c-0.4,0.4-0.8,0.8-1.4,1c-0.6,0.3-1.1,0.4-1.8,0.4
		C70.7,252.8,70,252.6,69.3,252.4z"/>
	<path class="st3" d="M82,251.2v1.4h-6v-7.8h5.8v1.4h-4v1.7h3.6v1.4h-3.6v1.8H82V251.2z"/>
	<path class="st3" d="M84.3,252.6c-0.6-0.1-1-0.4-1.4-0.7l0.6-1.4c0.3,0.3,0.7,0.4,1.2,0.6c0.4,0.1,1,0.3,1.4,0.3
		c0.6,0,0.8-0.1,1.1-0.3c0.3-0.1,0.4-0.4,0.4-0.6c0-0.1-0.1-0.3-0.3-0.4c-0.2-0.1-0.3-0.3-0.6-0.3c-0.3-0.1-0.6-0.1-1-0.3
		c-0.6-0.1-1.1-0.3-1.4-0.4c-0.4-0.1-0.7-0.4-1-0.7c-0.3-0.3-0.4-0.7-0.4-1.2c0-0.4,0.1-0.8,0.4-1.2s0.6-0.7,1.1-0.8
		c0.6-0.3,1.1-0.3,1.8-0.3c0.6,0,1,0,1.4,0.1s0.8,0.3,1.2,0.6l-0.6,1.4c-0.7-0.4-1.4-0.6-2.2-0.6c-0.6,0-0.8,0.1-1.1,0.3
		c-0.3,0.1-0.4,0.4-0.4,0.7s0.1,0.4,0.4,0.6c0.3,0.1,0.7,0.3,1.2,0.4s1.1,0.3,1.4,0.4c0.4,0.1,0.7,0.4,1,0.7
		c0.3,0.3,0.4,0.7,0.4,1.2c0,0.4-0.1,0.8-0.4,1.2c-0.3,0.4-0.6,0.7-1.1,0.8c-0.6,0.3-1.1,0.3-1.8,0.3
		C85.4,252.8,84.8,252.8,84.3,252.6z"/>
</g>
<g>
	<path class="st3" d="M233,468.3v-4.7l-2.2,3.9H230l-2.2-3.7v4.6H226v-7.8h1.5l2.9,4.9l2.9-4.9h1.5v7.8L233,468.3L233,468.3z"/>
	<path class="st3" d="M237.9,467.9c-0.7-0.4-1.1-0.8-1.5-1.4s-0.6-1.2-0.6-2.1c0-0.8,0.1-1.4,0.6-2.1s0.8-1.1,1.5-1.4
		s1.4-0.6,2.2-0.6s1.5,0.1,2.2,0.6s1.1,0.8,1.5,1.4s0.6,1.2,0.6,2.1c0,0.8-0.1,1.4-0.6,2.1c-0.4,0.6-0.8,1.1-1.5,1.4
		s-1.4,0.6-2.2,0.6S238.6,468.1,237.9,467.9z M241.4,466.5c0.4-0.3,0.7-0.6,0.8-0.8c0.3-0.4,0.3-0.8,0.3-1.2s-0.1-1-0.3-1.2
		c-0.3-0.4-0.6-0.7-0.8-0.8c-0.4-0.3-0.8-0.3-1.2-0.3s-0.8,0.1-1.2,0.3c-0.4,0.3-0.7,0.6-0.8,0.8c-0.3,0.4-0.3,0.8-0.3,1.2
		s0.1,1,0.3,1.2c0.3,0.4,0.6,0.7,0.8,0.8c0.4,0.3,0.8,0.3,1.2,0.3S241,466.8,241.4,466.5z"/>
	<path class="st3" d="M245.7,460.5h3.5c0.8,0,1.5,0.1,2.2,0.4s1.1,0.8,1.5,1.4s0.6,1.2,0.6,2.1c0,0.8-0.1,1.5-0.6,2.1
		c-0.4,0.6-0.8,1-1.5,1.4c-0.7,0.3-1.4,0.4-2.2,0.4h-3.5V460.5z M249.2,466.8c0.8,0,1.4-0.3,1.8-0.7c0.4-0.4,0.7-1,0.7-1.8
		s-0.3-1.4-0.7-1.8s-1.1-0.7-1.8-0.7h-1.7v4.9h1.7V466.8z"/>
	<path class="st3" d="M261,466.8v1.4h-6v-7.8h5.8v1.4h-4v1.7h3.6v1.4h-3.6v1.8h4.2V466.8z"/>
	<path class="st3" d="M267.4,468.3l-1.5-2.2h-0.1h-1.5v2.2h-1.8v-7.8h3.3c0.7,0,1.2,0.1,1.8,0.3c0.6,0.3,0.8,0.6,1.1,1
		c0.3,0.4,0.4,1,0.4,1.5c0,0.6-0.1,1.1-0.4,1.5s-0.7,0.7-1.2,1l1.8,2.5H267.4L267.4,468.3z M266.9,462.3c-0.3-0.3-0.7-0.4-1.2-0.4
		h-1.5v2.8h1.5c0.6,0,1-0.1,1.2-0.4c0.3-0.3,0.4-0.6,0.4-1C267.4,462.9,267.2,462.5,266.9,462.3z"/>
	<path class="st3" d="M275.7,466.6h-3.6l-0.7,1.7h-1.8l3.5-7.8h1.8l3.5,7.8h-1.9L275.7,466.6z M275.1,465.2l-1.2-2.9l-1.2,2.9H275.1
		z"/>
	<path class="st3" d="M280.3,461.9h-2.5v-1.5h6.8v1.5h-2.5v6.2h-1.8V461.9L280.3,461.9z"/>
	<path class="st3" d="M285.5,460.5h1.8v7.8h-1.8V460.5z"/>
	<path class="st3" d="M290.8,467.9c-0.7-0.4-1.1-0.8-1.5-1.4s-0.6-1.2-0.6-2.1c0-0.8,0.1-1.4,0.6-2.1s0.8-1.1,1.5-1.4
		s1.4-0.6,2.2-0.6s1.5,0.1,2.2,0.6s1.1,0.8,1.5,1.4s0.6,1.2,0.6,2.1c0,0.8-0.1,1.4-0.6,2.1c-0.4,0.6-0.8,1.1-1.5,1.4
		s-1.4,0.6-2.2,0.6S291.4,468.1,290.8,467.9z M294.1,466.5c0.4-0.3,0.7-0.6,0.8-0.8c0.3-0.4,0.3-0.8,0.3-1.2s-0.1-1-0.3-1.2
		c-0.3-0.4-0.6-0.7-0.8-0.8c-0.4-0.3-0.8-0.3-1.2-0.3s-0.8,0.1-1.2,0.3c-0.4,0.3-0.7,0.6-0.8,0.8c-0.3,0.4-0.3,0.8-0.3,1.2
		s0.1,1,0.3,1.2c0.3,0.4,0.6,0.7,0.8,0.8c0.4,0.3,0.8,0.3,1.2,0.3S293.9,466.8,294.1,466.5z"/>
	<path class="st3" d="M305.7,460.5v7.8h-1.5l-3.9-4.7v4.7h-1.7v-7.8h1.5l3.9,4.7v-4.7H305.7z"/>
</g>
<g>
	<path class="st3" d="M91.8,390.7h-2.5v-1.5h6.8v1.5h-2.5v6.2h-1.8V390.7z"/>
	<path class="st3" d="M103.1,395.6v1.4h-6v-7.8h5.8v1.4h-4.2v1.7h3.6v1.4h-3.6v1.8h4.3L103.1,395.6L103.1,395.6z"/>
	<path class="st3" d="M105.3,397c-0.6-0.1-1-0.4-1.4-0.7l0.6-1.4c0.3,0.3,0.7,0.4,1.2,0.6c0.4,0.1,1,0.3,1.4,0.3
		c0.6,0,0.8-0.1,1.1-0.3c0.3-0.1,0.4-0.4,0.4-0.6c0-0.1-0.1-0.3-0.3-0.4c-0.1-0.1-0.3-0.3-0.6-0.3c-0.3-0.1-0.6-0.1-1-0.3
		c-0.6-0.1-1.1-0.3-1.4-0.4c-0.4-0.1-0.7-0.4-1-0.7s-0.4-0.7-0.4-1.2c0-0.4,0.1-0.8,0.4-1.2s0.6-0.7,1.1-0.8
		c0.6-0.3,1.1-0.3,1.8-0.3c0.6,0,1,0,1.4,0.1s0.8,0.3,1.2,0.6l-0.6,1.4c-0.7-0.4-1.4-0.6-2.2-0.6c-0.6,0-0.8,0.1-1.1,0.3
		c-0.3,0.1-0.4,0.4-0.4,0.7s0.1,0.4,0.4,0.6c0.3,0.1,0.7,0.3,1.2,0.4s1.1,0.3,1.4,0.4c0.4,0.1,0.7,0.4,1,0.7
		c0.3,0.3,0.4,0.7,0.4,1.2c0,0.4-0.1,0.8-0.4,1.2s-0.6,0.7-1.1,0.8c-0.6,0.3-1.1,0.3-1.8,0.3C106.4,397.1,105.8,397.1,105.3,397z"/>
	<path class="st3" d="M113.1,390.7h-2.5v-1.5h6.8v1.5h-2.5v6.2h-1.8V390.7L113.1,390.7z"/>
	<path class="st3" d="M127.5,397.1l-1-0.8c-0.7,0.6-1.7,0.8-2.6,0.8c-0.6,0-1.1-0.1-1.5-0.3c-0.4-0.1-0.8-0.4-1.1-0.7
		s-0.4-0.7-0.4-1.1s0.1-1,0.4-1.2c0.3-0.4,0.7-0.7,1.2-1.1c-0.3-0.3-0.4-0.6-0.6-0.8c-0.1-0.3-0.1-0.6-0.1-0.8c0-0.4,0.1-0.7,0.3-1
		c0.1-0.3,0.4-0.6,0.8-0.7s0.8-0.3,1.2-0.3c0.7,0,1.2,0.1,1.7,0.4c0.4,0.3,0.6,0.7,0.6,1.2c0,0.4-0.1,0.7-0.4,1.1
		c-0.3,0.3-0.7,0.6-1.1,0.8l1.4,1.4c0.1-0.4,0.3-0.7,0.4-1.2l1.4,0.4c-0.1,0.7-0.4,1.2-0.7,1.8l1,0.8L127.5,397.1z M125.5,395.3
		l-1.9-1.8c-0.4,0.1-0.6,0.4-0.7,0.6c-0.1,0.1-0.3,0.4-0.3,0.7s0.1,0.6,0.4,0.7s0.6,0.3,1,0.3C124.6,395.8,125,395.6,125.5,395.3z
		 M123.6,390.6c-0.1,0.1-0.3,0.3-0.3,0.6c0,0.1,0,0.3,0.1,0.4s0.3,0.3,0.4,0.6c0.4-0.1,0.7-0.4,0.8-0.6c0.1-0.1,0.3-0.3,0.3-0.6
		c0-0.1,0-0.4-0.1-0.4c-0.1-0.1-0.3-0.1-0.6-0.1C124,390.3,123.7,390.4,123.6,390.6z"/>
	<path class="st3" d="M90,400.3h1.8v6.2h3.9v1.5H90V400.3z"/>
	<path class="st3" d="M102.6,406.7v1.4h-6v-7.8h5.8v1.4h-4v1.7h3.6v1.4h-3.6v1.8h4.2V406.7z"/>
	<path class="st3" d="M109.2,406.4h-3.6l-0.7,1.7h-1.8l3.5-7.8h1.8l3.5,7.8H110L109.2,406.4z M108.6,405.1l-1.2-2.9l-1.2,2.9H108.6z
		"/>
	<path class="st3" d="M117.6,408.1l-1.5-2.2H116h-1.5v2.2h-1.8v-7.8h3.3c0.7,0,1.2,0.1,1.8,0.3c0.6,0.3,0.8,0.6,1.1,1
		c0.3,0.4,0.4,1,0.4,1.5c0,0.6-0.1,1.1-0.4,1.5s-0.7,0.7-1.2,1l1.8,2.5H117.6L117.6,408.1z M117.1,402.1c-0.3-0.3-0.7-0.4-1.2-0.4
		h-1.5v2.8h1.5c0.6,0,1-0.1,1.2-0.4c0.3-0.3,0.4-0.6,0.4-1C117.5,402.8,117.4,402.4,117.1,402.1z"/>
	<path class="st3" d="M127.9,400.3v7.8h-1.5l-3.9-4.7v4.7h-1.8v-7.8h1.5l3.9,4.7v-4.7H127.9z"/>
</g>
<g>
	<path class="st3" d="M134.8,100.7h-3.6l-0.7,1.7h-1.8l3.3-7.8h1.8l3.5,7.8h-1.9L134.8,100.7z M134.3,99.3l-1.2-2.9l-1.2,2.9H134.3z
		"/>
	<path class="st3" d="M145.2,94.6v7.8h-1.5l-3.9-4.7v4.7H138v-7.8h1.5l3.9,4.7v-4.7H145.2z"/>
	<path class="st3" d="M152.3,100.7h-3.6l-0.7,1.7h-1.8l3.5-7.8h1.8l3.5,7.8h-2L152.3,100.7z M151.8,99.3l-1.2-2.9l-1.2,2.9H151.8z"
		/>
	<path class="st3" d="M155.7,94.6h1.8v6.2h3.9v1.5h-5.7V94.6z"/>
	<path class="st3" d="M165.2,99.6v2.8h-1.8v-2.8l-3.1-5h1.9l2.1,3.5l2.1-3.5h1.8L165.2,99.6z"/>
	<path class="st3" d="M170.5,96.1H168v-1.5h6.8v1.5h-2.5v6.2h-1.8V96.1z"/>
	<path class="st3" d="M175.8,94.6h1.8v7.8h-1.8V94.6z"/>
	<path class="st3" d="M181.1,101.9c-0.7-0.3-1.1-0.8-1.5-1.4s-0.6-1.2-0.6-2.1s0.1-1.5,0.6-2.1c0.4-0.6,0.8-1.1,1.5-1.4
		s1.4-0.6,2.2-0.6c0.7,0,1.2,0.1,1.8,0.4s1,0.6,1.4,1l-1.1,1.1c-0.6-0.6-1.1-1-1.9-1c-0.4,0-1,0.1-1.2,0.3c-0.4,0.3-0.7,0.6-0.8,0.8
		c-0.3,0.4-0.3,0.8-0.3,1.2c0,0.4,0.1,1,0.3,1.2c0.3,0.4,0.6,0.7,0.8,0.8c0.4,0.3,0.8,0.3,1.2,0.3c0.8,0,1.4-0.3,1.9-1l1.1,1.1
		c-0.4,0.4-0.8,0.8-1.4,1c-0.6,0.3-1.1,0.4-1.8,0.4C182.3,102.5,181.6,102.3,181.1,101.9z"/>
	<path class="st3" d="M188.3,102.2c-0.6-0.1-1-0.4-1.4-0.7l0.6-1.4c0.3,0.3,0.7,0.4,1.2,0.6c0.4,0.1,1,0.3,1.4,0.3
		c0.6,0,0.8-0.1,1.1-0.3c0.3-0.1,0.4-0.4,0.4-0.6c0-0.1-0.1-0.3-0.3-0.4c-0.1-0.1-0.3-0.3-0.6-0.3c-0.3-0.1-0.6-0.1-1-0.3
		c-0.6-0.1-1.1-0.3-1.4-0.4c-0.4-0.1-0.7-0.4-1-0.7c-0.3-0.3-0.4-0.7-0.4-1.2c0-0.4,0.1-0.8,0.4-1.2c0.3-0.4,0.6-0.7,1.1-0.8
		c0.6-0.3,1.1-0.3,1.8-0.3c0.6,0,1,0,1.4,0.1s0.8,0.3,1.2,0.6l-0.6,1.4c-0.7-0.4-1.4-0.6-2.2-0.6c-0.6,0-0.8,0.1-1.1,0.3
		c-0.3,0.1-0.4,0.4-0.4,0.7s0.1,0.4,0.4,0.6c0.3,0.1,0.7,0.3,1.2,0.4c0.6,0.1,1.1,0.3,1.4,0.4c0.4,0.1,0.7,0.4,1,0.7
		c0.3,0.3,0.4,0.7,0.4,1.2c0,0.4-0.1,0.8-0.4,1.2c-0.3,0.4-0.6,0.7-1.1,0.8c-0.6,0.3-1.1,0.3-1.8,0.3
		C189.4,102.5,188.8,102.3,188.3,102.2z"/>
</g>
<g>
	<path class="st3" d="M314.4,105c-0.6-0.1-1-0.4-1.4-0.7l0.6-1.4c0.3,0.3,0.7,0.4,1.2,0.6c0.4,0.1,1,0.3,1.4,0.3
		c0.6,0,0.8-0.1,1.1-0.3c0.3-0.1,0.4-0.4,0.4-0.6c0-0.1-0.1-0.3-0.3-0.4c-0.1-0.1-0.3-0.3-0.6-0.3c-0.3-0.1-0.6-0.1-1-0.3
		c-0.6-0.1-1.1-0.3-1.4-0.4c-0.4-0.1-0.7-0.4-1-0.7s-0.4-0.7-0.4-1.2c0-0.4,0.1-0.8,0.4-1.2c0.3-0.4,0.6-0.7,1.1-0.8
		c0.6-0.3,1.1-0.3,1.8-0.3c0.6,0,1,0,1.4,0.1s0.8,0.3,1.2,0.6l-0.6,1.4c-0.7-0.4-1.4-0.6-2.2-0.6c-0.6,0-0.8,0.1-1.1,0.3
		c-0.3,0.1-0.4,0.4-0.4,0.7s0.1,0.4,0.4,0.6c0.3,0.1,0.7,0.3,1.2,0.4c0.6,0.1,1.1,0.3,1.4,0.4c0.4,0.1,0.7,0.4,1,0.7
		s0.4,0.7,0.4,1.2c0,0.4-0.1,0.8-0.4,1.2c-0.3,0.4-0.6,0.7-1.1,0.8c-0.6,0.3-1.1,0.3-1.8,0.3C315.5,105.3,315,105.1,314.4,105z"/>
	<path class="st3" d="M322.3,104.7c-0.7-0.4-1.1-0.8-1.5-1.4s-0.6-1.2-0.6-2.1s0.1-1.4,0.6-2.1c0.4-0.7,0.8-1.1,1.5-1.4
		c0.7-0.4,1.4-0.6,2.2-0.6c0.8,0,1.5,0.1,2.2,0.6s1.1,0.8,1.5,1.4s0.6,1.2,0.6,2.1s-0.1,1.4-0.6,2.1c-0.4,0.7-0.8,1.1-1.5,1.4
		c-0.7,0.4-1.4,0.6-2.2,0.6C323.7,105.3,323,105.1,322.3,104.7z M325.8,103.5c0.4-0.3,0.7-0.6,0.8-0.8c0.3-0.4,0.3-0.8,0.3-1.2
		c0-0.4-0.1-1-0.3-1.2c-0.3-0.4-0.6-0.7-0.8-0.8c-0.4-0.3-0.8-0.3-1.2-0.3s-0.8,0.1-1.2,0.3c-0.4,0.3-0.7,0.6-0.8,0.8
		c-0.3,0.4-0.3,0.8-0.3,1.2c0,0.4,0.1,1,0.3,1.2c0.3,0.4,0.6,0.7,0.8,0.8c0.4,0.3,0.8,0.3,1.2,0.3S325.4,103.6,325.8,103.5z"/>
	<path class="st3" d="M331.6,104.7c-0.7-0.3-1.1-0.8-1.5-1.4s-0.6-1.2-0.6-2.1s0.1-1.5,0.6-2.1c0.4-0.6,0.8-1.1,1.5-1.4
		s1.4-0.6,2.2-0.6c0.7,0,1.2,0.1,1.8,0.4c0.6,0.3,1,0.6,1.4,1l-1.1,1.1c-0.6-0.6-1.1-1-1.9-1c-0.4,0-1,0.1-1.2,0.3
		c-0.4,0.3-0.7,0.6-0.8,0.8c-0.3,0.4-0.3,0.8-0.3,1.2c0,0.4,0.1,1,0.3,1.2c0.3,0.4,0.6,0.7,0.8,0.8c0.4,0.3,0.8,0.3,1.2,0.3
		c0.8,0,1.4-0.3,1.9-1l1.1,1.1c-0.4,0.4-0.8,0.8-1.4,1c-0.6,0.3-1.1,0.4-1.8,0.4C333,105.3,332.3,105.1,331.6,104.7z"/>
	<path class="st3" d="M338.3,97.4h1.8v7.8h-1.8V97.4z"/>
	<path class="st3" d="M347,103.5h-3.6l-0.7,1.7h-1.8l3.5-7.8h1.8l3.5,7.8h-1.9L347,103.5z M346.5,102.1l-1.2-2.9l-1.2,2.9H346.5z"/>
	<path class="st3" d="M350.3,97.4h1.8v6.2h3.9v1.5h-5.7L350.3,97.4L350.3,97.4z"/>
</g>
<g>
	<path class="st3" d="M420.7,215.7V211l-2.2,3.9h-0.8l-2.2-3.7v4.6h-1.7V208h1.5l2.9,4.9l2.9-4.9h1.5v7.8L420.7,215.7L420.7,215.7z"
		/>
	<path class="st3" d="M429.3,214.1h-3.6l-0.7,1.7h-1.8l3.5-7.8h1.8l3.5,7.8h-2L429.3,214.1z M428.8,212.7l-1.2-2.9l-1.2,2.9H428.8z"
		/>
	<path class="st3" d="M439.9,208v7.8h-1.5l-3.9-4.7v4.7h-1.8V208h1.5l3.9,4.7V208H439.9z"/>
	<path class="st3" d="M446.8,214.1h-3.6l-0.7,1.7h-1.8l3.5-7.8h1.8l3.5,7.8h-1.9L446.8,214.1z M446.2,212.7l-1.2-2.9l-1.2,2.9H446.2
		z"/>
	<path class="st3" d="M455.4,211.7h1.7v3.2c-0.4,0.3-1,0.6-1.5,0.7c-0.6,0.1-1.1,0.3-1.7,0.3c-0.8,0-1.5-0.1-2.2-0.6
		c-0.7-0.4-1.1-0.8-1.5-1.4c-0.4-0.6-0.6-1.2-0.6-2.1c0-0.8,0.1-1.5,0.6-2.1s0.8-1.1,1.5-1.4c0.7-0.3,1.4-0.6,2.2-0.6
		c0.7,0,1.2,0.1,1.8,0.3c0.6,0.3,1,0.6,1.4,1l-1.1,1.1c-0.6-0.6-1.2-0.8-1.9-0.8c-0.6,0-1,0.1-1.4,0.3c-0.4,0.1-0.7,0.6-0.8,0.8
		c-0.3,0.4-0.3,0.8-0.3,1.2s0.1,1,0.3,1.2c0.3,0.4,0.6,0.7,0.8,0.8c0.4,0.3,0.8,0.3,1.2,0.3c0.6,0,1-0.1,1.4-0.3v-2.1h0.1V211.7z"/>
	<path class="st3" d="M464.7,214.2v1.4h-6v-7.8h5.8v1.4h-4v1.7h3.6v1.4h-3.6v1.8h4.2V214.2z"/>
	<path class="st3" d="M416.5,219.1h3.5c0.8,0,1.5,0.1,2.2,0.4c0.7,0.3,1.1,0.8,1.5,1.4c0.4,0.6,0.6,1.2,0.6,2.1s-0.1,1.5-0.6,2.1
		c-0.4,0.6-0.8,1-1.5,1.4s-1.4,0.4-2.2,0.4h-3.5V219.1z M420,225.3c0.8,0,1.4-0.3,1.8-0.7s0.7-1,0.7-1.8s-0.3-1.4-0.7-1.8
		c-0.4-0.4-1.1-0.7-1.8-0.7h-1.7v4.9h1.7V225.3z"/>
	<path class="st3" d="M425.7,219.1h1.8v7.8h-1.8V219.1z"/>
	<path class="st3" d="M434.6,222.8h1.7v3.2c-0.4,0.3-1,0.6-1.5,0.7c-0.6,0.1-1.1,0.3-1.7,0.3c-0.8,0-1.5-0.1-2.2-0.6
		s-1.1-0.8-1.5-1.4c-0.4-0.6-0.6-1.2-0.6-2.1s0.1-1.5,0.6-2.1s0.8-1.1,1.5-1.4c0.7-0.3,1.4-0.6,2.2-0.6c0.7,0,1.2,0.1,1.8,0.3
		c0.6,0.3,1,0.6,1.4,1l-1.1,1.1c-0.6-0.6-1.2-0.8-1.9-0.8c-0.6,0-1,0.1-1.4,0.3c-0.4,0.1-0.7,0.6-0.8,0.8c-0.3,0.4-0.3,0.8-0.3,1.2
		s0.1,1,0.3,1.2c0.3,0.4,0.6,0.7,0.8,0.8c0.4,0.3,0.8,0.3,1.2,0.3c0.6,0,1-0.1,1.4-0.3v-2.1h0.1V222.8z"/>
	<path class="st3" d="M437.9,219.1h1.8v7.8h-1.8V219.1z"/>
	<path class="st3" d="M443.2,220.4h-2.5v-1.5h6.8v1.5H445v6.2h-1.8V220.4L443.2,220.4z"/>
	<path class="st3" d="M453.2,225.2h-3.6l-0.7,1.7h-1.8l3.5-7.8h1.8l3.5,7.8H454L453.2,225.2z M452.6,223.8l-1.2-2.9l-1.2,2.9H452.6z
		"/>
	<path class="st3" d="M456.5,219.1h1.8v6.2h3.9v1.5h-5.7L456.5,219.1L456.5,219.1z"/>
</g>
<g>
	<path class="st3" d="M393.9,381.4c-0.7-0.4-1.1-0.8-1.5-1.4s-0.6-1.2-0.6-2.1c0-0.7,0.1-1.4,0.6-2.1c0.4-0.6,0.8-1.1,1.5-1.4
		s1.4-0.6,2.2-0.6c0.8,0,1.5,0.1,2.2,0.6s1.1,0.8,1.5,1.4s0.6,1.2,0.6,2.1c0,0.7-0.1,1.4-0.6,2.1c-0.4,0.6-0.8,1.1-1.5,1.4
		s-1.4,0.6-2.2,0.6S394.6,381.7,393.9,381.4z M397.4,380c0.4-0.3,0.7-0.6,0.8-0.8c0.3-0.4,0.3-0.8,0.3-1.2s-0.1-1-0.3-1.2
		c-0.3-0.4-0.6-0.7-0.8-0.8c-0.4-0.3-0.8-0.3-1.2-0.3s-0.8,0.1-1.2,0.3c-0.4,0.3-0.7,0.6-0.8,0.8c-0.3,0.4-0.3,0.8-0.3,1.2
		s0.1,1,0.3,1.2c0.3,0.4,0.6,0.7,0.8,0.8c0.4,0.3,0.8,0.3,1.2,0.3S397,380.3,397.4,380z"/>
	<path class="st3" d="M408.9,373.9v7.8h-1.5l-3.9-4.7v4.7h-1.8v-7.8h1.5l3.9,4.7v-4.7H408.9z"/>
	<path class="st3" d="M410.7,373.9h1.8v6.2h3.9v1.5h-5.7L410.7,373.9L410.7,373.9z"/>
	<path class="st3" d="M417.4,373.9h1.8v7.8h-1.8V373.9z"/>
	<path class="st3" d="M428.2,373.9v7.8h-1.5l-3.9-4.7v4.7H421v-7.8h1.5l3.9,4.7v-4.7H428.2z"/>
	<path class="st3" d="M436.1,380.3v1.4h-6v-7.8h5.8v1.4h-4.2v1.7h3.6v1.4h-3.6v1.8h4.3v0.1H436.1z"/>
	<path class="st3" d="M407.7,391.1h-3.6l-0.7,1.7h-1.8l3.5-7.8h1.8l3.5,7.8h-1.9L407.7,391.1z M407.1,389.9l-1.2-2.9l-1.2,2.9H407.1
		z"/>
	<path class="st3" d="M411,385h3.5c0.8,0,1.5,0.1,2.2,0.4s1.1,0.8,1.5,1.4s0.6,1.2,0.6,2.1c0,0.8-0.1,1.5-0.6,2.1
		c-0.4,0.6-0.8,1-1.5,1.4c-0.7,0.3-1.4,0.4-2.2,0.4H411V385z M414.5,391.4c0.8,0,1.4-0.3,1.8-0.7s0.7-1,0.7-1.8s-0.3-1.4-0.7-1.8
		s-1.1-0.7-1.8-0.7h-1.7v4.9h1.7V391.4z"/>
	<path class="st3" d="M421,392.8c-0.6-0.1-1-0.4-1.4-0.7l0.6-1.4c0.3,0.3,0.7,0.4,1.2,0.6c0.4,0.1,1,0.3,1.4,0.3
		c0.6,0,0.8-0.1,1.1-0.3c0.3-0.1,0.4-0.4,0.4-0.6c0-0.1-0.1-0.3-0.3-0.4c-0.1-0.1-0.3-0.3-0.6-0.3c-0.3-0.1-0.6-0.1-1-0.3
		c-0.6-0.1-1.1-0.3-1.4-0.4c-0.4-0.1-0.7-0.4-1-0.7s-0.4-0.7-0.4-1.2c0-0.4,0.1-0.8,0.4-1.2c0.3-0.4,0.6-0.7,1.1-0.8
		c0.6-0.3,1.1-0.3,1.8-0.3c0.6,0,1,0,1.4,0.1s0.8,0.3,1.2,0.6l-0.6,1.4c-0.7-0.4-1.4-0.6-2.2-0.6c-0.6,0-0.8,0.1-1.1,0.3
		c-0.3,0.1-0.4,0.4-0.4,0.7s0.1,0.4,0.4,0.6c0.3,0.1,0.7,0.3,1.2,0.4c0.6,0.1,1.1,0.3,1.4,0.4c0.4,0.1,0.7,0.4,1,0.7
		s0.4,0.7,0.4,1.2c0,0.4-0.1,0.8-0.4,1.2c-0.3,0.4-0.6,0.7-1.1,0.8c-0.6,0.3-1.1,0.3-1.8,0.3C422.1,392.9,421.5,392.9,421,392.8z"/>
</g>
<g>
	<g>
		<path class="st2" d="M150.7,71c-2.5,0-5.1-0.7-7.4-2.1c-3.1-1.9-5.3-5-6-8.6c-1.7-7.4,3.1-14.7,10.4-16.4
			c7.4-1.7,14.7,3.1,16.4,10.4l0,0c0.8,3.6,0.1,7.2-1.8,10.3c-1.9,3.1-5,5.3-8.6,6C152.7,70.8,151.8,71,150.7,71z M150.8,47.1
			c-0.7,0-1.5,0.1-2.2,0.3c-5.6,1.2-8.9,6.7-7.8,12.2c0.6,2.6,2.2,4.9,4.4,6.4c2.4,1.5,5,1.9,7.6,1.4c2.6-0.6,4.9-2.2,6.4-4.4
			c1.5-2.4,1.9-5,1.4-7.6l0,0C159.7,50.3,155.4,47.1,150.8,47.1z"/>
	</g>
	<g>
		<path class="st2" d="M179,77.5c-0.3,0-0.7-0.1-1-0.3l-18.2-11.9c-0.8-0.6-1-1.7-0.6-2.4c0.6-0.8,1.7-1,2.4-0.6l18.3,11.9
			c0.8,0.6,1,1.7,0.6,2.4C180.1,77.2,179.5,77.5,179,77.5z"/>
	</g>
</g>
<g>
	<path class="st4" d="M307.7,43.8h23.7c1.9,0,3.6,1.5,3.6,3.6v20.1c0,1.9-1.5,3.6-3.6,3.6h-14.6l-6,6.1c-0.7,0.8-2.1,0.3-2.1-0.8V71
		h-1.2c-1.9,0-3.6-1.5-3.6-3.6v-20C304.1,45.5,305.7,43.8,307.7,43.8z"/>
	<path class="st4" d="M316.1,46.1v13c0,1.9,1.5,3.6,3.6,3.6h13"/>
	<path class="st4" d="M352.8,52.1v-13c0-1.9-1.5-3.6-3.6-3.6h-29.7c-1.9,0-3.6,1.5-3.6,3.6v4.7"/>
	<path class="st4" d="M334.9,62.8h3.5l6.4,6.2c0.7,0.7,2.1,0.3,2.1-0.8v-5.4h2.4c1.9,0,3.6-1.5,3.6-3.6v-4.7"/>
	<path class="st4" d="M323.2,71.1v4.7c0,1.9,1.5,3.6,3.6,3.6h13.5l8.3,6.8c0.8,0.7,1.9,0.1,1.9-1v-5.8h4.7c1.9,0,3.6-1.5,3.6-3.6
		V55.7c0-1.9-1.5-3.6-3.6-3.6h-20.1"/>
	<line class="st4" x1="323.2" y1="62.8" x2="323.2" y2="68.8"/>
	<path class="st4" d="M332.6,52.1h-6c-1.9,0-3.6,1.5-3.6,3.6v4.7"/>
</g>
<g>
	<polyline class="st5" points="461.5,160.2 461.5,150.4 417.7,150.4 417.7,196.4 461.5,196.4 461.5,187.7 	"/>
	<line class="st5" x1="417.7" y1="156.9" x2="461.5" y2="156.9"/>
	<line class="st5" x1="420.8" y1="153.6" x2="423.1" y2="153.6"/>
	<line class="st5" x1="425.3" y1="153.6" x2="427.5" y2="153.6"/>
	<line class="st5" x1="429.7" y1="153.6" x2="431.8" y2="153.6"/>
	<path class="st5" d="M438.5,162.4h25.3c2.4,0,4.4,1.9,4.4,4.4v14.3c0,2.4-1.9,4.4-4.4,4.4h-16.5l-5.8,5.8c-0.7,0.7-1.9,0.1-1.9-0.8
		v-5h-1.1c-2.4,0-4.4-1.9-4.4-4.4v-14.4C434,164.4,436,162.4,438.5,162.4z"/>
	<polygon class="st5" points="451.7,166.3 453.9,171.3 459.3,171.9 455.3,175.9 456.4,181 451.7,178.8 446.9,181.2 447.9,175.9 
		444,171.9 449.3,171.3 	"/>
</g>
<path class="st2" d="M440,357.5C440,357.4,440,357.4,440,357.5L440,357.5c0-0.1,0-0.1,0-0.1l0,0c0,0,0,0,0-0.1l0,0l-4.4-8.7v-23
	c0-2.2-1.8-4-4-4h-36.1c-2.2,0-4,1.8-4,4v23l-4.4,8.7l0,0l0,0c0,0,0,0,0,0.1l0,0c0,0,0,0,0,0.1l0,0c0,0,0,0,0,0.1c0,0,0,0,0,0.1v1.2
	c0,0.1,0,0.4,0,0.6c0.3,1.9,2.1,3.5,4,3.5h45.1c1.9,0,3.7-1.5,4-3.5c0-0.1,0-0.4,0-0.6L440,357.5L440,357.5z M433.7,347.7H393v-22.5
	c0-1.4,1.1-2.4,2.4-2.4h36.1c1.2,0,2.4,1.1,2.4,2.4L433.7,347.7z M434,349.4l3.7,7.4h-48.8l3.7-7.4H434z M438.3,358.4v0.4
	c0,1.2-1.1,2.4-2.4,2.4h-45.1c-1.2,0-2.4-1.1-2.4-2.4v-0.4H438.3z"/>
<path class="st2" d="M286.4,393.6h-30.3c-2.4,0-4.3,1.9-4.3,4.3v4.3h-8.6c-2.4,0-4.3,1.9-4.3,4.3v15.1c0,2.4,1.9,4.3,4.3,4.3h15.1
	v5.4c0,0.4,0.3,0.8,0.7,1c0.1,0,0.3,0.1,0.4,0.1c0.3,0,0.6-0.1,0.7-0.3l6.1-6.1h2.8c2.4,0,4.3-1.9,4.3-4.3v-2.2h2.8l6.1,6.1
	c0.1,0.1,0.4,0.3,0.7,0.3c0.1,0,0.3,0,0.4-0.1c0.4-0.1,0.7-0.6,0.7-1v-5.4h2.2c2.4,0,4.3-1.9,4.3-4.3v-17.2
	C290.7,395.6,288.7,393.6,286.4,393.6z M271.3,421.7c0,1.2-1,2.2-2.2,2.2h-3.2c-0.3,0-0.6,0.1-0.7,0.3l-4.6,4.6v-3.9
	c0-0.6-0.4-1.1-1.1-1.1h-16.2c-1.2,0-2.2-1-2.2-2.2v-15.1c0-1.2,1-2.2,2.2-2.2h8.6V415c0,2.4,1.9,4.3,4.3,4.3h15.1L271.3,421.7
	L271.3,421.7z M288.6,415.3c0,1.2-1,2.2-2.2,2.2h-3.2c-0.6,0-1.1,0.4-1.1,1.1v3.9l-4.6-4.6c-0.1-0.1-0.4-0.3-0.7-0.3h-20.5
	c-1.2,0-2.2-1-2.2-2.2v-17.2c0-1.2,1-2.2,2.2-2.2h30.3c1.2,0,2.2,1,2.2,2.2v17.1H288.6z M249.7,441.1c3.6,0,6.5-2.9,6.5-6.5
	s-2.9-6.5-6.5-6.5s-6.5,2.9-6.5,6.5C243.2,438.3,246.1,441.1,249.7,441.1z M249.7,430.4c2.4,0,4.3,1.9,4.3,4.3s-1.9,4.3-4.3,4.3
	c-2.4,0-4.3-1.9-4.3-4.3S247.4,430.4,249.7,430.4z M257.1,442.3l-2.6-1.1c-0.4-0.1-0.8,0-1.1,0.3l-3.6,3.6l-3.6-3.6
	c-0.3-0.3-0.8-0.4-1.1-0.3l-2.6,1.1c-2.1,0.8-3.3,2.8-3.3,5v1.4c0,0.6,0.4,1.1,1.1,1.1s1.1-0.4,1.1-1.1v-1.4c0-1.4,0.8-2.5,2.1-3.1
	l2.1-0.8l3.7,3.7c0.4,0.4,1.1,0.4,1.5,0l3.7-3.7l2.1,0.8c1.2,0.6,2.1,1.7,2.1,3.1v1.4c0,0.6,0.4,1.1,1.1,1.1c0.6,0,1.1-0.4,1.1-1.1
	v-1.4C260.6,445.1,259.2,443.2,257.1,442.3z M277.8,441.1c3.6,0,6.5-2.9,6.5-6.5s-2.9-6.5-6.5-6.5s-6.5,2.9-6.5,6.5
	C271.3,438.3,274.2,441.1,277.8,441.1z M277.8,430.4c2.4,0,4.3,1.9,4.3,4.3s-1.9,4.3-4.3,4.3s-4.3-1.9-4.3-4.3
	S275.4,430.4,277.8,430.4z M285.1,442.3l-2.6-1.1c-0.4-0.1-0.8,0-1.1,0.3l-3.6,3.6l-3.6-3.6c-0.3-0.3-0.7-0.4-1.1-0.3l-2.6,1.1
	c-2.1,0.8-3.3,2.8-3.3,5v1.4c0,0.6,0.4,1.1,1.1,1.1s1.1-0.4,1.1-1.1v-1.4c0-1.4,0.8-2.5,2.1-3.1l2.1-0.8l3.7,3.7
	c0.4,0.4,1.1,0.4,1.5,0l3.7-3.7l2.1,0.8c1.2,0.6,2.1,1.7,2.1,3.1v1.4c0,0.6,0.4,1.1,1.1,1.1s1.1-0.4,1.1-1.1v-1.4
	C288.6,445.1,287.2,443.2,285.1,442.3z M283.9,409l-3.2-3.2c-0.4-0.4-1.1-0.4-1.5,0s-0.4,1.1,0,1.5l1.4,1.4h-12.5
	c-0.6,0-1.1,0.4-1.1,1.1c0,0.6,0.4,1.1,1.1,1.1h12.5l-1.4,1.4c-0.4,0.4-0.4,1.1,0,1.5c0.3,0.3,0.6,0.3,0.7,0.3
	c0.3,0,0.6-0.1,0.7-0.3l3.2-3.2c0.1-0.1,0.1-0.3,0.3-0.4c0.1-0.3,0.1-0.6,0-0.8C284.2,409.3,284,409.2,283.9,409z M262.1,404.5h12.5
	c0.6,0,1.1-0.4,1.1-1.1s-0.4-1.1-1.1-1.1h-12.5l1.4-1.4c0.4-0.4,0.4-1.1,0-1.5s-1.1-0.4-1.5,0l-3.2,3.2c-0.1,0.1-0.1,0.3-0.3,0.4
	c-0.1,0.3-0.1,0.6,0,0.8c0,0.1,0.1,0.3,0.3,0.4l3.2,3.2c0.3,0.3,0.6,0.3,0.7,0.3s0.6-0.1,0.7-0.3c0.4-0.4,0.4-1.1,0-1.5L262.1,404.5
	z"/>
<polygon class="st6" points="413.4,328.4 415.2,332.6 419.6,333 416.3,336.3 417.2,340.5 413.4,338.7 409.5,340.6 410.3,336.3 
	407.1,333 411.4,332.6 "/>
<g>
	<path class="st2" d="M130.1,370.9c-0.4-0.4-1.2-0.4-1.7,0c-0.4,0.4-0.4,1.2,0,1.7l2.6,2.6h-8.7c-1.5,1-3.1,1.8-4.9,2.4h13.3
		l-2.4,2.4c-0.4,0.4-0.4,1.2,0,1.7c0.3,0.3,0.6,0.3,0.8,0.3c0.3,0,0.6-0.1,0.8-0.3l5.3-5.3L130.1,370.9z"/>
	<path class="st2" d="M129.7,356.9c0-10.8-8.5-19.7-19-20.5l2.5-2.5c0.4-0.4,0.4-1.2,0-1.7c-0.4-0.4-1.2-0.4-1.7,0l-5.3,5.3l5.3,5.3
		c0.3,0.3,0.6,0.3,0.8,0.3c0.3,0,0.6-0.1,0.8-0.3c0.4-0.4,0.4-1.2,0-1.7l-2.4-2.4c9.3,0.8,16.7,8.6,16.7,18.2s-7.5,17.5-16.9,18.3
		H86.3c-0.7,0-1.1,0.6-1.1,1.1c0,0.6,0.6,1.1,1.1,1.1h23l0,0C120.7,377.5,129.7,368.2,129.7,356.9z"/>
	<path class="st2" d="M96.4,372.9h4.2c-5.7-3.1-9.7-9.2-9.7-16.1c0-8,5.3-15,12.6-17.3l-0.8-2.2c-8.2,2.6-14.2,10.4-14.2,19.6
		C88.6,363.4,91.5,369.2,96.4,372.9z"/>
</g>
</svg>
