<?xml version="1.0" encoding="utf-8"?>
<!-- Generator: Adobe Illustrator 22.1.0, SVG Export Plug-In . SVG Version: 6.00 Build 0)  -->
<svg version="1.1" id="Layer_1" xmlns="http://www.w3.org/2000/svg" xmlns:xlink="http://www.w3.org/1999/xlink" x="0px" y="0px"
	 viewBox="0 0 250 150" style="enable-background:new 0 0 250 150;" xml:space="preserve">
<style type="text/css">
	.st0{fill:#828282;}
</style>
<g>
	<path class="st0" d="M32.1,51.5c0,0.1,0,0.1,0.1,0.2s0,0.1,0,0.1c0,0.1,0,0.3,0,0.3c-0.1,0.1-0.2,0.1-0.4,0.2c-0.2,0-0.3,0-0.4,0
		c-0.1-0.1-0.3-0.3-0.5-0.6c-0.2-0.3-0.5-0.7-0.7-1.2C30,50,29.7,49.5,29.4,49c-0.3-0.5-0.5-1-0.7-1.5c-0.1,0.1-0.3,0.2-0.6,0.4
		c-0.3,0.1-0.5,0.3-0.8,0.4c-0.3,0.1-0.6,0.3-1,0.5c0,0.6,0,1.2,0,1.6c0,0.5,0,0.8,0.1,1.1c0,0.3,0,0.5-0.1,0.7
		c-0.1,0.2-0.2,0.2-0.3,0.3c-0.1,0-0.2,0-0.3-0.1c-0.1-0.1-0.2-0.3-0.3-0.6c0-0.1-0.1-0.4-0.1-0.9c0-0.5-0.1-1-0.1-1.6
		c0-0.6-0.1-1.2-0.1-1.8c0-0.6-0.1-1.1-0.1-1.4c0-0.2,0-0.5,0-0.9c0-0.4,0-0.8,0-1.2s0-0.8,0-1.2c0-0.3,0-0.5,0.1-0.6
		c0.1-0.6,0.1-1.2,0.1-1.7c-0.1-0.6-0.1-1.1-0.2-1.6c-0.1-0.5-0.1-0.9-0.1-1.2c0-0.3,0.2-0.5,0.4-0.6c0.1,0,0.2,0,0.3,0.1
		c0.1,0.1,0.2,0.2,0.3,0.4c0.1,0.1,0.2,0.3,0.3,0.4c0.1,0.1,0.1,0.3,0.2,0.3c0,0.1,0.1,0.3,0.2,0.5c0.1,0.3,0.2,0.5,0.2,0.8
		s0.2,0.6,0.3,0.9c0.1,0.3,0.1,0.5,0.2,0.7c0.1,0.5,0.3,1,0.5,1.5c0.2,0.6,0.4,1.1,0.6,1.6c0.2,0.5,0.4,0.9,0.6,1.2
		c0.2,0.3,0.3,0.5,0.3,0.5c0.1,0,0.1,0,0.2-0.1c0.1,0,0.2-0.1,0.3-0.1c0.1,0,0.2,0,0.2,0.1c0,0.1,0,0.2,0,0.3s-0.1,0.2-0.1,0.2
		c-0.1,0.1-0.1,0.1-0.1,0.2c0,0.1-0.1,0.1,0,0.2c0,0.1,0.2,0.4,0.4,0.8l0.6,1.2c0.1,0.1,0.2,0.3,0.3,0.5c0.2,0.3,0.3,0.5,0.5,0.8
		c0.2,0.3,0.3,0.5,0.5,0.8C32,51.3,32.1,51.5,32.1,51.5z M26.3,47.6c0.1,0,0.2-0.1,0.5-0.2c0.2-0.1,0.4-0.2,0.7-0.3
		c0.2-0.1,0.4-0.2,0.6-0.4c0.2-0.1,0.3-0.2,0.2-0.2c0,0-0.1-0.1-0.1-0.3c-0.1-0.2-0.2-0.4-0.3-0.7c-0.1-0.3-0.3-0.6-0.4-0.9
		c-0.1-0.3-0.3-0.7-0.4-1.1c-0.1-0.3-0.2-0.6-0.3-1c-0.1-0.4-0.3-0.9-0.4-1.3c-0.1-0.4-0.3-1-0.5-1.6c0,0.4,0,0.8,0,1
		c0,0.3,0,0.5,0,0.7c0,0.2,0,0.4,0,0.4l0.1,0.6c0,0,0,0.2,0,0.4c0,0.2,0,0.5,0,0.9c0,0.3,0,0.7,0,1.1c0,0.4,0,0.8,0.1,1.2
		c0,0.4,0,0.7,0.1,1C26.2,47.2,26.2,47.4,26.3,47.6C26.2,47.6,26.3,47.6,26.3,47.6z"/>
	<path class="st0" d="M39.8,46.1c0,0.1,0,0.2,0,0.3c0,0.1-0.1,0.2-0.2,0.3c-0.1,0.1-0.1,0.2-0.2,0.2c-0.1,0.1-0.2,0.1-0.2,0.1
		c-0.2,0.1-0.6,0.1-1,0c-0.4,0-0.7-0.1-1-0.3c-0.3-0.2-0.6-0.4-0.8-0.7c-0.3-0.3-0.6-0.8-0.9-1.4c0,0.7-0.1,1.3-0.2,2
		c-0.1,0.7-0.3,1.3-0.6,1.9c0,0-0.1,0.1-0.1,0.1c-0.1,0-0.2,0-0.4-0.1c-0.1-0.1-0.2-0.2-0.2-0.3c0-0.1-0.1-0.3-0.2-0.7
		c-0.1-0.4-0.2-0.8-0.3-1.2C33.2,46,33.1,45.5,33,45c-0.1-0.5-0.2-0.8-0.3-1.1c0-0.1-0.1-0.3-0.1-0.6c0-0.2,0-0.5,0-0.6
		c0,0,0-0.1,0.1-0.2c0.1-0.1,0.2-0.2,0.3-0.2c0.1,0,0.2,0,0.2,0.2c0,0.1,0.1,0.3,0.1,0.4l0.7,3.4c0,0.1,0,0.2,0.1,0.3
		c0,0.1,0.1,0.2,0.2,0.3c0.1-0.4,0.1-0.8,0.2-1.3c0-0.5,0.1-1,0.1-1.4c0-0.5,0.1-0.8,0.2-1.2c0.1-0.3,0.2-0.5,0.3-0.5
		c0.1,0,0.3,0,0.4,0c0.1,0,0.2,0.1,0.3,0.3c0.2,0.4,0.3,0.8,0.4,1.1c0.1,0.3,0.2,0.6,0.3,0.8c0.1,0.2,0.3,0.5,0.4,0.7
		c0.2,0.2,0.4,0.4,0.6,0.5c0.2,0.1,0.5,0.2,0.8,0.3c0.3,0,0.5,0,0.7,0c0.1,0,0.2-0.1,0.3-0.1c0.1-0.1,0.2-0.1,0.2-0.1
		c0.1,0,0.1,0,0.2,0.1C39.7,46,39.8,46.1,39.8,46.1z"/>
	<path class="st0" d="M46.8,43.8c0,0.1,0,0.1-0.1,0.2c-0.1,0.1-0.1,0.2-0.1,0.2c0,0.2,0.1,0.3,0.2,0.4c0.1,0.1,0.2,0.3,0.2,0.5
		c0,0.2,0,0.3-0.1,0.3c-0.1,0-0.2,0.1-0.3,0.1c-0.1,0-0.2,0.1-0.3,0.2c-0.1,0-0.2,0-0.3-0.2c-0.1-0.1-0.1-0.1-0.2-0.2
		c0,0,0,0-0.1,0.1c-0.1,0.1-0.2,0.2-0.3,0.3c-0.2,0.1-0.4,0.3-0.7,0.4s-0.7,0.3-1.1,0.4c-0.4,0.1-0.8,0.1-1.1,0s-0.6-0.3-0.9-0.5
		c-0.3-0.2-0.5-0.5-0.6-0.9s-0.3-0.7-0.4-1.1c-0.1-0.3-0.1-0.7-0.1-1c0-0.3,0.1-0.6,0.2-0.9c0.1-0.3,0.2-0.5,0.4-0.7
		c0.2-0.2,0.4-0.3,0.7-0.4c0.3-0.1,0.6,0,0.9,0.1c0.3,0.1,0.6,0.2,0.9,0.4c0.3,0.2,0.6,0.4,0.9,0.6c-0.4-1.1-0.8-2.1-1.2-2.9
		c-0.2-0.4-0.3-0.7-0.4-1.1c-0.1-0.4-0.3-0.7-0.4-1c-0.1-0.3-0.2-0.5-0.3-0.7c-0.1-0.2-0.1-0.3-0.1-0.4c0-0.1-0.1-0.2-0.1-0.5
		c-0.1-0.2-0.1-0.4-0.2-0.7c-0.1-0.2-0.1-0.5-0.2-0.7c-0.1-0.2-0.1-0.3-0.1-0.4c-0.1-0.1-0.2-0.3-0.3-0.5c-0.1-0.2-0.2-0.3-0.2-0.3
		c0-0.1,0-0.2,0.1-0.3c0-0.1,0.1-0.2,0.2-0.2c0.1,0,0.2,0,0.2,0c0.1,0,0.1,0,0.2,0.1c0.1,0.1,0.1,0.2,0.2,0.3
		c0.1,0.1,0.2,0.3,0.3,0.6c0,0.1,0.1,0.4,0.3,0.8c0.2,0.4,0.3,0.8,0.5,1.3c0.2,0.5,0.3,0.9,0.5,1.3c0.2,0.4,0.3,0.7,0.4,0.9
		c0.2,0.5,0.4,1.1,0.7,1.7c0.3,0.6,0.5,1.2,0.8,1.8c0.3,0.6,0.5,1.1,0.7,1.5c0.2,0.4,0.4,0.7,0.5,0.8c0,0.1,0.1,0.1,0.2,0.1
		C46.7,43.7,46.8,43.7,46.8,43.8z M45.3,44.6c0,0-0.2-0.2-0.4-0.5c-0.2-0.3-0.5-0.6-0.8-0.9c-0.3-0.3-0.7-0.6-1.1-0.8
		c-0.4-0.2-0.7-0.3-1-0.3c-0.2,0.1-0.4,0.3-0.5,0.7c-0.1,0.4-0.1,0.9,0,1.3c0.1,0.5,0.4,0.9,0.8,1.2c0.4,0.3,0.8,0.4,1.2,0.3
		c0.3-0.1,0.7-0.2,1-0.4C45,44.9,45.2,44.7,45.3,44.6z"/>
	<path class="st0" d="M62.6,34.2c0.1,0,0.1,0,0.1,0.1c0,0.1,0,0.2-0.1,0.3c-0.1,0.1-0.1,0.3-0.1,0.4c0,0,0,0.1,0.1,0.3
		c0,0.2,0.1,0.4,0.1,0.6c0,0.2,0.1,0.4,0.1,0.6c0,0.2,0.1,0.3,0.1,0.3l0.5,2.1c0,0,0,0.1,0,0.3c0,0.2,0,0.4,0.1,0.7
		c0,0.3,0,0.5,0.1,0.8c0,0.3,0,0.5,0,0.7c0,0.1,0,0.1-0.1,0.2c-0.1,0-0.1,0.1-0.2,0.1c-0.1,0-0.1,0.1-0.2,0.1c-0.1,0-0.1,0-0.1,0
		c-0.2,0-0.3,0-0.6-0.2c-0.2-0.1-0.4-0.3-0.6-0.5c-0.2-0.2-0.4-0.4-0.5-0.6c-0.2-0.2-0.2-0.3-0.3-0.3c0,0.2,0,0.4-0.1,0.7
		c0,0.2-0.1,0.4-0.1,0.6c-0.1,0.2-0.1,0.4-0.2,0.5c-0.1,0.1-0.2,0.2-0.3,0.2c-0.2,0-0.4,0-0.6-0.1c-0.2-0.1-0.5-0.3-0.7-0.5
		c-0.3-0.2-0.5-0.5-0.7-0.8c-0.2-0.3-0.5-0.6-0.7-0.9c-0.2-0.3-0.4-0.6-0.5-0.8c-0.1-0.3-0.2-0.5-0.3-0.6c0-0.1,0-0.1,0-0.2
		c0-0.1,0.1-0.2,0.2-0.2c0.2,0,0.4,0,0.5,0.1c0,0,0.1,0.1,0.2,0.4c0.1,0.2,0.3,0.5,0.5,0.8c0.2,0.3,0.5,0.6,0.7,0.9
		c0.3,0.3,0.5,0.6,0.8,0.8c0.1-0.2,0.1-0.4,0.1-0.7c0-0.2,0-0.5,0-0.7c0-0.2,0-0.4,0-0.6c0-0.2,0-0.3-0.1-0.4
		c-0.1-0.1-0.1-0.2-0.1-0.3c0-0.1-0.1-0.2-0.1-0.3c0-0.1,0-0.2-0.1-0.3c-0.1-0.4,0-0.6,0.3-0.6c0.2,0,0.4,0,0.5,0.1
		c0.1,0.1,0.3,0.3,0.4,0.4c0.1,0.2,0.2,0.3,0.2,0.5c0.1,0.2,0.1,0.3,0.2,0.3c0.2,0.3,0.4,0.6,0.5,0.9c0.2,0.3,0.4,0.5,0.7,0.8
		c0-0.1,0.1-0.1,0.1-0.3c0-0.1,0-0.2,0-0.3c0-0.1,0-0.2,0-0.3c0-0.1,0-0.2,0-0.2l-0.9-4.3c0-0.1,0-0.2,0.1-0.3
		c0.1-0.1,0.1-0.2,0.2-0.2c0.1-0.1,0.2-0.1,0.3-0.2c0.1-0.1,0.2-0.1,0.2-0.1c0.1,0,0.1,0,0.2,0C62.4,34.1,62.5,34.1,62.6,34.2z"/>
	<path class="st0" d="M72.5,37.8c0.1,0.1,0.1,0.1,0.1,0.1c0,0,0,0.1-0.1,0.3c0,0.2-0.1,0.3-0.2,0.5c-0.1,0.2-0.2,0.4-0.3,0.5
		c-0.1,0.2-0.3,0.2-0.4,0.3c-0.3,0.1-0.6,0.1-0.8,0c-0.2-0.1-0.4-0.2-0.6-0.4c-0.2-0.2-0.3-0.3-0.4-0.6c-0.1-0.2-0.2-0.4-0.3-0.6
		c-0.1-0.1-0.1-0.1-0.1-0.1c0,0-0.1,0.2-0.2,0.5c-0.1,0.3-0.1,0.7-0.2,1.1c-0.1,0.4-0.1,0.8-0.2,1.1c-0.1,0.3-0.1,0.5-0.2,0.5
		c-0.3,0.1-0.5,0-0.7-0.2c-0.2-0.2-0.4-0.4-0.6-0.7c-0.2-0.3-0.3-0.6-0.4-0.9c-0.1-0.3-0.2-0.5-0.3-0.7c-0.1-0.4-0.4-1-0.7-1.9
		c-0.3-0.9-0.7-1.9-1.1-3.2c-0.1-0.3-0.2-0.5-0.3-0.7c-0.1-0.2-0.2-0.5-0.3-0.7c-0.1-0.3-0.2-0.6-0.3-0.9c-0.1-0.3-0.2-0.8-0.3-1.3
		c0,0,0-0.1,0-0.3c0-0.2,0-0.3,0-0.5c0-0.2,0-0.4,0-0.5c0-0.2,0.1-0.2,0.2-0.3c0.1,0,0.2,0,0.3,0.1c0.1,0.1,0.2,0.2,0.3,0.4
		c0.1,0.1,0.2,0.3,0.2,0.4c0.1,0.1,0.1,0.2,0.1,0.3c0,0.2,0.1,0.4,0.1,0.6c0,0.2,0,0.4,0.1,0.5c0,0.2,0.1,0.5,0.2,0.8
		c0.1,0.3,0.2,0.6,0.4,1c0.1,0.3,0.3,0.7,0.4,1c0.1,0.3,0.2,0.6,0.3,0.8c0,0,0,0.1,0.1,0.3c0.1,0.2,0.1,0.4,0.2,0.7
		c0.1,0.3,0.2,0.6,0.3,0.9c0.1,0.3,0.2,0.6,0.3,0.9c0.1,0.3,0.2,0.6,0.3,0.8c0.1,0.2,0.1,0.4,0.2,0.5c0,0,0,0.1,0.1,0.2
		c0,0.1,0.1,0.2,0.1,0.3c0,0.1,0.1,0.2,0.1,0.3s0.1,0.1,0.1,0.2c0-0.2,0.1-0.5,0.2-0.9c0.1-0.4,0.1-0.8,0.2-1.2
		c0.1-0.4,0.1-0.8,0.2-1.1c0.1-0.3,0.2-0.5,0.3-0.5c0.1,0,0.2,0,0.3,0c0.1,0,0.2,0,0.3,0c0.2,0,0.2,0.1,0.3,0.2
		c0,0.1,0.1,0.2,0.1,0.3c0.1,0.2,0.2,0.4,0.3,0.6c0.1,0.3,0.3,0.5,0.4,0.8c0.1,0.2,0.3,0.5,0.4,0.6c0.2,0.2,0.3,0.2,0.4,0.2
		c0.1,0,0.1-0.1,0.2-0.3c0.1-0.2,0.2-0.3,0.4-0.3c0,0,0.1,0,0.2,0C72.3,37.7,72.4,37.8,72.5,37.8z"/>
	<path class="st0" d="M84,34.9c0.1,0.3,0,0.6-0.2,1c-0.2,0.4-0.4,0.9-0.7,1.3c-0.3,0.4-0.7,0.8-1.2,1.2c-0.5,0.4-1,0.6-1.6,0.7
		c-0.3,0.1-0.5,0.1-0.8,0c-0.3,0-0.6-0.1-0.9-0.2c-0.3-0.1-0.6-0.3-0.9-0.4c-0.3-0.2-0.5-0.4-0.6-0.7c-0.1,0.1-0.1,0.3-0.2,0.5
		c-0.1,0.2-0.2,0.5-0.3,0.7c-0.1,0.2-0.2,0.5-0.4,0.6c-0.1,0.2-0.3,0.3-0.5,0.3c-0.2,0-0.4,0-0.5-0.2c-0.2-0.2-0.3-0.4-0.4-0.6
		c-0.1-0.2-0.2-0.4-0.3-0.6c-0.1-0.2-0.1-0.3-0.1-0.4c0-0.2-0.1-0.5-0.1-1c0-0.5,0-1,0.1-1.6c0.1-0.6,0.2-1.1,0.5-1.5
		c0.2-0.5,0.5-0.7,1-0.8c0.2,0,0.3,0,0.4,0.1c0.1,0.1,0.1,0.3,0.2,0.4l0.1,0.6c0.1,0,0.2,0.1,0.3,0.1c0.1,0,0.2,0,0.2,0
		c0.1,0,0.1,0.1,0.2,0.1c0.1,0.1,0.1,0.2,0.1,0.3c0,0.1,0,0.2,0,0.3c0,0.1,0,0.2,0,0.2c0.1,0.4,0.2,0.7,0.3,1.1
		c0.1,0.3,0.3,0.6,0.5,0.9c0.2,0.2,0.5,0.4,0.9,0.5c0.3,0.1,0.8,0.1,1.3,0c0.6-0.1,1.1-0.4,1.5-0.7c0.4-0.4,0.7-0.7,0.9-1.1
		c0.2-0.4,0.4-0.7,0.5-1c0.1-0.3,0.2-0.5,0.3-0.5C83.8,34.6,84,34.7,84,34.9z M76.2,35.5c0-0.1,0-0.1-0.1-0.2c0,0-0.1-0.1-0.1-0.1
		c0-0.1,0-0.1,0-0.2c0,0,0-0.1,0-0.2c0,0,0-0.1-0.1-0.1c0,0-0.1,0-0.1-0.1c-0.1,0.1-0.2,0.2-0.3,0.5c-0.1,0.2-0.2,0.5-0.2,0.8
		c-0.1,0.3-0.1,0.6-0.1,0.9c0,0.3,0,0.6,0,0.7c0,0.1,0.1,0.3,0.2,0.5c0.1,0.2,0.2,0.4,0.3,0.4c0.1-0.6,0.3-1.1,0.4-1.6
		C76.3,36.5,76.3,36,76.2,35.5z"/>
	<path class="st0" d="M88.8,28.4c-0.1,0.3-0.4,0.5-0.7,0.8c-0.3,0.3-0.6,0.5-0.9,0.8c-0.3,0.2-0.6,0.5-0.8,0.6
		c-0.2,0.2-0.3,0.3-0.3,0.3c0,0,0.1,0.2,0.2,0.4c0.1,0.2,0.2,0.4,0.4,0.7c0.1,0.3,0.3,0.6,0.4,0.9c0.2,0.3,0.3,0.6,0.4,0.8
		c0.1,0.1,0.1,0.3,0.2,0.5s0.2,0.4,0.3,0.7c0.1,0.2,0.2,0.4,0.2,0.6c0.1,0.2,0.1,0.3,0.1,0.3c0,0.2,0.1,0.4,0,0.7
		c0,0.2-0.1,0.4-0.3,0.4c-0.1,0-0.2,0-0.3-0.1c-0.1-0.1-0.2-0.1-0.2-0.2c-0.1-0.1-0.1-0.2-0.2-0.2c0-0.1-0.1-0.1-0.1-0.2
		c0,0,0-0.1,0-0.1c0-0.1,0-0.1,0-0.2c-0.1-0.3-0.2-0.7-0.4-1.2c-0.1-0.2-0.2-0.4-0.3-0.7c-0.2-0.3-0.3-0.6-0.5-1
		c-0.2-0.4-0.4-0.8-0.6-1.2c-0.1-0.2-0.2-0.3-0.2-0.3c-0.1,0-0.3,0.1-0.5,0.3c-0.2,0.2-0.4,0.4-0.7,0.6c-0.3,0.2-0.5,0.5-0.8,0.8
		c-0.3,0.3-0.6,0.5-0.8,0.8c-0.2,0.2-0.5,0.4-0.6,0.6c-0.2,0.2-0.3,0.3-0.3,0.3c-0.2,0-0.4,0-0.5-0.1c-0.1-0.1-0.2-0.2-0.3-0.4
		c0-0.1,0.1-0.2,0.3-0.5c0.2-0.2,0.5-0.5,0.8-0.7c0.3-0.3,0.6-0.6,1-0.9c0.4-0.3,0.7-0.6,1-0.8c0.3-0.2,0.7-0.5,1.1-0.9
		c-0.3-0.6-0.5-1.2-0.7-1.7c-0.2-0.4-0.3-0.8-0.5-1.2c-0.1-0.4-0.2-0.6-0.2-0.6c0-0.2,0-0.3,0-0.4c0.1-0.1,0.1-0.2,0.2-0.2
		c0.2,0,0.3,0.1,0.4,0.3c0.3,0.7,0.6,1.4,0.9,2c0.3,0.6,0.5,1,0.7,1.4c0.1-0.1,0.3-0.2,0.6-0.4c0.3-0.2,0.6-0.4,0.9-0.7
		s0.6-0.4,0.8-0.6c0.3-0.2,0.4-0.3,0.4-0.3c0.1,0,0.1,0,0.2,0.1C88.8,28.3,88.8,28.3,88.8,28.4z"/>
	<path class="st0" d="M106.3,31.2c0,0.1,0,0.1-0.1,0.2c-0.1,0.1-0.1,0.2-0.1,0.2c0,0.2,0.1,0.3,0.2,0.4c0.1,0.1,0.2,0.3,0.2,0.5
		c0,0.2,0,0.3-0.1,0.3c-0.1,0-0.2,0.1-0.3,0.1s-0.2,0.1-0.3,0.2c-0.1,0-0.2,0-0.3-0.2c-0.1-0.1-0.1-0.1-0.2-0.2c0,0,0,0-0.1,0.1
		c-0.1,0.1-0.2,0.2-0.3,0.3c-0.2,0.1-0.4,0.3-0.7,0.4c-0.3,0.1-0.7,0.3-1.1,0.4c-0.4,0.1-0.8,0.1-1.1,0s-0.6-0.3-0.9-0.5
		c-0.3-0.2-0.5-0.5-0.6-0.9c-0.2-0.3-0.3-0.7-0.4-1.1c-0.1-0.3-0.1-0.7-0.1-1c0-0.3,0.1-0.6,0.2-0.9c0.1-0.3,0.2-0.5,0.4-0.7
		c0.2-0.2,0.4-0.3,0.7-0.4c0.3-0.1,0.6,0,0.9,0.1c0.3,0.1,0.6,0.2,0.9,0.4c0.3,0.2,0.6,0.4,0.9,0.6c-0.4-1.1-0.8-2.1-1.2-2.9
		c-0.2-0.4-0.3-0.7-0.4-1.1c-0.1-0.4-0.3-0.7-0.4-1c-0.1-0.3-0.2-0.5-0.3-0.7c-0.1-0.2-0.1-0.3-0.1-0.4c0-0.1-0.1-0.2-0.1-0.5
		c-0.1-0.2-0.1-0.4-0.2-0.7c-0.1-0.2-0.1-0.5-0.2-0.7c-0.1-0.2-0.1-0.3-0.1-0.4c-0.1-0.1-0.2-0.3-0.3-0.5c-0.1-0.2-0.2-0.3-0.2-0.3
		c0-0.1,0-0.2,0.1-0.3c0-0.1,0.1-0.2,0.2-0.2c0.1,0,0.2,0,0.2,0c0.1,0,0.1,0,0.2,0.1c0.1,0.1,0.1,0.2,0.2,0.3
		c0.1,0.1,0.2,0.3,0.3,0.6c0,0.1,0.1,0.4,0.3,0.8c0.2,0.4,0.3,0.8,0.5,1.3c0.2,0.5,0.3,0.9,0.5,1.3c0.2,0.4,0.3,0.7,0.4,0.9
		c0.2,0.5,0.4,1.1,0.7,1.7c0.3,0.6,0.5,1.2,0.8,1.8c0.3,0.6,0.5,1.1,0.7,1.5c0.2,0.4,0.4,0.7,0.5,0.8c0,0.1,0.1,0.1,0.2,0.1
		C106.2,31.1,106.3,31.1,106.3,31.2z M104.8,32c0,0-0.2-0.2-0.4-0.5c-0.2-0.3-0.5-0.6-0.8-0.9c-0.3-0.3-0.7-0.6-1.1-0.8
		c-0.4-0.2-0.7-0.3-1-0.3c-0.2,0.1-0.4,0.3-0.5,0.7c-0.1,0.4-0.1,0.9,0,1.3c0.1,0.5,0.4,0.9,0.8,1.2c0.4,0.3,0.8,0.4,1.2,0.3
		c0.3-0.1,0.7-0.2,1-0.4C104.5,32.3,104.7,32.2,104.8,32z"/>
	<path class="st0" d="M111.6,28.8c0.1,0.3,0.1,0.6,0.1,0.9c0,0.3-0.1,0.6-0.2,0.8c-0.1,0.2-0.2,0.5-0.4,0.6
		c-0.2,0.2-0.4,0.3-0.6,0.3c-0.4,0.1-0.7,0-1-0.1c-0.3-0.2-0.5-0.4-0.7-0.7c-0.2-0.3-0.3-0.6-0.4-0.9c-0.1-0.3-0.2-0.5-0.2-0.7
		c-0.1-0.3-0.1-0.6-0.1-0.9c0-0.3,0.1-0.7,0.1-1c0.1-0.3,0.2-0.6,0.3-0.8c0.1-0.2,0.3-0.4,0.5-0.4c0,0,0.1,0,0.2,0
		c0.1,0,0.2,0,0.3,0.1c0.1,0,0.2,0.1,0.3,0.2c0.1,0.1,0.2,0.2,0.2,0.3c0.2,0,0.3,0,0.5,0.1c0.2,0.1,0.3,0.1,0.3,0.2
		c0.2,0.3,0.3,0.7,0.5,1.1C111.5,28.3,111.5,28.6,111.6,28.8z M110.5,28.7c0-0.2-0.1-0.4-0.2-0.7c-0.1-0.2-0.2-0.4-0.4-0.7
		c0,0-0.1,0-0.1,0c-0.1,0-0.1,0-0.1,0c0,0-0.1,0-0.1,0c-0.2,0-0.3,0.1-0.4,0.2c-0.1,0.1-0.1,0.3-0.1,0.4c0,0.2,0,0.3,0,0.5
		c0,0.2,0,0.3,0.1,0.5c0,0.2,0.1,0.3,0.1,0.5c0.1,0.2,0.1,0.4,0.2,0.5c0.1,0.2,0.2,0.3,0.3,0.4c0.1,0.1,0.2,0.1,0.4,0.1
		s0.2-0.1,0.3-0.3s0.1-0.4,0.1-0.6c0-0.2,0-0.4,0-0.6C110.6,28.9,110.6,28.7,110.5,28.7z"/>
	<path class="st0" d="M120.3,29.5c0,0,0,0.1,0,0.1c0,0.1,0,0.2-0.1,0.4c0,0.1-0.1,0.2-0.2,0.3c-0.1,0.2-0.3,0.3-0.5,0.5
		c-0.2,0.2-0.5,0.4-0.8,0.5c-0.3,0.2-0.7,0.3-1.2,0.4c-0.3,0.1-0.7,0.1-1,0c-0.3-0.1-0.7-0.2-1-0.5c-0.3-0.2-0.6-0.6-0.8-1
		s-0.4-0.9-0.6-1.5c-0.1-0.6-0.2-1.1-0.1-1.6c0-0.5,0.1-1,0.3-1.4c0.1-0.4,0.3-0.8,0.6-1c0.2-0.3,0.5-0.4,0.7-0.5
		c0.2,0,0.5-0.1,0.7,0c0.3,0,0.5,0.1,0.7,0.2c0.2,0.1,0.4,0.2,0.6,0.4c0.2,0.2,0.2,0.3,0.3,0.5c0,0.2,0,0.5-0.1,0.7
		c-0.1,0.3-0.3,0.5-0.6,0.8c-0.2,0.3-0.5,0.5-0.7,0.6c-0.2,0.2-0.4,0.3-0.6,0.3c-0.1,0-0.2,0-0.3-0.1c-0.1-0.1-0.1-0.2-0.2-0.3
		c0-0.2,0-0.4,0.2-0.5c0.2-0.2,0.3-0.3,0.5-0.4c0.2-0.1,0.4-0.3,0.5-0.5c0.2-0.2,0.2-0.4,0.2-0.6c0,0-0.1-0.1-0.2-0.2
		c-0.1-0.1-0.3-0.1-0.6,0c-0.1,0-0.3,0.1-0.4,0.4c-0.2,0.2-0.3,0.5-0.4,0.8c-0.1,0.3-0.2,0.7-0.2,1.1c0,0.4,0,0.8,0.1,1.3
		c0.1,0.4,0.2,0.7,0.4,1c0.2,0.3,0.4,0.5,0.7,0.7c0.3,0.2,0.5,0.3,0.9,0.3c0.3,0.1,0.6,0,0.9,0c0.2,0,0.4-0.1,0.7-0.3
		c0.2-0.1,0.4-0.3,0.6-0.5c0.2-0.2,0.4-0.3,0.5-0.4c0.1-0.1,0.2-0.2,0.3-0.2c0,0,0.1,0,0.2,0C120.2,29.4,120.2,29.5,120.3,29.5z"/>
	<path class="st0" d="M126.5,27.6c0.1,0.2,0,0.5-0.1,0.7c-0.1,0.2-0.3,0.4-0.5,0.6c-0.2,0.2-0.5,0.3-0.8,0.5
		c-0.3,0.1-0.6,0.2-0.8,0.3s-0.5,0.2-0.7,0.2c-0.2,0.1-0.3,0.1-0.4,0.1c-0.3,0.1-0.6,0.1-0.8,0c-0.2-0.1-0.3-0.2-0.4-0.5
		c0-0.1,0-0.2,0-0.2c0-0.1,0.1-0.1,0.2-0.1c0,0,0.1,0,0.2,0c0.1,0,0.2,0,0.2,0c0.1,0,0.2-0.1,0.5-0.1c0.3-0.1,0.6-0.2,1-0.3
		c0.3-0.1,0.6-0.3,0.9-0.4s0.4-0.3,0.3-0.5c0,0-0.2-0.1-0.5-0.2c-0.3-0.1-0.8-0.2-1.5-0.5c-0.5-0.2-0.9-0.4-1.2-0.7
		s-0.4-0.6-0.5-1.1c-0.1-0.3-0.1-0.6,0-0.8c0.1-0.2,0.2-0.4,0.5-0.6c0.2-0.2,0.5-0.3,0.8-0.4c0.3-0.1,0.6-0.2,1-0.3c0,0,0.1,0,0.3,0
		c0.2,0,0.3,0,0.5,0c0.2,0,0.4,0.1,0.5,0.1c0.2,0.1,0.2,0.2,0.3,0.3c0,0,0,0.1,0,0.1c0,0.1-0.1,0.2-0.2,0.4c0,0-0.1,0-0.2,0
		c-0.1,0-0.2,0-0.4,0c-0.1,0-0.3,0-0.4,0c-0.1,0-0.3,0-0.4,0c-0.4,0.1-0.7,0.2-0.9,0.4c-0.2,0.2-0.3,0.5-0.2,0.9
		c0,0.2,0.2,0.3,0.3,0.5c0.2,0.1,0.4,0.2,0.7,0.3c0.3,0.1,0.5,0.2,0.8,0.3c0.3,0.1,0.6,0.2,0.8,0.3c0.3,0.1,0.5,0.2,0.7,0.4
		C126.3,27.2,126.5,27.3,126.5,27.6z"/>
	<path class="st0" d="M137,18c0,0,0,0.1-0.1,0.2c-0.1,0.1-0.2,0.2-0.3,0.3c-0.1,0.1-0.2,0.2-0.4,0.3c-0.1,0.1-0.2,0.2-0.3,0.2
		c-0.1,0-0.1,0-0.2,0c-0.1,0-0.2,0-0.3,0c-0.1,0-0.2-0.1-0.3-0.1c-0.1-0.1-0.1-0.2-0.2-0.3c0-0.2,0-0.4,0.1-0.6
		c0.1-0.2,0.3-0.3,0.5-0.4c0,0,0.1,0,0.3,0c0.2,0,0.3,0,0.5,0c0.2,0,0.3,0.1,0.5,0.1C136.9,17.8,137,17.9,137,18z M139.5,25.9
		c0,0.1,0,0.2-0.2,0.3c-0.1,0.1-0.2,0.2-0.3,0.2c-0.1,0-0.3,0-0.4-0.2c-0.2-0.2-0.3-0.4-0.4-0.6c-0.1-0.2-0.3-0.4-0.4-0.7
		c-0.1-0.2-0.2-0.4-0.2-0.4c-0.1-0.1-0.2-0.3-0.3-0.5c-0.1-0.2-0.2-0.4-0.3-0.5c-0.1-0.2-0.2-0.3-0.3-0.5c-0.1-0.1-0.1-0.2-0.1-0.2
		c0-0.2,0-0.4,0-0.6c0-0.2,0.1-0.3,0.2-0.3c0.1,0,0.3,0,0.5,0.2c0.2,0.2,0.4,0.4,0.6,0.7c0.2,0.3,0.4,0.6,0.6,0.9
		c0.2,0.3,0.4,0.7,0.5,1c0.2,0.3,0.3,0.6,0.4,0.8C139.4,25.7,139.4,25.8,139.5,25.9z"/>
	<path class="st0" d="M144.9,16.5c-0.1,0.3-0.4,0.5-0.7,0.8c-0.3,0.3-0.6,0.5-0.9,0.8c-0.3,0.2-0.6,0.5-0.8,0.6
		c-0.2,0.2-0.3,0.3-0.3,0.3c0,0,0.1,0.2,0.2,0.4c0.1,0.2,0.2,0.4,0.4,0.7c0.1,0.3,0.3,0.6,0.4,0.9c0.2,0.3,0.3,0.6,0.4,0.8
		c0.1,0.1,0.1,0.3,0.2,0.5c0.1,0.2,0.2,0.4,0.3,0.7c0.1,0.2,0.2,0.4,0.2,0.6c0.1,0.2,0.1,0.3,0.1,0.3c0,0.2,0.1,0.4,0,0.7
		c0,0.2-0.1,0.4-0.3,0.4c-0.1,0-0.2,0-0.3-0.1c-0.1-0.1-0.2-0.1-0.2-0.2c-0.1-0.1-0.1-0.2-0.2-0.2s-0.1-0.1-0.1-0.2c0,0,0-0.1,0-0.1
		c0-0.1,0-0.1,0-0.2c-0.1-0.3-0.2-0.7-0.4-1.2c-0.1-0.2-0.2-0.4-0.3-0.7c-0.2-0.3-0.3-0.6-0.5-1c-0.2-0.4-0.4-0.8-0.6-1.2
		c-0.1-0.2-0.2-0.3-0.2-0.3c-0.1,0-0.3,0.1-0.5,0.3c-0.2,0.2-0.4,0.4-0.7,0.6c-0.3,0.2-0.5,0.5-0.8,0.8c-0.3,0.3-0.6,0.5-0.8,0.8
		c-0.2,0.2-0.5,0.4-0.6,0.6c-0.2,0.2-0.3,0.3-0.3,0.3c-0.2,0-0.4,0-0.5-0.1c-0.1-0.1-0.2-0.2-0.3-0.4c0-0.1,0.1-0.2,0.3-0.5
		c0.2-0.2,0.5-0.5,0.8-0.7c0.3-0.3,0.6-0.6,1-0.9c0.4-0.3,0.7-0.6,1-0.8c0.3-0.2,0.7-0.5,1.1-0.9c-0.3-0.6-0.5-1.2-0.7-1.7
		c-0.2-0.4-0.3-0.8-0.5-1.2c-0.1-0.4-0.2-0.6-0.2-0.6c0-0.2,0-0.3,0-0.4c0.1-0.1,0.1-0.2,0.2-0.2c0.2,0,0.3,0.1,0.4,0.3
		c0.3,0.7,0.6,1.4,0.9,2c0.3,0.6,0.5,1,0.7,1.4c0.1-0.1,0.3-0.2,0.6-0.4c0.3-0.2,0.6-0.4,0.9-0.7c0.3-0.2,0.6-0.4,0.8-0.6
		c0.3-0.2,0.4-0.3,0.4-0.3c0.1,0,0.1,0,0.2,0.1C144.8,16.4,144.8,16.5,144.9,16.5z"/>
	<path class="st0" d="M166.3,17.5c0.1,0.3,0,0.6-0.2,1c-0.2,0.4-0.4,0.9-0.7,1.3c-0.3,0.4-0.7,0.8-1.2,1.2c-0.5,0.4-1,0.6-1.6,0.7
		c-0.3,0.1-0.5,0.1-0.8,0c-0.3,0-0.6-0.1-0.9-0.2c-0.3-0.1-0.6-0.3-0.9-0.4c-0.3-0.2-0.5-0.4-0.6-0.7c-0.1,0.1-0.1,0.3-0.2,0.5
		c-0.1,0.2-0.2,0.5-0.3,0.7c-0.1,0.2-0.2,0.5-0.4,0.6c-0.1,0.2-0.3,0.3-0.5,0.3c-0.2,0-0.4,0-0.5-0.2c-0.2-0.2-0.3-0.4-0.4-0.6
		c-0.1-0.2-0.2-0.4-0.3-0.6c-0.1-0.2-0.1-0.3-0.1-0.4c0-0.2-0.1-0.5-0.1-1c0-0.5,0-1,0.1-1.6c0.1-0.6,0.2-1.1,0.5-1.5
		c0.2-0.5,0.5-0.7,1-0.8c0.2,0,0.3,0,0.4,0.1c0.1,0.1,0.1,0.3,0.2,0.4l0.1,0.6c0.1,0,0.2,0.1,0.3,0.1c0.1,0,0.2,0,0.2,0
		c0.1,0,0.1,0.1,0.2,0.1c0.1,0.1,0.1,0.2,0.1,0.3c0,0.1,0,0.2,0,0.3c0,0.1,0,0.2,0,0.2c0.1,0.4,0.2,0.7,0.3,1.1
		c0.1,0.3,0.3,0.6,0.5,0.9c0.2,0.2,0.5,0.4,0.9,0.5c0.3,0.1,0.8,0.1,1.3,0c0.6-0.1,1.1-0.4,1.5-0.7s0.7-0.7,0.9-1.1
		c0.2-0.4,0.4-0.7,0.5-1c0.1-0.3,0.2-0.5,0.3-0.5C166.1,17.2,166.2,17.3,166.3,17.5z M158.5,18.1c0-0.1,0-0.1-0.1-0.2
		c0,0-0.1-0.1-0.1-0.1c0-0.1,0-0.1,0-0.2c0,0,0-0.1,0-0.2c0,0,0-0.1-0.1-0.1c0,0-0.1,0-0.1-0.1c-0.1,0.1-0.2,0.2-0.3,0.5
		c-0.1,0.2-0.2,0.5-0.2,0.8s-0.1,0.6-0.1,0.9c0,0.3,0,0.6,0,0.7c0,0.1,0.1,0.3,0.2,0.5c0.1,0.2,0.2,0.4,0.3,0.4
		c0.1-0.6,0.3-1.1,0.4-1.6C158.6,19.1,158.6,18.6,158.5,18.1z"/>
	<path class="st0" d="M170.1,20.9c-0.1,0.1-0.2,0.1-0.3,0.1c-0.1,0-0.3-0.1-0.5-0.3c-0.2-0.2-0.4-0.5-0.6-0.8
		c-0.2-0.3-0.4-0.7-0.6-1.1c-0.2-0.4-0.4-0.8-0.6-1.2c-0.2-0.4-0.3-0.7-0.4-0.9c-0.1-0.2-0.2-0.4-0.2-0.4c0-0.1-0.1-0.2-0.2-0.4
		s-0.2-0.6-0.4-1.1c-0.2-0.5-0.4-1.2-0.7-2c-0.3-0.8-0.6-1.8-0.9-3c0-0.1,0-0.3,0-0.5c0-0.2,0.1-0.3,0.2-0.4c0.2,0,0.4,0.1,0.5,0.3
		c0.2,0.2,0.3,0.6,0.5,1c0.1,0.4,0.3,0.8,0.4,1.2c0.1,0.4,0.2,0.8,0.4,1.1c0.2,0.4,0.3,0.9,0.4,1.2c0.1,0.4,0.3,0.7,0.4,1.1
		c0.1,0.4,0.3,0.7,0.4,1.1c0.2,0.4,0.4,0.8,0.6,1.3l1.6,3.4C170.2,20.8,170.2,20.9,170.1,20.9z"/>
	<path class="st0" d="M174.7,20c-0.1,0.1-0.2,0.1-0.3,0.1c-0.1,0-0.3-0.1-0.5-0.3c-0.2-0.2-0.4-0.5-0.6-0.8
		c-0.2-0.3-0.4-0.7-0.6-1.1c-0.2-0.4-0.4-0.8-0.6-1.2c-0.2-0.4-0.3-0.7-0.4-0.9c-0.1-0.2-0.2-0.4-0.2-0.4c0-0.1-0.1-0.2-0.2-0.4
		s-0.2-0.6-0.4-1.1c-0.2-0.5-0.4-1.2-0.7-2c-0.3-0.8-0.6-1.8-0.9-3c0-0.1,0-0.3,0-0.5c0-0.2,0.1-0.3,0.2-0.4c0.2,0,0.4,0.1,0.5,0.3
		c0.2,0.2,0.3,0.6,0.5,1c0.1,0.4,0.3,0.8,0.4,1.2c0.1,0.4,0.2,0.8,0.4,1.1c0.2,0.4,0.3,0.9,0.4,1.2c0.1,0.4,0.3,0.7,0.4,1.1
		c0.1,0.4,0.3,0.7,0.4,1.1c0.2,0.4,0.4,0.8,0.6,1.3l1.6,3.4C174.8,19.8,174.7,19.9,174.7,20z"/>
	<path class="st0" d="M194.6,14c0,0.1,0,0.2,0,0.3c-0.1,0.1-0.1,0.2-0.2,0.3c-0.1,0.1-0.2,0.1-0.3,0.2c-0.1,0.1-0.2,0.1-0.3,0.1
		c-0.3,0.1-0.6,0-0.9-0.3c-0.3-0.3-0.5-0.6-0.8-1c-0.2-0.4-0.4-0.7-0.5-1c-0.1-0.3-0.2-0.5-0.2-0.5c-0.1,0.2-0.1,0.5-0.1,0.9
		c0,0.4,0,0.8-0.1,1.2c0,0.4-0.1,0.8-0.3,1.1c-0.1,0.3-0.3,0.5-0.6,0.6c-0.1,0-0.3,0-0.5-0.2c-0.2-0.1-0.3-0.3-0.5-0.6
		c-0.2-0.2-0.3-0.5-0.5-0.9s-0.4-0.6-0.5-0.9c-0.2-0.3-0.3-0.6-0.5-0.9c-0.2-0.3-0.3-0.5-0.4-0.6c0,0.2-0.1,0.5,0,0.9
		c0,0.4,0,0.8,0.1,1.2c0,0.4,0.1,0.8,0.1,1.2c0.1,0.4,0.1,0.8,0.2,1.1c0,0.2,0,0.4-0.1,0.5c-0.1,0.1-0.2,0.2-0.3,0.2
		c-0.2,0-0.3,0-0.5-0.2s-0.4-0.4-0.6-0.7c-0.2-0.3-0.5-0.6-0.7-1c-0.2-0.4-0.4-0.8-0.6-1.2c-0.2-0.4-0.4-0.8-0.5-1.1
		c-0.1-0.4-0.2-0.7-0.3-0.9c0-0.2-0.1-0.4-0.1-0.5c0-0.1,0-0.3,0-0.4c0-0.1,0-0.2,0-0.2c0,0,0-0.1-0.1-0.1c0,0,0,0-0.1-0.1
		c0,0,0-0.1,0.1-0.2c0.1-0.1,0.2-0.2,0.3-0.2c0.2,0,0.3,0,0.4,0c0.1,0.1,0.1,0.2,0.2,0.3c0,0,0,0.1,0,0.2c0,0.1,0,0.3,0.1,0.6
		c0,0.2,0.1,0.5,0.3,0.9c0.2,0.4,0.3,0.8,0.5,1.2c0.2,0.4,0.4,0.8,0.6,1.1s0.3,0.5,0.4,0.6c0-0.1,0-0.1,0-0.2c0-0.1,0-0.1,0-0.2
		l-0.1-1.8c0-0.5,0-1,0.1-1.5c0.1-0.5,0.2-1,0.3-1.3c0-0.1,0.1-0.2,0.2-0.2s0.2,0,0.3,0.1c0.3,0.4,0.6,0.7,0.8,1.1
		c0.2,0.4,0.4,0.7,0.6,1.1c0.2,0.4,0.4,0.7,0.6,1.1c0.2,0.4,0.5,0.7,0.8,1c0.1-0.2,0.2-0.5,0.2-1c0.1-0.5,0.2-0.9,0.3-1.4
		c0.1-0.5,0.2-0.9,0.3-1.2c0.1-0.4,0.2-0.5,0.3-0.6c0,0,0.1,0,0.2,0c0.1,0,0.2,0,0.2,0c0.1,0,0.3,0.1,0.4,0.4c0.1,0.3,0.3,0.6,0.4,1
		c0.1,0.4,0.3,0.8,0.4,1.1c0.1,0.4,0.3,0.7,0.4,0.8c0.1,0.1,0.2,0.2,0.3,0.4c0.1,0.1,0.3,0.2,0.4,0.3
		C194.2,13.8,194.4,13.9,194.6,14z"/>
	<path class="st0" d="M202.2,12.2c0,0,0,0.1,0,0.1c0,0.1,0,0.2-0.1,0.4c0,0.1-0.1,0.2-0.2,0.3c-0.1,0.2-0.3,0.3-0.5,0.5
		c-0.2,0.2-0.5,0.4-0.8,0.5c-0.3,0.2-0.7,0.3-1.2,0.4c-0.3,0.1-0.7,0.1-1,0c-0.3-0.1-0.7-0.2-1-0.5c-0.3-0.2-0.6-0.6-0.8-1
		c-0.3-0.4-0.4-0.9-0.6-1.5c-0.1-0.6-0.2-1.1-0.1-1.6c0-0.5,0.1-1,0.3-1.4s0.3-0.8,0.6-1c0.2-0.3,0.5-0.4,0.7-0.5
		c0.2,0,0.5-0.1,0.7,0c0.3,0,0.5,0.1,0.7,0.2c0.2,0.1,0.4,0.2,0.6,0.4c0.2,0.2,0.2,0.3,0.3,0.5c0,0.2,0,0.5-0.1,0.7
		c-0.1,0.3-0.3,0.5-0.6,0.8c-0.2,0.3-0.5,0.5-0.7,0.6c-0.2,0.2-0.4,0.3-0.6,0.3c-0.1,0-0.2,0-0.3-0.1c-0.1-0.1-0.1-0.2-0.2-0.3
		c0-0.2,0-0.4,0.2-0.5c0.2-0.2,0.3-0.3,0.5-0.4c0.2-0.1,0.4-0.3,0.5-0.5c0.2-0.2,0.2-0.4,0.2-0.6c0,0-0.1-0.1-0.2-0.2
		c-0.1-0.1-0.3-0.1-0.6,0c-0.1,0-0.3,0.1-0.4,0.4c-0.2,0.2-0.3,0.5-0.4,0.8c-0.1,0.3-0.2,0.7-0.2,1.1c0,0.4,0,0.8,0.1,1.3
		c0.1,0.4,0.2,0.7,0.4,1c0.2,0.3,0.4,0.5,0.7,0.7c0.3,0.2,0.5,0.3,0.9,0.3c0.3,0.1,0.6,0,0.9,0c0.2,0,0.4-0.1,0.7-0.3
		c0.2-0.1,0.4-0.3,0.6-0.5c0.2-0.2,0.4-0.3,0.5-0.4c0.1-0.1,0.2-0.2,0.3-0.2c0,0,0.1,0,0.2,0C202.2,12.1,202.2,12.1,202.2,12.2z"/>
	<path class="st0" d="M213.5,7.5c0.1,0.3,0,0.6-0.2,1c-0.2,0.4-0.4,0.9-0.7,1.3c-0.3,0.4-0.7,0.8-1.2,1.2c-0.5,0.4-1,0.6-1.6,0.7
		c-0.3,0.1-0.5,0.1-0.8,0c-0.3,0-0.6-0.1-0.9-0.2c-0.3-0.1-0.6-0.3-0.9-0.4c-0.3-0.2-0.5-0.4-0.6-0.7c-0.1,0.1-0.1,0.3-0.2,0.5
		c-0.1,0.2-0.2,0.5-0.3,0.7c-0.1,0.2-0.2,0.5-0.4,0.6c-0.1,0.2-0.3,0.3-0.5,0.3c-0.2,0-0.4,0-0.5-0.2c-0.2-0.2-0.3-0.4-0.4-0.6
		c-0.1-0.2-0.2-0.4-0.3-0.6c-0.1-0.2-0.1-0.3-0.1-0.4c0-0.2-0.1-0.5-0.1-1c0-0.5,0-1,0.1-1.6c0.1-0.6,0.2-1.1,0.5-1.5
		c0.2-0.5,0.5-0.7,1-0.8c0.2,0,0.3,0,0.4,0.1c0.1,0.1,0.1,0.3,0.2,0.4l0.1,0.6c0.1,0,0.2,0.1,0.3,0.1c0.1,0,0.2,0,0.2,0
		c0.1,0,0.1,0.1,0.2,0.1c0.1,0.1,0.1,0.2,0.1,0.3c0,0.1,0,0.2,0,0.3c0,0.1,0,0.2,0,0.2c0.1,0.4,0.2,0.7,0.3,1.1
		c0.1,0.3,0.3,0.6,0.5,0.9c0.2,0.2,0.5,0.4,0.9,0.5c0.3,0.1,0.8,0.1,1.3,0c0.6-0.1,1.1-0.4,1.5-0.7c0.4-0.4,0.7-0.7,0.9-1.1
		c0.2-0.4,0.4-0.7,0.5-1c0.1-0.3,0.2-0.5,0.3-0.5C213.4,7.2,213.5,7.3,213.5,7.5z M205.8,8.1c0-0.1,0-0.1-0.1-0.2
		c0,0-0.1-0.1-0.1-0.1c0-0.1,0-0.1,0-0.2c0,0,0-0.1,0-0.2c0,0,0-0.1-0.1-0.1c0,0-0.1,0-0.1-0.1c-0.1,0.1-0.2,0.2-0.3,0.5
		C205.1,8,205,8.3,205,8.6c-0.1,0.3-0.1,0.6-0.1,0.9c0,0.3,0,0.6,0,0.7c0,0.1,0.1,0.3,0.2,0.5c0.1,0.2,0.2,0.4,0.3,0.4
		c0.1-0.6,0.3-1.1,0.4-1.6C205.9,9.1,205.9,8.6,205.8,8.1z"/>
	<path class="st0" d="M220.6,7.9c0,0.1,0,0.2,0,0.3c0,0.1-0.1,0.2-0.2,0.3c-0.1,0.1-0.1,0.2-0.2,0.2c-0.1,0.1-0.2,0.1-0.2,0.1
		c-0.2,0.1-0.6,0.1-1,0c-0.4,0-0.7-0.1-1-0.3c-0.3-0.2-0.6-0.4-0.8-0.7c-0.3-0.3-0.6-0.8-0.9-1.4c0,0.7-0.1,1.3-0.2,2
		c-0.1,0.7-0.3,1.3-0.6,1.9c0,0-0.1,0.1-0.1,0.1c-0.1,0-0.2,0-0.4-0.1c-0.1-0.1-0.2-0.2-0.2-0.3s-0.1-0.3-0.2-0.7
		c-0.1-0.4-0.2-0.8-0.3-1.2c-0.1-0.4-0.2-0.9-0.4-1.4c-0.1-0.5-0.2-0.8-0.3-1.1c0-0.1-0.1-0.3-0.1-0.6c0-0.2,0-0.5,0-0.6
		c0,0,0-0.1,0.1-0.2c0.1-0.1,0.2-0.2,0.3-0.2c0.1,0,0.2,0,0.2,0.2c0,0.1,0.1,0.3,0.1,0.4l0.7,3.4c0,0.1,0,0.2,0.1,0.3
		c0,0.1,0.1,0.2,0.2,0.3c0.1-0.4,0.1-0.8,0.2-1.3c0-0.5,0.1-1,0.1-1.4c0-0.5,0.1-0.8,0.2-1.2c0.1-0.3,0.2-0.5,0.3-0.5
		c0.1,0,0.3,0,0.4,0s0.2,0.1,0.3,0.3c0.2,0.4,0.3,0.8,0.4,1.1s0.2,0.6,0.3,0.8c0.1,0.2,0.3,0.5,0.4,0.7c0.2,0.2,0.4,0.4,0.6,0.5
		c0.2,0.1,0.5,0.2,0.8,0.3c0.3,0,0.5,0,0.7,0c0.1,0,0.2-0.1,0.3-0.1c0.1-0.1,0.2-0.1,0.2-0.1c0.1,0,0.1,0,0.2,0.1
		C220.6,7.8,220.6,7.8,220.6,7.9z"/>
	<path class="st0" d="M39.8,59.8c0,0,0,0.1,0.1,0.1c0,0.1,0,0.2,0.1,0.2c0,0.1,0,0.2-0.1,0.2c0,0-0.1,0-0.1,0c0,0-0.1,0-0.1,0
		c-0.3-0.1-0.6-0.1-1-0.2c-0.4-0.1-0.8-0.1-1.3,0c-0.5,0.1-0.9,0.4-1.1,0.8c-0.2,0.5-0.4,1-0.4,1.5s-0.1,1.1,0,1.6
		c0.1,0.5,0.1,0.9,0.1,1.1c0,0.2,0.1,0.4,0.2,0.7c0.1,0.3,0.3,0.7,0.4,1c0.2,0.3,0.3,0.6,0.5,0.9c0.2,0.3,0.3,0.4,0.5,0.5
		c0.1,0,0.2-0.1,0.5-0.1c0.2-0.1,0.4-0.1,0.5-0.1c0.2-0.1,0.5-0.1,0.7-0.1c0.2,0,0.5,0,0.7-0.1c0.1,0,0.1,0,0.3-0.1
		c0.1,0,0.2,0,0.4-0.1c0.1,0,0.2,0,0.3,0c0.1,0,0.1,0.1,0.2,0.1c0,0.1,0,0.1-0.1,0.2c-0.1,0.1-0.2,0.2-0.3,0.2
		c-0.1,0.1-0.2,0.1-0.4,0.2c-0.1,0-0.2,0.1-0.3,0.1c-0.1,0-0.2,0-0.3,0c-0.1,0-0.2,0-0.4,0c-0.1,0-0.3,0-0.4,0.1
		c-0.1,0-0.2,0-0.3,0.1c-0.2,0-0.4,0.1-0.4,0.2c0,0.1,0,0.2,0,0.3c0,0.2,0.2,0.5,0.5,0.8c0.3,0.3,0.6,0.7,0.9,1
		c0.3,0.4,0.6,0.8,0.9,1.2c0.3,0.4,0.5,0.8,0.6,1.2c0,0.1,0,0.2,0,0.4c0,0.2,0,0.4,0,0.6c0,0.2-0.1,0.4-0.2,0.6
		c-0.1,0.2-0.2,0.3-0.3,0.3c-0.1,0-0.2,0-0.3,0c-0.1,0-0.2-0.1-0.2-0.3c0-0.2,0-0.5,0-0.7c0.1-0.2,0.1-0.5,0-0.7
		c0-0.1-0.1-0.3-0.3-0.5c-0.2-0.3-0.4-0.5-0.6-0.8c-0.2-0.3-0.5-0.6-0.7-1c-0.3-0.3-0.5-0.6-0.7-0.9c-0.2-0.3-0.4-0.5-0.6-0.7
		c-0.2-0.2-0.2-0.3-0.3-0.3c-0.3,0.2-0.5,0.3-0.8,0.5c-0.3,0.2-0.5,0.4-0.7,0.6c-0.1,0.1-0.2,0.2-0.2,0.2c-0.1,0-0.3,0-0.4-0.1
		c-0.1-0.1-0.2-0.2-0.3-0.3c0-0.2,0-0.3,0.1-0.4c0.1-0.1,0.1-0.2,0.2-0.3c0.1-0.1,0.3-0.2,0.6-0.4c0.3-0.1,0.5-0.3,0.8-0.4
		c0.1,0,0.2-0.1,0.3-0.1c0.1,0,0.1-0.1,0.1-0.2c-0.1-0.1-0.2-0.3-0.3-0.5c-0.1-0.2-0.3-0.5-0.4-0.8c-0.1-0.3-0.3-0.7-0.4-1.1
		c-0.1-0.4-0.3-0.8-0.4-1.3c-0.1-0.5-0.2-1.1-0.2-1.7c0-0.6,0.1-1.2,0.2-1.7c0.2-0.5,0.4-1,0.8-1.4c0.3-0.4,0.8-0.6,1.3-0.8
		c0.3-0.1,0.6-0.1,0.9-0.1c0.3,0,0.6,0,0.9,0c0.3,0,0.5,0.1,0.7,0.2C39.6,59.5,39.8,59.6,39.8,59.8z"/>
	<path class="st0" d="M47.3,69.4c0.1,0.3,0.1,0.6,0.1,0.9c0,0.3-0.1,0.6-0.2,0.8c-0.1,0.2-0.2,0.5-0.4,0.6c-0.2,0.2-0.4,0.3-0.6,0.3
		c-0.4,0.1-0.7,0-1-0.1c-0.3-0.2-0.5-0.4-0.7-0.7c-0.2-0.3-0.3-0.6-0.4-0.9s-0.2-0.5-0.2-0.7c-0.1-0.3-0.1-0.6-0.1-0.9
		c0-0.3,0.1-0.7,0.1-1c0.1-0.3,0.2-0.6,0.3-0.8c0.1-0.2,0.3-0.4,0.5-0.4c0,0,0.1,0,0.2,0s0.2,0,0.3,0.1c0.1,0,0.2,0.1,0.3,0.2
		c0.1,0.1,0.2,0.2,0.2,0.3c0.2,0,0.3,0,0.5,0.1c0.2,0.1,0.3,0.1,0.3,0.2c0.2,0.3,0.3,0.7,0.5,1.1C47.2,68.9,47.3,69.2,47.3,69.4z
		 M46.3,69.3c0-0.2-0.1-0.4-0.2-0.7c-0.1-0.2-0.2-0.5-0.4-0.7c0,0-0.1,0-0.1,0c-0.1,0-0.1,0-0.1,0c0,0-0.1,0-0.1,0
		c-0.2,0-0.3,0.1-0.4,0.2c-0.1,0.1-0.1,0.3-0.1,0.4c0,0.2,0,0.3,0,0.5c0,0.2,0,0.3,0.1,0.5c0,0.2,0.1,0.3,0.1,0.5
		c0.1,0.2,0.1,0.4,0.2,0.5c0.1,0.2,0.2,0.3,0.3,0.4c0.1,0.1,0.2,0.1,0.4,0.1c0.1,0,0.2-0.1,0.3-0.3c0.1-0.2,0.1-0.4,0.1-0.6
		c0-0.2,0-0.4,0-0.6C46.3,69.5,46.3,69.3,46.3,69.3z"/>
	<path class="st0" d="M54.2,66c0,0.1,0,0.2-0.1,0.3c-0.1,0.1-0.2,0.2-0.3,0.2c-0.1,0.1-0.2,0.1-0.3,0.2c-0.1,0-0.2,0.1-0.3,0.1
		c-0.2,0-0.4,0.1-0.4,0c-0.1,0-0.1,0-0.2,0c-0.4,0.1-0.6,0.2-0.8,0.3c-0.2,0.1-0.4,0.2-0.4,0.4c-0.1,0.2-0.1,0.3-0.1,0.5
		c0,0.2,0,0.4,0.1,0.7c0.1,0.5,0.2,0.8,0.3,1.1c0.1,0.3,0.2,0.5,0.2,0.6c0.1,0.2,0.1,0.3,0.2,0.4c0.1,0.1,0.1,0.2,0.1,0.3
		c0,0.1,0,0.2-0.1,0.4c-0.1,0.2-0.2,0.2-0.3,0.3c-0.2,0-0.4-0.1-0.6-0.4c-0.2-0.3-0.4-0.6-0.6-1c-0.2-0.4-0.3-0.8-0.5-1.2
		c-0.1-0.4-0.2-0.7-0.3-0.9c-0.1-0.2-0.1-0.5-0.1-0.7c0-0.2,0-0.4,0-0.6c0-0.2,0.1-0.3,0.2-0.4c0.1-0.1,0.1-0.2,0.2-0.2
		c0.1,0,0.1,0,0.2,0c0.1,0,0.1,0.1,0.1,0.1c0,0.1,0.1,0.1,0.1,0.2c0,0,0.1,0.1,0.2,0c0.1,0,0.3-0.1,0.6-0.3c0.3-0.2,0.6-0.3,1-0.4
		c0.4-0.1,0.7-0.1,0.9-0.2c0.2,0,0.4,0,0.6,0c0,0,0.1,0,0.2,0.1C54.1,65.8,54.1,65.9,54.2,66z"/>
	<path class="st0" d="M73.9,67.6c0,0.2,0,0.3-0.1,0.3c-0.1,0-0.2,0.1-0.2,0.1c0,0-0.3-0.1-0.7-0.4c-0.4-0.2-0.9-0.5-1.5-0.9
		c-0.6-0.3-1.1-0.7-1.7-1c-0.6-0.3-1-0.6-1.4-0.7c0.1,0.2,0.1,0.4,0.2,0.7c0.1,0.3,0.2,0.5,0.3,0.8c0.1,0.3,0.2,0.5,0.2,0.7
		c0.1,0.2,0.1,0.3,0.1,0.4c0,0.2,0,0.4,0,0.6c-0.1,0.2-0.2,0.3-0.4,0.3c-0.1,0-0.2,0-0.3,0c0,0-0.1-0.1-0.2-0.3
		c-0.1-0.2-0.2-0.5-0.3-0.8c-0.1-0.4-0.2-0.7-0.4-1.1c-0.1-0.4-0.2-0.8-0.3-1.2c-0.1-0.4-0.2-0.7-0.3-0.9c-0.1-0.1-0.3-0.2-0.5-0.4
		c-0.3-0.2-0.6-0.5-0.9-0.8c-0.4-0.3-0.7-0.6-1.1-1c-0.4-0.4-0.8-0.7-1.1-1c-0.3-0.3-0.6-0.6-0.9-0.9c-0.2-0.3-0.4-0.5-0.4-0.7
		c0-0.1,0-0.3,0.1-0.5c0.1-0.2,0.2-0.3,0.3-0.3c0.1,0,0.3,0.1,0.6,0.5c0.3,0.3,0.7,0.7,1.1,1.1c0.4,0.4,0.8,0.9,1.3,1.3
		c0.5,0.5,0.9,0.8,1.3,1c0-0.3-0.1-0.5-0.1-0.8c-0.1-0.2-0.1-0.5-0.1-0.7c0-0.1-0.1-0.3-0.1-0.6c-0.1-0.3-0.1-0.6-0.2-1
		c-0.1-0.4-0.1-0.8-0.1-1.2c0-0.4,0-0.8,0-1.2c0-0.4,0.1-0.7,0.1-0.9c0.1-0.2,0.2-0.4,0.4-0.4c0.1,0,0.2,0,0.3,0.2
		c0.1,0.2,0.1,0.3,0.1,0.3c0.1,0.5,0.2,1,0.2,1.5c0,0.5,0.1,1,0.1,1.5c0,0.5,0.1,1.1,0.1,1.7c0.1,0.6,0.2,1.2,0.3,1.9
		c0,0,0,0.1,0,0.1c0,0,0,0.1,0.1,0.2c0.1,0.1,0.3,0.3,0.6,0.5c0.3,0.2,0.7,0.4,1.1,0.7c0.4,0.2,0.9,0.5,1.4,0.8
		c0.5,0.3,0.9,0.5,1.4,0.8c0.4,0.3,0.8,0.5,1.1,0.8C73.7,67.2,73.8,67.4,73.9,67.6z"/>
	<path class="st0" d="M77.4,57.4c0,1,0.1,2,0.1,3c0,0.4,0,0.8,0,1.3c0,0.4,0,0.9,0.1,1.3c0,0.4,0,0.8,0.1,1.2c0,0.4,0.1,0.7,0.1,1
		c0,0.5,0.1,1,0.2,1.6c0.1,0.6,0.2,1.2,0.3,1.7c0.1,0.6,0.2,1.2,0.4,1.9c0,0.1,0,0.3,0,0.4c0,0.2,0,0.3,0.1,0.5c0,0.1,0,0.3,0,0.4
		c0,0.1-0.1,0.2-0.3,0.2c-0.1,0-0.2,0-0.3-0.2c-0.1-0.2-0.2-0.4-0.3-0.6c-0.1-0.2-0.2-0.5-0.2-0.7c-0.1-0.2-0.1-0.4-0.1-0.5
		c0-0.1-0.1-0.3-0.1-0.4c0-0.2-0.1-0.4-0.1-0.7c0-0.3-0.1-0.8-0.2-1.3s-0.1-1.2-0.2-2.1c0,0-0.1-0.1-0.3-0.2
		c-0.2-0.1-0.5-0.2-0.8-0.3c-0.3-0.1-0.7-0.3-1-0.5c-0.3-0.2-0.6-0.3-0.9-0.5c0,0-0.1-0.1-0.2-0.2c-0.1-0.1-0.1-0.2-0.2-0.3
		c0-0.1,0-0.2,0.1-0.2c0.1-0.1,0.1-0.1,0.2-0.2c0.1,0,0.1,0,0.2,0c0.4,0.2,0.8,0.5,1.3,0.7c0.5,0.3,1,0.5,1.5,0.7
		c0-0.3,0-0.7-0.1-1.2c0-0.6,0-1.1-0.1-1.8c0-0.6-0.1-1.2-0.1-1.8c0-0.6-0.1-1.1-0.1-1.4c0-0.1,0-0.2,0-0.3c0-0.1,0-0.3,0-0.4
		c0-0.1,0.1-0.3,0.1-0.4c0.1-0.1,0.1-0.2,0.2-0.2c0,0,0.1,0,0.3,0.1C77.2,57,77.4,57.1,77.4,57.4z"/>
	<path class="st0" d="M88.1,61.1c0,0.1,0,0.2,0,0.4c0,0.1,0,0.2-0.1,0.2c-0.3,0.2-0.6,0.4-1,0.6c-0.4,0.2-0.8,0.4-1.2,0.6
		c-0.2,0.2-0.5,0.4-0.8,0.6c-0.3,0.2-0.7,0.5-1,0.8c-0.4,0.3-0.7,0.5-1,0.7c-0.3,0.2-0.6,0.3-0.8,0.4c-0.2,0-0.4,0-0.6-0.1
		c-0.2-0.1-0.3-0.2-0.4-0.4c-0.1-0.3,0-0.7,0.2-1.1s0.4-0.9,0.7-1.5c0.3-0.5,0.5-1,0.8-1.5c0.3-0.5,0.4-0.8,0.5-1.1c0,0,0,0-0.1,0
		c0,0-0.1,0-0.1,0c-0.4,0.2-0.8,0.5-1.2,0.7c-0.3,0.2-0.6,0.3-1,0.5c-0.3,0.2-0.6,0.3-0.8,0.3c-0.1,0-0.3,0-0.4-0.1
		c-0.1-0.1-0.2-0.2-0.2-0.4c0,0,0-0.1,0-0.1s0.1-0.1,0.1-0.1c0.2-0.1,0.4-0.2,0.8-0.4c0.4-0.2,0.7-0.4,1.1-0.6
		c0.4-0.2,0.8-0.4,1.2-0.5s0.7-0.3,0.9-0.3c0.2,0,0.3,0,0.5,0.1c0.2,0.1,0.4,0.2,0.5,0.4l-2.3,4.8L82.3,64c0,0.1,0,0.1,0.1,0.1
		c0.1,0,0.3-0.1,0.5-0.3c0.2-0.1,0.4-0.3,0.8-0.6c0.3-0.3,0.8-0.6,1.3-1c0.5-0.4,1.2-0.8,2-1.3c0.1-0.1,0.3-0.1,0.4-0.2
		c0.2,0,0.4,0,0.5,0C88,60.9,88,61,88.1,61.1z"/>
	<path class="st0" d="M99.1,58.7c0.1,0.3,0,0.6-0.2,1c-0.2,0.4-0.4,0.9-0.7,1.3c-0.3,0.4-0.7,0.8-1.2,1.2c-0.5,0.4-1,0.6-1.6,0.7
		c-0.3,0.1-0.5,0.1-0.8,0c-0.3,0-0.6-0.1-0.9-0.2c-0.3-0.1-0.6-0.3-0.9-0.4c-0.3-0.2-0.5-0.4-0.6-0.7c-0.1,0.1-0.1,0.3-0.2,0.5
		c-0.1,0.2-0.2,0.5-0.3,0.7c-0.1,0.2-0.2,0.5-0.4,0.6c-0.1,0.2-0.3,0.3-0.5,0.3c-0.2,0-0.4,0-0.5-0.2c-0.2-0.2-0.3-0.4-0.4-0.6
		c-0.1-0.2-0.2-0.4-0.3-0.6c-0.1-0.2-0.1-0.3-0.1-0.4c0-0.2-0.1-0.5-0.1-1c0-0.5,0-1,0.1-1.6c0.1-0.6,0.2-1.1,0.5-1.5s0.5-0.7,1-0.8
		c0.2,0,0.3,0,0.4,0.1c0.1,0.1,0.1,0.3,0.2,0.4l0.1,0.6c0.1,0,0.2,0.1,0.3,0.1c0.1,0,0.2,0,0.2,0c0.1,0,0.1,0.1,0.2,0.1
		c0.1,0.1,0.1,0.2,0.1,0.3c0,0.1,0,0.2,0,0.3c0,0.1,0,0.2,0,0.2c0.1,0.4,0.2,0.7,0.3,1.1c0.1,0.3,0.3,0.6,0.5,0.9
		c0.2,0.2,0.5,0.4,0.9,0.5s0.8,0.1,1.3,0c0.6-0.1,1.1-0.4,1.5-0.7c0.4-0.4,0.7-0.7,0.9-1.1c0.2-0.4,0.4-0.7,0.5-1
		c0.1-0.3,0.2-0.5,0.3-0.5C99,58.4,99.1,58.5,99.1,58.7z M91.4,59.3c0-0.1,0-0.1-0.1-0.2c0,0-0.1-0.1-0.1-0.1c0-0.1,0-0.1,0-0.2
		c0,0,0-0.1,0-0.2c0,0,0-0.1-0.1-0.1c0,0-0.1,0-0.1-0.1c-0.1,0.1-0.2,0.2-0.3,0.5c-0.1,0.2-0.2,0.5-0.2,0.8
		c-0.1,0.3-0.1,0.6-0.1,0.9c0,0.3,0,0.6,0,0.7c0,0.1,0.1,0.3,0.2,0.5c0.1,0.2,0.2,0.4,0.3,0.4c0.1-0.6,0.3-1.1,0.4-1.6
		C91.4,60.3,91.4,59.8,91.4,59.3z"/>
	<path class="st0" d="M103,62.1c-0.1,0.1-0.2,0.1-0.3,0.1c-0.1,0-0.3-0.1-0.5-0.3c-0.2-0.2-0.4-0.5-0.6-0.8
		c-0.2-0.3-0.4-0.7-0.6-1.1c-0.2-0.4-0.4-0.8-0.6-1.2s-0.3-0.7-0.4-0.9c-0.1-0.2-0.2-0.4-0.2-0.4c0-0.1-0.1-0.2-0.2-0.4
		c-0.1-0.2-0.2-0.6-0.4-1.1c-0.2-0.5-0.4-1.2-0.7-2c-0.3-0.8-0.6-1.8-0.9-3c0-0.1,0-0.3,0-0.5c0-0.2,0.1-0.3,0.2-0.4
		c0.2,0,0.4,0.1,0.5,0.3c0.2,0.2,0.3,0.6,0.5,1c0.1,0.4,0.3,0.8,0.4,1.2c0.1,0.4,0.2,0.8,0.4,1.1c0.2,0.4,0.3,0.9,0.4,1.2
		c0.1,0.4,0.3,0.7,0.4,1.1c0.1,0.4,0.3,0.7,0.4,1.1c0.2,0.4,0.4,0.8,0.6,1.3l1.6,3.4C103.1,62,103,62.1,103,62.1z"/>
	<path class="st0" d="M123,53.6c0.1,0.3,0,0.6-0.2,1c-0.2,0.4-0.4,0.9-0.7,1.3c-0.3,0.4-0.7,0.8-1.2,1.2c-0.5,0.4-1,0.6-1.6,0.7
		c-0.3,0.1-0.5,0.1-0.8,0c-0.3,0-0.6-0.1-0.9-0.2c-0.3-0.1-0.6-0.3-0.9-0.4c-0.3-0.2-0.5-0.4-0.6-0.7c-0.1,0.1-0.1,0.3-0.2,0.5
		c-0.1,0.2-0.2,0.5-0.3,0.7c-0.1,0.2-0.2,0.5-0.4,0.6c-0.1,0.2-0.3,0.3-0.5,0.3c-0.2,0-0.4,0-0.5-0.2c-0.2-0.2-0.3-0.4-0.4-0.6
		c-0.1-0.2-0.2-0.4-0.3-0.6c-0.1-0.2-0.1-0.3-0.1-0.4c0-0.2-0.1-0.5-0.1-1c0-0.5,0-1,0.1-1.6c0.1-0.6,0.2-1.1,0.5-1.5
		c0.2-0.5,0.5-0.7,1-0.8c0.2,0,0.3,0,0.4,0.1c0.1,0.1,0.1,0.3,0.2,0.4l0.1,0.6c0.1,0,0.2,0.1,0.3,0.1c0.1,0,0.2,0,0.2,0
		c0.1,0,0.1,0.1,0.2,0.1c0.1,0.1,0.1,0.2,0.1,0.3c0,0.1,0,0.2,0,0.3c0,0.1,0,0.2,0,0.2c0.1,0.4,0.2,0.7,0.3,1.1
		c0.1,0.3,0.3,0.6,0.5,0.9c0.2,0.2,0.5,0.4,0.9,0.5c0.3,0.1,0.8,0.1,1.3,0c0.6-0.1,1.1-0.4,1.5-0.7c0.4-0.4,0.7-0.7,0.9-1.1
		c0.2-0.4,0.4-0.7,0.5-1c0.1-0.3,0.2-0.5,0.3-0.5C122.9,53.3,123,53.4,123,53.6z M115.3,54.2c0-0.1,0-0.1-0.1-0.2
		c0,0-0.1-0.1-0.1-0.1c0-0.1,0-0.1,0-0.2c0,0,0-0.1,0-0.2c0,0,0-0.1-0.1-0.1c0,0-0.1,0-0.1-0.1c-0.1,0.1-0.2,0.2-0.3,0.5
		c-0.1,0.2-0.2,0.5-0.2,0.8c-0.1,0.3-0.1,0.6-0.1,0.9c0,0.3,0,0.6,0,0.7c0,0.1,0.1,0.3,0.2,0.5c0.1,0.2,0.2,0.4,0.3,0.4
		c0.1-0.6,0.3-1.1,0.4-1.6C115.4,55.2,115.4,54.7,115.3,54.2z"/>
	<path class="st0" d="M130.1,54c0,0.1,0,0.2,0,0.3s-0.1,0.2-0.2,0.3c-0.1,0.1-0.1,0.2-0.2,0.2c-0.1,0.1-0.2,0.1-0.2,0.1
		c-0.2,0.1-0.6,0.1-1,0c-0.4,0-0.7-0.1-1-0.3c-0.3-0.2-0.6-0.4-0.8-0.7c-0.3-0.3-0.6-0.8-0.9-1.4c0,0.7-0.1,1.3-0.2,2
		c-0.1,0.7-0.3,1.3-0.6,1.9c0,0-0.1,0.1-0.1,0.1c-0.1,0-0.2,0-0.4-0.1s-0.2-0.2-0.2-0.3c0-0.1-0.1-0.3-0.2-0.7
		c-0.1-0.4-0.2-0.8-0.3-1.2c-0.1-0.4-0.2-0.9-0.4-1.4c-0.1-0.5-0.2-0.8-0.3-1.1c0-0.1-0.1-0.3-0.1-0.6c0-0.2,0-0.5,0-0.6
		c0,0,0-0.1,0.1-0.2c0.1-0.1,0.2-0.2,0.3-0.2c0.1,0,0.2,0,0.2,0.2c0,0.1,0.1,0.3,0.1,0.4l0.7,3.4c0,0.1,0,0.2,0.1,0.3
		c0,0.1,0.1,0.2,0.2,0.3c0.1-0.4,0.1-0.8,0.2-1.3c0-0.5,0.1-1,0.1-1.4c0-0.5,0.1-0.8,0.2-1.2c0.1-0.3,0.2-0.5,0.3-0.5
		c0.1,0,0.3,0,0.4,0c0.1,0,0.2,0.1,0.3,0.3c0.2,0.4,0.3,0.8,0.4,1.1c0.1,0.3,0.2,0.6,0.3,0.8c0.1,0.2,0.3,0.5,0.4,0.7
		c0.2,0.2,0.4,0.4,0.6,0.5c0.2,0.1,0.5,0.2,0.8,0.3c0.3,0,0.5,0,0.7,0c0.1,0,0.2-0.1,0.3-0.1s0.2-0.1,0.2-0.1c0.1,0,0.1,0,0.2,0.1
		C130.1,53.9,130.1,54,130.1,54z"/>
	<path class="st0" d="M137.2,51.7c0,0.1,0,0.1-0.1,0.2c-0.1,0.1-0.1,0.2-0.1,0.2c0,0.2,0.1,0.3,0.2,0.4c0.1,0.1,0.2,0.3,0.2,0.5
		c0,0.2,0,0.3-0.1,0.3c-0.1,0-0.2,0.1-0.3,0.1c-0.1,0-0.2,0.1-0.3,0.2c-0.1,0-0.2,0-0.3-0.2c-0.1-0.1-0.1-0.1-0.2-0.2
		c0,0,0,0-0.1,0.1c-0.1,0.1-0.2,0.2-0.3,0.3c-0.2,0.1-0.4,0.3-0.7,0.4s-0.7,0.3-1.1,0.4c-0.4,0.1-0.8,0.1-1.1,0
		c-0.3-0.1-0.6-0.3-0.9-0.5c-0.3-0.2-0.5-0.5-0.6-0.9c-0.2-0.3-0.3-0.7-0.4-1.1c-0.1-0.3-0.1-0.7-0.1-1c0-0.3,0.1-0.6,0.2-0.9
		s0.2-0.5,0.4-0.7c0.2-0.2,0.4-0.3,0.7-0.4c0.3-0.1,0.6,0,0.9,0.1c0.3,0.1,0.6,0.2,0.9,0.4c0.3,0.2,0.6,0.4,0.9,0.6
		c-0.4-1.1-0.8-2.1-1.2-2.9c-0.2-0.4-0.3-0.7-0.4-1.1c-0.1-0.4-0.3-0.7-0.4-1c-0.1-0.3-0.2-0.5-0.3-0.7c-0.1-0.2-0.1-0.3-0.1-0.4
		c0-0.1-0.1-0.2-0.1-0.5c-0.1-0.2-0.1-0.4-0.2-0.7c-0.1-0.2-0.1-0.5-0.2-0.7c-0.1-0.2-0.1-0.3-0.1-0.4c-0.1-0.1-0.2-0.3-0.3-0.5
		c-0.1-0.2-0.2-0.3-0.2-0.3c0-0.1,0-0.2,0.1-0.3c0-0.1,0.1-0.2,0.2-0.2c0.1,0,0.2,0,0.2,0c0.1,0,0.1,0,0.2,0.1
		c0.1,0.1,0.1,0.2,0.2,0.3c0.1,0.1,0.2,0.3,0.3,0.6c0,0.1,0.1,0.4,0.3,0.8c0.2,0.4,0.3,0.8,0.5,1.3c0.2,0.5,0.3,0.9,0.5,1.3
		c0.2,0.4,0.3,0.7,0.4,0.9c0.2,0.5,0.4,1.1,0.7,1.7c0.3,0.6,0.5,1.2,0.8,1.8c0.3,0.6,0.5,1.1,0.7,1.5c0.2,0.4,0.4,0.7,0.5,0.8
		c0,0.1,0.1,0.1,0.2,0.1C137.1,51.6,137.1,51.6,137.2,51.7z M135.7,52.4c0,0-0.2-0.2-0.4-0.5c-0.2-0.3-0.5-0.6-0.8-0.9
		c-0.3-0.3-0.7-0.6-1.1-0.8c-0.4-0.2-0.7-0.3-1-0.3c-0.2,0.1-0.4,0.3-0.5,0.7c-0.1,0.4-0.1,0.9,0,1.3c0.1,0.5,0.4,0.9,0.8,1.2
		c0.4,0.3,0.8,0.4,1.2,0.3c0.3-0.1,0.7-0.2,1-0.4C135.3,52.8,135.6,52.6,135.7,52.4z"/>
	<path class="st0" d="M157.6,50.1c0,0.1,0,0.3-0.1,0.4s-0.2,0.2-0.4,0.3c0,0-0.1,0-0.1,0c-0.1,0-0.1,0-0.1-0.1
		c-0.7-0.4-1.5-0.9-2.3-1.3c-0.8-0.4-1.6-0.8-2.4-1.3c-0.8-0.4-1.6-0.9-2.4-1.4s-1.6-1.1-2.3-1.7c0.4,0.7,0.8,1.5,1.3,2.3
		c0.5,0.8,1,1.6,1.4,2.2c0.5,0.7,0.8,1.3,1.2,1.8c0.3,0.5,0.5,0.8,0.5,1c0,0.2,0,0.3-0.1,0.5c-0.1,0.1-0.2,0.2-0.4,0.3
		c-0.1,0-0.2-0.1-0.3-0.2c-0.1-0.2-0.3-0.4-0.5-0.6c-0.2-0.3-0.4-0.6-0.6-0.9c-0.2-0.3-0.4-0.7-0.6-1c-0.2-0.3-0.4-0.6-0.5-0.9
		c-0.2-0.3-0.3-0.5-0.4-0.7l-1-1.6c-0.2-0.3-0.4-0.7-0.6-1.1s-0.4-0.7-0.6-1c-0.2-0.3-0.3-0.6-0.4-0.8c-0.1-0.2-0.2-0.4-0.2-0.5
		c0-0.2,0-0.3,0-0.5s0.1-0.3,0.2-0.3c0.1,0,0.1,0,0.2,0c0,0,0.1,0,0.1,0l0.2-0.2c0.1,0,0.2,0,0.4,0.2s0.5,0.3,0.8,0.6
		c0.3,0.2,0.6,0.5,1,0.8c0.3,0.3,0.7,0.6,1.1,0.9c0.4,0.3,0.7,0.6,1,0.8c0.3,0.2,0.6,0.4,0.8,0.6c0.4,0.2,0.7,0.4,1.1,0.6
		c0.4,0.2,0.7,0.4,1.1,0.6c0.4,0.2,0.8,0.4,1.2,0.6c0.4,0.2,0.9,0.5,1.4,0.8c0,0,0.1,0,0.1,0c0,0,0,0,0-0.1c0-0.1,0-0.2-0.1-0.3
		c0-0.2-0.2-0.6-0.4-1.1c-0.2-0.5-0.5-1.1-0.9-1.7c-0.4-0.7-0.8-1.3-1.2-2.1c-0.4-0.7-0.9-1.4-1.4-2.1c-0.5-0.7-0.9-1.3-1.4-1.8
		c-0.5-0.5-0.9-0.9-1.3-1.2c-0.1-0.1-0.2-0.2-0.3-0.3c-0.1-0.2-0.1-0.3-0.1-0.4c0-0.1,0-0.2,0.1-0.4c0.1-0.2,0.2-0.2,0.3-0.3
		c0.2,0,0.4,0.1,0.7,0.4c0.3,0.3,0.6,0.7,1,1.2c0.4,0.5,0.7,1.1,1.1,1.7c0.4,0.6,0.8,1.3,1.2,1.9c0.5,0.8,0.9,1.5,1.3,2.3
		c0.4,0.8,0.8,1.5,1.1,2.1c0.3,0.7,0.6,1.3,0.9,1.8C157.4,49.3,157.5,49.8,157.6,50.1z"/>
	<path class="st0" d="M167.9,44.1c0.1,0.3,0,0.6-0.2,1s-0.4,0.9-0.7,1.3c-0.3,0.4-0.7,0.8-1.2,1.2c-0.5,0.4-1,0.6-1.6,0.7
		c-0.3,0.1-0.5,0.1-0.8,0c-0.3,0-0.6-0.1-0.9-0.2c-0.3-0.1-0.6-0.3-0.9-0.4c-0.3-0.2-0.5-0.4-0.6-0.7c-0.1,0.1-0.1,0.3-0.2,0.5
		c-0.1,0.2-0.2,0.5-0.3,0.7c-0.1,0.2-0.2,0.5-0.4,0.6c-0.1,0.2-0.3,0.3-0.5,0.3c-0.2,0-0.4,0-0.5-0.2c-0.2-0.2-0.3-0.4-0.4-0.6
		c-0.1-0.2-0.2-0.4-0.3-0.6c-0.1-0.2-0.1-0.3-0.1-0.4c0-0.2-0.1-0.5-0.1-1c0-0.5,0-1,0.1-1.6c0.1-0.6,0.2-1.1,0.5-1.5
		c0.2-0.5,0.5-0.7,1-0.8c0.2,0,0.3,0,0.4,0.1c0.1,0.1,0.1,0.3,0.2,0.4l0.1,0.6c0.1,0,0.2,0.1,0.3,0.1c0.1,0,0.2,0,0.2,0
		c0.1,0,0.1,0.1,0.2,0.1c0.1,0.1,0.1,0.2,0.1,0.3c0,0.1,0,0.2,0,0.3c0,0.1,0,0.2,0,0.2c0.1,0.4,0.2,0.7,0.3,1.1
		c0.1,0.3,0.3,0.6,0.5,0.9c0.2,0.2,0.5,0.4,0.9,0.5c0.3,0.1,0.8,0.1,1.3,0c0.6-0.1,1.1-0.4,1.5-0.7c0.4-0.4,0.7-0.7,0.9-1.1
		c0.2-0.4,0.4-0.7,0.5-1c0.1-0.3,0.2-0.5,0.3-0.5C167.8,43.8,167.9,43.9,167.9,44.1z M160.2,44.7c0-0.1,0-0.1-0.1-0.2
		c0,0-0.1-0.1-0.1-0.1c0-0.1,0-0.1,0-0.2c0,0,0-0.1,0-0.2c0,0,0-0.1-0.1-0.1c0,0-0.1,0-0.1-0.1c-0.1,0.1-0.2,0.2-0.3,0.5
		c-0.1,0.2-0.2,0.5-0.2,0.8c-0.1,0.3-0.1,0.6-0.1,0.9c0,0.3,0,0.6,0,0.7c0,0.1,0.1,0.3,0.2,0.5c0.1,0.2,0.2,0.4,0.3,0.4
		c0.1-0.6,0.3-1.1,0.4-1.6C160.3,45.7,160.3,45.2,160.2,44.7z"/>
	<path class="st0" d="M173.4,44.6c0.1,0.2,0,0.5-0.1,0.7c-0.1,0.2-0.3,0.4-0.5,0.6c-0.2,0.2-0.5,0.3-0.8,0.5
		c-0.3,0.1-0.6,0.2-0.8,0.3c-0.3,0.1-0.5,0.2-0.7,0.2c-0.2,0.1-0.3,0.1-0.4,0.1c-0.3,0.1-0.6,0.1-0.8,0c-0.2-0.1-0.3-0.2-0.4-0.5
		c0-0.1,0-0.2,0-0.2c0-0.1,0.1-0.1,0.2-0.1c0,0,0.1,0,0.2,0c0.1,0,0.2,0,0.2,0s0.2-0.1,0.5-0.1c0.3-0.1,0.6-0.2,1-0.3
		c0.3-0.1,0.6-0.3,0.9-0.4c0.3-0.2,0.4-0.3,0.3-0.5c0,0-0.2-0.1-0.5-0.2c-0.3-0.1-0.8-0.2-1.5-0.5c-0.5-0.2-0.9-0.4-1.2-0.7
		c-0.2-0.3-0.4-0.6-0.5-1.1c-0.1-0.3-0.1-0.6,0-0.8c0.1-0.2,0.2-0.4,0.5-0.6c0.2-0.2,0.5-0.3,0.8-0.4c0.3-0.1,0.6-0.2,1-0.3
		c0,0,0.1,0,0.3,0c0.2,0,0.3,0,0.5,0c0.2,0,0.4,0.1,0.5,0.1c0.2,0.1,0.2,0.2,0.3,0.3c0,0,0,0.1,0,0.1c0,0.1-0.1,0.2-0.2,0.4
		c0,0-0.1,0-0.2,0c-0.1,0-0.2,0-0.4,0c-0.1,0-0.3,0-0.4,0c-0.1,0-0.3,0-0.4,0c-0.4,0.1-0.7,0.2-0.9,0.4c-0.2,0.2-0.3,0.5-0.2,0.9
		c0,0.2,0.2,0.3,0.3,0.5c0.2,0.1,0.4,0.2,0.7,0.3c0.3,0.1,0.5,0.2,0.8,0.3c0.3,0.1,0.6,0.2,0.8,0.3c0.3,0.1,0.5,0.2,0.7,0.4
		C173.2,44.2,173.3,44.4,173.4,44.6z"/>
	<path class="st0" d="M185.1,40.5c0.1,0.3,0,0.6-0.2,1s-0.4,0.9-0.7,1.3c-0.3,0.4-0.7,0.8-1.2,1.2c-0.5,0.4-1,0.6-1.6,0.7
		c-0.3,0.1-0.5,0.1-0.8,0c-0.3,0-0.6-0.1-0.9-0.2c-0.3-0.1-0.6-0.3-0.9-0.4c-0.3-0.2-0.5-0.4-0.6-0.7c-0.1,0.1-0.1,0.3-0.2,0.5
		c-0.1,0.2-0.2,0.5-0.3,0.7c-0.1,0.2-0.2,0.5-0.4,0.6c-0.1,0.2-0.3,0.3-0.5,0.3c-0.2,0-0.4,0-0.5-0.2c-0.2-0.2-0.3-0.4-0.4-0.6
		c-0.1-0.2-0.2-0.4-0.3-0.6c-0.1-0.2-0.1-0.3-0.1-0.4c0-0.2-0.1-0.5-0.1-1c0-0.5,0-1,0.1-1.6c0.1-0.6,0.2-1.1,0.5-1.5
		c0.2-0.5,0.5-0.7,1-0.8c0.2,0,0.3,0,0.4,0.1c0.1,0.1,0.1,0.3,0.2,0.4l0.1,0.6c0.1,0,0.2,0.1,0.3,0.1c0.1,0,0.2,0,0.2,0
		c0.1,0,0.1,0.1,0.2,0.1c0.1,0.1,0.1,0.2,0.1,0.3c0,0.1,0,0.2,0,0.3c0,0.1,0,0.2,0,0.2c0.1,0.4,0.2,0.7,0.3,1.1
		c0.1,0.3,0.3,0.6,0.5,0.9c0.2,0.2,0.5,0.4,0.9,0.5c0.3,0.1,0.8,0.1,1.3,0c0.6-0.1,1.1-0.4,1.5-0.7c0.4-0.4,0.7-0.7,0.9-1.1
		c0.2-0.4,0.4-0.7,0.5-1c0.1-0.3,0.2-0.5,0.3-0.5C185,40.2,185.1,40.3,185.1,40.5z M177.4,41.1c0-0.1,0-0.1-0.1-0.2
		c0,0-0.1-0.1-0.1-0.1c0-0.1,0-0.1,0-0.2c0,0,0-0.1,0-0.2c0,0,0-0.1-0.1-0.1c0,0-0.1,0-0.1-0.1c-0.1,0.1-0.2,0.2-0.3,0.5
		c-0.1,0.2-0.2,0.5-0.2,0.8c-0.1,0.3-0.1,0.6-0.1,0.9s0,0.6,0,0.7c0,0.1,0.1,0.3,0.2,0.5c0.1,0.2,0.2,0.4,0.3,0.4
		c0.1-0.6,0.3-1.1,0.4-1.6C177.4,42.1,177.5,41.6,177.4,41.1z"/>
	<path class="st0" d="M191.7,39.6c0,0.1,0,0.3,0,0.5c0,0.2,0,0.3-0.1,0.4c0,0-0.1,0.2-0.3,0.5c-0.2,0.3-0.4,0.6-0.7,1
		c-0.3,0.3-0.6,0.7-1,1c-0.4,0.3-0.8,0.5-1.2,0.6c-0.2,0.1-0.5,0.1-0.8,0c-0.3,0-0.5-0.1-0.8-0.3c-0.3-0.1-0.5-0.4-0.7-0.6
		c-0.2-0.3-0.3-0.6-0.4-1c-0.1-0.7-0.2-1.3-0.1-1.9c0.1-0.6,0.2-1.1,0.4-1.5c0.1-0.2,0.2-0.4,0.3-0.6c0.1-0.2,0.3-0.4,0.4-0.6
		c0.1-0.2,0.3-0.3,0.4-0.4c0.1-0.1,0.2-0.2,0.3-0.2c0.1,0,0.3,0,0.4,0c0.1,0,0.2,0.1,0.2,0.2c0,0.1,0,0.2,0,0.3
		c0,0.1-0.1,0.2-0.2,0.3c-0.1,0.1-0.2,0.3-0.3,0.5c-0.1,0.2-0.2,0.4-0.4,0.7c-0.2,0.5-0.4,1.1-0.5,1.6c-0.1,0.5-0.1,1,0,1.4
		s0.3,0.6,0.6,0.8s0.6,0.2,0.9,0.1c0.5-0.1,1-0.3,1.4-0.7c0.4-0.3,0.7-0.7,0.9-1c0.2-0.4,0.4-0.7,0.6-1s0.2-0.4,0.3-0.5
		C191.5,39.3,191.6,39.4,191.7,39.6z"/>
	<path class="st0" d="M197.1,37.7c0.1,0.3,0.1,0.6,0.1,0.9c0,0.3-0.1,0.6-0.2,0.8c-0.1,0.2-0.2,0.5-0.4,0.6
		c-0.2,0.2-0.4,0.3-0.6,0.3c-0.4,0.1-0.7,0-1-0.1c-0.3-0.2-0.5-0.4-0.7-0.7c-0.2-0.3-0.3-0.6-0.4-0.9c-0.1-0.3-0.2-0.5-0.2-0.7
		c-0.1-0.3-0.1-0.6-0.1-0.9c0-0.3,0.1-0.7,0.1-1c0.1-0.3,0.2-0.6,0.3-0.8c0.1-0.2,0.3-0.4,0.5-0.4c0,0,0.1,0,0.2,0
		c0.1,0,0.2,0,0.3,0.1c0.1,0,0.2,0.1,0.3,0.2c0.1,0.1,0.2,0.2,0.2,0.3c0.2,0,0.3,0,0.5,0.1c0.2,0.1,0.3,0.1,0.3,0.2
		c0.2,0.3,0.3,0.7,0.5,1.1C197,37.2,197.1,37.5,197.1,37.7z M196.1,37.6c0-0.2-0.1-0.4-0.2-0.7c-0.1-0.2-0.2-0.5-0.4-0.7
		c0,0-0.1,0-0.1,0c-0.1,0-0.1,0-0.1,0c0,0-0.1,0-0.1,0c-0.2,0-0.3,0.1-0.4,0.2c-0.1,0.1-0.1,0.3-0.1,0.4c0,0.2,0,0.3,0,0.5
		c0,0.2,0,0.3,0.1,0.5c0,0.2,0.1,0.3,0.1,0.5c0.1,0.2,0.1,0.4,0.2,0.5c0.1,0.2,0.2,0.3,0.3,0.4c0.1,0.1,0.2,0.1,0.4,0.1
		c0.1,0,0.2-0.1,0.3-0.3c0.1-0.2,0.1-0.4,0.1-0.6c0-0.2,0-0.4,0-0.6C196.1,37.8,196.1,37.6,196.1,37.6z"/>
	<path class="st0" d="M204,34.3c0,0.1,0,0.2-0.1,0.3c-0.1,0.1-0.2,0.2-0.3,0.2c-0.1,0.1-0.2,0.1-0.3,0.2c-0.1,0-0.2,0.1-0.3,0.1
		c-0.2,0-0.4,0.1-0.4,0c-0.1,0-0.1,0-0.2,0c-0.4,0.1-0.6,0.2-0.8,0.3c-0.2,0.1-0.4,0.2-0.4,0.4c-0.1,0.2-0.1,0.3-0.1,0.5
		c0,0.2,0,0.4,0.1,0.7c0.1,0.5,0.2,0.8,0.3,1.1c0.1,0.3,0.2,0.5,0.2,0.6c0.1,0.2,0.1,0.3,0.2,0.4c0.1,0.1,0.1,0.2,0.1,0.3
		c0,0.1,0,0.2-0.1,0.4c-0.1,0.2-0.2,0.2-0.3,0.3c-0.2,0-0.4-0.1-0.6-0.4c-0.2-0.3-0.4-0.6-0.6-1c-0.2-0.4-0.3-0.8-0.5-1.2
		c-0.1-0.4-0.2-0.7-0.3-0.9c-0.1-0.2-0.1-0.5-0.1-0.7c0-0.2,0-0.4,0-0.6c0-0.2,0.1-0.3,0.2-0.4s0.1-0.2,0.2-0.2c0.1,0,0.1,0,0.2,0
		c0.1,0,0.1,0.1,0.1,0.1c0,0.1,0.1,0.1,0.1,0.2c0,0,0.1,0.1,0.2,0c0.1,0,0.3-0.1,0.6-0.3c0.3-0.2,0.6-0.3,1-0.4
		c0.4-0.1,0.7-0.1,0.9-0.2c0.2,0,0.4,0,0.6,0c0,0,0.1,0,0.2,0.1C203.9,34.1,203.9,34.2,204,34.3z"/>
	<path class="st0" d="M210.7,29.5c-0.1,0.3-0.4,0.5-0.7,0.8c-0.3,0.3-0.6,0.5-0.9,0.8c-0.3,0.2-0.6,0.5-0.8,0.6
		c-0.2,0.2-0.3,0.3-0.3,0.3s0.1,0.2,0.2,0.4c0.1,0.2,0.2,0.4,0.4,0.7c0.1,0.3,0.3,0.6,0.4,0.9c0.2,0.3,0.3,0.6,0.4,0.8
		c0.1,0.1,0.1,0.3,0.2,0.5c0.1,0.2,0.2,0.4,0.3,0.7c0.1,0.2,0.2,0.4,0.2,0.6c0.1,0.2,0.1,0.3,0.1,0.3c0,0.2,0.1,0.4,0,0.7
		c0,0.2-0.1,0.4-0.3,0.4c-0.1,0-0.2,0-0.3-0.1c-0.1-0.1-0.2-0.1-0.2-0.2s-0.1-0.2-0.2-0.2s-0.1-0.1-0.1-0.2c0,0,0-0.1,0-0.1
		c0-0.1,0-0.1,0-0.2c-0.1-0.3-0.2-0.7-0.4-1.2c-0.1-0.2-0.2-0.4-0.3-0.7c-0.2-0.3-0.3-0.6-0.5-1c-0.2-0.4-0.4-0.8-0.6-1.2
		c-0.1-0.2-0.2-0.3-0.2-0.3c-0.1,0-0.3,0.1-0.5,0.3c-0.2,0.2-0.4,0.4-0.7,0.6c-0.3,0.2-0.5,0.5-0.8,0.8c-0.3,0.3-0.6,0.5-0.8,0.8
		c-0.2,0.2-0.5,0.4-0.6,0.6c-0.2,0.2-0.3,0.3-0.3,0.3c-0.2,0-0.4,0-0.5-0.1c-0.1-0.1-0.2-0.2-0.3-0.4c0-0.1,0.1-0.2,0.3-0.5
		c0.2-0.2,0.5-0.5,0.8-0.7c0.3-0.3,0.6-0.6,1-0.9c0.4-0.3,0.7-0.6,1-0.8c0.3-0.2,0.7-0.5,1.1-0.9c-0.3-0.6-0.5-1.2-0.7-1.7
		c-0.2-0.4-0.3-0.8-0.5-1.2c-0.1-0.4-0.2-0.6-0.2-0.6c0-0.2,0-0.3,0-0.4c0.1-0.1,0.1-0.2,0.2-0.2c0.2,0,0.3,0.1,0.4,0.3
		c0.3,0.7,0.6,1.4,0.9,2c0.3,0.6,0.5,1,0.7,1.4c0.1-0.1,0.3-0.2,0.6-0.4c0.3-0.2,0.6-0.4,0.9-0.6c0.3-0.2,0.6-0.4,0.8-0.6
		s0.4-0.3,0.4-0.3c0.1,0,0.1,0,0.2,0.1C210.6,29.5,210.7,29.5,210.7,29.5z"/>
	<path class="st0" d="M218.7,28.3c0.1,0.3,0,0.6-0.2,0.9c-0.2,0.3-0.4,0.7-0.6,1c-0.3,0.4-0.5,0.7-0.8,1.1c-0.3,0.4-0.6,0.8-0.8,1.1
		c-0.3,0.4-0.5,0.7-0.6,1c-0.2,0.3-0.2,0.6-0.2,0.8c0,0.2,0.1,0.3,0.2,0.5c0.1,0.2,0.2,0.3,0.3,0.4c0,0.1-0.1,0.3-0.2,0.3
		c-0.1,0.1-0.1,0.1-0.3,0.2c-0.1,0-0.2,0-0.3-0.1c-0.1-0.1-0.2-0.2-0.3-0.3c-0.1-0.1-0.2-0.2-0.2-0.4c-0.1-0.1-0.1-0.3-0.1-0.4
		c-0.1-0.3-0.1-0.6,0-0.9c0-0.2,0.1-0.5,0.3-0.7c0.1-0.2,0.3-0.5,0.5-0.7c0.2-0.3,0.5-0.5,0.8-0.9c0.2-0.3,0.4-0.5,0.6-0.8
		c0.2-0.3,0.4-0.6,0.6-0.8c0.2-0.3,0.3-0.5,0.4-0.8c0.1-0.2,0.1-0.4,0.1-0.6c0-0.1-0.1-0.3-0.3-0.4s-0.3-0.2-0.6-0.3
		c-0.2-0.1-0.5-0.1-0.8-0.1c-0.3,0-0.6,0-0.9,0.1c-0.7,0.1-1.2,0.3-1.6,0.5c-0.4,0.2-0.7,0.3-0.9,0.3c-0.1,0-0.2,0-0.4,0
		c-0.1,0-0.2-0.1-0.2-0.3c0-0.2,0.1-0.3,0.3-0.5c0.2-0.2,0.5-0.3,0.8-0.4c0.3-0.1,0.6-0.2,0.9-0.3c0.3-0.1,0.5-0.1,0.6-0.2
		c0.4-0.1,0.9-0.1,1.3-0.1c0.4,0,0.8,0.1,1.2,0.3c0.4,0.1,0.6,0.3,0.9,0.5C218.5,27.8,218.6,28,218.7,28.3z M217.8,38.1
		c0,0.2,0,0.3-0.2,0.5c-0.2,0.1-0.3,0.2-0.4,0.2c-0.1,0-0.3,0-0.5-0.1c-0.2-0.1-0.3-0.2-0.3-0.3c0,0,0-0.1,0-0.2c0-0.1,0-0.2,0-0.3
		c0-0.1,0-0.2,0.1-0.3c0-0.1,0.1-0.1,0.2-0.1c0,0,0.1,0,0.2,0s0.2,0.1,0.4,0.2c0.1,0.1,0.3,0.1,0.4,0.2
		C217.7,38,217.8,38,217.8,38.1z"/>
</g>
<path class="st0" d="M167.4,68.4c1.4-1.4,1.8-3.7,0.7-5.4c-1.3-2-4-2.6-6-1.4c-2,1.3-2.6,4-1.4,6c1.1,1.8,3.3,2.5,5.2,1.7
	c11,29.2,7.9,46.6-25.6,67.8c-1.2,0.8-2.5,1.5-3.8,2.2l2.5-10.9c0.1-0.5-0.2-0.9-0.6-1c-0.5-0.1-0.9,0.2-1,0.6l-2.9,12.8
	c-0.1,0.5,0.2,0.9,0.6,1l12.8,2.9c0.5,0.1,0.9-0.2,1-0.6c0.1-0.2,0-0.5-0.1-0.6c-0.1-0.2-0.3-0.3-0.5-0.4l-10.7-2.4
	c1.3-0.6,2.5-1.3,3.7-2.1C175.4,117,178.9,98.5,167.4,68.4z M165.8,67.5c-1.2,0.8-2.9,0.4-3.6-0.8c-0.8-1.2-0.4-2.9,0.8-3.6
	c1.2-0.8,2.9-0.4,3.6,0.8C167.4,65.1,167,66.8,165.8,67.5z"/>
</svg>
