<?xml version="1.0" encoding="utf-8"?>
<!-- Generator: Adobe Illustrator 22.1.0, SVG Export Plug-In . SVG Version: 6.00 Build 0)  -->
<svg version="1.1" id="Layer_1" xmlns="http://www.w3.org/2000/svg" xmlns:xlink="http://www.w3.org/1999/xlink" x="0px" y="0px"
	 viewBox="0 0 250 150" style="enable-background:new 0 0 250 150;" xml:space="preserve">
<style type="text/css">
	.st0{fill:#828282;}
</style>
<g>
	<path class="st0" d="M46,40.6C46.1,40.6,46.1,40.6,46,40.6c0.1,0.2,0.1,0.3,0,0.4s-0.1,0.3-0.1,0.4c0,0,0,0.1,0.1,0.3
		c0,0.2,0.1,0.4,0.1,0.6c0,0.2,0.1,0.4,0.1,0.6c0,0.2,0.1,0.3,0.1,0.3l0.5,2.1c0,0,0,0.1,0,0.3s0,0.4,0.1,0.7c0,0.3,0,0.5,0.1,0.8
		c0,0.3,0,0.5,0,0.7c0,0.1,0,0.1-0.1,0.2c-0.1,0-0.1,0.1-0.2,0.1c-0.1,0-0.1,0.1-0.2,0.1c-0.1,0-0.1,0-0.1,0c-0.2,0-0.3,0-0.6-0.2
		c-0.2-0.1-0.4-0.3-0.6-0.5c-0.2-0.2-0.4-0.4-0.5-0.6c-0.2-0.2-0.2-0.3-0.3-0.3c0,0.2,0,0.4-0.1,0.7c0,0.2-0.1,0.4-0.1,0.6
		c-0.1,0.2-0.1,0.4-0.2,0.5c-0.1,0.1-0.2,0.2-0.3,0.2c-0.2,0-0.4,0-0.6-0.1c-0.2-0.1-0.5-0.3-0.7-0.5c-0.3-0.2-0.5-0.5-0.7-0.8
		s-0.5-0.6-0.7-0.9c-0.2-0.3-0.4-0.6-0.5-0.8c-0.1-0.3-0.2-0.5-0.3-0.6c0-0.1,0-0.1,0-0.2c0-0.1,0.1-0.2,0.2-0.2
		c0.2,0,0.4,0,0.5,0.1c0,0,0.1,0.1,0.2,0.4c0.1,0.2,0.3,0.5,0.5,0.8s0.5,0.6,0.7,0.9c0.3,0.3,0.5,0.6,0.8,0.8
		c0.1-0.2,0.1-0.4,0.1-0.7c0-0.2,0-0.5,0-0.7s0-0.4,0-0.6c0-0.2,0-0.3-0.1-0.4C43,45,43,44.9,43,44.8s-0.1-0.2-0.1-0.3
		s0-0.2-0.1-0.3c-0.1-0.4,0-0.6,0.3-0.6c0.2,0,0.4,0,0.5,0.1s0.3,0.3,0.4,0.4c0.1,0.2,0.2,0.3,0.2,0.5c0.1,0.2,0.1,0.3,0.2,0.3
		c0.2,0.3,0.4,0.6,0.5,0.9c0.2,0.3,0.4,0.5,0.7,0.8c0-0.1,0.1-0.1,0.1-0.3c0-0.1,0-0.2,0-0.3s0-0.2,0-0.3s0-0.2,0-0.2l-0.9-4.3
		c0-0.1,0-0.2,0.1-0.3s0.1-0.2,0.2-0.2c0.1-0.1,0.2-0.1,0.3-0.2c0.1-0.1,0.2-0.1,0.2-0.1c0.1,0,0.1,0,0.2,0
		C45.8,40.5,45.9,40.5,46,40.6z"/>
	<path class="st0" d="M55.9,44.2C56,44.3,56,44.3,55.9,44.2c0.1,0.1,0.1,0.2,0,0.4c0,0.2-0.1,0.3-0.2,0.5s-0.2,0.4-0.3,0.5
		c-0.1,0.2-0.3,0.2-0.4,0.3c-0.3,0.1-0.6,0.1-0.8,0c-0.2-0.1-0.4-0.2-0.6-0.4s-0.3-0.3-0.4-0.6c-0.1-0.2-0.2-0.4-0.3-0.6
		c-0.1-0.1-0.1-0.1-0.1-0.1s-0.1,0.2-0.2,0.5s-0.1,0.7-0.2,1.1c-0.1,0.4-0.1,0.8-0.2,1.1s-0.1,0.5-0.2,0.5c-0.3,0.1-0.5,0-0.7-0.2
		s-0.4-0.4-0.6-0.7s-0.3-0.6-0.4-0.9c-0.1-0.3-0.2-0.5-0.3-0.7c-0.1-0.4-0.4-1-0.7-1.9c-0.3-0.9-0.7-1.9-1.1-3.2
		c-0.1-0.3-0.2-0.5-0.3-0.7c-0.1-0.2-0.2-0.5-0.3-0.7c-0.1-0.3-0.2-0.6-0.3-0.9c-0.1-0.3-0.2-0.8-0.3-1.3c0,0,0-0.1,0-0.3
		c0-0.2,0-0.3,0-0.5s0-0.4,0-0.5c0-0.2,0.1-0.2,0.2-0.3c0.1,0,0.2,0,0.3,0.1c0.1,0.1,0.2,0.2,0.3,0.4c0.1,0.1,0.2,0.3,0.2,0.4
		c0.1,0.1,0.1,0.2,0.1,0.3c0,0.2,0.1,0.4,0.1,0.6s0,0.4,0.1,0.5c0,0.2,0.1,0.5,0.2,0.8s0.2,0.6,0.4,1c0.1,0.3,0.3,0.7,0.4,1
		s0.2,0.6,0.3,0.8c0,0,0,0.1,0.1,0.3s0.1,0.4,0.2,0.7s0.2,0.6,0.3,0.9c0.1,0.3,0.2,0.6,0.3,0.9c0.1,0.3,0.2,0.6,0.3,0.8
		c0.1,0.2,0.1,0.4,0.2,0.5c0,0,0,0.1,0.1,0.2c0,0.1,0.1,0.2,0.1,0.3s0.1,0.2,0.1,0.3s0.1,0.1,0.1,0.2c0-0.2,0.1-0.5,0.2-0.9
		s0.1-0.8,0.2-1.2s0.1-0.8,0.2-1.1s0.2-0.5,0.3-0.5c0.1,0,0.2,0,0.3,0c0.1,0,0.2,0,0.3,0c0.2,0,0.2,0.1,0.3,0.2
		c0,0.1,0.1,0.2,0.1,0.3c0.1,0.2,0.2,0.4,0.3,0.6c0.1,0.3,0.3,0.5,0.4,0.8c0.1,0.2,0.3,0.5,0.4,0.6c0.2,0.2,0.3,0.2,0.4,0.2
		s0.1-0.1,0.2-0.3s0.2-0.3,0.4-0.3c0,0,0.1,0,0.2,0C55.7,44.1,55.8,44.2,55.9,44.2z"/>
	<path class="st0" d="M67.4,41.3c0.1,0.3,0,0.6-0.2,1s-0.4,0.9-0.7,1.3c-0.3,0.4-0.7,0.8-1.2,1.2s-1,0.6-1.6,0.7
		c-0.3,0.1-0.5,0.1-0.8,0c-0.3,0-0.6-0.1-0.9-0.2c-0.3-0.1-0.6-0.3-0.9-0.4c-0.3-0.2-0.5-0.4-0.6-0.7c-0.1,0.1-0.1,0.3-0.2,0.5
		s-0.2,0.5-0.3,0.7c-0.1,0.2-0.2,0.5-0.4,0.6c-0.1,0.2-0.3,0.3-0.5,0.3s-0.4,0-0.5-0.2c-0.2-0.2-0.3-0.4-0.4-0.6
		c-0.1-0.2-0.2-0.4-0.3-0.6c-0.1-0.2-0.1-0.3-0.1-0.4c0-0.2-0.1-0.5-0.1-1s0-1,0.1-1.6s0.2-1.1,0.5-1.5c0.2-0.5,0.5-0.7,1-0.8
		c0.2,0,0.3,0,0.4,0.1s0.1,0.3,0.2,0.4l0.1,0.6c0.1,0,0.2,0.1,0.3,0.1c0.1,0,0.2,0,0.2,0c0.1,0,0.1,0.1,0.2,0.1
		c0.1,0.1,0.1,0.2,0.1,0.3s0,0.2,0,0.3s0,0.2,0,0.2c0.1,0.4,0.2,0.7,0.3,1.1c0.1,0.3,0.3,0.6,0.5,0.9c0.2,0.2,0.5,0.4,0.9,0.5
		c0.3,0.1,0.8,0.1,1.3,0c0.6-0.1,1.1-0.4,1.5-0.7c0.4-0.4,0.7-0.7,0.9-1.1c0.2-0.4,0.4-0.7,0.5-1s0.2-0.5,0.3-0.5
		C67.2,41,67.4,41.1,67.4,41.3z M59.6,41.9c0-0.1,0-0.1-0.1-0.2l-0.1-0.1c0-0.1,0-0.1,0-0.2c0,0,0-0.1,0-0.2c0,0,0-0.1-0.1-0.1
		c0,0-0.1,0-0.1-0.1c-0.1,0.1-0.2,0.2-0.3,0.5c-0.1,0.2-0.2,0.5-0.2,0.8c-0.1,0.3-0.1,0.6-0.1,0.9c0,0.3,0,0.6,0,0.7
		c0,0.1,0.1,0.3,0.2,0.5s0.2,0.4,0.3,0.4c0.1-0.6,0.3-1.1,0.4-1.6C59.7,42.9,59.7,42.4,59.6,41.9z"/>
	<path class="st0" d="M72.2,34.8c-0.1,0.3-0.4,0.5-0.7,0.8c-0.3,0.3-0.6,0.5-0.9,0.8c-0.3,0.2-0.6,0.5-0.8,0.6
		c-0.2,0.2-0.3,0.3-0.3,0.3s0.1,0.2,0.2,0.4s0.2,0.4,0.4,0.7c0.1,0.3,0.3,0.6,0.4,0.9c0.2,0.3,0.3,0.6,0.4,0.8
		c0.1,0.1,0.1,0.3,0.2,0.5s0.2,0.4,0.3,0.7c0.1,0.2,0.2,0.4,0.2,0.6c0.1,0.2,0.1,0.3,0.1,0.3c0,0.2,0.1,0.4,0,0.7
		c0,0.2-0.1,0.4-0.3,0.4c-0.1,0-0.2,0-0.3-0.1c-0.1-0.1-0.2-0.1-0.2-0.2c-0.1-0.1-0.1-0.2-0.2-0.2c0-0.1-0.1-0.1-0.1-0.2v-0.1
		c0-0.1,0-0.1,0-0.2c-0.1-0.3-0.2-0.7-0.4-1.2c-0.1-0.2-0.2-0.4-0.3-0.7c-0.2-0.3-0.3-0.6-0.5-1s-0.4-0.8-0.6-1.2
		c-0.1-0.2-0.2-0.3-0.2-0.3c-0.1,0-0.3,0.1-0.5,0.3c-0.2,0.2-0.4,0.4-0.7,0.6c-0.3,0.2-0.5,0.5-0.8,0.8s-0.6,0.5-0.8,0.8
		c-0.2,0.2-0.5,0.4-0.6,0.6c-0.2,0.2-0.3,0.3-0.3,0.3c-0.2,0-0.4,0-0.5-0.1s-0.2-0.2-0.3-0.4c0-0.1,0.1-0.2,0.3-0.5
		c0.2-0.2,0.5-0.5,0.8-0.7c0.3-0.3,0.6-0.6,1-0.9c0.4-0.3,0.7-0.6,1-0.8s0.7-0.5,1.1-0.9c-0.3-0.6-0.5-1.2-0.7-1.7
		c-0.2-0.4-0.3-0.8-0.5-1.2c-0.1-0.4-0.2-0.6-0.2-0.6c0-0.2,0-0.3,0-0.4c0.1-0.1,0.1-0.2,0.2-0.2c0.2,0,0.3,0.1,0.4,0.3
		c0.3,0.7,0.6,1.4,0.9,2c0.3,0.6,0.5,1,0.7,1.4c0.1-0.1,0.3-0.2,0.6-0.4c0.3-0.2,0.6-0.4,0.9-0.7c0.3-0.3,0.6-0.4,0.8-0.6
		c0.3-0.2,0.4-0.3,0.4-0.3c0.1,0,0.1,0,0.2,0.1C72.2,34.7,72.2,34.7,72.2,34.8z"/>
	<path class="st0" d="M89.7,37.6c0,0.1,0,0.1-0.1,0.2c-0.1,0.1-0.1,0.2-0.1,0.2c0,0.2,0.1,0.3,0.2,0.4c0.1,0.1,0.2,0.3,0.2,0.5
		s0,0.3-0.1,0.3s-0.2,0.1-0.3,0.1s-0.2,0.1-0.3,0.2c-0.1,0-0.2,0-0.3-0.2c-0.1-0.1-0.1-0.1-0.2-0.2c0,0,0,0-0.1,0.1
		s-0.2,0.2-0.3,0.3c-0.2,0.1-0.4,0.3-0.7,0.4c-0.3,0.1-0.7,0.3-1.1,0.4c-0.4,0.1-0.8,0.1-1.1,0s-0.6-0.3-0.9-0.5s-0.5-0.5-0.6-0.9
		c-0.2-0.3-0.3-0.7-0.4-1.1c-0.1-0.3-0.1-0.7-0.1-1s0.1-0.6,0.2-0.9s0.2-0.5,0.4-0.7c0.2-0.2,0.4-0.3,0.7-0.4c0.3-0.1,0.6,0,0.9,0.1
		c0.3,0.1,0.6,0.2,0.9,0.4s0.6,0.4,0.9,0.6c-0.4-1.1-0.8-2.1-1.2-2.9c-0.2-0.4-0.3-0.7-0.4-1.1c-0.1-0.4-0.3-0.7-0.4-1
		s-0.2-0.5-0.3-0.7C85,30,85,29.9,85,29.8s-0.1-0.2-0.1-0.5c-0.1-0.2-0.1-0.4-0.2-0.7c-0.1-0.2-0.1-0.5-0.2-0.7s-0.1-0.3-0.1-0.4
		c-0.1-0.1-0.2-0.3-0.3-0.5c-0.1-0.2-0.2-0.3-0.2-0.3c0-0.1,0-0.2,0.1-0.3c0-0.1,0.1-0.2,0.2-0.2s0.2,0,0.2,0c0.1,0,0.1,0,0.2,0.1
		s0.1,0.2,0.2,0.3c0.1,0.1,0.2,0.3,0.3,0.6c0,0.1,0.1,0.4,0.3,0.8c0.2,0.4,0.3,0.8,0.5,1.3s0.3,0.9,0.5,1.3s0.3,0.7,0.4,0.9
		c0.2,0.5,0.4,1.1,0.7,1.7c0.3,0.6,0.5,1.2,0.8,1.8s0.5,1.1,0.7,1.5c0.2,0.4,0.4,0.7,0.5,0.8c0,0.1,0.1,0.1,0.2,0.1
		C89.6,37.5,89.7,37.5,89.7,37.6z M88.2,38.4c0,0-0.2-0.2-0.4-0.5c-0.2-0.3-0.5-0.6-0.8-0.9s-0.7-0.6-1.1-0.8
		c-0.4-0.2-0.7-0.3-1-0.3c-0.2,0.1-0.4,0.3-0.5,0.7c-0.1,0.4-0.1,0.9,0,1.3c0.1,0.5,0.4,0.9,0.8,1.2s0.8,0.4,1.2,0.3
		c0.3-0.1,0.7-0.2,1-0.4C87.9,38.7,88.1,38.6,88.2,38.4z"/>
	<path class="st0" d="M95,35.2c0.1,0.3,0.1,0.6,0.1,0.9s-0.1,0.6-0.2,0.8s-0.2,0.5-0.4,0.6c-0.2,0.2-0.4,0.3-0.6,0.3
		c-0.4,0.1-0.7,0-1-0.1c-0.3-0.2-0.5-0.4-0.7-0.7s-0.3-0.6-0.4-0.9s-0.2-0.5-0.2-0.7c-0.1-0.3-0.1-0.6-0.1-0.9s0.1-0.7,0.1-1
		c0.1-0.3,0.2-0.6,0.3-0.8c0.1-0.2,0.3-0.4,0.5-0.4c0,0,0.1,0,0.2,0s0.2,0,0.3,0.1c0.1,0,0.2,0.1,0.3,0.2c0.1,0.1,0.2,0.2,0.2,0.3
		c0.2,0,0.3,0,0.5,0.1c0.2,0.1,0.3,0.1,0.3,0.2c0.2,0.3,0.3,0.7,0.5,1.1C94.9,34.7,94.9,35,95,35.2z M93.9,35.1
		c0-0.2-0.1-0.4-0.2-0.7c-0.1-0.2-0.2-0.4-0.4-0.7h-0.1c-0.1,0-0.1,0-0.1,0H93c-0.2,0-0.3,0.1-0.4,0.2c-0.1,0.1-0.1,0.3-0.1,0.4
		c0,0.2,0,0.3,0,0.5s0,0.3,0.1,0.5c0,0.2,0.1,0.3,0.1,0.5c0.1,0.2,0.1,0.4,0.2,0.5c0.1,0.2,0.2,0.3,0.3,0.4c0.1,0.1,0.2,0.1,0.4,0.1
		s0.2-0.1,0.3-0.3c0.1-0.2,0.1-0.4,0.1-0.6s0-0.4,0-0.6C94,35.3,94,35.1,93.9,35.1z"/>
	<path class="st0" d="M103.7,35.9V36c0,0.1,0,0.2-0.1,0.4c0,0.1-0.1,0.2-0.2,0.3c-0.1,0.2-0.3,0.3-0.5,0.5s-0.5,0.4-0.8,0.5
		c-0.3,0.2-0.7,0.3-1.2,0.4c-0.3,0.1-0.7,0.1-1,0c-0.3-0.1-0.7-0.2-1-0.5c-0.3-0.2-0.6-0.6-0.8-1c-0.2-0.4-0.4-0.9-0.6-1.5
		c-0.1-0.6-0.2-1.1-0.1-1.6c0-0.5,0.1-1,0.3-1.4c0.1-0.4,0.3-0.8,0.6-1c0.2-0.3,0.5-0.4,0.7-0.5c0.2,0,0.5-0.1,0.7,0
		c0.3,0,0.5,0.1,0.7,0.2s0.4,0.2,0.6,0.4c0.2,0.2,0.2,0.3,0.3,0.5c0,0.2,0,0.5-0.1,0.7c-0.1,0.3-0.3,0.5-0.6,0.8
		c-0.2,0.3-0.5,0.5-0.7,0.6c-0.2,0.2-0.4,0.3-0.6,0.3c-0.1,0-0.2,0-0.3-0.1c-0.1-0.1-0.1-0.2-0.2-0.3c0-0.2,0-0.4,0.2-0.5
		c0.2-0.2,0.3-0.3,0.5-0.4c0.2-0.1,0.4-0.3,0.5-0.5c0.2-0.2,0.2-0.4,0.2-0.6c0,0-0.1-0.1-0.2-0.2s-0.3-0.1-0.6,0
		c-0.1,0-0.3,0.1-0.4,0.4c-0.2,0.2-0.3,0.5-0.4,0.8s-0.2,0.7-0.2,1.1c0,0.4,0,0.8,0.1,1.3c0.1,0.4,0.2,0.7,0.4,1
		c0.2,0.3,0.4,0.5,0.7,0.7c0.3,0.2,0.5,0.3,0.9,0.3c0.3,0.1,0.6,0,0.9,0c0.2,0,0.4-0.1,0.7-0.3c0.2-0.1,0.4-0.3,0.6-0.5
		s0.4-0.3,0.5-0.4c0.1-0.1,0.2-0.2,0.3-0.2c0,0,0.1,0,0.2,0C103.6,35.8,103.6,35.9,103.7,35.9z"/>
	<path class="st0" d="M109.9,34c0.1,0.2,0,0.5-0.1,0.7s-0.3,0.4-0.5,0.6s-0.5,0.3-0.8,0.5c-0.3,0.1-0.6,0.2-0.8,0.3
		s-0.5,0.2-0.7,0.2c-0.2,0.1-0.3,0.1-0.4,0.1c-0.3,0.1-0.6,0.1-0.8,0c-0.2-0.1-0.3-0.2-0.4-0.5c0-0.1,0-0.2,0-0.2
		c0-0.1,0.1-0.1,0.2-0.1c0,0,0.1,0,0.2,0s0.2,0,0.2,0c0.1,0,0.2-0.1,0.5-0.1c0.3-0.1,0.6-0.2,1-0.3c0.3-0.1,0.6-0.3,0.9-0.4
		c0.3-0.1,0.4-0.3,0.3-0.5c0,0-0.2-0.1-0.5-0.2c-0.3-0.1-0.8-0.2-1.5-0.5c-0.5-0.2-0.9-0.4-1.2-0.7c-0.3-0.3-0.4-0.6-0.5-1.1
		c-0.1-0.3-0.1-0.6,0-0.8c0.1-0.2,0.2-0.4,0.5-0.6c0.2-0.2,0.5-0.3,0.8-0.4s0.6-0.2,1-0.3c0,0,0.1,0,0.3,0c0.2,0,0.3,0,0.5,0
		s0.4,0.1,0.5,0.1c0.2,0.1,0.2,0.2,0.3,0.3v0.1c0,0.1-0.1,0.2-0.2,0.4c0,0-0.1,0-0.2,0s-0.2,0-0.4,0c-0.1,0-0.3,0-0.4,0
		s-0.3,0-0.4,0c-0.4,0.1-0.7,0.2-0.9,0.4c-0.2,0.2-0.3,0.5-0.2,0.9c0,0.2,0.2,0.3,0.3,0.5c0.2,0.1,0.4,0.2,0.7,0.3
		c0.3,0.1,0.5,0.2,0.8,0.3c0.3,0.1,0.6,0.2,0.8,0.3c0.3,0.1,0.5,0.2,0.7,0.4C109.7,33.6,109.9,33.7,109.9,34z"/>
	<path class="st0" d="M120.4,24.4c0,0,0,0.1-0.1,0.2s-0.2,0.2-0.3,0.3c-0.1,0.1-0.2,0.2-0.4,0.3c-0.1,0.1-0.2,0.2-0.3,0.2
		s-0.1,0-0.2,0c-0.1,0-0.2,0-0.3,0s-0.2-0.1-0.3-0.1c-0.1-0.1-0.1-0.2-0.2-0.3c0-0.2,0-0.4,0.1-0.6s0.3-0.3,0.5-0.4c0,0,0.1,0,0.3,0
		s0.3,0,0.5,0s0.3,0.1,0.5,0.1C120.3,24.2,120.4,24.3,120.4,24.4z M122.9,32.3c0,0.1,0,0.2-0.2,0.3c-0.1,0.1-0.2,0.2-0.3,0.2
		s-0.3,0-0.4-0.2c-0.2-0.2-0.3-0.4-0.4-0.6c-0.1-0.2-0.3-0.4-0.4-0.7c-0.1-0.2-0.2-0.4-0.2-0.4c-0.1-0.1-0.2-0.3-0.3-0.5
		s-0.2-0.4-0.3-0.5c-0.1-0.2-0.2-0.3-0.3-0.5c-0.1-0.1-0.1-0.2-0.1-0.2c0-0.2,0-0.4,0-0.6s0.1-0.3,0.2-0.3c0.1,0,0.3,0,0.5,0.2
		s0.4,0.4,0.6,0.7c0.2,0.3,0.4,0.6,0.6,0.9c0.2,0.3,0.4,0.7,0.5,1c0.2,0.3,0.3,0.6,0.4,0.8C122.8,32.1,122.8,32.2,122.9,32.3z"/>
	<path class="st0" d="M128.3,22.9c-0.1,0.3-0.4,0.5-0.7,0.8s-0.6,0.5-0.9,0.8c-0.3,0.2-0.6,0.5-0.8,0.6c-0.2,0.2-0.3,0.3-0.3,0.3
		s0.1,0.2,0.2,0.4c0.1,0.2,0.2,0.4,0.4,0.7c0.1,0.3,0.3,0.6,0.4,0.9c0.2,0.3,0.3,0.6,0.4,0.8c0.1,0.1,0.1,0.3,0.2,0.5
		c0.1,0.2,0.2,0.4,0.3,0.7c0.1,0.2,0.2,0.4,0.2,0.6c0.1,0.2,0.1,0.3,0.1,0.3c0,0.2,0.1,0.4,0,0.7c0,0.2-0.1,0.4-0.3,0.4
		c-0.1,0-0.2,0-0.3-0.1s-0.2-0.1-0.2-0.2c-0.1-0.1-0.1-0.2-0.2-0.2s-0.1-0.1-0.1-0.2v-0.1c0-0.1,0-0.1,0-0.2
		c-0.1-0.3-0.2-0.7-0.4-1.2c-0.1-0.2-0.2-0.4-0.3-0.7c-0.2-0.3-0.3-0.6-0.5-1s-0.4-0.8-0.6-1.2c-0.1-0.2-0.2-0.3-0.2-0.3
		c-0.1,0-0.3,0.1-0.5,0.3c-0.2,0.2-0.4,0.4-0.7,0.6s-0.5,0.5-0.8,0.8s-0.6,0.5-0.8,0.8c-0.2,0.2-0.5,0.4-0.6,0.6
		c-0.2,0.2-0.3,0.3-0.3,0.3c-0.2,0-0.4,0-0.5-0.1s-0.2-0.2-0.3-0.4c0-0.1,0.1-0.2,0.3-0.5c0.2-0.2,0.5-0.5,0.8-0.7
		c0.3-0.3,0.6-0.6,1-0.9s0.7-0.6,1-0.8c0.3-0.2,0.7-0.5,1.1-0.9c-0.3-0.6-0.5-1.2-0.7-1.7c-0.2-0.4-0.3-0.8-0.5-1.2
		c-0.1-0.4-0.2-0.6-0.2-0.6c0-0.2,0-0.3,0-0.4c0.1-0.1,0.1-0.2,0.2-0.2c0.2,0,0.3,0.1,0.4,0.3c0.3,0.7,0.6,1.4,0.9,2
		c0.3,0.6,0.5,1,0.7,1.4c0.1-0.1,0.3-0.2,0.6-0.4c0.3-0.2,0.6-0.4,0.9-0.7c0.3-0.2,0.6-0.4,0.8-0.6c0.3-0.2,0.4-0.3,0.4-0.3
		c0.1,0,0.1,0,0.2,0.1C128.2,22.8,128.2,22.9,128.3,22.9z"/>
	<path class="st0" d="M149.7,23.9c0.1,0.3,0,0.6-0.2,1s-0.4,0.9-0.7,1.3s-0.7,0.8-1.2,1.2c-0.5,0.4-1,0.6-1.6,0.7
		c-0.3,0.1-0.5,0.1-0.8,0c-0.3,0-0.6-0.1-0.9-0.2c-0.3-0.1-0.6-0.3-0.9-0.4c-0.3-0.2-0.5-0.4-0.6-0.7c-0.1,0.1-0.1,0.3-0.2,0.5
		c-0.1,0.2-0.2,0.5-0.3,0.7s-0.2,0.5-0.4,0.6c-0.1,0.2-0.3,0.3-0.5,0.3s-0.4,0-0.5-0.2c-0.2-0.2-0.3-0.4-0.4-0.6
		c-0.1-0.2-0.2-0.4-0.3-0.6s-0.1-0.3-0.1-0.4c0-0.2-0.1-0.5-0.1-1s0-1,0.1-1.6s0.2-1.1,0.5-1.5c0.2-0.5,0.5-0.7,1-0.8
		c0.2,0,0.3,0,0.4,0.1c0.1,0.1,0.1,0.3,0.2,0.4l0.1,0.6c0.1,0,0.2,0.1,0.3,0.1s0.2,0,0.2,0c0.1,0,0.1,0.1,0.2,0.1
		c0.1,0.1,0.1,0.2,0.1,0.3c0,0.1,0,0.2,0,0.3c0,0.1,0,0.2,0,0.2c0.1,0.4,0.2,0.7,0.3,1.1c0.1,0.3,0.3,0.6,0.5,0.9
		c0.2,0.2,0.5,0.4,0.9,0.5c0.3,0.1,0.8,0.1,1.3,0c0.6-0.1,1.1-0.4,1.5-0.7s0.7-0.7,0.9-1.1s0.4-0.7,0.5-1s0.2-0.5,0.3-0.5
		C149.5,23.6,149.6,23.7,149.7,23.9z M141.9,24.5c0-0.1,0-0.1-0.1-0.2l-0.1-0.1c0-0.1,0-0.1,0-0.2c0,0,0-0.1,0-0.2
		c0,0,0-0.1-0.1-0.1c0,0-0.1,0-0.1-0.1c-0.1,0.1-0.2,0.2-0.3,0.5c-0.1,0.2-0.2,0.5-0.2,0.8s-0.1,0.6-0.1,0.9s0,0.6,0,0.7
		s0.1,0.3,0.2,0.5c0.1,0.2,0.2,0.4,0.3,0.4c0.1-0.6,0.3-1.1,0.4-1.6C142,25.5,142,25,141.9,24.5z"/>
	<path class="st0" d="M153.5,27.3c-0.1,0.1-0.2,0.1-0.3,0.1s-0.3-0.1-0.5-0.3c-0.2-0.2-0.4-0.5-0.6-0.8c-0.2-0.3-0.4-0.7-0.6-1.1
		c-0.2-0.4-0.4-0.8-0.6-1.2c-0.2-0.4-0.3-0.7-0.4-0.9c-0.1-0.2-0.2-0.4-0.2-0.4c0-0.1-0.1-0.2-0.2-0.4s-0.2-0.6-0.4-1.1
		s-0.4-1.2-0.7-2c-0.3-0.8-0.6-1.8-0.9-3c0-0.1,0-0.3,0-0.5s0.1-0.3,0.2-0.4c0.2,0,0.4,0.1,0.5,0.3c0.2,0.2,0.3,0.6,0.5,1
		c0.1,0.4,0.3,0.8,0.4,1.2c0.1,0.4,0.2,0.8,0.4,1.1c0.2,0.4,0.3,0.9,0.4,1.2c0.1,0.4,0.3,0.7,0.4,1.1c0.1,0.4,0.3,0.7,0.4,1.1
		c0.2,0.4,0.4,0.8,0.6,1.3l1.6,3.4C153.6,27.2,153.6,27.3,153.5,27.3z"/>
	<path class="st0" d="M158.1,26.4c-0.1,0.1-0.2,0.1-0.3,0.1s-0.3-0.1-0.5-0.3c-0.2-0.2-0.4-0.5-0.6-0.8c-0.2-0.3-0.4-0.7-0.6-1.1
		c-0.2-0.4-0.4-0.8-0.6-1.2c-0.2-0.4-0.3-0.7-0.4-0.9c-0.1-0.2-0.2-0.4-0.2-0.4c0-0.1-0.1-0.2-0.2-0.4c-0.1-0.2-0.2-0.6-0.4-1.1
		s-0.4-1.2-0.7-2c-0.3-0.8-0.6-1.8-0.9-3c0-0.1,0-0.3,0-0.5s0.1-0.3,0.2-0.4c0.2,0,0.4,0.1,0.5,0.3c0.2,0.2,0.3,0.6,0.5,1
		c0.1,0.4,0.3,0.8,0.4,1.2c0.1,0.4,0.2,0.8,0.4,1.1c0.2,0.4,0.3,0.9,0.4,1.2c0.1,0.4,0.3,0.7,0.4,1.1c0.1,0.4,0.3,0.7,0.4,1.1
		c0.2,0.4,0.4,0.8,0.6,1.3l1.6,3.4C158.2,26.2,158.1,26.3,158.1,26.4z"/>
	<path class="st0" d="M178,20.4c0,0.1,0,0.2,0,0.3c-0.1,0.1-0.1,0.2-0.2,0.3c-0.1,0.1-0.2,0.1-0.3,0.2s-0.2,0.1-0.3,0.1
		c-0.3,0.1-0.6,0-0.9-0.3c-0.3-0.3-0.5-0.6-0.8-1c-0.2-0.4-0.4-0.7-0.5-1c-0.1-0.3-0.2-0.5-0.2-0.5c-0.1,0.2-0.1,0.5-0.1,0.9
		s0,0.8-0.1,1.2c0,0.4-0.1,0.8-0.3,1.1c-0.1,0.3-0.3,0.5-0.6,0.6c-0.1,0-0.3,0-0.5-0.2c-0.2-0.1-0.3-0.3-0.5-0.6
		c-0.2-0.2-0.3-0.5-0.5-0.9s-0.4-0.6-0.5-0.9c-0.2-0.3-0.3-0.6-0.5-0.9s-0.3-0.5-0.4-0.6c0,0.2-0.1,0.5,0,0.9c0,0.4,0,0.8,0.1,1.2
		c0,0.4,0.1,0.8,0.1,1.2c0.1,0.4,0.1,0.8,0.2,1.1c0,0.2,0,0.4-0.1,0.5s-0.2,0.2-0.3,0.2c-0.2,0-0.3,0-0.5-0.2s-0.4-0.4-0.6-0.7
		c-0.2-0.3-0.5-0.6-0.7-1s-0.4-0.8-0.6-1.2c-0.2-0.4-0.4-0.8-0.5-1.1c-0.1-0.4-0.2-0.7-0.3-0.9c0-0.2-0.1-0.4-0.1-0.5s0-0.3,0-0.4
		c0-0.1,0-0.2,0-0.2s0-0.1-0.1-0.1c0,0,0,0-0.1-0.1c0,0,0-0.1,0.1-0.2c0.1-0.1,0.2-0.2,0.3-0.2c0.2,0,0.3,0,0.4,0
		c0.1,0.1,0.1,0.2,0.2,0.3c0,0,0,0.1,0,0.2c0,0.1,0,0.3,0.1,0.6c0,0.2,0.1,0.5,0.3,0.9s0.3,0.8,0.5,1.2s0.4,0.8,0.6,1.1
		c0.2,0.3,0.3,0.5,0.4,0.6c0-0.1,0-0.1,0-0.2s0-0.1,0-0.2l-0.1-1.8c0-0.5,0-1,0.1-1.5s0.2-1,0.3-1.3c0-0.1,0.1-0.2,0.2-0.2
		s0.2,0,0.3,0.1c0.3,0.4,0.6,0.7,0.8,1.1s0.4,0.7,0.6,1.1c0.2,0.4,0.4,0.7,0.6,1.1c0.2,0.4,0.5,0.7,0.8,1c0.1-0.2,0.2-0.5,0.2-1
		c0.1-0.5,0.2-0.9,0.3-1.4s0.2-0.9,0.3-1.2c0.1-0.4,0.2-0.5,0.3-0.6c0,0,0.1,0,0.2,0c0.1,0,0.2,0,0.2,0c0.1,0,0.3,0.1,0.4,0.4
		c0.1,0.3,0.3,0.6,0.4,1c0.1,0.4,0.3,0.8,0.4,1.1c0.1,0.4,0.3,0.7,0.4,0.8c0.1,0.1,0.2,0.2,0.3,0.4c0.1,0.1,0.3,0.2,0.4,0.3
		C177.6,20.2,177.8,20.3,178,20.4z"/>
	<path class="st0" d="M185.6,18.6v0.1c0,0.1,0,0.2-0.1,0.4c0,0.1-0.1,0.2-0.2,0.3c-0.1,0.2-0.3,0.3-0.5,0.5
		c-0.2,0.2-0.5,0.4-0.8,0.5c-0.3,0.2-0.7,0.3-1.2,0.4c-0.3,0.1-0.7,0.1-1,0s-0.7-0.2-1-0.5c-0.3-0.2-0.6-0.6-0.8-1
		c-0.3-0.4-0.4-0.9-0.6-1.5c-0.1-0.6-0.2-1.1-0.1-1.6c0-0.5,0.1-1,0.3-1.4s0.3-0.8,0.6-1c0.2-0.3,0.5-0.4,0.7-0.5
		c0.2,0,0.5-0.1,0.7,0c0.3,0,0.5,0.1,0.7,0.2c0.2,0.1,0.4,0.2,0.6,0.4c0.2,0.2,0.2,0.3,0.3,0.5c0,0.2,0,0.5-0.1,0.7
		c-0.1,0.3-0.3,0.5-0.6,0.8c-0.2,0.3-0.5,0.5-0.7,0.6c-0.2,0.2-0.4,0.3-0.6,0.3c-0.1,0-0.2,0-0.3-0.1s-0.1-0.2-0.2-0.3
		c0-0.2,0-0.4,0.2-0.5c0.2-0.2,0.3-0.3,0.5-0.4c0.2-0.1,0.4-0.3,0.5-0.5c0.2-0.2,0.2-0.4,0.2-0.6c0,0-0.1-0.1-0.2-0.2
		c-0.1-0.1-0.3-0.1-0.6,0c-0.1,0-0.3,0.1-0.4,0.4c-0.2,0.2-0.3,0.5-0.4,0.8c-0.1,0.3-0.2,0.7-0.2,1.1s0,0.8,0.1,1.3
		c0.1,0.4,0.2,0.7,0.4,1c0.2,0.3,0.4,0.5,0.7,0.7c0.3,0.2,0.5,0.3,0.9,0.3c0.3,0.1,0.6,0,0.9,0c0.2,0,0.4-0.1,0.7-0.3
		c0.2-0.1,0.4-0.3,0.6-0.5c0.2-0.2,0.4-0.3,0.5-0.4s0.2-0.2,0.3-0.2c0,0,0.1,0,0.2,0C185.6,18.5,185.6,18.5,185.6,18.6z"/>
	<path class="st0" d="M196.9,13.9c0.1,0.3,0,0.6-0.2,1s-0.4,0.9-0.7,1.3c-0.3,0.4-0.7,0.8-1.2,1.2s-1,0.6-1.6,0.7
		c-0.3,0.1-0.5,0.1-0.8,0c-0.3,0-0.6-0.1-0.9-0.2c-0.3-0.1-0.6-0.3-0.9-0.4c-0.3-0.2-0.5-0.4-0.6-0.7c-0.1,0.1-0.1,0.3-0.2,0.5
		c-0.1,0.2-0.2,0.5-0.3,0.7c-0.1,0.2-0.2,0.5-0.4,0.6c-0.1,0.2-0.3,0.3-0.5,0.3s-0.4,0-0.5-0.2c-0.2-0.2-0.3-0.4-0.4-0.6
		c-0.1-0.2-0.2-0.4-0.3-0.6c-0.1-0.2-0.1-0.3-0.1-0.4c0-0.2-0.1-0.5-0.1-1s0-1,0.1-1.6c0.1-0.6,0.2-1.1,0.5-1.5
		c0.2-0.5,0.5-0.7,1-0.8c0.2,0,0.3,0,0.4,0.1c0.1,0.1,0.1,0.3,0.2,0.4l0.1,0.6c0.1,0,0.2,0.1,0.3,0.1s0.2,0,0.2,0
		c0.1,0,0.1,0.1,0.2,0.1c0.1,0.1,0.1,0.2,0.1,0.3c0,0.1,0,0.2,0,0.3c0,0.1,0,0.2,0,0.2c0.1,0.4,0.2,0.7,0.3,1.1
		c0.1,0.3,0.3,0.6,0.5,0.9c0.2,0.2,0.5,0.4,0.9,0.5c0.3,0.1,0.8,0.1,1.3,0c0.6-0.1,1.1-0.4,1.5-0.7c0.4-0.4,0.7-0.7,0.9-1.1
		c0.2-0.4,0.4-0.7,0.5-1s0.2-0.5,0.3-0.5C196.8,13.6,196.9,13.7,196.9,13.9z M189.2,14.5c0-0.1,0-0.1-0.1-0.2l-0.1-0.1
		c0-0.1,0-0.1,0-0.2c0,0,0-0.1,0-0.2c0,0,0-0.1-0.1-0.1c0,0-0.1,0-0.1-0.1c-0.1,0.1-0.2,0.2-0.3,0.5c0,0.3-0.1,0.6-0.1,0.9
		c-0.1,0.3-0.1,0.6-0.1,0.9c0,0.3,0,0.6,0,0.7s0.1,0.3,0.2,0.5c0.1,0.2,0.2,0.4,0.3,0.4c0.1-0.6,0.3-1.1,0.4-1.6
		C189.3,15.5,189.3,15,189.2,14.5z"/>
	<path class="st0" d="M204,14.3c0,0.1,0,0.2,0,0.3c0,0.1-0.1,0.2-0.2,0.3c-0.1,0.1-0.1,0.2-0.2,0.2c-0.1,0.1-0.2,0.1-0.2,0.1
		c-0.2,0.1-0.6,0.1-1,0c-0.4,0-0.7-0.1-1-0.3s-0.6-0.4-0.8-0.7c-0.3-0.3-0.6-0.8-0.9-1.4c0,0.7-0.1,1.3-0.2,2
		c-0.1,0.7-0.3,1.3-0.6,1.9l-0.1,0.1c-0.1,0-0.2,0-0.4-0.1c-0.1-0.1-0.2-0.2-0.2-0.3s-0.1-0.3-0.2-0.7c-0.1-0.4-0.2-0.8-0.3-1.2
		s-0.2-0.9-0.4-1.4c-0.1-0.5-0.2-0.8-0.3-1.1c0-0.1-0.1-0.3-0.1-0.6c0-0.2,0-0.5,0-0.6c0,0,0-0.1,0.1-0.2c0.1-0.1,0.2-0.2,0.3-0.2
		s0.2,0,0.2,0.2c0,0.1,0.1,0.3,0.1,0.4l0.7,3.4c0,0.1,0,0.2,0.1,0.3c0,0.1,0.1,0.2,0.2,0.3c0.1-0.4,0.1-0.8,0.2-1.3
		c0-0.5,0.1-1,0.1-1.4c0-0.5,0.1-0.8,0.2-1.2c0.1-0.3,0.2-0.5,0.3-0.5s0.3,0,0.4,0s0.2,0.1,0.3,0.3c0.2,0.4,0.3,0.8,0.4,1.1
		c0.1,0.3,0.2,0.6,0.3,0.8c0.1,0.2,0.3,0.5,0.4,0.7c0.2,0.2,0.4,0.4,0.6,0.5c0.2,0.1,0.5,0.2,0.8,0.3c0.3,0,0.5,0,0.7,0
		c0.1,0,0.2-0.1,0.3-0.1c0.1-0.1,0.2-0.1,0.2-0.1c0.1,0,0.1,0,0.2,0.1C204,14.2,204,14.2,204,14.3z"/>
	<path class="st0" d="M39.8,59.8C39.8,59.8,39.8,59.9,39.8,59.8c0.1,0.2,0.1,0.3,0.2,0.3c0,0.1,0,0.2-0.1,0.2h-0.1h-0.1
		c-0.3-0.1-0.6-0.1-1-0.2c-0.4-0.1-0.8-0.1-1.3,0s-0.9,0.4-1.1,0.8c-0.2,0.5-0.4,1-0.4,1.5s-0.1,1.1,0,1.6c0.1,0.5,0.1,0.9,0.1,1.1
		c0,0.2,0.1,0.4,0.2,0.7c0.1,0.3,0.3,0.7,0.4,1c0.2,0.3,0.3,0.6,0.5,0.9s0.3,0.4,0.5,0.5c0.1,0,0.2-0.1,0.5-0.1
		c0.2-0.1,0.4-0.1,0.5-0.1c0.2-0.1,0.5-0.1,0.7-0.1s0.5,0,0.7-0.1c0.1,0,0.1,0,0.3-0.1c0.1,0,0.2,0,0.4-0.1c0.1,0,0.2,0,0.3,0
		s0.1,0.1,0.2,0.1c0,0.1,0,0.1-0.1,0.2s-0.2,0.2-0.3,0.2c-0.1,0.1-0.2,0.1-0.4,0.2c-0.1,0-0.2,0.1-0.3,0.1s-0.2,0-0.3,0
		s-0.2,0-0.4,0c-0.1,0-0.3,0-0.4,0.1c-0.1,0-0.2,0-0.3,0.1c-0.2,0-0.4,0.1-0.4,0.2s0,0.2,0,0.3c0,0.2,0.2,0.5,0.5,0.8s0.6,0.7,0.9,1
		c0.3,0.4,0.6,0.8,0.9,1.2c0.3,0.4,0.5,0.8,0.6,1.2c0,0.1,0,0.2,0,0.4c0,0.2,0,0.4,0,0.6s-0.1,0.4-0.2,0.6c-0.1,0.2-0.2,0.3-0.3,0.3
		s-0.2,0-0.3,0s-0.2-0.1-0.2-0.3c0-0.2,0-0.5,0-0.7c0.1-0.2,0.1-0.5,0-0.7c0-0.1-0.1-0.3-0.3-0.5c-0.2-0.3-0.4-0.5-0.6-0.8
		c-0.2-0.3-0.5-0.6-0.7-1c-0.3-0.3-0.5-0.6-0.7-0.9s-0.4-0.5-0.6-0.7c-0.2-0.2-0.2-0.3-0.3-0.3c-0.3,0.2-0.5,0.3-0.8,0.5
		s-0.5,0.4-0.7,0.6c-0.1,0.1-0.2,0.2-0.2,0.2c-0.1,0-0.3,0-0.4-0.1c-0.1-0.1-0.2-0.2-0.3-0.3c0-0.2,0-0.3,0.1-0.4s0.1-0.2,0.2-0.3
		c0.1-0.1,0.3-0.2,0.6-0.4c0.3-0.1,0.5-0.3,0.8-0.4c0.1,0,0.2-0.1,0.3-0.1s0.1-0.1,0.1-0.2c-0.1-0.1-0.2-0.3-0.3-0.5
		s-0.3-0.5-0.4-0.8c-0.1-0.3-0.3-0.7-0.4-1.1c-0.1-0.4-0.3-0.8-0.4-1.3C35.1,64.2,35,63.6,35,63c0-0.6,0.1-1.2,0.2-1.7
		c0.2-0.5,0.4-1,0.8-1.4c0.3-0.4,0.8-0.6,1.3-0.8c0.3-0.1,0.6-0.1,0.9-0.1c0.3,0,0.6,0,0.9,0c0.3,0,0.5,0.1,0.7,0.2
		C39.6,59.5,39.8,59.6,39.8,59.8z"/>
	<path class="st0" d="M47.3,69.4c0.1,0.3,0.1,0.6,0.1,0.9s-0.1,0.6-0.2,0.8c-0.1,0.2-0.2,0.5-0.4,0.6c-0.2,0.2-0.4,0.3-0.6,0.3
		c-0.4,0.1-0.7,0-1-0.1c-0.3-0.2-0.5-0.4-0.7-0.7c-0.2-0.3-0.3-0.6-0.4-0.9s-0.2-0.5-0.2-0.7c-0.1-0.3-0.1-0.6-0.1-0.9
		s0.1-0.7,0.1-1c0.1-0.3,0.2-0.6,0.3-0.8c0.1-0.2,0.3-0.4,0.5-0.4c0,0,0.1,0,0.2,0s0.2,0,0.3,0.1c0.1,0,0.2,0.1,0.3,0.2
		s0.2,0.2,0.2,0.3c0.2,0,0.3,0,0.5,0.1s0.3,0.1,0.3,0.2c0.2,0.3,0.3,0.7,0.5,1.1C47.2,68.9,47.3,69.2,47.3,69.4z M46.3,69.3
		c0-0.2-0.1-0.4-0.2-0.7c-0.1-0.2-0.2-0.5-0.4-0.7h-0.1c-0.1,0-0.1,0-0.1,0h-0.1c-0.2,0-0.3,0.1-0.4,0.2c-0.1,0.1-0.1,0.3-0.1,0.4
		c0,0.2,0,0.3,0,0.5s0,0.3,0.1,0.5c0,0.2,0.1,0.3,0.1,0.5c0.1,0.2,0.1,0.4,0.2,0.5c0.1,0.2,0.2,0.3,0.3,0.4S45.8,71,46,71
		c0.1,0,0.2-0.1,0.3-0.3c0.1-0.2,0.1-0.4,0.1-0.6s0-0.4,0-0.6C46.3,69.5,46.3,69.3,46.3,69.3z"/>
	<path class="st0" d="M54.2,66c0,0.1,0,0.2-0.1,0.3c-0.1,0.1-0.2,0.2-0.3,0.2c-0.1,0.1-0.2,0.1-0.3,0.2c-0.1,0-0.2,0.1-0.3,0.1
		c-0.2,0-0.4,0.1-0.4,0c-0.1,0-0.1,0-0.2,0c-0.4,0.1-0.6,0.2-0.8,0.3c-0.2,0.1-0.4,0.2-0.4,0.4c-0.1,0.2-0.1,0.3-0.1,0.5
		s0,0.4,0.1,0.7c0.1,0.5,0.2,0.8,0.3,1.1c0.1,0.3,0.2,0.5,0.2,0.6c0.1,0.2,0.1,0.3,0.2,0.4c0.1,0.1,0.1,0.2,0.1,0.3
		c0,0.1,0,0.2-0.1,0.4c-0.1,0.2-0.2,0.2-0.3,0.3c-0.2,0-0.4-0.1-0.6-0.4c-0.2-0.3-0.4-0.6-0.6-1c-0.2-0.4-0.3-0.8-0.5-1.2
		c-0.1-0.4-0.2-0.7-0.3-0.9c-0.1-0.2-0.1-0.5-0.1-0.7s0-0.4,0-0.6s0.1-0.3,0.2-0.4c0.1-0.1,0.1-0.2,0.2-0.2c0.1,0,0.1,0,0.2,0
		c0.1,0,0.1,0.1,0.1,0.1c0,0.1,0.1,0.1,0.1,0.2c0,0,0.1,0.1,0.2,0c0.1,0,0.3-0.1,0.6-0.3c0.3-0.2,0.6-0.3,1-0.4s0.7-0.1,0.9-0.2
		c0.2,0,0.4,0,0.6,0c0,0,0.1,0,0.2,0.1C54.1,65.8,54.1,65.9,54.2,66z"/>
	<path class="st0" d="M73.9,67.6c0,0.2,0,0.3-0.1,0.3S73.6,68,73.6,68s-0.3-0.1-0.7-0.4c-0.4-0.2-0.9-0.5-1.5-0.9
		c-0.6-0.3-1.1-0.7-1.7-1s-1-0.6-1.4-0.7c0.1,0.2,0.1,0.4,0.2,0.7c0.1,0.3,0.2,0.5,0.3,0.8c0.1,0.3,0.2,0.5,0.2,0.7
		c0.1,0.2,0.1,0.3,0.1,0.4c0,0.2,0,0.4,0,0.6c-0.1,0.2-0.2,0.3-0.4,0.3c-0.1,0-0.2,0-0.3,0c0,0-0.1-0.1-0.2-0.3
		c-0.1-0.2-0.2-0.5-0.3-0.8c-0.1-0.4-0.2-0.7-0.4-1.1c-0.1-0.4-0.2-0.8-0.3-1.2c-0.1-0.4-0.2-0.7-0.3-0.9c-0.1-0.1-0.3-0.2-0.5-0.4
		c-0.3-0.2-0.6-0.5-0.9-0.8c-0.4-0.3-0.7-0.6-1.1-1s-0.8-0.7-1.1-1s-0.6-0.6-0.9-0.9c-0.2-0.3-0.4-0.5-0.4-0.7c0-0.1,0-0.3,0.1-0.5
		s0.2-0.3,0.3-0.3s0.3,0.1,0.6,0.5c0.3,0.3,0.7,0.7,1.1,1.1c0.4,0.4,0.8,0.9,1.3,1.3c0.5,0.5,0.9,0.8,1.3,1c0-0.3-0.1-0.5-0.1-0.8
		c-0.1-0.2-0.1-0.5-0.1-0.7c0-0.1-0.1-0.3-0.1-0.6c-0.1-0.3-0.1-0.6-0.2-1s-0.1-0.8-0.1-1.2s0-0.8,0-1.2s0.1-0.7,0.1-0.9
		c0.1-0.2,0.2-0.4,0.4-0.4c0.1,0,0.2,0,0.3,0.2c0.1,0.2,0.1,0.3,0.1,0.3c0.1,0.5,0.2,1,0.2,1.5s0.1,1,0.1,1.5s0.1,1.1,0.1,1.7
		c0.1,0.6,0.2,1.2,0.3,1.9v0.1c0,0,0,0.1,0.1,0.2c0.1,0.1,0.3,0.3,0.6,0.5c0.3,0.2,0.7,0.4,1.1,0.7c0.4,0.2,0.9,0.5,1.4,0.8
		s0.9,0.5,1.4,0.8c0.4,0.3,0.8,0.5,1.1,0.8C73.7,67.2,73.8,67.4,73.9,67.6z"/>
	<path class="st0" d="M77.4,57.4c0,1,0.1,2,0.1,3c0,0.4,0,0.8,0,1.3c0,0.4,0,0.9,0.1,1.3c0,0.4,0,0.8,0.1,1.2c0,0.4,0.1,0.7,0.1,1
		c0,0.5,0.1,1,0.2,1.6s0.2,1.2,0.3,1.7c0.1,0.6,0.2,1.2,0.4,1.9c0,0.1,0,0.3,0,0.4c0,0.2,0,0.3,0.1,0.5c0,0.1,0,0.3,0,0.4
		s-0.1,0.2-0.3,0.2c-0.1,0-0.2,0-0.3-0.2c-0.1-0.2-0.2-0.4-0.3-0.6c-0.1-0.2-0.2-0.5-0.2-0.7c-0.1-0.2-0.1-0.4-0.1-0.5
		s-0.1-0.3-0.1-0.4c0-0.2-0.1-0.4-0.1-0.7c0-0.3-0.1-0.8-0.2-1.3s-0.1-1.2-0.2-2.1c0,0-0.1-0.1-0.3-0.2c-0.2-0.1-0.5-0.2-0.8-0.3
		c-0.3-0.1-0.7-0.3-1-0.5s-0.6-0.3-0.9-0.5c0,0-0.1-0.1-0.2-0.2c-0.1-0.1-0.1-0.2-0.2-0.3c0-0.1,0-0.2,0.1-0.2
		c0.1-0.1,0.1-0.1,0.2-0.2c0.1,0,0.1,0,0.2,0c0.4,0.2,0.8,0.5,1.3,0.7c0.5,0.3,1,0.5,1.5,0.7c0-0.3,0-0.7-0.1-1.2
		c0-0.6,0-1.1-0.1-1.8c0-0.6-0.1-1.2-0.1-1.8s-0.1-1.1-0.1-1.4c0-0.1,0-0.2,0-0.3s0-0.3,0-0.4c0-0.1,0.1-0.3,0.1-0.4
		c0.1-0.1,0.1-0.2,0.2-0.2c0,0,0.1,0,0.3,0.1C77.2,57,77.4,57.1,77.4,57.4z"/>
	<path class="st0" d="M88.1,61.1c0,0.1,0,0.2,0,0.4c0,0.1,0,0.2-0.1,0.2c-0.3,0.2-0.6,0.4-1,0.6c-0.4,0.2-0.8,0.4-1.2,0.6
		c-0.2,0.2-0.5,0.4-0.8,0.6c-0.3,0.2-0.7,0.5-1,0.8c-0.4,0.3-0.7,0.5-1,0.7s-0.6,0.3-0.8,0.4c-0.2,0-0.4,0-0.6-0.1s-0.3-0.2-0.4-0.4
		c-0.1-0.3,0-0.7,0.2-1.1s0.4-0.9,0.7-1.5c0.3-0.5,0.5-1,0.8-1.5s0.4-0.8,0.5-1.1c0,0,0,0-0.1,0h-0.1c-0.4,0.2-0.8,0.5-1.2,0.7
		c-0.3,0.2-0.6,0.3-1,0.5c-0.3,0.2-0.6,0.3-0.8,0.3c-0.1,0-0.3,0-0.4-0.1s-0.2-0.2-0.2-0.4v-0.1l0.1-0.1c0.2-0.1,0.4-0.2,0.8-0.4
		s0.7-0.4,1.1-0.6c0.4-0.2,0.8-0.4,1.2-0.5s0.7-0.3,0.9-0.3c0.2,0,0.3,0,0.5,0.1s0.4,0.2,0.5,0.4L82.4,64h-0.1c0,0.1,0,0.1,0.1,0.1
		s0.3-0.1,0.5-0.3c0.2-0.1,0.4-0.3,0.8-0.6c0.3-0.3,0.8-0.6,1.3-1s1.2-0.8,2-1.3c0.1-0.1,0.3-0.1,0.4-0.2c0.2,0,0.4,0,0.5,0
		C88,60.9,88,61,88.1,61.1z"/>
	<path class="st0" d="M99.1,58.7c0.1,0.3,0,0.6-0.2,1s-0.4,0.9-0.7,1.3c-0.3,0.4-0.7,0.8-1.2,1.2s-1,0.6-1.6,0.7
		c-0.3,0.1-0.5,0.1-0.8,0c-0.3,0-0.6-0.1-0.9-0.2c-0.3-0.1-0.6-0.3-0.9-0.4c-0.3-0.2-0.5-0.4-0.6-0.7c-0.1,0.1-0.1,0.3-0.2,0.5
		s-0.2,0.5-0.3,0.7c-0.1,0.2-0.2,0.5-0.4,0.6c-0.1,0.2-0.3,0.3-0.5,0.3s-0.4,0-0.5-0.2c-0.2-0.2-0.3-0.4-0.4-0.6
		c-0.1-0.2-0.2-0.4-0.3-0.6c-0.1-0.2-0.1-0.3-0.1-0.4c0-0.2-0.1-0.5-0.1-1s0-1,0.1-1.6s0.2-1.1,0.5-1.5s0.5-0.7,1-0.8
		c0.2,0,0.3,0,0.4,0.1s0.1,0.3,0.2,0.4l0.1,0.6c0.1,0,0.2,0.1,0.3,0.1c0.1,0,0.2,0,0.2,0c0.1,0,0.1,0.1,0.2,0.1
		c0.1,0.1,0.1,0.2,0.1,0.3s0,0.2,0,0.3s0,0.2,0,0.2c0.1,0.4,0.2,0.7,0.3,1.1c0.1,0.3,0.3,0.6,0.5,0.9c0.2,0.2,0.5,0.4,0.9,0.5
		s0.8,0.1,1.3,0c0.6-0.1,1.1-0.4,1.5-0.7c0.4-0.4,0.7-0.7,0.9-1.1c0.2-0.4,0.4-0.7,0.5-1s0.2-0.5,0.3-0.5
		C99,58.4,99.1,58.5,99.1,58.7z M91.4,59.3c0-0.1,0-0.1-0.1-0.2L91.2,59c0-0.1,0-0.1,0-0.2c0,0,0-0.1,0-0.2c0,0,0-0.1-0.1-0.1
		c0,0-0.1,0-0.1-0.1c-0.1,0.1-0.2,0.2-0.3,0.5c-0.1,0.2-0.2,0.5-0.2,0.8c-0.1,0.3-0.1,0.6-0.1,0.9c0,0.3,0,0.6,0,0.7
		c0,0.1,0.1,0.3,0.2,0.5s0.2,0.4,0.3,0.4c0.1-0.6,0.3-1.1,0.4-1.6C91.4,60.3,91.4,59.8,91.4,59.3z"/>
	<path class="st0" d="M103,62.1c-0.1,0.1-0.2,0.1-0.3,0.1c-0.1,0-0.3-0.1-0.5-0.3s-0.4-0.5-0.6-0.8s-0.4-0.7-0.6-1.1
		c-0.2-0.4-0.4-0.8-0.6-1.2s-0.3-0.7-0.4-0.9s-0.2-0.4-0.2-0.4c0-0.1-0.1-0.2-0.2-0.4s-0.2-0.6-0.4-1.1c-0.2-0.5-0.4-1.2-0.7-2
		c-0.3-0.8-0.6-1.8-0.9-3c0-0.1,0-0.3,0-0.5s0.1-0.3,0.2-0.4c0.2,0,0.4,0.1,0.5,0.3c0.2,0.2,0.3,0.6,0.5,1c0.1,0.4,0.3,0.8,0.4,1.2
		s0.2,0.8,0.4,1.1c0.2,0.4,0.3,0.9,0.4,1.2c0.1,0.4,0.3,0.7,0.4,1.1c0.1,0.4,0.3,0.7,0.4,1.1c0.2,0.4,0.4,0.8,0.6,1.3l1.6,3.4
		C103.1,62,103,62.1,103,62.1z"/>
	<path class="st0" d="M123,53.6c0.1,0.3,0,0.6-0.2,1s-0.4,0.9-0.7,1.3c-0.3,0.4-0.7,0.8-1.2,1.2s-1,0.6-1.6,0.7
		c-0.3,0.1-0.5,0.1-0.8,0c-0.3,0-0.6-0.1-0.9-0.2c-0.3-0.1-0.6-0.3-0.9-0.4c-0.3-0.2-0.5-0.4-0.6-0.7c-0.1,0.1-0.1,0.3-0.2,0.5
		s-0.2,0.5-0.3,0.7c-0.1,0.2-0.2,0.5-0.4,0.6c-0.1,0.2-0.3,0.3-0.5,0.3s-0.4,0-0.5-0.2c-0.2-0.2-0.3-0.4-0.4-0.6
		c-0.1-0.2-0.2-0.4-0.3-0.6c-0.1-0.2-0.1-0.3-0.1-0.4c0-0.2-0.1-0.5-0.1-1s0-1,0.1-1.6s0.2-1.1,0.5-1.5c0.2-0.5,0.5-0.7,1-0.8
		c0.2,0,0.3,0,0.4,0.1s0.1,0.3,0.2,0.4l0.1,0.6c0.1,0,0.2,0.1,0.3,0.1c0.1,0,0.2,0,0.2,0c0.1,0,0.1,0.1,0.2,0.1
		c0.1,0.1,0.1,0.2,0.1,0.3s0,0.2,0,0.3s0,0.2,0,0.2c0.1,0.4,0.2,0.7,0.3,1.1c0.1,0.3,0.3,0.6,0.5,0.9c0.2,0.2,0.5,0.4,0.9,0.5
		c0.3,0.1,0.8,0.1,1.3,0c0.6-0.1,1.1-0.4,1.5-0.7c0.4-0.4,0.7-0.7,0.9-1.1c0.2-0.4,0.4-0.7,0.5-1s0.2-0.5,0.3-0.5
		C122.9,53.3,123,53.4,123,53.6z M115.3,54.2c0-0.1,0-0.1-0.1-0.2l-0.1-0.1c0-0.1,0-0.1,0-0.2c0,0,0-0.1,0-0.2c0,0,0-0.1-0.1-0.1
		c0,0-0.1,0-0.1-0.1c-0.1,0.1-0.2,0.2-0.3,0.5c-0.1,0.2-0.2,0.5-0.2,0.8c-0.1,0.3-0.1,0.6-0.1,0.9c0,0.3,0,0.6,0,0.7
		c0,0.1,0.1,0.3,0.2,0.5s0.2,0.4,0.3,0.4c0.1-0.6,0.3-1.1,0.4-1.6C115.4,55.2,115.4,54.7,115.3,54.2z"/>
	<path class="st0" d="M130.1,54c0,0.1,0,0.2,0,0.3s-0.1,0.2-0.2,0.3c-0.1,0.1-0.1,0.2-0.2,0.2c-0.1,0.1-0.2,0.1-0.2,0.1
		c-0.2,0.1-0.6,0.1-1,0c-0.4,0-0.7-0.1-1-0.3s-0.6-0.4-0.8-0.7c-0.3-0.3-0.6-0.8-0.9-1.4c0,0.7-0.1,1.3-0.2,2s-0.3,1.3-0.6,1.9
		l-0.1,0.1c-0.1,0-0.2,0-0.4-0.1s-0.2-0.2-0.2-0.3s-0.1-0.3-0.2-0.7s-0.2-0.8-0.3-1.2c-0.1-0.4-0.2-0.9-0.4-1.4
		c-0.1-0.5-0.2-0.8-0.3-1.1c0-0.1-0.1-0.3-0.1-0.6c0-0.2,0-0.5,0-0.6c0,0,0-0.1,0.1-0.2c0.1-0.1,0.2-0.2,0.3-0.2
		c0.1,0,0.2,0,0.2,0.2c0,0.1,0.1,0.3,0.1,0.4l0.7,3.4c0,0.1,0,0.2,0.1,0.3c0,0.1,0.1,0.2,0.2,0.3c0.1-0.4,0.1-0.8,0.2-1.3
		c0-0.5,0.1-1,0.1-1.4c0-0.5,0.1-0.8,0.2-1.2c0.1-0.3,0.2-0.5,0.3-0.5c0.1,0,0.3,0,0.4,0s0.2,0.1,0.3,0.3c0.2,0.4,0.3,0.8,0.4,1.1
		s0.2,0.6,0.3,0.8c0.1,0.2,0.3,0.5,0.4,0.7c0.2,0.2,0.4,0.4,0.6,0.5s0.5,0.2,0.8,0.3c0.3,0,0.5,0,0.7,0c0.1,0,0.2-0.1,0.3-0.1
		s0.2-0.1,0.2-0.1c0.1,0,0.1,0,0.2,0.1C130.1,53.9,130.1,54,130.1,54z"/>
	<path class="st0" d="M137.2,51.7c0,0.1,0,0.1-0.1,0.2c-0.1,0.1-0.1,0.2-0.1,0.2c0,0.2,0.1,0.3,0.2,0.4c0.1,0.1,0.2,0.3,0.2,0.5
		s0,0.3-0.1,0.3s-0.2,0.1-0.3,0.1s-0.2,0.1-0.3,0.2c-0.1,0-0.2,0-0.3-0.2c-0.1-0.1-0.1-0.1-0.2-0.2c0,0,0,0-0.1,0.1
		s-0.2,0.2-0.3,0.3c-0.2,0.1-0.4,0.3-0.7,0.4s-0.7,0.3-1.1,0.4c-0.4,0.1-0.8,0.1-1.1,0s-0.6-0.3-0.9-0.5c-0.3-0.2-0.5-0.5-0.6-0.9
		c-0.2-0.3-0.3-0.7-0.4-1.1c-0.1-0.3-0.1-0.7-0.1-1s0.1-0.6,0.2-0.9s0.2-0.5,0.4-0.7s0.4-0.3,0.7-0.4c0.3-0.1,0.6,0,0.9,0.1
		c0.3,0.1,0.6,0.2,0.9,0.4c0.3,0.2,0.6,0.4,0.9,0.6c-0.4-1.1-0.8-2.1-1.2-2.9c-0.2-0.4-0.3-0.7-0.4-1.1c-0.1-0.4-0.3-0.7-0.4-1
		c-0.1-0.3-0.2-0.5-0.3-0.7s-0.1-0.3-0.1-0.4c0-0.1-0.1-0.2-0.1-0.5c-0.1-0.2-0.1-0.4-0.2-0.7c-0.1-0.2-0.1-0.5-0.2-0.7
		c-0.1-0.2-0.1-0.3-0.1-0.4c-0.1-0.1-0.2-0.3-0.3-0.5s-0.2-0.3-0.2-0.3c0-0.1,0-0.2,0.1-0.3c0-0.1,0.1-0.2,0.2-0.2
		c0.1,0,0.2,0,0.2,0c0.1,0,0.1,0,0.2,0.1c0.1,0.1,0.1,0.2,0.2,0.3c0.1,0.1,0.2,0.3,0.3,0.6c0,0.1,0.1,0.4,0.3,0.8
		c0.2,0.4,0.3,0.8,0.5,1.3s0.3,0.9,0.5,1.3c0.2,0.4,0.3,0.7,0.4,0.9c0.2,0.5,0.4,1.1,0.7,1.7c0.3,0.6,0.5,1.2,0.8,1.8
		s0.5,1.1,0.7,1.5s0.4,0.7,0.5,0.8c0,0.1,0.1,0.1,0.2,0.1C137.1,51.6,137.1,51.6,137.2,51.7z M135.7,52.4c0,0-0.2-0.2-0.4-0.5
		s-0.5-0.6-0.8-0.9c-0.3-0.3-0.7-0.6-1.1-0.8c-0.4-0.2-0.7-0.3-1-0.3c-0.2,0.1-0.4,0.3-0.5,0.7s-0.1,0.9,0,1.3
		c0.1,0.5,0.4,0.9,0.8,1.2c0.4,0.3,0.8,0.4,1.2,0.3c0.3-0.1,0.7-0.2,1-0.4C135.3,52.8,135.6,52.6,135.7,52.4z"/>
	<path class="st0" d="M157.6,50.1c0,0.1,0,0.3-0.1,0.4s-0.2,0.2-0.4,0.3H157c-0.1,0-0.1,0-0.1-0.1c-0.7-0.4-1.5-0.9-2.3-1.3
		c-0.8-0.4-1.6-0.8-2.4-1.3c-0.8-0.4-1.6-0.9-2.4-1.4s-1.6-1.1-2.3-1.7c0.4,0.7,0.8,1.5,1.3,2.3s1,1.6,1.4,2.2
		c0.5,0.7,0.8,1.3,1.2,1.8c0.3,0.5,0.5,0.8,0.5,1s0,0.3-0.1,0.5c-0.1,0.1-0.2,0.2-0.4,0.3c-0.1,0-0.2-0.1-0.3-0.2
		c-0.1-0.2-0.3-0.4-0.5-0.6c-0.2-0.3-0.4-0.6-0.6-0.9c-0.2-0.3-0.4-0.7-0.6-1c-0.2-0.3-0.4-0.6-0.5-0.9c-0.2-0.3-0.3-0.5-0.4-0.7
		l-1-1.6c-0.2-0.3-0.4-0.7-0.6-1.1s-0.4-0.7-0.6-1c-0.2-0.3-0.3-0.6-0.4-0.8c-0.1-0.2-0.2-0.4-0.2-0.5c0-0.2,0-0.3,0-0.5
		s0.1-0.3,0.2-0.3c0.1,0,0.1,0,0.2,0h0.1l0.2-0.2c0.1,0,0.2,0,0.4,0.2s0.5,0.3,0.8,0.6c0.3,0.2,0.6,0.5,1,0.8
		c0.3,0.3,0.7,0.6,1.1,0.9c0.4,0.3,0.7,0.6,1,0.8s0.6,0.4,0.8,0.6c0.4,0.2,0.7,0.4,1.1,0.6c0.4,0.2,0.7,0.4,1.1,0.6
		c0.4,0.2,0.8,0.4,1.2,0.6c0.4,0.2,0.9,0.5,1.4,0.8h0.1c0,0,0,0,0-0.1s0-0.2-0.1-0.3c0-0.2-0.2-0.6-0.4-1.1s-0.5-1.1-0.9-1.7
		c-0.4-0.7-0.8-1.3-1.2-2.1c-0.4-0.7-0.9-1.4-1.4-2.1c-0.5-0.7-0.9-1.3-1.4-1.8s-0.9-0.9-1.3-1.2c-0.1-0.1-0.2-0.2-0.3-0.3
		c-0.1-0.2-0.1-0.3-0.1-0.4c0-0.1,0-0.2,0.1-0.4s0.2-0.2,0.3-0.3c0.2,0,0.4,0.1,0.7,0.4c0.3,0.3,0.6,0.7,1,1.2s0.7,1.1,1.1,1.7
		c0.4,0.6,0.8,1.3,1.2,1.9c0.5,0.8,0.9,1.5,1.3,2.3c0.4,0.8,0.8,1.5,1.1,2.1c0.3,0.7,0.6,1.3,0.9,1.8
		C157.4,49.3,157.5,49.8,157.6,50.1z"/>
	<path class="st0" d="M167.9,44.1c0.1,0.3,0,0.6-0.2,1s-0.4,0.9-0.7,1.3c-0.3,0.4-0.7,0.8-1.2,1.2s-1,0.6-1.6,0.7
		c-0.3,0.1-0.5,0.1-0.8,0c-0.3,0-0.6-0.1-0.9-0.2c-0.3-0.1-0.6-0.3-0.9-0.4c-0.3-0.2-0.5-0.4-0.6-0.7c-0.1,0.1-0.1,0.3-0.2,0.5
		c-0.1,0.2-0.2,0.5-0.3,0.7s-0.2,0.5-0.4,0.6c-0.1,0.2-0.3,0.3-0.5,0.3s-0.4,0-0.5-0.2c-0.2-0.2-0.3-0.4-0.4-0.6
		c-0.1-0.2-0.2-0.4-0.3-0.6c-0.1-0.2-0.1-0.3-0.1-0.4c0-0.2-0.1-0.5-0.1-1s0-1,0.1-1.6s0.2-1.1,0.5-1.5c0.2-0.5,0.5-0.7,1-0.8
		c0.2,0,0.3,0,0.4,0.1c0.1,0.1,0.1,0.3,0.2,0.4l0.1,0.6c0.1,0,0.2,0.1,0.3,0.1s0.2,0,0.2,0c0.1,0,0.1,0.1,0.2,0.1
		c0.1,0.1,0.1,0.2,0.1,0.3s0,0.2,0,0.3s0,0.2,0,0.2c0.1,0.4,0.2,0.7,0.3,1.1c0.1,0.3,0.3,0.6,0.5,0.9c0.2,0.2,0.5,0.4,0.9,0.5
		c0.3,0.1,0.8,0.1,1.3,0c0.6-0.1,1.1-0.4,1.5-0.7c0.4-0.4,0.7-0.7,0.9-1.1c0.2-0.4,0.4-0.7,0.5-1s0.2-0.5,0.3-0.5
		C167.8,43.8,167.9,43.9,167.9,44.1z M160.2,44.7c0-0.1,0-0.1-0.1-0.2l-0.1-0.1c0-0.1,0-0.1,0-0.2c0,0,0-0.1,0-0.2
		c0,0,0-0.1-0.1-0.1c0,0-0.1,0-0.1-0.1c-0.1,0.1-0.2,0.2-0.3,0.5c-0.1,0.2-0.2,0.5-0.2,0.8c-0.1,0.3-0.1,0.6-0.1,0.9
		c0,0.3,0,0.6,0,0.7c0,0.1,0.1,0.3,0.2,0.5c0.1,0.2,0.2,0.4,0.3,0.4c0.1-0.6,0.3-1.1,0.4-1.6C160.3,45.7,160.3,45.2,160.2,44.7z"/>
	<path class="st0" d="M173.4,44.6c0.1,0.2,0,0.5-0.1,0.7s-0.3,0.4-0.5,0.6c-0.2,0.2-0.5,0.3-0.8,0.5c-0.3,0.1-0.6,0.2-0.8,0.3
		c-0.3,0.1-0.5,0.2-0.7,0.2c-0.2,0.1-0.3,0.1-0.4,0.1c-0.3,0.1-0.6,0.1-0.8,0s-0.3-0.2-0.4-0.5c0-0.1,0-0.2,0-0.2
		c0-0.1,0.1-0.1,0.2-0.1c0,0,0.1,0,0.2,0c0.1,0,0.2,0,0.2,0s0.2-0.1,0.5-0.1c0.3-0.1,0.6-0.2,1-0.3c0.3-0.1,0.6-0.3,0.9-0.4
		c0.3-0.2,0.4-0.3,0.3-0.5c0,0-0.2-0.1-0.5-0.2c-0.3-0.1-0.8-0.2-1.5-0.5c-0.5-0.2-0.9-0.4-1.2-0.7c-0.2-0.3-0.4-0.6-0.5-1.1
		c-0.1-0.3-0.1-0.6,0-0.8s0.2-0.4,0.5-0.6c0.2-0.2,0.5-0.3,0.8-0.4c0.3-0.1,0.6-0.2,1-0.3c0,0,0.1,0,0.3,0s0.3,0,0.5,0
		s0.4,0.1,0.5,0.1c0.2,0.1,0.2,0.2,0.3,0.3v0.1c0,0.1-0.1,0.2-0.2,0.4c0,0-0.1,0-0.2,0c-0.1,0-0.2,0-0.4,0c-0.1,0-0.3,0-0.4,0
		c-0.1,0-0.3,0-0.4,0c-0.4,0.1-0.7,0.2-0.9,0.4s-0.3,0.5-0.2,0.9c0,0.2,0.2,0.3,0.3,0.5c0.2,0.1,0.4,0.2,0.7,0.3s0.5,0.2,0.8,0.3
		s0.6,0.2,0.8,0.3c0.3,0.1,0.5,0.2,0.7,0.4C173.2,44.2,173.3,44.4,173.4,44.6z"/>
	<path class="st0" d="M185.1,40.5c0.1,0.3,0,0.6-0.2,1s-0.4,0.9-0.7,1.3c-0.3,0.4-0.7,0.8-1.2,1.2s-1,0.6-1.6,0.7
		c-0.3,0.1-0.5,0.1-0.8,0c-0.3,0-0.6-0.1-0.9-0.2c-0.3-0.1-0.6-0.3-0.9-0.4c-0.3-0.2-0.5-0.4-0.6-0.7c-0.1,0.1-0.1,0.3-0.2,0.5
		c-0.1,0.2-0.2,0.5-0.3,0.7s-0.2,0.5-0.4,0.6c-0.1,0.2-0.3,0.3-0.5,0.3s-0.4,0-0.5-0.2c-0.2-0.2-0.3-0.4-0.4-0.6
		c-0.1-0.2-0.2-0.4-0.3-0.6c-0.1-0.2-0.1-0.3-0.1-0.4c0-0.2-0.1-0.5-0.1-1s0-1,0.1-1.6s0.2-1.1,0.5-1.5c0.2-0.5,0.5-0.7,1-0.8
		c0.2,0,0.3,0,0.4,0.1c0.1,0.1,0.1,0.3,0.2,0.4l0.1,0.6c0.1,0,0.2,0.1,0.3,0.1s0.2,0,0.2,0c0.1,0,0.1,0.1,0.2,0.1
		c0.1,0.1,0.1,0.2,0.1,0.3s0,0.2,0,0.3s0,0.2,0,0.2c0.1,0.4,0.2,0.7,0.3,1.1c0.1,0.3,0.3,0.6,0.5,0.9c0.2,0.2,0.5,0.4,0.9,0.5
		c0.3,0.1,0.8,0.1,1.3,0c0.6-0.1,1.1-0.4,1.5-0.7c0.4-0.4,0.7-0.7,0.9-1.1c0.2-0.4,0.4-0.7,0.5-1s0.2-0.5,0.3-0.5
		C185,40.2,185.1,40.3,185.1,40.5z M177.4,41.1c0-0.1,0-0.1-0.1-0.2l-0.1-0.1c0-0.1,0-0.1,0-0.2c0,0,0-0.1,0-0.2c0,0,0-0.1-0.1-0.1
		c0,0-0.1,0-0.1-0.1c-0.1,0.1-0.2,0.2-0.3,0.5c-0.1,0.2-0.2,0.5-0.2,0.8c-0.1,0.3-0.1,0.6-0.1,0.9s0,0.6,0,0.7
		c0,0.1,0.1,0.3,0.2,0.5c0.1,0.2,0.2,0.4,0.3,0.4c0.1-0.6,0.3-1.1,0.4-1.6C177.4,42.1,177.5,41.6,177.4,41.1z"/>
	<path class="st0" d="M191.7,39.6c0,0.1,0,0.3,0,0.5s0,0.3-0.1,0.4c0,0-0.1,0.2-0.3,0.5s-0.4,0.6-0.7,1c-0.3,0.3-0.6,0.7-1,1
		s-0.8,0.5-1.2,0.6c-0.2,0.1-0.5,0.1-0.8,0c-0.3,0-0.5-0.1-0.8-0.3c-0.3-0.1-0.5-0.4-0.7-0.6c-0.2-0.3-0.3-0.6-0.4-1
		c-0.1-0.7-0.2-1.3-0.1-1.9c0.1-0.6,0.2-1.1,0.4-1.5c0.1-0.2,0.2-0.4,0.3-0.6c0.1-0.2,0.3-0.4,0.4-0.6c0.1-0.2,0.3-0.3,0.4-0.4
		c0.1-0.1,0.2-0.2,0.3-0.2s0.3,0,0.4,0c0.1,0,0.2,0.1,0.2,0.2c0,0.1,0,0.2,0,0.3s-0.1,0.2-0.2,0.3c-0.1,0.1-0.2,0.3-0.3,0.5
		s-0.2,0.4-0.4,0.7c-0.2,0.5-0.4,1.1-0.5,1.6s-0.1,1,0,1.4s0.3,0.6,0.6,0.8s0.6,0.2,0.9,0.1c0.5-0.1,1-0.3,1.4-0.7
		c0.4-0.3,0.7-0.7,0.9-1c0.2-0.4,0.4-0.7,0.6-1s0.2-0.4,0.3-0.5C191.5,39.3,191.6,39.4,191.7,39.6z"/>
	<path class="st0" d="M197.1,37.7c0.1,0.3,0.1,0.6,0.1,0.9c0,0.3-0.1,0.6-0.2,0.8c-0.1,0.2-0.2,0.5-0.4,0.6
		c-0.2,0.2-0.4,0.3-0.6,0.3c-0.4,0.1-0.7,0-1-0.1c-0.3-0.2-0.5-0.4-0.7-0.7s-0.3-0.6-0.4-0.9c-0.1-0.3-0.2-0.5-0.2-0.7
		c-0.1-0.3-0.1-0.6-0.1-0.9c0-0.3,0.1-0.7,0.1-1c0.1-0.3,0.2-0.6,0.3-0.8s0.3-0.4,0.5-0.4c0,0,0.1,0,0.2,0c0.1,0,0.2,0,0.3,0.1
		c0.1,0,0.2,0.1,0.3,0.2c0.1,0.1,0.2,0.2,0.2,0.3c0.2,0,0.3,0,0.5,0.1s0.3,0.1,0.3,0.2c0.2,0.3,0.3,0.7,0.5,1.1
		C197,37.2,197.1,37.5,197.1,37.7z M196.1,37.6c0-0.2-0.1-0.4-0.2-0.7c-0.1-0.2-0.2-0.5-0.4-0.7h-0.1c-0.1,0-0.1,0-0.1,0h-0.1
		c-0.2,0-0.3,0.1-0.4,0.2c-0.1,0.1-0.1,0.3-0.1,0.4c0,0.2,0,0.3,0,0.5s0,0.3,0.1,0.5c0,0.2,0.1,0.3,0.1,0.5c0.1,0.2,0.1,0.4,0.2,0.5
		c0.1,0.2,0.2,0.3,0.3,0.4c0.1,0.1,0.2,0.1,0.4,0.1c0.1,0,0.2-0.1,0.3-0.3s0.1-0.4,0.1-0.6c0-0.2,0-0.4,0-0.6
		C196.1,37.8,196.1,37.6,196.1,37.6z"/>
	<path class="st0" d="M204,34.3c0,0.1,0,0.2-0.1,0.3s-0.2,0.2-0.3,0.2c-0.1,0.1-0.2,0.1-0.3,0.2c-0.1,0-0.2,0.1-0.3,0.1
		c-0.2,0-0.4,0.1-0.4,0c-0.1,0-0.1,0-0.2,0c-0.4,0.1-0.6,0.2-0.8,0.3s-0.4,0.2-0.4,0.4c-0.1,0.2-0.1,0.3-0.1,0.5s0,0.4,0.1,0.7
		c0.1,0.5,0.2,0.8,0.3,1.1s0.2,0.5,0.2,0.6c0.1,0.2,0.1,0.3,0.2,0.4c0.1,0.1,0.1,0.2,0.1,0.3s0,0.2-0.1,0.4s-0.2,0.2-0.3,0.3
		c-0.2,0-0.4-0.1-0.6-0.4c-0.2-0.3-0.4-0.6-0.6-1c-0.2-0.4-0.3-0.8-0.5-1.2c-0.1-0.4-0.2-0.7-0.3-0.9s-0.1-0.5-0.1-0.7s0-0.4,0-0.6
		c0-0.2,0.1-0.3,0.2-0.4s0.1-0.2,0.2-0.2c0.1,0,0.1,0,0.2,0c0.1,0,0.1,0.1,0.1,0.1c0,0.1,0.1,0.1,0.1,0.2c0,0,0.1,0.1,0.2,0
		c0.1,0,0.3-0.1,0.6-0.3s0.6-0.3,1-0.4c0.4-0.1,0.7-0.1,0.9-0.2c0.2,0,0.4,0,0.6,0c0,0,0.1,0,0.2,0.1
		C203.9,34.1,203.9,34.2,204,34.3z"/>
	<path class="st0" d="M210.7,29.5c-0.1,0.3-0.4,0.5-0.7,0.8s-0.6,0.5-0.9,0.8c-0.3,0.2-0.6,0.5-0.8,0.6c-0.2,0.2-0.3,0.3-0.3,0.3
		s0.1,0.2,0.2,0.4c0.1,0.2,0.2,0.4,0.4,0.7c0.1,0.3,0.3,0.6,0.4,0.9c0.2,0.3,0.3,0.6,0.4,0.8c0.1,0.1,0.1,0.3,0.2,0.5
		c0.1,0.2,0.2,0.4,0.3,0.7c0.1,0.2,0.2,0.4,0.2,0.6c0.1,0.2,0.1,0.3,0.1,0.3c0,0.2,0.1,0.4,0,0.7c0,0.2-0.1,0.4-0.3,0.4
		c-0.1,0-0.2,0-0.3-0.1s-0.2-0.1-0.2-0.2s-0.1-0.2-0.2-0.2s-0.1-0.1-0.1-0.2v-0.1c0-0.1,0-0.1,0-0.2c-0.1-0.3-0.2-0.7-0.4-1.2
		c-0.1-0.2-0.2-0.4-0.3-0.7c-0.2-0.3-0.3-0.6-0.5-1s-0.4-0.8-0.6-1.2c-0.1-0.2-0.2-0.3-0.2-0.3c-0.1,0-0.3,0.1-0.5,0.3
		s-0.4,0.4-0.7,0.6c-0.3,0.2-0.5,0.5-0.8,0.8s-0.6,0.5-0.8,0.8c-0.2,0.2-0.5,0.4-0.6,0.6c-0.2,0.2-0.3,0.3-0.3,0.3
		c-0.2,0-0.4,0-0.5-0.1s-0.2-0.2-0.3-0.4c0-0.1,0.1-0.2,0.3-0.5c0.2-0.2,0.5-0.5,0.8-0.7c0.3-0.3,0.6-0.6,1-0.9
		c0.4-0.3,0.7-0.6,1-0.8s0.7-0.5,1.1-0.9c-0.3-0.6-0.5-1.2-0.7-1.7c-0.2-0.4-0.3-0.8-0.5-1.2c-0.1-0.4-0.2-0.6-0.2-0.6
		c0-0.2,0-0.3,0-0.4c0.1-0.1,0.1-0.2,0.2-0.2c0.2,0,0.3,0.1,0.4,0.3c0.3,0.7,0.6,1.4,0.9,2c0.3,0.6,0.5,1,0.7,1.4
		c0.1-0.1,0.3-0.2,0.6-0.4c0.3-0.2,0.6-0.4,0.9-0.6c0.3-0.2,0.6-0.4,0.8-0.6s0.4-0.3,0.4-0.3c0.1,0,0.1,0,0.2,0.1
		C210.6,29.5,210.7,29.5,210.7,29.5z"/>
	<path class="st0" d="M218.7,28.3c0.1,0.3,0,0.6-0.2,0.9s-0.4,0.7-0.6,1c-0.3,0.4-0.5,0.7-0.8,1.1s-0.6,0.8-0.8,1.1
		c-0.3,0.4-0.5,0.7-0.6,1c-0.2,0.3-0.2,0.6-0.2,0.8s0.1,0.3,0.2,0.5c0.1,0.2,0.2,0.3,0.3,0.4c0,0.1-0.1,0.3-0.2,0.3
		c-0.1,0.1-0.1,0.1-0.3,0.2c-0.1,0-0.2,0-0.3-0.1s-0.2-0.2-0.3-0.3s-0.2-0.2-0.2-0.4c-0.1-0.1-0.1-0.3-0.1-0.4
		c-0.1-0.3-0.1-0.6,0-0.9c0-0.2,0.1-0.5,0.3-0.7c0.1-0.2,0.3-0.5,0.5-0.7c0.2-0.3,0.5-0.5,0.8-0.9c0.2-0.3,0.4-0.5,0.6-0.8
		c0.2-0.3,0.4-0.6,0.6-0.8c0.2-0.3,0.3-0.5,0.4-0.8c0.1-0.2,0.1-0.4,0.1-0.6c0-0.1-0.1-0.3-0.3-0.4s-0.3-0.2-0.6-0.3
		c-0.2-0.1-0.5-0.1-0.8-0.1s-0.6,0-0.9,0.1c-0.7,0.1-1.2,0.3-1.6,0.5c-0.4,0.2-0.7,0.3-0.9,0.3c-0.1,0-0.2,0-0.4,0
		c-0.1,0-0.2-0.1-0.2-0.3c0-0.2,0.1-0.3,0.3-0.5s0.5-0.3,0.8-0.4s0.6-0.2,0.9-0.3c0.3-0.1,0.5-0.1,0.6-0.2c0.4-0.1,0.9-0.1,1.3-0.1
		c0.4,0,0.8,0.1,1.2,0.3c0.4,0.1,0.6,0.3,0.9,0.5C218.5,27.8,218.6,28,218.7,28.3z M217.8,38.1c0,0.2,0,0.3-0.2,0.5
		c-0.2,0.1-0.3,0.2-0.4,0.2c-0.1,0-0.3,0-0.5-0.1s-0.3-0.2-0.3-0.3c0,0,0-0.1,0-0.2c0-0.1,0-0.2,0-0.3s0-0.2,0.1-0.3
		c0-0.1,0.1-0.1,0.2-0.1c0,0,0.1,0,0.2,0s0.2,0.1,0.4,0.2c0.1,0.1,0.3,0.1,0.4,0.2C217.7,38,217.8,38,217.8,38.1z"/>
</g>
<path class="st0" d="M167.4,68.4c1.4-1.4,1.8-3.7,0.7-5.4c-1.3-2-4-2.6-6-1.4c-2,1.3-2.6,4-1.4,6c1.1,1.8,3.3,2.5,5.2,1.7
	c11,29.2,7.9,46.6-25.6,67.8c-1.2,0.8-2.5,1.5-3.8,2.2l2.5-10.9c0.1-0.5-0.2-0.9-0.6-1c-0.5-0.1-0.9,0.2-1,0.6l-2.9,12.8
	c-0.1,0.5,0.2,0.9,0.6,1l12.8,2.9c0.5,0.1,0.9-0.2,1-0.6c0.1-0.2,0-0.5-0.1-0.6c-0.1-0.2-0.3-0.3-0.5-0.4l-10.7-2.4
	c1.3-0.6,2.5-1.3,3.7-2.1C175.4,117,178.9,98.5,167.4,68.4z M165.8,67.5c-1.2,0.8-2.9,0.4-3.6-0.8c-0.8-1.2-0.4-2.9,0.8-3.6
	c1.2-0.8,2.9-0.4,3.6,0.8C167.4,65.1,167,66.8,165.8,67.5z"/>
</svg>
